M48
;GenerationSoftware,Autodesk,EAGLE,9.7.0*%
;CreationDate,2023-06-01T14:54:37Z*%
FMAT,2
ICI,OFF
METRIC,TZ,000.000
T1C0.350
%
G90
M71
T1
X6706Y35611
X17275Y28804
X14021Y28499
X13312Y33373
X16808Y22733
X13995Y34925
X14224Y32461
X11735Y27889
X12878Y23114
X11049Y5512
X2286Y8382
X6731Y14046
X6858Y7925
X13411Y5283
X6223Y24511
X13386Y30277
X13411Y27280
X15088Y27432
X6096Y27407
X15240Y15469
X11430Y8839
X2286Y7468
X3962Y22708
X16916Y26213
X8026Y38111
X16433Y23901
X7112Y5512
X8687Y32461
X7239Y32029
X8534Y21946
X7925Y7925
X16891Y14560
X3502Y4572
X10820Y19507
X8382Y24438
X5029Y18288
X5029Y20422
X10363Y12014
X13284Y25044
X7549Y17395
X11735Y16002
X1826Y4877
X16053Y3277
X15926Y6375
X15545Y11125
X17678Y16916
X16612Y15697
X9296Y20117
X6985Y18547
X3353Y11278
X4978Y10490
X17983Y18136
X18024Y20678
X3353Y19812
X8763Y17628
X16506Y20574
X5791Y23216
X6553Y15850
X2438Y16764
X3912Y29286
M30