G04 EAGLE Gerber RS-274X export*
G75*
%MOMM*%
%FSLAX34Y34*%
%LPD*%
%INTop Copper*%
%IPPOS*%
%AMOC8*
5,1,8,0,0,1.08239X$1,22.5*%
G01*
G04 Define Apertures*
%ADD10R,0.650000X0.620000*%
%ADD11R,0.620000X0.620000*%
%ADD12R,0.620000X0.560000*%
%ADD13R,0.620000X0.650000*%
%ADD14R,1.900000X0.500000*%
%ADD15R,2.000000X2.000000*%
%ADD16C,0.306000*%
%ADD17R,0.400000X0.250000*%
%ADD18R,0.400000X0.700000*%
%ADD19R,0.500000X0.475000*%
%ADD20R,0.475000X0.500000*%
%ADD21R,0.950000X0.900000*%
%ADD22R,1.500000X1.400000*%
%ADD23C,0.203200*%
D10*
X207600Y469900D03*
X198800Y469900D03*
D11*
X84400Y320040D03*
X93400Y320040D03*
D12*
X125730Y320320D03*
X125730Y329920D03*
D11*
X93400Y292100D03*
X84400Y292100D03*
D13*
X111760Y233090D03*
X111760Y241890D03*
D11*
X137740Y173990D03*
X146740Y173990D03*
D14*
X267970Y385010D03*
X267970Y410010D03*
D15*
X165100Y212090D03*
D16*
X160100Y271700D03*
X165100Y271700D03*
X170100Y271700D03*
X160100Y266700D03*
X170100Y266700D03*
X160100Y261700D03*
X165100Y261700D03*
X170100Y261700D03*
D17*
X165410Y379440D03*
X165410Y374940D03*
D18*
X172410Y377190D03*
D19*
X271780Y261575D03*
X271780Y271825D03*
X92710Y232370D03*
X92710Y242610D03*
X88900Y182925D03*
X88900Y172675D03*
X224790Y262845D03*
X224790Y273095D03*
X270510Y335325D03*
X270510Y325075D03*
X224790Y220940D03*
X224790Y231180D03*
D20*
X208320Y444500D03*
X198080Y444500D03*
X94025Y444500D03*
X83775Y444500D03*
D21*
X227330Y324740D03*
X227330Y340740D03*
D20*
X83780Y215900D03*
X94020Y215900D03*
X83775Y265430D03*
X94025Y265430D03*
D15*
X165100Y417830D03*
X267970Y444500D03*
X38100Y165100D03*
X177800Y326390D03*
X38100Y292100D03*
X38100Y249767D03*
X38100Y207433D03*
D22*
X227330Y381000D03*
X227330Y409000D03*
D15*
X125730Y373446D03*
D23*
X165100Y303530D02*
X165100Y271700D01*
X165100Y303530D02*
X138710Y329920D01*
X125730Y329920D01*
X125730Y373446D02*
X163916Y373446D01*
X165410Y374940D01*
X125730Y373446D02*
X125730Y370840D01*
X125730Y329920D01*
X224790Y231180D02*
X254000Y260390D01*
X254000Y278130D01*
X279400Y303530D01*
X279400Y327660D01*
X276860Y330200D01*
X264160Y330200D01*
X252730Y318770D01*
X252730Y301035D01*
X224790Y273095D01*
X205740Y292145D01*
X205740Y321310D01*
X217170Y332740D01*
X238760Y332740D01*
X251460Y345440D01*
X251460Y389890D01*
X257810Y396240D01*
X294640Y396240D01*
X298450Y400050D01*
X298450Y469900D01*
X288290Y480060D01*
X118110Y480060D01*
X114300Y476250D01*
X96520Y476250D01*
X88900Y468630D01*
X88900Y407670D01*
X125730Y370840D01*
X165100Y261700D02*
X165100Y212090D01*
X165100Y192350D02*
X146740Y173990D01*
X165100Y192350D02*
X165100Y212090D01*
X267970Y337865D02*
X267970Y385010D01*
X267970Y337865D02*
X270510Y335325D01*
X250190Y325120D02*
X227710Y325120D01*
X250190Y325120D02*
X260395Y335325D01*
X270510Y335325D01*
X287020Y287065D02*
X271780Y271825D01*
X287020Y287065D02*
X287020Y326390D01*
X278085Y335325D01*
X270510Y335325D01*
X125730Y320320D02*
X125730Y308610D01*
X115570Y308610D01*
X115570Y293370D01*
X139700Y293370D01*
X139700Y308610D01*
X127000Y308610D01*
X127000Y307340D01*
X118110Y307340D01*
X116840Y307340D01*
X116840Y294640D01*
X138430Y294640D01*
X138430Y307340D01*
X127000Y307340D01*
X118110Y307340D02*
X118110Y295910D01*
X137160Y295910D01*
X137160Y306070D01*
X119380Y306070D01*
X119380Y297180D01*
X135890Y297180D01*
X135890Y304800D01*
X120650Y304800D01*
X120650Y298450D01*
X134620Y298450D01*
X134620Y303530D01*
X121920Y303530D01*
X121920Y299720D01*
X133350Y299720D01*
X133350Y302260D01*
X123190Y302260D01*
X123190Y300990D01*
X132080Y300990D01*
X227330Y324740D02*
X228600Y323470D01*
X228600Y312420D01*
X237490Y312420D01*
X238760Y312420D01*
X238760Y298450D01*
X213360Y298450D01*
X213360Y312420D01*
X228600Y312420D01*
X237490Y312420D02*
X237490Y299720D01*
X214630Y299720D01*
X214630Y311150D01*
X236220Y311150D01*
X236220Y300990D01*
X215900Y300990D01*
X215900Y309880D01*
X234950Y309880D01*
X234950Y302260D01*
X217170Y302260D01*
X217170Y308610D01*
X233680Y308610D01*
X233680Y303530D01*
X218440Y303530D01*
X218440Y307340D01*
X232410Y307340D01*
X232410Y306070D01*
X232410Y304800D01*
X219710Y304800D01*
X219710Y306070D01*
X232410Y306070D01*
X125450Y320040D02*
X93400Y320040D01*
X125450Y320040D02*
X125730Y320320D01*
X45675Y172675D02*
X38100Y165100D01*
X45675Y172675D02*
X88900Y172675D01*
X90215Y173990D01*
X137740Y173990D01*
X210860Y220940D02*
X170100Y261700D01*
X210860Y220940D02*
X224790Y220940D01*
X246340Y220940D01*
X271780Y246380D01*
X271780Y261575D01*
X160100Y261700D02*
X114300Y215900D01*
X94020Y215900D01*
X270510Y306070D02*
X270510Y325075D01*
X270510Y306070D02*
X245110Y280670D01*
X245110Y271780D01*
X236175Y262845D01*
X224790Y262845D01*
X213360Y251415D01*
X213360Y226060D01*
X241300Y226060D01*
X261620Y246380D01*
X261620Y264160D01*
X264160Y266700D01*
X280670Y266700D01*
X285750Y261620D01*
X285750Y237490D01*
X193040Y144780D01*
X20320Y144780D01*
X11430Y153670D01*
X11430Y177800D01*
X17780Y184150D01*
X59690Y184150D01*
X66040Y177800D01*
X102870Y177800D01*
X107950Y182880D01*
X107950Y201970D01*
X94020Y215900D01*
X53763Y265430D02*
X38100Y249767D01*
X53763Y265430D02*
X83775Y265430D01*
X84400Y266055D02*
X84400Y292100D01*
X84400Y266055D02*
X83775Y265430D01*
X38100Y249767D02*
X71967Y215900D01*
X83780Y215900D01*
X111760Y233090D02*
X114770Y236100D01*
X115912Y236100D01*
X146512Y266700D02*
X160100Y266700D01*
X146512Y266700D02*
X115912Y236100D01*
X94025Y249762D02*
X94025Y265430D01*
X94025Y249762D02*
X97750Y246037D01*
X97750Y237410D01*
X92710Y232370D01*
X111040Y232370D01*
X111760Y233090D01*
X140890Y271700D02*
X160100Y271700D01*
X140890Y271700D02*
X111760Y242570D01*
X111760Y241890D01*
X88900Y182925D02*
X71075Y182925D01*
X46567Y207433D01*
X38100Y207433D01*
X88900Y223520D02*
X88900Y182925D01*
X88900Y223520D02*
X85090Y227330D01*
X85090Y238760D01*
X88940Y242610D01*
X92710Y242610D01*
X111760Y241890D02*
X111760Y269240D01*
X102870Y278130D01*
X95250Y278130D01*
X88940Y271820D01*
X88940Y242610D01*
X172410Y377190D02*
X204220Y409000D01*
X227330Y409000D01*
X227330Y381000D02*
X227330Y340740D01*
X207600Y445220D02*
X207600Y469900D01*
X207600Y445220D02*
X208320Y444500D01*
X266700Y444500D01*
X267970Y444500D01*
X267970Y443230D02*
X267970Y410010D01*
X267970Y443230D02*
X266700Y444500D01*
X267970Y410010D02*
X260350Y410010D01*
X242770Y392430D01*
X208280Y392430D01*
X196850Y381000D01*
X196850Y278130D01*
X185420Y266700D01*
X170100Y266700D01*
X165410Y379440D02*
X165100Y379750D01*
X165100Y417830D01*
X170100Y318690D02*
X170100Y271700D01*
X170100Y318690D02*
X177800Y326390D01*
X198080Y444500D02*
X94025Y444500D01*
X198800Y445220D02*
X198800Y469900D01*
X198800Y445220D02*
X198080Y444500D01*
X177800Y356870D02*
X177800Y326390D01*
X177800Y356870D02*
X189230Y368300D01*
X189230Y382270D01*
X204470Y397510D01*
X207010Y431800D02*
X245110Y431800D01*
X207010Y431800D02*
X198080Y440730D01*
X198080Y444500D01*
X204470Y397510D02*
X239012Y397510D01*
X245110Y403608D01*
X245110Y431800D01*
X84400Y320040D02*
X84400Y306760D01*
X93400Y297760D01*
X93400Y292100D01*
X66040Y320040D02*
X38100Y292100D01*
X66040Y320040D02*
X84400Y320040D01*
X71700Y332740D01*
X71700Y432425D02*
X83775Y444500D01*
X71700Y432425D02*
X71700Y332740D01*
M02*
