G04 EAGLE Gerber RS-274X export*
G75*
%MOMM*%
%FSLAX34Y34*%
%LPD*%
%INSilkscreen Top*%
%IPPOS*%
%AMOC8*
5,1,8,0,0,1.08239X$1,22.5*%
G01*
G04 Define Apertures*
%ADD10C,0.200000*%
%ADD11C,0.100000*%
%ADD12C,0.254000*%
%ADD13C,0.050000*%
%ADD14C,0.127000*%
G36*
X198659Y463375D02*
X198201Y463387D01*
X197758Y463423D01*
X197331Y463484D01*
X196920Y463569D01*
X196524Y463678D01*
X196144Y463811D01*
X195780Y463968D01*
X195432Y464150D01*
X195101Y464354D01*
X194791Y464579D01*
X194501Y464825D01*
X194232Y465092D01*
X193982Y465379D01*
X193753Y465687D01*
X193545Y466016D01*
X193356Y466366D01*
X193189Y466734D01*
X193044Y467119D01*
X192921Y467521D01*
X192821Y467939D01*
X192743Y468374D01*
X192687Y468825D01*
X192653Y469293D01*
X192642Y469777D01*
X192648Y470141D01*
X192667Y470495D01*
X192698Y470839D01*
X192742Y471173D01*
X192798Y471497D01*
X192866Y471811D01*
X192947Y472115D01*
X193041Y472409D01*
X193147Y472693D01*
X193265Y472967D01*
X193539Y473485D01*
X193863Y473964D01*
X194236Y474402D01*
X194654Y474794D01*
X195110Y475134D01*
X195352Y475284D01*
X195604Y475421D01*
X195866Y475545D01*
X196137Y475656D01*
X196417Y475755D01*
X196708Y475839D01*
X197008Y475911D01*
X197317Y475970D01*
X197636Y476016D01*
X197965Y476049D01*
X198303Y476068D01*
X198651Y476075D01*
X199133Y476063D01*
X199595Y476027D01*
X200037Y475966D01*
X200459Y475882D01*
X200861Y475774D01*
X201242Y475641D01*
X201603Y475485D01*
X201944Y475304D01*
X202263Y475100D01*
X202561Y474872D01*
X202837Y474621D01*
X203091Y474347D01*
X203323Y474050D01*
X203533Y473729D01*
X203722Y473385D01*
X203888Y473018D01*
X202303Y472492D01*
X202187Y472754D01*
X202056Y472999D01*
X201908Y473229D01*
X201743Y473443D01*
X201563Y473641D01*
X201366Y473823D01*
X201153Y473989D01*
X200923Y474139D01*
X200680Y474273D01*
X200426Y474388D01*
X200161Y474486D01*
X199884Y474566D01*
X199597Y474628D01*
X199298Y474673D01*
X198989Y474699D01*
X198668Y474708D01*
X198170Y474688D01*
X197700Y474626D01*
X197259Y474523D01*
X196846Y474379D01*
X196462Y474193D01*
X196106Y473967D01*
X195779Y473699D01*
X195480Y473390D01*
X195213Y473045D01*
X194982Y472670D01*
X194786Y472264D01*
X194626Y471828D01*
X194501Y471361D01*
X194412Y470864D01*
X194359Y470336D01*
X194341Y469777D01*
X194360Y469224D01*
X194415Y468699D01*
X194508Y468201D01*
X194638Y467731D01*
X194805Y467289D01*
X195009Y466875D01*
X195250Y466488D01*
X195528Y466129D01*
X195838Y465806D01*
X196174Y465526D01*
X196536Y465289D01*
X196924Y465095D01*
X197338Y464944D01*
X197779Y464836D01*
X198245Y464771D01*
X198738Y464750D01*
X199057Y464760D01*
X199366Y464790D01*
X199665Y464840D01*
X199954Y464910D01*
X200233Y465001D01*
X200501Y465111D01*
X200760Y465241D01*
X201009Y465391D01*
X201247Y465562D01*
X201476Y465752D01*
X201694Y465963D01*
X201903Y466193D01*
X202101Y466444D01*
X202289Y466715D01*
X202467Y467005D01*
X202636Y467316D01*
X204002Y466633D01*
X203802Y466246D01*
X203582Y465884D01*
X203344Y465545D01*
X203086Y465229D01*
X202808Y464938D01*
X202512Y464671D01*
X202196Y464427D01*
X201861Y464207D01*
X201509Y464012D01*
X201143Y463843D01*
X200764Y463700D01*
X200370Y463583D01*
X199963Y463492D01*
X199543Y463427D01*
X199108Y463388D01*
X198659Y463375D01*
G37*
G36*
X213800Y463550D02*
X206066Y463550D01*
X206066Y464890D01*
X209211Y464890D01*
X209211Y474384D01*
X206425Y472396D01*
X206425Y473885D01*
X209342Y475891D01*
X210796Y475891D01*
X210796Y464890D01*
X213800Y464890D01*
X213800Y463550D01*
G37*
G36*
X84359Y300815D02*
X83901Y300827D01*
X83458Y300863D01*
X83031Y300924D01*
X82620Y301009D01*
X82224Y301118D01*
X81844Y301251D01*
X81480Y301408D01*
X81132Y301590D01*
X80801Y301794D01*
X80491Y302019D01*
X80201Y302265D01*
X79932Y302532D01*
X79682Y302819D01*
X79453Y303127D01*
X79245Y303456D01*
X79056Y303806D01*
X78889Y304174D01*
X78744Y304559D01*
X78621Y304961D01*
X78521Y305379D01*
X78443Y305814D01*
X78387Y306265D01*
X78353Y306733D01*
X78342Y307217D01*
X78348Y307581D01*
X78367Y307935D01*
X78398Y308279D01*
X78442Y308613D01*
X78498Y308937D01*
X78566Y309251D01*
X78647Y309555D01*
X78741Y309849D01*
X78847Y310133D01*
X78965Y310407D01*
X79239Y310925D01*
X79563Y311404D01*
X79936Y311842D01*
X80354Y312234D01*
X80810Y312574D01*
X81052Y312724D01*
X81304Y312861D01*
X81566Y312985D01*
X81837Y313096D01*
X82117Y313195D01*
X82408Y313279D01*
X82708Y313351D01*
X83017Y313410D01*
X83336Y313456D01*
X83665Y313489D01*
X84003Y313508D01*
X84351Y313515D01*
X84833Y313503D01*
X85295Y313467D01*
X85737Y313406D01*
X86159Y313322D01*
X86561Y313214D01*
X86942Y313081D01*
X87303Y312925D01*
X87644Y312744D01*
X87963Y312540D01*
X88261Y312312D01*
X88537Y312061D01*
X88791Y311787D01*
X89023Y311490D01*
X89233Y311169D01*
X89422Y310825D01*
X89588Y310458D01*
X88003Y309932D01*
X87887Y310194D01*
X87756Y310439D01*
X87608Y310669D01*
X87443Y310883D01*
X87263Y311081D01*
X87066Y311263D01*
X86853Y311429D01*
X86623Y311579D01*
X86380Y311713D01*
X86126Y311828D01*
X85861Y311926D01*
X85584Y312006D01*
X85297Y312068D01*
X84998Y312113D01*
X84689Y312139D01*
X84368Y312148D01*
X83870Y312128D01*
X83400Y312066D01*
X82959Y311963D01*
X82546Y311819D01*
X82162Y311633D01*
X81806Y311407D01*
X81479Y311139D01*
X81180Y310830D01*
X80913Y310485D01*
X80682Y310110D01*
X80486Y309704D01*
X80326Y309268D01*
X80201Y308801D01*
X80112Y308304D01*
X80059Y307776D01*
X80041Y307217D01*
X80060Y306664D01*
X80115Y306139D01*
X80208Y305641D01*
X80338Y305171D01*
X80505Y304729D01*
X80709Y304315D01*
X80950Y303928D01*
X81228Y303569D01*
X81538Y303246D01*
X81874Y302966D01*
X82236Y302729D01*
X82624Y302535D01*
X83038Y302384D01*
X83479Y302276D01*
X83945Y302211D01*
X84438Y302190D01*
X84757Y302200D01*
X85066Y302230D01*
X85365Y302280D01*
X85654Y302350D01*
X85933Y302441D01*
X86201Y302551D01*
X86460Y302681D01*
X86709Y302831D01*
X86947Y303002D01*
X87176Y303192D01*
X87394Y303403D01*
X87603Y303633D01*
X87801Y303884D01*
X87989Y304155D01*
X88167Y304445D01*
X88336Y304756D01*
X89702Y304073D01*
X89502Y303686D01*
X89282Y303324D01*
X89044Y302985D01*
X88786Y302669D01*
X88508Y302378D01*
X88212Y302111D01*
X87896Y301867D01*
X87561Y301647D01*
X87209Y301452D01*
X86843Y301283D01*
X86464Y301140D01*
X86070Y301023D01*
X85663Y300932D01*
X85243Y300867D01*
X84808Y300828D01*
X84359Y300815D01*
G37*
G36*
X99474Y300990D02*
X91302Y300990D01*
X91302Y302102D01*
X91538Y302600D01*
X91798Y303067D01*
X92083Y303504D01*
X92393Y303911D01*
X92719Y304294D01*
X93053Y304658D01*
X93395Y305003D01*
X93746Y305330D01*
X94452Y305942D01*
X95152Y306508D01*
X95814Y307051D01*
X96408Y307594D01*
X96675Y307869D01*
X96915Y308150D01*
X97128Y308438D01*
X97315Y308733D01*
X97466Y309040D01*
X97574Y309368D01*
X97639Y309715D01*
X97661Y310081D01*
X97652Y310328D01*
X97624Y310561D01*
X97577Y310779D01*
X97512Y310983D01*
X97428Y311173D01*
X97326Y311349D01*
X97205Y311511D01*
X97065Y311658D01*
X96909Y311789D01*
X96738Y311903D01*
X96553Y311999D01*
X96354Y312078D01*
X96139Y312140D01*
X95911Y312183D01*
X95668Y312210D01*
X95410Y312218D01*
X95164Y312210D01*
X94928Y312184D01*
X94704Y312141D01*
X94491Y312082D01*
X94289Y312005D01*
X94099Y311911D01*
X93919Y311799D01*
X93750Y311671D01*
X93595Y311527D01*
X93458Y311370D01*
X93337Y311198D01*
X93232Y311013D01*
X93145Y310814D01*
X93074Y310601D01*
X93021Y310374D01*
X92984Y310134D01*
X91372Y310283D01*
X91430Y310643D01*
X91516Y310985D01*
X91631Y311308D01*
X91774Y311612D01*
X91945Y311897D01*
X92145Y312163D01*
X92373Y312410D01*
X92629Y312639D01*
X92909Y312844D01*
X93208Y313022D01*
X93527Y313173D01*
X93865Y313296D01*
X94222Y313392D01*
X94599Y313460D01*
X94995Y313501D01*
X95410Y313515D01*
X95863Y313501D01*
X96289Y313460D01*
X96688Y313391D01*
X97060Y313295D01*
X97405Y313171D01*
X97723Y313020D01*
X98014Y312841D01*
X98278Y312634D01*
X98513Y312403D01*
X98717Y312148D01*
X98889Y311870D01*
X99030Y311569D01*
X99140Y311245D01*
X99218Y310898D01*
X99265Y310527D01*
X99281Y310134D01*
X99261Y309775D01*
X99199Y309418D01*
X99096Y309062D01*
X98953Y308706D01*
X98769Y308352D01*
X98544Y307997D01*
X98280Y307642D01*
X97976Y307287D01*
X97578Y306884D01*
X97032Y306383D01*
X96339Y305785D01*
X95497Y305089D01*
X95020Y304687D01*
X94593Y304306D01*
X94218Y303945D01*
X93895Y303604D01*
X93618Y303277D01*
X93382Y302955D01*
X93189Y302640D01*
X93036Y302330D01*
X99474Y302330D01*
X99474Y300990D01*
G37*
G36*
X95603Y285575D02*
X95346Y285581D01*
X95097Y285599D01*
X94622Y285672D01*
X94177Y285793D01*
X93763Y285962D01*
X93380Y286180D01*
X93028Y286447D01*
X92706Y286762D01*
X92414Y287125D01*
X92156Y287535D01*
X91932Y287988D01*
X91742Y288486D01*
X91587Y289028D01*
X91466Y289614D01*
X91380Y290244D01*
X91328Y290918D01*
X91311Y291636D01*
X91329Y292414D01*
X91383Y293145D01*
X91472Y293831D01*
X91598Y294469D01*
X91759Y295061D01*
X91956Y295607D01*
X92189Y296106D01*
X92458Y296558D01*
X92760Y296960D01*
X93093Y297309D01*
X93456Y297604D01*
X93849Y297846D01*
X94272Y298033D01*
X94495Y298107D01*
X94726Y298167D01*
X94965Y298214D01*
X95210Y298248D01*
X95464Y298268D01*
X95725Y298275D01*
X96066Y298265D01*
X96391Y298235D01*
X96700Y298186D01*
X96993Y298118D01*
X97270Y298029D01*
X97530Y297921D01*
X97774Y297794D01*
X98002Y297646D01*
X98214Y297479D01*
X98410Y297293D01*
X98590Y297087D01*
X98753Y296861D01*
X98901Y296615D01*
X99032Y296350D01*
X99147Y296065D01*
X99246Y295761D01*
X97740Y295490D01*
X97606Y295843D01*
X97439Y296149D01*
X97236Y296408D01*
X97000Y296619D01*
X96728Y296784D01*
X96423Y296902D01*
X96082Y296972D01*
X95708Y296996D01*
X95380Y296976D01*
X95071Y296917D01*
X94782Y296819D01*
X94511Y296682D01*
X94259Y296505D01*
X94027Y296289D01*
X93813Y296034D01*
X93619Y295739D01*
X93445Y295407D01*
X93295Y295040D01*
X93168Y294638D01*
X93064Y294201D01*
X92983Y293728D01*
X92925Y293221D01*
X92890Y292678D01*
X92879Y292100D01*
X93115Y292475D01*
X93395Y292802D01*
X93719Y293081D01*
X94087Y293313D01*
X94491Y293495D01*
X94924Y293625D01*
X95151Y293671D01*
X95385Y293703D01*
X95626Y293723D01*
X95874Y293729D01*
X96290Y293712D01*
X96684Y293662D01*
X97056Y293579D01*
X97406Y293462D01*
X97734Y293312D01*
X98039Y293128D01*
X98323Y292911D01*
X98585Y292660D01*
X98820Y292382D01*
X99024Y292080D01*
X99196Y291756D01*
X99337Y291408D01*
X99447Y291037D01*
X99525Y290644D01*
X99572Y290227D01*
X99588Y289788D01*
X99571Y289312D01*
X99521Y288863D01*
X99439Y288439D01*
X99323Y288040D01*
X99174Y287668D01*
X98992Y287321D01*
X98776Y287000D01*
X98528Y286705D01*
X98250Y286440D01*
X97948Y286210D01*
X97620Y286016D01*
X97267Y285857D01*
X96888Y285734D01*
X96485Y285645D01*
X96056Y285593D01*
X95603Y285575D01*
G37*
%LPC*%
G36*
X95550Y286845D02*
X95827Y286857D01*
X96089Y286893D01*
X96335Y286953D01*
X96566Y287036D01*
X96782Y287144D01*
X96982Y287276D01*
X97167Y287432D01*
X97337Y287611D01*
X97489Y287812D01*
X97620Y288030D01*
X97732Y288267D01*
X97823Y288521D01*
X97894Y288793D01*
X97944Y289083D01*
X97975Y289392D01*
X97985Y289718D01*
X97975Y290043D01*
X97944Y290349D01*
X97893Y290636D01*
X97821Y290904D01*
X97728Y291153D01*
X97615Y291383D01*
X97482Y291593D01*
X97328Y291785D01*
X97156Y291955D01*
X96967Y292103D01*
X96763Y292228D01*
X96542Y292330D01*
X96305Y292409D01*
X96052Y292466D01*
X95783Y292500D01*
X95497Y292512D01*
X95228Y292502D01*
X94972Y292471D01*
X94730Y292421D01*
X94500Y292351D01*
X94284Y292260D01*
X94081Y292149D01*
X93891Y292019D01*
X93715Y291868D01*
X93556Y291699D01*
X93418Y291516D01*
X93301Y291317D01*
X93206Y291103D01*
X93132Y290873D01*
X93079Y290629D01*
X93047Y290369D01*
X93036Y290094D01*
X93047Y289745D01*
X93080Y289413D01*
X93135Y289096D01*
X93213Y288796D01*
X93312Y288512D01*
X93433Y288243D01*
X93576Y287992D01*
X93741Y287756D01*
X93924Y287542D01*
X94119Y287357D01*
X94326Y287201D01*
X94546Y287073D01*
X94778Y286973D01*
X95023Y286902D01*
X95280Y286859D01*
X95550Y286845D01*
G37*
%LPD*%
G36*
X84359Y285575D02*
X83901Y285587D01*
X83458Y285623D01*
X83031Y285684D01*
X82620Y285769D01*
X82224Y285878D01*
X81844Y286011D01*
X81480Y286168D01*
X81132Y286350D01*
X80801Y286554D01*
X80491Y286779D01*
X80201Y287025D01*
X79932Y287292D01*
X79682Y287579D01*
X79453Y287887D01*
X79245Y288216D01*
X79056Y288566D01*
X78889Y288934D01*
X78744Y289319D01*
X78621Y289721D01*
X78521Y290139D01*
X78443Y290574D01*
X78387Y291025D01*
X78353Y291493D01*
X78342Y291977D01*
X78348Y292341D01*
X78367Y292695D01*
X78398Y293039D01*
X78442Y293373D01*
X78498Y293697D01*
X78566Y294011D01*
X78647Y294315D01*
X78741Y294609D01*
X78847Y294893D01*
X78965Y295167D01*
X79239Y295685D01*
X79563Y296164D01*
X79936Y296602D01*
X80354Y296994D01*
X80810Y297334D01*
X81052Y297484D01*
X81304Y297621D01*
X81566Y297745D01*
X81837Y297856D01*
X82117Y297955D01*
X82408Y298039D01*
X82708Y298111D01*
X83017Y298170D01*
X83336Y298216D01*
X83665Y298249D01*
X84003Y298268D01*
X84351Y298275D01*
X84833Y298263D01*
X85295Y298227D01*
X85737Y298166D01*
X86159Y298082D01*
X86561Y297974D01*
X86942Y297841D01*
X87303Y297685D01*
X87644Y297504D01*
X87963Y297300D01*
X88261Y297072D01*
X88537Y296821D01*
X88791Y296547D01*
X89023Y296250D01*
X89233Y295929D01*
X89422Y295585D01*
X89588Y295218D01*
X88003Y294692D01*
X87887Y294954D01*
X87756Y295199D01*
X87608Y295429D01*
X87443Y295643D01*
X87263Y295841D01*
X87066Y296023D01*
X86853Y296189D01*
X86623Y296339D01*
X86380Y296473D01*
X86126Y296588D01*
X85861Y296686D01*
X85584Y296766D01*
X85297Y296828D01*
X84998Y296873D01*
X84689Y296899D01*
X84368Y296908D01*
X83870Y296888D01*
X83400Y296826D01*
X82959Y296723D01*
X82546Y296579D01*
X82162Y296393D01*
X81806Y296167D01*
X81479Y295899D01*
X81180Y295590D01*
X80913Y295245D01*
X80682Y294870D01*
X80486Y294464D01*
X80326Y294028D01*
X80201Y293561D01*
X80112Y293064D01*
X80059Y292536D01*
X80041Y291977D01*
X80060Y291424D01*
X80115Y290899D01*
X80208Y290401D01*
X80338Y289931D01*
X80505Y289489D01*
X80709Y289075D01*
X80950Y288688D01*
X81228Y288329D01*
X81538Y288006D01*
X81874Y287726D01*
X82236Y287489D01*
X82624Y287295D01*
X83038Y287144D01*
X83479Y287036D01*
X83945Y286971D01*
X84438Y286950D01*
X84757Y286960D01*
X85066Y286990D01*
X85365Y287040D01*
X85654Y287110D01*
X85933Y287201D01*
X86201Y287311D01*
X86460Y287441D01*
X86709Y287591D01*
X86947Y287762D01*
X87176Y287952D01*
X87394Y288163D01*
X87603Y288393D01*
X87801Y288644D01*
X87989Y288915D01*
X88167Y289205D01*
X88336Y289516D01*
X89702Y288833D01*
X89502Y288446D01*
X89282Y288084D01*
X89044Y287745D01*
X88786Y287429D01*
X88508Y287138D01*
X88212Y286871D01*
X87896Y286627D01*
X87561Y286407D01*
X87209Y286212D01*
X86843Y286043D01*
X86464Y285900D01*
X86070Y285783D01*
X85663Y285692D01*
X85243Y285627D01*
X84808Y285588D01*
X84359Y285575D01*
G37*
G36*
X111883Y226932D02*
X111519Y226938D01*
X111165Y226957D01*
X110821Y226988D01*
X110487Y227032D01*
X110163Y227088D01*
X109849Y227156D01*
X109545Y227237D01*
X109251Y227331D01*
X108967Y227437D01*
X108693Y227555D01*
X108175Y227829D01*
X107696Y228153D01*
X107258Y228526D01*
X106866Y228944D01*
X106526Y229400D01*
X106376Y229642D01*
X106239Y229894D01*
X106115Y230156D01*
X106004Y230427D01*
X105906Y230707D01*
X105821Y230998D01*
X105749Y231298D01*
X105690Y231607D01*
X105644Y231926D01*
X105611Y232255D01*
X105592Y232593D01*
X105585Y232941D01*
X105597Y233423D01*
X105633Y233885D01*
X105694Y234327D01*
X105778Y234749D01*
X105886Y235151D01*
X106019Y235532D01*
X106175Y235893D01*
X106356Y236234D01*
X106560Y236553D01*
X106788Y236851D01*
X107039Y237127D01*
X107313Y237381D01*
X107610Y237613D01*
X107931Y237823D01*
X108275Y238012D01*
X108642Y238178D01*
X109168Y236593D01*
X108906Y236477D01*
X108661Y236346D01*
X108431Y236198D01*
X108217Y236033D01*
X108019Y235853D01*
X107837Y235656D01*
X107671Y235443D01*
X107521Y235213D01*
X107388Y234970D01*
X107272Y234716D01*
X107174Y234451D01*
X107094Y234174D01*
X107032Y233887D01*
X106987Y233588D01*
X106961Y233279D01*
X106952Y232958D01*
X106972Y232460D01*
X107034Y231990D01*
X107137Y231549D01*
X107281Y231136D01*
X107467Y230752D01*
X107693Y230396D01*
X107961Y230069D01*
X108270Y229770D01*
X108615Y229503D01*
X108990Y229272D01*
X109396Y229076D01*
X109832Y228916D01*
X110299Y228791D01*
X110796Y228702D01*
X111324Y228649D01*
X111883Y228631D01*
X112436Y228650D01*
X112961Y228705D01*
X113459Y228798D01*
X113929Y228928D01*
X114371Y229095D01*
X114785Y229299D01*
X115172Y229540D01*
X115531Y229818D01*
X115854Y230128D01*
X116134Y230464D01*
X116371Y230826D01*
X116565Y231214D01*
X116716Y231628D01*
X116824Y232069D01*
X116889Y232535D01*
X116910Y233028D01*
X116900Y233347D01*
X116870Y233656D01*
X116820Y233955D01*
X116750Y234244D01*
X116659Y234523D01*
X116549Y234791D01*
X116419Y235050D01*
X116269Y235299D01*
X116098Y235537D01*
X115908Y235766D01*
X115697Y235984D01*
X115467Y236193D01*
X115216Y236391D01*
X114945Y236579D01*
X114655Y236757D01*
X114344Y236926D01*
X115027Y238292D01*
X115414Y238092D01*
X115776Y237872D01*
X116115Y237634D01*
X116431Y237376D01*
X116722Y237098D01*
X116989Y236802D01*
X117233Y236486D01*
X117453Y236151D01*
X117648Y235799D01*
X117817Y235433D01*
X117960Y235054D01*
X118077Y234660D01*
X118168Y234253D01*
X118233Y233833D01*
X118272Y233398D01*
X118285Y232949D01*
X118273Y232491D01*
X118237Y232048D01*
X118176Y231621D01*
X118091Y231210D01*
X117982Y230814D01*
X117849Y230434D01*
X117692Y230070D01*
X117510Y229722D01*
X117306Y229391D01*
X117081Y229081D01*
X116835Y228791D01*
X116569Y228522D01*
X116281Y228272D01*
X115973Y228043D01*
X115644Y227835D01*
X115294Y227646D01*
X114926Y227479D01*
X114541Y227334D01*
X114139Y227211D01*
X113721Y227111D01*
X113286Y227033D01*
X112835Y226977D01*
X112367Y226943D01*
X111883Y226932D01*
G37*
G36*
X107109Y239910D02*
X105769Y239910D01*
X105769Y248064D01*
X107048Y248064D01*
X108415Y247187D01*
X109625Y246450D01*
X110679Y245852D01*
X111576Y245392D01*
X112392Y245027D01*
X113203Y244710D01*
X114008Y244442D01*
X114808Y244223D01*
X115612Y244053D01*
X116431Y243931D01*
X117263Y243858D01*
X117685Y243840D01*
X118110Y243833D01*
X118110Y242187D01*
X117515Y242203D01*
X116912Y242250D01*
X116301Y242328D01*
X115683Y242438D01*
X115057Y242579D01*
X114422Y242751D01*
X113781Y242955D01*
X113131Y243190D01*
X112465Y243461D01*
X111774Y243775D01*
X111059Y244131D01*
X110318Y244529D01*
X109553Y244968D01*
X108763Y245450D01*
X107949Y245974D01*
X107109Y246540D01*
X107109Y239910D01*
G37*
G36*
X148732Y167465D02*
X148251Y167480D01*
X147797Y167523D01*
X147369Y167597D01*
X146969Y167699D01*
X146595Y167831D01*
X146249Y167992D01*
X145929Y168182D01*
X145636Y168402D01*
X145374Y168649D01*
X145148Y168920D01*
X144956Y169216D01*
X144799Y169536D01*
X144677Y169881D01*
X144589Y170251D01*
X144537Y170646D01*
X144520Y171065D01*
X144530Y171361D01*
X144563Y171645D01*
X144617Y171917D01*
X144692Y172177D01*
X144790Y172425D01*
X144909Y172661D01*
X145049Y172885D01*
X145211Y173097D01*
X145390Y173292D01*
X145581Y173468D01*
X145785Y173623D01*
X146000Y173758D01*
X146227Y173873D01*
X146466Y173967D01*
X146717Y174041D01*
X146981Y174095D01*
X146981Y174130D01*
X146735Y174198D01*
X146504Y174283D01*
X146285Y174385D01*
X146080Y174505D01*
X145888Y174641D01*
X145709Y174795D01*
X145543Y174966D01*
X145391Y175155D01*
X145254Y175356D01*
X145136Y175566D01*
X145036Y175784D01*
X144954Y176011D01*
X144890Y176246D01*
X144845Y176490D01*
X144818Y176742D01*
X144809Y177003D01*
X144825Y177347D01*
X144875Y177675D01*
X144957Y177985D01*
X145072Y178279D01*
X145221Y178557D01*
X145402Y178818D01*
X145617Y179062D01*
X145864Y179289D01*
X146139Y179494D01*
X146437Y179672D01*
X146757Y179823D01*
X147100Y179946D01*
X147465Y180042D01*
X147854Y180110D01*
X148264Y180151D01*
X148697Y180165D01*
X149141Y180151D01*
X149560Y180111D01*
X149956Y180044D01*
X150328Y179950D01*
X150675Y179829D01*
X150999Y179682D01*
X151299Y179508D01*
X151575Y179306D01*
X151822Y179082D01*
X152036Y178839D01*
X152218Y178578D01*
X152366Y178297D01*
X152482Y177997D01*
X152564Y177679D01*
X152613Y177342D01*
X152630Y176985D01*
X152621Y176725D01*
X152593Y176472D01*
X152547Y176229D01*
X152483Y175993D01*
X152401Y175767D01*
X152300Y175548D01*
X152181Y175339D01*
X152043Y175137D01*
X151890Y174949D01*
X151723Y174780D01*
X151705Y174765D01*
X151543Y174629D01*
X151349Y174496D01*
X151142Y174381D01*
X150921Y174285D01*
X150688Y174207D01*
X150440Y174148D01*
X150440Y174113D01*
X150728Y174055D01*
X150999Y173978D01*
X151253Y173881D01*
X151491Y173766D01*
X151713Y173631D01*
X151918Y173476D01*
X152107Y173303D01*
X152246Y173147D01*
X152280Y173110D01*
X152434Y172901D01*
X152567Y172679D01*
X152680Y172445D01*
X152772Y172198D01*
X152844Y171938D01*
X152895Y171665D01*
X152926Y171380D01*
X152936Y171082D01*
X152920Y170667D01*
X152869Y170275D01*
X152784Y169907D01*
X152665Y169563D01*
X152512Y169241D01*
X152326Y168944D01*
X152105Y168670D01*
X151850Y168420D01*
X151564Y168196D01*
X151248Y168002D01*
X150903Y167838D01*
X150528Y167703D01*
X150123Y167599D01*
X149689Y167525D01*
X149226Y167480D01*
X148732Y167465D01*
G37*
%LPC*%
G36*
X148750Y168647D02*
X149062Y168657D01*
X149353Y168686D01*
X149623Y168734D01*
X149873Y168802D01*
X150103Y168888D01*
X150312Y168995D01*
X150500Y169120D01*
X150668Y169265D01*
X150816Y169431D01*
X150944Y169619D01*
X151052Y169831D01*
X151141Y170065D01*
X151210Y170322D01*
X151259Y170602D01*
X151289Y170905D01*
X151299Y171231D01*
X151288Y171509D01*
X151256Y171769D01*
X151203Y172012D01*
X151128Y172237D01*
X151032Y172445D01*
X150914Y172634D01*
X150776Y172806D01*
X150615Y172961D01*
X150436Y173097D01*
X150239Y173216D01*
X150025Y173316D01*
X149794Y173398D01*
X149546Y173461D01*
X149280Y173507D01*
X148997Y173534D01*
X148697Y173543D01*
X148406Y173533D01*
X148130Y173504D01*
X147871Y173455D01*
X147629Y173387D01*
X147403Y173299D01*
X147193Y173191D01*
X147000Y173064D01*
X146823Y172917D01*
X146665Y172753D01*
X146528Y172575D01*
X146412Y172381D01*
X146317Y172174D01*
X146243Y171951D01*
X146191Y171714D01*
X146159Y171462D01*
X146149Y171196D01*
X146159Y170887D01*
X146189Y170599D01*
X146240Y170330D01*
X146311Y170081D01*
X146403Y169852D01*
X146514Y169643D01*
X146647Y169454D01*
X146799Y169284D01*
X146972Y169135D01*
X147165Y169006D01*
X147378Y168896D01*
X147612Y168807D01*
X147866Y168737D01*
X148140Y168687D01*
X148435Y168657D01*
X148750Y168647D01*
G37*
G36*
X148715Y174726D02*
X148985Y174734D01*
X149238Y174758D01*
X149475Y174798D01*
X149695Y174854D01*
X149898Y174926D01*
X150085Y175014D01*
X150256Y175118D01*
X150410Y175238D01*
X150546Y175376D01*
X150664Y175534D01*
X150765Y175712D01*
X150846Y175909D01*
X150910Y176127D01*
X150956Y176364D01*
X150983Y176621D01*
X150992Y176898D01*
X150983Y177151D01*
X150956Y177388D01*
X150911Y177609D01*
X150849Y177814D01*
X150768Y178002D01*
X150669Y178173D01*
X150553Y178329D01*
X150418Y178468D01*
X150266Y178590D01*
X150096Y178697D01*
X149907Y178787D01*
X149701Y178860D01*
X149477Y178917D01*
X149235Y178958D01*
X148975Y178983D01*
X148697Y178991D01*
X148428Y178983D01*
X148174Y178958D01*
X147938Y178917D01*
X147717Y178860D01*
X147514Y178786D01*
X147327Y178695D01*
X147156Y178589D01*
X147003Y178466D01*
X146866Y178326D01*
X146748Y178171D01*
X146648Y177999D01*
X146566Y177811D01*
X146502Y177607D01*
X146457Y177387D01*
X146429Y177150D01*
X146420Y176898D01*
X146429Y176641D01*
X146458Y176399D01*
X146504Y176174D01*
X146570Y175964D01*
X146654Y175770D01*
X146758Y175591D01*
X146879Y175429D01*
X147020Y175282D01*
X147178Y175151D01*
X147351Y175039D01*
X147540Y174943D01*
X147744Y174865D01*
X147963Y174804D01*
X148198Y174760D01*
X148449Y174734D01*
X148715Y174726D01*
G37*
%LPD*%
G36*
X137699Y167465D02*
X137241Y167477D01*
X136798Y167513D01*
X136371Y167574D01*
X135960Y167659D01*
X135564Y167768D01*
X135184Y167901D01*
X134820Y168058D01*
X134472Y168240D01*
X134141Y168444D01*
X133831Y168669D01*
X133541Y168915D01*
X133272Y169182D01*
X133022Y169469D01*
X132793Y169777D01*
X132585Y170106D01*
X132396Y170456D01*
X132229Y170824D01*
X132084Y171209D01*
X131961Y171611D01*
X131861Y172029D01*
X131783Y172464D01*
X131727Y172915D01*
X131693Y173383D01*
X131682Y173867D01*
X131688Y174231D01*
X131707Y174585D01*
X131738Y174929D01*
X131782Y175263D01*
X131838Y175587D01*
X131906Y175901D01*
X131987Y176205D01*
X132081Y176499D01*
X132187Y176783D01*
X132305Y177057D01*
X132579Y177575D01*
X132903Y178054D01*
X133276Y178492D01*
X133694Y178884D01*
X134150Y179224D01*
X134392Y179374D01*
X134644Y179511D01*
X134906Y179635D01*
X135177Y179746D01*
X135457Y179845D01*
X135748Y179929D01*
X136048Y180001D01*
X136357Y180060D01*
X136676Y180106D01*
X137005Y180139D01*
X137343Y180158D01*
X137691Y180165D01*
X138173Y180153D01*
X138635Y180117D01*
X139077Y180056D01*
X139499Y179972D01*
X139901Y179864D01*
X140282Y179731D01*
X140643Y179575D01*
X140984Y179394D01*
X141303Y179190D01*
X141601Y178962D01*
X141877Y178711D01*
X142131Y178437D01*
X142363Y178140D01*
X142573Y177819D01*
X142762Y177475D01*
X142928Y177108D01*
X141343Y176582D01*
X141227Y176844D01*
X141096Y177089D01*
X140948Y177319D01*
X140783Y177533D01*
X140603Y177731D01*
X140406Y177913D01*
X140193Y178079D01*
X139963Y178229D01*
X139720Y178363D01*
X139466Y178478D01*
X139201Y178576D01*
X138924Y178656D01*
X138637Y178718D01*
X138338Y178763D01*
X138029Y178789D01*
X137708Y178798D01*
X137210Y178778D01*
X136740Y178716D01*
X136299Y178613D01*
X135886Y178469D01*
X135502Y178283D01*
X135146Y178057D01*
X134819Y177789D01*
X134520Y177480D01*
X134253Y177135D01*
X134022Y176760D01*
X133826Y176354D01*
X133666Y175918D01*
X133541Y175451D01*
X133452Y174954D01*
X133399Y174426D01*
X133381Y173867D01*
X133400Y173314D01*
X133455Y172789D01*
X133548Y172291D01*
X133678Y171821D01*
X133845Y171379D01*
X134049Y170965D01*
X134290Y170578D01*
X134568Y170219D01*
X134878Y169896D01*
X135214Y169616D01*
X135576Y169379D01*
X135964Y169185D01*
X136378Y169034D01*
X136819Y168926D01*
X137285Y168861D01*
X137778Y168840D01*
X138097Y168850D01*
X138406Y168880D01*
X138705Y168930D01*
X138994Y169000D01*
X139273Y169091D01*
X139541Y169201D01*
X139800Y169331D01*
X140049Y169481D01*
X140287Y169652D01*
X140516Y169842D01*
X140734Y170053D01*
X140943Y170283D01*
X141141Y170534D01*
X141329Y170805D01*
X141507Y171095D01*
X141676Y171406D01*
X143042Y170723D01*
X142842Y170336D01*
X142622Y169974D01*
X142384Y169635D01*
X142126Y169319D01*
X141848Y169028D01*
X141552Y168761D01*
X141236Y168517D01*
X140901Y168297D01*
X140549Y168102D01*
X140183Y167933D01*
X139804Y167790D01*
X139410Y167673D01*
X139003Y167582D01*
X138583Y167517D01*
X138148Y167478D01*
X137699Y167465D01*
G37*
G36*
X258318Y407043D02*
X252406Y407043D01*
X252406Y408998D01*
X252417Y409363D01*
X252453Y409707D01*
X252512Y410029D01*
X252594Y410329D01*
X252700Y410608D01*
X252829Y410866D01*
X252982Y411102D01*
X253159Y411317D01*
X253357Y411508D01*
X253575Y411674D01*
X253813Y411814D01*
X254071Y411929D01*
X254349Y412018D01*
X254646Y412082D01*
X254964Y412120D01*
X255301Y412133D01*
X255744Y412111D01*
X256159Y412044D01*
X256544Y411932D01*
X256902Y411776D01*
X257225Y411579D01*
X257508Y411345D01*
X257750Y411074D01*
X257953Y410765D01*
X258113Y410425D01*
X258227Y410060D01*
X258295Y409670D01*
X258318Y409254D01*
X258318Y407043D01*
G37*
%LPC*%
G36*
X257676Y407845D02*
X257676Y409162D01*
X257658Y409478D01*
X257605Y409773D01*
X257516Y410049D01*
X257391Y410306D01*
X257232Y410538D01*
X257042Y410741D01*
X256821Y410917D01*
X256568Y411063D01*
X256288Y411179D01*
X255983Y411261D01*
X255654Y411311D01*
X255301Y411327D01*
X255034Y411318D01*
X254784Y411290D01*
X254550Y411243D01*
X254332Y411177D01*
X254131Y411092D01*
X253946Y410989D01*
X253777Y410866D01*
X253625Y410725D01*
X253489Y410566D01*
X253372Y410390D01*
X253273Y410198D01*
X253192Y409988D01*
X253129Y409762D01*
X253084Y409519D01*
X253057Y409259D01*
X253048Y408982D01*
X253048Y407845D01*
X257676Y407845D01*
G37*
%LPD*%
G36*
X258318Y383168D02*
X252406Y383168D01*
X252406Y385950D01*
X252413Y386193D01*
X252434Y386421D01*
X252468Y386635D01*
X252517Y386835D01*
X252580Y387021D01*
X252657Y387192D01*
X252748Y387349D01*
X252853Y387492D01*
X252970Y387620D01*
X253098Y387730D01*
X253237Y387823D01*
X253387Y387900D01*
X253548Y387959D01*
X253720Y388002D01*
X253903Y388027D01*
X254097Y388036D01*
X254413Y388012D01*
X254703Y387940D01*
X254967Y387820D01*
X255204Y387652D01*
X255408Y387441D01*
X255521Y387269D01*
X255571Y387195D01*
X255691Y386912D01*
X255771Y386592D01*
X256855Y387307D01*
X258318Y388271D01*
X258318Y387347D01*
X255863Y385812D01*
X255863Y383970D01*
X258318Y383970D01*
X258318Y383168D01*
G37*
%LPC*%
G36*
X255230Y383970D02*
X255230Y385904D01*
X255211Y386203D01*
X255156Y386466D01*
X255063Y386693D01*
X254934Y386884D01*
X254771Y387035D01*
X254579Y387143D01*
X254357Y387208D01*
X254105Y387230D01*
X253862Y387208D01*
X253650Y387142D01*
X253469Y387033D01*
X253318Y386880D01*
X253200Y386685D01*
X253115Y386452D01*
X253065Y386181D01*
X253048Y385870D01*
X253048Y383970D01*
X255230Y383970D01*
G37*
%LPD*%
G36*
X256069Y393824D02*
X255781Y393831D01*
X255512Y393850D01*
X255262Y393883D01*
X255030Y393928D01*
X254816Y393987D01*
X254622Y394059D01*
X254445Y394144D01*
X254288Y394242D01*
X254148Y394352D01*
X254028Y394476D01*
X253926Y394613D01*
X253842Y394763D01*
X253777Y394927D01*
X253731Y395103D01*
X253703Y395292D01*
X253694Y395494D01*
X253706Y395741D01*
X253741Y395967D01*
X253800Y396171D01*
X253883Y396354D01*
X253991Y396518D01*
X254127Y396665D01*
X254291Y396795D01*
X254483Y396908D01*
X254483Y396917D01*
X253975Y396908D01*
X252091Y396908D01*
X252091Y397663D01*
X257382Y397663D01*
X257971Y397670D01*
X258318Y397689D01*
X258318Y396967D01*
X258008Y396940D01*
X257588Y396925D01*
X257588Y396908D01*
X257791Y396795D01*
X257962Y396664D01*
X258103Y396517D01*
X258213Y396352D01*
X258296Y396169D01*
X258355Y395965D01*
X258390Y395740D01*
X258402Y395494D01*
X258393Y395286D01*
X258366Y395092D01*
X258320Y394913D01*
X258257Y394748D01*
X258176Y394597D01*
X258076Y394460D01*
X257959Y394337D01*
X257823Y394229D01*
X257669Y394134D01*
X257496Y394052D01*
X257305Y393982D01*
X257095Y393925D01*
X256866Y393881D01*
X256619Y393849D01*
X256353Y393830D01*
X256069Y393824D01*
G37*
%LPC*%
G36*
X256044Y394617D02*
X256486Y394633D01*
X256861Y394680D01*
X257168Y394759D01*
X257407Y394869D01*
X257587Y395014D01*
X257716Y395199D01*
X257761Y395306D01*
X257793Y395424D01*
X257812Y395550D01*
X257819Y395687D01*
X257812Y395842D01*
X257791Y395986D01*
X257756Y396119D01*
X257707Y396241D01*
X257645Y396352D01*
X257568Y396452D01*
X257478Y396541D01*
X257386Y396609D01*
X257374Y396619D01*
X257121Y396745D01*
X256806Y396836D01*
X256431Y396890D01*
X255993Y396908D01*
X255572Y396890D01*
X255212Y396836D01*
X254912Y396745D01*
X254672Y396619D01*
X254573Y396541D01*
X254488Y396452D01*
X254416Y396353D01*
X254357Y396243D01*
X254311Y396122D01*
X254278Y395991D01*
X254259Y395849D01*
X254252Y395695D01*
X254259Y395558D01*
X254278Y395430D01*
X254311Y395312D01*
X254357Y395204D01*
X254417Y395106D01*
X254489Y395018D01*
X254674Y394871D01*
X254917Y394760D01*
X255227Y394681D01*
X255602Y394633D01*
X256044Y394617D01*
G37*
%LPD*%
G36*
X258318Y401324D02*
X252406Y401324D01*
X252406Y403813D01*
X252413Y404054D01*
X252435Y404282D01*
X252471Y404495D01*
X252522Y404695D01*
X252588Y404880D01*
X252668Y405052D01*
X252762Y405209D01*
X252871Y405353D01*
X252994Y405481D01*
X253128Y405591D01*
X253274Y405685D01*
X253433Y405762D01*
X253603Y405821D01*
X253785Y405864D01*
X253979Y405890D01*
X254185Y405898D01*
X254389Y405890D01*
X254583Y405864D01*
X254766Y405821D01*
X254938Y405761D01*
X255099Y405684D01*
X255250Y405590D01*
X255390Y405479D01*
X255519Y405351D01*
X255635Y405208D01*
X255736Y405052D01*
X255821Y404885D01*
X255891Y404705D01*
X255945Y404513D01*
X255983Y404308D01*
X256007Y404092D01*
X256014Y403863D01*
X256014Y402126D01*
X258318Y402126D01*
X258318Y401324D01*
G37*
%LPC*%
G36*
X255381Y402126D02*
X255381Y403750D01*
X255362Y404064D01*
X255306Y404337D01*
X255214Y404568D01*
X255084Y404757D01*
X254917Y404904D01*
X254713Y405009D01*
X254472Y405072D01*
X254193Y405092D01*
X253925Y405071D01*
X253692Y405006D01*
X253495Y404899D01*
X253334Y404748D01*
X253209Y404555D01*
X253119Y404318D01*
X253066Y404039D01*
X253048Y403716D01*
X253048Y402126D01*
X255381Y402126D01*
G37*
%LPD*%
G36*
X256019Y389047D02*
X255746Y389055D01*
X255489Y389080D01*
X255249Y389121D01*
X255025Y389179D01*
X254818Y389253D01*
X254627Y389343D01*
X254452Y389450D01*
X254294Y389574D01*
X254153Y389712D01*
X254031Y389865D01*
X253928Y390032D01*
X253844Y390213D01*
X253778Y390408D01*
X253731Y390617D01*
X253703Y390841D01*
X253694Y391078D01*
X253703Y391320D01*
X253732Y391547D01*
X253779Y391758D01*
X253845Y391954D01*
X253929Y392133D01*
X254033Y392298D01*
X254156Y392446D01*
X254297Y392579D01*
X254457Y392696D01*
X254636Y392798D01*
X254834Y392884D01*
X255051Y392954D01*
X255287Y393009D01*
X255541Y393048D01*
X255814Y393072D01*
X256107Y393079D01*
X256207Y393079D01*
X256207Y389840D01*
X256575Y389860D01*
X256899Y389921D01*
X257177Y390022D01*
X257412Y390163D01*
X257597Y390343D01*
X257670Y390447D01*
X257730Y390561D01*
X257776Y390683D01*
X257809Y390815D01*
X257829Y390957D01*
X257835Y391107D01*
X257823Y391341D01*
X257786Y391549D01*
X257725Y391734D01*
X257638Y391894D01*
X257533Y392030D01*
X257415Y392142D01*
X257283Y392230D01*
X257139Y392295D01*
X257328Y392958D01*
X257580Y392840D01*
X257798Y392689D01*
X257982Y392507D01*
X258133Y392292D01*
X258251Y392044D01*
X258335Y391764D01*
X258385Y391452D01*
X258402Y391107D01*
X258393Y390863D01*
X258364Y390634D01*
X258318Y390420D01*
X258252Y390220D01*
X258168Y390036D01*
X258064Y389867D01*
X257943Y389713D01*
X257802Y389574D01*
X257643Y389450D01*
X257465Y389343D01*
X257270Y389253D01*
X257056Y389179D01*
X256824Y389121D01*
X256574Y389080D01*
X256305Y389055D01*
X256019Y389047D01*
G37*
%LPC*%
G36*
X255628Y389848D02*
X255628Y392299D01*
X255294Y392253D01*
X255008Y392176D01*
X254770Y392070D01*
X254581Y391934D01*
X254437Y391766D01*
X254334Y391566D01*
X254273Y391332D01*
X254252Y391065D01*
X254275Y390805D01*
X254344Y390573D01*
X254458Y390369D01*
X254619Y390195D01*
X254820Y390053D01*
X255055Y389948D01*
X255324Y389879D01*
X255628Y389848D01*
G37*
%LPD*%
G36*
X165923Y227090D02*
X163711Y227090D01*
X163711Y233002D01*
X165667Y233002D01*
X166031Y232991D01*
X166375Y232955D01*
X166697Y232896D01*
X166997Y232814D01*
X167276Y232708D01*
X167534Y232579D01*
X167770Y232426D01*
X167985Y232249D01*
X168176Y232051D01*
X168342Y231833D01*
X168482Y231595D01*
X168597Y231337D01*
X168686Y231059D01*
X168750Y230762D01*
X168788Y230444D01*
X168801Y230107D01*
X168779Y229664D01*
X168712Y229249D01*
X168601Y228864D01*
X168444Y228506D01*
X168248Y228183D01*
X168013Y227900D01*
X167742Y227658D01*
X167433Y227455D01*
X167093Y227295D01*
X166728Y227181D01*
X166338Y227113D01*
X165923Y227090D01*
G37*
%LPC*%
G36*
X165830Y227732D02*
X166146Y227750D01*
X166441Y227803D01*
X166717Y227893D01*
X166974Y228017D01*
X167206Y228176D01*
X167410Y228366D01*
X167585Y228587D01*
X167731Y228840D01*
X167847Y229120D01*
X167929Y229425D01*
X167979Y229754D01*
X167995Y230107D01*
X167986Y230374D01*
X167958Y230624D01*
X167911Y230858D01*
X167845Y231076D01*
X167760Y231277D01*
X167657Y231462D01*
X167534Y231631D01*
X167393Y231783D01*
X167234Y231919D01*
X167059Y232036D01*
X166866Y232135D01*
X166656Y232216D01*
X166430Y232279D01*
X166187Y232324D01*
X165927Y232351D01*
X165650Y232360D01*
X164513Y232360D01*
X164513Y227732D01*
X165830Y227732D01*
G37*
%LPD*%
G36*
X158206Y227090D02*
X157492Y227090D01*
X157492Y233002D01*
X158424Y233002D01*
X161621Y227933D01*
X161584Y228643D01*
X161571Y229125D01*
X161571Y233002D01*
X162293Y233002D01*
X162293Y227090D01*
X161328Y227090D01*
X158164Y232125D01*
X158185Y231718D01*
X158206Y231018D01*
X158206Y227090D01*
G37*
G36*
X153511Y227006D02*
X153064Y227029D01*
X152648Y227098D01*
X152264Y227214D01*
X151913Y227375D01*
X151597Y227580D01*
X151321Y227826D01*
X151084Y228112D01*
X150887Y228439D01*
X150732Y228802D01*
X150621Y229195D01*
X150554Y229619D01*
X150532Y230073D01*
X150544Y230423D01*
X150580Y230752D01*
X150641Y231061D01*
X150725Y231350D01*
X150834Y231619D01*
X150967Y231867D01*
X151123Y232094D01*
X151304Y232302D01*
X151507Y232487D01*
X151729Y232647D01*
X151971Y232782D01*
X152233Y232893D01*
X152514Y232980D01*
X152814Y233041D01*
X153134Y233078D01*
X153474Y233091D01*
X153942Y233070D01*
X154363Y233008D01*
X154739Y232904D01*
X155068Y232759D01*
X155357Y232568D01*
X155611Y232328D01*
X155829Y232038D01*
X156012Y231697D01*
X155249Y231471D01*
X155111Y231706D01*
X154949Y231906D01*
X154764Y232073D01*
X154554Y232205D01*
X154319Y232306D01*
X154058Y232378D01*
X153769Y232421D01*
X153453Y232436D01*
X153204Y232426D01*
X152971Y232397D01*
X152753Y232349D01*
X152550Y232281D01*
X152361Y232194D01*
X152188Y232088D01*
X152030Y231962D01*
X151888Y231817D01*
X151761Y231654D01*
X151651Y231476D01*
X151558Y231282D01*
X151482Y231072D01*
X151422Y230846D01*
X151380Y230604D01*
X151355Y230347D01*
X151346Y230073D01*
X151355Y229801D01*
X151382Y229543D01*
X151427Y229300D01*
X151490Y229071D01*
X151571Y228857D01*
X151670Y228658D01*
X151786Y228474D01*
X151921Y228305D01*
X152072Y228153D01*
X152236Y228021D01*
X152414Y227910D01*
X152606Y227819D01*
X152812Y227748D01*
X153031Y227697D01*
X153264Y227667D01*
X153511Y227656D01*
X153796Y227667D01*
X154071Y227701D01*
X154336Y227756D01*
X154592Y227833D01*
X154831Y227929D01*
X155046Y228040D01*
X155237Y228168D01*
X155404Y228311D01*
X155404Y229377D01*
X153637Y229377D01*
X153637Y230048D01*
X156142Y230048D01*
X156142Y228009D01*
X155894Y227783D01*
X155620Y227585D01*
X155318Y227413D01*
X154991Y227268D01*
X154642Y227154D01*
X154280Y227072D01*
X153903Y227022D01*
X153511Y227006D01*
G37*
G36*
X178393Y382948D02*
X178152Y382958D01*
X177927Y382986D01*
X177716Y383033D01*
X177521Y383100D01*
X177340Y383185D01*
X177175Y383289D01*
X177026Y383412D01*
X176891Y383554D01*
X176772Y383714D01*
X176669Y383891D01*
X176582Y384085D01*
X176510Y384296D01*
X176455Y384523D01*
X176415Y384767D01*
X176391Y385028D01*
X176383Y385306D01*
X176391Y385591D01*
X176415Y385857D01*
X176455Y386105D01*
X176511Y386334D01*
X176582Y386546D01*
X176670Y386738D01*
X176773Y386913D01*
X176892Y387069D01*
X177027Y387206D01*
X177178Y387326D01*
X177345Y387427D01*
X177528Y387509D01*
X177727Y387574D01*
X177942Y387619D01*
X178172Y387647D01*
X178419Y387656D01*
X178670Y387647D01*
X178904Y387620D01*
X179122Y387576D01*
X179322Y387513D01*
X179505Y387432D01*
X179670Y387334D01*
X179819Y387218D01*
X179950Y387083D01*
X180065Y386930D01*
X180165Y386758D01*
X180249Y386565D01*
X180318Y386353D01*
X180372Y386121D01*
X180410Y385869D01*
X180433Y385598D01*
X180441Y385306D01*
X180433Y385018D01*
X180408Y384748D01*
X180367Y384498D01*
X180310Y384267D01*
X180236Y384054D01*
X180146Y383861D01*
X180039Y383687D01*
X179917Y383531D01*
X179778Y383395D01*
X179625Y383276D01*
X179456Y383176D01*
X179273Y383094D01*
X179076Y383030D01*
X178863Y382985D01*
X178636Y382957D01*
X178393Y382948D01*
G37*
%LPC*%
G36*
X178385Y383506D02*
X178549Y383513D01*
X178701Y383533D01*
X178840Y383568D01*
X178968Y383615D01*
X179083Y383677D01*
X179186Y383752D01*
X179277Y383840D01*
X179356Y383943D01*
X179484Y384191D01*
X179575Y384502D01*
X179630Y384873D01*
X179648Y385306D01*
X179631Y385744D01*
X179578Y386118D01*
X179491Y386427D01*
X179369Y386672D01*
X179293Y386772D01*
X179206Y386859D01*
X179106Y386932D01*
X178995Y386992D01*
X178872Y387038D01*
X178737Y387071D01*
X178590Y387091D01*
X178431Y387098D01*
X178271Y387091D01*
X178123Y387071D01*
X177985Y387037D01*
X177860Y386990D01*
X177746Y386928D01*
X177643Y386854D01*
X177552Y386766D01*
X177472Y386664D01*
X177343Y386416D01*
X177250Y386107D01*
X177195Y385737D01*
X177176Y385306D01*
X177195Y384885D01*
X177249Y384520D01*
X177340Y384211D01*
X177468Y383957D01*
X177546Y383852D01*
X177635Y383760D01*
X177734Y383682D01*
X177843Y383619D01*
X177963Y383570D01*
X178093Y383534D01*
X178234Y383513D01*
X178385Y383506D01*
G37*
%LPD*%
G36*
X155291Y382948D02*
X154970Y382971D01*
X154692Y383038D01*
X154456Y383151D01*
X154263Y383309D01*
X154112Y383506D01*
X154005Y383737D01*
X153940Y384001D01*
X153919Y384299D01*
X153926Y384470D01*
X153948Y384631D01*
X153984Y384782D01*
X154035Y384922D01*
X154100Y385053D01*
X154180Y385173D01*
X154274Y385282D01*
X154382Y385382D01*
X154507Y385471D01*
X154650Y385549D01*
X154810Y385616D01*
X154988Y385671D01*
X155184Y385716D01*
X155398Y385750D01*
X155878Y385785D01*
X156898Y385801D01*
X156898Y386049D01*
X156883Y386306D01*
X156839Y386524D01*
X156766Y386703D01*
X156663Y386842D01*
X156529Y386947D01*
X156361Y387022D01*
X156160Y387066D01*
X155925Y387081D01*
X155688Y387071D01*
X155486Y387038D01*
X155319Y386985D01*
X155186Y386909D01*
X155082Y386810D01*
X155001Y386686D01*
X154944Y386536D01*
X154909Y386360D01*
X154120Y386431D01*
X154191Y386718D01*
X154306Y386967D01*
X154467Y387178D01*
X154672Y387350D01*
X154922Y387484D01*
X155217Y387580D01*
X155557Y387637D01*
X155941Y387656D01*
X156149Y387650D01*
X156343Y387632D01*
X156524Y387601D01*
X156691Y387558D01*
X156846Y387503D01*
X156987Y387435D01*
X157115Y387356D01*
X157230Y387264D01*
X157331Y387160D01*
X157419Y387046D01*
X157493Y386920D01*
X157554Y386784D01*
X157601Y386637D01*
X157635Y386478D01*
X157655Y386309D01*
X157662Y386129D01*
X157662Y384173D01*
X157684Y383879D01*
X157711Y383763D01*
X157750Y383668D01*
X157804Y383593D01*
X157878Y383540D01*
X157972Y383508D01*
X158086Y383498D01*
X158333Y383527D01*
X158333Y383057D01*
X158045Y383007D01*
X157750Y382990D01*
X157554Y383004D01*
X157387Y383045D01*
X157249Y383114D01*
X157139Y383210D01*
X157054Y383336D01*
X156990Y383493D01*
X156946Y383681D01*
X156923Y383901D01*
X156898Y383901D01*
X156747Y383659D01*
X156585Y383456D01*
X156411Y383291D01*
X156225Y383164D01*
X156022Y383070D01*
X155799Y383002D01*
X155555Y382962D01*
X155291Y382948D01*
G37*
%LPC*%
G36*
X155463Y383515D02*
X155665Y383526D01*
X155855Y383562D01*
X156034Y383621D01*
X156202Y383703D01*
X156355Y383807D01*
X156491Y383927D01*
X156609Y384066D01*
X156711Y384222D01*
X156793Y384387D01*
X156851Y384556D01*
X156886Y384726D01*
X156898Y384899D01*
X156898Y385273D01*
X156071Y385256D01*
X155821Y385246D01*
X155603Y385224D01*
X155417Y385191D01*
X155264Y385147D01*
X155134Y385090D01*
X155021Y385019D01*
X154923Y384934D01*
X154842Y384836D01*
X154778Y384723D01*
X154732Y384594D01*
X154704Y384448D01*
X154695Y384287D01*
X154708Y384113D01*
X154745Y383959D01*
X154807Y383827D01*
X154894Y383716D01*
X155005Y383628D01*
X155136Y383565D01*
X155289Y383527D01*
X155463Y383515D01*
G37*
%LPD*%
G36*
X159686Y383032D02*
X158931Y383032D01*
X158931Y386603D01*
X158925Y387242D01*
X158906Y387572D01*
X159619Y387572D01*
X159627Y387459D01*
X159638Y387247D01*
X159653Y386796D01*
X159665Y386796D01*
X159800Y387014D01*
X159946Y387197D01*
X160101Y387346D01*
X160267Y387461D01*
X160449Y387546D01*
X160651Y387607D01*
X160874Y387644D01*
X161117Y387656D01*
X161465Y387633D01*
X161621Y387604D01*
X161764Y387563D01*
X161894Y387511D01*
X162012Y387447D01*
X162117Y387372D01*
X162210Y387285D01*
X162291Y387184D01*
X162362Y387069D01*
X162421Y386938D01*
X162470Y386792D01*
X162535Y386455D01*
X162556Y386057D01*
X162556Y383032D01*
X161797Y383032D01*
X161797Y385911D01*
X161791Y386122D01*
X161775Y386309D01*
X161747Y386471D01*
X161709Y386607D01*
X161658Y386722D01*
X161594Y386820D01*
X161518Y386901D01*
X161428Y386964D01*
X161320Y387012D01*
X161189Y387046D01*
X161037Y387066D01*
X160861Y387073D01*
X160603Y387050D01*
X160373Y386980D01*
X160173Y386863D01*
X160001Y386699D01*
X159863Y386495D01*
X159765Y386254D01*
X159706Y385976D01*
X159686Y385663D01*
X159686Y383032D01*
G37*
G36*
X165260Y382948D02*
X164861Y382966D01*
X164510Y383018D01*
X164207Y383105D01*
X163953Y383227D01*
X163744Y383386D01*
X163574Y383584D01*
X163445Y383822D01*
X163355Y384098D01*
X164023Y384228D01*
X164084Y384058D01*
X164171Y383912D01*
X164283Y383790D01*
X164421Y383693D01*
X164587Y383619D01*
X164782Y383565D01*
X165007Y383534D01*
X165260Y383523D01*
X165529Y383534D01*
X165758Y383567D01*
X165949Y383622D01*
X166102Y383699D01*
X166218Y383798D01*
X166302Y383919D01*
X166352Y384063D01*
X166368Y384228D01*
X166357Y384356D01*
X166322Y384471D01*
X166264Y384574D01*
X166184Y384664D01*
X166077Y384745D01*
X165942Y384817D01*
X165779Y384883D01*
X165588Y384941D01*
X165046Y385084D01*
X164490Y385250D01*
X164282Y385332D01*
X164121Y385413D01*
X163876Y385592D01*
X163776Y385695D01*
X163691Y385806D01*
X163623Y385928D01*
X163575Y386063D01*
X163546Y386211D01*
X163536Y386372D01*
X163543Y386523D01*
X163564Y386664D01*
X163598Y386796D01*
X163647Y386919D01*
X163709Y387033D01*
X163785Y387137D01*
X163979Y387318D01*
X164225Y387461D01*
X164522Y387562D01*
X164870Y387623D01*
X165269Y387644D01*
X165625Y387627D01*
X165943Y387577D01*
X166222Y387495D01*
X166463Y387379D01*
X166664Y387227D01*
X166824Y387035D01*
X166944Y386803D01*
X167023Y386532D01*
X166343Y386448D01*
X166298Y386590D01*
X166227Y386715D01*
X166129Y386822D01*
X166005Y386911D01*
X165856Y386982D01*
X165684Y387033D01*
X165488Y387063D01*
X165269Y387073D01*
X165030Y387063D01*
X164824Y387034D01*
X164652Y386986D01*
X164514Y386918D01*
X164407Y386830D01*
X164331Y386723D01*
X164285Y386595D01*
X164270Y386448D01*
X164276Y386355D01*
X164295Y386271D01*
X164371Y386129D01*
X164496Y386012D01*
X164669Y385915D01*
X164975Y385810D01*
X165500Y385671D01*
X166016Y385526D01*
X166364Y385392D01*
X166601Y385258D01*
X166782Y385109D01*
X166917Y384942D01*
X167019Y384750D01*
X167082Y384533D01*
X167103Y384287D01*
X167095Y384131D01*
X167072Y383984D01*
X167034Y383846D01*
X166981Y383718D01*
X166913Y383599D01*
X166830Y383489D01*
X166732Y383388D01*
X166618Y383296D01*
X166351Y383144D01*
X166036Y383035D01*
X165673Y382970D01*
X165260Y382948D01*
G37*
G36*
X171479Y382948D02*
X171080Y382966D01*
X170729Y383018D01*
X170426Y383105D01*
X170172Y383227D01*
X169962Y383386D01*
X169793Y383584D01*
X169663Y383822D01*
X169574Y384098D01*
X170241Y384228D01*
X170302Y384058D01*
X170389Y383912D01*
X170502Y383790D01*
X170640Y383693D01*
X170806Y383619D01*
X171001Y383565D01*
X171225Y383534D01*
X171479Y383523D01*
X171747Y383534D01*
X171977Y383567D01*
X172168Y383622D01*
X172321Y383699D01*
X172437Y383798D01*
X172520Y383919D01*
X172570Y384063D01*
X172587Y384228D01*
X172575Y384356D01*
X172541Y384471D01*
X172483Y384574D01*
X172402Y384664D01*
X172296Y384745D01*
X172161Y384817D01*
X171998Y384883D01*
X171807Y384941D01*
X171265Y385084D01*
X170709Y385250D01*
X170501Y385332D01*
X170340Y385413D01*
X170095Y385592D01*
X169995Y385695D01*
X169910Y385806D01*
X169842Y385928D01*
X169793Y386063D01*
X169764Y386211D01*
X169755Y386372D01*
X169762Y386523D01*
X169782Y386664D01*
X169817Y386796D01*
X169865Y386919D01*
X169928Y387033D01*
X170004Y387137D01*
X170197Y387318D01*
X170444Y387461D01*
X170741Y387562D01*
X171089Y387623D01*
X171488Y387644D01*
X171844Y387627D01*
X172162Y387577D01*
X172441Y387495D01*
X172681Y387379D01*
X172882Y387227D01*
X173043Y387035D01*
X173163Y386803D01*
X173242Y386532D01*
X172562Y386448D01*
X172517Y386590D01*
X172446Y386715D01*
X172348Y386822D01*
X172224Y386911D01*
X172075Y386982D01*
X171903Y387033D01*
X171707Y387063D01*
X171488Y387073D01*
X171248Y387063D01*
X171043Y387034D01*
X170871Y386986D01*
X170732Y386918D01*
X170626Y386830D01*
X170550Y386723D01*
X170504Y386595D01*
X170489Y386448D01*
X170495Y386355D01*
X170514Y386271D01*
X170590Y386129D01*
X170714Y386012D01*
X170888Y385915D01*
X171194Y385810D01*
X171718Y385671D01*
X172235Y385526D01*
X172583Y385392D01*
X172819Y385258D01*
X173000Y385109D01*
X173136Y384942D01*
X173237Y384750D01*
X173300Y384533D01*
X173321Y384287D01*
X173314Y384131D01*
X173291Y383984D01*
X173253Y383846D01*
X173200Y383718D01*
X173132Y383599D01*
X173049Y383489D01*
X172950Y383388D01*
X172837Y383296D01*
X172570Y383144D01*
X172255Y383035D01*
X171891Y382970D01*
X171479Y382948D01*
G37*
G36*
X148762Y383032D02*
X147965Y383032D01*
X147965Y388290D01*
X145934Y388290D01*
X145934Y388944D01*
X150793Y388944D01*
X150793Y388290D01*
X148762Y388290D01*
X148762Y383032D01*
G37*
G36*
X175208Y382965D02*
X174996Y382981D01*
X174812Y383029D01*
X174656Y383109D01*
X174529Y383222D01*
X174430Y383366D01*
X174359Y383543D01*
X174316Y383752D01*
X174302Y383993D01*
X174302Y387023D01*
X173778Y387023D01*
X173778Y387572D01*
X174331Y387572D01*
X174554Y388588D01*
X175057Y388588D01*
X175057Y387572D01*
X175897Y387572D01*
X175897Y387023D01*
X175057Y387023D01*
X175057Y384157D01*
X175064Y384005D01*
X175084Y383878D01*
X175118Y383775D01*
X175164Y383697D01*
X175228Y383639D01*
X175311Y383598D01*
X175413Y383573D01*
X175536Y383565D01*
X175720Y383580D01*
X175972Y383624D01*
X175972Y383066D01*
X175595Y382990D01*
X175403Y382971D01*
X175208Y382965D01*
G37*
G36*
X152030Y383032D02*
X151275Y383032D01*
X151275Y386515D01*
X151249Y387572D01*
X151963Y387572D01*
X151996Y386645D01*
X152013Y386645D01*
X152107Y386913D01*
X152207Y387136D01*
X152314Y387312D01*
X152429Y387442D01*
X152558Y387536D01*
X152712Y387603D01*
X152890Y387643D01*
X153092Y387656D01*
X153244Y387646D01*
X153398Y387614D01*
X153398Y386922D01*
X153222Y386953D01*
X152995Y386964D01*
X152881Y386957D01*
X152774Y386939D01*
X152581Y386863D01*
X152415Y386736D01*
X152277Y386559D01*
X152169Y386335D01*
X152092Y386066D01*
X152045Y385754D01*
X152030Y385399D01*
X152030Y383032D01*
G37*
G36*
X182155Y383032D02*
X181400Y383032D01*
X181400Y386515D01*
X181374Y387572D01*
X182088Y387572D01*
X182121Y386645D01*
X182138Y386645D01*
X182232Y386913D01*
X182332Y387136D01*
X182439Y387312D01*
X182554Y387442D01*
X182683Y387536D01*
X182837Y387603D01*
X183015Y387643D01*
X183217Y387656D01*
X183369Y387646D01*
X183523Y387614D01*
X183523Y386922D01*
X183347Y386953D01*
X183120Y386964D01*
X183006Y386957D01*
X182899Y386939D01*
X182706Y386863D01*
X182540Y386736D01*
X182402Y386559D01*
X182294Y386335D01*
X182217Y386066D01*
X182170Y385754D01*
X182155Y385399D01*
X182155Y383032D01*
G37*
G36*
X168759Y383032D02*
X168004Y383032D01*
X168004Y387572D01*
X168759Y387572D01*
X168759Y383032D01*
G37*
G36*
X168759Y388537D02*
X168004Y388537D01*
X168004Y389259D01*
X168759Y389259D01*
X168759Y388537D01*
G37*
G36*
X278130Y256703D02*
X265789Y256703D01*
X265789Y262510D01*
X265804Y263016D01*
X265848Y263492D01*
X265920Y263939D01*
X266022Y264357D01*
X266154Y264744D01*
X266314Y265102D01*
X266503Y265430D01*
X266722Y265728D01*
X266967Y265994D01*
X267234Y266225D01*
X267524Y266420D01*
X267838Y266579D01*
X268174Y266703D01*
X268533Y266792D01*
X268914Y266845D01*
X269319Y266863D01*
X269656Y266850D01*
X269979Y266813D01*
X270289Y266750D01*
X270585Y266662D01*
X270867Y266550D01*
X271135Y266412D01*
X271390Y266249D01*
X271631Y266061D01*
X271855Y265851D01*
X272057Y265622D01*
X272237Y265375D01*
X272303Y265264D01*
X272395Y265108D01*
X272532Y264822D01*
X272648Y264517D01*
X272741Y264193D01*
X272814Y263850D01*
X275077Y265341D01*
X278130Y267353D01*
X278130Y265426D01*
X273006Y262221D01*
X273006Y258376D01*
X278130Y258376D01*
X278130Y256703D01*
G37*
%LPC*%
G36*
X271684Y258376D02*
X271684Y262413D01*
X271674Y262735D01*
X271645Y263037D01*
X271597Y263321D01*
X271529Y263586D01*
X271443Y263832D01*
X271336Y264060D01*
X271211Y264268D01*
X271066Y264458D01*
X270904Y264628D01*
X270727Y264775D01*
X270534Y264899D01*
X270325Y265000D01*
X270101Y265079D01*
X269862Y265136D01*
X269607Y265170D01*
X269336Y265181D01*
X269075Y265170D01*
X268830Y265135D01*
X268601Y265078D01*
X268387Y264998D01*
X268190Y264895D01*
X268009Y264770D01*
X267843Y264621D01*
X267694Y264450D01*
X267562Y264257D01*
X267447Y264044D01*
X267350Y263811D01*
X267271Y263557D01*
X267209Y263284D01*
X267165Y262990D01*
X267138Y262677D01*
X267129Y262343D01*
X267129Y258376D01*
X271684Y258376D01*
G37*
%LPD*%
G36*
X278130Y269566D02*
X276790Y269566D01*
X276790Y272711D01*
X267296Y272711D01*
X269284Y269925D01*
X267795Y269925D01*
X265789Y272842D01*
X265789Y274296D01*
X276790Y274296D01*
X276790Y277300D01*
X278130Y277300D01*
X278130Y269566D01*
G37*
G36*
X92885Y244675D02*
X92115Y244691D01*
X91395Y244740D01*
X90725Y244821D01*
X90104Y244935D01*
X89534Y245080D01*
X89013Y245259D01*
X88542Y245470D01*
X88121Y245713D01*
X87749Y245991D01*
X87427Y246307D01*
X87155Y246661D01*
X86932Y247052D01*
X86758Y247481D01*
X86690Y247709D01*
X86634Y247947D01*
X86591Y248195D01*
X86560Y248451D01*
X86542Y248717D01*
X86535Y248993D01*
X86542Y249261D01*
X86560Y249520D01*
X86592Y249771D01*
X86635Y250012D01*
X86692Y250244D01*
X86761Y250468D01*
X86936Y250888D01*
X87161Y251273D01*
X87437Y251621D01*
X87762Y251934D01*
X88138Y252212D01*
X88563Y252455D01*
X89036Y252666D01*
X89557Y252844D01*
X90126Y252990D01*
X90744Y253104D01*
X91409Y253185D01*
X92123Y253233D01*
X92885Y253250D01*
X93635Y253233D01*
X94340Y253182D01*
X94998Y253096D01*
X95611Y252977D01*
X96179Y252824D01*
X96700Y252636D01*
X97176Y252415D01*
X97606Y252159D01*
X97988Y251870D01*
X98319Y251549D01*
X98599Y251195D01*
X98828Y250809D01*
X99006Y250391D01*
X99133Y249940D01*
X99178Y249702D01*
X99210Y249456D01*
X99229Y249202D01*
X99235Y248940D01*
X99229Y248679D01*
X99210Y248425D01*
X99178Y248180D01*
X99134Y247943D01*
X99007Y247493D01*
X98830Y247077D01*
X98602Y246694D01*
X98324Y246344D01*
X97995Y246027D01*
X97615Y245744D01*
X97187Y245493D01*
X96712Y245276D01*
X96190Y245092D01*
X95622Y244942D01*
X95008Y244825D01*
X94347Y244742D01*
X93639Y244692D01*
X92885Y244675D01*
G37*
%LPC*%
G36*
X92885Y246269D02*
X93520Y246279D01*
X94111Y246309D01*
X94658Y246360D01*
X95160Y246430D01*
X95619Y246521D01*
X96033Y246631D01*
X96404Y246762D01*
X96730Y246913D01*
X97016Y247086D01*
X97263Y247282D01*
X97472Y247502D01*
X97643Y247746D01*
X97776Y248014D01*
X97872Y248305D01*
X97929Y248619D01*
X97948Y248958D01*
X97928Y249295D01*
X97870Y249608D01*
X97773Y249898D01*
X97637Y250164D01*
X97462Y250408D01*
X97248Y250628D01*
X96995Y250825D01*
X96704Y250999D01*
X96372Y251151D01*
X95999Y251282D01*
X95584Y251394D01*
X95127Y251485D01*
X94629Y251556D01*
X94090Y251606D01*
X93508Y251637D01*
X92885Y251647D01*
X92240Y251637D01*
X91642Y251608D01*
X91089Y251560D01*
X90582Y251492D01*
X90121Y251406D01*
X89706Y251300D01*
X89337Y251174D01*
X89014Y251029D01*
X88733Y250862D01*
X88489Y250671D01*
X88283Y250454D01*
X88114Y250212D01*
X87983Y249944D01*
X87889Y249652D01*
X87833Y249335D01*
X87814Y248993D01*
X87833Y248642D01*
X87888Y248317D01*
X87980Y248018D01*
X88110Y247744D01*
X88276Y247496D01*
X88479Y247273D01*
X88719Y247076D01*
X88996Y246904D01*
X89316Y246755D01*
X89683Y246626D01*
X90098Y246517D01*
X90560Y246428D01*
X91070Y246358D01*
X91627Y246309D01*
X92232Y246279D01*
X92885Y246269D01*
G37*
%LPD*%
G36*
X99060Y222508D02*
X86719Y222508D01*
X86719Y228315D01*
X86734Y228822D01*
X86778Y229298D01*
X86850Y229745D01*
X86952Y230162D01*
X87084Y230550D01*
X87244Y230907D01*
X87433Y231236D01*
X87652Y231534D01*
X87897Y231800D01*
X88164Y232030D01*
X88454Y232225D01*
X88768Y232385D01*
X89104Y232509D01*
X89463Y232597D01*
X89844Y232651D01*
X90249Y232668D01*
X90586Y232656D01*
X90909Y232618D01*
X91219Y232556D01*
X91515Y232468D01*
X91797Y232355D01*
X92065Y232217D01*
X92320Y232055D01*
X92561Y231867D01*
X92785Y231657D01*
X92987Y231428D01*
X93167Y231180D01*
X93233Y231069D01*
X93325Y230913D01*
X93462Y230627D01*
X93578Y230322D01*
X93671Y229998D01*
X93744Y229655D01*
X96007Y231147D01*
X99060Y233159D01*
X99060Y231232D01*
X93936Y228026D01*
X93936Y224181D01*
X99060Y224181D01*
X99060Y222508D01*
G37*
%LPC*%
G36*
X92614Y224181D02*
X92614Y228219D01*
X92604Y228540D01*
X92575Y228843D01*
X92527Y229126D01*
X92459Y229391D01*
X92373Y229638D01*
X92266Y229865D01*
X92141Y230074D01*
X91996Y230264D01*
X91834Y230433D01*
X91657Y230580D01*
X91464Y230704D01*
X91255Y230806D01*
X91031Y230885D01*
X90792Y230941D01*
X90537Y230975D01*
X90266Y230987D01*
X90005Y230975D01*
X89760Y230941D01*
X89531Y230884D01*
X89317Y230804D01*
X89120Y230701D01*
X88939Y230575D01*
X88773Y230427D01*
X88624Y230255D01*
X88492Y230062D01*
X88377Y229849D01*
X88280Y229616D01*
X88201Y229363D01*
X88139Y229090D01*
X88095Y228796D01*
X88068Y228483D01*
X88059Y228149D01*
X88059Y224181D01*
X92614Y224181D01*
G37*
%LPD*%
G36*
X99060Y235372D02*
X97720Y235372D01*
X97720Y238516D01*
X88226Y238516D01*
X90214Y235731D01*
X88725Y235731D01*
X86719Y238648D01*
X86719Y240102D01*
X97720Y240102D01*
X97720Y243106D01*
X99060Y243106D01*
X99060Y235372D01*
G37*
G36*
X95250Y163490D02*
X82909Y163490D01*
X82909Y169297D01*
X82924Y169803D01*
X82968Y170280D01*
X83040Y170727D01*
X83142Y171144D01*
X83274Y171532D01*
X83434Y171889D01*
X83623Y172217D01*
X83842Y172516D01*
X84087Y172782D01*
X84354Y173012D01*
X84644Y173207D01*
X84958Y173367D01*
X85294Y173491D01*
X85653Y173579D01*
X86034Y173632D01*
X86439Y173650D01*
X86776Y173638D01*
X87099Y173600D01*
X87409Y173537D01*
X87705Y173450D01*
X87987Y173337D01*
X88255Y173199D01*
X88510Y173037D01*
X88751Y172849D01*
X88975Y172639D01*
X89177Y172410D01*
X89357Y172162D01*
X89423Y172051D01*
X89515Y171895D01*
X89652Y171609D01*
X89768Y171304D01*
X89861Y170980D01*
X89934Y170637D01*
X92197Y172129D01*
X95250Y174141D01*
X95250Y172214D01*
X90126Y169008D01*
X90126Y165163D01*
X95250Y165163D01*
X95250Y163490D01*
G37*
%LPC*%
G36*
X88804Y165163D02*
X88804Y169201D01*
X88794Y169522D01*
X88765Y169825D01*
X88717Y170108D01*
X88649Y170373D01*
X88563Y170620D01*
X88456Y170847D01*
X88331Y171056D01*
X88186Y171246D01*
X88024Y171415D01*
X87847Y171562D01*
X87654Y171686D01*
X87445Y171788D01*
X87221Y171867D01*
X86982Y171923D01*
X86727Y171957D01*
X86456Y171968D01*
X86195Y171957D01*
X85950Y171923D01*
X85721Y171866D01*
X85507Y171786D01*
X85310Y171683D01*
X85129Y171557D01*
X84963Y171409D01*
X84814Y171237D01*
X84682Y171044D01*
X84567Y170831D01*
X84470Y170598D01*
X84391Y170345D01*
X84329Y170071D01*
X84285Y169778D01*
X84258Y169464D01*
X84249Y169131D01*
X84249Y165163D01*
X88804Y165163D01*
G37*
%LPD*%
G36*
X95250Y176354D02*
X93910Y176354D01*
X93910Y179498D01*
X84416Y179498D01*
X86404Y176713D01*
X84915Y176713D01*
X82909Y179630D01*
X82909Y181083D01*
X93910Y181083D01*
X93910Y184088D01*
X95250Y184088D01*
X95250Y176354D01*
G37*
G36*
X95250Y184979D02*
X93910Y184979D01*
X93910Y188123D01*
X84416Y188123D01*
X86404Y185338D01*
X84915Y185338D01*
X82909Y188255D01*
X82909Y189708D01*
X93910Y189708D01*
X93910Y192713D01*
X95250Y192713D01*
X95250Y184979D01*
G37*
G36*
X231140Y252988D02*
X218799Y252988D01*
X218799Y258795D01*
X218814Y259302D01*
X218858Y259778D01*
X218930Y260225D01*
X219032Y260642D01*
X219164Y261030D01*
X219324Y261387D01*
X219513Y261716D01*
X219732Y262014D01*
X219977Y262280D01*
X220244Y262510D01*
X220534Y262705D01*
X220848Y262865D01*
X221184Y262989D01*
X221543Y263077D01*
X221924Y263131D01*
X222329Y263148D01*
X222666Y263136D01*
X222989Y263098D01*
X223299Y263036D01*
X223595Y262948D01*
X223877Y262835D01*
X224145Y262697D01*
X224400Y262535D01*
X224641Y262347D01*
X224865Y262137D01*
X225067Y261908D01*
X225247Y261660D01*
X225313Y261549D01*
X225405Y261393D01*
X225542Y261107D01*
X225658Y260802D01*
X225751Y260478D01*
X225824Y260135D01*
X228087Y261627D01*
X231140Y263639D01*
X231140Y261712D01*
X226016Y258506D01*
X226016Y254661D01*
X231140Y254661D01*
X231140Y252988D01*
G37*
%LPC*%
G36*
X224694Y254661D02*
X224694Y258699D01*
X224684Y259020D01*
X224655Y259323D01*
X224607Y259606D01*
X224539Y259871D01*
X224453Y260118D01*
X224346Y260345D01*
X224221Y260554D01*
X224076Y260744D01*
X223914Y260913D01*
X223737Y261060D01*
X223544Y261184D01*
X223335Y261286D01*
X223111Y261365D01*
X222872Y261421D01*
X222617Y261455D01*
X222346Y261467D01*
X222085Y261455D01*
X221840Y261421D01*
X221611Y261364D01*
X221397Y261284D01*
X221200Y261181D01*
X221019Y261055D01*
X220853Y260907D01*
X220704Y260735D01*
X220572Y260542D01*
X220457Y260329D01*
X220360Y260096D01*
X220281Y259843D01*
X220219Y259570D01*
X220175Y259276D01*
X220148Y258963D01*
X220139Y258629D01*
X220139Y254661D01*
X224694Y254661D01*
G37*
%LPD*%
G36*
X231140Y275357D02*
X230028Y275357D01*
X229530Y275592D01*
X229063Y275852D01*
X228626Y276137D01*
X228219Y276447D01*
X227836Y276773D01*
X227472Y277107D01*
X227127Y277450D01*
X226800Y277800D01*
X226188Y278506D01*
X225622Y279206D01*
X225079Y279868D01*
X224536Y280463D01*
X224261Y280730D01*
X223980Y280970D01*
X223692Y281183D01*
X223397Y281369D01*
X223090Y281521D01*
X222762Y281629D01*
X222415Y281694D01*
X222049Y281715D01*
X221802Y281706D01*
X221569Y281678D01*
X221351Y281631D01*
X221147Y281566D01*
X220957Y281483D01*
X220781Y281380D01*
X220619Y281259D01*
X220472Y281120D01*
X220341Y280963D01*
X220227Y280793D01*
X220131Y280608D01*
X220052Y280408D01*
X219990Y280194D01*
X219947Y279965D01*
X219920Y279722D01*
X219912Y279464D01*
X219920Y279218D01*
X219946Y278983D01*
X219989Y278759D01*
X220048Y278546D01*
X220125Y278344D01*
X220219Y278153D01*
X220331Y277973D01*
X220459Y277805D01*
X220603Y277650D01*
X220760Y277512D01*
X220932Y277391D01*
X221117Y277287D01*
X221316Y277199D01*
X221529Y277129D01*
X221756Y277075D01*
X221996Y277038D01*
X221847Y275427D01*
X221487Y275485D01*
X221145Y275571D01*
X220822Y275685D01*
X220518Y275828D01*
X220233Y276000D01*
X219967Y276199D01*
X219720Y276427D01*
X219491Y276683D01*
X219286Y276963D01*
X219108Y277263D01*
X218957Y277582D01*
X218834Y277919D01*
X218738Y278277D01*
X218670Y278653D01*
X218629Y279049D01*
X218615Y279464D01*
X218629Y279917D01*
X218670Y280343D01*
X218739Y280742D01*
X218835Y281114D01*
X218959Y281459D01*
X219110Y281777D01*
X219289Y282068D01*
X219496Y282333D01*
X219727Y282568D01*
X219982Y282771D01*
X220260Y282944D01*
X220561Y283085D01*
X220885Y283195D01*
X221232Y283273D01*
X221603Y283320D01*
X221996Y283336D01*
X222355Y283315D01*
X222712Y283253D01*
X223068Y283151D01*
X223424Y283007D01*
X223778Y282823D01*
X224133Y282599D01*
X224488Y282335D01*
X224843Y282031D01*
X225246Y281633D01*
X225747Y281087D01*
X226345Y280393D01*
X227041Y279552D01*
X227443Y279074D01*
X227824Y278648D01*
X228185Y278273D01*
X228526Y277949D01*
X228853Y277672D01*
X229175Y277437D01*
X229490Y277243D01*
X229800Y277091D01*
X229800Y283528D01*
X231140Y283528D01*
X231140Y275357D01*
G37*
G36*
X231140Y265852D02*
X229800Y265852D01*
X229800Y268996D01*
X220306Y268996D01*
X222294Y266211D01*
X220805Y266211D01*
X218799Y269128D01*
X218799Y270582D01*
X229800Y270582D01*
X229800Y273586D01*
X231140Y273586D01*
X231140Y265852D01*
G37*
G36*
X276860Y315218D02*
X264519Y315218D01*
X264519Y321025D01*
X264534Y321532D01*
X264578Y322008D01*
X264650Y322455D01*
X264752Y322872D01*
X264884Y323260D01*
X265044Y323617D01*
X265233Y323946D01*
X265452Y324244D01*
X265697Y324510D01*
X265964Y324740D01*
X266254Y324935D01*
X266568Y325095D01*
X266904Y325219D01*
X267263Y325307D01*
X267644Y325361D01*
X268049Y325378D01*
X268386Y325366D01*
X268709Y325328D01*
X269019Y325266D01*
X269315Y325178D01*
X269597Y325065D01*
X269865Y324927D01*
X270120Y324765D01*
X270361Y324577D01*
X270585Y324367D01*
X270787Y324138D01*
X270967Y323890D01*
X271033Y323779D01*
X271125Y323623D01*
X271262Y323337D01*
X271378Y323032D01*
X271471Y322708D01*
X271544Y322365D01*
X273807Y323857D01*
X276860Y325869D01*
X276860Y323942D01*
X271736Y320736D01*
X271736Y316891D01*
X276860Y316891D01*
X276860Y315218D01*
G37*
%LPC*%
G36*
X270414Y316891D02*
X270414Y320929D01*
X270404Y321250D01*
X270375Y321553D01*
X270327Y321836D01*
X270259Y322101D01*
X270173Y322348D01*
X270066Y322575D01*
X269941Y322784D01*
X269796Y322974D01*
X269634Y323143D01*
X269457Y323290D01*
X269264Y323414D01*
X269055Y323516D01*
X268831Y323595D01*
X268592Y323651D01*
X268337Y323685D01*
X268066Y323697D01*
X267805Y323685D01*
X267560Y323651D01*
X267331Y323594D01*
X267117Y323514D01*
X266920Y323411D01*
X266739Y323285D01*
X266573Y323137D01*
X266424Y322965D01*
X266292Y322772D01*
X266177Y322559D01*
X266080Y322326D01*
X266001Y322073D01*
X265939Y321800D01*
X265895Y321506D01*
X265868Y321193D01*
X265859Y320859D01*
X265859Y316891D01*
X270414Y316891D01*
G37*
%LPD*%
G36*
X273689Y337368D02*
X273541Y338997D01*
X273806Y339044D01*
X274054Y339108D01*
X274285Y339187D01*
X274499Y339283D01*
X274695Y339395D01*
X274875Y339523D01*
X275037Y339666D01*
X275183Y339827D01*
X275311Y340003D01*
X275422Y340195D01*
X275516Y340403D01*
X275593Y340627D01*
X275653Y340868D01*
X275696Y341124D01*
X275722Y341397D01*
X275730Y341686D01*
X275721Y341975D01*
X275694Y342249D01*
X275648Y342507D01*
X275583Y342749D01*
X275501Y342974D01*
X275400Y343184D01*
X275281Y343378D01*
X275143Y343555D01*
X274988Y343715D01*
X274814Y343852D01*
X274623Y343969D01*
X274414Y344065D01*
X274187Y344139D01*
X273943Y344192D01*
X273681Y344224D01*
X273400Y344234D01*
X273156Y344222D01*
X272924Y344186D01*
X272707Y344125D01*
X272504Y344040D01*
X272314Y343931D01*
X272138Y343798D01*
X271976Y343641D01*
X271828Y343459D01*
X271696Y343255D01*
X271581Y343029D01*
X271484Y342781D01*
X271405Y342512D01*
X271343Y342222D01*
X271299Y341910D01*
X271272Y341576D01*
X271263Y341221D01*
X271263Y340328D01*
X269897Y340328D01*
X269897Y341186D01*
X269888Y341501D01*
X269862Y341798D01*
X269818Y342077D01*
X269756Y342337D01*
X269676Y342579D01*
X269579Y342803D01*
X269464Y343009D01*
X269332Y343196D01*
X269184Y343364D01*
X269023Y343509D01*
X268847Y343631D01*
X268659Y343732D01*
X268457Y343810D01*
X268241Y343866D01*
X268012Y343899D01*
X267769Y343910D01*
X267528Y343901D01*
X267300Y343874D01*
X267085Y343828D01*
X266883Y343765D01*
X266694Y343683D01*
X266518Y343583D01*
X266355Y343464D01*
X266205Y343328D01*
X266071Y343173D01*
X265954Y343001D01*
X265856Y342811D01*
X265775Y342604D01*
X265712Y342379D01*
X265667Y342136D01*
X265641Y341876D01*
X265632Y341598D01*
X265640Y341344D01*
X265665Y341102D01*
X265707Y340872D01*
X265765Y340655D01*
X265840Y340451D01*
X265932Y340259D01*
X266041Y340079D01*
X266166Y339912D01*
X266306Y339759D01*
X266460Y339624D01*
X266628Y339505D01*
X266810Y339403D01*
X267005Y339318D01*
X267214Y339249D01*
X267436Y339198D01*
X267672Y339163D01*
X267550Y337578D01*
X267181Y337636D01*
X266834Y337722D01*
X266507Y337837D01*
X266201Y337980D01*
X265916Y338151D01*
X265651Y338350D01*
X265408Y338578D01*
X265185Y338835D01*
X264986Y339115D01*
X264813Y339414D01*
X264667Y339733D01*
X264548Y340071D01*
X264455Y340428D01*
X264388Y340804D01*
X264349Y341200D01*
X264335Y341615D01*
X264349Y342067D01*
X264389Y342492D01*
X264457Y342892D01*
X264551Y343265D01*
X264672Y343613D01*
X264821Y343935D01*
X264996Y344231D01*
X265198Y344501D01*
X265424Y344743D01*
X265672Y344952D01*
X265941Y345129D01*
X266230Y345273D01*
X266542Y345386D01*
X266874Y345466D01*
X267227Y345514D01*
X267602Y345531D01*
X267891Y345520D01*
X268166Y345489D01*
X268427Y345438D01*
X268674Y345365D01*
X268907Y345272D01*
X269127Y345159D01*
X269333Y345024D01*
X269525Y344869D01*
X269702Y344695D01*
X269865Y344501D01*
X270013Y344289D01*
X270146Y344058D01*
X270263Y343808D01*
X270366Y343540D01*
X270454Y343253D01*
X270528Y342947D01*
X270563Y342947D01*
X270610Y343283D01*
X270676Y343600D01*
X270763Y343898D01*
X270869Y344177D01*
X270995Y344437D01*
X271141Y344678D01*
X271306Y344899D01*
X271491Y345101D01*
X271692Y345282D01*
X271906Y345439D01*
X272132Y345571D01*
X272371Y345679D01*
X272623Y345764D01*
X272887Y345824D01*
X273164Y345860D01*
X273453Y345872D01*
X273868Y345855D01*
X274259Y345804D01*
X274626Y345719D01*
X274968Y345601D01*
X275287Y345448D01*
X275581Y345261D01*
X275852Y345041D01*
X276098Y344786D01*
X276318Y344500D01*
X276508Y344185D01*
X276669Y343841D01*
X276801Y343468D01*
X276903Y343066D01*
X276977Y342635D01*
X277021Y342175D01*
X277035Y341686D01*
X277022Y341229D01*
X276982Y340796D01*
X276916Y340386D01*
X276824Y340001D01*
X276705Y339639D01*
X276560Y339300D01*
X276388Y338985D01*
X276190Y338694D01*
X275966Y338429D01*
X275717Y338193D01*
X275442Y337984D01*
X275142Y337804D01*
X274817Y337653D01*
X274466Y337529D01*
X274091Y337434D01*
X273689Y337368D01*
G37*
G36*
X276860Y328082D02*
X275520Y328082D01*
X275520Y331226D01*
X266026Y331226D01*
X268014Y328441D01*
X266525Y328441D01*
X264519Y331358D01*
X264519Y332812D01*
X275520Y332812D01*
X275520Y335816D01*
X276860Y335816D01*
X276860Y328082D01*
G37*
G36*
X231140Y216063D02*
X218799Y216063D01*
X218799Y221870D01*
X218814Y222376D01*
X218858Y222852D01*
X218930Y223299D01*
X219032Y223717D01*
X219164Y224104D01*
X219324Y224462D01*
X219513Y224790D01*
X219732Y225088D01*
X219977Y225354D01*
X220244Y225585D01*
X220534Y225780D01*
X220848Y225939D01*
X221184Y226063D01*
X221543Y226152D01*
X221924Y226205D01*
X222329Y226223D01*
X222666Y226210D01*
X222989Y226173D01*
X223299Y226110D01*
X223595Y226022D01*
X223877Y225910D01*
X224145Y225772D01*
X224400Y225609D01*
X224641Y225421D01*
X224865Y225211D01*
X225067Y224982D01*
X225247Y224735D01*
X225313Y224624D01*
X225405Y224468D01*
X225542Y224182D01*
X225658Y223877D01*
X225751Y223553D01*
X225824Y223210D01*
X228087Y224701D01*
X231140Y226713D01*
X231140Y224786D01*
X226016Y221581D01*
X226016Y217736D01*
X231140Y217736D01*
X231140Y216063D01*
G37*
%LPC*%
G36*
X224694Y217736D02*
X224694Y221773D01*
X224684Y222095D01*
X224655Y222397D01*
X224607Y222681D01*
X224539Y222946D01*
X224453Y223192D01*
X224346Y223420D01*
X224221Y223628D01*
X224076Y223818D01*
X223914Y223988D01*
X223737Y224135D01*
X223544Y224259D01*
X223335Y224360D01*
X223111Y224439D01*
X222872Y224496D01*
X222617Y224530D01*
X222346Y224541D01*
X222085Y224530D01*
X221840Y224495D01*
X221611Y224438D01*
X221397Y224358D01*
X221200Y224255D01*
X221019Y224130D01*
X220853Y223981D01*
X220704Y223810D01*
X220572Y223617D01*
X220457Y223404D01*
X220360Y223171D01*
X220281Y222917D01*
X220219Y222644D01*
X220175Y222350D01*
X220148Y222037D01*
X220139Y221703D01*
X220139Y217736D01*
X224694Y217736D01*
G37*
%LPD*%
G36*
X231140Y228462D02*
X230028Y228462D01*
X229530Y228698D01*
X229063Y228958D01*
X228626Y229243D01*
X228219Y229553D01*
X227836Y229879D01*
X227472Y230213D01*
X227127Y230555D01*
X226800Y230906D01*
X226188Y231612D01*
X225622Y232312D01*
X225079Y232974D01*
X224536Y233568D01*
X224261Y233835D01*
X223980Y234075D01*
X223692Y234288D01*
X223397Y234475D01*
X223090Y234626D01*
X222762Y234734D01*
X222415Y234799D01*
X222049Y234821D01*
X221802Y234812D01*
X221569Y234784D01*
X221351Y234737D01*
X221147Y234672D01*
X220957Y234588D01*
X220781Y234486D01*
X220619Y234365D01*
X220472Y234225D01*
X220341Y234069D01*
X220227Y233898D01*
X220131Y233713D01*
X220052Y233514D01*
X219990Y233299D01*
X219947Y233071D01*
X219920Y232828D01*
X219912Y232570D01*
X219920Y232324D01*
X219946Y232088D01*
X219989Y231864D01*
X220048Y231651D01*
X220125Y231449D01*
X220219Y231259D01*
X220331Y231079D01*
X220459Y230910D01*
X220603Y230755D01*
X220760Y230618D01*
X220932Y230497D01*
X221117Y230392D01*
X221316Y230305D01*
X221529Y230234D01*
X221756Y230181D01*
X221996Y230144D01*
X221847Y228532D01*
X221487Y228590D01*
X221145Y228676D01*
X220822Y228791D01*
X220518Y228934D01*
X220233Y229105D01*
X219967Y229305D01*
X219720Y229533D01*
X219491Y229789D01*
X219286Y230069D01*
X219108Y230368D01*
X218957Y230687D01*
X218834Y231025D01*
X218738Y231382D01*
X218670Y231759D01*
X218629Y232155D01*
X218615Y232570D01*
X218629Y233023D01*
X218670Y233449D01*
X218739Y233848D01*
X218835Y234220D01*
X218959Y234565D01*
X219110Y234883D01*
X219289Y235174D01*
X219496Y235438D01*
X219727Y235673D01*
X219982Y235877D01*
X220260Y236049D01*
X220561Y236190D01*
X220885Y236300D01*
X221232Y236378D01*
X221603Y236425D01*
X221996Y236441D01*
X222355Y236421D01*
X222712Y236359D01*
X223068Y236256D01*
X223424Y236113D01*
X223778Y235929D01*
X224133Y235704D01*
X224488Y235440D01*
X224843Y235136D01*
X225246Y234738D01*
X225747Y234192D01*
X226345Y233499D01*
X227041Y232657D01*
X227443Y232180D01*
X227824Y231753D01*
X228185Y231378D01*
X228526Y231055D01*
X228853Y230778D01*
X229175Y230542D01*
X229490Y230349D01*
X229800Y230196D01*
X229800Y236634D01*
X231140Y236634D01*
X231140Y228462D01*
G37*
G36*
X194876Y438150D02*
X193203Y438150D01*
X193203Y450491D01*
X199010Y450491D01*
X199516Y450476D01*
X199992Y450432D01*
X200439Y450360D01*
X200857Y450258D01*
X201244Y450126D01*
X201602Y449966D01*
X201930Y449777D01*
X202228Y449558D01*
X202494Y449313D01*
X202725Y449046D01*
X202920Y448756D01*
X203079Y448442D01*
X203203Y448106D01*
X203292Y447747D01*
X203345Y447366D01*
X203363Y446961D01*
X203350Y446624D01*
X203313Y446301D01*
X203250Y445991D01*
X203162Y445695D01*
X203050Y445413D01*
X202912Y445145D01*
X202749Y444890D01*
X202561Y444649D01*
X202351Y444425D01*
X202122Y444224D01*
X201875Y444043D01*
X201764Y443977D01*
X201608Y443885D01*
X201322Y443748D01*
X201017Y443632D01*
X200693Y443539D01*
X200350Y443466D01*
X201841Y441203D01*
X203853Y438150D01*
X201926Y438150D01*
X198721Y443274D01*
X194876Y443274D01*
X194876Y438150D01*
G37*
%LPC*%
G36*
X198913Y444596D02*
X199235Y444606D01*
X199537Y444635D01*
X199821Y444683D01*
X200086Y444751D01*
X200332Y444837D01*
X200560Y444944D01*
X200768Y445069D01*
X200958Y445214D01*
X201128Y445376D01*
X201275Y445553D01*
X201399Y445746D01*
X201500Y445955D01*
X201579Y446179D01*
X201636Y446418D01*
X201670Y446673D01*
X201681Y446944D01*
X201670Y447205D01*
X201635Y447450D01*
X201578Y447680D01*
X201498Y447893D01*
X201395Y448090D01*
X201270Y448271D01*
X201121Y448437D01*
X200950Y448586D01*
X200757Y448718D01*
X200544Y448833D01*
X200311Y448930D01*
X200057Y449010D01*
X199784Y449071D01*
X199490Y449115D01*
X199177Y449142D01*
X198843Y449151D01*
X194876Y449151D01*
X194876Y444596D01*
X198913Y444596D01*
G37*
%LPD*%
G36*
X209701Y437975D02*
X209244Y437988D01*
X208811Y438028D01*
X208402Y438094D01*
X208016Y438186D01*
X207654Y438305D01*
X207316Y438450D01*
X207001Y438622D01*
X206710Y438820D01*
X206445Y439044D01*
X206208Y439293D01*
X206000Y439568D01*
X205820Y439868D01*
X205668Y440193D01*
X205545Y440544D01*
X205450Y440919D01*
X205383Y441321D01*
X207012Y441469D01*
X207060Y441204D01*
X207123Y440956D01*
X207203Y440725D01*
X207299Y440512D01*
X207410Y440315D01*
X207538Y440135D01*
X207682Y439973D01*
X207842Y439827D01*
X208018Y439699D01*
X208210Y439588D01*
X208419Y439494D01*
X208643Y439417D01*
X208883Y439357D01*
X209140Y439314D01*
X209412Y439288D01*
X209701Y439280D01*
X209991Y439289D01*
X210265Y439317D01*
X210522Y439362D01*
X210764Y439427D01*
X210990Y439509D01*
X211200Y439610D01*
X211393Y439729D01*
X211571Y439867D01*
X211730Y440022D01*
X211868Y440196D01*
X211985Y440387D01*
X212080Y440596D01*
X212154Y440823D01*
X212207Y441067D01*
X212239Y441329D01*
X212250Y441610D01*
X212238Y441855D01*
X212201Y442086D01*
X212141Y442303D01*
X212056Y442506D01*
X211947Y442696D01*
X211814Y442872D01*
X211656Y443034D01*
X211475Y443182D01*
X211270Y443314D01*
X211044Y443429D01*
X210797Y443526D01*
X210528Y443605D01*
X210237Y443667D01*
X209925Y443711D01*
X209592Y443738D01*
X209237Y443747D01*
X208344Y443747D01*
X208344Y445113D01*
X209202Y445113D01*
X209517Y445122D01*
X209814Y445148D01*
X210092Y445192D01*
X210353Y445254D01*
X210595Y445334D01*
X210819Y445431D01*
X211024Y445546D01*
X211212Y445678D01*
X211379Y445826D01*
X211524Y445988D01*
X211647Y446163D01*
X211747Y446351D01*
X211825Y446553D01*
X211881Y446769D01*
X211915Y446999D01*
X211926Y447241D01*
X211917Y447482D01*
X211889Y447710D01*
X211844Y447925D01*
X211780Y448127D01*
X211698Y448316D01*
X211598Y448492D01*
X211480Y448655D01*
X211343Y448805D01*
X211189Y448939D01*
X211017Y449056D01*
X210827Y449154D01*
X210620Y449235D01*
X210395Y449298D01*
X210152Y449343D01*
X209892Y449369D01*
X209614Y449378D01*
X209359Y449370D01*
X209117Y449345D01*
X208888Y449303D01*
X208671Y449245D01*
X208466Y449170D01*
X208274Y449078D01*
X208095Y448969D01*
X207928Y448844D01*
X207775Y448704D01*
X207639Y448550D01*
X207520Y448382D01*
X207418Y448200D01*
X207333Y448005D01*
X207265Y447796D01*
X207213Y447574D01*
X207179Y447338D01*
X205593Y447460D01*
X205651Y447829D01*
X205738Y448176D01*
X205852Y448503D01*
X205995Y448809D01*
X206166Y449094D01*
X206366Y449359D01*
X206594Y449602D01*
X206850Y449825D01*
X207130Y450024D01*
X207430Y450197D01*
X207748Y450343D01*
X208086Y450462D01*
X208444Y450555D01*
X208820Y450622D01*
X209216Y450661D01*
X209631Y450675D01*
X210082Y450661D01*
X210508Y450621D01*
X210907Y450553D01*
X211281Y450459D01*
X211629Y450338D01*
X211951Y450189D01*
X212247Y450014D01*
X212517Y449812D01*
X212758Y449586D01*
X212967Y449338D01*
X213144Y449070D01*
X213289Y448780D01*
X213401Y448468D01*
X213482Y448136D01*
X213530Y447783D01*
X213546Y447408D01*
X213536Y447119D01*
X213505Y446844D01*
X213453Y446583D01*
X213381Y446336D01*
X213288Y446103D01*
X213174Y445883D01*
X213040Y445677D01*
X212885Y445485D01*
X212710Y445308D01*
X212517Y445145D01*
X212305Y444997D01*
X212074Y444865D01*
X211824Y444747D01*
X211555Y444644D01*
X211268Y444556D01*
X210962Y444482D01*
X210962Y444447D01*
X211299Y444400D01*
X211616Y444334D01*
X211914Y444247D01*
X212193Y444141D01*
X212453Y444015D01*
X212693Y443869D01*
X212915Y443704D01*
X213117Y443519D01*
X213298Y443318D01*
X213454Y443104D01*
X213587Y442878D01*
X213695Y442639D01*
X213779Y442387D01*
X213840Y442123D01*
X213876Y441846D01*
X213888Y441557D01*
X213871Y441142D01*
X213820Y440751D01*
X213735Y440385D01*
X213616Y440042D01*
X213463Y439723D01*
X213277Y439429D01*
X213056Y439158D01*
X212802Y438912D01*
X212516Y438692D01*
X212201Y438502D01*
X211857Y438341D01*
X211483Y438209D01*
X211081Y438107D01*
X210650Y438033D01*
X210190Y437990D01*
X209701Y437975D01*
G37*
G36*
X80576Y438150D02*
X78903Y438150D01*
X78903Y450491D01*
X84710Y450491D01*
X85216Y450476D01*
X85692Y450432D01*
X86139Y450360D01*
X86557Y450258D01*
X86944Y450126D01*
X87302Y449966D01*
X87630Y449777D01*
X87928Y449558D01*
X88194Y449313D01*
X88425Y449046D01*
X88620Y448756D01*
X88779Y448442D01*
X88903Y448106D01*
X88992Y447747D01*
X89045Y447366D01*
X89063Y446961D01*
X89050Y446624D01*
X89013Y446301D01*
X88950Y445991D01*
X88862Y445695D01*
X88750Y445413D01*
X88612Y445145D01*
X88449Y444890D01*
X88261Y444649D01*
X88051Y444425D01*
X87822Y444224D01*
X87575Y444043D01*
X87464Y443977D01*
X87308Y443885D01*
X87022Y443748D01*
X86717Y443632D01*
X86393Y443539D01*
X86050Y443466D01*
X87541Y441203D01*
X89553Y438150D01*
X87626Y438150D01*
X84421Y443274D01*
X80576Y443274D01*
X80576Y438150D01*
G37*
%LPC*%
G36*
X84613Y444596D02*
X84935Y444606D01*
X85237Y444635D01*
X85521Y444683D01*
X85786Y444751D01*
X86032Y444837D01*
X86260Y444944D01*
X86468Y445069D01*
X86658Y445214D01*
X86828Y445376D01*
X86975Y445553D01*
X87099Y445746D01*
X87200Y445955D01*
X87279Y446179D01*
X87336Y446418D01*
X87370Y446673D01*
X87381Y446944D01*
X87370Y447205D01*
X87335Y447450D01*
X87278Y447680D01*
X87198Y447893D01*
X87095Y448090D01*
X86970Y448271D01*
X86821Y448437D01*
X86650Y448586D01*
X86457Y448718D01*
X86244Y448833D01*
X86011Y448930D01*
X85757Y449010D01*
X85484Y449071D01*
X85190Y449115D01*
X84877Y449142D01*
X84543Y449151D01*
X80576Y449151D01*
X80576Y444596D01*
X84613Y444596D01*
G37*
%LPD*%
G36*
X98116Y438150D02*
X96627Y438150D01*
X96627Y440944D01*
X90812Y440944D01*
X90812Y442170D01*
X96461Y450491D01*
X98116Y450491D01*
X98116Y442188D01*
X99850Y442188D01*
X99850Y440944D01*
X98116Y440944D01*
X98116Y438150D01*
G37*
%LPC*%
G36*
X96627Y442188D02*
X96627Y448713D01*
X96382Y448249D01*
X96041Y447671D01*
X92879Y443011D01*
X92406Y442363D01*
X92266Y442188D01*
X96627Y442188D01*
G37*
%LPD*%
G36*
X95392Y209375D02*
X94911Y209390D01*
X94457Y209433D01*
X94029Y209507D01*
X93629Y209609D01*
X93255Y209741D01*
X92909Y209902D01*
X92589Y210092D01*
X92296Y210312D01*
X92034Y210559D01*
X91808Y210830D01*
X91616Y211126D01*
X91459Y211446D01*
X91337Y211791D01*
X91249Y212161D01*
X91197Y212556D01*
X91180Y212975D01*
X91190Y213271D01*
X91223Y213555D01*
X91277Y213827D01*
X91352Y214087D01*
X91450Y214335D01*
X91569Y214571D01*
X91709Y214795D01*
X91871Y215007D01*
X92050Y215202D01*
X92241Y215378D01*
X92445Y215533D01*
X92660Y215668D01*
X92887Y215783D01*
X93126Y215877D01*
X93377Y215951D01*
X93641Y216005D01*
X93641Y216040D01*
X93395Y216108D01*
X93164Y216193D01*
X92945Y216295D01*
X92740Y216415D01*
X92548Y216551D01*
X92369Y216705D01*
X92203Y216876D01*
X92051Y217065D01*
X91914Y217266D01*
X91796Y217476D01*
X91696Y217694D01*
X91614Y217921D01*
X91550Y218156D01*
X91505Y218400D01*
X91478Y218652D01*
X91469Y218913D01*
X91485Y219257D01*
X91535Y219585D01*
X91617Y219895D01*
X91732Y220189D01*
X91881Y220467D01*
X92062Y220728D01*
X92277Y220972D01*
X92524Y221199D01*
X92799Y221404D01*
X93097Y221582D01*
X93417Y221733D01*
X93760Y221856D01*
X94125Y221952D01*
X94514Y222020D01*
X94924Y222061D01*
X95357Y222075D01*
X95801Y222061D01*
X96220Y222021D01*
X96616Y221954D01*
X96988Y221860D01*
X97335Y221739D01*
X97659Y221592D01*
X97959Y221418D01*
X98235Y221216D01*
X98482Y220992D01*
X98696Y220749D01*
X98878Y220488D01*
X99026Y220207D01*
X99142Y219907D01*
X99224Y219589D01*
X99273Y219252D01*
X99290Y218895D01*
X99281Y218635D01*
X99253Y218382D01*
X99207Y218139D01*
X99143Y217903D01*
X99061Y217677D01*
X98960Y217458D01*
X98841Y217249D01*
X98703Y217047D01*
X98550Y216859D01*
X98383Y216690D01*
X98365Y216675D01*
X98203Y216539D01*
X98009Y216406D01*
X97802Y216291D01*
X97581Y216195D01*
X97348Y216117D01*
X97100Y216058D01*
X97100Y216023D01*
X97388Y215965D01*
X97659Y215888D01*
X97913Y215791D01*
X98151Y215676D01*
X98373Y215541D01*
X98578Y215386D01*
X98767Y215213D01*
X98906Y215057D01*
X98940Y215020D01*
X99094Y214811D01*
X99227Y214589D01*
X99340Y214355D01*
X99432Y214108D01*
X99504Y213848D01*
X99555Y213575D01*
X99586Y213290D01*
X99596Y212992D01*
X99580Y212577D01*
X99529Y212185D01*
X99444Y211817D01*
X99325Y211473D01*
X99172Y211151D01*
X98986Y210854D01*
X98765Y210580D01*
X98510Y210330D01*
X98224Y210106D01*
X97908Y209912D01*
X97563Y209748D01*
X97188Y209613D01*
X96783Y209509D01*
X96349Y209435D01*
X95886Y209390D01*
X95392Y209375D01*
G37*
%LPC*%
G36*
X95410Y210557D02*
X95722Y210567D01*
X96013Y210596D01*
X96283Y210644D01*
X96533Y210712D01*
X96763Y210798D01*
X96972Y210905D01*
X97160Y211030D01*
X97328Y211175D01*
X97476Y211341D01*
X97604Y211529D01*
X97712Y211741D01*
X97801Y211975D01*
X97870Y212232D01*
X97919Y212512D01*
X97949Y212815D01*
X97959Y213141D01*
X97948Y213419D01*
X97916Y213679D01*
X97863Y213922D01*
X97788Y214147D01*
X97692Y214355D01*
X97574Y214544D01*
X97436Y214716D01*
X97275Y214871D01*
X97096Y215007D01*
X96899Y215126D01*
X96685Y215226D01*
X96454Y215308D01*
X96206Y215371D01*
X95940Y215417D01*
X95657Y215444D01*
X95357Y215453D01*
X95066Y215443D01*
X94790Y215414D01*
X94531Y215365D01*
X94289Y215297D01*
X94063Y215209D01*
X93853Y215101D01*
X93660Y214974D01*
X93483Y214827D01*
X93325Y214663D01*
X93188Y214485D01*
X93072Y214291D01*
X92977Y214084D01*
X92903Y213861D01*
X92851Y213624D01*
X92819Y213372D01*
X92809Y213106D01*
X92819Y212797D01*
X92849Y212509D01*
X92900Y212240D01*
X92971Y211991D01*
X93063Y211762D01*
X93174Y211553D01*
X93307Y211364D01*
X93459Y211194D01*
X93632Y211045D01*
X93825Y210916D01*
X94038Y210806D01*
X94272Y210717D01*
X94526Y210647D01*
X94800Y210597D01*
X95095Y210567D01*
X95410Y210557D01*
G37*
G36*
X95375Y216636D02*
X95645Y216644D01*
X95898Y216668D01*
X96135Y216708D01*
X96355Y216764D01*
X96558Y216836D01*
X96745Y216924D01*
X96916Y217028D01*
X97070Y217148D01*
X97206Y217286D01*
X97324Y217444D01*
X97425Y217622D01*
X97506Y217819D01*
X97570Y218037D01*
X97616Y218274D01*
X97643Y218531D01*
X97652Y218808D01*
X97643Y219061D01*
X97616Y219298D01*
X97571Y219519D01*
X97509Y219724D01*
X97428Y219912D01*
X97329Y220083D01*
X97213Y220239D01*
X97078Y220378D01*
X96926Y220500D01*
X96756Y220607D01*
X96567Y220697D01*
X96361Y220770D01*
X96137Y220827D01*
X95895Y220868D01*
X95635Y220893D01*
X95357Y220901D01*
X95088Y220893D01*
X94834Y220868D01*
X94598Y220827D01*
X94377Y220770D01*
X94174Y220696D01*
X93987Y220605D01*
X93816Y220499D01*
X93663Y220376D01*
X93526Y220236D01*
X93408Y220081D01*
X93308Y219909D01*
X93226Y219721D01*
X93162Y219517D01*
X93117Y219297D01*
X93089Y219060D01*
X93080Y218808D01*
X93089Y218551D01*
X93118Y218309D01*
X93164Y218084D01*
X93230Y217874D01*
X93314Y217680D01*
X93418Y217501D01*
X93539Y217339D01*
X93680Y217192D01*
X93838Y217061D01*
X94011Y216949D01*
X94200Y216853D01*
X94404Y216775D01*
X94623Y216714D01*
X94858Y216670D01*
X95109Y216644D01*
X95375Y216636D01*
G37*
%LPD*%
G36*
X80576Y209550D02*
X78903Y209550D01*
X78903Y221891D01*
X84710Y221891D01*
X85216Y221876D01*
X85692Y221832D01*
X86139Y221760D01*
X86557Y221658D01*
X86944Y221526D01*
X87302Y221366D01*
X87630Y221177D01*
X87928Y220958D01*
X88194Y220713D01*
X88425Y220446D01*
X88620Y220156D01*
X88779Y219842D01*
X88903Y219506D01*
X88992Y219147D01*
X89045Y218766D01*
X89063Y218361D01*
X89050Y218024D01*
X89013Y217701D01*
X88950Y217391D01*
X88862Y217095D01*
X88750Y216813D01*
X88612Y216545D01*
X88449Y216290D01*
X88261Y216049D01*
X88051Y215825D01*
X87822Y215624D01*
X87575Y215443D01*
X87464Y215377D01*
X87308Y215285D01*
X87022Y215148D01*
X86717Y215032D01*
X86393Y214939D01*
X86050Y214866D01*
X87541Y212603D01*
X89553Y209550D01*
X87626Y209550D01*
X84421Y214674D01*
X80576Y214674D01*
X80576Y209550D01*
G37*
%LPC*%
G36*
X84613Y215996D02*
X84935Y216006D01*
X85237Y216035D01*
X85521Y216083D01*
X85786Y216151D01*
X86032Y216237D01*
X86260Y216344D01*
X86468Y216469D01*
X86658Y216614D01*
X86828Y216776D01*
X86975Y216953D01*
X87099Y217146D01*
X87200Y217355D01*
X87279Y217579D01*
X87336Y217818D01*
X87370Y218073D01*
X87381Y218344D01*
X87370Y218605D01*
X87335Y218850D01*
X87278Y219080D01*
X87198Y219293D01*
X87095Y219490D01*
X86970Y219671D01*
X86821Y219837D01*
X86650Y219986D01*
X86457Y220118D01*
X86244Y220233D01*
X86011Y220330D01*
X85757Y220410D01*
X85484Y220471D01*
X85190Y220515D01*
X84877Y220542D01*
X84543Y220551D01*
X80576Y220551D01*
X80576Y215996D01*
X84613Y215996D01*
G37*
%LPD*%
G36*
X80576Y259080D02*
X78903Y259080D01*
X78903Y271421D01*
X84710Y271421D01*
X85216Y271406D01*
X85692Y271362D01*
X86139Y271290D01*
X86557Y271188D01*
X86944Y271056D01*
X87302Y270896D01*
X87630Y270707D01*
X87928Y270488D01*
X88194Y270243D01*
X88425Y269976D01*
X88620Y269686D01*
X88779Y269372D01*
X88903Y269036D01*
X88992Y268677D01*
X89045Y268296D01*
X89063Y267891D01*
X89050Y267554D01*
X89013Y267231D01*
X88950Y266921D01*
X88862Y266625D01*
X88750Y266343D01*
X88612Y266075D01*
X88449Y265820D01*
X88261Y265579D01*
X88051Y265355D01*
X87822Y265154D01*
X87575Y264973D01*
X87464Y264907D01*
X87308Y264815D01*
X87022Y264678D01*
X86717Y264562D01*
X86393Y264469D01*
X86050Y264396D01*
X87541Y262133D01*
X89553Y259080D01*
X87626Y259080D01*
X84421Y264204D01*
X80576Y264204D01*
X80576Y259080D01*
G37*
%LPC*%
G36*
X84613Y265526D02*
X84935Y265536D01*
X85237Y265565D01*
X85521Y265613D01*
X85786Y265681D01*
X86032Y265767D01*
X86260Y265874D01*
X86468Y265999D01*
X86658Y266144D01*
X86828Y266306D01*
X86975Y266483D01*
X87099Y266676D01*
X87200Y266885D01*
X87279Y267109D01*
X87336Y267348D01*
X87370Y267603D01*
X87381Y267874D01*
X87370Y268135D01*
X87335Y268380D01*
X87278Y268610D01*
X87198Y268823D01*
X87095Y269020D01*
X86970Y269201D01*
X86821Y269367D01*
X86650Y269516D01*
X86457Y269648D01*
X86244Y269763D01*
X86011Y269860D01*
X85757Y269940D01*
X85484Y270001D01*
X85190Y270045D01*
X84877Y270072D01*
X84543Y270081D01*
X80576Y270081D01*
X80576Y265526D01*
X84613Y265526D01*
G37*
%LPD*%
G36*
X95060Y258905D02*
X94707Y258914D01*
X94373Y258943D01*
X94056Y258990D01*
X93758Y259057D01*
X93477Y259143D01*
X93215Y259247D01*
X92970Y259371D01*
X92743Y259514D01*
X92533Y259677D01*
X92338Y259865D01*
X92159Y260075D01*
X91995Y260309D01*
X91847Y260567D01*
X91714Y260848D01*
X91597Y261152D01*
X91495Y261480D01*
X93001Y261716D01*
X93137Y261355D01*
X93309Y261042D01*
X93516Y260777D01*
X93759Y260560D01*
X94037Y260392D01*
X94351Y260271D01*
X94701Y260199D01*
X94889Y260181D01*
X95086Y260175D01*
X95416Y260195D01*
X95726Y260254D01*
X96018Y260352D01*
X96290Y260490D01*
X96543Y260667D01*
X96777Y260884D01*
X96992Y261140D01*
X97188Y261436D01*
X97363Y261768D01*
X97516Y262134D01*
X97646Y262533D01*
X97755Y262967D01*
X97841Y263433D01*
X97906Y263934D01*
X97948Y264468D01*
X97967Y265036D01*
X97872Y264844D01*
X97761Y264661D01*
X97634Y264488D01*
X97492Y264325D01*
X97334Y264172D01*
X97161Y264028D01*
X96972Y263894D01*
X96767Y263770D01*
X96552Y263658D01*
X96332Y263561D01*
X96107Y263479D01*
X95876Y263412D01*
X95640Y263360D01*
X95399Y263323D01*
X95153Y263300D01*
X94902Y263293D01*
X94496Y263311D01*
X94111Y263364D01*
X93747Y263453D01*
X93404Y263578D01*
X93082Y263738D01*
X92780Y263933D01*
X92499Y264165D01*
X92239Y264431D01*
X92005Y264728D01*
X91802Y265047D01*
X91631Y265390D01*
X91490Y265756D01*
X91381Y266146D01*
X91303Y266558D01*
X91256Y266994D01*
X91241Y267453D01*
X91258Y267924D01*
X91309Y268369D01*
X91394Y268789D01*
X91512Y269182D01*
X91665Y269549D01*
X91852Y269891D01*
X92072Y270207D01*
X92327Y270497D01*
X92612Y270756D01*
X92923Y270981D01*
X93261Y271172D01*
X93625Y271328D01*
X94016Y271449D01*
X94434Y271535D01*
X94878Y271587D01*
X95349Y271605D01*
X95602Y271599D01*
X95848Y271581D01*
X96315Y271509D01*
X96752Y271390D01*
X97157Y271224D01*
X97531Y271009D01*
X97874Y270747D01*
X98186Y270438D01*
X98467Y270081D01*
X98715Y269676D01*
X98930Y269223D01*
X99112Y268722D01*
X99261Y268174D01*
X99377Y267577D01*
X99460Y266933D01*
X99510Y266240D01*
X99526Y265500D01*
X99508Y264728D01*
X99454Y264002D01*
X99363Y263322D01*
X99236Y262689D01*
X99073Y262101D01*
X98874Y261559D01*
X98638Y261063D01*
X98366Y260613D01*
X98060Y260212D01*
X97724Y259866D01*
X97357Y259572D01*
X96959Y259332D01*
X96530Y259145D01*
X96304Y259072D01*
X96071Y259012D01*
X95830Y258965D01*
X95581Y258932D01*
X95324Y258912D01*
X95060Y258905D01*
G37*
%LPC*%
G36*
X95279Y264537D02*
X95614Y264556D01*
X95938Y264614D01*
X96249Y264711D01*
X96548Y264848D01*
X96826Y265019D01*
X97073Y265223D01*
X97288Y265459D01*
X97473Y265728D01*
X97620Y266022D01*
X97725Y266336D01*
X97789Y266670D01*
X97810Y267024D01*
X97799Y267387D01*
X97767Y267732D01*
X97714Y268059D01*
X97639Y268367D01*
X97543Y268658D01*
X97425Y268930D01*
X97287Y269184D01*
X97127Y269419D01*
X96949Y269632D01*
X96756Y269816D01*
X96549Y269972D01*
X96327Y270099D01*
X96091Y270198D01*
X95841Y270269D01*
X95576Y270312D01*
X95296Y270326D01*
X95019Y270314D01*
X94757Y270278D01*
X94510Y270217D01*
X94278Y270132D01*
X94061Y270023D01*
X93859Y269890D01*
X93672Y269733D01*
X93501Y269551D01*
X93347Y269349D01*
X93213Y269129D01*
X93100Y268893D01*
X93008Y268639D01*
X92936Y268368D01*
X92885Y268080D01*
X92854Y267775D01*
X92844Y267453D01*
X92854Y267125D01*
X92885Y266814D01*
X92936Y266521D01*
X93008Y266246D01*
X93100Y265988D01*
X93213Y265748D01*
X93347Y265525D01*
X93501Y265320D01*
X93672Y265137D01*
X93858Y264978D01*
X94058Y264843D01*
X94273Y264733D01*
X94503Y264647D01*
X94747Y264586D01*
X95005Y264549D01*
X95279Y264537D01*
G37*
%LPD*%
G36*
X164954Y432830D02*
X162742Y432830D01*
X162742Y438742D01*
X164698Y438742D01*
X165063Y438731D01*
X165406Y438695D01*
X165728Y438636D01*
X166029Y438554D01*
X166308Y438448D01*
X166565Y438319D01*
X166801Y438166D01*
X167016Y437989D01*
X167208Y437791D01*
X167373Y437573D01*
X167514Y437335D01*
X167628Y437077D01*
X167718Y436799D01*
X167781Y436502D01*
X167820Y436184D01*
X167832Y435847D01*
X167810Y435404D01*
X167743Y434989D01*
X167632Y434604D01*
X167476Y434246D01*
X167279Y433923D01*
X167045Y433640D01*
X166773Y433398D01*
X166464Y433195D01*
X166125Y433035D01*
X165760Y432921D01*
X165369Y432853D01*
X164954Y432830D01*
G37*
%LPC*%
G36*
X164862Y433472D02*
X165177Y433490D01*
X165473Y433543D01*
X165749Y433633D01*
X166005Y433757D01*
X166237Y433916D01*
X166441Y434106D01*
X166616Y434327D01*
X166762Y434580D01*
X166878Y434860D01*
X166961Y435165D01*
X167010Y435494D01*
X167027Y435847D01*
X167017Y436114D01*
X166989Y436364D01*
X166942Y436598D01*
X166876Y436816D01*
X166792Y437017D01*
X166688Y437202D01*
X166566Y437371D01*
X166425Y437523D01*
X166266Y437659D01*
X166090Y437776D01*
X165897Y437875D01*
X165688Y437956D01*
X165461Y438019D01*
X165218Y438064D01*
X164958Y438091D01*
X164681Y438100D01*
X163544Y438100D01*
X163544Y433472D01*
X164862Y433472D01*
G37*
%LPD*%
G36*
X186454Y432830D02*
X184242Y432830D01*
X184242Y438742D01*
X186198Y438742D01*
X186563Y438731D01*
X186906Y438695D01*
X187228Y438636D01*
X187529Y438554D01*
X187808Y438448D01*
X188065Y438319D01*
X188301Y438166D01*
X188516Y437989D01*
X188708Y437791D01*
X188873Y437573D01*
X189014Y437335D01*
X189128Y437077D01*
X189218Y436799D01*
X189281Y436502D01*
X189320Y436184D01*
X189332Y435847D01*
X189310Y435404D01*
X189243Y434989D01*
X189132Y434604D01*
X188976Y434246D01*
X188779Y433923D01*
X188545Y433640D01*
X188273Y433398D01*
X187964Y433195D01*
X187625Y433035D01*
X187260Y432921D01*
X186869Y432853D01*
X186454Y432830D01*
G37*
%LPC*%
G36*
X186362Y433472D02*
X186677Y433490D01*
X186973Y433543D01*
X187249Y433633D01*
X187505Y433757D01*
X187737Y433916D01*
X187941Y434106D01*
X188116Y434327D01*
X188262Y434580D01*
X188378Y434860D01*
X188461Y435165D01*
X188510Y435494D01*
X188527Y435847D01*
X188517Y436114D01*
X188489Y436364D01*
X188442Y436598D01*
X188376Y436816D01*
X188292Y437017D01*
X188188Y437202D01*
X188066Y437371D01*
X187925Y437523D01*
X187766Y437659D01*
X187590Y437776D01*
X187397Y437875D01*
X187188Y437956D01*
X186961Y438019D01*
X186718Y438064D01*
X186458Y438091D01*
X186181Y438100D01*
X185044Y438100D01*
X185044Y433472D01*
X186362Y433472D01*
G37*
%LPD*%
G36*
X151606Y432830D02*
X150805Y432830D01*
X150805Y438742D01*
X153587Y438742D01*
X153830Y438735D01*
X154058Y438714D01*
X154272Y438680D01*
X154472Y438631D01*
X154658Y438568D01*
X154829Y438491D01*
X154986Y438400D01*
X155129Y438296D01*
X155256Y438178D01*
X155367Y438050D01*
X155460Y437911D01*
X155537Y437761D01*
X155596Y437600D01*
X155639Y437428D01*
X155664Y437245D01*
X155673Y437051D01*
X155649Y436735D01*
X155577Y436445D01*
X155457Y436181D01*
X155289Y435944D01*
X155078Y435740D01*
X154906Y435627D01*
X154832Y435577D01*
X154549Y435457D01*
X154229Y435377D01*
X154944Y434293D01*
X155907Y432830D01*
X154984Y432830D01*
X153449Y435285D01*
X151606Y435285D01*
X151606Y432830D01*
G37*
%LPC*%
G36*
X153541Y435918D02*
X153840Y435937D01*
X154103Y435992D01*
X154330Y436085D01*
X154521Y436214D01*
X154672Y436377D01*
X154780Y436569D01*
X154845Y436791D01*
X154867Y437043D01*
X154845Y437286D01*
X154779Y437498D01*
X154670Y437679D01*
X154516Y437830D01*
X154322Y437948D01*
X154089Y438033D01*
X153817Y438083D01*
X153507Y438100D01*
X151606Y438100D01*
X151606Y435918D01*
X153541Y435918D01*
G37*
%LPD*%
G36*
X161681Y432830D02*
X157024Y432830D01*
X157024Y438742D01*
X161509Y438742D01*
X161509Y438088D01*
X157825Y438088D01*
X157825Y436191D01*
X161258Y436191D01*
X161258Y435545D01*
X157825Y435545D01*
X157825Y433485D01*
X161681Y433485D01*
X161681Y432830D01*
G37*
G36*
X183181Y432830D02*
X178524Y432830D01*
X178524Y438742D01*
X183009Y438742D01*
X183009Y438088D01*
X179325Y438088D01*
X179325Y436191D01*
X182758Y436191D01*
X182758Y435545D01*
X179325Y435545D01*
X179325Y433485D01*
X183181Y433485D01*
X183181Y432830D01*
G37*
G36*
X177532Y432830D02*
X173742Y432830D01*
X173742Y438742D01*
X174544Y438742D01*
X174544Y433485D01*
X177532Y433485D01*
X177532Y432830D01*
G37*
G36*
X173132Y431122D02*
X168126Y431122D01*
X168126Y431668D01*
X173132Y431668D01*
X173132Y431122D01*
G37*
G36*
X267824Y459500D02*
X265612Y459500D01*
X265612Y465412D01*
X267568Y465412D01*
X267933Y465401D01*
X268276Y465365D01*
X268598Y465306D01*
X268899Y465224D01*
X269178Y465118D01*
X269435Y464989D01*
X269671Y464836D01*
X269886Y464659D01*
X270078Y464461D01*
X270243Y464243D01*
X270384Y464005D01*
X270498Y463747D01*
X270588Y463469D01*
X270651Y463172D01*
X270690Y462854D01*
X270702Y462517D01*
X270680Y462074D01*
X270613Y461659D01*
X270502Y461274D01*
X270346Y460916D01*
X270149Y460593D01*
X269915Y460310D01*
X269643Y460068D01*
X269334Y459865D01*
X268995Y459705D01*
X268630Y459591D01*
X268239Y459523D01*
X267824Y459500D01*
G37*
%LPC*%
G36*
X267732Y460142D02*
X268047Y460160D01*
X268343Y460213D01*
X268619Y460303D01*
X268875Y460427D01*
X269107Y460586D01*
X269311Y460776D01*
X269486Y460997D01*
X269632Y461250D01*
X269748Y461530D01*
X269831Y461835D01*
X269880Y462164D01*
X269897Y462517D01*
X269887Y462784D01*
X269859Y463034D01*
X269812Y463268D01*
X269746Y463486D01*
X269662Y463687D01*
X269558Y463872D01*
X269436Y464041D01*
X269295Y464193D01*
X269136Y464329D01*
X268960Y464446D01*
X268767Y464545D01*
X268558Y464626D01*
X268331Y464689D01*
X268088Y464734D01*
X267828Y464761D01*
X267551Y464770D01*
X266414Y464770D01*
X266414Y460142D01*
X267732Y460142D01*
G37*
%LPD*%
G36*
X284543Y459500D02*
X282331Y459500D01*
X282331Y465412D01*
X284287Y465412D01*
X284651Y465401D01*
X284995Y465365D01*
X285317Y465306D01*
X285617Y465224D01*
X285896Y465118D01*
X286154Y464989D01*
X286390Y464836D01*
X286605Y464659D01*
X286796Y464461D01*
X286962Y464243D01*
X287102Y464005D01*
X287217Y463747D01*
X287306Y463469D01*
X287370Y463172D01*
X287408Y462854D01*
X287421Y462517D01*
X287399Y462074D01*
X287332Y461659D01*
X287221Y461274D01*
X287064Y460916D01*
X286868Y460593D01*
X286633Y460310D01*
X286362Y460068D01*
X286053Y459865D01*
X285713Y459705D01*
X285348Y459591D01*
X284958Y459523D01*
X284543Y459500D01*
G37*
%LPC*%
G36*
X284450Y460142D02*
X284766Y460160D01*
X285061Y460213D01*
X285337Y460303D01*
X285594Y460427D01*
X285826Y460586D01*
X286030Y460776D01*
X286205Y460997D01*
X286351Y461250D01*
X286467Y461530D01*
X286549Y461835D01*
X286599Y462164D01*
X286615Y462517D01*
X286606Y462784D01*
X286578Y463034D01*
X286531Y463268D01*
X286465Y463486D01*
X286380Y463687D01*
X286277Y463872D01*
X286154Y464041D01*
X286013Y464193D01*
X285854Y464329D01*
X285679Y464446D01*
X285486Y464545D01*
X285276Y464626D01*
X285050Y464689D01*
X284807Y464734D01*
X284547Y464761D01*
X284270Y464770D01*
X283133Y464770D01*
X283133Y460142D01*
X284450Y460142D01*
G37*
%LPD*%
G36*
X254476Y459500D02*
X253675Y459500D01*
X253675Y465412D01*
X256457Y465412D01*
X256700Y465405D01*
X256928Y465384D01*
X257142Y465350D01*
X257342Y465301D01*
X257528Y465238D01*
X257699Y465161D01*
X257856Y465070D01*
X257999Y464966D01*
X258126Y464848D01*
X258237Y464720D01*
X258330Y464581D01*
X258407Y464431D01*
X258466Y464270D01*
X258509Y464098D01*
X258534Y463915D01*
X258543Y463721D01*
X258519Y463405D01*
X258447Y463115D01*
X258327Y462851D01*
X258159Y462614D01*
X257948Y462410D01*
X257776Y462297D01*
X257702Y462247D01*
X257419Y462127D01*
X257099Y462047D01*
X257814Y460963D01*
X258777Y459500D01*
X257854Y459500D01*
X256319Y461955D01*
X254476Y461955D01*
X254476Y459500D01*
G37*
%LPC*%
G36*
X256411Y462588D02*
X256710Y462607D01*
X256973Y462662D01*
X257200Y462755D01*
X257391Y462884D01*
X257542Y463047D01*
X257650Y463239D01*
X257715Y463461D01*
X257737Y463713D01*
X257715Y463956D01*
X257649Y464168D01*
X257540Y464349D01*
X257386Y464500D01*
X257192Y464618D01*
X256959Y464703D01*
X256687Y464753D01*
X256377Y464770D01*
X254476Y464770D01*
X254476Y462588D01*
X256411Y462588D01*
G37*
%LPD*%
G36*
X277414Y459500D02*
X276612Y459500D01*
X276612Y465412D01*
X279101Y465412D01*
X279342Y465405D01*
X279570Y465383D01*
X279784Y465347D01*
X279983Y465296D01*
X280169Y465230D01*
X280340Y465150D01*
X280497Y465056D01*
X280641Y464947D01*
X280769Y464824D01*
X280879Y464690D01*
X280973Y464544D01*
X281050Y464385D01*
X281110Y464215D01*
X281152Y464033D01*
X281178Y463839D01*
X281186Y463633D01*
X281178Y463429D01*
X281152Y463235D01*
X281109Y463052D01*
X281049Y462880D01*
X280972Y462719D01*
X280878Y462568D01*
X280767Y462428D01*
X280639Y462299D01*
X280496Y462183D01*
X280340Y462082D01*
X280173Y461997D01*
X279993Y461927D01*
X279801Y461873D01*
X279597Y461835D01*
X279380Y461811D01*
X279151Y461804D01*
X277414Y461804D01*
X277414Y459500D01*
G37*
%LPC*%
G36*
X279038Y462437D02*
X279353Y462456D01*
X279625Y462512D01*
X279856Y462604D01*
X280045Y462734D01*
X280192Y462901D01*
X280297Y463105D01*
X280360Y463347D01*
X280381Y463625D01*
X280359Y463893D01*
X280295Y464126D01*
X280187Y464323D01*
X280037Y464484D01*
X279843Y464609D01*
X279606Y464699D01*
X279327Y464752D01*
X279004Y464770D01*
X277414Y464770D01*
X277414Y462437D01*
X279038Y462437D01*
G37*
%LPD*%
G36*
X264551Y459500D02*
X259894Y459500D01*
X259894Y465412D01*
X264379Y465412D01*
X264379Y464758D01*
X260695Y464758D01*
X260695Y462861D01*
X264128Y462861D01*
X264128Y462215D01*
X260695Y462215D01*
X260695Y460155D01*
X264551Y460155D01*
X264551Y459500D01*
G37*
G36*
X276002Y457792D02*
X270996Y457792D01*
X270996Y458338D01*
X276002Y458338D01*
X276002Y457792D01*
G37*
G36*
X25995Y180016D02*
X25732Y180022D01*
X25483Y180040D01*
X25249Y180069D01*
X25028Y180110D01*
X24822Y180163D01*
X24630Y180227D01*
X24452Y180304D01*
X24289Y180392D01*
X24139Y180491D01*
X24004Y180603D01*
X23883Y180726D01*
X23776Y180861D01*
X23683Y181008D01*
X23605Y181166D01*
X23540Y181336D01*
X23490Y181518D01*
X24267Y181674D01*
X24353Y181425D01*
X24476Y181211D01*
X24638Y181034D01*
X24837Y180891D01*
X25075Y180782D01*
X25352Y180704D01*
X25669Y180657D01*
X26025Y180641D01*
X26391Y180658D01*
X26712Y180708D01*
X26990Y180791D01*
X27223Y180908D01*
X27407Y181057D01*
X27539Y181237D01*
X27618Y181448D01*
X27638Y181565D01*
X27644Y181690D01*
X27636Y181828D01*
X27611Y181953D01*
X27570Y182063D01*
X27512Y182160D01*
X27353Y182325D01*
X27141Y182458D01*
X26879Y182566D01*
X26570Y182655D01*
X25836Y182828D01*
X25220Y182983D01*
X24772Y183138D01*
X24447Y183302D01*
X24199Y183484D01*
X24014Y183691D01*
X23878Y183931D01*
X23830Y184064D01*
X23795Y184206D01*
X23774Y184358D01*
X23767Y184519D01*
X23776Y184703D01*
X23804Y184877D01*
X23849Y185039D01*
X23912Y185191D01*
X23994Y185332D01*
X24094Y185462D01*
X24212Y185581D01*
X24348Y185689D01*
X24501Y185786D01*
X24670Y185869D01*
X24855Y185940D01*
X25055Y185998D01*
X25271Y186043D01*
X25502Y186075D01*
X25749Y186094D01*
X26012Y186101D01*
X26486Y186081D01*
X26901Y186023D01*
X27256Y185927D01*
X27552Y185792D01*
X27680Y185708D01*
X27799Y185611D01*
X28005Y185375D01*
X28172Y185085D01*
X28299Y184741D01*
X27510Y184602D01*
X27430Y184821D01*
X27321Y185008D01*
X27183Y185162D01*
X27015Y185284D01*
X26815Y185377D01*
X26580Y185443D01*
X26309Y185483D01*
X26004Y185496D01*
X25670Y185482D01*
X25379Y185438D01*
X25129Y185364D01*
X24921Y185261D01*
X24758Y185129D01*
X24641Y184969D01*
X24571Y184779D01*
X24548Y184561D01*
X24557Y184430D01*
X24584Y184311D01*
X24629Y184205D01*
X24692Y184109D01*
X24869Y183945D01*
X25110Y183807D01*
X25280Y183742D01*
X25518Y183669D01*
X26197Y183503D01*
X26740Y183375D01*
X27005Y183304D01*
X27258Y183220D01*
X27498Y183122D01*
X27722Y183008D01*
X27924Y182873D01*
X28098Y182710D01*
X28240Y182518D01*
X28347Y182295D01*
X28415Y182034D01*
X28438Y181732D01*
X28428Y181534D01*
X28398Y181346D01*
X28348Y181171D01*
X28278Y181006D01*
X28188Y180854D01*
X28078Y180713D01*
X27948Y180583D01*
X27798Y180465D01*
X27629Y180360D01*
X27445Y180269D01*
X27244Y180191D01*
X27027Y180128D01*
X26794Y180079D01*
X26544Y180044D01*
X26278Y180023D01*
X25995Y180016D01*
G37*
G36*
X33179Y180100D02*
X29473Y180100D01*
X29473Y180742D01*
X30980Y180742D01*
X30980Y185291D01*
X29645Y184338D01*
X29645Y185051D01*
X31043Y186012D01*
X31739Y186012D01*
X31739Y180742D01*
X33179Y180742D01*
X33179Y180100D01*
G37*
G36*
X165695Y341306D02*
X165432Y341312D01*
X165183Y341330D01*
X164949Y341359D01*
X164728Y341400D01*
X164522Y341453D01*
X164330Y341517D01*
X164152Y341594D01*
X163989Y341682D01*
X163839Y341781D01*
X163704Y341893D01*
X163583Y342016D01*
X163476Y342151D01*
X163383Y342298D01*
X163305Y342456D01*
X163240Y342626D01*
X163190Y342808D01*
X163967Y342964D01*
X164053Y342715D01*
X164176Y342501D01*
X164338Y342324D01*
X164537Y342181D01*
X164775Y342072D01*
X165052Y341994D01*
X165369Y341947D01*
X165725Y341931D01*
X166091Y341948D01*
X166412Y341998D01*
X166690Y342081D01*
X166923Y342198D01*
X167107Y342347D01*
X167239Y342527D01*
X167318Y342738D01*
X167338Y342855D01*
X167344Y342980D01*
X167336Y343118D01*
X167311Y343243D01*
X167270Y343353D01*
X167212Y343450D01*
X167053Y343615D01*
X166841Y343748D01*
X166579Y343856D01*
X166270Y343945D01*
X165536Y344118D01*
X164920Y344273D01*
X164472Y344428D01*
X164147Y344592D01*
X163899Y344774D01*
X163714Y344981D01*
X163578Y345221D01*
X163530Y345354D01*
X163495Y345496D01*
X163474Y345648D01*
X163467Y345809D01*
X163476Y345993D01*
X163504Y346167D01*
X163549Y346329D01*
X163612Y346481D01*
X163694Y346622D01*
X163794Y346752D01*
X163912Y346871D01*
X164048Y346979D01*
X164201Y347076D01*
X164370Y347159D01*
X164555Y347230D01*
X164755Y347288D01*
X164971Y347333D01*
X165202Y347365D01*
X165449Y347384D01*
X165712Y347391D01*
X166186Y347371D01*
X166601Y347313D01*
X166956Y347217D01*
X167252Y347082D01*
X167380Y346998D01*
X167499Y346901D01*
X167705Y346665D01*
X167872Y346375D01*
X167999Y346031D01*
X167210Y345892D01*
X167130Y346111D01*
X167021Y346298D01*
X166883Y346452D01*
X166715Y346574D01*
X166515Y346667D01*
X166280Y346733D01*
X166009Y346773D01*
X165704Y346786D01*
X165370Y346772D01*
X165079Y346728D01*
X164829Y346654D01*
X164621Y346551D01*
X164458Y346419D01*
X164341Y346259D01*
X164271Y346069D01*
X164248Y345851D01*
X164257Y345720D01*
X164284Y345601D01*
X164329Y345495D01*
X164392Y345399D01*
X164569Y345235D01*
X164810Y345097D01*
X164980Y345032D01*
X165218Y344959D01*
X165897Y344793D01*
X166440Y344665D01*
X166705Y344594D01*
X166958Y344510D01*
X167198Y344412D01*
X167422Y344298D01*
X167624Y344163D01*
X167798Y344000D01*
X167940Y343808D01*
X168047Y343585D01*
X168115Y343324D01*
X168138Y343022D01*
X168128Y342824D01*
X168098Y342636D01*
X168048Y342461D01*
X167978Y342296D01*
X167888Y342144D01*
X167778Y342003D01*
X167648Y341873D01*
X167498Y341755D01*
X167329Y341650D01*
X167145Y341559D01*
X166944Y341481D01*
X166727Y341418D01*
X166494Y341369D01*
X166244Y341334D01*
X165978Y341313D01*
X165695Y341306D01*
G37*
G36*
X172866Y341390D02*
X168951Y341390D01*
X168951Y341923D01*
X169064Y342161D01*
X169189Y342385D01*
X169325Y342594D01*
X169473Y342789D01*
X169790Y343147D01*
X170122Y343469D01*
X170795Y344034D01*
X171113Y344294D01*
X171397Y344554D01*
X171640Y344820D01*
X171832Y345099D01*
X171904Y345247D01*
X171956Y345404D01*
X171987Y345570D01*
X171997Y345746D01*
X171980Y345975D01*
X171926Y346178D01*
X171837Y346353D01*
X171712Y346501D01*
X171555Y346618D01*
X171371Y346702D01*
X171159Y346753D01*
X170919Y346769D01*
X170688Y346753D01*
X170479Y346704D01*
X170291Y346622D01*
X170124Y346507D01*
X169984Y346363D01*
X169876Y346192D01*
X169800Y345995D01*
X169757Y345771D01*
X168985Y345842D01*
X169012Y346015D01*
X169054Y346179D01*
X169109Y346333D01*
X169177Y346479D01*
X169259Y346615D01*
X169355Y346743D01*
X169587Y346971D01*
X169864Y347154D01*
X170017Y347227D01*
X170179Y347286D01*
X170350Y347332D01*
X170530Y347364D01*
X170720Y347384D01*
X170919Y347391D01*
X171136Y347384D01*
X171340Y347364D01*
X171531Y347331D01*
X171709Y347285D01*
X171875Y347226D01*
X172027Y347153D01*
X172167Y347068D01*
X172293Y346969D01*
X172406Y346858D01*
X172503Y346736D01*
X172586Y346603D01*
X172654Y346458D01*
X172706Y346303D01*
X172744Y346137D01*
X172766Y345959D01*
X172774Y345771D01*
X172764Y345599D01*
X172734Y345428D01*
X172685Y345257D01*
X172616Y345087D01*
X172528Y344917D01*
X172421Y344747D01*
X172148Y344407D01*
X171696Y343974D01*
X170961Y343354D01*
X170528Y342979D01*
X170193Y342643D01*
X169948Y342332D01*
X169855Y342180D01*
X169782Y342032D01*
X172866Y342032D01*
X172866Y341390D01*
G37*
G36*
X25995Y307016D02*
X25732Y307022D01*
X25483Y307040D01*
X25249Y307069D01*
X25028Y307110D01*
X24822Y307163D01*
X24630Y307227D01*
X24452Y307304D01*
X24289Y307392D01*
X24139Y307491D01*
X24004Y307603D01*
X23883Y307726D01*
X23776Y307861D01*
X23683Y308008D01*
X23605Y308166D01*
X23540Y308336D01*
X23490Y308518D01*
X24267Y308674D01*
X24353Y308425D01*
X24476Y308211D01*
X24638Y308033D01*
X24837Y307891D01*
X25075Y307782D01*
X25352Y307704D01*
X25669Y307657D01*
X26025Y307641D01*
X26391Y307658D01*
X26712Y307708D01*
X26990Y307791D01*
X27223Y307908D01*
X27407Y308057D01*
X27539Y308237D01*
X27618Y308448D01*
X27638Y308565D01*
X27644Y308690D01*
X27636Y308828D01*
X27611Y308953D01*
X27570Y309063D01*
X27512Y309160D01*
X27353Y309325D01*
X27141Y309458D01*
X26879Y309566D01*
X26570Y309655D01*
X25836Y309827D01*
X25220Y309983D01*
X24772Y310138D01*
X24447Y310302D01*
X24199Y310484D01*
X24014Y310691D01*
X23878Y310931D01*
X23830Y311064D01*
X23795Y311206D01*
X23774Y311357D01*
X23767Y311519D01*
X23776Y311703D01*
X23804Y311876D01*
X23849Y312039D01*
X23912Y312191D01*
X23994Y312332D01*
X24094Y312462D01*
X24212Y312581D01*
X24348Y312689D01*
X24501Y312786D01*
X24670Y312869D01*
X24855Y312940D01*
X25055Y312998D01*
X25271Y313043D01*
X25502Y313075D01*
X25749Y313094D01*
X26012Y313100D01*
X26486Y313081D01*
X26901Y313023D01*
X27256Y312927D01*
X27552Y312792D01*
X27680Y312708D01*
X27799Y312611D01*
X28005Y312375D01*
X28172Y312085D01*
X28299Y311741D01*
X27510Y311602D01*
X27430Y311821D01*
X27321Y312008D01*
X27183Y312162D01*
X27015Y312284D01*
X26815Y312377D01*
X26580Y312443D01*
X26309Y312483D01*
X26004Y312496D01*
X25670Y312482D01*
X25379Y312437D01*
X25129Y312364D01*
X24921Y312261D01*
X24758Y312129D01*
X24641Y311969D01*
X24571Y311779D01*
X24548Y311560D01*
X24557Y311430D01*
X24584Y311311D01*
X24629Y311204D01*
X24692Y311109D01*
X24869Y310945D01*
X25110Y310807D01*
X25280Y310742D01*
X25518Y310669D01*
X26197Y310503D01*
X26740Y310375D01*
X27005Y310304D01*
X27258Y310220D01*
X27498Y310122D01*
X27722Y310008D01*
X27924Y309873D01*
X28098Y309710D01*
X28240Y309518D01*
X28347Y309295D01*
X28415Y309034D01*
X28438Y308732D01*
X28428Y308533D01*
X28398Y308346D01*
X28348Y308170D01*
X28278Y308006D01*
X28188Y307854D01*
X28078Y307713D01*
X27948Y307583D01*
X27798Y307465D01*
X27629Y307360D01*
X27445Y307269D01*
X27244Y307191D01*
X27027Y307128D01*
X26794Y307079D01*
X26544Y307044D01*
X26278Y307023D01*
X25995Y307016D01*
G37*
G36*
X31215Y307016D02*
X30996Y307022D01*
X30788Y307041D01*
X30592Y307073D01*
X30408Y307117D01*
X30234Y307174D01*
X30072Y307244D01*
X29921Y307326D01*
X29782Y307421D01*
X29655Y307528D01*
X29541Y307648D01*
X29442Y307779D01*
X29355Y307923D01*
X29283Y308079D01*
X29224Y308247D01*
X29178Y308427D01*
X29146Y308619D01*
X29927Y308690D01*
X29980Y308444D01*
X30064Y308231D01*
X30179Y308051D01*
X30324Y307904D01*
X30501Y307789D01*
X30708Y307707D01*
X30946Y307658D01*
X31215Y307641D01*
X31485Y307659D01*
X31724Y307712D01*
X31933Y307799D01*
X32111Y307922D01*
X32253Y308080D01*
X32355Y308272D01*
X32416Y308498D01*
X32436Y308757D01*
X32413Y308985D01*
X32343Y309187D01*
X32227Y309362D01*
X32064Y309511D01*
X31858Y309629D01*
X31611Y309714D01*
X31322Y309764D01*
X30992Y309781D01*
X30564Y309781D01*
X30564Y310436D01*
X30976Y310436D01*
X31269Y310453D01*
X31527Y310504D01*
X31750Y310588D01*
X31939Y310707D01*
X32088Y310855D01*
X32195Y311029D01*
X32259Y311229D01*
X32281Y311456D01*
X32263Y311680D01*
X32211Y311880D01*
X32124Y312055D01*
X32002Y312205D01*
X31845Y312325D01*
X31655Y312411D01*
X31431Y312462D01*
X31173Y312479D01*
X30935Y312463D01*
X30721Y312415D01*
X30531Y312335D01*
X30365Y312223D01*
X30227Y312082D01*
X30121Y311915D01*
X30048Y311721D01*
X30006Y311502D01*
X29247Y311560D01*
X29275Y311737D01*
X29316Y311903D01*
X29371Y312060D01*
X29439Y312207D01*
X29521Y312343D01*
X29617Y312470D01*
X29726Y312587D01*
X29849Y312693D01*
X30127Y312872D01*
X30279Y312941D01*
X30441Y312999D01*
X30612Y313043D01*
X30793Y313075D01*
X30982Y313094D01*
X31181Y313100D01*
X31397Y313094D01*
X31601Y313075D01*
X31793Y313042D01*
X31972Y312997D01*
X32138Y312939D01*
X32293Y312868D01*
X32434Y312784D01*
X32564Y312687D01*
X32679Y312579D01*
X32780Y312460D01*
X32864Y312331D01*
X32934Y312193D01*
X32988Y312043D01*
X33026Y311884D01*
X33049Y311715D01*
X33057Y311535D01*
X33037Y311265D01*
X32978Y311022D01*
X32879Y310805D01*
X32740Y310614D01*
X32564Y310451D01*
X32351Y310317D01*
X32103Y310211D01*
X31819Y310134D01*
X31819Y310117D01*
X32132Y310062D01*
X32409Y309970D01*
X32648Y309840D01*
X32851Y309672D01*
X33013Y309473D01*
X33128Y309250D01*
X33197Y309003D01*
X33221Y308732D01*
X33212Y308533D01*
X33188Y308346D01*
X33147Y308170D01*
X33090Y308006D01*
X33017Y307854D01*
X32928Y307713D01*
X32822Y307583D01*
X32700Y307465D01*
X32563Y307360D01*
X32412Y307269D01*
X32247Y307191D01*
X32069Y307128D01*
X31876Y307079D01*
X31670Y307044D01*
X31449Y307023D01*
X31215Y307016D01*
G37*
G36*
X32516Y264767D02*
X31802Y264767D01*
X31802Y266105D01*
X29016Y266105D01*
X29016Y266693D01*
X31722Y270679D01*
X32516Y270679D01*
X32516Y266701D01*
X33346Y266701D01*
X33346Y266105D01*
X32516Y266105D01*
X32516Y264767D01*
G37*
%LPC*%
G36*
X31802Y266701D02*
X31802Y269827D01*
X31685Y269605D01*
X31521Y269328D01*
X30006Y267095D01*
X29780Y266785D01*
X29713Y266701D01*
X31802Y266701D01*
G37*
%LPD*%
G36*
X25995Y264683D02*
X25732Y264689D01*
X25483Y264706D01*
X25249Y264736D01*
X25028Y264777D01*
X24822Y264829D01*
X24630Y264894D01*
X24452Y264970D01*
X24289Y265058D01*
X24139Y265158D01*
X24004Y265270D01*
X23883Y265393D01*
X23776Y265528D01*
X23683Y265674D01*
X23605Y265833D01*
X23540Y266003D01*
X23490Y266185D01*
X24267Y266340D01*
X24353Y266091D01*
X24476Y265878D01*
X24638Y265700D01*
X24837Y265558D01*
X25075Y265448D01*
X25352Y265370D01*
X25669Y265324D01*
X26025Y265308D01*
X26391Y265325D01*
X26712Y265375D01*
X26990Y265458D01*
X27223Y265574D01*
X27407Y265723D01*
X27539Y265903D01*
X27618Y266115D01*
X27638Y266232D01*
X27644Y266357D01*
X27636Y266495D01*
X27611Y266619D01*
X27570Y266730D01*
X27512Y266827D01*
X27353Y266992D01*
X27141Y267125D01*
X26879Y267233D01*
X26570Y267322D01*
X25836Y267494D01*
X25220Y267649D01*
X24772Y267805D01*
X24447Y267969D01*
X24199Y268151D01*
X24014Y268358D01*
X23878Y268598D01*
X23830Y268730D01*
X23795Y268873D01*
X23774Y269024D01*
X23767Y269185D01*
X23776Y269370D01*
X23804Y269543D01*
X23849Y269706D01*
X23912Y269858D01*
X23994Y269999D01*
X24094Y270129D01*
X24212Y270248D01*
X24348Y270356D01*
X24501Y270452D01*
X24670Y270536D01*
X24855Y270607D01*
X25055Y270664D01*
X25271Y270709D01*
X25502Y270741D01*
X25749Y270761D01*
X26012Y270767D01*
X26486Y270748D01*
X26901Y270690D01*
X27256Y270594D01*
X27552Y270459D01*
X27680Y270375D01*
X27799Y270277D01*
X28005Y270042D01*
X28172Y269752D01*
X28299Y269408D01*
X27510Y269269D01*
X27430Y269488D01*
X27321Y269675D01*
X27183Y269829D01*
X27015Y269951D01*
X26815Y270044D01*
X26580Y270110D01*
X26309Y270150D01*
X26004Y270163D01*
X25670Y270148D01*
X25379Y270104D01*
X25129Y270031D01*
X24921Y269928D01*
X24758Y269796D01*
X24641Y269635D01*
X24571Y269446D01*
X24548Y269227D01*
X24557Y269097D01*
X24584Y268978D01*
X24629Y268871D01*
X24692Y268776D01*
X24869Y268611D01*
X25110Y268474D01*
X25280Y268409D01*
X25518Y268336D01*
X26197Y268170D01*
X26740Y268042D01*
X27005Y267970D01*
X27258Y267886D01*
X27498Y267788D01*
X27722Y267675D01*
X27924Y267539D01*
X28098Y267377D01*
X28240Y267185D01*
X28347Y266961D01*
X28415Y266701D01*
X28438Y266399D01*
X28428Y266200D01*
X28398Y266013D01*
X28348Y265837D01*
X28278Y265673D01*
X28188Y265520D01*
X28078Y265379D01*
X27948Y265250D01*
X27798Y265132D01*
X27629Y265026D01*
X27445Y264935D01*
X27244Y264858D01*
X27027Y264795D01*
X26794Y264746D01*
X26544Y264711D01*
X26278Y264690D01*
X25995Y264683D01*
G37*
G36*
X25995Y222349D02*
X25732Y222355D01*
X25483Y222373D01*
X25249Y222402D01*
X25028Y222443D01*
X24822Y222496D01*
X24630Y222561D01*
X24452Y222637D01*
X24289Y222725D01*
X24139Y222825D01*
X24004Y222936D01*
X23883Y223059D01*
X23776Y223194D01*
X23683Y223341D01*
X23605Y223500D01*
X23540Y223670D01*
X23490Y223852D01*
X24267Y224007D01*
X24353Y223758D01*
X24476Y223545D01*
X24638Y223367D01*
X24837Y223224D01*
X25075Y223115D01*
X25352Y223037D01*
X25669Y222990D01*
X26025Y222975D01*
X26391Y222991D01*
X26712Y223041D01*
X26990Y223124D01*
X27223Y223241D01*
X27407Y223390D01*
X27539Y223570D01*
X27618Y223781D01*
X27638Y223899D01*
X27644Y224024D01*
X27636Y224162D01*
X27611Y224286D01*
X27570Y224397D01*
X27512Y224494D01*
X27353Y224658D01*
X27141Y224792D01*
X26879Y224900D01*
X26570Y224989D01*
X25836Y225161D01*
X25220Y225316D01*
X24772Y225471D01*
X24447Y225636D01*
X24199Y225818D01*
X24014Y226025D01*
X23878Y226264D01*
X23830Y226397D01*
X23795Y226539D01*
X23774Y226691D01*
X23767Y226852D01*
X23776Y227036D01*
X23804Y227210D01*
X23849Y227373D01*
X23912Y227524D01*
X23994Y227665D01*
X24094Y227795D01*
X24212Y227914D01*
X24348Y228023D01*
X24501Y228119D01*
X24670Y228203D01*
X24855Y228273D01*
X25055Y228331D01*
X25271Y228376D01*
X25502Y228408D01*
X25749Y228427D01*
X26012Y228434D01*
X26486Y228415D01*
X26901Y228357D01*
X27256Y228260D01*
X27552Y228125D01*
X27680Y228042D01*
X27799Y227944D01*
X28005Y227708D01*
X28172Y227418D01*
X28299Y227074D01*
X27510Y226936D01*
X27430Y227155D01*
X27321Y227341D01*
X27183Y227496D01*
X27015Y227618D01*
X26815Y227710D01*
X26580Y227777D01*
X26309Y227816D01*
X26004Y227830D01*
X25670Y227815D01*
X25379Y227771D01*
X25129Y227697D01*
X24921Y227595D01*
X24758Y227463D01*
X24641Y227302D01*
X24571Y227112D01*
X24548Y226894D01*
X24557Y226763D01*
X24584Y226645D01*
X24629Y226538D01*
X24692Y226443D01*
X24869Y226278D01*
X25110Y226141D01*
X25280Y226075D01*
X25518Y226003D01*
X26197Y225836D01*
X26740Y225708D01*
X27005Y225637D01*
X27258Y225553D01*
X27498Y225455D01*
X27722Y225341D01*
X27924Y225206D01*
X28098Y225043D01*
X28240Y224851D01*
X28347Y224628D01*
X28415Y224368D01*
X28438Y224066D01*
X28428Y223867D01*
X28398Y223680D01*
X28348Y223504D01*
X28278Y223340D01*
X28188Y223187D01*
X28078Y223046D01*
X27948Y222916D01*
X27798Y222798D01*
X27629Y222693D01*
X27445Y222602D01*
X27244Y222525D01*
X27027Y222462D01*
X26794Y222413D01*
X26544Y222377D01*
X26278Y222356D01*
X25995Y222349D01*
G37*
G36*
X31139Y222349D02*
X30746Y222372D01*
X30392Y222440D01*
X30079Y222552D01*
X29805Y222710D01*
X29574Y222911D01*
X29390Y223152D01*
X29253Y223433D01*
X29163Y223755D01*
X29927Y223843D01*
X29998Y223638D01*
X30093Y223460D01*
X30212Y223309D01*
X30353Y223185D01*
X30519Y223090D01*
X30708Y223021D01*
X30920Y222980D01*
X31156Y222966D01*
X31444Y222989D01*
X31698Y223058D01*
X31920Y223173D01*
X32109Y223333D01*
X32259Y223534D01*
X32367Y223769D01*
X32431Y224039D01*
X32453Y224343D01*
X32431Y224608D01*
X32366Y224847D01*
X32258Y225059D01*
X32106Y225245D01*
X31918Y225395D01*
X31700Y225503D01*
X31451Y225567D01*
X31173Y225589D01*
X30877Y225565D01*
X30602Y225492D01*
X30338Y225362D01*
X30073Y225165D01*
X29335Y225165D01*
X29532Y228346D01*
X32893Y228346D01*
X32893Y227704D01*
X30220Y227704D01*
X30107Y225828D01*
X30367Y225993D01*
X30658Y226111D01*
X30978Y226182D01*
X31328Y226206D01*
X31541Y226198D01*
X31742Y226174D01*
X31933Y226134D01*
X32112Y226078D01*
X32281Y226006D01*
X32438Y225918D01*
X32584Y225814D01*
X32719Y225694D01*
X32841Y225561D01*
X32946Y225418D01*
X33035Y225266D01*
X33108Y225104D01*
X33164Y224933D01*
X33205Y224751D01*
X33229Y224560D01*
X33237Y224359D01*
X33229Y224132D01*
X33203Y223916D01*
X33159Y223714D01*
X33098Y223523D01*
X33020Y223345D01*
X32925Y223180D01*
X32812Y223027D01*
X32681Y222886D01*
X32536Y222761D01*
X32376Y222652D01*
X32204Y222559D01*
X32018Y222484D01*
X31818Y222425D01*
X31605Y222383D01*
X31379Y222358D01*
X31139Y222349D01*
G37*
G36*
X211930Y393642D02*
X206018Y393642D01*
X206018Y395598D01*
X206029Y395963D01*
X206065Y396306D01*
X206124Y396628D01*
X206206Y396929D01*
X206312Y397208D01*
X206441Y397465D01*
X206594Y397701D01*
X206771Y397916D01*
X206969Y398108D01*
X207187Y398273D01*
X207425Y398414D01*
X207683Y398528D01*
X207961Y398618D01*
X208258Y398681D01*
X208576Y398720D01*
X208913Y398732D01*
X209356Y398710D01*
X209771Y398643D01*
X210156Y398532D01*
X210514Y398376D01*
X210837Y398179D01*
X211120Y397945D01*
X211362Y397673D01*
X211565Y397364D01*
X211725Y397025D01*
X211839Y396660D01*
X211907Y396269D01*
X211930Y395854D01*
X211930Y393642D01*
G37*
%LPC*%
G36*
X211288Y394444D02*
X211288Y395762D01*
X211270Y396077D01*
X211217Y396373D01*
X211128Y396649D01*
X211003Y396905D01*
X210844Y397137D01*
X210654Y397341D01*
X210433Y397516D01*
X210180Y397662D01*
X209900Y397778D01*
X209595Y397861D01*
X209266Y397910D01*
X208913Y397927D01*
X208646Y397917D01*
X208396Y397889D01*
X208162Y397842D01*
X207944Y397776D01*
X207743Y397692D01*
X207558Y397588D01*
X207389Y397466D01*
X207237Y397325D01*
X207101Y397166D01*
X206984Y396990D01*
X206885Y396797D01*
X206804Y396588D01*
X206741Y396361D01*
X206696Y396118D01*
X206669Y395858D01*
X206660Y395581D01*
X206660Y394444D01*
X211288Y394444D01*
G37*
%LPD*%
G36*
X211930Y412736D02*
X206018Y412736D01*
X206018Y414692D01*
X206029Y415056D01*
X206065Y415400D01*
X206124Y415722D01*
X206206Y416022D01*
X206312Y416301D01*
X206441Y416559D01*
X206594Y416795D01*
X206771Y417010D01*
X206969Y417201D01*
X207187Y417367D01*
X207425Y417507D01*
X207683Y417622D01*
X207961Y417711D01*
X208258Y417775D01*
X208576Y417813D01*
X208913Y417826D01*
X209356Y417804D01*
X209771Y417737D01*
X210156Y417626D01*
X210514Y417469D01*
X210837Y417273D01*
X211120Y417038D01*
X211362Y416767D01*
X211565Y416458D01*
X211725Y416118D01*
X211839Y415753D01*
X211907Y415363D01*
X211930Y414948D01*
X211930Y412736D01*
G37*
%LPC*%
G36*
X211288Y413538D02*
X211288Y414855D01*
X211270Y415171D01*
X211217Y415466D01*
X211128Y415742D01*
X211003Y415999D01*
X210844Y416231D01*
X210654Y416435D01*
X210433Y416610D01*
X210180Y416756D01*
X209900Y416872D01*
X209595Y416954D01*
X209266Y417004D01*
X208913Y417020D01*
X208646Y417011D01*
X208396Y416983D01*
X208162Y416936D01*
X207944Y416870D01*
X207743Y416785D01*
X207558Y416682D01*
X207389Y416559D01*
X207237Y416418D01*
X207101Y416259D01*
X206984Y416084D01*
X206885Y415891D01*
X206804Y415681D01*
X206741Y415455D01*
X206696Y415212D01*
X206669Y414952D01*
X206660Y414675D01*
X206660Y413538D01*
X211288Y413538D01*
G37*
%LPD*%
G36*
X211930Y381705D02*
X206018Y381705D01*
X206018Y384487D01*
X206025Y384730D01*
X206046Y384958D01*
X206080Y385172D01*
X206129Y385372D01*
X206192Y385558D01*
X206269Y385729D01*
X206360Y385886D01*
X206465Y386029D01*
X206582Y386156D01*
X206710Y386267D01*
X206849Y386360D01*
X206999Y386437D01*
X207160Y386496D01*
X207332Y386539D01*
X207515Y386564D01*
X207709Y386573D01*
X208025Y386549D01*
X208315Y386477D01*
X208579Y386357D01*
X208816Y386189D01*
X209020Y385978D01*
X209133Y385806D01*
X209183Y385732D01*
X209303Y385449D01*
X209383Y385129D01*
X210467Y385844D01*
X211930Y386807D01*
X211930Y385884D01*
X209475Y384349D01*
X209475Y382506D01*
X211930Y382506D01*
X211930Y381705D01*
G37*
%LPC*%
G36*
X208842Y382506D02*
X208842Y384441D01*
X208823Y384740D01*
X208768Y385003D01*
X208675Y385230D01*
X208546Y385421D01*
X208383Y385572D01*
X208191Y385680D01*
X207969Y385745D01*
X207717Y385767D01*
X207474Y385745D01*
X207262Y385679D01*
X207081Y385570D01*
X206930Y385416D01*
X206812Y385222D01*
X206727Y384989D01*
X206677Y384717D01*
X206660Y384407D01*
X206660Y382506D01*
X208842Y382506D01*
G37*
%LPD*%
G36*
X211930Y387924D02*
X206018Y387924D01*
X206018Y392409D01*
X206672Y392409D01*
X206672Y388725D01*
X208569Y388725D01*
X208569Y392158D01*
X209215Y392158D01*
X209215Y388725D01*
X211275Y388725D01*
X211275Y392581D01*
X211930Y392581D01*
X211930Y387924D01*
G37*
G36*
X211930Y407017D02*
X206018Y407017D01*
X206018Y411503D01*
X206672Y411503D01*
X206672Y407819D01*
X208569Y407819D01*
X208569Y411251D01*
X209215Y411251D01*
X209215Y407819D01*
X211275Y407819D01*
X211275Y411675D01*
X211930Y411675D01*
X211930Y407017D01*
G37*
G36*
X211930Y402236D02*
X206018Y402236D01*
X206018Y403038D01*
X211275Y403038D01*
X211275Y406025D01*
X211930Y406025D01*
X211930Y402236D01*
G37*
G36*
X119365Y375746D02*
X117154Y375746D01*
X117154Y381658D01*
X119109Y381658D01*
X119474Y381647D01*
X119817Y381611D01*
X120139Y381552D01*
X120440Y381470D01*
X120719Y381364D01*
X120977Y381235D01*
X121213Y381082D01*
X121428Y380905D01*
X121619Y380707D01*
X121785Y380489D01*
X121925Y380251D01*
X122040Y379993D01*
X122129Y379715D01*
X122193Y379418D01*
X122231Y379100D01*
X122244Y378763D01*
X122221Y378320D01*
X122154Y377905D01*
X122043Y377520D01*
X121887Y377162D01*
X121690Y376839D01*
X121456Y376556D01*
X121184Y376314D01*
X120876Y376111D01*
X120536Y375951D01*
X120171Y375837D01*
X119781Y375769D01*
X119365Y375746D01*
G37*
%LPC*%
G36*
X119273Y376388D02*
X119588Y376406D01*
X119884Y376459D01*
X120160Y376549D01*
X120416Y376673D01*
X120648Y376832D01*
X120852Y377022D01*
X121027Y377243D01*
X121174Y377496D01*
X121289Y377776D01*
X121372Y378081D01*
X121421Y378410D01*
X121438Y378763D01*
X121429Y379030D01*
X121400Y379280D01*
X121353Y379514D01*
X121287Y379732D01*
X121203Y379933D01*
X121099Y380118D01*
X120977Y380287D01*
X120836Y380439D01*
X120677Y380575D01*
X120501Y380692D01*
X120308Y380791D01*
X120099Y380872D01*
X119873Y380935D01*
X119629Y380980D01*
X119369Y381007D01*
X119092Y381016D01*
X117955Y381016D01*
X117955Y376388D01*
X119273Y376388D01*
G37*
%LPD*%
G36*
X125584Y375746D02*
X123372Y375746D01*
X123372Y381658D01*
X125328Y381658D01*
X125693Y381647D01*
X126036Y381611D01*
X126358Y381552D01*
X126659Y381470D01*
X126938Y381364D01*
X127195Y381235D01*
X127431Y381082D01*
X127646Y380905D01*
X127838Y380707D01*
X128003Y380489D01*
X128144Y380251D01*
X128258Y379993D01*
X128348Y379715D01*
X128411Y379418D01*
X128450Y379100D01*
X128462Y378763D01*
X128440Y378320D01*
X128373Y377905D01*
X128262Y377520D01*
X128106Y377162D01*
X127909Y376839D01*
X127675Y376556D01*
X127403Y376314D01*
X127094Y376111D01*
X126755Y375951D01*
X126390Y375837D01*
X125999Y375769D01*
X125584Y375746D01*
G37*
%LPC*%
G36*
X125492Y376388D02*
X125807Y376406D01*
X126103Y376459D01*
X126379Y376549D01*
X126635Y376673D01*
X126867Y376832D01*
X127071Y377022D01*
X127246Y377243D01*
X127392Y377496D01*
X127508Y377776D01*
X127591Y378081D01*
X127640Y378410D01*
X127657Y378763D01*
X127647Y379030D01*
X127619Y379280D01*
X127572Y379514D01*
X127506Y379732D01*
X127422Y379933D01*
X127318Y380118D01*
X127196Y380287D01*
X127055Y380439D01*
X126896Y380575D01*
X126720Y380692D01*
X126527Y380791D01*
X126318Y380872D01*
X126091Y380935D01*
X125848Y380980D01*
X125588Y381007D01*
X125311Y381016D01*
X124174Y381016D01*
X124174Y376388D01*
X125492Y376388D01*
G37*
%LPD*%
G36*
X114011Y375746D02*
X113181Y375746D01*
X110768Y381658D01*
X111611Y381658D01*
X113248Y377496D01*
X113600Y376451D01*
X113953Y377496D01*
X115581Y381658D01*
X116424Y381658D01*
X114011Y375746D01*
G37*
D10*
X78400Y320040D02*
X78402Y320084D01*
X78408Y320128D01*
X78418Y320171D01*
X78431Y320213D01*
X78448Y320254D01*
X78469Y320293D01*
X78493Y320330D01*
X78520Y320365D01*
X78550Y320397D01*
X78583Y320427D01*
X78619Y320453D01*
X78656Y320477D01*
X78696Y320496D01*
X78737Y320513D01*
X78780Y320525D01*
X78823Y320534D01*
X78867Y320539D01*
X78911Y320540D01*
X78955Y320537D01*
X78999Y320530D01*
X79042Y320519D01*
X79084Y320505D01*
X79124Y320487D01*
X79163Y320465D01*
X79199Y320441D01*
X79233Y320413D01*
X79265Y320382D01*
X79294Y320348D01*
X79320Y320312D01*
X79342Y320274D01*
X79361Y320234D01*
X79376Y320192D01*
X79388Y320150D01*
X79396Y320106D01*
X79400Y320062D01*
X79400Y320018D01*
X79396Y319974D01*
X79388Y319930D01*
X79376Y319888D01*
X79361Y319846D01*
X79342Y319806D01*
X79320Y319768D01*
X79294Y319732D01*
X79265Y319698D01*
X79233Y319667D01*
X79199Y319639D01*
X79163Y319615D01*
X79124Y319593D01*
X79084Y319575D01*
X79042Y319561D01*
X78999Y319550D01*
X78955Y319543D01*
X78911Y319540D01*
X78867Y319541D01*
X78823Y319546D01*
X78780Y319555D01*
X78737Y319567D01*
X78696Y319584D01*
X78656Y319603D01*
X78619Y319627D01*
X78583Y319653D01*
X78550Y319683D01*
X78520Y319715D01*
X78493Y319750D01*
X78469Y319787D01*
X78448Y319826D01*
X78431Y319867D01*
X78418Y319909D01*
X78408Y319952D01*
X78402Y319996D01*
X78400Y320040D01*
X98400Y292100D02*
X98402Y292144D01*
X98408Y292188D01*
X98418Y292231D01*
X98431Y292273D01*
X98448Y292314D01*
X98469Y292353D01*
X98493Y292390D01*
X98520Y292425D01*
X98550Y292457D01*
X98583Y292487D01*
X98619Y292513D01*
X98656Y292537D01*
X98696Y292556D01*
X98737Y292573D01*
X98780Y292585D01*
X98823Y292594D01*
X98867Y292599D01*
X98911Y292600D01*
X98955Y292597D01*
X98999Y292590D01*
X99042Y292579D01*
X99084Y292565D01*
X99124Y292547D01*
X99163Y292525D01*
X99199Y292501D01*
X99233Y292473D01*
X99265Y292442D01*
X99294Y292408D01*
X99320Y292372D01*
X99342Y292334D01*
X99361Y292294D01*
X99376Y292252D01*
X99388Y292210D01*
X99396Y292166D01*
X99400Y292122D01*
X99400Y292078D01*
X99396Y292034D01*
X99388Y291990D01*
X99376Y291948D01*
X99361Y291906D01*
X99342Y291866D01*
X99320Y291828D01*
X99294Y291792D01*
X99265Y291758D01*
X99233Y291727D01*
X99199Y291699D01*
X99163Y291675D01*
X99124Y291653D01*
X99084Y291635D01*
X99042Y291621D01*
X98999Y291610D01*
X98955Y291603D01*
X98911Y291600D01*
X98867Y291601D01*
X98823Y291606D01*
X98780Y291615D01*
X98737Y291627D01*
X98696Y291644D01*
X98656Y291663D01*
X98619Y291687D01*
X98583Y291713D01*
X98550Y291743D01*
X98520Y291775D01*
X98493Y291810D01*
X98469Y291847D01*
X98448Y291886D01*
X98431Y291927D01*
X98418Y291969D01*
X98408Y292012D01*
X98402Y292056D01*
X98400Y292100D01*
X131740Y173990D02*
X131742Y174034D01*
X131748Y174078D01*
X131758Y174121D01*
X131771Y174163D01*
X131788Y174204D01*
X131809Y174243D01*
X131833Y174280D01*
X131860Y174315D01*
X131890Y174347D01*
X131923Y174377D01*
X131959Y174403D01*
X131996Y174427D01*
X132036Y174446D01*
X132077Y174463D01*
X132120Y174475D01*
X132163Y174484D01*
X132207Y174489D01*
X132251Y174490D01*
X132295Y174487D01*
X132339Y174480D01*
X132382Y174469D01*
X132424Y174455D01*
X132464Y174437D01*
X132503Y174415D01*
X132539Y174391D01*
X132573Y174363D01*
X132605Y174332D01*
X132634Y174298D01*
X132660Y174262D01*
X132682Y174224D01*
X132701Y174184D01*
X132716Y174142D01*
X132728Y174100D01*
X132736Y174056D01*
X132740Y174012D01*
X132740Y173968D01*
X132736Y173924D01*
X132728Y173880D01*
X132716Y173838D01*
X132701Y173796D01*
X132682Y173756D01*
X132660Y173718D01*
X132634Y173682D01*
X132605Y173648D01*
X132573Y173617D01*
X132539Y173589D01*
X132503Y173565D01*
X132464Y173543D01*
X132424Y173525D01*
X132382Y173511D01*
X132339Y173500D01*
X132295Y173493D01*
X132251Y173490D01*
X132207Y173491D01*
X132163Y173496D01*
X132120Y173505D01*
X132077Y173517D01*
X132036Y173534D01*
X131996Y173553D01*
X131959Y173577D01*
X131923Y173603D01*
X131890Y173633D01*
X131860Y173665D01*
X131833Y173700D01*
X131809Y173737D01*
X131788Y173776D01*
X131771Y173817D01*
X131758Y173859D01*
X131748Y173902D01*
X131742Y173946D01*
X131740Y173990D01*
X257970Y391510D02*
X257970Y403510D01*
X277970Y403510D02*
X277970Y391510D01*
D11*
X267970Y376510D02*
X268014Y376508D01*
X268057Y376502D01*
X268099Y376493D01*
X268141Y376480D01*
X268181Y376463D01*
X268220Y376443D01*
X268257Y376420D01*
X268291Y376393D01*
X268324Y376364D01*
X268353Y376331D01*
X268380Y376297D01*
X268403Y376260D01*
X268423Y376221D01*
X268440Y376181D01*
X268453Y376139D01*
X268462Y376097D01*
X268468Y376054D01*
X268470Y376010D01*
X268468Y375966D01*
X268462Y375923D01*
X268453Y375881D01*
X268440Y375839D01*
X268423Y375799D01*
X268403Y375760D01*
X268380Y375723D01*
X268353Y375689D01*
X268324Y375656D01*
X268291Y375627D01*
X268257Y375600D01*
X268220Y375577D01*
X268181Y375557D01*
X268141Y375540D01*
X268099Y375527D01*
X268057Y375518D01*
X268014Y375512D01*
X267970Y375510D01*
X267926Y375512D01*
X267883Y375518D01*
X267841Y375527D01*
X267799Y375540D01*
X267759Y375557D01*
X267720Y375577D01*
X267683Y375600D01*
X267649Y375627D01*
X267616Y375656D01*
X267587Y375689D01*
X267560Y375723D01*
X267537Y375760D01*
X267517Y375799D01*
X267500Y375839D01*
X267487Y375881D01*
X267478Y375923D01*
X267472Y375966D01*
X267470Y376010D01*
X267472Y376054D01*
X267478Y376097D01*
X267487Y376139D01*
X267500Y376181D01*
X267517Y376221D01*
X267537Y376260D01*
X267560Y376297D01*
X267587Y376331D01*
X267616Y376364D01*
X267649Y376393D01*
X267683Y376420D01*
X267720Y376443D01*
X267759Y376463D01*
X267799Y376480D01*
X267841Y376493D01*
X267883Y376502D01*
X267926Y376508D01*
X267970Y376510D01*
D10*
X175130Y276730D02*
X160100Y276730D01*
X175130Y276730D02*
X175130Y256670D01*
X155070Y256670D01*
X155070Y271700D01*
X160100Y276730D01*
X154070Y276730D02*
X154072Y276793D01*
X154078Y276855D01*
X154088Y276917D01*
X154101Y276979D01*
X154119Y277039D01*
X154140Y277098D01*
X154165Y277156D01*
X154194Y277212D01*
X154226Y277266D01*
X154261Y277318D01*
X154299Y277367D01*
X154341Y277415D01*
X154385Y277459D01*
X154433Y277501D01*
X154482Y277539D01*
X154534Y277574D01*
X154588Y277606D01*
X154644Y277635D01*
X154702Y277660D01*
X154761Y277681D01*
X154821Y277699D01*
X154883Y277712D01*
X154945Y277722D01*
X155007Y277728D01*
X155070Y277730D01*
X155133Y277728D01*
X155195Y277722D01*
X155257Y277712D01*
X155319Y277699D01*
X155379Y277681D01*
X155438Y277660D01*
X155496Y277635D01*
X155552Y277606D01*
X155606Y277574D01*
X155658Y277539D01*
X155707Y277501D01*
X155755Y277459D01*
X155799Y277415D01*
X155841Y277367D01*
X155879Y277318D01*
X155914Y277266D01*
X155946Y277212D01*
X155975Y277156D01*
X156000Y277098D01*
X156021Y277039D01*
X156039Y276979D01*
X156052Y276917D01*
X156062Y276855D01*
X156068Y276793D01*
X156070Y276730D01*
X156068Y276667D01*
X156062Y276605D01*
X156052Y276543D01*
X156039Y276481D01*
X156021Y276421D01*
X156000Y276362D01*
X155975Y276304D01*
X155946Y276248D01*
X155914Y276194D01*
X155879Y276142D01*
X155841Y276093D01*
X155799Y276045D01*
X155755Y276001D01*
X155707Y275959D01*
X155658Y275921D01*
X155606Y275886D01*
X155552Y275854D01*
X155496Y275825D01*
X155438Y275800D01*
X155379Y275779D01*
X155319Y275761D01*
X155257Y275748D01*
X155195Y275738D01*
X155133Y275732D01*
X155070Y275730D01*
X155007Y275732D01*
X154945Y275738D01*
X154883Y275748D01*
X154821Y275761D01*
X154761Y275779D01*
X154702Y275800D01*
X154644Y275825D01*
X154588Y275854D01*
X154534Y275886D01*
X154482Y275921D01*
X154433Y275959D01*
X154385Y276001D01*
X154341Y276045D01*
X154299Y276093D01*
X154261Y276142D01*
X154226Y276194D01*
X154194Y276248D01*
X154165Y276304D01*
X154140Y276362D01*
X154119Y276421D01*
X154101Y276481D01*
X154088Y276543D01*
X154078Y276605D01*
X154072Y276667D01*
X154070Y276730D01*
D12*
X164418Y384520D02*
X164420Y384556D01*
X164426Y384591D01*
X164435Y384626D01*
X164449Y384659D01*
X164466Y384691D01*
X164486Y384721D01*
X164509Y384748D01*
X164535Y384773D01*
X164564Y384795D01*
X164594Y384813D01*
X164627Y384828D01*
X164661Y384840D01*
X164696Y384848D01*
X164732Y384852D01*
X164768Y384852D01*
X164804Y384848D01*
X164839Y384840D01*
X164873Y384828D01*
X164906Y384813D01*
X164936Y384795D01*
X164965Y384773D01*
X164991Y384748D01*
X165014Y384721D01*
X165034Y384691D01*
X165051Y384659D01*
X165065Y384626D01*
X165074Y384591D01*
X165080Y384556D01*
X165082Y384520D01*
X165080Y384484D01*
X165074Y384449D01*
X165065Y384414D01*
X165051Y384381D01*
X165034Y384349D01*
X165014Y384319D01*
X164991Y384292D01*
X164965Y384267D01*
X164936Y384245D01*
X164906Y384227D01*
X164873Y384212D01*
X164839Y384200D01*
X164804Y384192D01*
X164768Y384188D01*
X164732Y384188D01*
X164696Y384192D01*
X164661Y384200D01*
X164627Y384212D01*
X164594Y384227D01*
X164564Y384245D01*
X164535Y384267D01*
X164509Y384292D01*
X164486Y384319D01*
X164466Y384349D01*
X164449Y384381D01*
X164435Y384414D01*
X164426Y384449D01*
X164420Y384484D01*
X164418Y384520D01*
D10*
X271280Y255575D02*
X271282Y255619D01*
X271288Y255663D01*
X271298Y255706D01*
X271311Y255748D01*
X271328Y255789D01*
X271349Y255828D01*
X271373Y255865D01*
X271400Y255900D01*
X271430Y255932D01*
X271463Y255962D01*
X271499Y255988D01*
X271536Y256012D01*
X271576Y256031D01*
X271617Y256048D01*
X271660Y256060D01*
X271703Y256069D01*
X271747Y256074D01*
X271791Y256075D01*
X271835Y256072D01*
X271879Y256065D01*
X271922Y256054D01*
X271964Y256040D01*
X272004Y256022D01*
X272043Y256000D01*
X272079Y255976D01*
X272113Y255948D01*
X272145Y255917D01*
X272174Y255883D01*
X272200Y255847D01*
X272222Y255809D01*
X272241Y255769D01*
X272256Y255727D01*
X272268Y255685D01*
X272276Y255641D01*
X272280Y255597D01*
X272280Y255553D01*
X272276Y255509D01*
X272268Y255465D01*
X272256Y255423D01*
X272241Y255381D01*
X272222Y255341D01*
X272200Y255303D01*
X272174Y255267D01*
X272145Y255233D01*
X272113Y255202D01*
X272079Y255174D01*
X272043Y255150D01*
X272004Y255128D01*
X271964Y255110D01*
X271922Y255096D01*
X271879Y255085D01*
X271835Y255078D01*
X271791Y255075D01*
X271747Y255076D01*
X271703Y255081D01*
X271660Y255090D01*
X271617Y255102D01*
X271576Y255119D01*
X271536Y255138D01*
X271499Y255162D01*
X271463Y255188D01*
X271430Y255218D01*
X271400Y255250D01*
X271373Y255285D01*
X271349Y255322D01*
X271328Y255361D01*
X271311Y255402D01*
X271298Y255444D01*
X271288Y255487D01*
X271282Y255531D01*
X271280Y255575D01*
D13*
X92960Y227990D02*
X92958Y227960D01*
X92953Y227930D01*
X92944Y227901D01*
X92931Y227874D01*
X92916Y227848D01*
X92897Y227824D01*
X92876Y227803D01*
X92852Y227784D01*
X92826Y227769D01*
X92799Y227756D01*
X92770Y227747D01*
X92740Y227742D01*
X92710Y227740D01*
X92680Y227742D01*
X92650Y227747D01*
X92621Y227756D01*
X92594Y227769D01*
X92568Y227784D01*
X92544Y227803D01*
X92523Y227824D01*
X92504Y227848D01*
X92489Y227874D01*
X92476Y227901D01*
X92467Y227930D01*
X92462Y227960D01*
X92460Y227990D01*
X92462Y228020D01*
X92467Y228050D01*
X92476Y228079D01*
X92489Y228106D01*
X92504Y228132D01*
X92523Y228156D01*
X92544Y228177D01*
X92568Y228196D01*
X92594Y228211D01*
X92621Y228224D01*
X92650Y228233D01*
X92680Y228238D01*
X92710Y228240D01*
X92740Y228238D01*
X92770Y228233D01*
X92799Y228224D01*
X92826Y228211D01*
X92852Y228196D01*
X92876Y228177D01*
X92897Y228156D01*
X92916Y228132D01*
X92931Y228106D01*
X92944Y228079D01*
X92953Y228050D01*
X92958Y228020D01*
X92960Y227990D01*
D10*
X88400Y188925D02*
X88402Y188969D01*
X88408Y189013D01*
X88418Y189056D01*
X88431Y189098D01*
X88448Y189139D01*
X88469Y189178D01*
X88493Y189215D01*
X88520Y189250D01*
X88550Y189282D01*
X88583Y189312D01*
X88619Y189338D01*
X88656Y189362D01*
X88696Y189381D01*
X88737Y189398D01*
X88780Y189410D01*
X88823Y189419D01*
X88867Y189424D01*
X88911Y189425D01*
X88955Y189422D01*
X88999Y189415D01*
X89042Y189404D01*
X89084Y189390D01*
X89124Y189372D01*
X89163Y189350D01*
X89199Y189326D01*
X89233Y189298D01*
X89265Y189267D01*
X89294Y189233D01*
X89320Y189197D01*
X89342Y189159D01*
X89361Y189119D01*
X89376Y189077D01*
X89388Y189035D01*
X89396Y188991D01*
X89400Y188947D01*
X89400Y188903D01*
X89396Y188859D01*
X89388Y188815D01*
X89376Y188773D01*
X89361Y188731D01*
X89342Y188691D01*
X89320Y188653D01*
X89294Y188617D01*
X89265Y188583D01*
X89233Y188552D01*
X89199Y188524D01*
X89163Y188500D01*
X89124Y188478D01*
X89084Y188460D01*
X89042Y188446D01*
X88999Y188435D01*
X88955Y188428D01*
X88911Y188425D01*
X88867Y188426D01*
X88823Y188431D01*
X88780Y188440D01*
X88737Y188452D01*
X88696Y188469D01*
X88656Y188488D01*
X88619Y188512D01*
X88583Y188538D01*
X88550Y188568D01*
X88520Y188600D01*
X88493Y188635D01*
X88469Y188672D01*
X88448Y188711D01*
X88431Y188752D01*
X88418Y188794D01*
X88408Y188837D01*
X88402Y188881D01*
X88400Y188925D01*
X224290Y256845D02*
X224292Y256889D01*
X224298Y256933D01*
X224308Y256976D01*
X224321Y257018D01*
X224338Y257059D01*
X224359Y257098D01*
X224383Y257135D01*
X224410Y257170D01*
X224440Y257202D01*
X224473Y257232D01*
X224509Y257258D01*
X224546Y257282D01*
X224586Y257301D01*
X224627Y257318D01*
X224670Y257330D01*
X224713Y257339D01*
X224757Y257344D01*
X224801Y257345D01*
X224845Y257342D01*
X224889Y257335D01*
X224932Y257324D01*
X224974Y257310D01*
X225014Y257292D01*
X225053Y257270D01*
X225089Y257246D01*
X225123Y257218D01*
X225155Y257187D01*
X225184Y257153D01*
X225210Y257117D01*
X225232Y257079D01*
X225251Y257039D01*
X225266Y256997D01*
X225278Y256955D01*
X225286Y256911D01*
X225290Y256867D01*
X225290Y256823D01*
X225286Y256779D01*
X225278Y256735D01*
X225266Y256693D01*
X225251Y256651D01*
X225232Y256611D01*
X225210Y256573D01*
X225184Y256537D01*
X225155Y256503D01*
X225123Y256472D01*
X225089Y256444D01*
X225053Y256420D01*
X225014Y256398D01*
X224974Y256380D01*
X224932Y256366D01*
X224889Y256355D01*
X224845Y256348D01*
X224801Y256345D01*
X224757Y256346D01*
X224713Y256351D01*
X224670Y256360D01*
X224627Y256372D01*
X224586Y256389D01*
X224546Y256408D01*
X224509Y256432D01*
X224473Y256458D01*
X224440Y256488D01*
X224410Y256520D01*
X224383Y256555D01*
X224359Y256592D01*
X224338Y256631D01*
X224321Y256672D01*
X224308Y256714D01*
X224298Y256757D01*
X224292Y256801D01*
X224290Y256845D01*
X270010Y341325D02*
X270012Y341369D01*
X270018Y341413D01*
X270028Y341456D01*
X270041Y341498D01*
X270058Y341539D01*
X270079Y341578D01*
X270103Y341615D01*
X270130Y341650D01*
X270160Y341682D01*
X270193Y341712D01*
X270229Y341738D01*
X270266Y341762D01*
X270306Y341781D01*
X270347Y341798D01*
X270390Y341810D01*
X270433Y341819D01*
X270477Y341824D01*
X270521Y341825D01*
X270565Y341822D01*
X270609Y341815D01*
X270652Y341804D01*
X270694Y341790D01*
X270734Y341772D01*
X270773Y341750D01*
X270809Y341726D01*
X270843Y341698D01*
X270875Y341667D01*
X270904Y341633D01*
X270930Y341597D01*
X270952Y341559D01*
X270971Y341519D01*
X270986Y341477D01*
X270998Y341435D01*
X271006Y341391D01*
X271010Y341347D01*
X271010Y341303D01*
X271006Y341259D01*
X270998Y341215D01*
X270986Y341173D01*
X270971Y341131D01*
X270952Y341091D01*
X270930Y341053D01*
X270904Y341017D01*
X270875Y340983D01*
X270843Y340952D01*
X270809Y340924D01*
X270773Y340900D01*
X270734Y340878D01*
X270694Y340860D01*
X270652Y340846D01*
X270609Y340835D01*
X270565Y340828D01*
X270521Y340825D01*
X270477Y340826D01*
X270433Y340831D01*
X270390Y340840D01*
X270347Y340852D01*
X270306Y340869D01*
X270266Y340888D01*
X270229Y340912D01*
X270193Y340938D01*
X270160Y340968D01*
X270130Y341000D01*
X270103Y341035D01*
X270079Y341072D01*
X270058Y341111D01*
X270041Y341152D01*
X270028Y341194D01*
X270018Y341237D01*
X270012Y341281D01*
X270010Y341325D01*
D13*
X225040Y216560D02*
X225038Y216530D01*
X225033Y216500D01*
X225024Y216471D01*
X225011Y216444D01*
X224996Y216418D01*
X224977Y216394D01*
X224956Y216373D01*
X224932Y216354D01*
X224906Y216339D01*
X224879Y216326D01*
X224850Y216317D01*
X224820Y216312D01*
X224790Y216310D01*
X224760Y216312D01*
X224730Y216317D01*
X224701Y216326D01*
X224674Y216339D01*
X224648Y216354D01*
X224624Y216373D01*
X224603Y216394D01*
X224584Y216418D01*
X224569Y216444D01*
X224556Y216471D01*
X224547Y216500D01*
X224542Y216530D01*
X224540Y216560D01*
X224542Y216590D01*
X224547Y216620D01*
X224556Y216649D01*
X224569Y216676D01*
X224584Y216702D01*
X224603Y216726D01*
X224624Y216747D01*
X224648Y216766D01*
X224674Y216781D01*
X224701Y216794D01*
X224730Y216803D01*
X224760Y216808D01*
X224790Y216810D01*
X224820Y216808D01*
X224850Y216803D01*
X224879Y216794D01*
X224906Y216781D01*
X224932Y216766D01*
X224956Y216747D01*
X224977Y216726D01*
X224996Y216702D01*
X225011Y216676D01*
X225024Y216649D01*
X225033Y216620D01*
X225038Y216590D01*
X225040Y216560D01*
X212700Y444250D02*
X212730Y444252D01*
X212760Y444257D01*
X212789Y444266D01*
X212816Y444279D01*
X212842Y444294D01*
X212866Y444313D01*
X212887Y444334D01*
X212906Y444358D01*
X212921Y444384D01*
X212934Y444411D01*
X212943Y444440D01*
X212948Y444470D01*
X212950Y444500D01*
X212948Y444530D01*
X212943Y444560D01*
X212934Y444589D01*
X212921Y444616D01*
X212906Y444642D01*
X212887Y444666D01*
X212866Y444687D01*
X212842Y444706D01*
X212816Y444721D01*
X212789Y444734D01*
X212760Y444743D01*
X212730Y444748D01*
X212700Y444750D01*
X212670Y444748D01*
X212640Y444743D01*
X212611Y444734D01*
X212584Y444721D01*
X212558Y444706D01*
X212534Y444687D01*
X212513Y444666D01*
X212494Y444642D01*
X212479Y444616D01*
X212466Y444589D01*
X212457Y444560D01*
X212452Y444530D01*
X212450Y444500D01*
X212452Y444470D01*
X212457Y444440D01*
X212466Y444411D01*
X212479Y444384D01*
X212494Y444358D01*
X212513Y444334D01*
X212534Y444313D01*
X212558Y444294D01*
X212584Y444279D01*
X212611Y444266D01*
X212640Y444257D01*
X212670Y444252D01*
X212700Y444250D01*
D10*
X99525Y444500D02*
X99527Y444544D01*
X99533Y444588D01*
X99543Y444631D01*
X99556Y444673D01*
X99573Y444714D01*
X99594Y444753D01*
X99618Y444790D01*
X99645Y444825D01*
X99675Y444857D01*
X99708Y444887D01*
X99744Y444913D01*
X99781Y444937D01*
X99821Y444956D01*
X99862Y444973D01*
X99905Y444985D01*
X99948Y444994D01*
X99992Y444999D01*
X100036Y445000D01*
X100080Y444997D01*
X100124Y444990D01*
X100167Y444979D01*
X100209Y444965D01*
X100249Y444947D01*
X100288Y444925D01*
X100324Y444901D01*
X100358Y444873D01*
X100390Y444842D01*
X100419Y444808D01*
X100445Y444772D01*
X100467Y444734D01*
X100486Y444694D01*
X100501Y444652D01*
X100513Y444610D01*
X100521Y444566D01*
X100525Y444522D01*
X100525Y444478D01*
X100521Y444434D01*
X100513Y444390D01*
X100501Y444348D01*
X100486Y444306D01*
X100467Y444266D01*
X100445Y444228D01*
X100419Y444192D01*
X100390Y444158D01*
X100358Y444127D01*
X100324Y444099D01*
X100288Y444075D01*
X100249Y444053D01*
X100209Y444035D01*
X100167Y444021D01*
X100124Y444010D01*
X100080Y444003D01*
X100036Y444000D01*
X99992Y444001D01*
X99948Y444006D01*
X99905Y444015D01*
X99862Y444027D01*
X99821Y444044D01*
X99781Y444063D01*
X99744Y444087D01*
X99708Y444113D01*
X99675Y444143D01*
X99645Y444175D01*
X99618Y444210D01*
X99594Y444247D01*
X99573Y444286D01*
X99556Y444327D01*
X99543Y444369D01*
X99533Y444412D01*
X99527Y444456D01*
X99525Y444500D01*
X224330Y332740D02*
X230330Y332740D01*
D13*
X79400Y216150D02*
X79370Y216148D01*
X79340Y216143D01*
X79311Y216134D01*
X79284Y216121D01*
X79258Y216106D01*
X79234Y216087D01*
X79213Y216066D01*
X79194Y216042D01*
X79179Y216016D01*
X79166Y215989D01*
X79157Y215960D01*
X79152Y215930D01*
X79150Y215900D01*
X79152Y215870D01*
X79157Y215840D01*
X79166Y215811D01*
X79179Y215784D01*
X79194Y215758D01*
X79213Y215734D01*
X79234Y215713D01*
X79258Y215694D01*
X79284Y215679D01*
X79311Y215666D01*
X79340Y215657D01*
X79370Y215652D01*
X79400Y215650D01*
X79430Y215652D01*
X79460Y215657D01*
X79489Y215666D01*
X79516Y215679D01*
X79542Y215694D01*
X79566Y215713D01*
X79587Y215734D01*
X79606Y215758D01*
X79621Y215784D01*
X79634Y215811D01*
X79643Y215840D01*
X79648Y215870D01*
X79650Y215900D01*
X79648Y215930D01*
X79643Y215960D01*
X79634Y215989D01*
X79621Y216016D01*
X79606Y216042D01*
X79587Y216066D01*
X79566Y216087D01*
X79542Y216106D01*
X79516Y216121D01*
X79489Y216134D01*
X79460Y216143D01*
X79430Y216148D01*
X79400Y216150D01*
D10*
X77275Y265430D02*
X77277Y265474D01*
X77283Y265518D01*
X77293Y265561D01*
X77306Y265603D01*
X77323Y265644D01*
X77344Y265683D01*
X77368Y265720D01*
X77395Y265755D01*
X77425Y265787D01*
X77458Y265817D01*
X77494Y265843D01*
X77531Y265867D01*
X77571Y265886D01*
X77612Y265903D01*
X77655Y265915D01*
X77698Y265924D01*
X77742Y265929D01*
X77786Y265930D01*
X77830Y265927D01*
X77874Y265920D01*
X77917Y265909D01*
X77959Y265895D01*
X77999Y265877D01*
X78038Y265855D01*
X78074Y265831D01*
X78108Y265803D01*
X78140Y265772D01*
X78169Y265738D01*
X78195Y265702D01*
X78217Y265664D01*
X78236Y265624D01*
X78251Y265582D01*
X78263Y265540D01*
X78271Y265496D01*
X78275Y265452D01*
X78275Y265408D01*
X78271Y265364D01*
X78263Y265320D01*
X78251Y265278D01*
X78236Y265236D01*
X78217Y265196D01*
X78195Y265158D01*
X78169Y265122D01*
X78140Y265088D01*
X78108Y265057D01*
X78074Y265029D01*
X78038Y265005D01*
X77999Y264983D01*
X77959Y264965D01*
X77917Y264951D01*
X77874Y264940D01*
X77830Y264933D01*
X77786Y264930D01*
X77742Y264931D01*
X77698Y264936D01*
X77655Y264945D01*
X77612Y264957D01*
X77571Y264974D01*
X77531Y264993D01*
X77494Y265017D01*
X77458Y265043D01*
X77425Y265073D01*
X77395Y265105D01*
X77368Y265140D01*
X77344Y265177D01*
X77323Y265216D01*
X77306Y265257D01*
X77293Y265299D01*
X77283Y265342D01*
X77277Y265386D01*
X77275Y265430D01*
D14*
X217330Y371000D02*
X217330Y421000D01*
X237330Y421000D01*
X237330Y371000D01*
X217330Y371000D01*
M02*
