G04 EAGLE Gerber RS-274X export*
G75*
%MOMM*%
%FSLAX34Y34*%
%LPD*%
%INSoldermask Top*%
%IPPOS*%
%AMOC8*
5,1,8,0,0,1.08239X$1,22.5*%
G01*
G04 Define Apertures*
%ADD10R,0.853200X0.823200*%
%ADD11R,0.823200X0.823200*%
%ADD12R,0.823200X0.763200*%
%ADD13R,0.823200X0.853200*%
%ADD14R,2.103200X0.703200*%
%ADD15R,2.203200X2.203200*%
%ADD16C,0.509200*%
%ADD17R,0.603200X0.453200*%
%ADD18R,0.603200X0.903200*%
%ADD19R,0.703200X0.678200*%
%ADD20R,0.678200X0.703200*%
%ADD21R,1.153200X1.103200*%
%ADD22R,1.703200X1.603200*%
D10*
X207600Y469900D03*
X198800Y469900D03*
D11*
X84400Y320040D03*
X93400Y320040D03*
D12*
X125730Y320320D03*
X125730Y329920D03*
D11*
X93400Y292100D03*
X84400Y292100D03*
D13*
X111760Y233090D03*
X111760Y241890D03*
D11*
X137740Y173990D03*
X146740Y173990D03*
D14*
X267970Y385010D03*
X267970Y410010D03*
D15*
X165100Y212090D03*
D16*
X160100Y271700D03*
X165100Y271700D03*
X170100Y271700D03*
X160100Y266700D03*
X170100Y266700D03*
X160100Y261700D03*
X165100Y261700D03*
X170100Y261700D03*
D17*
X165410Y379440D03*
X165410Y374940D03*
D18*
X172410Y377190D03*
D19*
X271780Y261575D03*
X271780Y271825D03*
X92710Y232370D03*
X92710Y242610D03*
X88900Y182925D03*
X88900Y172675D03*
X224790Y262845D03*
X224790Y273095D03*
X270510Y335325D03*
X270510Y325075D03*
X224790Y220940D03*
X224790Y231180D03*
D20*
X208320Y444500D03*
X198080Y444500D03*
X94025Y444500D03*
X83775Y444500D03*
D21*
X227330Y324740D03*
X227330Y340740D03*
D20*
X83780Y215900D03*
X94020Y215900D03*
X83775Y265430D03*
X94025Y265430D03*
D15*
X165100Y417830D03*
X267970Y444500D03*
X38100Y165100D03*
X177800Y326390D03*
X38100Y292100D03*
X38100Y249767D03*
X38100Y207433D03*
D22*
X227330Y381000D03*
X227330Y409000D03*
D15*
X125730Y373446D03*
M02*
