G04 EAGLE Gerber RS-274X export*
G75*
%MOMM*%
%FSLAX34Y34*%
%LPD*%
%INTop Copper*%
%IPPOS*%
%AMOC8*
5,1,8,0,0,1.08239X$1,22.5*%
G01*
G04 Define Apertures*
%ADD10R,0.620000X0.560000*%
%ADD11R,1.750000X1.100000*%
%ADD12R,0.400000X0.250000*%
%ADD13R,0.400000X0.700000*%
%ADD14R,0.950000X0.900000*%
%ADD15R,1.500000X1.400000*%
%ADD16R,0.800000X0.800000*%
%ADD17R,2.000000X2.000000*%
%ADD18C,0.152400*%
D10*
X139700Y192824D03*
X139700Y202424D03*
X114300Y192824D03*
X114300Y202424D03*
X88900Y192824D03*
X88900Y202424D03*
D11*
X177800Y116600D03*
X177800Y86600D03*
D12*
X110800Y116550D03*
X110800Y112050D03*
D13*
X117800Y114300D03*
D12*
X110800Y78450D03*
X110800Y73950D03*
D13*
X117800Y76200D03*
D12*
X110800Y40350D03*
X110800Y35850D03*
D13*
X117800Y38100D03*
D14*
X228600Y198500D03*
X228600Y182500D03*
X228600Y133626D03*
X228600Y117626D03*
X228600Y71500D03*
X228600Y55500D03*
D15*
X177800Y184024D03*
X177800Y156024D03*
D16*
X177800Y38100D03*
X177800Y53100D03*
D17*
X38100Y190500D03*
X38100Y152400D03*
X38100Y114300D03*
X38100Y76200D03*
X38100Y38100D03*
D18*
X89916Y202692D02*
X114300Y202692D01*
X89916Y202692D02*
X88900Y202424D01*
X114300Y202692D02*
X138684Y202692D01*
X139700Y202424D01*
X114300Y202424D02*
X114300Y202692D01*
X76200Y190500D02*
X38100Y190500D01*
X76200Y190500D02*
X88392Y202692D01*
X88900Y202424D01*
X110800Y35850D02*
X111252Y35052D01*
X111252Y73152D02*
X110800Y73950D01*
X111252Y111252D02*
X110800Y112050D01*
X38100Y176784D02*
X38100Y190500D01*
X38100Y176784D02*
X24384Y163068D01*
X24384Y103632D01*
X27432Y100584D01*
X99060Y100584D01*
X109728Y111252D01*
X110800Y112050D01*
X110800Y73950D02*
X94625Y57775D01*
X31125Y57775D01*
X24384Y64516D01*
X24384Y103632D01*
X110800Y35850D02*
X87650Y12700D01*
X25400Y12700D01*
X24384Y13716D01*
X24384Y64516D01*
X117800Y114300D02*
X135636Y114300D01*
X176784Y155448D01*
X177800Y156024D01*
X167640Y76200D02*
X117800Y76200D01*
X167640Y76200D02*
X176784Y85344D01*
X177800Y86600D01*
X177800Y38100D02*
X117800Y38100D01*
X178308Y182880D02*
X228600Y182880D01*
X228600Y182500D01*
X178308Y182880D02*
X177800Y184024D01*
X178308Y117348D02*
X228600Y117348D01*
X228600Y117626D01*
X178308Y117348D02*
X177800Y116600D01*
X178308Y53340D02*
X227076Y53340D01*
X228600Y54864D01*
X178308Y53340D02*
X177800Y53100D01*
X228600Y54864D02*
X228600Y55500D01*
X109728Y115824D02*
X39624Y115824D01*
X38100Y114300D01*
X109728Y115824D02*
X110800Y116550D01*
X109728Y77724D02*
X39624Y77724D01*
X38100Y76200D01*
X109728Y77724D02*
X110800Y78450D01*
X109728Y39624D02*
X39624Y39624D01*
X38100Y38100D01*
X109728Y39624D02*
X110800Y40350D01*
X228600Y71500D02*
X228600Y103632D01*
X236220Y111252D01*
X236220Y124968D01*
X228600Y132588D01*
X228600Y133626D01*
X228600Y195072D02*
X228600Y198500D01*
X228600Y195072D02*
X236220Y187452D01*
X236220Y141732D01*
X228600Y134112D01*
X228600Y133626D01*
X114300Y193548D02*
X89916Y193548D01*
X88900Y192824D01*
X114300Y193548D02*
X138684Y193548D01*
X139700Y192824D01*
X114300Y192824D02*
X114300Y193548D01*
X48768Y152400D02*
X38100Y152400D01*
X48768Y152400D02*
X88392Y192024D01*
X88900Y192824D01*
X141732Y195072D02*
X228600Y195072D01*
X141732Y195072D02*
X140208Y193548D01*
X228600Y198120D02*
X228600Y198500D01*
X140208Y193548D02*
X139700Y192824D01*
M02*
