G04 EAGLE Gerber RS-274X export*
G75*
%MOMM*%
%FSLAX34Y34*%
%LPD*%
%INTop Copper*%
%IPPOS*%
%AMOC8*
5,1,8,0,0,1.08239X$1,22.5*%
G01*
G04 Define Apertures*
%ADD10R,0.620000X0.560000*%
%ADD11R,1.900000X0.500000*%
%ADD12R,2.000000X2.000000*%
%ADD13R,0.400000X0.250000*%
%ADD14R,0.400000X0.700000*%
%ADD15R,0.950000X0.900000*%
%ADD16R,1.500000X1.400000*%
%ADD17C,0.152400*%
D10*
X78740Y131090D03*
X78740Y140690D03*
D11*
X118760Y77120D03*
X118760Y52120D03*
D12*
X25400Y127000D03*
D13*
X82240Y104430D03*
X82240Y108930D03*
D14*
X75240Y106680D03*
D15*
X119380Y134240D03*
X119380Y150240D03*
D12*
X25400Y88900D03*
X25400Y50800D03*
D16*
X160220Y77490D03*
X160220Y49490D03*
D12*
X25400Y165100D03*
D17*
X82296Y124968D02*
X82296Y109728D01*
X82296Y124968D02*
X85344Y128016D01*
X85344Y134112D01*
X79248Y140208D01*
X82296Y109728D02*
X82240Y108930D01*
X79248Y140208D02*
X78740Y140690D01*
X77724Y141732D02*
X48768Y141732D01*
X25400Y165100D01*
X77724Y141732D02*
X78740Y140690D01*
X80772Y103632D02*
X80772Y102108D01*
X68580Y89916D01*
X25908Y89916D01*
X80772Y103632D02*
X82240Y104430D01*
X25908Y89916D02*
X25400Y88900D01*
X28956Y131064D02*
X77724Y131064D01*
X28956Y131064D02*
X25908Y128016D01*
X77724Y131064D02*
X78740Y131090D01*
X25908Y128016D02*
X25400Y127000D01*
X118872Y134112D02*
X118872Y77724D01*
X118872Y134112D02*
X119380Y134240D01*
X118872Y77724D02*
X118760Y77120D01*
X66200Y188308D02*
X8890Y188308D01*
X66200Y188308D02*
X118872Y135636D01*
X28956Y131064D02*
X28881Y130979D01*
X25400Y127000D01*
X118872Y135636D02*
X119380Y134240D01*
X8890Y188308D02*
X922Y180340D01*
X922Y150000D01*
X19943Y130979D01*
X28881Y130979D01*
X20000Y106680D02*
X19812Y106680D01*
X20000Y106680D02*
X75240Y106680D01*
X160020Y50292D02*
X160220Y49490D01*
X19812Y106680D02*
X8542Y106680D01*
X922Y99060D01*
X922Y29210D01*
X9210Y20922D01*
X131652Y20922D01*
X160220Y49490D01*
X120396Y146304D02*
X120396Y149352D01*
X128350Y138350D02*
X160020Y106680D01*
X128350Y138350D02*
X120396Y146304D01*
X160020Y106680D02*
X160020Y77724D01*
X120396Y149352D02*
X119380Y150240D01*
X160020Y77724D02*
X160220Y77490D01*
X117348Y51816D02*
X25908Y51816D01*
X117348Y51816D02*
X118760Y52120D01*
X25908Y51816D02*
X25400Y50800D01*
M02*
