G04 EAGLE Gerber RS-274X export*
G75*
%MOMM*%
%FSLAX34Y34*%
%LPD*%
%INSilkscreen Top*%
%IPPOS*%
%AMOC8*
5,1,8,0,0,1.08239X$1,22.5*%
G01*
G04 Define Apertures*
%ADD10C,0.200000*%
%ADD11C,0.100000*%
%ADD12C,0.254000*%
%ADD13C,0.127000*%
G36*
X134508Y74153D02*
X128596Y74153D01*
X128596Y76108D01*
X128607Y76473D01*
X128643Y76817D01*
X128702Y77139D01*
X128784Y77439D01*
X128890Y77718D01*
X129019Y77976D01*
X129172Y78212D01*
X129349Y78427D01*
X129547Y78618D01*
X129765Y78784D01*
X130003Y78924D01*
X130261Y79039D01*
X130539Y79128D01*
X130836Y79192D01*
X131154Y79230D01*
X131491Y79243D01*
X131934Y79221D01*
X132349Y79154D01*
X132734Y79042D01*
X133092Y78886D01*
X133415Y78689D01*
X133698Y78455D01*
X133940Y78184D01*
X134143Y77875D01*
X134303Y77535D01*
X134417Y77170D01*
X134485Y76780D01*
X134508Y76364D01*
X134508Y74153D01*
G37*
%LPC*%
G36*
X133866Y74955D02*
X133866Y76272D01*
X133848Y76588D01*
X133795Y76883D01*
X133706Y77159D01*
X133581Y77416D01*
X133422Y77648D01*
X133232Y77851D01*
X133011Y78027D01*
X132758Y78173D01*
X132478Y78289D01*
X132173Y78371D01*
X131844Y78421D01*
X131491Y78437D01*
X131224Y78428D01*
X130974Y78400D01*
X130740Y78353D01*
X130522Y78287D01*
X130321Y78202D01*
X130136Y78099D01*
X129967Y77976D01*
X129815Y77835D01*
X129679Y77676D01*
X129562Y77500D01*
X129463Y77308D01*
X129382Y77098D01*
X129319Y76872D01*
X129274Y76629D01*
X129247Y76369D01*
X129238Y76092D01*
X129238Y74955D01*
X133866Y74955D01*
G37*
%LPD*%
G36*
X134508Y50278D02*
X128596Y50278D01*
X128596Y53060D01*
X128603Y53303D01*
X128624Y53531D01*
X128658Y53745D01*
X128707Y53945D01*
X128770Y54131D01*
X128847Y54302D01*
X128938Y54459D01*
X129043Y54602D01*
X129160Y54730D01*
X129288Y54840D01*
X129427Y54933D01*
X129577Y55010D01*
X129738Y55069D01*
X129910Y55112D01*
X130093Y55137D01*
X130287Y55146D01*
X130603Y55122D01*
X130893Y55050D01*
X131157Y54930D01*
X131394Y54762D01*
X131598Y54551D01*
X131711Y54379D01*
X131761Y54305D01*
X131881Y54022D01*
X131961Y53702D01*
X133045Y54417D01*
X134508Y55381D01*
X134508Y54457D01*
X132053Y52922D01*
X132053Y51080D01*
X134508Y51080D01*
X134508Y50278D01*
G37*
%LPC*%
G36*
X131420Y51080D02*
X131420Y53014D01*
X131401Y53313D01*
X131346Y53576D01*
X131253Y53803D01*
X131124Y53994D01*
X130961Y54145D01*
X130769Y54253D01*
X130547Y54318D01*
X130295Y54340D01*
X130052Y54318D01*
X129840Y54252D01*
X129659Y54143D01*
X129508Y53990D01*
X129390Y53795D01*
X129305Y53562D01*
X129255Y53291D01*
X129238Y52980D01*
X129238Y51080D01*
X131420Y51080D01*
G37*
%LPD*%
G36*
X132259Y60934D02*
X131971Y60941D01*
X131702Y60960D01*
X131452Y60993D01*
X131220Y61038D01*
X131006Y61097D01*
X130812Y61169D01*
X130635Y61254D01*
X130478Y61352D01*
X130338Y61462D01*
X130218Y61586D01*
X130116Y61723D01*
X130032Y61873D01*
X129967Y62037D01*
X129921Y62213D01*
X129893Y62402D01*
X129884Y62604D01*
X129896Y62851D01*
X129931Y63077D01*
X129990Y63281D01*
X130073Y63464D01*
X130181Y63628D01*
X130317Y63775D01*
X130481Y63905D01*
X130673Y64018D01*
X130673Y64027D01*
X130165Y64018D01*
X128281Y64018D01*
X128281Y64773D01*
X133572Y64773D01*
X134161Y64780D01*
X134508Y64799D01*
X134508Y64077D01*
X134198Y64050D01*
X133778Y64035D01*
X133778Y64018D01*
X133981Y63905D01*
X134152Y63774D01*
X134293Y63627D01*
X134403Y63462D01*
X134486Y63279D01*
X134545Y63075D01*
X134580Y62850D01*
X134592Y62604D01*
X134583Y62396D01*
X134556Y62202D01*
X134510Y62023D01*
X134447Y61858D01*
X134366Y61707D01*
X134266Y61570D01*
X134149Y61447D01*
X134013Y61339D01*
X133859Y61244D01*
X133686Y61162D01*
X133495Y61092D01*
X133285Y61035D01*
X133056Y60991D01*
X132809Y60959D01*
X132543Y60940D01*
X132259Y60934D01*
G37*
%LPC*%
G36*
X132234Y61727D02*
X132676Y61743D01*
X133051Y61790D01*
X133358Y61869D01*
X133597Y61979D01*
X133777Y62124D01*
X133906Y62309D01*
X133951Y62416D01*
X133983Y62534D01*
X134002Y62660D01*
X134009Y62797D01*
X134002Y62952D01*
X133981Y63096D01*
X133946Y63229D01*
X133897Y63351D01*
X133835Y63462D01*
X133758Y63562D01*
X133668Y63651D01*
X133576Y63719D01*
X133564Y63729D01*
X133311Y63855D01*
X132996Y63946D01*
X132621Y64000D01*
X132183Y64018D01*
X131762Y64000D01*
X131402Y63946D01*
X131102Y63855D01*
X130862Y63729D01*
X130763Y63651D01*
X130678Y63562D01*
X130606Y63463D01*
X130547Y63353D01*
X130501Y63232D01*
X130468Y63101D01*
X130449Y62959D01*
X130442Y62805D01*
X130449Y62668D01*
X130468Y62540D01*
X130501Y62422D01*
X130547Y62314D01*
X130607Y62216D01*
X130679Y62128D01*
X130864Y61981D01*
X131107Y61870D01*
X131417Y61791D01*
X131792Y61743D01*
X132234Y61727D01*
G37*
%LPD*%
G36*
X134508Y68434D02*
X128596Y68434D01*
X128596Y70923D01*
X128603Y71164D01*
X128625Y71392D01*
X128661Y71605D01*
X128712Y71805D01*
X128778Y71990D01*
X128858Y72162D01*
X128952Y72319D01*
X129061Y72463D01*
X129184Y72591D01*
X129318Y72701D01*
X129464Y72795D01*
X129623Y72872D01*
X129793Y72931D01*
X129975Y72974D01*
X130169Y73000D01*
X130375Y73008D01*
X130579Y73000D01*
X130773Y72974D01*
X130956Y72931D01*
X131128Y72871D01*
X131289Y72794D01*
X131440Y72700D01*
X131580Y72589D01*
X131709Y72461D01*
X131825Y72318D01*
X131926Y72162D01*
X132011Y71995D01*
X132081Y71815D01*
X132135Y71623D01*
X132173Y71418D01*
X132197Y71202D01*
X132204Y70973D01*
X132204Y69236D01*
X134508Y69236D01*
X134508Y68434D01*
G37*
%LPC*%
G36*
X131571Y69236D02*
X131571Y70860D01*
X131552Y71174D01*
X131496Y71447D01*
X131404Y71678D01*
X131274Y71867D01*
X131107Y72014D01*
X130903Y72119D01*
X130662Y72182D01*
X130383Y72202D01*
X130115Y72181D01*
X129882Y72116D01*
X129685Y72009D01*
X129524Y71858D01*
X129399Y71665D01*
X129309Y71428D01*
X129256Y71149D01*
X129238Y70826D01*
X129238Y69236D01*
X131571Y69236D01*
G37*
%LPD*%
G36*
X132209Y56157D02*
X131936Y56165D01*
X131679Y56190D01*
X131439Y56231D01*
X131215Y56289D01*
X131008Y56363D01*
X130817Y56453D01*
X130642Y56560D01*
X130484Y56684D01*
X130343Y56822D01*
X130221Y56975D01*
X130118Y57142D01*
X130034Y57323D01*
X129968Y57518D01*
X129921Y57727D01*
X129893Y57951D01*
X129884Y58188D01*
X129893Y58430D01*
X129922Y58657D01*
X129969Y58868D01*
X130035Y59064D01*
X130119Y59243D01*
X130223Y59408D01*
X130346Y59556D01*
X130487Y59689D01*
X130647Y59806D01*
X130826Y59908D01*
X131024Y59994D01*
X131241Y60064D01*
X131477Y60119D01*
X131731Y60158D01*
X132004Y60182D01*
X132297Y60189D01*
X132397Y60189D01*
X132397Y56950D01*
X132765Y56970D01*
X133089Y57031D01*
X133367Y57132D01*
X133602Y57273D01*
X133787Y57453D01*
X133860Y57557D01*
X133920Y57671D01*
X133966Y57793D01*
X133999Y57925D01*
X134019Y58067D01*
X134025Y58217D01*
X134013Y58451D01*
X133976Y58659D01*
X133915Y58844D01*
X133828Y59004D01*
X133723Y59140D01*
X133605Y59252D01*
X133473Y59340D01*
X133329Y59405D01*
X133518Y60068D01*
X133770Y59950D01*
X133988Y59799D01*
X134172Y59617D01*
X134323Y59402D01*
X134441Y59154D01*
X134525Y58874D01*
X134575Y58562D01*
X134592Y58217D01*
X134583Y57973D01*
X134554Y57744D01*
X134508Y57530D01*
X134442Y57330D01*
X134358Y57146D01*
X134254Y56977D01*
X134133Y56823D01*
X133992Y56684D01*
X133833Y56560D01*
X133655Y56453D01*
X133460Y56363D01*
X133246Y56289D01*
X133014Y56231D01*
X132764Y56190D01*
X132495Y56165D01*
X132209Y56157D01*
G37*
%LPC*%
G36*
X131818Y56958D02*
X131818Y59409D01*
X131484Y59363D01*
X131198Y59286D01*
X130960Y59180D01*
X130771Y59044D01*
X130627Y58876D01*
X130524Y58676D01*
X130463Y58442D01*
X130442Y58175D01*
X130465Y57915D01*
X130534Y57683D01*
X130648Y57479D01*
X130809Y57305D01*
X131010Y57163D01*
X131245Y57058D01*
X131514Y56989D01*
X131818Y56958D01*
G37*
%LPD*%
G36*
X26223Y142000D02*
X24011Y142000D01*
X24011Y147912D01*
X25967Y147912D01*
X26331Y147901D01*
X26675Y147865D01*
X26997Y147806D01*
X27297Y147724D01*
X27576Y147618D01*
X27834Y147489D01*
X28070Y147336D01*
X28285Y147159D01*
X28476Y146961D01*
X28642Y146743D01*
X28782Y146505D01*
X28897Y146247D01*
X28986Y145969D01*
X29050Y145672D01*
X29088Y145354D01*
X29101Y145017D01*
X29079Y144574D01*
X29012Y144159D01*
X28901Y143774D01*
X28744Y143416D01*
X28548Y143093D01*
X28313Y142810D01*
X28042Y142568D01*
X27733Y142365D01*
X27393Y142205D01*
X27028Y142091D01*
X26638Y142023D01*
X26223Y142000D01*
G37*
%LPC*%
G36*
X26130Y142642D02*
X26446Y142660D01*
X26741Y142713D01*
X27017Y142803D01*
X27274Y142927D01*
X27506Y143086D01*
X27710Y143276D01*
X27885Y143497D01*
X28031Y143750D01*
X28147Y144030D01*
X28229Y144335D01*
X28279Y144664D01*
X28295Y145017D01*
X28286Y145284D01*
X28258Y145534D01*
X28211Y145768D01*
X28145Y145986D01*
X28060Y146187D01*
X27957Y146372D01*
X27834Y146541D01*
X27693Y146693D01*
X27534Y146829D01*
X27359Y146946D01*
X27166Y147045D01*
X26956Y147126D01*
X26730Y147189D01*
X26487Y147234D01*
X26227Y147261D01*
X25950Y147270D01*
X24813Y147270D01*
X24813Y142642D01*
X26130Y142642D01*
G37*
%LPD*%
G36*
X18506Y142000D02*
X17792Y142000D01*
X17792Y147912D01*
X18724Y147912D01*
X21921Y142843D01*
X21884Y143553D01*
X21871Y144035D01*
X21871Y147912D01*
X22593Y147912D01*
X22593Y142000D01*
X21628Y142000D01*
X18464Y147035D01*
X18485Y146628D01*
X18506Y145928D01*
X18506Y142000D01*
G37*
G36*
X13811Y141916D02*
X13364Y141939D01*
X12948Y142008D01*
X12564Y142124D01*
X12213Y142285D01*
X11897Y142490D01*
X11621Y142736D01*
X11384Y143022D01*
X11187Y143349D01*
X11032Y143712D01*
X10921Y144105D01*
X10854Y144529D01*
X10832Y144983D01*
X10844Y145333D01*
X10880Y145662D01*
X10941Y145971D01*
X11025Y146260D01*
X11134Y146529D01*
X11267Y146777D01*
X11423Y147004D01*
X11604Y147212D01*
X11807Y147397D01*
X12029Y147557D01*
X12271Y147692D01*
X12533Y147803D01*
X12814Y147890D01*
X13114Y147951D01*
X13434Y147988D01*
X13774Y148001D01*
X14242Y147980D01*
X14663Y147918D01*
X15039Y147814D01*
X15368Y147669D01*
X15657Y147478D01*
X15911Y147238D01*
X16129Y146948D01*
X16312Y146607D01*
X15549Y146381D01*
X15411Y146616D01*
X15249Y146816D01*
X15064Y146983D01*
X14854Y147115D01*
X14619Y147216D01*
X14358Y147288D01*
X14069Y147331D01*
X13753Y147346D01*
X13504Y147336D01*
X13271Y147307D01*
X13053Y147259D01*
X12850Y147191D01*
X12661Y147104D01*
X12488Y146998D01*
X12330Y146872D01*
X12188Y146727D01*
X12061Y146564D01*
X11951Y146386D01*
X11858Y146192D01*
X11782Y145982D01*
X11722Y145756D01*
X11680Y145514D01*
X11655Y145257D01*
X11646Y144983D01*
X11655Y144711D01*
X11682Y144453D01*
X11727Y144210D01*
X11790Y143981D01*
X11871Y143767D01*
X11970Y143568D01*
X12086Y143384D01*
X12221Y143215D01*
X12372Y143063D01*
X12536Y142931D01*
X12714Y142820D01*
X12906Y142729D01*
X13112Y142658D01*
X13331Y142607D01*
X13564Y142577D01*
X13811Y142566D01*
X14096Y142577D01*
X14371Y142611D01*
X14636Y142666D01*
X14892Y142743D01*
X15131Y142839D01*
X15346Y142950D01*
X15537Y143078D01*
X15704Y143221D01*
X15704Y144287D01*
X13937Y144287D01*
X13937Y144958D01*
X16442Y144958D01*
X16442Y142919D01*
X16194Y142693D01*
X15920Y142495D01*
X15618Y142323D01*
X15291Y142178D01*
X14942Y142064D01*
X14580Y141982D01*
X14203Y141932D01*
X13811Y141916D01*
G37*
G36*
X96623Y94658D02*
X96382Y94668D01*
X96157Y94696D01*
X95946Y94743D01*
X95751Y94810D01*
X95570Y94895D01*
X95405Y94999D01*
X95256Y95122D01*
X95121Y95264D01*
X95002Y95424D01*
X94899Y95601D01*
X94812Y95795D01*
X94740Y96006D01*
X94685Y96233D01*
X94645Y96477D01*
X94621Y96738D01*
X94613Y97016D01*
X94621Y97301D01*
X94645Y97567D01*
X94685Y97815D01*
X94741Y98044D01*
X94812Y98256D01*
X94900Y98448D01*
X95003Y98623D01*
X95122Y98779D01*
X95257Y98916D01*
X95408Y99036D01*
X95575Y99137D01*
X95758Y99219D01*
X95957Y99284D01*
X96172Y99329D01*
X96402Y99357D01*
X96649Y99366D01*
X96900Y99357D01*
X97134Y99330D01*
X97352Y99286D01*
X97552Y99223D01*
X97735Y99142D01*
X97900Y99044D01*
X98049Y98928D01*
X98180Y98793D01*
X98295Y98640D01*
X98395Y98468D01*
X98479Y98275D01*
X98548Y98063D01*
X98602Y97831D01*
X98640Y97579D01*
X98663Y97308D01*
X98671Y97016D01*
X98663Y96728D01*
X98638Y96458D01*
X98597Y96208D01*
X98540Y95977D01*
X98466Y95764D01*
X98376Y95571D01*
X98269Y95397D01*
X98147Y95241D01*
X98008Y95105D01*
X97855Y94986D01*
X97686Y94886D01*
X97503Y94804D01*
X97306Y94740D01*
X97093Y94695D01*
X96866Y94667D01*
X96623Y94658D01*
G37*
%LPC*%
G36*
X96615Y95216D02*
X96779Y95223D01*
X96931Y95243D01*
X97070Y95278D01*
X97198Y95325D01*
X97313Y95387D01*
X97416Y95462D01*
X97507Y95550D01*
X97586Y95653D01*
X97714Y95901D01*
X97805Y96212D01*
X97860Y96583D01*
X97878Y97016D01*
X97861Y97454D01*
X97808Y97828D01*
X97721Y98137D01*
X97599Y98382D01*
X97523Y98482D01*
X97436Y98569D01*
X97336Y98642D01*
X97225Y98702D01*
X97102Y98748D01*
X96967Y98781D01*
X96820Y98801D01*
X96661Y98808D01*
X96501Y98801D01*
X96353Y98781D01*
X96215Y98747D01*
X96090Y98700D01*
X95976Y98638D01*
X95873Y98564D01*
X95782Y98476D01*
X95702Y98374D01*
X95573Y98126D01*
X95480Y97817D01*
X95425Y97447D01*
X95406Y97016D01*
X95425Y96595D01*
X95479Y96230D01*
X95570Y95921D01*
X95698Y95667D01*
X95776Y95562D01*
X95865Y95470D01*
X95964Y95392D01*
X96073Y95329D01*
X96193Y95280D01*
X96323Y95244D01*
X96464Y95223D01*
X96615Y95216D01*
G37*
%LPD*%
G36*
X73521Y94658D02*
X73200Y94681D01*
X72922Y94748D01*
X72686Y94861D01*
X72493Y95019D01*
X72342Y95216D01*
X72235Y95447D01*
X72170Y95711D01*
X72149Y96009D01*
X72156Y96180D01*
X72178Y96341D01*
X72214Y96492D01*
X72265Y96632D01*
X72330Y96763D01*
X72410Y96883D01*
X72504Y96992D01*
X72612Y97092D01*
X72737Y97181D01*
X72880Y97259D01*
X73040Y97326D01*
X73218Y97381D01*
X73414Y97426D01*
X73628Y97460D01*
X74108Y97495D01*
X75128Y97511D01*
X75128Y97759D01*
X75113Y98016D01*
X75069Y98234D01*
X74996Y98413D01*
X74893Y98552D01*
X74759Y98657D01*
X74591Y98732D01*
X74390Y98776D01*
X74155Y98791D01*
X73918Y98781D01*
X73716Y98748D01*
X73549Y98695D01*
X73416Y98619D01*
X73312Y98520D01*
X73231Y98396D01*
X73174Y98246D01*
X73139Y98070D01*
X72350Y98141D01*
X72421Y98428D01*
X72536Y98677D01*
X72697Y98888D01*
X72902Y99060D01*
X73152Y99194D01*
X73447Y99290D01*
X73787Y99347D01*
X74171Y99366D01*
X74379Y99360D01*
X74573Y99342D01*
X74754Y99311D01*
X74921Y99268D01*
X75076Y99213D01*
X75217Y99145D01*
X75345Y99066D01*
X75460Y98974D01*
X75561Y98870D01*
X75649Y98756D01*
X75723Y98630D01*
X75784Y98494D01*
X75831Y98347D01*
X75865Y98188D01*
X75885Y98019D01*
X75892Y97839D01*
X75892Y95883D01*
X75914Y95589D01*
X75941Y95473D01*
X75980Y95378D01*
X76034Y95303D01*
X76108Y95250D01*
X76202Y95218D01*
X76316Y95208D01*
X76563Y95237D01*
X76563Y94767D01*
X76275Y94717D01*
X75980Y94700D01*
X75784Y94714D01*
X75617Y94755D01*
X75479Y94824D01*
X75369Y94920D01*
X75284Y95046D01*
X75220Y95203D01*
X75176Y95391D01*
X75153Y95611D01*
X75128Y95611D01*
X74977Y95369D01*
X74815Y95166D01*
X74641Y95001D01*
X74455Y94874D01*
X74252Y94780D01*
X74029Y94712D01*
X73785Y94672D01*
X73521Y94658D01*
G37*
%LPC*%
G36*
X73693Y95225D02*
X73895Y95236D01*
X74085Y95272D01*
X74264Y95331D01*
X74432Y95413D01*
X74585Y95517D01*
X74721Y95637D01*
X74839Y95776D01*
X74941Y95932D01*
X75023Y96097D01*
X75081Y96266D01*
X75116Y96436D01*
X75128Y96609D01*
X75128Y96983D01*
X74301Y96966D01*
X74051Y96956D01*
X73833Y96934D01*
X73647Y96901D01*
X73494Y96857D01*
X73364Y96800D01*
X73251Y96729D01*
X73153Y96644D01*
X73072Y96546D01*
X73008Y96433D01*
X72962Y96304D01*
X72934Y96158D01*
X72925Y95997D01*
X72938Y95823D01*
X72975Y95669D01*
X73037Y95537D01*
X73124Y95426D01*
X73235Y95338D01*
X73366Y95275D01*
X73519Y95237D01*
X73693Y95225D01*
G37*
%LPD*%
G36*
X77916Y94742D02*
X77161Y94742D01*
X77161Y98313D01*
X77155Y98952D01*
X77136Y99282D01*
X77849Y99282D01*
X77857Y99169D01*
X77868Y98957D01*
X77883Y98506D01*
X77895Y98506D01*
X78030Y98724D01*
X78176Y98907D01*
X78331Y99056D01*
X78497Y99171D01*
X78679Y99256D01*
X78881Y99317D01*
X79104Y99354D01*
X79347Y99366D01*
X79695Y99343D01*
X79851Y99314D01*
X79994Y99273D01*
X80124Y99221D01*
X80242Y99157D01*
X80347Y99082D01*
X80440Y98995D01*
X80521Y98894D01*
X80592Y98779D01*
X80651Y98648D01*
X80700Y98502D01*
X80765Y98165D01*
X80786Y97767D01*
X80786Y94742D01*
X80027Y94742D01*
X80027Y97621D01*
X80021Y97832D01*
X80005Y98019D01*
X79977Y98181D01*
X79939Y98317D01*
X79888Y98432D01*
X79824Y98530D01*
X79748Y98611D01*
X79658Y98674D01*
X79550Y98722D01*
X79419Y98756D01*
X79267Y98776D01*
X79091Y98783D01*
X78833Y98760D01*
X78603Y98690D01*
X78403Y98573D01*
X78231Y98409D01*
X78093Y98205D01*
X77995Y97964D01*
X77936Y97686D01*
X77916Y97373D01*
X77916Y94742D01*
G37*
G36*
X83490Y94658D02*
X83091Y94676D01*
X82740Y94728D01*
X82437Y94815D01*
X82183Y94937D01*
X81974Y95096D01*
X81804Y95294D01*
X81675Y95532D01*
X81585Y95808D01*
X82253Y95938D01*
X82314Y95768D01*
X82401Y95622D01*
X82513Y95500D01*
X82651Y95403D01*
X82817Y95329D01*
X83012Y95275D01*
X83237Y95244D01*
X83490Y95233D01*
X83759Y95244D01*
X83988Y95277D01*
X84179Y95332D01*
X84332Y95409D01*
X84448Y95508D01*
X84532Y95629D01*
X84582Y95773D01*
X84598Y95938D01*
X84587Y96066D01*
X84552Y96181D01*
X84494Y96284D01*
X84414Y96374D01*
X84307Y96455D01*
X84172Y96527D01*
X84009Y96593D01*
X83818Y96651D01*
X83276Y96794D01*
X82720Y96960D01*
X82512Y97042D01*
X82351Y97123D01*
X82106Y97302D01*
X82006Y97405D01*
X81921Y97516D01*
X81853Y97638D01*
X81805Y97773D01*
X81776Y97921D01*
X81766Y98082D01*
X81773Y98233D01*
X81794Y98374D01*
X81828Y98506D01*
X81877Y98629D01*
X81939Y98743D01*
X82015Y98847D01*
X82209Y99028D01*
X82455Y99171D01*
X82752Y99272D01*
X83100Y99333D01*
X83499Y99354D01*
X83855Y99337D01*
X84173Y99287D01*
X84452Y99205D01*
X84693Y99089D01*
X84894Y98937D01*
X85054Y98745D01*
X85174Y98513D01*
X85253Y98242D01*
X84573Y98158D01*
X84528Y98300D01*
X84457Y98425D01*
X84359Y98532D01*
X84235Y98621D01*
X84086Y98692D01*
X83914Y98743D01*
X83718Y98773D01*
X83499Y98783D01*
X83260Y98773D01*
X83054Y98744D01*
X82882Y98696D01*
X82744Y98628D01*
X82637Y98540D01*
X82561Y98433D01*
X82515Y98305D01*
X82500Y98158D01*
X82506Y98065D01*
X82525Y97981D01*
X82601Y97839D01*
X82726Y97722D01*
X82899Y97625D01*
X83205Y97520D01*
X83730Y97381D01*
X84246Y97236D01*
X84594Y97102D01*
X84831Y96968D01*
X85012Y96819D01*
X85147Y96652D01*
X85249Y96460D01*
X85312Y96243D01*
X85333Y95997D01*
X85325Y95841D01*
X85302Y95694D01*
X85264Y95556D01*
X85211Y95428D01*
X85143Y95309D01*
X85060Y95199D01*
X84962Y95098D01*
X84848Y95006D01*
X84581Y94854D01*
X84266Y94745D01*
X83903Y94680D01*
X83490Y94658D01*
G37*
G36*
X89709Y94658D02*
X89310Y94676D01*
X88959Y94728D01*
X88656Y94815D01*
X88402Y94937D01*
X88192Y95096D01*
X88023Y95294D01*
X87893Y95532D01*
X87804Y95808D01*
X88471Y95938D01*
X88532Y95768D01*
X88619Y95622D01*
X88732Y95500D01*
X88870Y95403D01*
X89036Y95329D01*
X89231Y95275D01*
X89455Y95244D01*
X89709Y95233D01*
X89977Y95244D01*
X90207Y95277D01*
X90398Y95332D01*
X90551Y95409D01*
X90667Y95508D01*
X90750Y95629D01*
X90800Y95773D01*
X90817Y95938D01*
X90805Y96066D01*
X90771Y96181D01*
X90713Y96284D01*
X90632Y96374D01*
X90526Y96455D01*
X90391Y96527D01*
X90228Y96593D01*
X90037Y96651D01*
X89495Y96794D01*
X88939Y96960D01*
X88731Y97042D01*
X88570Y97123D01*
X88325Y97302D01*
X88225Y97405D01*
X88140Y97516D01*
X88072Y97638D01*
X88023Y97773D01*
X87994Y97921D01*
X87985Y98082D01*
X87992Y98233D01*
X88012Y98374D01*
X88047Y98506D01*
X88095Y98629D01*
X88158Y98743D01*
X88234Y98847D01*
X88427Y99028D01*
X88674Y99171D01*
X88971Y99272D01*
X89319Y99333D01*
X89718Y99354D01*
X90074Y99337D01*
X90392Y99287D01*
X90671Y99205D01*
X90911Y99089D01*
X91112Y98937D01*
X91273Y98745D01*
X91393Y98513D01*
X91472Y98242D01*
X90792Y98158D01*
X90747Y98300D01*
X90676Y98425D01*
X90578Y98532D01*
X90454Y98621D01*
X90305Y98692D01*
X90133Y98743D01*
X89937Y98773D01*
X89718Y98783D01*
X89478Y98773D01*
X89273Y98744D01*
X89101Y98696D01*
X88962Y98628D01*
X88856Y98540D01*
X88780Y98433D01*
X88734Y98305D01*
X88719Y98158D01*
X88725Y98065D01*
X88744Y97981D01*
X88820Y97839D01*
X88944Y97722D01*
X89118Y97625D01*
X89424Y97520D01*
X89948Y97381D01*
X90465Y97236D01*
X90813Y97102D01*
X91049Y96968D01*
X91230Y96819D01*
X91366Y96652D01*
X91467Y96460D01*
X91530Y96243D01*
X91551Y95997D01*
X91544Y95841D01*
X91521Y95694D01*
X91483Y95556D01*
X91430Y95428D01*
X91362Y95309D01*
X91279Y95199D01*
X91180Y95098D01*
X91067Y95006D01*
X90800Y94854D01*
X90485Y94745D01*
X90121Y94680D01*
X89709Y94658D01*
G37*
G36*
X66992Y94742D02*
X66195Y94742D01*
X66195Y100000D01*
X64164Y100000D01*
X64164Y100654D01*
X69023Y100654D01*
X69023Y100000D01*
X66992Y100000D01*
X66992Y94742D01*
G37*
G36*
X93438Y94675D02*
X93226Y94691D01*
X93042Y94739D01*
X92886Y94819D01*
X92759Y94932D01*
X92660Y95076D01*
X92589Y95253D01*
X92546Y95462D01*
X92532Y95703D01*
X92532Y98733D01*
X92008Y98733D01*
X92008Y99282D01*
X92561Y99282D01*
X92784Y100298D01*
X93287Y100298D01*
X93287Y99282D01*
X94127Y99282D01*
X94127Y98733D01*
X93287Y98733D01*
X93287Y95867D01*
X93294Y95715D01*
X93314Y95588D01*
X93348Y95485D01*
X93394Y95407D01*
X93458Y95349D01*
X93541Y95308D01*
X93643Y95283D01*
X93766Y95275D01*
X93950Y95290D01*
X94202Y95334D01*
X94202Y94776D01*
X93825Y94700D01*
X93633Y94681D01*
X93438Y94675D01*
G37*
G36*
X70260Y94742D02*
X69505Y94742D01*
X69505Y98225D01*
X69479Y99282D01*
X70193Y99282D01*
X70226Y98355D01*
X70243Y98355D01*
X70337Y98623D01*
X70437Y98846D01*
X70544Y99022D01*
X70659Y99152D01*
X70788Y99246D01*
X70942Y99313D01*
X71120Y99353D01*
X71322Y99366D01*
X71474Y99356D01*
X71628Y99324D01*
X71628Y98632D01*
X71452Y98663D01*
X71225Y98674D01*
X71111Y98667D01*
X71004Y98649D01*
X70811Y98573D01*
X70645Y98446D01*
X70507Y98269D01*
X70399Y98045D01*
X70322Y97776D01*
X70275Y97464D01*
X70260Y97109D01*
X70260Y94742D01*
G37*
G36*
X100385Y94742D02*
X99630Y94742D01*
X99630Y98225D01*
X99604Y99282D01*
X100318Y99282D01*
X100351Y98355D01*
X100368Y98355D01*
X100462Y98623D01*
X100562Y98846D01*
X100669Y99022D01*
X100784Y99152D01*
X100913Y99246D01*
X101067Y99313D01*
X101245Y99353D01*
X101447Y99366D01*
X101599Y99356D01*
X101753Y99324D01*
X101753Y98632D01*
X101577Y98663D01*
X101350Y98674D01*
X101236Y98667D01*
X101129Y98649D01*
X100936Y98573D01*
X100770Y98446D01*
X100632Y98269D01*
X100524Y98045D01*
X100447Y97776D01*
X100400Y97464D01*
X100385Y97109D01*
X100385Y94742D01*
G37*
G36*
X86989Y94742D02*
X86234Y94742D01*
X86234Y99282D01*
X86989Y99282D01*
X86989Y94742D01*
G37*
G36*
X86989Y100247D02*
X86234Y100247D01*
X86234Y100969D01*
X86989Y100969D01*
X86989Y100247D01*
G37*
G36*
X25254Y103900D02*
X23042Y103900D01*
X23042Y109812D01*
X24998Y109812D01*
X25363Y109801D01*
X25706Y109765D01*
X26028Y109706D01*
X26329Y109624D01*
X26608Y109518D01*
X26865Y109389D01*
X27101Y109236D01*
X27316Y109059D01*
X27508Y108861D01*
X27673Y108643D01*
X27814Y108405D01*
X27928Y108147D01*
X28018Y107869D01*
X28081Y107572D01*
X28120Y107254D01*
X28132Y106917D01*
X28110Y106474D01*
X28043Y106059D01*
X27932Y105674D01*
X27776Y105316D01*
X27579Y104993D01*
X27345Y104710D01*
X27073Y104468D01*
X26764Y104265D01*
X26425Y104105D01*
X26060Y103991D01*
X25669Y103923D01*
X25254Y103900D01*
G37*
%LPC*%
G36*
X25162Y104542D02*
X25477Y104560D01*
X25773Y104613D01*
X26049Y104703D01*
X26305Y104827D01*
X26537Y104986D01*
X26741Y105176D01*
X26916Y105397D01*
X27062Y105650D01*
X27178Y105930D01*
X27261Y106235D01*
X27310Y106564D01*
X27327Y106917D01*
X27317Y107184D01*
X27289Y107434D01*
X27242Y107668D01*
X27176Y107886D01*
X27092Y108087D01*
X26988Y108272D01*
X26866Y108441D01*
X26725Y108593D01*
X26566Y108729D01*
X26390Y108846D01*
X26197Y108945D01*
X25988Y109026D01*
X25761Y109089D01*
X25518Y109134D01*
X25258Y109161D01*
X24981Y109170D01*
X23844Y109170D01*
X23844Y104542D01*
X25162Y104542D01*
G37*
%LPD*%
G36*
X46754Y103900D02*
X44542Y103900D01*
X44542Y109812D01*
X46498Y109812D01*
X46863Y109801D01*
X47206Y109765D01*
X47528Y109706D01*
X47829Y109624D01*
X48108Y109518D01*
X48365Y109389D01*
X48601Y109236D01*
X48816Y109059D01*
X49008Y108861D01*
X49173Y108643D01*
X49314Y108405D01*
X49428Y108147D01*
X49518Y107869D01*
X49581Y107572D01*
X49620Y107254D01*
X49632Y106917D01*
X49610Y106474D01*
X49543Y106059D01*
X49432Y105674D01*
X49276Y105316D01*
X49079Y104993D01*
X48845Y104710D01*
X48573Y104468D01*
X48264Y104265D01*
X47925Y104105D01*
X47560Y103991D01*
X47169Y103923D01*
X46754Y103900D01*
G37*
%LPC*%
G36*
X46662Y104542D02*
X46977Y104560D01*
X47273Y104613D01*
X47549Y104703D01*
X47805Y104827D01*
X48037Y104986D01*
X48241Y105176D01*
X48416Y105397D01*
X48562Y105650D01*
X48678Y105930D01*
X48761Y106235D01*
X48810Y106564D01*
X48827Y106917D01*
X48817Y107184D01*
X48789Y107434D01*
X48742Y107668D01*
X48676Y107886D01*
X48592Y108087D01*
X48488Y108272D01*
X48366Y108441D01*
X48225Y108593D01*
X48066Y108729D01*
X47890Y108846D01*
X47697Y108945D01*
X47488Y109026D01*
X47261Y109089D01*
X47018Y109134D01*
X46758Y109161D01*
X46481Y109170D01*
X45344Y109170D01*
X45344Y104542D01*
X46662Y104542D01*
G37*
%LPD*%
G36*
X11906Y103900D02*
X11105Y103900D01*
X11105Y109812D01*
X13887Y109812D01*
X14130Y109805D01*
X14358Y109784D01*
X14572Y109750D01*
X14772Y109701D01*
X14958Y109638D01*
X15129Y109561D01*
X15286Y109470D01*
X15429Y109366D01*
X15556Y109248D01*
X15667Y109120D01*
X15760Y108981D01*
X15837Y108831D01*
X15896Y108670D01*
X15939Y108498D01*
X15964Y108315D01*
X15973Y108121D01*
X15949Y107805D01*
X15877Y107515D01*
X15757Y107251D01*
X15589Y107014D01*
X15378Y106810D01*
X15206Y106697D01*
X15132Y106647D01*
X14849Y106527D01*
X14529Y106447D01*
X15244Y105363D01*
X16207Y103900D01*
X15284Y103900D01*
X13749Y106355D01*
X11906Y106355D01*
X11906Y103900D01*
G37*
%LPC*%
G36*
X13841Y106988D02*
X14140Y107007D01*
X14403Y107062D01*
X14630Y107155D01*
X14821Y107284D01*
X14972Y107447D01*
X15080Y107639D01*
X15145Y107861D01*
X15167Y108113D01*
X15145Y108356D01*
X15079Y108568D01*
X14970Y108749D01*
X14816Y108900D01*
X14622Y109018D01*
X14389Y109103D01*
X14117Y109153D01*
X13807Y109170D01*
X11906Y109170D01*
X11906Y106988D01*
X13841Y106988D01*
G37*
%LPD*%
G36*
X21981Y103900D02*
X17324Y103900D01*
X17324Y109812D01*
X21809Y109812D01*
X21809Y109158D01*
X18125Y109158D01*
X18125Y107261D01*
X21558Y107261D01*
X21558Y106615D01*
X18125Y106615D01*
X18125Y104555D01*
X21981Y104555D01*
X21981Y103900D01*
G37*
G36*
X43481Y103900D02*
X38824Y103900D01*
X38824Y109812D01*
X43309Y109812D01*
X43309Y109158D01*
X39625Y109158D01*
X39625Y107261D01*
X43058Y107261D01*
X43058Y106615D01*
X39625Y106615D01*
X39625Y104555D01*
X43481Y104555D01*
X43481Y103900D01*
G37*
G36*
X37832Y103900D02*
X34042Y103900D01*
X34042Y109812D01*
X34844Y109812D01*
X34844Y104555D01*
X37832Y104555D01*
X37832Y103900D01*
G37*
G36*
X33432Y102192D02*
X28426Y102192D01*
X28426Y102738D01*
X33432Y102738D01*
X33432Y102192D01*
G37*
G36*
X25254Y65800D02*
X23042Y65800D01*
X23042Y71712D01*
X24998Y71712D01*
X25363Y71701D01*
X25706Y71665D01*
X26028Y71606D01*
X26329Y71524D01*
X26608Y71418D01*
X26865Y71289D01*
X27101Y71136D01*
X27316Y70959D01*
X27508Y70761D01*
X27673Y70543D01*
X27814Y70305D01*
X27928Y70047D01*
X28018Y69769D01*
X28081Y69472D01*
X28120Y69154D01*
X28132Y68817D01*
X28110Y68374D01*
X28043Y67959D01*
X27932Y67574D01*
X27776Y67216D01*
X27579Y66893D01*
X27345Y66610D01*
X27073Y66368D01*
X26764Y66165D01*
X26425Y66005D01*
X26060Y65891D01*
X25669Y65823D01*
X25254Y65800D01*
G37*
%LPC*%
G36*
X25162Y66442D02*
X25477Y66460D01*
X25773Y66513D01*
X26049Y66603D01*
X26305Y66727D01*
X26537Y66886D01*
X26741Y67076D01*
X26916Y67297D01*
X27062Y67550D01*
X27178Y67830D01*
X27261Y68135D01*
X27310Y68464D01*
X27327Y68817D01*
X27317Y69084D01*
X27289Y69334D01*
X27242Y69568D01*
X27176Y69786D01*
X27092Y69987D01*
X26988Y70172D01*
X26866Y70341D01*
X26725Y70493D01*
X26566Y70629D01*
X26390Y70746D01*
X26197Y70845D01*
X25988Y70926D01*
X25761Y70989D01*
X25518Y71034D01*
X25258Y71061D01*
X24981Y71070D01*
X23844Y71070D01*
X23844Y66442D01*
X25162Y66442D01*
G37*
%LPD*%
G36*
X41973Y65800D02*
X39761Y65800D01*
X39761Y71712D01*
X41717Y71712D01*
X42081Y71701D01*
X42425Y71665D01*
X42747Y71606D01*
X43047Y71524D01*
X43326Y71418D01*
X43584Y71289D01*
X43820Y71136D01*
X44035Y70959D01*
X44226Y70761D01*
X44392Y70543D01*
X44532Y70305D01*
X44647Y70047D01*
X44736Y69769D01*
X44800Y69472D01*
X44838Y69154D01*
X44851Y68817D01*
X44829Y68374D01*
X44762Y67959D01*
X44651Y67574D01*
X44494Y67216D01*
X44298Y66893D01*
X44063Y66610D01*
X43792Y66368D01*
X43483Y66165D01*
X43143Y66005D01*
X42778Y65891D01*
X42388Y65823D01*
X41973Y65800D01*
G37*
%LPC*%
G36*
X41880Y66442D02*
X42196Y66460D01*
X42491Y66513D01*
X42767Y66603D01*
X43024Y66727D01*
X43256Y66886D01*
X43460Y67076D01*
X43635Y67297D01*
X43781Y67550D01*
X43897Y67830D01*
X43979Y68135D01*
X44029Y68464D01*
X44045Y68817D01*
X44036Y69084D01*
X44008Y69334D01*
X43961Y69568D01*
X43895Y69786D01*
X43810Y69987D01*
X43707Y70172D01*
X43584Y70341D01*
X43443Y70493D01*
X43284Y70629D01*
X43109Y70746D01*
X42916Y70845D01*
X42706Y70926D01*
X42480Y70989D01*
X42237Y71034D01*
X41977Y71061D01*
X41700Y71070D01*
X40563Y71070D01*
X40563Y66442D01*
X41880Y66442D01*
G37*
%LPD*%
G36*
X11906Y65800D02*
X11105Y65800D01*
X11105Y71712D01*
X13887Y71712D01*
X14130Y71705D01*
X14358Y71684D01*
X14572Y71650D01*
X14772Y71601D01*
X14958Y71538D01*
X15129Y71461D01*
X15286Y71370D01*
X15429Y71266D01*
X15556Y71148D01*
X15667Y71020D01*
X15760Y70881D01*
X15837Y70731D01*
X15896Y70570D01*
X15939Y70398D01*
X15964Y70215D01*
X15973Y70021D01*
X15949Y69705D01*
X15877Y69415D01*
X15757Y69151D01*
X15589Y68914D01*
X15378Y68710D01*
X15206Y68597D01*
X15132Y68547D01*
X14849Y68427D01*
X14529Y68347D01*
X15244Y67263D01*
X16207Y65800D01*
X15284Y65800D01*
X13749Y68255D01*
X11906Y68255D01*
X11906Y65800D01*
G37*
%LPC*%
G36*
X13841Y68888D02*
X14140Y68907D01*
X14403Y68962D01*
X14630Y69055D01*
X14821Y69184D01*
X14972Y69347D01*
X15080Y69539D01*
X15145Y69761D01*
X15167Y70013D01*
X15145Y70256D01*
X15079Y70468D01*
X14970Y70649D01*
X14816Y70800D01*
X14622Y70918D01*
X14389Y71003D01*
X14117Y71053D01*
X13807Y71070D01*
X11906Y71070D01*
X11906Y68888D01*
X13841Y68888D01*
G37*
%LPD*%
G36*
X34844Y65800D02*
X34042Y65800D01*
X34042Y71712D01*
X36531Y71712D01*
X36772Y71705D01*
X37000Y71683D01*
X37214Y71647D01*
X37413Y71596D01*
X37599Y71530D01*
X37770Y71450D01*
X37927Y71356D01*
X38071Y71247D01*
X38199Y71124D01*
X38309Y70990D01*
X38403Y70844D01*
X38480Y70685D01*
X38540Y70515D01*
X38582Y70333D01*
X38608Y70139D01*
X38616Y69933D01*
X38608Y69729D01*
X38582Y69535D01*
X38539Y69352D01*
X38479Y69180D01*
X38402Y69019D01*
X38308Y68868D01*
X38197Y68728D01*
X38069Y68599D01*
X37926Y68483D01*
X37770Y68382D01*
X37603Y68297D01*
X37423Y68227D01*
X37231Y68173D01*
X37027Y68135D01*
X36810Y68111D01*
X36581Y68104D01*
X34844Y68104D01*
X34844Y65800D01*
G37*
%LPC*%
G36*
X36468Y68737D02*
X36783Y68756D01*
X37055Y68812D01*
X37286Y68904D01*
X37475Y69034D01*
X37622Y69201D01*
X37727Y69405D01*
X37790Y69647D01*
X37811Y69925D01*
X37789Y70193D01*
X37725Y70426D01*
X37617Y70623D01*
X37467Y70784D01*
X37273Y70909D01*
X37036Y70999D01*
X36757Y71052D01*
X36434Y71070D01*
X34844Y71070D01*
X34844Y68737D01*
X36468Y68737D01*
G37*
%LPD*%
G36*
X21981Y65800D02*
X17324Y65800D01*
X17324Y71712D01*
X21809Y71712D01*
X21809Y71058D01*
X18125Y71058D01*
X18125Y69161D01*
X21558Y69161D01*
X21558Y68515D01*
X18125Y68515D01*
X18125Y66455D01*
X21981Y66455D01*
X21981Y65800D01*
G37*
G36*
X33432Y64092D02*
X28426Y64092D01*
X28426Y64638D01*
X33432Y64638D01*
X33432Y64092D01*
G37*
G36*
X181716Y52882D02*
X175804Y52882D01*
X175804Y54838D01*
X175815Y55203D01*
X175851Y55546D01*
X175910Y55868D01*
X175992Y56169D01*
X176098Y56448D01*
X176227Y56705D01*
X176380Y56941D01*
X176557Y57156D01*
X176755Y57348D01*
X176973Y57513D01*
X177211Y57654D01*
X177469Y57768D01*
X177747Y57858D01*
X178044Y57921D01*
X178362Y57960D01*
X178699Y57972D01*
X179142Y57950D01*
X179557Y57883D01*
X179942Y57772D01*
X180300Y57616D01*
X180623Y57419D01*
X180906Y57185D01*
X181148Y56913D01*
X181351Y56604D01*
X181511Y56265D01*
X181625Y55900D01*
X181693Y55509D01*
X181716Y55094D01*
X181716Y52882D01*
G37*
%LPC*%
G36*
X181074Y53684D02*
X181074Y55002D01*
X181056Y55317D01*
X181003Y55613D01*
X180914Y55889D01*
X180789Y56145D01*
X180630Y56377D01*
X180440Y56581D01*
X180219Y56756D01*
X179966Y56902D01*
X179686Y57018D01*
X179381Y57101D01*
X179052Y57150D01*
X178699Y57167D01*
X178432Y57157D01*
X178182Y57129D01*
X177948Y57082D01*
X177730Y57016D01*
X177529Y56932D01*
X177344Y56828D01*
X177175Y56706D01*
X177023Y56565D01*
X176887Y56406D01*
X176770Y56230D01*
X176671Y56037D01*
X176590Y55828D01*
X176527Y55601D01*
X176482Y55358D01*
X176455Y55098D01*
X176446Y54821D01*
X176446Y53684D01*
X181074Y53684D01*
G37*
%LPD*%
G36*
X181716Y71976D02*
X175804Y71976D01*
X175804Y73932D01*
X175815Y74296D01*
X175851Y74640D01*
X175910Y74962D01*
X175992Y75262D01*
X176098Y75541D01*
X176227Y75799D01*
X176380Y76035D01*
X176557Y76250D01*
X176755Y76441D01*
X176973Y76607D01*
X177211Y76747D01*
X177469Y76862D01*
X177747Y76951D01*
X178044Y77015D01*
X178362Y77053D01*
X178699Y77066D01*
X179142Y77044D01*
X179557Y76977D01*
X179942Y76866D01*
X180300Y76709D01*
X180623Y76513D01*
X180906Y76278D01*
X181148Y76007D01*
X181351Y75698D01*
X181511Y75358D01*
X181625Y74993D01*
X181693Y74603D01*
X181716Y74188D01*
X181716Y71976D01*
G37*
%LPC*%
G36*
X181074Y72778D02*
X181074Y74095D01*
X181056Y74411D01*
X181003Y74706D01*
X180914Y74982D01*
X180789Y75239D01*
X180630Y75471D01*
X180440Y75675D01*
X180219Y75850D01*
X179966Y75996D01*
X179686Y76112D01*
X179381Y76194D01*
X179052Y76244D01*
X178699Y76260D01*
X178432Y76251D01*
X178182Y76223D01*
X177948Y76176D01*
X177730Y76110D01*
X177529Y76025D01*
X177344Y75922D01*
X177175Y75799D01*
X177023Y75658D01*
X176887Y75499D01*
X176770Y75324D01*
X176671Y75131D01*
X176590Y74921D01*
X176527Y74695D01*
X176482Y74452D01*
X176455Y74192D01*
X176446Y73915D01*
X176446Y72778D01*
X181074Y72778D01*
G37*
%LPD*%
G36*
X181716Y40945D02*
X175804Y40945D01*
X175804Y43727D01*
X175811Y43970D01*
X175832Y44198D01*
X175866Y44412D01*
X175915Y44612D01*
X175978Y44798D01*
X176055Y44969D01*
X176146Y45126D01*
X176251Y45269D01*
X176368Y45396D01*
X176496Y45507D01*
X176635Y45600D01*
X176785Y45677D01*
X176946Y45736D01*
X177118Y45779D01*
X177301Y45804D01*
X177495Y45813D01*
X177811Y45789D01*
X178101Y45717D01*
X178365Y45597D01*
X178602Y45429D01*
X178806Y45218D01*
X178919Y45046D01*
X178969Y44972D01*
X179089Y44689D01*
X179169Y44369D01*
X180253Y45084D01*
X181716Y46047D01*
X181716Y45124D01*
X179261Y43589D01*
X179261Y41746D01*
X181716Y41746D01*
X181716Y40945D01*
G37*
%LPC*%
G36*
X178628Y41746D02*
X178628Y43681D01*
X178609Y43980D01*
X178554Y44243D01*
X178461Y44470D01*
X178332Y44661D01*
X178169Y44812D01*
X177977Y44920D01*
X177755Y44985D01*
X177503Y45007D01*
X177260Y44985D01*
X177048Y44919D01*
X176867Y44810D01*
X176716Y44656D01*
X176598Y44462D01*
X176513Y44229D01*
X176463Y43957D01*
X176446Y43647D01*
X176446Y41746D01*
X178628Y41746D01*
G37*
%LPD*%
G36*
X181716Y47164D02*
X175804Y47164D01*
X175804Y51649D01*
X176458Y51649D01*
X176458Y47965D01*
X178355Y47965D01*
X178355Y51398D01*
X179001Y51398D01*
X179001Y47965D01*
X181061Y47965D01*
X181061Y51821D01*
X181716Y51821D01*
X181716Y47164D01*
G37*
G36*
X181716Y66257D02*
X175804Y66257D01*
X175804Y70743D01*
X176458Y70743D01*
X176458Y67059D01*
X178355Y67059D01*
X178355Y70491D01*
X179001Y70491D01*
X179001Y67059D01*
X181061Y67059D01*
X181061Y70915D01*
X181716Y70915D01*
X181716Y66257D01*
G37*
G36*
X181716Y61476D02*
X175804Y61476D01*
X175804Y62278D01*
X181061Y62278D01*
X181061Y65265D01*
X181716Y65265D01*
X181716Y61476D01*
G37*
G36*
X19035Y180100D02*
X16824Y180100D01*
X16824Y186012D01*
X18779Y186012D01*
X19144Y186001D01*
X19487Y185965D01*
X19809Y185906D01*
X20110Y185824D01*
X20389Y185718D01*
X20647Y185589D01*
X20883Y185436D01*
X21098Y185259D01*
X21289Y185061D01*
X21455Y184843D01*
X21595Y184605D01*
X21710Y184347D01*
X21799Y184069D01*
X21863Y183772D01*
X21901Y183454D01*
X21914Y183117D01*
X21891Y182674D01*
X21824Y182259D01*
X21713Y181874D01*
X21557Y181516D01*
X21360Y181193D01*
X21126Y180910D01*
X20854Y180668D01*
X20546Y180465D01*
X20206Y180305D01*
X19841Y180191D01*
X19451Y180123D01*
X19035Y180100D01*
G37*
%LPC*%
G36*
X18943Y180742D02*
X19258Y180760D01*
X19554Y180813D01*
X19830Y180903D01*
X20086Y181027D01*
X20318Y181186D01*
X20522Y181376D01*
X20697Y181597D01*
X20844Y181850D01*
X20959Y182130D01*
X21042Y182435D01*
X21091Y182764D01*
X21108Y183117D01*
X21099Y183384D01*
X21070Y183634D01*
X21023Y183868D01*
X20957Y184086D01*
X20873Y184287D01*
X20769Y184472D01*
X20647Y184641D01*
X20506Y184793D01*
X20347Y184929D01*
X20171Y185046D01*
X19978Y185145D01*
X19769Y185226D01*
X19543Y185289D01*
X19299Y185334D01*
X19039Y185361D01*
X18762Y185370D01*
X17625Y185370D01*
X17625Y180742D01*
X18943Y180742D01*
G37*
%LPD*%
G36*
X25254Y180100D02*
X23042Y180100D01*
X23042Y186012D01*
X24998Y186012D01*
X25363Y186001D01*
X25706Y185965D01*
X26028Y185906D01*
X26329Y185824D01*
X26608Y185718D01*
X26865Y185589D01*
X27101Y185436D01*
X27316Y185259D01*
X27508Y185061D01*
X27673Y184843D01*
X27814Y184605D01*
X27928Y184347D01*
X28018Y184069D01*
X28081Y183772D01*
X28120Y183454D01*
X28132Y183117D01*
X28110Y182674D01*
X28043Y182259D01*
X27932Y181874D01*
X27776Y181516D01*
X27579Y181193D01*
X27345Y180910D01*
X27073Y180668D01*
X26764Y180465D01*
X26425Y180305D01*
X26060Y180191D01*
X25669Y180123D01*
X25254Y180100D01*
G37*
%LPC*%
G36*
X25162Y180742D02*
X25477Y180760D01*
X25773Y180813D01*
X26049Y180903D01*
X26305Y181027D01*
X26537Y181186D01*
X26741Y181376D01*
X26916Y181597D01*
X27062Y181850D01*
X27178Y182130D01*
X27261Y182435D01*
X27310Y182764D01*
X27327Y183117D01*
X27317Y183384D01*
X27289Y183634D01*
X27242Y183868D01*
X27176Y184086D01*
X27092Y184287D01*
X26988Y184472D01*
X26866Y184641D01*
X26725Y184793D01*
X26566Y184929D01*
X26390Y185046D01*
X26197Y185145D01*
X25988Y185226D01*
X25761Y185289D01*
X25518Y185334D01*
X25258Y185361D01*
X24981Y185370D01*
X23844Y185370D01*
X23844Y180742D01*
X25162Y180742D01*
G37*
%LPD*%
G36*
X13681Y180100D02*
X12851Y180100D01*
X10438Y186012D01*
X11281Y186012D01*
X12918Y181850D01*
X13270Y180805D01*
X13623Y181850D01*
X15251Y186012D01*
X16094Y186012D01*
X13681Y180100D01*
G37*
D10*
X128760Y70620D02*
X128760Y58620D01*
X108760Y58620D02*
X108760Y70620D01*
D11*
X118760Y85620D02*
X118716Y85622D01*
X118673Y85628D01*
X118631Y85637D01*
X118589Y85650D01*
X118549Y85667D01*
X118510Y85687D01*
X118473Y85710D01*
X118439Y85737D01*
X118406Y85766D01*
X118377Y85799D01*
X118350Y85833D01*
X118327Y85870D01*
X118307Y85909D01*
X118290Y85949D01*
X118277Y85991D01*
X118268Y86033D01*
X118262Y86076D01*
X118260Y86120D01*
X118262Y86164D01*
X118268Y86207D01*
X118277Y86249D01*
X118290Y86291D01*
X118307Y86331D01*
X118327Y86370D01*
X118350Y86407D01*
X118377Y86441D01*
X118406Y86474D01*
X118439Y86503D01*
X118473Y86530D01*
X118510Y86553D01*
X118549Y86573D01*
X118589Y86590D01*
X118631Y86603D01*
X118673Y86612D01*
X118716Y86618D01*
X118760Y86620D01*
X118804Y86618D01*
X118847Y86612D01*
X118889Y86603D01*
X118931Y86590D01*
X118971Y86573D01*
X119010Y86553D01*
X119047Y86530D01*
X119081Y86503D01*
X119114Y86474D01*
X119143Y86441D01*
X119170Y86407D01*
X119193Y86370D01*
X119213Y86331D01*
X119230Y86291D01*
X119243Y86249D01*
X119252Y86207D01*
X119258Y86164D01*
X119260Y86120D01*
X119258Y86076D01*
X119252Y86033D01*
X119243Y85991D01*
X119230Y85949D01*
X119213Y85909D01*
X119193Y85870D01*
X119170Y85833D01*
X119143Y85799D01*
X119114Y85766D01*
X119081Y85737D01*
X119047Y85710D01*
X119010Y85687D01*
X118971Y85667D01*
X118931Y85650D01*
X118889Y85637D01*
X118847Y85628D01*
X118804Y85622D01*
X118760Y85620D01*
D12*
X82568Y99350D02*
X82570Y99386D01*
X82576Y99421D01*
X82585Y99456D01*
X82599Y99489D01*
X82616Y99521D01*
X82636Y99551D01*
X82659Y99578D01*
X82685Y99603D01*
X82714Y99625D01*
X82744Y99643D01*
X82777Y99658D01*
X82811Y99670D01*
X82846Y99678D01*
X82882Y99682D01*
X82918Y99682D01*
X82954Y99678D01*
X82989Y99670D01*
X83023Y99658D01*
X83056Y99643D01*
X83086Y99625D01*
X83115Y99603D01*
X83141Y99578D01*
X83164Y99551D01*
X83184Y99521D01*
X83201Y99489D01*
X83215Y99456D01*
X83224Y99421D01*
X83230Y99386D01*
X83232Y99350D01*
X83230Y99314D01*
X83224Y99279D01*
X83215Y99244D01*
X83201Y99211D01*
X83184Y99179D01*
X83164Y99149D01*
X83141Y99122D01*
X83115Y99097D01*
X83086Y99075D01*
X83056Y99057D01*
X83023Y99042D01*
X82989Y99030D01*
X82954Y99022D01*
X82918Y99018D01*
X82882Y99018D01*
X82846Y99022D01*
X82811Y99030D01*
X82777Y99042D01*
X82744Y99057D01*
X82714Y99075D01*
X82685Y99097D01*
X82659Y99122D01*
X82636Y99149D01*
X82616Y99179D01*
X82599Y99211D01*
X82585Y99244D01*
X82576Y99279D01*
X82570Y99314D01*
X82568Y99350D01*
D10*
X116380Y142240D02*
X122380Y142240D01*
D13*
X170220Y87490D02*
X170220Y37490D01*
X150220Y37490D01*
X150220Y87490D01*
X170220Y87490D01*
M02*
