G04 EAGLE Gerber RS-274X export*
G75*
%MOMM*%
%FSLAX34Y34*%
%LPD*%
%INTop Copper*%
%IPPOS*%
%AMOC8*
5,1,8,0,0,1.08239X$1,22.5*%
G01*
G04 Define Apertures*
%ADD10R,0.620000X0.650000*%
%ADD11R,0.620000X0.620000*%
%ADD12C,0.306000*%
%ADD13R,0.475000X0.500000*%
%ADD14R,0.500000X0.475000*%
%ADD15R,0.650000X0.620000*%
%ADD16R,2.000000X2.000000*%
%ADD17C,0.152400*%
%ADD18C,0.756400*%
D10*
X52070Y252755D03*
X52070Y261555D03*
D11*
X190425Y328700D03*
X199425Y328700D03*
X158008Y365835D03*
X158008Y356835D03*
D10*
X50734Y322605D03*
X50734Y331405D03*
D11*
X190425Y156225D03*
X199425Y156225D03*
D12*
X104220Y335200D03*
X109220Y335200D03*
X114220Y335200D03*
X104220Y330200D03*
X114220Y330200D03*
X104220Y325200D03*
X109220Y325200D03*
X114220Y325200D03*
D13*
X154013Y181893D03*
X164263Y181893D03*
X114643Y365207D03*
X124893Y365207D03*
D14*
X155790Y299145D03*
X155790Y288905D03*
X158568Y337478D03*
X158568Y327228D03*
X16476Y321885D03*
X16476Y332125D03*
D10*
X72785Y252755D03*
X72785Y261555D03*
D13*
X107023Y294830D03*
X117273Y294830D03*
D14*
X20379Y56455D03*
X20379Y66695D03*
X60653Y299378D03*
X60653Y289128D03*
X151066Y251803D03*
X151066Y262053D03*
D12*
X109300Y259000D03*
X114300Y259000D03*
X119300Y259000D03*
X109300Y254000D03*
X119300Y254000D03*
X109300Y249000D03*
X114300Y249000D03*
X119300Y249000D03*
D13*
X90745Y131584D03*
X100985Y131584D03*
X108293Y182417D03*
X118543Y182417D03*
X43755Y16479D03*
X53995Y16479D03*
X16853Y37266D03*
X27103Y37266D03*
D15*
X26645Y102933D03*
X17845Y102933D03*
D14*
X64864Y208855D03*
X64864Y219095D03*
D13*
X15583Y133259D03*
X25833Y133259D03*
D12*
X88980Y67230D03*
X93980Y67230D03*
X98980Y67230D03*
X88980Y62230D03*
X98980Y62230D03*
X88980Y57230D03*
X93980Y57230D03*
X98980Y57230D03*
D10*
X121920Y60420D03*
X121920Y69220D03*
D14*
X146720Y59700D03*
X146720Y69940D03*
D13*
X171683Y82330D03*
X181933Y82330D03*
D11*
X177410Y46350D03*
X177410Y55350D03*
X137800Y29870D03*
X128800Y29870D03*
D13*
X97780Y17220D03*
X87540Y17220D03*
X97558Y31750D03*
X87308Y31750D03*
D10*
X58570Y57880D03*
X58570Y66680D03*
D14*
X41500Y57160D03*
X41500Y67400D03*
D13*
X98828Y93150D03*
X88578Y93150D03*
D11*
X177970Y117480D03*
X177970Y108480D03*
D16*
X196160Y368399D03*
X20160Y368399D03*
X196160Y183799D03*
X196160Y287299D03*
X196160Y233599D03*
X20160Y233599D03*
X20160Y287299D03*
X20160Y183799D03*
D17*
X54864Y335280D02*
X67056Y335280D01*
X103632Y335280D01*
X54864Y335280D02*
X51816Y332232D01*
X103632Y335280D02*
X104220Y335200D01*
X51816Y332232D02*
X50734Y331405D01*
X67056Y335280D02*
X67056Y356108D01*
X155448Y182880D02*
X154013Y181893D01*
X50292Y332232D02*
X16764Y332232D01*
X16476Y332125D01*
X50292Y332232D02*
X50734Y331405D01*
D18*
X67056Y356108D03*
D17*
X175260Y234126D02*
X177194Y232193D01*
X177194Y223554D01*
X165448Y211808D01*
X162544Y211808D01*
X155448Y204712D01*
X155448Y182880D01*
D18*
X172748Y288036D03*
D17*
X175260Y285524D01*
X175260Y234126D01*
X114300Y336804D02*
X114300Y364236D01*
X114300Y336804D02*
X114300Y335280D01*
X114220Y335200D01*
X114300Y364236D02*
X114643Y365207D01*
D18*
X140208Y284988D03*
D17*
X129540Y336804D02*
X114300Y336804D01*
D18*
X133123Y333728D03*
D17*
X132616Y333728D02*
X129540Y336804D01*
X132616Y333728D02*
X133123Y333728D01*
X140208Y284988D02*
X140208Y255970D01*
X141958Y254220D01*
X141958Y252802D01*
X167430Y227330D01*
D18*
X168078Y227330D03*
D17*
X167430Y227330D01*
X80772Y330708D02*
X60960Y330708D01*
X80772Y330708D02*
X103632Y330708D01*
X60960Y330708D02*
X51816Y321564D01*
X103632Y330708D02*
X104220Y330200D01*
X51816Y321564D02*
X50734Y322605D01*
X50292Y323088D02*
X16764Y323088D01*
X16476Y321885D01*
X50292Y323088D02*
X50734Y322605D01*
X160020Y326136D02*
X160020Y303276D01*
X161544Y301752D01*
X161544Y295656D01*
X160020Y294132D01*
X131064Y294132D01*
X158568Y327228D02*
X160020Y326136D01*
X80772Y322127D02*
X80772Y330708D01*
X80772Y322127D02*
X84355Y318544D01*
X106652Y318544D02*
X131064Y294132D01*
X106652Y318544D02*
X84355Y318544D01*
X114220Y330200D02*
X114300Y330708D01*
D18*
X139954Y349250D03*
D17*
X139191Y348487D01*
X127055Y330708D02*
X114300Y330708D01*
X127055Y330708D02*
X130103Y327660D01*
X139191Y331215D02*
X139191Y348487D01*
X139191Y331215D02*
X135637Y327660D01*
X130103Y327660D01*
X124968Y365760D02*
X156972Y365760D01*
X124968Y365760D02*
X124893Y365207D01*
X156972Y365760D02*
X158008Y365835D01*
X188976Y336804D02*
X188976Y329184D01*
X188976Y336804D02*
X158496Y367284D01*
X188976Y329184D02*
X190425Y328700D01*
X158008Y365835D02*
X158496Y367284D01*
X155448Y321564D02*
X155448Y300228D01*
X155448Y321564D02*
X152400Y324612D01*
X152400Y330708D01*
X158496Y336804D01*
X155448Y300228D02*
X155790Y299145D01*
X158496Y336804D02*
X158568Y337478D01*
X158496Y338328D02*
X158496Y356616D01*
X158008Y356835D01*
X158496Y338328D02*
X158568Y337478D01*
X142240Y324612D02*
X114300Y324612D01*
X117348Y294132D02*
X117348Y278892D01*
X114300Y324612D02*
X114220Y325200D01*
X117273Y294830D02*
X117348Y294132D01*
X119300Y240618D02*
X128778Y231140D01*
X119300Y240618D02*
X119300Y249000D01*
X110490Y55118D02*
X99181Y55118D01*
X98980Y57230D01*
X67310Y80518D02*
X67310Y140462D01*
X67310Y80518D02*
X68580Y79248D01*
D18*
X142240Y324612D03*
X117348Y278892D03*
X128778Y231140D03*
X110490Y55118D03*
X22860Y83820D03*
X67310Y140462D03*
X68580Y79248D03*
D17*
X20379Y56455D02*
X14919Y56455D01*
X11783Y59591D01*
X11783Y76553D01*
X19050Y83820D02*
X22860Y83820D01*
X19050Y83820D02*
X11783Y76553D01*
X94488Y56388D02*
X94488Y54864D01*
X94488Y56388D02*
X93980Y57230D01*
X176784Y56388D02*
X176784Y108204D01*
X177970Y108480D01*
X176784Y56388D02*
X177410Y55350D01*
X114300Y213360D02*
X114300Y249000D01*
X152400Y175260D02*
X164592Y163068D01*
X152400Y175260D02*
X114300Y213360D01*
X164592Y163068D02*
X193548Y163068D01*
X199644Y156972D01*
X199425Y156225D01*
X179832Y109728D02*
X178308Y109728D01*
X179832Y109728D02*
X198120Y128016D01*
X198120Y155448D01*
X178308Y109728D02*
X177970Y108480D01*
X198120Y155448D02*
X199425Y156225D01*
X71628Y252984D02*
X62230Y252984D01*
X53340Y252984D01*
X52070Y252755D01*
X71628Y252984D02*
X72785Y252755D01*
X62230Y252984D02*
X62230Y245110D01*
X198120Y329184D02*
X198120Y365760D01*
X196596Y367284D01*
X198120Y329184D02*
X199425Y328700D01*
X196596Y367284D02*
X196160Y368399D01*
X91948Y279400D02*
X70380Y279400D01*
X60653Y289128D01*
X93472Y280924D02*
X106680Y294132D01*
X93472Y280924D02*
X91948Y279400D01*
X106680Y294132D02*
X107023Y294830D01*
X198120Y327660D02*
X199425Y328700D01*
X60960Y288036D02*
X60960Y274066D01*
X60960Y288036D02*
X60653Y289128D01*
X152400Y175260D02*
X152400Y154686D01*
D18*
X134112Y52832D03*
X62230Y245110D03*
X133858Y302768D03*
X134112Y272796D03*
X150876Y274320D03*
X60960Y274066D03*
X152400Y154686D03*
D17*
X133858Y302768D02*
X115242Y321384D01*
X112639Y321384D01*
X110404Y323619D01*
X110404Y324016D01*
X109220Y325200D01*
X121132Y272824D02*
X121104Y272796D01*
X134112Y272796D01*
X101572Y272824D02*
X93472Y280924D01*
X101572Y272824D02*
X121132Y272824D01*
X116786Y52832D02*
X134112Y52832D01*
X116786Y52832D02*
X113004Y49050D01*
X100302Y49050D01*
X94488Y54864D01*
X150876Y274320D02*
X166680Y290124D01*
X166680Y290550D01*
X198120Y321990D02*
X198120Y327660D01*
X198120Y321990D02*
X166680Y290550D01*
X166596Y30253D02*
X163042Y26698D01*
X158015Y26698D01*
X154460Y30253D01*
X166596Y46200D02*
X176784Y56388D01*
X154460Y32484D02*
X154460Y30253D01*
X154460Y32484D02*
X134112Y52832D01*
X166596Y46200D02*
X166596Y30253D01*
X114300Y88392D02*
X94488Y68580D01*
X93980Y67230D01*
X21336Y67056D02*
X21336Y73152D01*
X22860Y74676D01*
X21336Y67056D02*
X20379Y66695D01*
X114300Y259000D02*
X114300Y260604D01*
X111252Y263652D01*
X92964Y263652D01*
X53340Y240792D02*
X45720Y248412D01*
X45720Y256032D01*
X51816Y262128D01*
X52070Y261555D01*
X53340Y240792D02*
X39624Y227076D01*
X108204Y335280D02*
X108204Y336804D01*
X77724Y367284D01*
X21336Y367284D01*
X108204Y335280D02*
X109220Y335200D01*
X21336Y367284D02*
X20160Y368399D01*
X152400Y260604D02*
X160020Y252984D01*
X160020Y240792D01*
X80772Y269748D02*
X73152Y262128D01*
X151066Y262053D02*
X152400Y260604D01*
X73152Y262128D02*
X72785Y261555D01*
X160020Y252984D02*
X169164Y262128D01*
X71628Y262128D02*
X53340Y262128D01*
X52070Y261555D01*
X71628Y262128D02*
X72785Y261555D01*
D18*
X114300Y88392D03*
X22860Y74676D03*
X39624Y227076D03*
X169164Y262128D03*
X80264Y381109D03*
D17*
X77724Y378569D01*
X77724Y367284D01*
X57967Y240792D02*
X53340Y240792D01*
X86334Y238308D02*
X89888Y241863D01*
X60451Y238308D02*
X57967Y240792D01*
X60451Y238308D02*
X86334Y238308D01*
X89888Y241863D02*
X89888Y260576D01*
X80772Y269748D02*
X122120Y269748D01*
X138910Y252958D01*
X92964Y263652D02*
X89888Y260576D01*
D18*
X164333Y239009D03*
D17*
X161803Y239009D02*
X160020Y240792D01*
X161803Y239009D02*
X164333Y239009D01*
X161803Y239009D02*
X167414Y233398D01*
X165564Y221262D02*
X170591Y221262D01*
X174146Y224817D01*
X174146Y229844D01*
X170591Y233398D01*
X167414Y233398D01*
X138910Y247916D02*
X138910Y252958D01*
X138910Y247916D02*
X165564Y221262D01*
X87505Y55118D02*
X71120Y55118D01*
X34036Y45720D02*
X34036Y36068D01*
X53340Y16764D01*
X87505Y55118D02*
X88980Y57230D01*
X53995Y16479D02*
X53340Y16764D01*
X54864Y16764D02*
X86868Y16764D01*
X87540Y17220D01*
X54864Y16764D02*
X53995Y16479D01*
X150876Y252984D02*
X144780Y259080D01*
X144780Y277368D01*
X150876Y283464D02*
X155448Y288036D01*
X150876Y283464D02*
X144780Y277368D01*
X150876Y252984D02*
X151066Y251803D01*
X155448Y288036D02*
X155790Y288905D01*
X103632Y324612D02*
X86868Y324612D01*
X72390Y320294D02*
X60653Y308557D01*
X60653Y299378D01*
X103632Y324612D02*
X104220Y325200D01*
X108204Y248412D02*
X108204Y242316D01*
X91440Y225552D02*
X85344Y219456D01*
X91440Y225552D02*
X108204Y242316D01*
X108204Y248412D02*
X109300Y249000D01*
X150876Y283464D02*
X143256Y291084D01*
X129540Y291084D01*
X34036Y69088D02*
X34036Y45720D01*
D18*
X71120Y55118D03*
X86868Y324612D03*
X72390Y320294D03*
X85344Y219456D03*
X79248Y79248D03*
D17*
X83092Y315496D02*
X78294Y320294D01*
X72390Y320294D01*
X105128Y315496D02*
X129540Y291084D01*
X105128Y315496D02*
X83092Y315496D01*
X146332Y152173D02*
X149887Y148618D01*
X146332Y152173D02*
X146332Y170660D01*
X91440Y225552D01*
D18*
X168909Y145597D03*
D17*
X165889Y148618D02*
X149887Y148618D01*
X165889Y148618D02*
X168909Y145597D01*
X79248Y79248D02*
X77162Y79248D01*
X71094Y73180D01*
X38128Y73180D02*
X34036Y69088D01*
X38128Y73180D02*
X71094Y73180D01*
D18*
X35024Y45720D03*
D17*
X34036Y45720D01*
X28956Y41959D02*
X28956Y100584D01*
X27432Y102108D01*
X28956Y41959D02*
X27103Y37266D01*
X27432Y102108D02*
X26645Y102933D01*
X65532Y210312D02*
X68580Y213360D01*
X108204Y252984D02*
X109300Y254000D01*
X65532Y210312D02*
X64864Y208855D01*
X27432Y121920D02*
X27432Y103632D01*
X27432Y121920D02*
X54864Y149352D01*
X102108Y167640D02*
X105156Y170688D01*
X105156Y176784D01*
X68580Y213360D01*
X27432Y103632D02*
X26645Y102933D01*
X68580Y213360D02*
X87432Y232212D01*
X88859Y232212D01*
X72981Y180014D02*
X54864Y161897D01*
X54864Y149352D01*
X81562Y173763D02*
X81562Y176459D01*
X78008Y180014D01*
X72981Y180014D01*
X81562Y173763D02*
X87685Y167640D01*
X102108Y167640D01*
X88859Y232212D02*
X97282Y240635D01*
X97282Y247459D01*
X102807Y252984D01*
X108204Y252984D01*
X102108Y163068D02*
X102108Y132588D01*
X102108Y163068D02*
X108204Y169164D01*
X108204Y181356D01*
X102108Y132588D02*
X100985Y131584D01*
X108204Y181356D02*
X108293Y182417D01*
X118872Y259080D02*
X118872Y264414D01*
X116586Y266700D01*
X118872Y259080D02*
X119300Y259000D01*
X108204Y195072D02*
X108204Y182880D01*
X108293Y182417D01*
D18*
X108204Y195072D03*
X83820Y244376D03*
D17*
X83820Y260886D02*
X89634Y266700D01*
X83820Y260886D02*
X83820Y244376D01*
X89634Y266700D02*
X116586Y266700D01*
X16764Y128016D02*
X16764Y103632D01*
X16764Y128016D02*
X16764Y132588D01*
X15583Y133259D01*
X16764Y103632D02*
X17845Y102933D01*
X94234Y257810D02*
X96368Y259944D01*
X70104Y219456D02*
X65532Y219456D01*
X96368Y259944D02*
X109300Y259000D01*
X65532Y219456D02*
X64864Y219095D01*
X28956Y128016D02*
X16764Y128016D01*
X28956Y128016D02*
X50292Y149352D01*
X50292Y182880D01*
X50292Y204216D02*
X64008Y217932D01*
X64864Y219095D01*
D18*
X50292Y182880D03*
X50292Y204216D03*
D17*
X70104Y219456D02*
X85908Y235260D01*
X87596Y235260D01*
X94234Y241898D01*
X94234Y257810D01*
X96491Y127283D02*
X103632Y120142D01*
X96491Y127283D02*
X90745Y131584D01*
D18*
X103632Y120142D03*
X132842Y250444D03*
D17*
X120881Y252816D02*
X120484Y252816D01*
X119300Y254000D01*
X123253Y250444D02*
X132842Y250444D01*
X123253Y250444D02*
X120881Y252816D01*
D18*
X75494Y173946D03*
D17*
X89916Y132413D02*
X90745Y131584D01*
X89916Y159524D02*
X75494Y173946D01*
X89916Y159524D02*
X89916Y132413D01*
X117348Y160020D02*
X117348Y181356D01*
X118543Y182417D01*
D18*
X117348Y160020D03*
D17*
X18288Y36576D02*
X38100Y16764D01*
X42672Y16764D01*
X18288Y36576D02*
X16853Y37266D01*
X42672Y16764D02*
X43755Y16479D01*
D18*
X18260Y48774D03*
D17*
X16853Y47367D01*
X16853Y37266D01*
X182880Y50292D02*
X182880Y82296D01*
X182880Y50292D02*
X178308Y45720D01*
X181933Y82330D02*
X182880Y82296D01*
X177410Y46350D02*
X178308Y45720D01*
X164304Y23650D02*
X156752Y23650D01*
X150532Y29870D01*
X137800Y29870D01*
X177410Y36756D02*
X177410Y46350D01*
X177410Y36756D02*
X164304Y23650D01*
X97536Y18288D02*
X97536Y30480D01*
X97536Y18288D02*
X97780Y17220D01*
X97536Y30480D02*
X97558Y31750D01*
X99060Y30480D02*
X128016Y30480D01*
X128800Y29870D01*
X99060Y30480D02*
X97558Y31750D01*
X88392Y67056D02*
X59436Y67056D01*
X88392Y67056D02*
X88980Y67230D01*
X59436Y67056D02*
X58570Y66680D01*
X57912Y67056D02*
X42672Y67056D01*
X41500Y67400D01*
X57912Y67056D02*
X58570Y66680D01*
X97536Y77724D02*
X97536Y92964D01*
X97536Y77724D02*
X88392Y68580D01*
X97536Y92964D02*
X98828Y93150D01*
X88392Y68580D02*
X88980Y67230D01*
X99060Y68580D02*
X121920Y68580D01*
X99060Y68580D02*
X98980Y67230D01*
X121920Y68580D02*
X121920Y69220D01*
X121920Y70104D02*
X146304Y70104D01*
X146720Y69940D01*
X121920Y70104D02*
X121920Y69220D01*
X153190Y61241D02*
X156745Y57686D01*
X161772Y57686D01*
X165326Y61241D01*
X153190Y63470D02*
X146720Y69940D01*
X153190Y63470D02*
X153190Y61241D01*
X165326Y75974D02*
X171683Y82330D01*
X165326Y75974D02*
X165326Y61241D01*
X88392Y62484D02*
X64008Y62484D01*
X59436Y57912D01*
X88392Y62484D02*
X88980Y62230D01*
X59436Y57912D02*
X58570Y57880D01*
X83820Y32004D02*
X86868Y32004D01*
X83820Y32004D02*
X59436Y56388D01*
X86868Y32004D02*
X87308Y31750D01*
X59436Y56388D02*
X58570Y57880D01*
X57912Y57912D02*
X42672Y57912D01*
X41500Y57160D01*
X57912Y57912D02*
X58570Y57880D01*
X99060Y62484D02*
X120396Y62484D01*
X121920Y60960D01*
X99060Y62484D02*
X98980Y62230D01*
X121920Y60960D02*
X146304Y60960D01*
X146720Y59700D01*
X121920Y60420D02*
X121920Y60960D01*
X146720Y59700D02*
X160528Y45892D01*
X160528Y32766D01*
X159258Y107442D02*
X155448Y111252D01*
X159258Y107442D02*
X159258Y63754D01*
D18*
X160528Y32766D03*
X159258Y63754D03*
X155448Y111252D03*
D17*
X176784Y169164D02*
X164592Y181356D01*
X166116Y156972D02*
X188976Y156972D01*
X164592Y181356D02*
X164263Y181893D01*
X188976Y156972D02*
X190425Y156225D01*
X42672Y184404D02*
X21336Y184404D01*
X92964Y201168D02*
X111252Y201168D01*
X138684Y173736D01*
X21336Y184404D02*
X20160Y183799D01*
D18*
X176784Y169164D03*
X166116Y156972D03*
X92964Y201168D03*
D17*
X138684Y173736D02*
X138684Y155510D01*
X166116Y156972D02*
X176954Y146134D01*
X176954Y145061D01*
X171423Y139529D01*
X154665Y139529D02*
X138684Y155510D01*
X154665Y139529D02*
X171423Y139529D01*
D18*
X69855Y185470D03*
D17*
X47216Y188948D02*
X42672Y184404D01*
X47216Y188948D02*
X66377Y188948D01*
X69855Y185470D01*
X41910Y112776D02*
X33528Y112776D01*
X41910Y112776D02*
X49784Y104902D01*
X179832Y181356D02*
X193548Y181356D01*
X195072Y182880D01*
X196160Y183799D01*
D18*
X33528Y112776D03*
X49784Y104902D03*
X179832Y181356D03*
D17*
X195072Y286512D02*
X196160Y287299D01*
D18*
X180242Y206784D03*
D17*
X180242Y271682D02*
X195072Y286512D01*
X180242Y271682D02*
X180242Y206784D01*
X65786Y198120D02*
X33528Y198120D01*
X65786Y198120D02*
X87630Y176276D01*
D18*
X33528Y198120D03*
X87630Y176276D03*
D17*
X188850Y226289D02*
X196160Y233599D01*
X182755Y200716D02*
X177728Y200716D01*
D18*
X165058Y205740D03*
D17*
X182755Y200716D02*
X188850Y206811D01*
X177728Y200716D02*
X172704Y205740D01*
X165058Y205740D01*
X188850Y206811D02*
X188850Y226289D01*
X112776Y117348D02*
X103632Y108204D01*
X89916Y94488D01*
X112776Y117348D02*
X176784Y117348D01*
X89916Y94488D02*
X88578Y93150D01*
X176784Y117348D02*
X177970Y117480D01*
X24384Y233172D02*
X21336Y233172D01*
X24384Y233172D02*
X36576Y220980D01*
X46736Y220980D01*
X57912Y232156D01*
X65532Y158496D02*
X65532Y153924D01*
X85344Y134112D01*
X85344Y126492D01*
X103632Y108204D01*
X21336Y233172D02*
X20160Y233599D01*
D18*
X57912Y232156D03*
X65532Y158496D03*
D17*
X24384Y167640D02*
X24384Y134112D01*
X25833Y133259D01*
X22240Y285907D02*
X39116Y292862D01*
X22240Y285907D02*
X20160Y287299D01*
D18*
X24384Y167640D03*
X39116Y292862D03*
M02*
