G04 EAGLE Gerber RS-274X export*
G75*
%MOMM*%
%FSLAX34Y34*%
%LPD*%
%INSilkscreen Bottom*%
%IPPOS*%
%AMOC8*
5,1,8,0,0,1.08239X$1,22.5*%
G01*
G04 Define Apertures*
%ADD10C,0.200000*%
%ADD11C,0.254000*%
%ADD12C,0.127000*%
%ADD13C,0.100000*%
%ADD14C,0.050000*%
G36*
X202643Y259396D02*
X190302Y259396D01*
X190302Y264012D01*
X190314Y264452D01*
X190350Y264879D01*
X190409Y265293D01*
X190493Y265694D01*
X190600Y266081D01*
X190731Y266456D01*
X190886Y266817D01*
X191064Y267165D01*
X191265Y267497D01*
X191487Y267810D01*
X191730Y268103D01*
X191994Y268376D01*
X192278Y268630D01*
X192584Y268865D01*
X192911Y269080D01*
X193258Y269276D01*
X193624Y269451D01*
X194004Y269602D01*
X194399Y269730D01*
X194810Y269834D01*
X195235Y269916D01*
X195675Y269974D01*
X196130Y270009D01*
X196600Y270021D01*
X196957Y270014D01*
X197304Y269994D01*
X197640Y269961D01*
X197966Y269914D01*
X198282Y269854D01*
X198587Y269781D01*
X198882Y269694D01*
X199167Y269595D01*
X199441Y269482D01*
X199705Y269355D01*
X199959Y269215D01*
X200202Y269062D01*
X200435Y268896D01*
X200657Y268716D01*
X200869Y268523D01*
X201071Y268317D01*
X201261Y268098D01*
X201439Y267869D01*
X201605Y267628D01*
X201759Y267376D01*
X201900Y267112D01*
X202029Y266838D01*
X202146Y266552D01*
X202250Y266255D01*
X202342Y265947D01*
X202422Y265628D01*
X202489Y265298D01*
X202545Y264956D01*
X202588Y264603D01*
X202618Y264239D01*
X202637Y263864D01*
X202643Y263478D01*
X202643Y259396D01*
G37*
%LPC*%
G36*
X201303Y261069D02*
X201303Y263443D01*
X201284Y264021D01*
X201228Y264564D01*
X201134Y265071D01*
X201002Y265544D01*
X200832Y265981D01*
X200626Y266383D01*
X200381Y266750D01*
X200099Y267082D01*
X199781Y267377D01*
X199428Y267632D01*
X199042Y267848D01*
X198622Y268025D01*
X198167Y268162D01*
X197679Y268260D01*
X197156Y268319D01*
X196600Y268339D01*
X196225Y268330D01*
X195863Y268304D01*
X195513Y268261D01*
X195176Y268201D01*
X194852Y268123D01*
X194540Y268029D01*
X194241Y267916D01*
X193955Y267787D01*
X193682Y267642D01*
X193427Y267481D01*
X193188Y267306D01*
X192965Y267116D01*
X192758Y266911D01*
X192568Y266691D01*
X192395Y266456D01*
X192238Y266206D01*
X192098Y265944D01*
X191977Y265671D01*
X191875Y265388D01*
X191791Y265095D01*
X191726Y264791D01*
X191679Y264478D01*
X191652Y264154D01*
X191642Y263820D01*
X191642Y261069D01*
X201303Y261069D01*
G37*
%LPD*%
G36*
X202643Y214521D02*
X190302Y214521D01*
X190302Y216194D01*
X195426Y216194D01*
X195426Y220039D01*
X190302Y223245D01*
X190302Y225172D01*
X193355Y223160D01*
X195619Y221668D01*
X195691Y222011D01*
X195784Y222335D01*
X195900Y222640D01*
X196037Y222926D01*
X196130Y223082D01*
X196195Y223193D01*
X196376Y223441D01*
X196578Y223670D01*
X196801Y223880D01*
X197042Y224068D01*
X197297Y224231D01*
X197565Y224368D01*
X197848Y224481D01*
X198144Y224569D01*
X198453Y224631D01*
X198776Y224669D01*
X199113Y224681D01*
X199518Y224664D01*
X199900Y224610D01*
X200259Y224522D01*
X200595Y224398D01*
X200908Y224238D01*
X201198Y224043D01*
X201466Y223813D01*
X201710Y223547D01*
X201929Y223249D01*
X202118Y222921D01*
X202279Y222563D01*
X202410Y222175D01*
X202512Y221758D01*
X202585Y221311D01*
X202628Y220835D01*
X202643Y220328D01*
X202643Y214521D01*
G37*
%LPC*%
G36*
X201303Y216194D02*
X201303Y220162D01*
X201294Y220496D01*
X201268Y220809D01*
X201223Y221103D01*
X201162Y221376D01*
X201082Y221629D01*
X200985Y221862D01*
X200870Y222075D01*
X200738Y222268D01*
X200589Y222440D01*
X200424Y222588D01*
X200242Y222714D01*
X200045Y222817D01*
X199832Y222897D01*
X199602Y222954D01*
X199357Y222988D01*
X199096Y223000D01*
X198825Y222988D01*
X198571Y222955D01*
X198331Y222898D01*
X198107Y222819D01*
X197899Y222717D01*
X197706Y222593D01*
X197528Y222446D01*
X197366Y222277D01*
X197221Y222087D01*
X197096Y221878D01*
X196990Y221651D01*
X196903Y221405D01*
X196835Y221140D01*
X196787Y220856D01*
X196758Y220553D01*
X196748Y220232D01*
X196748Y216194D01*
X201303Y216194D01*
G37*
%LPD*%
G36*
X202643Y247428D02*
X190302Y247428D01*
X190302Y257150D01*
X191669Y257150D01*
X191669Y249101D01*
X195969Y249101D01*
X195969Y256265D01*
X197318Y256265D01*
X197318Y249101D01*
X201277Y249101D01*
X201277Y256791D01*
X202643Y256791D01*
X202643Y247428D01*
G37*
G36*
X196530Y286742D02*
X196045Y286753D01*
X195577Y286787D01*
X195126Y286843D01*
X194691Y286921D01*
X194273Y287021D01*
X193872Y287144D01*
X193487Y287289D01*
X193118Y287456D01*
X192768Y287645D01*
X192439Y287853D01*
X192131Y288082D01*
X191844Y288332D01*
X191577Y288601D01*
X191331Y288891D01*
X191106Y289201D01*
X190902Y289532D01*
X190720Y289880D01*
X190563Y290244D01*
X190430Y290624D01*
X190321Y291020D01*
X190236Y291431D01*
X190175Y291858D01*
X190139Y292301D01*
X190127Y292759D01*
X190140Y293208D01*
X190179Y293643D01*
X190244Y294063D01*
X190335Y294470D01*
X190452Y294864D01*
X190595Y295243D01*
X190764Y295609D01*
X190959Y295961D01*
X191179Y296296D01*
X191423Y296612D01*
X191690Y296908D01*
X191982Y297186D01*
X192297Y297444D01*
X192636Y297682D01*
X192999Y297902D01*
X193385Y298102D01*
X194068Y296736D01*
X193758Y296567D01*
X193467Y296389D01*
X193196Y296201D01*
X192946Y296003D01*
X192715Y295794D01*
X192505Y295576D01*
X192314Y295347D01*
X192144Y295109D01*
X191993Y294860D01*
X191863Y294601D01*
X191753Y294333D01*
X191662Y294054D01*
X191592Y293765D01*
X191542Y293466D01*
X191512Y293157D01*
X191502Y292838D01*
X191524Y292345D01*
X191588Y291879D01*
X191696Y291438D01*
X191847Y291024D01*
X192041Y290636D01*
X192278Y290274D01*
X192558Y289938D01*
X192882Y289628D01*
X193240Y289350D01*
X193627Y289109D01*
X194041Y288905D01*
X194483Y288738D01*
X194953Y288608D01*
X195451Y288515D01*
X195976Y288460D01*
X196530Y288441D01*
X197088Y288459D01*
X197616Y288512D01*
X198113Y288601D01*
X198580Y288726D01*
X199016Y288886D01*
X199422Y289082D01*
X199798Y289313D01*
X200142Y289580D01*
X200451Y289879D01*
X200719Y290206D01*
X200946Y290562D01*
X201131Y290946D01*
X201275Y291359D01*
X201378Y291800D01*
X201440Y292270D01*
X201461Y292768D01*
X201452Y293089D01*
X201425Y293398D01*
X201381Y293697D01*
X201318Y293984D01*
X201238Y294261D01*
X201140Y294526D01*
X201025Y294780D01*
X200891Y295023D01*
X200741Y295253D01*
X200575Y295466D01*
X200393Y295663D01*
X200195Y295843D01*
X199981Y296008D01*
X199752Y296156D01*
X199506Y296287D01*
X199245Y296403D01*
X199770Y297988D01*
X200137Y297822D01*
X200481Y297633D01*
X200802Y297423D01*
X201099Y297191D01*
X201373Y296937D01*
X201624Y296661D01*
X201852Y296363D01*
X202056Y296044D01*
X202237Y295703D01*
X202393Y295342D01*
X202526Y294961D01*
X202634Y294559D01*
X202719Y294137D01*
X202779Y293695D01*
X202815Y293233D01*
X202827Y292751D01*
X202820Y292403D01*
X202801Y292065D01*
X202768Y291736D01*
X202722Y291417D01*
X202664Y291108D01*
X202592Y290808D01*
X202507Y290517D01*
X202409Y290237D01*
X202298Y289966D01*
X202173Y289704D01*
X202036Y289452D01*
X201886Y289210D01*
X201546Y288754D01*
X201154Y288336D01*
X200716Y287963D01*
X200238Y287639D01*
X199720Y287365D01*
X199445Y287247D01*
X199161Y287141D01*
X198867Y287047D01*
X198563Y286966D01*
X198249Y286898D01*
X197925Y286842D01*
X197591Y286798D01*
X197247Y286767D01*
X196893Y286748D01*
X196530Y286742D01*
G37*
G36*
X191642Y272260D02*
X190302Y272260D01*
X190302Y279994D01*
X191642Y279994D01*
X191642Y276990D01*
X202643Y276990D01*
X202643Y275536D01*
X200637Y272619D01*
X199148Y272619D01*
X201137Y275404D01*
X191642Y275404D01*
X191642Y272260D01*
G37*
G36*
X191642Y300166D02*
X190302Y300166D01*
X190302Y307900D01*
X191642Y307900D01*
X191642Y304896D01*
X202643Y304896D01*
X202643Y303442D01*
X200637Y300525D01*
X199148Y300525D01*
X201137Y303311D01*
X191642Y303311D01*
X191642Y300166D01*
G37*
G36*
X202643Y237459D02*
X190302Y237459D01*
X190302Y245368D01*
X191669Y245368D01*
X191669Y239132D01*
X202643Y239132D01*
X202643Y237459D01*
G37*
G36*
X202643Y209737D02*
X190302Y209737D01*
X190302Y211409D01*
X202643Y211409D01*
X202643Y209737D01*
G37*
G36*
X187876Y225747D02*
X186737Y225747D01*
X186737Y236196D01*
X187876Y236196D01*
X187876Y225747D01*
G37*
G36*
X192115Y282500D02*
X190302Y282500D01*
X190302Y284208D01*
X192115Y284208D01*
X192115Y282500D01*
G37*
G36*
X199779Y282500D02*
X197966Y282500D01*
X197966Y284208D01*
X199779Y284208D01*
X199779Y282500D01*
G37*
G36*
X83182Y97003D02*
X79248Y97003D01*
X79248Y98474D01*
X79263Y98751D01*
X79309Y99011D01*
X79385Y99254D01*
X79491Y99480D01*
X79626Y99685D01*
X79787Y99866D01*
X79975Y100022D01*
X80190Y100153D01*
X80428Y100256D01*
X80685Y100331D01*
X80961Y100375D01*
X81256Y100390D01*
X81480Y100382D01*
X81691Y100356D01*
X81889Y100314D01*
X82074Y100254D01*
X82246Y100178D01*
X82404Y100084D01*
X82549Y99974D01*
X82681Y99847D01*
X82799Y99704D01*
X82900Y99547D01*
X82987Y99375D01*
X83057Y99190D01*
X83112Y98990D01*
X83151Y98775D01*
X83175Y98547D01*
X83182Y98304D01*
X83182Y97003D01*
G37*
%LPC*%
G36*
X82755Y97536D02*
X82755Y98293D01*
X82749Y98477D01*
X82731Y98650D01*
X82701Y98812D01*
X82659Y98963D01*
X82605Y99102D01*
X82539Y99230D01*
X82371Y99453D01*
X82270Y99547D01*
X82158Y99628D01*
X82034Y99697D01*
X81900Y99754D01*
X81756Y99798D01*
X81600Y99829D01*
X81433Y99848D01*
X81256Y99854D01*
X81021Y99843D01*
X80802Y99810D01*
X80599Y99755D01*
X80412Y99678D01*
X80244Y99580D01*
X80097Y99464D01*
X79971Y99328D01*
X79865Y99174D01*
X79782Y99003D01*
X79723Y98820D01*
X79687Y98623D01*
X79675Y98413D01*
X79675Y97536D01*
X82755Y97536D01*
G37*
%LPD*%
G36*
X83182Y84284D02*
X79248Y84284D01*
X79248Y84817D01*
X80882Y84817D01*
X80882Y86043D01*
X79248Y87065D01*
X79248Y87680D01*
X80221Y87038D01*
X80943Y86563D01*
X80996Y86775D01*
X81076Y86964D01*
X81109Y87013D01*
X81184Y87128D01*
X81320Y87268D01*
X81478Y87380D01*
X81654Y87459D01*
X81847Y87507D01*
X82057Y87523D01*
X82308Y87501D01*
X82529Y87433D01*
X82722Y87320D01*
X82885Y87162D01*
X83015Y86962D01*
X83108Y86724D01*
X83164Y86449D01*
X83182Y86135D01*
X83182Y84284D01*
G37*
%LPC*%
G36*
X82755Y84817D02*
X82755Y86082D01*
X82744Y86289D01*
X82710Y86469D01*
X82654Y86625D01*
X82575Y86754D01*
X82475Y86856D01*
X82354Y86929D01*
X82213Y86973D01*
X82052Y86987D01*
X81884Y86973D01*
X81736Y86930D01*
X81608Y86858D01*
X81500Y86757D01*
X81414Y86630D01*
X81352Y86479D01*
X81315Y86304D01*
X81303Y86105D01*
X81303Y84817D01*
X82755Y84817D01*
G37*
%LPD*%
G36*
X83182Y93190D02*
X79248Y93190D01*
X79248Y96290D01*
X79684Y96290D01*
X79684Y93724D01*
X81055Y93724D01*
X81055Y96008D01*
X81485Y96008D01*
X81485Y93724D01*
X82747Y93724D01*
X82747Y96175D01*
X83182Y96175D01*
X83182Y93190D01*
G37*
G36*
X83182Y90003D02*
X79248Y90003D01*
X79248Y92524D01*
X79684Y92524D01*
X79684Y90536D01*
X83182Y90536D01*
X83182Y90003D01*
G37*
G36*
X83182Y82749D02*
X79248Y82749D01*
X79248Y83282D01*
X83182Y83282D01*
X83182Y82749D01*
G37*
G36*
X168737Y101008D02*
X168494Y101017D01*
X168267Y101045D01*
X168054Y101090D01*
X167857Y101154D01*
X167674Y101236D01*
X167505Y101336D01*
X167352Y101455D01*
X167213Y101591D01*
X167091Y101747D01*
X166984Y101921D01*
X166894Y102114D01*
X166820Y102327D01*
X166763Y102558D01*
X166722Y102808D01*
X166697Y103078D01*
X166689Y103366D01*
X166697Y103658D01*
X166720Y103929D01*
X166758Y104181D01*
X166812Y104413D01*
X166881Y104625D01*
X166965Y104818D01*
X167065Y104990D01*
X167180Y105143D01*
X167311Y105278D01*
X167460Y105394D01*
X167625Y105492D01*
X167808Y105573D01*
X168008Y105636D01*
X168226Y105680D01*
X168460Y105707D01*
X168712Y105716D01*
X168958Y105707D01*
X169189Y105679D01*
X169403Y105634D01*
X169602Y105569D01*
X169785Y105487D01*
X169952Y105386D01*
X170103Y105266D01*
X170238Y105129D01*
X170357Y104973D01*
X170460Y104798D01*
X170548Y104606D01*
X170619Y104394D01*
X170675Y104165D01*
X170715Y103917D01*
X170739Y103651D01*
X170747Y103366D01*
X170739Y103088D01*
X170715Y102827D01*
X170675Y102583D01*
X170620Y102356D01*
X170548Y102145D01*
X170461Y101951D01*
X170358Y101774D01*
X170239Y101614D01*
X170104Y101472D01*
X169955Y101349D01*
X169790Y101245D01*
X169609Y101160D01*
X169414Y101093D01*
X169204Y101046D01*
X168978Y101018D01*
X168737Y101008D01*
G37*
%LPC*%
G36*
X168745Y101566D02*
X168896Y101573D01*
X169037Y101594D01*
X169167Y101630D01*
X169287Y101679D01*
X169396Y101742D01*
X169495Y101820D01*
X169584Y101912D01*
X169662Y102017D01*
X169790Y102271D01*
X169881Y102580D01*
X169935Y102945D01*
X169954Y103366D01*
X169935Y103797D01*
X169880Y104167D01*
X169787Y104476D01*
X169658Y104724D01*
X169578Y104826D01*
X169487Y104914D01*
X169384Y104988D01*
X169270Y105050D01*
X169145Y105097D01*
X169007Y105131D01*
X168859Y105151D01*
X168699Y105158D01*
X168540Y105151D01*
X168393Y105131D01*
X168258Y105098D01*
X168135Y105052D01*
X168024Y104992D01*
X167924Y104919D01*
X167837Y104832D01*
X167761Y104732D01*
X167639Y104487D01*
X167552Y104178D01*
X167499Y103804D01*
X167482Y103366D01*
X167500Y102933D01*
X167555Y102562D01*
X167646Y102251D01*
X167774Y102003D01*
X167853Y101900D01*
X167944Y101812D01*
X168047Y101737D01*
X168162Y101675D01*
X168290Y101628D01*
X168429Y101593D01*
X168581Y101573D01*
X168745Y101566D01*
G37*
%LPD*%
G36*
X191839Y101008D02*
X191575Y101022D01*
X191331Y101062D01*
X191108Y101130D01*
X190905Y101224D01*
X190719Y101351D01*
X190545Y101516D01*
X190383Y101719D01*
X190232Y101961D01*
X190207Y101961D01*
X190184Y101741D01*
X190140Y101553D01*
X190076Y101396D01*
X189991Y101270D01*
X189881Y101174D01*
X189743Y101105D01*
X189576Y101064D01*
X189380Y101050D01*
X189085Y101067D01*
X188797Y101117D01*
X188797Y101587D01*
X189044Y101558D01*
X189158Y101568D01*
X189252Y101600D01*
X189326Y101653D01*
X189380Y101728D01*
X189419Y101823D01*
X189446Y101939D01*
X189468Y102233D01*
X189468Y104189D01*
X189475Y104369D01*
X189495Y104538D01*
X189529Y104697D01*
X189576Y104844D01*
X189637Y104980D01*
X189711Y105106D01*
X189799Y105220D01*
X189900Y105324D01*
X190015Y105416D01*
X190143Y105495D01*
X190284Y105563D01*
X190439Y105618D01*
X190606Y105661D01*
X190787Y105692D01*
X190981Y105710D01*
X191189Y105716D01*
X191573Y105697D01*
X191913Y105640D01*
X192208Y105544D01*
X192458Y105410D01*
X192663Y105238D01*
X192824Y105027D01*
X192939Y104778D01*
X193010Y104491D01*
X192221Y104420D01*
X192186Y104596D01*
X192129Y104746D01*
X192048Y104870D01*
X191944Y104969D01*
X191811Y105045D01*
X191644Y105098D01*
X191442Y105131D01*
X191205Y105141D01*
X190970Y105126D01*
X190769Y105082D01*
X190601Y105007D01*
X190467Y104902D01*
X190364Y104763D01*
X190291Y104584D01*
X190247Y104366D01*
X190232Y104109D01*
X190232Y103861D01*
X191252Y103845D01*
X191732Y103810D01*
X191946Y103776D01*
X192142Y103731D01*
X192320Y103676D01*
X192480Y103609D01*
X192623Y103531D01*
X192748Y103442D01*
X192856Y103342D01*
X192950Y103233D01*
X193030Y103113D01*
X193095Y102982D01*
X193146Y102842D01*
X193182Y102691D01*
X193204Y102530D01*
X193211Y102359D01*
X193190Y102061D01*
X193125Y101797D01*
X193018Y101566D01*
X192867Y101369D01*
X192674Y101211D01*
X192438Y101098D01*
X192160Y101031D01*
X191839Y101008D01*
G37*
%LPC*%
G36*
X191667Y101575D02*
X191841Y101587D01*
X191994Y101625D01*
X192125Y101688D01*
X192236Y101776D01*
X192323Y101887D01*
X192385Y102019D01*
X192422Y102173D01*
X192435Y102347D01*
X192426Y102508D01*
X192398Y102654D01*
X192352Y102783D01*
X192288Y102896D01*
X192207Y102994D01*
X192109Y103079D01*
X191996Y103150D01*
X191866Y103207D01*
X191713Y103251D01*
X191527Y103284D01*
X191309Y103306D01*
X191059Y103316D01*
X190232Y103333D01*
X190232Y102959D01*
X190244Y102786D01*
X190279Y102616D01*
X190337Y102447D01*
X190419Y102282D01*
X190521Y102126D01*
X190639Y101987D01*
X190775Y101867D01*
X190928Y101763D01*
X191096Y101681D01*
X191275Y101622D01*
X191465Y101586D01*
X191667Y101575D01*
G37*
%LPD*%
G36*
X185333Y101092D02*
X184574Y101092D01*
X184574Y104117D01*
X184595Y104515D01*
X184660Y104852D01*
X184709Y104998D01*
X184768Y105129D01*
X184839Y105244D01*
X184920Y105345D01*
X185013Y105432D01*
X185118Y105507D01*
X185236Y105571D01*
X185366Y105623D01*
X185509Y105664D01*
X185665Y105693D01*
X186013Y105716D01*
X186256Y105704D01*
X186479Y105667D01*
X186681Y105606D01*
X186863Y105521D01*
X187029Y105406D01*
X187184Y105257D01*
X187330Y105074D01*
X187465Y104856D01*
X187477Y104856D01*
X187492Y105307D01*
X187503Y105519D01*
X187511Y105632D01*
X188224Y105632D01*
X188205Y105302D01*
X188199Y104663D01*
X188199Y101092D01*
X187444Y101092D01*
X187444Y103723D01*
X187424Y104036D01*
X187365Y104314D01*
X187267Y104555D01*
X187129Y104759D01*
X186957Y104923D01*
X186757Y105040D01*
X186527Y105110D01*
X186269Y105133D01*
X186093Y105126D01*
X185941Y105106D01*
X185810Y105072D01*
X185702Y105024D01*
X185613Y104961D01*
X185536Y104880D01*
X185472Y104782D01*
X185421Y104667D01*
X185383Y104531D01*
X185355Y104369D01*
X185339Y104182D01*
X185333Y103971D01*
X185333Y101092D01*
G37*
G36*
X175651Y101008D02*
X175239Y101030D01*
X174875Y101095D01*
X174560Y101204D01*
X174293Y101356D01*
X174180Y101448D01*
X174081Y101549D01*
X173998Y101659D01*
X173930Y101778D01*
X173877Y101906D01*
X173839Y102044D01*
X173816Y102191D01*
X173809Y102347D01*
X173830Y102593D01*
X173893Y102810D01*
X173994Y103002D01*
X174130Y103169D01*
X174311Y103318D01*
X174547Y103452D01*
X174895Y103586D01*
X175412Y103731D01*
X175936Y103870D01*
X176242Y103975D01*
X176416Y104072D01*
X176540Y104189D01*
X176616Y104331D01*
X176635Y104415D01*
X176641Y104508D01*
X176626Y104655D01*
X176580Y104783D01*
X176504Y104890D01*
X176398Y104978D01*
X176259Y105046D01*
X176087Y105094D01*
X175882Y105123D01*
X175642Y105133D01*
X175423Y105123D01*
X175228Y105093D01*
X175055Y105042D01*
X174906Y104971D01*
X174782Y104882D01*
X174684Y104775D01*
X174613Y104650D01*
X174568Y104508D01*
X173888Y104592D01*
X173967Y104863D01*
X174087Y105095D01*
X174248Y105287D01*
X174449Y105439D01*
X174689Y105555D01*
X174968Y105637D01*
X175286Y105687D01*
X175642Y105704D01*
X176041Y105683D01*
X176389Y105622D01*
X176686Y105521D01*
X176933Y105378D01*
X177126Y105197D01*
X177202Y105093D01*
X177265Y104979D01*
X177313Y104856D01*
X177348Y104724D01*
X177368Y104583D01*
X177375Y104432D01*
X177366Y104271D01*
X177337Y104123D01*
X177288Y103988D01*
X177220Y103866D01*
X177135Y103755D01*
X177035Y103652D01*
X176790Y103473D01*
X176629Y103392D01*
X176421Y103310D01*
X175865Y103144D01*
X175323Y103001D01*
X175132Y102943D01*
X174969Y102877D01*
X174834Y102805D01*
X174728Y102724D01*
X174647Y102634D01*
X174589Y102531D01*
X174555Y102416D01*
X174543Y102288D01*
X174560Y102123D01*
X174610Y101979D01*
X174693Y101858D01*
X174809Y101759D01*
X174962Y101682D01*
X175153Y101627D01*
X175383Y101594D01*
X175651Y101583D01*
X175905Y101594D01*
X176129Y101625D01*
X176324Y101679D01*
X176490Y101753D01*
X176628Y101850D01*
X176741Y101972D01*
X176828Y102118D01*
X176889Y102288D01*
X177556Y102158D01*
X177467Y101882D01*
X177337Y101644D01*
X177168Y101446D01*
X176958Y101287D01*
X176704Y101165D01*
X176401Y101078D01*
X176050Y101026D01*
X175651Y101008D01*
G37*
G36*
X181870Y101008D02*
X181457Y101030D01*
X181094Y101095D01*
X180779Y101204D01*
X180512Y101356D01*
X180398Y101448D01*
X180300Y101549D01*
X180217Y101659D01*
X180149Y101778D01*
X180096Y101906D01*
X180058Y102044D01*
X180035Y102191D01*
X180027Y102347D01*
X180048Y102593D01*
X180111Y102810D01*
X180213Y103002D01*
X180348Y103169D01*
X180529Y103318D01*
X180766Y103452D01*
X181114Y103586D01*
X181630Y103731D01*
X182155Y103870D01*
X182461Y103975D01*
X182634Y104072D01*
X182759Y104189D01*
X182835Y104331D01*
X182854Y104415D01*
X182860Y104508D01*
X182845Y104655D01*
X182799Y104783D01*
X182723Y104890D01*
X182616Y104978D01*
X182478Y105046D01*
X182306Y105094D01*
X182100Y105123D01*
X181861Y105133D01*
X181642Y105123D01*
X181446Y105093D01*
X181274Y105042D01*
X181125Y104971D01*
X181001Y104882D01*
X180903Y104775D01*
X180832Y104650D01*
X180787Y104508D01*
X180107Y104592D01*
X180186Y104863D01*
X180306Y105095D01*
X180466Y105287D01*
X180667Y105439D01*
X180908Y105555D01*
X181187Y105637D01*
X181505Y105687D01*
X181861Y105704D01*
X182260Y105683D01*
X182608Y105622D01*
X182905Y105521D01*
X183151Y105378D01*
X183345Y105197D01*
X183421Y105093D01*
X183483Y104979D01*
X183532Y104856D01*
X183566Y104724D01*
X183587Y104583D01*
X183594Y104432D01*
X183584Y104271D01*
X183555Y104123D01*
X183507Y103988D01*
X183439Y103866D01*
X183354Y103755D01*
X183254Y103652D01*
X183009Y103473D01*
X182848Y103392D01*
X182640Y103310D01*
X182084Y103144D01*
X181542Y103001D01*
X181351Y102943D01*
X181188Y102877D01*
X181053Y102805D01*
X180946Y102724D01*
X180866Y102634D01*
X180808Y102531D01*
X180773Y102416D01*
X180762Y102288D01*
X180778Y102123D01*
X180828Y101979D01*
X180912Y101858D01*
X181028Y101759D01*
X181181Y101682D01*
X181372Y101627D01*
X181601Y101594D01*
X181870Y101583D01*
X182123Y101594D01*
X182348Y101625D01*
X182543Y101679D01*
X182709Y101753D01*
X182847Y101850D01*
X182959Y101972D01*
X183046Y102118D01*
X183107Y102288D01*
X183775Y102158D01*
X183685Y101882D01*
X183556Y101644D01*
X183386Y101446D01*
X183177Y101287D01*
X182923Y101165D01*
X182620Y101078D01*
X182269Y101026D01*
X181870Y101008D01*
G37*
G36*
X199165Y101092D02*
X198368Y101092D01*
X198368Y106350D01*
X196337Y106350D01*
X196337Y107004D01*
X201196Y107004D01*
X201196Y106350D01*
X199165Y106350D01*
X199165Y101092D01*
G37*
G36*
X171922Y101025D02*
X171727Y101031D01*
X171536Y101050D01*
X171158Y101126D01*
X171158Y101684D01*
X171410Y101640D01*
X171594Y101625D01*
X171717Y101633D01*
X171819Y101658D01*
X171902Y101699D01*
X171966Y101757D01*
X172012Y101835D01*
X172046Y101938D01*
X172066Y102065D01*
X172073Y102217D01*
X172073Y105083D01*
X171233Y105083D01*
X171233Y105632D01*
X172073Y105632D01*
X172073Y106648D01*
X172576Y106648D01*
X172799Y105632D01*
X173352Y105632D01*
X173352Y105083D01*
X172828Y105083D01*
X172828Y102053D01*
X172814Y101812D01*
X172771Y101603D01*
X172700Y101426D01*
X172601Y101282D01*
X172474Y101169D01*
X172318Y101089D01*
X172134Y101041D01*
X171922Y101025D01*
G37*
G36*
X165730Y101092D02*
X164975Y101092D01*
X164975Y103459D01*
X164960Y103814D01*
X164913Y104126D01*
X164836Y104395D01*
X164728Y104619D01*
X164590Y104796D01*
X164424Y104923D01*
X164231Y104999D01*
X164124Y105017D01*
X164010Y105024D01*
X163783Y105013D01*
X163607Y104982D01*
X163607Y105674D01*
X163761Y105706D01*
X163913Y105716D01*
X164115Y105703D01*
X164293Y105663D01*
X164447Y105596D01*
X164576Y105502D01*
X164691Y105372D01*
X164798Y105196D01*
X164898Y104973D01*
X164992Y104705D01*
X165009Y104705D01*
X165042Y105632D01*
X165756Y105632D01*
X165730Y104575D01*
X165730Y101092D01*
G37*
G36*
X195855Y101092D02*
X195100Y101092D01*
X195100Y103459D01*
X195085Y103814D01*
X195038Y104126D01*
X194961Y104395D01*
X194853Y104619D01*
X194715Y104796D01*
X194549Y104923D01*
X194356Y104999D01*
X194249Y105017D01*
X194135Y105024D01*
X193908Y105013D01*
X193732Y104982D01*
X193732Y105674D01*
X193886Y105706D01*
X194038Y105716D01*
X194240Y105703D01*
X194418Y105663D01*
X194572Y105596D01*
X194701Y105502D01*
X194816Y105372D01*
X194923Y105196D01*
X195023Y104973D01*
X195117Y104705D01*
X195134Y104705D01*
X195167Y105632D01*
X195881Y105632D01*
X195855Y104575D01*
X195855Y101092D01*
G37*
G36*
X179126Y101092D02*
X178371Y101092D01*
X178371Y105632D01*
X179126Y105632D01*
X179126Y101092D01*
G37*
G36*
X179126Y106597D02*
X178371Y106597D01*
X178371Y107319D01*
X179126Y107319D01*
X179126Y106597D01*
G37*
G36*
X7447Y32428D02*
X7204Y32437D01*
X6977Y32465D01*
X6764Y32510D01*
X6567Y32574D01*
X6384Y32656D01*
X6215Y32756D01*
X6062Y32875D01*
X5923Y33011D01*
X5801Y33167D01*
X5694Y33341D01*
X5604Y33534D01*
X5530Y33747D01*
X5473Y33978D01*
X5432Y34228D01*
X5407Y34498D01*
X5399Y34786D01*
X5407Y35078D01*
X5430Y35349D01*
X5468Y35601D01*
X5522Y35833D01*
X5591Y36045D01*
X5675Y36238D01*
X5775Y36410D01*
X5890Y36563D01*
X6021Y36698D01*
X6170Y36814D01*
X6335Y36912D01*
X6518Y36993D01*
X6718Y37056D01*
X6936Y37100D01*
X7170Y37127D01*
X7422Y37136D01*
X7668Y37127D01*
X7899Y37099D01*
X8113Y37054D01*
X8312Y36989D01*
X8495Y36907D01*
X8662Y36806D01*
X8813Y36686D01*
X8948Y36549D01*
X9067Y36393D01*
X9170Y36218D01*
X9258Y36026D01*
X9329Y35814D01*
X9385Y35585D01*
X9425Y35337D01*
X9449Y35071D01*
X9457Y34786D01*
X9449Y34508D01*
X9425Y34247D01*
X9385Y34003D01*
X9330Y33776D01*
X9258Y33565D01*
X9171Y33371D01*
X9068Y33194D01*
X8949Y33034D01*
X8814Y32892D01*
X8665Y32769D01*
X8500Y32665D01*
X8319Y32580D01*
X8124Y32513D01*
X7914Y32466D01*
X7688Y32438D01*
X7447Y32428D01*
G37*
%LPC*%
G36*
X7455Y32986D02*
X7606Y32993D01*
X7747Y33014D01*
X7877Y33050D01*
X7997Y33099D01*
X8106Y33162D01*
X8205Y33240D01*
X8294Y33332D01*
X8372Y33437D01*
X8500Y33691D01*
X8591Y34000D01*
X8645Y34365D01*
X8664Y34786D01*
X8645Y35217D01*
X8590Y35587D01*
X8497Y35896D01*
X8368Y36144D01*
X8288Y36246D01*
X8197Y36334D01*
X8094Y36408D01*
X7980Y36470D01*
X7855Y36517D01*
X7717Y36551D01*
X7569Y36571D01*
X7409Y36578D01*
X7250Y36571D01*
X7103Y36551D01*
X6968Y36518D01*
X6845Y36472D01*
X6734Y36412D01*
X6634Y36339D01*
X6547Y36252D01*
X6471Y36152D01*
X6349Y35907D01*
X6262Y35598D01*
X6209Y35224D01*
X6192Y34786D01*
X6210Y34353D01*
X6265Y33982D01*
X6356Y33671D01*
X6484Y33423D01*
X6563Y33320D01*
X6654Y33232D01*
X6757Y33157D01*
X6872Y33095D01*
X7000Y33048D01*
X7139Y33013D01*
X7291Y32993D01*
X7455Y32986D01*
G37*
%LPD*%
G36*
X30549Y32428D02*
X30285Y32442D01*
X30041Y32482D01*
X29818Y32550D01*
X29615Y32644D01*
X29429Y32771D01*
X29255Y32936D01*
X29093Y33139D01*
X28942Y33381D01*
X28917Y33381D01*
X28894Y33161D01*
X28850Y32973D01*
X28786Y32816D01*
X28701Y32690D01*
X28591Y32594D01*
X28453Y32525D01*
X28286Y32484D01*
X28090Y32470D01*
X27795Y32487D01*
X27507Y32537D01*
X27507Y33007D01*
X27754Y32978D01*
X27868Y32988D01*
X27962Y33020D01*
X28036Y33073D01*
X28090Y33148D01*
X28129Y33243D01*
X28156Y33359D01*
X28178Y33653D01*
X28178Y35609D01*
X28185Y35789D01*
X28205Y35958D01*
X28239Y36117D01*
X28286Y36264D01*
X28347Y36400D01*
X28421Y36526D01*
X28509Y36640D01*
X28610Y36744D01*
X28725Y36836D01*
X28853Y36915D01*
X28994Y36983D01*
X29149Y37038D01*
X29316Y37081D01*
X29497Y37112D01*
X29691Y37130D01*
X29899Y37136D01*
X30283Y37117D01*
X30623Y37060D01*
X30918Y36964D01*
X31168Y36830D01*
X31373Y36658D01*
X31534Y36447D01*
X31649Y36198D01*
X31720Y35911D01*
X30931Y35840D01*
X30896Y36016D01*
X30839Y36166D01*
X30758Y36290D01*
X30654Y36389D01*
X30521Y36465D01*
X30354Y36518D01*
X30152Y36551D01*
X29915Y36561D01*
X29680Y36546D01*
X29479Y36502D01*
X29311Y36427D01*
X29177Y36322D01*
X29074Y36183D01*
X29001Y36004D01*
X28957Y35786D01*
X28942Y35529D01*
X28942Y35281D01*
X29962Y35265D01*
X30442Y35230D01*
X30656Y35196D01*
X30852Y35151D01*
X31030Y35096D01*
X31190Y35029D01*
X31333Y34951D01*
X31458Y34862D01*
X31566Y34762D01*
X31660Y34653D01*
X31740Y34533D01*
X31805Y34402D01*
X31856Y34262D01*
X31892Y34111D01*
X31914Y33950D01*
X31921Y33779D01*
X31900Y33481D01*
X31835Y33217D01*
X31728Y32986D01*
X31577Y32789D01*
X31384Y32631D01*
X31148Y32518D01*
X30870Y32451D01*
X30549Y32428D01*
G37*
%LPC*%
G36*
X30377Y32995D02*
X30551Y33007D01*
X30704Y33045D01*
X30835Y33108D01*
X30946Y33196D01*
X31033Y33307D01*
X31095Y33439D01*
X31132Y33593D01*
X31145Y33767D01*
X31136Y33928D01*
X31108Y34074D01*
X31062Y34203D01*
X30998Y34316D01*
X30917Y34414D01*
X30819Y34499D01*
X30706Y34570D01*
X30576Y34627D01*
X30423Y34671D01*
X30237Y34704D01*
X30019Y34726D01*
X29769Y34736D01*
X28942Y34753D01*
X28942Y34379D01*
X28954Y34206D01*
X28989Y34036D01*
X29047Y33867D01*
X29129Y33702D01*
X29231Y33546D01*
X29349Y33407D01*
X29485Y33287D01*
X29638Y33183D01*
X29806Y33101D01*
X29985Y33042D01*
X30175Y33006D01*
X30377Y32995D01*
G37*
%LPD*%
G36*
X24043Y32512D02*
X23284Y32512D01*
X23284Y35537D01*
X23305Y35935D01*
X23370Y36272D01*
X23419Y36418D01*
X23478Y36549D01*
X23549Y36664D01*
X23630Y36765D01*
X23723Y36852D01*
X23828Y36927D01*
X23946Y36991D01*
X24076Y37043D01*
X24219Y37084D01*
X24375Y37113D01*
X24723Y37136D01*
X24966Y37124D01*
X25189Y37087D01*
X25391Y37026D01*
X25573Y36941D01*
X25739Y36826D01*
X25894Y36677D01*
X26040Y36494D01*
X26175Y36276D01*
X26187Y36276D01*
X26202Y36727D01*
X26213Y36939D01*
X26221Y37052D01*
X26934Y37052D01*
X26915Y36722D01*
X26909Y36083D01*
X26909Y32512D01*
X26154Y32512D01*
X26154Y35143D01*
X26134Y35456D01*
X26075Y35734D01*
X25977Y35975D01*
X25839Y36179D01*
X25667Y36343D01*
X25467Y36460D01*
X25237Y36530D01*
X24979Y36553D01*
X24803Y36546D01*
X24651Y36526D01*
X24520Y36492D01*
X24412Y36444D01*
X24323Y36381D01*
X24246Y36300D01*
X24182Y36202D01*
X24131Y36087D01*
X24093Y35951D01*
X24065Y35789D01*
X24049Y35602D01*
X24043Y35391D01*
X24043Y32512D01*
G37*
G36*
X14361Y32428D02*
X13949Y32450D01*
X13585Y32515D01*
X13270Y32624D01*
X13003Y32776D01*
X12890Y32868D01*
X12791Y32969D01*
X12708Y33079D01*
X12640Y33198D01*
X12587Y33326D01*
X12549Y33464D01*
X12526Y33611D01*
X12519Y33767D01*
X12540Y34013D01*
X12603Y34230D01*
X12704Y34422D01*
X12840Y34589D01*
X13021Y34738D01*
X13257Y34872D01*
X13605Y35006D01*
X14122Y35151D01*
X14646Y35290D01*
X14952Y35395D01*
X15126Y35492D01*
X15250Y35609D01*
X15326Y35751D01*
X15345Y35835D01*
X15351Y35928D01*
X15336Y36075D01*
X15290Y36203D01*
X15214Y36310D01*
X15108Y36398D01*
X14969Y36466D01*
X14797Y36514D01*
X14592Y36543D01*
X14352Y36553D01*
X14133Y36543D01*
X13938Y36513D01*
X13765Y36462D01*
X13616Y36391D01*
X13492Y36302D01*
X13394Y36195D01*
X13323Y36070D01*
X13278Y35928D01*
X12598Y36012D01*
X12677Y36283D01*
X12797Y36515D01*
X12958Y36707D01*
X13159Y36859D01*
X13399Y36975D01*
X13678Y37057D01*
X13996Y37107D01*
X14352Y37124D01*
X14751Y37103D01*
X15099Y37042D01*
X15396Y36941D01*
X15643Y36798D01*
X15836Y36617D01*
X15912Y36513D01*
X15975Y36399D01*
X16023Y36276D01*
X16058Y36144D01*
X16078Y36003D01*
X16085Y35852D01*
X16076Y35691D01*
X16047Y35543D01*
X15998Y35408D01*
X15930Y35286D01*
X15845Y35175D01*
X15745Y35072D01*
X15500Y34893D01*
X15339Y34812D01*
X15131Y34730D01*
X14575Y34564D01*
X14033Y34421D01*
X13842Y34363D01*
X13679Y34297D01*
X13544Y34225D01*
X13438Y34144D01*
X13357Y34054D01*
X13299Y33951D01*
X13265Y33836D01*
X13253Y33708D01*
X13270Y33543D01*
X13320Y33399D01*
X13403Y33278D01*
X13519Y33179D01*
X13672Y33102D01*
X13863Y33047D01*
X14093Y33014D01*
X14361Y33003D01*
X14615Y33014D01*
X14839Y33045D01*
X15034Y33099D01*
X15200Y33173D01*
X15338Y33270D01*
X15451Y33392D01*
X15538Y33538D01*
X15599Y33708D01*
X16266Y33578D01*
X16177Y33302D01*
X16047Y33064D01*
X15878Y32866D01*
X15668Y32707D01*
X15414Y32585D01*
X15111Y32498D01*
X14760Y32446D01*
X14361Y32428D01*
G37*
G36*
X20580Y32428D02*
X20167Y32450D01*
X19804Y32515D01*
X19489Y32624D01*
X19222Y32776D01*
X19108Y32868D01*
X19010Y32969D01*
X18927Y33079D01*
X18859Y33198D01*
X18806Y33326D01*
X18768Y33464D01*
X18745Y33611D01*
X18737Y33767D01*
X18758Y34013D01*
X18821Y34230D01*
X18923Y34422D01*
X19058Y34589D01*
X19239Y34738D01*
X19476Y34872D01*
X19824Y35006D01*
X20340Y35151D01*
X20865Y35290D01*
X21171Y35395D01*
X21344Y35492D01*
X21469Y35609D01*
X21545Y35751D01*
X21564Y35835D01*
X21570Y35928D01*
X21555Y36075D01*
X21509Y36203D01*
X21433Y36310D01*
X21326Y36398D01*
X21188Y36466D01*
X21016Y36514D01*
X20810Y36543D01*
X20571Y36553D01*
X20352Y36543D01*
X20156Y36513D01*
X19984Y36462D01*
X19835Y36391D01*
X19711Y36302D01*
X19613Y36195D01*
X19542Y36070D01*
X19497Y35928D01*
X18817Y36012D01*
X18896Y36283D01*
X19016Y36515D01*
X19176Y36707D01*
X19377Y36859D01*
X19618Y36975D01*
X19897Y37057D01*
X20215Y37107D01*
X20571Y37124D01*
X20970Y37103D01*
X21318Y37042D01*
X21615Y36941D01*
X21861Y36798D01*
X22055Y36617D01*
X22131Y36513D01*
X22193Y36399D01*
X22242Y36276D01*
X22276Y36144D01*
X22297Y36003D01*
X22304Y35852D01*
X22294Y35691D01*
X22265Y35543D01*
X22217Y35408D01*
X22149Y35286D01*
X22064Y35175D01*
X21964Y35072D01*
X21719Y34893D01*
X21558Y34812D01*
X21350Y34730D01*
X20794Y34564D01*
X20252Y34421D01*
X20061Y34363D01*
X19898Y34297D01*
X19763Y34225D01*
X19656Y34144D01*
X19576Y34054D01*
X19518Y33951D01*
X19483Y33836D01*
X19472Y33708D01*
X19488Y33543D01*
X19538Y33399D01*
X19622Y33278D01*
X19738Y33179D01*
X19891Y33102D01*
X20082Y33047D01*
X20311Y33014D01*
X20580Y33003D01*
X20833Y33014D01*
X21058Y33045D01*
X21253Y33099D01*
X21419Y33173D01*
X21557Y33270D01*
X21669Y33392D01*
X21756Y33538D01*
X21817Y33708D01*
X22485Y33578D01*
X22395Y33302D01*
X22266Y33064D01*
X22096Y32866D01*
X21887Y32707D01*
X21633Y32585D01*
X21330Y32498D01*
X20979Y32446D01*
X20580Y32428D01*
G37*
G36*
X37875Y32512D02*
X37078Y32512D01*
X37078Y37770D01*
X35047Y37770D01*
X35047Y38424D01*
X39906Y38424D01*
X39906Y37770D01*
X37875Y37770D01*
X37875Y32512D01*
G37*
G36*
X10632Y32445D02*
X10437Y32451D01*
X10246Y32470D01*
X9868Y32546D01*
X9868Y33104D01*
X10120Y33060D01*
X10304Y33045D01*
X10427Y33053D01*
X10529Y33078D01*
X10612Y33119D01*
X10676Y33177D01*
X10722Y33255D01*
X10756Y33358D01*
X10776Y33485D01*
X10783Y33637D01*
X10783Y36503D01*
X9943Y36503D01*
X9943Y37052D01*
X10783Y37052D01*
X10783Y38068D01*
X11286Y38068D01*
X11509Y37052D01*
X12062Y37052D01*
X12062Y36503D01*
X11538Y36503D01*
X11538Y33473D01*
X11524Y33232D01*
X11481Y33023D01*
X11410Y32846D01*
X11311Y32702D01*
X11184Y32589D01*
X11028Y32509D01*
X10844Y32461D01*
X10632Y32445D01*
G37*
G36*
X4440Y32512D02*
X3685Y32512D01*
X3685Y34879D01*
X3670Y35234D01*
X3623Y35546D01*
X3546Y35815D01*
X3438Y36039D01*
X3300Y36216D01*
X3134Y36343D01*
X2941Y36419D01*
X2834Y36437D01*
X2720Y36444D01*
X2493Y36433D01*
X2317Y36402D01*
X2317Y37094D01*
X2471Y37126D01*
X2623Y37136D01*
X2825Y37123D01*
X3003Y37083D01*
X3157Y37016D01*
X3286Y36922D01*
X3401Y36792D01*
X3508Y36616D01*
X3608Y36393D01*
X3702Y36125D01*
X3719Y36125D01*
X3752Y37052D01*
X4466Y37052D01*
X4440Y35995D01*
X4440Y32512D01*
G37*
G36*
X34565Y32512D02*
X33810Y32512D01*
X33810Y34879D01*
X33795Y35234D01*
X33748Y35546D01*
X33671Y35815D01*
X33563Y36039D01*
X33425Y36216D01*
X33259Y36343D01*
X33066Y36419D01*
X32959Y36437D01*
X32845Y36444D01*
X32618Y36433D01*
X32442Y36402D01*
X32442Y37094D01*
X32596Y37126D01*
X32748Y37136D01*
X32950Y37123D01*
X33128Y37083D01*
X33282Y37016D01*
X33411Y36922D01*
X33526Y36792D01*
X33633Y36616D01*
X33733Y36393D01*
X33827Y36125D01*
X33844Y36125D01*
X33877Y37052D01*
X34591Y37052D01*
X34565Y35995D01*
X34565Y32512D01*
G37*
G36*
X17836Y32512D02*
X17081Y32512D01*
X17081Y37052D01*
X17836Y37052D01*
X17836Y32512D01*
G37*
G36*
X17836Y38017D02*
X17081Y38017D01*
X17081Y38739D01*
X17836Y38739D01*
X17836Y38017D01*
G37*
G36*
X78396Y19842D02*
X72484Y19842D01*
X72484Y22054D01*
X72507Y22469D01*
X72575Y22860D01*
X72689Y23225D01*
X72849Y23564D01*
X73052Y23873D01*
X73294Y24145D01*
X73577Y24379D01*
X73900Y24576D01*
X74258Y24732D01*
X74643Y24843D01*
X75058Y24910D01*
X75501Y24932D01*
X75838Y24920D01*
X76156Y24881D01*
X76453Y24818D01*
X76731Y24728D01*
X76989Y24614D01*
X77227Y24473D01*
X77445Y24308D01*
X77643Y24116D01*
X77820Y23901D01*
X77973Y23665D01*
X78102Y23408D01*
X78208Y23129D01*
X78290Y22828D01*
X78349Y22506D01*
X78385Y22163D01*
X78396Y21798D01*
X78396Y19842D01*
G37*
%LPC*%
G36*
X77754Y20644D02*
X77754Y21781D01*
X77745Y22058D01*
X77718Y22318D01*
X77673Y22561D01*
X77610Y22788D01*
X77529Y22997D01*
X77430Y23190D01*
X77313Y23366D01*
X77177Y23525D01*
X77025Y23666D01*
X76856Y23788D01*
X76671Y23892D01*
X76470Y23976D01*
X76252Y24042D01*
X76018Y24089D01*
X75768Y24117D01*
X75501Y24127D01*
X75148Y24110D01*
X74819Y24061D01*
X74514Y23978D01*
X74234Y23862D01*
X73981Y23716D01*
X73760Y23541D01*
X73570Y23337D01*
X73411Y23105D01*
X73287Y22849D01*
X73197Y22573D01*
X73144Y22277D01*
X73126Y21962D01*
X73126Y20644D01*
X77754Y20644D01*
G37*
%LPD*%
G36*
X78396Y38936D02*
X72484Y38936D01*
X72484Y41148D01*
X72507Y41563D01*
X72575Y41953D01*
X72689Y42318D01*
X72849Y42658D01*
X73052Y42967D01*
X73294Y43238D01*
X73577Y43473D01*
X73900Y43669D01*
X74258Y43826D01*
X74643Y43937D01*
X75058Y44004D01*
X75501Y44026D01*
X75838Y44013D01*
X76156Y43975D01*
X76453Y43911D01*
X76731Y43822D01*
X76989Y43707D01*
X77227Y43567D01*
X77445Y43401D01*
X77643Y43210D01*
X77820Y42995D01*
X77973Y42759D01*
X78102Y42501D01*
X78208Y42222D01*
X78290Y41922D01*
X78349Y41600D01*
X78385Y41256D01*
X78396Y40892D01*
X78396Y38936D01*
G37*
%LPC*%
G36*
X77754Y39738D02*
X77754Y40875D01*
X77745Y41152D01*
X77718Y41412D01*
X77673Y41655D01*
X77610Y41881D01*
X77529Y42091D01*
X77430Y42284D01*
X77313Y42459D01*
X77177Y42618D01*
X77025Y42759D01*
X76856Y42882D01*
X76671Y42985D01*
X76470Y43070D01*
X76252Y43136D01*
X76018Y43183D01*
X75768Y43211D01*
X75501Y43220D01*
X75148Y43204D01*
X74819Y43154D01*
X74514Y43072D01*
X74234Y42956D01*
X73981Y42810D01*
X73760Y42635D01*
X73570Y42431D01*
X73411Y42199D01*
X73287Y41942D01*
X73197Y41666D01*
X73144Y41371D01*
X73126Y41055D01*
X73126Y39738D01*
X77754Y39738D01*
G37*
%LPD*%
G36*
X78396Y7905D02*
X72484Y7905D01*
X72484Y8706D01*
X74939Y8706D01*
X74939Y10549D01*
X72484Y12084D01*
X72484Y13007D01*
X73947Y12044D01*
X75031Y11329D01*
X75111Y11649D01*
X75231Y11932D01*
X75281Y12006D01*
X75394Y12178D01*
X75598Y12389D01*
X75835Y12557D01*
X76099Y12677D01*
X76389Y12749D01*
X76705Y12773D01*
X76899Y12764D01*
X77082Y12739D01*
X77254Y12696D01*
X77415Y12637D01*
X77565Y12560D01*
X77704Y12467D01*
X77832Y12356D01*
X77950Y12229D01*
X78054Y12086D01*
X78145Y11929D01*
X78222Y11758D01*
X78285Y11572D01*
X78334Y11372D01*
X78368Y11158D01*
X78389Y10930D01*
X78396Y10687D01*
X78396Y7905D01*
G37*
%LPC*%
G36*
X77754Y8706D02*
X77754Y10607D01*
X77737Y10917D01*
X77687Y11189D01*
X77602Y11422D01*
X77484Y11616D01*
X77333Y11770D01*
X77152Y11879D01*
X76940Y11945D01*
X76697Y11967D01*
X76445Y11945D01*
X76223Y11880D01*
X76031Y11772D01*
X75868Y11621D01*
X75739Y11430D01*
X75646Y11203D01*
X75591Y10940D01*
X75572Y10641D01*
X75572Y8706D01*
X77754Y8706D01*
G37*
%LPD*%
G36*
X78396Y14124D02*
X72484Y14124D01*
X72484Y18781D01*
X73139Y18781D01*
X73139Y14925D01*
X75199Y14925D01*
X75199Y18358D01*
X75845Y18358D01*
X75845Y14925D01*
X77742Y14925D01*
X77742Y18609D01*
X78396Y18609D01*
X78396Y14124D01*
G37*
G36*
X78396Y33217D02*
X72484Y33217D01*
X72484Y37875D01*
X73139Y37875D01*
X73139Y34019D01*
X75199Y34019D01*
X75199Y37451D01*
X75845Y37451D01*
X75845Y34019D01*
X77742Y34019D01*
X77742Y37703D01*
X78396Y37703D01*
X78396Y33217D01*
G37*
G36*
X78396Y28436D02*
X72484Y28436D01*
X72484Y32225D01*
X73139Y32225D01*
X73139Y29238D01*
X78396Y29238D01*
X78396Y28436D01*
G37*
G36*
X199708Y-8000D02*
X187367Y-8000D01*
X187367Y-3384D01*
X187379Y-2944D01*
X187415Y-2517D01*
X187474Y-2103D01*
X187558Y-1702D01*
X187665Y-1315D01*
X187796Y-940D01*
X187951Y-579D01*
X188129Y-231D01*
X188330Y101D01*
X188552Y413D01*
X188795Y706D01*
X189059Y980D01*
X189344Y1234D01*
X189649Y1469D01*
X189976Y1684D01*
X190323Y1880D01*
X190689Y2054D01*
X191069Y2206D01*
X191464Y2333D01*
X191875Y2438D01*
X192300Y2520D01*
X192740Y2578D01*
X193195Y2613D01*
X193665Y2624D01*
X194022Y2618D01*
X194369Y2598D01*
X194705Y2564D01*
X195031Y2518D01*
X195347Y2458D01*
X195652Y2385D01*
X195947Y2298D01*
X196232Y2198D01*
X196506Y2085D01*
X196770Y1959D01*
X197024Y1819D01*
X197267Y1666D01*
X197500Y1500D01*
X197722Y1320D01*
X197934Y1127D01*
X198136Y921D01*
X198326Y702D01*
X198504Y473D01*
X198670Y232D01*
X198824Y-21D01*
X198965Y-284D01*
X199094Y-558D01*
X199211Y-844D01*
X199315Y-1141D01*
X199407Y-1449D01*
X199487Y-1768D01*
X199555Y-2098D01*
X199610Y-2440D01*
X199653Y-2793D01*
X199684Y-3157D01*
X199702Y-3532D01*
X199708Y-3918D01*
X199708Y-8000D01*
G37*
%LPC*%
G36*
X198368Y-6327D02*
X198368Y-3953D01*
X198349Y-3375D01*
X198293Y-2833D01*
X198199Y-2325D01*
X198067Y-1852D01*
X197898Y-1415D01*
X197691Y-1013D01*
X197446Y-646D01*
X197164Y-314D01*
X196846Y-20D01*
X196493Y236D01*
X196107Y452D01*
X195687Y628D01*
X195232Y766D01*
X194744Y864D01*
X194221Y923D01*
X193665Y943D01*
X193290Y934D01*
X192928Y908D01*
X192578Y865D01*
X192241Y805D01*
X191917Y727D01*
X191605Y632D01*
X191306Y520D01*
X191020Y391D01*
X190748Y245D01*
X190492Y85D01*
X190253Y-90D01*
X190030Y-280D01*
X189824Y-485D01*
X189634Y-705D01*
X189460Y-940D01*
X189303Y-1190D01*
X189163Y-1452D01*
X189042Y-1725D01*
X188940Y-2008D01*
X188856Y-2301D01*
X188791Y-2605D01*
X188745Y-2919D01*
X188717Y-3243D01*
X188707Y-3577D01*
X188707Y-6327D01*
X198368Y-6327D01*
G37*
%LPD*%
G36*
X199708Y26906D02*
X187367Y26906D01*
X187367Y31522D01*
X187379Y31962D01*
X187415Y32389D01*
X187474Y32803D01*
X187558Y33204D01*
X187665Y33591D01*
X187796Y33966D01*
X187951Y34327D01*
X188129Y34675D01*
X188330Y35007D01*
X188552Y35320D01*
X188795Y35613D01*
X189059Y35886D01*
X189344Y36140D01*
X189649Y36375D01*
X189976Y36590D01*
X190323Y36786D01*
X190689Y36961D01*
X191069Y37112D01*
X191464Y37240D01*
X191875Y37344D01*
X192300Y37426D01*
X192740Y37484D01*
X193195Y37519D01*
X193665Y37531D01*
X194022Y37524D01*
X194369Y37504D01*
X194705Y37471D01*
X195031Y37424D01*
X195347Y37364D01*
X195652Y37291D01*
X195947Y37204D01*
X196232Y37105D01*
X196506Y36992D01*
X196770Y36865D01*
X197024Y36725D01*
X197267Y36572D01*
X197500Y36406D01*
X197722Y36226D01*
X197934Y36033D01*
X198136Y35827D01*
X198326Y35608D01*
X198504Y35379D01*
X198670Y35138D01*
X198824Y34886D01*
X198965Y34622D01*
X199094Y34348D01*
X199211Y34062D01*
X199315Y33765D01*
X199407Y33457D01*
X199487Y33138D01*
X199555Y32808D01*
X199610Y32466D01*
X199653Y32113D01*
X199684Y31749D01*
X199702Y31374D01*
X199708Y30988D01*
X199708Y26906D01*
G37*
%LPC*%
G36*
X198368Y28579D02*
X198368Y30953D01*
X198349Y31531D01*
X198293Y32074D01*
X198199Y32581D01*
X198067Y33054D01*
X197898Y33491D01*
X197691Y33893D01*
X197446Y34260D01*
X197164Y34592D01*
X196846Y34887D01*
X196493Y35142D01*
X196107Y35358D01*
X195687Y35535D01*
X195232Y35672D01*
X194744Y35770D01*
X194221Y35829D01*
X193665Y35849D01*
X193290Y35840D01*
X192928Y35814D01*
X192578Y35771D01*
X192241Y35711D01*
X191917Y35633D01*
X191605Y35539D01*
X191306Y35426D01*
X191020Y35297D01*
X190748Y35152D01*
X190492Y34991D01*
X190253Y34816D01*
X190030Y34626D01*
X189824Y34421D01*
X189634Y34201D01*
X189460Y33966D01*
X189303Y33716D01*
X189163Y33454D01*
X189042Y33181D01*
X188940Y32898D01*
X188856Y32605D01*
X188791Y32301D01*
X188745Y31988D01*
X188717Y31664D01*
X188707Y31330D01*
X188707Y28579D01*
X198368Y28579D01*
G37*
%LPD*%
G36*
X199708Y-32937D02*
X187367Y-32937D01*
X187367Y-31264D01*
X192491Y-31264D01*
X192491Y-27419D01*
X187367Y-24214D01*
X187367Y-22287D01*
X190421Y-24299D01*
X192684Y-25790D01*
X192756Y-25447D01*
X192850Y-25123D01*
X192965Y-24818D01*
X193102Y-24532D01*
X193195Y-24376D01*
X193261Y-24265D01*
X193441Y-24018D01*
X193643Y-23789D01*
X193866Y-23579D01*
X194107Y-23391D01*
X194362Y-23228D01*
X194631Y-23090D01*
X194913Y-22978D01*
X195209Y-22890D01*
X195518Y-22828D01*
X195841Y-22790D01*
X196178Y-22777D01*
X196583Y-22795D01*
X196965Y-22848D01*
X197324Y-22937D01*
X197660Y-23061D01*
X197973Y-23220D01*
X198263Y-23415D01*
X198531Y-23646D01*
X198775Y-23912D01*
X198994Y-24210D01*
X199183Y-24538D01*
X199344Y-24896D01*
X199475Y-25283D01*
X199577Y-25701D01*
X199650Y-26148D01*
X199694Y-26624D01*
X199708Y-27130D01*
X199708Y-32937D01*
G37*
%LPC*%
G36*
X198368Y-31264D02*
X198368Y-27297D01*
X198359Y-26963D01*
X198333Y-26650D01*
X198289Y-26356D01*
X198227Y-26083D01*
X198147Y-25829D01*
X198050Y-25596D01*
X197936Y-25383D01*
X197803Y-25190D01*
X197654Y-25019D01*
X197489Y-24870D01*
X197307Y-24745D01*
X197110Y-24642D01*
X196897Y-24562D01*
X196668Y-24505D01*
X196422Y-24471D01*
X196161Y-24459D01*
X195891Y-24470D01*
X195636Y-24504D01*
X195396Y-24561D01*
X195172Y-24640D01*
X194964Y-24741D01*
X194771Y-24866D01*
X194593Y-25012D01*
X194431Y-25182D01*
X194286Y-25372D01*
X194161Y-25580D01*
X194055Y-25808D01*
X193968Y-26054D01*
X193900Y-26319D01*
X193852Y-26603D01*
X193823Y-26906D01*
X193814Y-27227D01*
X193814Y-31264D01*
X198368Y-31264D01*
G37*
%LPD*%
G36*
X199708Y14938D02*
X187367Y14938D01*
X187367Y16611D01*
X192176Y16611D01*
X192176Y20237D01*
X192192Y20714D01*
X192240Y21166D01*
X192321Y21593D01*
X192434Y21994D01*
X192579Y22369D01*
X192757Y22719D01*
X192967Y23043D01*
X193209Y23342D01*
X193479Y23609D01*
X193771Y23842D01*
X194085Y24038D01*
X194422Y24199D01*
X194782Y24324D01*
X195164Y24413D01*
X195568Y24467D01*
X195994Y24484D01*
X196424Y24467D01*
X196829Y24413D01*
X197209Y24324D01*
X197564Y24200D01*
X197895Y24040D01*
X198200Y23844D01*
X198480Y23613D01*
X198736Y23346D01*
X198964Y23047D01*
X199161Y22718D01*
X199328Y22360D01*
X199465Y21973D01*
X199571Y21557D01*
X199647Y21111D01*
X199693Y20636D01*
X199708Y20132D01*
X199708Y14938D01*
G37*
%LPC*%
G36*
X198368Y16611D02*
X198368Y19930D01*
X198359Y20278D01*
X198331Y20603D01*
X198284Y20906D01*
X198219Y21187D01*
X198135Y21445D01*
X198032Y21681D01*
X197910Y21894D01*
X197770Y22085D01*
X197611Y22253D01*
X197434Y22399D01*
X197238Y22522D01*
X197023Y22623D01*
X196790Y22702D01*
X196537Y22758D01*
X196267Y22792D01*
X195977Y22803D01*
X195677Y22792D01*
X195396Y22759D01*
X195135Y22704D01*
X194893Y22628D01*
X194670Y22529D01*
X194467Y22409D01*
X194283Y22266D01*
X194118Y22102D01*
X193973Y21916D01*
X193847Y21708D01*
X193740Y21478D01*
X193653Y21226D01*
X193585Y20953D01*
X193537Y20657D01*
X193508Y20340D01*
X193498Y20000D01*
X193498Y16611D01*
X198368Y16611D01*
G37*
%LPD*%
G36*
X199708Y-19969D02*
X187367Y-19969D01*
X187367Y-10247D01*
X188734Y-10247D01*
X188734Y-18296D01*
X193034Y-18296D01*
X193034Y-11131D01*
X194383Y-11131D01*
X194383Y-18296D01*
X198342Y-18296D01*
X198342Y-10606D01*
X199708Y-10606D01*
X199708Y-19969D01*
G37*
G36*
X193595Y54252D02*
X193110Y54263D01*
X192642Y54297D01*
X192191Y54353D01*
X191756Y54431D01*
X191338Y54531D01*
X190937Y54654D01*
X190552Y54799D01*
X190183Y54966D01*
X189833Y55155D01*
X189504Y55363D01*
X189196Y55592D01*
X188909Y55842D01*
X188642Y56111D01*
X188396Y56401D01*
X188171Y56711D01*
X187967Y57042D01*
X187786Y57390D01*
X187628Y57754D01*
X187495Y58134D01*
X187386Y58530D01*
X187301Y58941D01*
X187241Y59368D01*
X187204Y59811D01*
X187192Y60269D01*
X187205Y60718D01*
X187244Y61153D01*
X187309Y61573D01*
X187400Y61980D01*
X187517Y62374D01*
X187660Y62753D01*
X187829Y63119D01*
X188024Y63471D01*
X188244Y63806D01*
X188488Y64122D01*
X188755Y64418D01*
X189047Y64696D01*
X189362Y64954D01*
X189701Y65192D01*
X190064Y65412D01*
X190450Y65612D01*
X191133Y64246D01*
X190823Y64077D01*
X190532Y63899D01*
X190261Y63711D01*
X190011Y63513D01*
X189780Y63304D01*
X189570Y63086D01*
X189379Y62857D01*
X189209Y62619D01*
X189058Y62370D01*
X188928Y62111D01*
X188818Y61843D01*
X188728Y61564D01*
X188657Y61275D01*
X188607Y60976D01*
X188577Y60667D01*
X188567Y60348D01*
X188589Y59855D01*
X188653Y59389D01*
X188761Y58948D01*
X188912Y58534D01*
X189106Y58146D01*
X189343Y57784D01*
X189623Y57448D01*
X189947Y57138D01*
X190305Y56860D01*
X190692Y56619D01*
X191106Y56415D01*
X191548Y56248D01*
X192018Y56118D01*
X192516Y56025D01*
X193041Y55970D01*
X193595Y55951D01*
X194153Y55969D01*
X194681Y56022D01*
X195178Y56111D01*
X195645Y56236D01*
X196082Y56396D01*
X196487Y56592D01*
X196863Y56823D01*
X197208Y57090D01*
X197516Y57389D01*
X197784Y57716D01*
X198011Y58072D01*
X198196Y58456D01*
X198340Y58869D01*
X198443Y59310D01*
X198505Y59780D01*
X198526Y60278D01*
X198517Y60599D01*
X198490Y60908D01*
X198446Y61207D01*
X198383Y61494D01*
X198303Y61771D01*
X198205Y62036D01*
X198090Y62290D01*
X197956Y62533D01*
X197806Y62763D01*
X197640Y62976D01*
X197458Y63173D01*
X197260Y63353D01*
X197046Y63518D01*
X196817Y63666D01*
X196571Y63797D01*
X196310Y63913D01*
X196835Y65498D01*
X197202Y65332D01*
X197546Y65143D01*
X197867Y64933D01*
X198164Y64701D01*
X198439Y64447D01*
X198689Y64171D01*
X198917Y63873D01*
X199121Y63554D01*
X199302Y63213D01*
X199458Y62852D01*
X199591Y62471D01*
X199699Y62069D01*
X199784Y61647D01*
X199844Y61205D01*
X199880Y60743D01*
X199892Y60261D01*
X199885Y59913D01*
X199866Y59575D01*
X199833Y59246D01*
X199787Y58927D01*
X199729Y58618D01*
X199657Y58318D01*
X199572Y58027D01*
X199474Y57747D01*
X199363Y57476D01*
X199239Y57214D01*
X199101Y56962D01*
X198951Y56720D01*
X198611Y56264D01*
X198219Y55846D01*
X197781Y55473D01*
X197303Y55149D01*
X196785Y54875D01*
X196511Y54757D01*
X196227Y54651D01*
X195933Y54557D01*
X195629Y54476D01*
X195315Y54408D01*
X194991Y54352D01*
X194657Y54308D01*
X194313Y54277D01*
X193959Y54258D01*
X193595Y54252D01*
G37*
G36*
X188707Y39770D02*
X187367Y39770D01*
X187367Y47504D01*
X188707Y47504D01*
X188707Y44500D01*
X199708Y44500D01*
X199708Y43046D01*
X197702Y40129D01*
X196213Y40129D01*
X198202Y42914D01*
X188707Y42914D01*
X188707Y39770D01*
G37*
G36*
X188707Y67676D02*
X187367Y67676D01*
X187367Y75410D01*
X188707Y75410D01*
X188707Y72406D01*
X199708Y72406D01*
X199708Y70952D01*
X197702Y68035D01*
X196213Y68035D01*
X198202Y70821D01*
X188707Y70821D01*
X188707Y67676D01*
G37*
G36*
X184941Y3226D02*
X183803Y3226D01*
X183803Y13675D01*
X184941Y13675D01*
X184941Y3226D01*
G37*
G36*
X189180Y50010D02*
X187367Y50010D01*
X187367Y51718D01*
X189180Y51718D01*
X189180Y50010D01*
G37*
G36*
X196844Y50010D02*
X195031Y50010D01*
X195031Y51718D01*
X196844Y51718D01*
X196844Y50010D01*
G37*
G36*
X124082Y38743D02*
X118170Y38743D01*
X118170Y40954D01*
X118192Y41370D01*
X118261Y41760D01*
X118375Y42125D01*
X118535Y42465D01*
X118737Y42774D01*
X118980Y43045D01*
X119263Y43279D01*
X119586Y43476D01*
X119943Y43632D01*
X120329Y43744D01*
X120743Y43811D01*
X121187Y43833D01*
X121524Y43820D01*
X121841Y43782D01*
X122139Y43718D01*
X122417Y43629D01*
X122674Y43514D01*
X122912Y43374D01*
X123130Y43208D01*
X123329Y43017D01*
X123505Y42802D01*
X123658Y42566D01*
X123788Y42308D01*
X123894Y42029D01*
X123976Y41729D01*
X124035Y41407D01*
X124070Y41063D01*
X124082Y40698D01*
X124082Y38743D01*
G37*
%LPC*%
G36*
X123440Y39545D02*
X123440Y40682D01*
X123431Y40959D01*
X123404Y41219D01*
X123359Y41462D01*
X123296Y41688D01*
X123215Y41898D01*
X123115Y42090D01*
X122998Y42266D01*
X122863Y42425D01*
X122711Y42566D01*
X122542Y42689D01*
X122357Y42792D01*
X122155Y42877D01*
X121938Y42943D01*
X121704Y42990D01*
X121453Y43018D01*
X121187Y43027D01*
X120834Y43011D01*
X120505Y42961D01*
X120200Y42879D01*
X119919Y42763D01*
X119666Y42617D01*
X119445Y42441D01*
X119255Y42238D01*
X119097Y42006D01*
X118972Y41749D01*
X118883Y41473D01*
X118829Y41178D01*
X118812Y40862D01*
X118812Y39545D01*
X123440Y39545D01*
G37*
%LPD*%
G36*
X124082Y14868D02*
X118170Y14868D01*
X118170Y15670D01*
X120624Y15670D01*
X120624Y17512D01*
X118170Y19047D01*
X118170Y19971D01*
X119632Y19007D01*
X120717Y18292D01*
X120796Y18612D01*
X120917Y18895D01*
X120966Y18969D01*
X121079Y19141D01*
X121283Y19352D01*
X121521Y19520D01*
X121784Y19640D01*
X122075Y19712D01*
X122391Y19736D01*
X122585Y19727D01*
X122768Y19702D01*
X122940Y19659D01*
X123101Y19600D01*
X123251Y19523D01*
X123390Y19430D01*
X123518Y19320D01*
X123635Y19192D01*
X123740Y19049D01*
X123831Y18892D01*
X123907Y18721D01*
X123970Y18535D01*
X124019Y18335D01*
X124054Y18121D01*
X124075Y17893D01*
X124082Y17650D01*
X124082Y14868D01*
G37*
%LPC*%
G36*
X123440Y15670D02*
X123440Y17570D01*
X123423Y17881D01*
X123372Y18152D01*
X123288Y18385D01*
X123169Y18580D01*
X123019Y18733D01*
X122837Y18842D01*
X122625Y18908D01*
X122382Y18930D01*
X122131Y18908D01*
X121909Y18843D01*
X121716Y18735D01*
X121554Y18584D01*
X121424Y18393D01*
X121332Y18166D01*
X121276Y17903D01*
X121258Y17604D01*
X121258Y15670D01*
X123440Y15670D01*
G37*
%LPD*%
G36*
X120419Y25524D02*
X120134Y25530D01*
X119868Y25549D01*
X119621Y25581D01*
X119393Y25625D01*
X119183Y25682D01*
X118991Y25752D01*
X118819Y25834D01*
X118665Y25929D01*
X118529Y26037D01*
X118411Y26160D01*
X118312Y26297D01*
X118230Y26448D01*
X118167Y26613D01*
X118122Y26792D01*
X118095Y26986D01*
X118086Y27194D01*
X118097Y27440D01*
X118133Y27665D01*
X118192Y27869D01*
X118274Y28052D01*
X118384Y28217D01*
X118525Y28364D01*
X118697Y28495D01*
X118900Y28608D01*
X118900Y28625D01*
X118480Y28640D01*
X118170Y28667D01*
X118170Y29389D01*
X118517Y29370D01*
X119105Y29363D01*
X124397Y29363D01*
X124397Y28608D01*
X122513Y28608D01*
X122005Y28617D01*
X122005Y28608D01*
X122197Y28495D01*
X122360Y28365D01*
X122497Y28218D01*
X122605Y28054D01*
X122687Y27871D01*
X122746Y27667D01*
X122782Y27441D01*
X122794Y27194D01*
X122784Y26992D01*
X122757Y26803D01*
X122710Y26627D01*
X122645Y26463D01*
X122562Y26313D01*
X122460Y26176D01*
X122339Y26052D01*
X122200Y25942D01*
X122042Y25844D01*
X121866Y25759D01*
X121671Y25687D01*
X121458Y25628D01*
X121226Y25583D01*
X120975Y25550D01*
X120706Y25531D01*
X120419Y25524D01*
G37*
%LPC*%
G36*
X120444Y26317D02*
X120885Y26333D01*
X121261Y26381D01*
X121570Y26460D01*
X121814Y26571D01*
X121998Y26718D01*
X122071Y26806D01*
X122130Y26904D01*
X122176Y27012D01*
X122209Y27130D01*
X122229Y27258D01*
X122236Y27395D01*
X122229Y27549D01*
X122209Y27691D01*
X122177Y27822D01*
X122131Y27943D01*
X122072Y28053D01*
X122000Y28152D01*
X121914Y28241D01*
X121816Y28319D01*
X121576Y28445D01*
X121276Y28536D01*
X120915Y28590D01*
X120494Y28608D01*
X120057Y28590D01*
X119681Y28536D01*
X119367Y28445D01*
X119114Y28319D01*
X119101Y28309D01*
X119009Y28241D01*
X118919Y28152D01*
X118843Y28052D01*
X118780Y27941D01*
X118731Y27819D01*
X118697Y27686D01*
X118676Y27542D01*
X118669Y27387D01*
X118675Y27250D01*
X118695Y27124D01*
X118727Y27006D01*
X118772Y26899D01*
X118900Y26714D01*
X119080Y26569D01*
X119320Y26459D01*
X119627Y26380D01*
X120001Y26333D01*
X120444Y26317D01*
G37*
%LPD*%
G36*
X124082Y33024D02*
X118170Y33024D01*
X118170Y33826D01*
X120473Y33826D01*
X120473Y35563D01*
X120481Y35792D01*
X120504Y36008D01*
X120543Y36213D01*
X120597Y36405D01*
X120667Y36585D01*
X120752Y36752D01*
X120852Y36908D01*
X120968Y37051D01*
X121098Y37179D01*
X121237Y37290D01*
X121388Y37384D01*
X121550Y37461D01*
X121722Y37521D01*
X121905Y37564D01*
X122098Y37590D01*
X122303Y37598D01*
X122509Y37590D01*
X122703Y37564D01*
X122885Y37521D01*
X123055Y37462D01*
X123213Y37385D01*
X123359Y37291D01*
X123494Y37181D01*
X123616Y37053D01*
X123725Y36909D01*
X123820Y36752D01*
X123900Y36580D01*
X123965Y36395D01*
X124016Y36195D01*
X124053Y35982D01*
X124075Y35754D01*
X124082Y35513D01*
X124082Y33024D01*
G37*
%LPC*%
G36*
X123440Y33826D02*
X123440Y35416D01*
X123422Y35739D01*
X123368Y36018D01*
X123279Y36255D01*
X123153Y36448D01*
X122992Y36599D01*
X122796Y36706D01*
X122563Y36771D01*
X122294Y36792D01*
X122016Y36772D01*
X121775Y36709D01*
X121571Y36604D01*
X121404Y36457D01*
X121274Y36268D01*
X121181Y36037D01*
X121125Y35764D01*
X121107Y35450D01*
X121107Y33826D01*
X123440Y33826D01*
G37*
%LPD*%
G36*
X120469Y20747D02*
X120182Y20755D01*
X119914Y20780D01*
X119664Y20821D01*
X119431Y20879D01*
X119218Y20953D01*
X119022Y21043D01*
X118845Y21150D01*
X118686Y21274D01*
X118545Y21413D01*
X118423Y21567D01*
X118320Y21736D01*
X118236Y21920D01*
X118170Y22120D01*
X118123Y22334D01*
X118095Y22563D01*
X118086Y22807D01*
X118102Y23152D01*
X118153Y23464D01*
X118237Y23744D01*
X118354Y23992D01*
X118505Y24207D01*
X118690Y24389D01*
X118908Y24540D01*
X119160Y24658D01*
X119349Y23995D01*
X119204Y23930D01*
X119073Y23842D01*
X118954Y23730D01*
X118849Y23594D01*
X118763Y23434D01*
X118701Y23249D01*
X118664Y23041D01*
X118652Y22807D01*
X118659Y22657D01*
X118679Y22515D01*
X118712Y22383D01*
X118758Y22261D01*
X118818Y22147D01*
X118890Y22043D01*
X119076Y21863D01*
X119310Y21722D01*
X119589Y21621D01*
X119912Y21560D01*
X120280Y21540D01*
X120280Y24779D01*
X120381Y24779D01*
X120673Y24772D01*
X120946Y24748D01*
X121201Y24709D01*
X121436Y24654D01*
X121653Y24584D01*
X121851Y24498D01*
X122030Y24396D01*
X122190Y24279D01*
X122332Y24146D01*
X122454Y23998D01*
X122558Y23833D01*
X122643Y23654D01*
X122709Y23458D01*
X122756Y23247D01*
X122784Y23020D01*
X122794Y22778D01*
X122784Y22541D01*
X122756Y22317D01*
X122709Y22108D01*
X122644Y21913D01*
X122559Y21732D01*
X122456Y21565D01*
X122334Y21412D01*
X122194Y21274D01*
X122035Y21150D01*
X121861Y21043D01*
X121670Y20953D01*
X121462Y20879D01*
X121239Y20821D01*
X120999Y20780D01*
X120742Y20755D01*
X120469Y20747D01*
G37*
%LPC*%
G36*
X120859Y21548D02*
X121163Y21579D01*
X121433Y21648D01*
X121668Y21753D01*
X121868Y21895D01*
X122029Y22069D01*
X122144Y22273D01*
X122213Y22505D01*
X122236Y22765D01*
X122215Y23032D01*
X122153Y23266D01*
X122050Y23466D01*
X121906Y23634D01*
X121717Y23770D01*
X121480Y23876D01*
X121194Y23953D01*
X120859Y23999D01*
X120859Y21548D01*
G37*
%LPD*%
G36*
X181373Y-6730D02*
X169032Y-6730D01*
X169032Y-2114D01*
X169044Y-1674D01*
X169080Y-1247D01*
X169140Y-833D01*
X169223Y-432D01*
X169330Y-45D01*
X169461Y330D01*
X169616Y691D01*
X169794Y1039D01*
X169995Y1371D01*
X170217Y1683D01*
X170460Y1976D01*
X170724Y2250D01*
X171009Y2504D01*
X171314Y2739D01*
X171641Y2954D01*
X171988Y3150D01*
X172354Y3324D01*
X172734Y3476D01*
X173130Y3603D01*
X173540Y3708D01*
X173965Y3790D01*
X174405Y3848D01*
X174860Y3883D01*
X175330Y3894D01*
X175687Y3888D01*
X176034Y3868D01*
X176370Y3834D01*
X176696Y3788D01*
X177012Y3728D01*
X177318Y3655D01*
X177613Y3568D01*
X177897Y3468D01*
X178171Y3355D01*
X178435Y3229D01*
X178689Y3089D01*
X178932Y2936D01*
X179165Y2770D01*
X179387Y2590D01*
X179599Y2397D01*
X179801Y2191D01*
X179991Y1972D01*
X180170Y1743D01*
X180335Y1502D01*
X180489Y1249D01*
X180630Y986D01*
X180759Y712D01*
X180876Y426D01*
X180980Y129D01*
X181072Y-179D01*
X181152Y-498D01*
X181220Y-828D01*
X181275Y-1170D01*
X181318Y-1523D01*
X181349Y-1887D01*
X181367Y-2262D01*
X181373Y-2648D01*
X181373Y-6730D01*
G37*
%LPC*%
G36*
X180033Y-5057D02*
X180033Y-2683D01*
X180014Y-2105D01*
X179958Y-1563D01*
X179864Y-1055D01*
X179732Y-582D01*
X179563Y-145D01*
X179356Y257D01*
X179111Y624D01*
X178829Y956D01*
X178511Y1250D01*
X178159Y1506D01*
X177772Y1722D01*
X177352Y1898D01*
X176898Y2036D01*
X176409Y2134D01*
X175886Y2193D01*
X175330Y2213D01*
X174955Y2204D01*
X174593Y2178D01*
X174243Y2135D01*
X173907Y2075D01*
X173582Y1997D01*
X173270Y1902D01*
X172971Y1790D01*
X172685Y1661D01*
X172413Y1515D01*
X172157Y1355D01*
X171918Y1180D01*
X171695Y990D01*
X171489Y785D01*
X171299Y565D01*
X171125Y330D01*
X170968Y80D01*
X170828Y-182D01*
X170708Y-455D01*
X170605Y-738D01*
X170521Y-1031D01*
X170456Y-1335D01*
X170410Y-1649D01*
X170382Y-1973D01*
X170372Y-2307D01*
X170372Y-5057D01*
X180033Y-5057D01*
G37*
%LPD*%
G36*
X181373Y28176D02*
X169032Y28176D01*
X169032Y32792D01*
X169044Y33232D01*
X169080Y33659D01*
X169140Y34073D01*
X169223Y34474D01*
X169330Y34861D01*
X169461Y35236D01*
X169616Y35597D01*
X169794Y35945D01*
X169995Y36277D01*
X170217Y36590D01*
X170460Y36883D01*
X170724Y37156D01*
X171009Y37410D01*
X171314Y37645D01*
X171641Y37860D01*
X171988Y38056D01*
X172354Y38231D01*
X172734Y38382D01*
X173130Y38510D01*
X173540Y38614D01*
X173965Y38696D01*
X174405Y38754D01*
X174860Y38789D01*
X175330Y38801D01*
X175687Y38794D01*
X176034Y38774D01*
X176370Y38741D01*
X176696Y38694D01*
X177012Y38634D01*
X177318Y38561D01*
X177613Y38474D01*
X177897Y38375D01*
X178171Y38262D01*
X178435Y38135D01*
X178689Y37995D01*
X178932Y37842D01*
X179165Y37676D01*
X179387Y37496D01*
X179599Y37303D01*
X179801Y37097D01*
X179991Y36878D01*
X180170Y36649D01*
X180335Y36408D01*
X180489Y36156D01*
X180630Y35892D01*
X180759Y35618D01*
X180876Y35332D01*
X180980Y35035D01*
X181072Y34727D01*
X181152Y34408D01*
X181220Y34078D01*
X181275Y33736D01*
X181318Y33383D01*
X181349Y33019D01*
X181367Y32644D01*
X181373Y32258D01*
X181373Y28176D01*
G37*
%LPC*%
G36*
X180033Y29849D02*
X180033Y32223D01*
X180014Y32801D01*
X179958Y33344D01*
X179864Y33851D01*
X179732Y34324D01*
X179563Y34761D01*
X179356Y35163D01*
X179111Y35530D01*
X178829Y35862D01*
X178511Y36157D01*
X178159Y36412D01*
X177772Y36628D01*
X177352Y36805D01*
X176898Y36942D01*
X176409Y37040D01*
X175886Y37099D01*
X175330Y37119D01*
X174955Y37110D01*
X174593Y37084D01*
X174243Y37041D01*
X173907Y36981D01*
X173582Y36903D01*
X173270Y36809D01*
X172971Y36696D01*
X172685Y36567D01*
X172413Y36422D01*
X172157Y36261D01*
X171918Y36086D01*
X171695Y35896D01*
X171489Y35691D01*
X171299Y35471D01*
X171125Y35236D01*
X170968Y34986D01*
X170828Y34724D01*
X170708Y34451D01*
X170605Y34168D01*
X170521Y33875D01*
X170456Y33571D01*
X170410Y33258D01*
X170382Y32934D01*
X170372Y32600D01*
X170372Y29849D01*
X180033Y29849D01*
G37*
%LPD*%
G36*
X181373Y-31667D02*
X169032Y-31667D01*
X169032Y-29994D01*
X174156Y-29994D01*
X174156Y-26149D01*
X169032Y-22944D01*
X169032Y-21017D01*
X172086Y-23029D01*
X174349Y-24520D01*
X174421Y-24177D01*
X174515Y-23853D01*
X174630Y-23548D01*
X174767Y-23262D01*
X174860Y-23106D01*
X174926Y-22995D01*
X175106Y-22748D01*
X175308Y-22519D01*
X175531Y-22309D01*
X175772Y-22121D01*
X176027Y-21958D01*
X176296Y-21820D01*
X176578Y-21708D01*
X176874Y-21620D01*
X177183Y-21558D01*
X177507Y-21520D01*
X177844Y-21507D01*
X178248Y-21525D01*
X178630Y-21578D01*
X178989Y-21667D01*
X179325Y-21791D01*
X179638Y-21950D01*
X179928Y-22145D01*
X180196Y-22376D01*
X180440Y-22642D01*
X180659Y-22940D01*
X180849Y-23268D01*
X181009Y-23626D01*
X181140Y-24013D01*
X181242Y-24431D01*
X181315Y-24878D01*
X181359Y-25354D01*
X181373Y-25860D01*
X181373Y-31667D01*
G37*
%LPC*%
G36*
X180033Y-29994D02*
X180033Y-26027D01*
X180024Y-25693D01*
X179998Y-25380D01*
X179954Y-25086D01*
X179892Y-24813D01*
X179812Y-24559D01*
X179715Y-24326D01*
X179601Y-24113D01*
X179468Y-23920D01*
X179319Y-23749D01*
X179154Y-23600D01*
X178972Y-23475D01*
X178775Y-23372D01*
X178562Y-23292D01*
X178333Y-23235D01*
X178087Y-23201D01*
X177826Y-23189D01*
X177556Y-23200D01*
X177301Y-23234D01*
X177061Y-23291D01*
X176837Y-23370D01*
X176629Y-23471D01*
X176436Y-23596D01*
X176258Y-23742D01*
X176096Y-23912D01*
X175951Y-24102D01*
X175826Y-24310D01*
X175720Y-24538D01*
X175633Y-24784D01*
X175566Y-25049D01*
X175517Y-25333D01*
X175488Y-25636D01*
X175479Y-25957D01*
X175479Y-29994D01*
X180033Y-29994D01*
G37*
%LPD*%
G36*
X181373Y56083D02*
X169032Y56083D01*
X169032Y57756D01*
X174156Y57756D01*
X174156Y61601D01*
X169032Y64806D01*
X169032Y66733D01*
X172086Y64721D01*
X174349Y63230D01*
X174421Y63573D01*
X174515Y63897D01*
X174630Y64202D01*
X174767Y64488D01*
X174860Y64644D01*
X174926Y64755D01*
X175106Y65002D01*
X175308Y65231D01*
X175531Y65441D01*
X175772Y65629D01*
X176027Y65792D01*
X176296Y65930D01*
X176578Y66042D01*
X176874Y66130D01*
X177183Y66193D01*
X177507Y66230D01*
X177844Y66243D01*
X178248Y66225D01*
X178630Y66172D01*
X178989Y66083D01*
X179325Y65959D01*
X179638Y65800D01*
X179928Y65605D01*
X180196Y65374D01*
X180440Y65108D01*
X180659Y64810D01*
X180849Y64482D01*
X181009Y64124D01*
X181140Y63737D01*
X181242Y63319D01*
X181315Y62872D01*
X181359Y62396D01*
X181373Y61890D01*
X181373Y56083D01*
G37*
%LPC*%
G36*
X180033Y57756D02*
X180033Y61723D01*
X180024Y62057D01*
X179998Y62370D01*
X179954Y62664D01*
X179892Y62937D01*
X179812Y63191D01*
X179715Y63424D01*
X179601Y63637D01*
X179468Y63830D01*
X179319Y64001D01*
X179154Y64150D01*
X178972Y64275D01*
X178775Y64378D01*
X178562Y64458D01*
X178333Y64515D01*
X178087Y64550D01*
X177826Y64561D01*
X177556Y64550D01*
X177301Y64516D01*
X177061Y64459D01*
X176837Y64380D01*
X176629Y64279D01*
X176436Y64155D01*
X176258Y64008D01*
X176096Y63838D01*
X175951Y63648D01*
X175826Y63440D01*
X175720Y63212D01*
X175633Y62966D01*
X175566Y62701D01*
X175517Y62417D01*
X175488Y62115D01*
X175479Y61793D01*
X175479Y57756D01*
X180033Y57756D01*
G37*
%LPD*%
G36*
X181373Y16208D02*
X169032Y16208D01*
X169032Y17881D01*
X173841Y17881D01*
X173841Y21507D01*
X173857Y21984D01*
X173905Y22436D01*
X173986Y22863D01*
X174099Y23264D01*
X174245Y23639D01*
X174422Y23989D01*
X174632Y24313D01*
X174874Y24612D01*
X175144Y24879D01*
X175436Y25112D01*
X175751Y25308D01*
X176087Y25469D01*
X176447Y25594D01*
X176829Y25683D01*
X177233Y25737D01*
X177660Y25754D01*
X178089Y25737D01*
X178494Y25683D01*
X178874Y25594D01*
X179230Y25470D01*
X179560Y25310D01*
X179865Y25114D01*
X180146Y24883D01*
X180401Y24616D01*
X180629Y24317D01*
X180826Y23988D01*
X180993Y23630D01*
X181130Y23243D01*
X181237Y22827D01*
X181312Y22381D01*
X181358Y21906D01*
X181373Y21402D01*
X181373Y16208D01*
G37*
%LPC*%
G36*
X180033Y17881D02*
X180033Y21200D01*
X180024Y21548D01*
X179996Y21873D01*
X179949Y22176D01*
X179884Y22457D01*
X179800Y22715D01*
X179697Y22951D01*
X179576Y23164D01*
X179435Y23355D01*
X179277Y23523D01*
X179099Y23669D01*
X178903Y23792D01*
X178688Y23893D01*
X178455Y23972D01*
X178202Y24028D01*
X177932Y24062D01*
X177642Y24073D01*
X177342Y24062D01*
X177061Y24029D01*
X176800Y23974D01*
X176558Y23898D01*
X176335Y23799D01*
X176132Y23679D01*
X175948Y23536D01*
X175783Y23372D01*
X175638Y23186D01*
X175512Y22978D01*
X175405Y22748D01*
X175318Y22496D01*
X175251Y22223D01*
X175202Y21927D01*
X175173Y21610D01*
X175163Y21270D01*
X175163Y17881D01*
X180033Y17881D01*
G37*
%LPD*%
G36*
X181373Y-18699D02*
X169032Y-18699D01*
X169032Y-8977D01*
X170399Y-8977D01*
X170399Y-17026D01*
X174699Y-17026D01*
X174699Y-9861D01*
X176048Y-9861D01*
X176048Y-17026D01*
X180007Y-17026D01*
X180007Y-9336D01*
X181373Y-9336D01*
X181373Y-18699D01*
G37*
G36*
X172203Y68263D02*
X171802Y68330D01*
X171426Y68425D01*
X171075Y68548D01*
X170750Y68700D01*
X170450Y68880D01*
X170176Y69088D01*
X169926Y69325D01*
X169702Y69590D01*
X169504Y69881D01*
X169333Y70196D01*
X169187Y70534D01*
X169069Y70896D01*
X168976Y71282D01*
X168910Y71691D01*
X168871Y72124D01*
X168857Y72581D01*
X168872Y73070D01*
X168916Y73530D01*
X168989Y73961D01*
X169092Y74363D01*
X169223Y74737D01*
X169384Y75081D01*
X169575Y75396D01*
X169794Y75682D01*
X170041Y75936D01*
X170311Y76157D01*
X170606Y76343D01*
X170924Y76496D01*
X171267Y76615D01*
X171634Y76700D01*
X172025Y76751D01*
X172440Y76768D01*
X172729Y76756D01*
X173006Y76720D01*
X173270Y76659D01*
X173521Y76575D01*
X173760Y76467D01*
X173986Y76334D01*
X174200Y76178D01*
X174401Y75997D01*
X174586Y75795D01*
X174752Y75573D01*
X174897Y75333D01*
X175023Y75073D01*
X175129Y74794D01*
X175216Y74496D01*
X175283Y74179D01*
X175330Y73842D01*
X175365Y73842D01*
X175438Y74148D01*
X175526Y74435D01*
X175629Y74704D01*
X175747Y74954D01*
X175880Y75185D01*
X176028Y75397D01*
X176190Y75590D01*
X176368Y75765D01*
X176560Y75920D01*
X176765Y76054D01*
X176985Y76168D01*
X177218Y76261D01*
X177466Y76333D01*
X177727Y76385D01*
X178002Y76416D01*
X178290Y76426D01*
X178665Y76410D01*
X179019Y76362D01*
X179351Y76281D01*
X179662Y76169D01*
X179952Y76024D01*
X180221Y75847D01*
X180468Y75638D01*
X180694Y75397D01*
X180897Y75127D01*
X181072Y74831D01*
X181220Y74509D01*
X181341Y74161D01*
X181436Y73787D01*
X181503Y73388D01*
X181544Y72962D01*
X181557Y72511D01*
X181544Y72096D01*
X181504Y71700D01*
X181438Y71324D01*
X181345Y70966D01*
X181225Y70628D01*
X181079Y70310D01*
X180907Y70010D01*
X180708Y69730D01*
X180485Y69474D01*
X180241Y69246D01*
X179977Y69046D01*
X179692Y68875D01*
X179386Y68732D01*
X179059Y68618D01*
X178711Y68531D01*
X178343Y68473D01*
X178220Y70059D01*
X178456Y70093D01*
X178679Y70145D01*
X178888Y70213D01*
X179083Y70298D01*
X179264Y70400D01*
X179432Y70519D01*
X179586Y70655D01*
X179727Y70808D01*
X179852Y70975D01*
X179960Y71154D01*
X180052Y71346D01*
X180127Y71551D01*
X180186Y71768D01*
X180228Y71997D01*
X180253Y72239D01*
X180261Y72494D01*
X180252Y72772D01*
X180225Y73032D01*
X180180Y73275D01*
X180117Y73500D01*
X180037Y73707D01*
X179938Y73897D01*
X179822Y74069D01*
X179687Y74223D01*
X179537Y74360D01*
X179374Y74478D01*
X179198Y74578D01*
X179010Y74660D01*
X178808Y74724D01*
X178593Y74769D01*
X178365Y74797D01*
X178124Y74806D01*
X177881Y74795D01*
X177652Y74761D01*
X177436Y74705D01*
X177234Y74627D01*
X177045Y74527D01*
X176870Y74404D01*
X176708Y74259D01*
X176560Y74092D01*
X176428Y73904D01*
X176313Y73699D01*
X176216Y73475D01*
X176137Y73233D01*
X176075Y72972D01*
X176031Y72694D01*
X176004Y72397D01*
X175995Y72082D01*
X175995Y71224D01*
X174629Y71224D01*
X174629Y72117D01*
X174620Y72472D01*
X174594Y72805D01*
X174550Y73117D01*
X174488Y73408D01*
X174408Y73677D01*
X174311Y73924D01*
X174197Y74150D01*
X174064Y74355D01*
X173916Y74536D01*
X173754Y74694D01*
X173578Y74827D01*
X173389Y74936D01*
X173185Y75021D01*
X172968Y75081D01*
X172737Y75118D01*
X172492Y75130D01*
X172212Y75119D01*
X171950Y75087D01*
X171705Y75034D01*
X171478Y74960D01*
X171269Y74865D01*
X171078Y74748D01*
X170905Y74610D01*
X170749Y74451D01*
X170612Y74273D01*
X170492Y74080D01*
X170392Y73870D01*
X170309Y73644D01*
X170245Y73402D01*
X170199Y73145D01*
X170171Y72871D01*
X170162Y72581D01*
X170171Y72292D01*
X170197Y72020D01*
X170239Y71763D01*
X170299Y71523D01*
X170376Y71299D01*
X170470Y71090D01*
X170581Y70898D01*
X170710Y70722D01*
X170855Y70562D01*
X171018Y70418D01*
X171197Y70290D01*
X171394Y70179D01*
X171608Y70083D01*
X171839Y70003D01*
X172087Y69940D01*
X172352Y69892D01*
X172203Y68263D01*
G37*
G36*
X170372Y41040D02*
X169032Y41040D01*
X169032Y48774D01*
X170372Y48774D01*
X170372Y45770D01*
X181373Y45770D01*
X181373Y44316D01*
X179368Y41399D01*
X177879Y41399D01*
X179867Y44184D01*
X170372Y44184D01*
X170372Y41040D01*
G37*
G36*
X166606Y4496D02*
X165468Y4496D01*
X165468Y14945D01*
X166606Y14945D01*
X166606Y4496D01*
G37*
G36*
X170845Y51280D02*
X169032Y51280D01*
X169032Y52988D01*
X170845Y52988D01*
X170845Y51280D01*
G37*
G36*
X178509Y51280D02*
X176696Y51280D01*
X176696Y52988D01*
X178509Y52988D01*
X178509Y51280D01*
G37*
G36*
X7447Y160063D02*
X7204Y160072D01*
X6977Y160100D01*
X6764Y160145D01*
X6567Y160209D01*
X6384Y160291D01*
X6215Y160391D01*
X6062Y160510D01*
X5923Y160646D01*
X5801Y160802D01*
X5694Y160976D01*
X5604Y161169D01*
X5530Y161382D01*
X5473Y161613D01*
X5432Y161863D01*
X5407Y162133D01*
X5399Y162421D01*
X5407Y162713D01*
X5430Y162984D01*
X5468Y163236D01*
X5522Y163468D01*
X5591Y163680D01*
X5675Y163873D01*
X5775Y164045D01*
X5890Y164198D01*
X6021Y164333D01*
X6170Y164449D01*
X6335Y164547D01*
X6518Y164628D01*
X6718Y164691D01*
X6936Y164735D01*
X7170Y164762D01*
X7422Y164771D01*
X7668Y164762D01*
X7899Y164734D01*
X8113Y164689D01*
X8312Y164624D01*
X8495Y164542D01*
X8662Y164441D01*
X8813Y164321D01*
X8948Y164184D01*
X9067Y164028D01*
X9170Y163853D01*
X9258Y163661D01*
X9329Y163449D01*
X9385Y163220D01*
X9425Y162972D01*
X9449Y162706D01*
X9457Y162421D01*
X9449Y162143D01*
X9425Y161882D01*
X9385Y161638D01*
X9330Y161411D01*
X9258Y161200D01*
X9171Y161006D01*
X9068Y160829D01*
X8949Y160669D01*
X8814Y160527D01*
X8665Y160404D01*
X8500Y160300D01*
X8319Y160215D01*
X8124Y160148D01*
X7914Y160101D01*
X7688Y160073D01*
X7447Y160063D01*
G37*
%LPC*%
G36*
X7455Y160621D02*
X7606Y160628D01*
X7747Y160649D01*
X7877Y160685D01*
X7997Y160734D01*
X8106Y160797D01*
X8205Y160875D01*
X8294Y160967D01*
X8372Y161072D01*
X8500Y161326D01*
X8591Y161635D01*
X8645Y162000D01*
X8664Y162421D01*
X8645Y162852D01*
X8590Y163222D01*
X8497Y163531D01*
X8368Y163779D01*
X8288Y163881D01*
X8197Y163969D01*
X8094Y164043D01*
X7980Y164105D01*
X7855Y164152D01*
X7717Y164186D01*
X7569Y164206D01*
X7409Y164213D01*
X7250Y164206D01*
X7103Y164186D01*
X6968Y164153D01*
X6845Y164107D01*
X6734Y164047D01*
X6634Y163974D01*
X6547Y163887D01*
X6471Y163787D01*
X6349Y163542D01*
X6262Y163233D01*
X6209Y162859D01*
X6192Y162421D01*
X6210Y161988D01*
X6265Y161617D01*
X6356Y161306D01*
X6484Y161058D01*
X6563Y160955D01*
X6654Y160867D01*
X6757Y160792D01*
X6872Y160730D01*
X7000Y160683D01*
X7139Y160648D01*
X7291Y160628D01*
X7455Y160621D01*
G37*
%LPD*%
G36*
X30549Y160063D02*
X30285Y160077D01*
X30041Y160117D01*
X29818Y160185D01*
X29615Y160279D01*
X29429Y160406D01*
X29255Y160571D01*
X29093Y160774D01*
X28942Y161016D01*
X28917Y161016D01*
X28894Y160796D01*
X28850Y160608D01*
X28786Y160451D01*
X28701Y160325D01*
X28591Y160229D01*
X28453Y160160D01*
X28286Y160119D01*
X28090Y160105D01*
X27795Y160122D01*
X27507Y160172D01*
X27507Y160642D01*
X27754Y160613D01*
X27868Y160623D01*
X27962Y160655D01*
X28036Y160708D01*
X28090Y160783D01*
X28129Y160878D01*
X28156Y160994D01*
X28178Y161288D01*
X28178Y163244D01*
X28185Y163424D01*
X28205Y163593D01*
X28239Y163752D01*
X28286Y163899D01*
X28347Y164035D01*
X28421Y164161D01*
X28509Y164275D01*
X28610Y164379D01*
X28725Y164471D01*
X28853Y164550D01*
X28994Y164618D01*
X29149Y164673D01*
X29316Y164716D01*
X29497Y164747D01*
X29691Y164765D01*
X29899Y164771D01*
X30283Y164752D01*
X30623Y164695D01*
X30918Y164599D01*
X31168Y164465D01*
X31373Y164293D01*
X31534Y164082D01*
X31649Y163833D01*
X31720Y163546D01*
X30931Y163475D01*
X30896Y163651D01*
X30839Y163801D01*
X30758Y163925D01*
X30654Y164024D01*
X30521Y164100D01*
X30354Y164153D01*
X30152Y164186D01*
X29915Y164196D01*
X29680Y164181D01*
X29479Y164137D01*
X29311Y164062D01*
X29177Y163957D01*
X29074Y163818D01*
X29001Y163639D01*
X28957Y163421D01*
X28942Y163164D01*
X28942Y162916D01*
X29962Y162900D01*
X30442Y162865D01*
X30656Y162831D01*
X30852Y162786D01*
X31030Y162731D01*
X31190Y162664D01*
X31333Y162586D01*
X31458Y162497D01*
X31566Y162397D01*
X31660Y162288D01*
X31740Y162168D01*
X31805Y162037D01*
X31856Y161897D01*
X31892Y161746D01*
X31914Y161585D01*
X31921Y161414D01*
X31900Y161116D01*
X31835Y160852D01*
X31728Y160621D01*
X31577Y160424D01*
X31384Y160266D01*
X31148Y160153D01*
X30870Y160086D01*
X30549Y160063D01*
G37*
%LPC*%
G36*
X30377Y160630D02*
X30551Y160642D01*
X30704Y160680D01*
X30835Y160743D01*
X30946Y160831D01*
X31033Y160942D01*
X31095Y161074D01*
X31132Y161228D01*
X31145Y161402D01*
X31136Y161563D01*
X31108Y161709D01*
X31062Y161838D01*
X30998Y161951D01*
X30917Y162049D01*
X30819Y162134D01*
X30706Y162205D01*
X30576Y162262D01*
X30423Y162306D01*
X30237Y162339D01*
X30019Y162361D01*
X29769Y162371D01*
X28942Y162388D01*
X28942Y162014D01*
X28954Y161841D01*
X28989Y161671D01*
X29047Y161502D01*
X29129Y161337D01*
X29231Y161181D01*
X29349Y161042D01*
X29485Y160922D01*
X29638Y160818D01*
X29806Y160736D01*
X29985Y160677D01*
X30175Y160641D01*
X30377Y160630D01*
G37*
%LPD*%
G36*
X24043Y160147D02*
X23284Y160147D01*
X23284Y163172D01*
X23305Y163570D01*
X23370Y163907D01*
X23419Y164053D01*
X23478Y164184D01*
X23549Y164299D01*
X23630Y164400D01*
X23723Y164487D01*
X23828Y164562D01*
X23946Y164626D01*
X24076Y164678D01*
X24219Y164719D01*
X24375Y164748D01*
X24723Y164771D01*
X24966Y164759D01*
X25189Y164722D01*
X25391Y164661D01*
X25573Y164576D01*
X25739Y164461D01*
X25894Y164312D01*
X26040Y164129D01*
X26175Y163911D01*
X26187Y163911D01*
X26202Y164362D01*
X26213Y164574D01*
X26221Y164687D01*
X26934Y164687D01*
X26915Y164357D01*
X26909Y163718D01*
X26909Y160147D01*
X26154Y160147D01*
X26154Y162778D01*
X26134Y163091D01*
X26075Y163369D01*
X25977Y163610D01*
X25839Y163814D01*
X25667Y163978D01*
X25467Y164095D01*
X25237Y164165D01*
X24979Y164188D01*
X24803Y164181D01*
X24651Y164161D01*
X24520Y164127D01*
X24412Y164079D01*
X24323Y164016D01*
X24246Y163935D01*
X24182Y163837D01*
X24131Y163722D01*
X24093Y163586D01*
X24065Y163424D01*
X24049Y163237D01*
X24043Y163026D01*
X24043Y160147D01*
G37*
G36*
X14361Y160063D02*
X13949Y160085D01*
X13585Y160150D01*
X13270Y160259D01*
X13003Y160411D01*
X12890Y160503D01*
X12791Y160604D01*
X12708Y160714D01*
X12640Y160833D01*
X12587Y160961D01*
X12549Y161099D01*
X12526Y161246D01*
X12519Y161402D01*
X12540Y161648D01*
X12603Y161865D01*
X12704Y162057D01*
X12840Y162224D01*
X13021Y162373D01*
X13257Y162507D01*
X13605Y162641D01*
X14122Y162786D01*
X14646Y162925D01*
X14952Y163030D01*
X15126Y163127D01*
X15250Y163244D01*
X15326Y163386D01*
X15345Y163470D01*
X15351Y163563D01*
X15336Y163710D01*
X15290Y163838D01*
X15214Y163945D01*
X15108Y164033D01*
X14969Y164101D01*
X14797Y164149D01*
X14592Y164178D01*
X14352Y164188D01*
X14133Y164178D01*
X13938Y164148D01*
X13765Y164097D01*
X13616Y164026D01*
X13492Y163937D01*
X13394Y163830D01*
X13323Y163705D01*
X13278Y163563D01*
X12598Y163647D01*
X12677Y163918D01*
X12797Y164150D01*
X12958Y164342D01*
X13159Y164494D01*
X13399Y164610D01*
X13678Y164692D01*
X13996Y164742D01*
X14352Y164759D01*
X14751Y164738D01*
X15099Y164677D01*
X15396Y164576D01*
X15643Y164433D01*
X15836Y164252D01*
X15912Y164148D01*
X15975Y164034D01*
X16023Y163911D01*
X16058Y163779D01*
X16078Y163638D01*
X16085Y163487D01*
X16076Y163326D01*
X16047Y163178D01*
X15998Y163043D01*
X15930Y162921D01*
X15845Y162810D01*
X15745Y162707D01*
X15500Y162528D01*
X15339Y162447D01*
X15131Y162365D01*
X14575Y162199D01*
X14033Y162056D01*
X13842Y161998D01*
X13679Y161932D01*
X13544Y161860D01*
X13438Y161779D01*
X13357Y161689D01*
X13299Y161586D01*
X13265Y161471D01*
X13253Y161343D01*
X13270Y161178D01*
X13320Y161034D01*
X13403Y160913D01*
X13519Y160814D01*
X13672Y160737D01*
X13863Y160682D01*
X14093Y160649D01*
X14361Y160638D01*
X14615Y160649D01*
X14839Y160680D01*
X15034Y160734D01*
X15200Y160808D01*
X15338Y160905D01*
X15451Y161027D01*
X15538Y161173D01*
X15599Y161343D01*
X16266Y161213D01*
X16177Y160937D01*
X16047Y160699D01*
X15878Y160501D01*
X15668Y160342D01*
X15414Y160220D01*
X15111Y160133D01*
X14760Y160081D01*
X14361Y160063D01*
G37*
G36*
X20580Y160063D02*
X20167Y160085D01*
X19804Y160150D01*
X19489Y160259D01*
X19222Y160411D01*
X19108Y160503D01*
X19010Y160604D01*
X18927Y160714D01*
X18859Y160833D01*
X18806Y160961D01*
X18768Y161099D01*
X18745Y161246D01*
X18737Y161402D01*
X18758Y161648D01*
X18821Y161865D01*
X18923Y162057D01*
X19058Y162224D01*
X19239Y162373D01*
X19476Y162507D01*
X19824Y162641D01*
X20340Y162786D01*
X20865Y162925D01*
X21171Y163030D01*
X21344Y163127D01*
X21469Y163244D01*
X21545Y163386D01*
X21564Y163470D01*
X21570Y163563D01*
X21555Y163710D01*
X21509Y163838D01*
X21433Y163945D01*
X21326Y164033D01*
X21188Y164101D01*
X21016Y164149D01*
X20810Y164178D01*
X20571Y164188D01*
X20352Y164178D01*
X20156Y164148D01*
X19984Y164097D01*
X19835Y164026D01*
X19711Y163937D01*
X19613Y163830D01*
X19542Y163705D01*
X19497Y163563D01*
X18817Y163647D01*
X18896Y163918D01*
X19016Y164150D01*
X19176Y164342D01*
X19377Y164494D01*
X19618Y164610D01*
X19897Y164692D01*
X20215Y164742D01*
X20571Y164759D01*
X20970Y164738D01*
X21318Y164677D01*
X21615Y164576D01*
X21861Y164433D01*
X22055Y164252D01*
X22131Y164148D01*
X22193Y164034D01*
X22242Y163911D01*
X22276Y163779D01*
X22297Y163638D01*
X22304Y163487D01*
X22294Y163326D01*
X22265Y163178D01*
X22217Y163043D01*
X22149Y162921D01*
X22064Y162810D01*
X21964Y162707D01*
X21719Y162528D01*
X21558Y162447D01*
X21350Y162365D01*
X20794Y162199D01*
X20252Y162056D01*
X20061Y161998D01*
X19898Y161932D01*
X19763Y161860D01*
X19656Y161779D01*
X19576Y161689D01*
X19518Y161586D01*
X19483Y161471D01*
X19472Y161343D01*
X19488Y161178D01*
X19538Y161034D01*
X19622Y160913D01*
X19738Y160814D01*
X19891Y160737D01*
X20082Y160682D01*
X20311Y160649D01*
X20580Y160638D01*
X20833Y160649D01*
X21058Y160680D01*
X21253Y160734D01*
X21419Y160808D01*
X21557Y160905D01*
X21669Y161027D01*
X21756Y161173D01*
X21817Y161343D01*
X22485Y161213D01*
X22395Y160937D01*
X22266Y160699D01*
X22096Y160501D01*
X21887Y160342D01*
X21633Y160220D01*
X21330Y160133D01*
X20979Y160081D01*
X20580Y160063D01*
G37*
G36*
X37875Y160147D02*
X37078Y160147D01*
X37078Y165405D01*
X35047Y165405D01*
X35047Y166059D01*
X39906Y166059D01*
X39906Y165405D01*
X37875Y165405D01*
X37875Y160147D01*
G37*
G36*
X10632Y160080D02*
X10437Y160086D01*
X10246Y160105D01*
X9868Y160181D01*
X9868Y160739D01*
X10120Y160695D01*
X10304Y160680D01*
X10427Y160688D01*
X10529Y160713D01*
X10612Y160754D01*
X10676Y160812D01*
X10722Y160890D01*
X10756Y160993D01*
X10776Y161120D01*
X10783Y161272D01*
X10783Y164138D01*
X9943Y164138D01*
X9943Y164687D01*
X10783Y164687D01*
X10783Y165703D01*
X11286Y165703D01*
X11509Y164687D01*
X12062Y164687D01*
X12062Y164138D01*
X11538Y164138D01*
X11538Y161108D01*
X11524Y160867D01*
X11481Y160658D01*
X11410Y160481D01*
X11311Y160337D01*
X11184Y160224D01*
X11028Y160144D01*
X10844Y160096D01*
X10632Y160080D01*
G37*
G36*
X4440Y160147D02*
X3685Y160147D01*
X3685Y162514D01*
X3670Y162869D01*
X3623Y163181D01*
X3546Y163450D01*
X3438Y163674D01*
X3300Y163851D01*
X3134Y163978D01*
X2941Y164054D01*
X2834Y164072D01*
X2720Y164079D01*
X2493Y164068D01*
X2317Y164037D01*
X2317Y164729D01*
X2471Y164761D01*
X2623Y164771D01*
X2825Y164758D01*
X3003Y164718D01*
X3157Y164651D01*
X3286Y164557D01*
X3401Y164427D01*
X3508Y164251D01*
X3608Y164028D01*
X3702Y163760D01*
X3719Y163760D01*
X3752Y164687D01*
X4466Y164687D01*
X4440Y163630D01*
X4440Y160147D01*
G37*
G36*
X34565Y160147D02*
X33810Y160147D01*
X33810Y162514D01*
X33795Y162869D01*
X33748Y163181D01*
X33671Y163450D01*
X33563Y163674D01*
X33425Y163851D01*
X33259Y163978D01*
X33066Y164054D01*
X32959Y164072D01*
X32845Y164079D01*
X32618Y164068D01*
X32442Y164037D01*
X32442Y164729D01*
X32596Y164761D01*
X32748Y164771D01*
X32950Y164758D01*
X33128Y164718D01*
X33282Y164651D01*
X33411Y164557D01*
X33526Y164427D01*
X33633Y164251D01*
X33733Y164028D01*
X33827Y163760D01*
X33844Y163760D01*
X33877Y164687D01*
X34591Y164687D01*
X34565Y163630D01*
X34565Y160147D01*
G37*
G36*
X17836Y160147D02*
X17081Y160147D01*
X17081Y164687D01*
X17836Y164687D01*
X17836Y160147D01*
G37*
G36*
X17836Y165652D02*
X17081Y165652D01*
X17081Y166374D01*
X17836Y166374D01*
X17836Y165652D01*
G37*
G36*
X76980Y174788D02*
X75508Y174788D01*
X75232Y174803D01*
X74972Y174848D01*
X74729Y174924D01*
X74503Y175030D01*
X74297Y175165D01*
X74117Y175327D01*
X73961Y175515D01*
X73830Y175730D01*
X73726Y175968D01*
X73652Y176225D01*
X73607Y176500D01*
X73593Y176795D01*
X73601Y177020D01*
X73626Y177231D01*
X73669Y177429D01*
X73728Y177614D01*
X73805Y177785D01*
X73898Y177944D01*
X74008Y178089D01*
X74136Y178221D01*
X74279Y178338D01*
X74436Y178440D01*
X74607Y178526D01*
X74793Y178597D01*
X74993Y178651D01*
X75207Y178691D01*
X75436Y178714D01*
X75678Y178722D01*
X76980Y178722D01*
X76980Y174788D01*
G37*
%LPC*%
G36*
X76446Y175215D02*
X76446Y178295D01*
X75690Y178295D01*
X75505Y178289D01*
X75332Y178271D01*
X75170Y178241D01*
X75020Y178199D01*
X74880Y178145D01*
X74752Y178079D01*
X74529Y177911D01*
X74435Y177809D01*
X74354Y177697D01*
X74285Y177574D01*
X74229Y177440D01*
X74185Y177295D01*
X74154Y177139D01*
X74135Y176973D01*
X74129Y176795D01*
X74140Y176560D01*
X74173Y176341D01*
X74228Y176139D01*
X74305Y175952D01*
X74402Y175784D01*
X74519Y175636D01*
X74654Y175510D01*
X74809Y175405D01*
X74979Y175322D01*
X75163Y175262D01*
X75360Y175227D01*
X75570Y175215D01*
X76446Y175215D01*
G37*
%LPD*%
G36*
X80792Y174788D02*
X77693Y174788D01*
X77693Y175223D01*
X80259Y175223D01*
X80259Y176594D01*
X77975Y176594D01*
X77975Y177024D01*
X80259Y177024D01*
X80259Y178286D01*
X77807Y178286D01*
X77807Y178722D01*
X80792Y178722D01*
X80792Y174788D01*
G37*
G36*
X91939Y174732D02*
X91696Y174743D01*
X91469Y174777D01*
X91259Y174835D01*
X91066Y174915D01*
X90892Y175016D01*
X90738Y175138D01*
X90605Y175281D01*
X90494Y175444D01*
X90405Y175625D01*
X90342Y175823D01*
X90304Y176037D01*
X90291Y176267D01*
X90291Y178722D01*
X90822Y178722D01*
X90822Y176298D01*
X90840Y176037D01*
X90896Y175809D01*
X90988Y175615D01*
X91116Y175453D01*
X91279Y175327D01*
X91470Y175237D01*
X91691Y175183D01*
X91942Y175164D01*
X92185Y175182D01*
X92397Y175234D01*
X92580Y175322D01*
X92732Y175444D01*
X92852Y175600D01*
X92937Y175788D01*
X92988Y176009D01*
X93005Y176262D01*
X93005Y178722D01*
X93539Y178722D01*
X93539Y176217D01*
X93526Y175993D01*
X93489Y175786D01*
X93427Y175594D01*
X93341Y175419D01*
X93231Y175261D01*
X93102Y175123D01*
X92952Y175005D01*
X92782Y174908D01*
X92594Y174831D01*
X92391Y174776D01*
X92173Y174743D01*
X91939Y174732D01*
G37*
G36*
X88224Y174788D02*
X87671Y174788D01*
X86066Y178722D01*
X86627Y178722D01*
X87710Y175952D01*
X87945Y175257D01*
X88180Y175952D01*
X89269Y178722D01*
X89830Y178722D01*
X88224Y174788D01*
G37*
G36*
X83980Y174788D02*
X81458Y174788D01*
X81458Y175223D01*
X83446Y175223D01*
X83446Y178722D01*
X83980Y178722D01*
X83980Y174788D01*
G37*
G36*
X115118Y200660D02*
X110502Y200660D01*
X110062Y200672D01*
X109635Y200708D01*
X109221Y200767D01*
X108821Y200850D01*
X108433Y200958D01*
X108059Y201089D01*
X107697Y201243D01*
X107349Y201422D01*
X107017Y201623D01*
X106705Y201845D01*
X106412Y202088D01*
X106138Y202351D01*
X105884Y202636D01*
X105649Y202942D01*
X105434Y203268D01*
X105238Y203616D01*
X105064Y203981D01*
X104913Y204362D01*
X104785Y204757D01*
X104680Y205167D01*
X104599Y205592D01*
X104540Y206033D01*
X104505Y206488D01*
X104494Y206957D01*
X104501Y207315D01*
X104520Y207661D01*
X104554Y207998D01*
X104600Y208324D01*
X104660Y208640D01*
X104733Y208945D01*
X104820Y209240D01*
X104920Y209525D01*
X105033Y209799D01*
X105159Y210063D01*
X105299Y210316D01*
X105452Y210560D01*
X105618Y210792D01*
X105798Y211015D01*
X105991Y211227D01*
X106197Y211429D01*
X106416Y211619D01*
X106646Y211797D01*
X106887Y211963D01*
X107139Y212116D01*
X107402Y212258D01*
X107676Y212387D01*
X107962Y212503D01*
X108259Y212608D01*
X108567Y212700D01*
X108886Y212780D01*
X109217Y212847D01*
X109558Y212903D01*
X109911Y212946D01*
X110275Y212976D01*
X110650Y212995D01*
X111036Y213001D01*
X115118Y213001D01*
X115118Y200660D01*
G37*
%LPC*%
G36*
X113445Y202000D02*
X113445Y211661D01*
X111072Y211661D01*
X110494Y211642D01*
X109951Y211585D01*
X109443Y211491D01*
X108971Y211360D01*
X108533Y211190D01*
X108131Y210983D01*
X107764Y210739D01*
X107432Y210456D01*
X107138Y210138D01*
X106882Y209786D01*
X106666Y209400D01*
X106490Y208980D01*
X106352Y208525D01*
X106254Y208037D01*
X106195Y207514D01*
X106175Y206957D01*
X106184Y206583D01*
X106210Y206221D01*
X106253Y205871D01*
X106313Y205534D01*
X106391Y205210D01*
X106486Y204898D01*
X106598Y204599D01*
X106727Y204312D01*
X106873Y204040D01*
X107033Y203785D01*
X107208Y203545D01*
X107398Y203323D01*
X107603Y203116D01*
X107823Y202926D01*
X108058Y202753D01*
X108308Y202596D01*
X108571Y202456D01*
X108843Y202335D01*
X109126Y202233D01*
X109419Y202149D01*
X109723Y202084D01*
X110037Y202037D01*
X110361Y202009D01*
X110695Y202000D01*
X113445Y202000D01*
G37*
%LPD*%
G36*
X141301Y200660D02*
X139374Y200660D01*
X141386Y203713D01*
X142877Y205976D01*
X142534Y206049D01*
X142210Y206142D01*
X141905Y206258D01*
X141619Y206395D01*
X141463Y206487D01*
X141352Y206553D01*
X141104Y206734D01*
X140876Y206935D01*
X140666Y207159D01*
X140478Y207400D01*
X140315Y207655D01*
X140177Y207923D01*
X140065Y208205D01*
X139977Y208501D01*
X139914Y208811D01*
X139877Y209134D01*
X139864Y209471D01*
X139882Y209876D01*
X139935Y210257D01*
X140024Y210616D01*
X140148Y210952D01*
X140307Y211266D01*
X140502Y211556D01*
X140733Y211823D01*
X140999Y212068D01*
X141297Y212287D01*
X141625Y212476D01*
X141983Y212636D01*
X142370Y212768D01*
X142788Y212870D01*
X143234Y212942D01*
X143711Y212986D01*
X144217Y213001D01*
X150024Y213001D01*
X150024Y200660D01*
X148351Y200660D01*
X148351Y205784D01*
X144506Y205784D01*
X141301Y200660D01*
G37*
%LPC*%
G36*
X148351Y207106D02*
X148351Y211661D01*
X144384Y211661D01*
X144050Y211652D01*
X143736Y211625D01*
X143443Y211581D01*
X143170Y211520D01*
X142916Y211440D01*
X142683Y211343D01*
X142470Y211228D01*
X142277Y211096D01*
X142106Y210947D01*
X141957Y210781D01*
X141832Y210600D01*
X141729Y210403D01*
X141649Y210190D01*
X141592Y209960D01*
X141557Y209715D01*
X141546Y209454D01*
X141557Y209183D01*
X141591Y208928D01*
X141648Y208689D01*
X141727Y208465D01*
X141828Y208256D01*
X141952Y208063D01*
X142099Y207886D01*
X142269Y207724D01*
X142459Y207579D01*
X142667Y207454D01*
X142895Y207347D01*
X143141Y207261D01*
X143406Y207193D01*
X143690Y207145D01*
X143992Y207116D01*
X144314Y207106D01*
X148351Y207106D01*
G37*
%LPD*%
G36*
X127087Y200660D02*
X125414Y200660D01*
X125414Y205468D01*
X121788Y205468D01*
X121310Y205485D01*
X120858Y205533D01*
X120432Y205614D01*
X120031Y205727D01*
X119655Y205872D01*
X119306Y206050D01*
X118981Y206260D01*
X118683Y206502D01*
X118415Y206772D01*
X118183Y207064D01*
X117986Y207378D01*
X117826Y207715D01*
X117701Y208074D01*
X117611Y208456D01*
X117558Y208860D01*
X117540Y209287D01*
X117558Y209717D01*
X117611Y210122D01*
X117700Y210502D01*
X117825Y210857D01*
X117985Y211187D01*
X118180Y211493D01*
X118412Y211773D01*
X118679Y212029D01*
X118978Y212256D01*
X119306Y212454D01*
X119664Y212621D01*
X120051Y212758D01*
X120468Y212864D01*
X120914Y212940D01*
X121389Y212986D01*
X121893Y213001D01*
X127087Y213001D01*
X127087Y200660D01*
G37*
%LPC*%
G36*
X125414Y206791D02*
X125414Y211661D01*
X122094Y211661D01*
X121746Y211651D01*
X121421Y211623D01*
X121118Y211577D01*
X120837Y211511D01*
X120579Y211427D01*
X120344Y211324D01*
X120131Y211203D01*
X119940Y211063D01*
X119771Y210904D01*
X119626Y210727D01*
X119502Y210531D01*
X119401Y210316D01*
X119323Y210082D01*
X119266Y209830D01*
X119233Y209559D01*
X119222Y209270D01*
X119232Y208969D01*
X119265Y208689D01*
X119320Y208427D01*
X119397Y208185D01*
X119495Y207963D01*
X119616Y207759D01*
X119758Y207575D01*
X119922Y207411D01*
X120108Y207265D01*
X120316Y207140D01*
X120546Y207033D01*
X120798Y206946D01*
X121072Y206878D01*
X121367Y206830D01*
X121685Y206801D01*
X122024Y206791D01*
X125414Y206791D01*
G37*
%LPD*%
G36*
X81755Y200485D02*
X81307Y200498D01*
X80872Y200537D01*
X80451Y200602D01*
X80044Y200693D01*
X79651Y200810D01*
X79271Y200953D01*
X78906Y201122D01*
X78554Y201317D01*
X78219Y201537D01*
X77903Y201781D01*
X77606Y202048D01*
X77329Y202339D01*
X77071Y202655D01*
X76832Y202994D01*
X76613Y203356D01*
X76412Y203743D01*
X77779Y204426D01*
X77947Y204115D01*
X78125Y203825D01*
X78313Y203554D01*
X78512Y203303D01*
X78720Y203073D01*
X78939Y202862D01*
X79167Y202672D01*
X79406Y202501D01*
X79654Y202351D01*
X79913Y202221D01*
X80182Y202111D01*
X80461Y202020D01*
X80749Y201950D01*
X81048Y201900D01*
X81357Y201870D01*
X81676Y201860D01*
X82169Y201881D01*
X82636Y201946D01*
X83076Y202054D01*
X83490Y202205D01*
X83879Y202399D01*
X84241Y202636D01*
X84577Y202916D01*
X84886Y203239D01*
X85164Y203598D01*
X85406Y203985D01*
X85610Y204399D01*
X85776Y204841D01*
X85906Y205311D01*
X85999Y205809D01*
X86055Y206334D01*
X86073Y206887D01*
X86055Y207446D01*
X86002Y207974D01*
X85913Y208471D01*
X85788Y208938D01*
X85628Y209374D01*
X85433Y209780D01*
X85201Y210155D01*
X84934Y210500D01*
X84636Y210809D01*
X84308Y211077D01*
X83952Y211303D01*
X83568Y211489D01*
X83155Y211633D01*
X82714Y211736D01*
X82245Y211798D01*
X81746Y211818D01*
X81426Y211809D01*
X81116Y211783D01*
X80818Y211738D01*
X80530Y211676D01*
X80254Y211596D01*
X79988Y211498D01*
X79734Y211383D01*
X79491Y211249D01*
X79262Y211099D01*
X79048Y210933D01*
X78852Y210751D01*
X78671Y210553D01*
X78507Y210339D01*
X78359Y210109D01*
X78227Y209864D01*
X78112Y209602D01*
X76526Y210128D01*
X76693Y210495D01*
X76881Y210839D01*
X77091Y211160D01*
X77323Y211457D01*
X77577Y211731D01*
X77853Y211982D01*
X78151Y212210D01*
X78471Y212414D01*
X78811Y212595D01*
X79172Y212751D01*
X79554Y212884D01*
X79955Y212992D01*
X80377Y213076D01*
X80819Y213137D01*
X81281Y213173D01*
X81764Y213185D01*
X82112Y213178D01*
X82450Y213159D01*
X82778Y213126D01*
X83097Y213080D01*
X83407Y213021D01*
X83707Y212949D01*
X83997Y212865D01*
X84278Y212766D01*
X84549Y212655D01*
X84810Y212531D01*
X85062Y212394D01*
X85305Y212244D01*
X85761Y211904D01*
X86178Y211512D01*
X86552Y211074D01*
X86876Y210595D01*
X87150Y210077D01*
X87268Y209803D01*
X87374Y209519D01*
X87467Y209225D01*
X87548Y208921D01*
X87617Y208607D01*
X87673Y208283D01*
X87716Y207949D01*
X87747Y207605D01*
X87766Y207251D01*
X87772Y206887D01*
X87761Y206403D01*
X87728Y205935D01*
X87672Y205484D01*
X87594Y205049D01*
X87493Y204631D01*
X87371Y204229D01*
X87226Y203844D01*
X87058Y203476D01*
X86870Y203126D01*
X86661Y202797D01*
X86432Y202489D01*
X86183Y202202D01*
X85913Y201935D01*
X85623Y201689D01*
X85313Y201464D01*
X84983Y201260D01*
X84634Y201078D01*
X84270Y200921D01*
X83890Y200788D01*
X83495Y200679D01*
X83084Y200594D01*
X82656Y200533D01*
X82214Y200497D01*
X81755Y200485D01*
G37*
G36*
X74348Y200660D02*
X66614Y200660D01*
X66614Y202000D01*
X69618Y202000D01*
X69618Y213001D01*
X71072Y213001D01*
X73989Y210995D01*
X73989Y209506D01*
X71204Y211494D01*
X71204Y202000D01*
X74348Y202000D01*
X74348Y200660D01*
G37*
G36*
X102254Y200660D02*
X94521Y200660D01*
X94521Y202000D01*
X97525Y202000D01*
X97525Y213001D01*
X98979Y213001D01*
X101895Y210995D01*
X101895Y209506D01*
X99110Y211494D01*
X99110Y202000D01*
X102254Y202000D01*
X102254Y200660D01*
G37*
G36*
X154809Y200660D02*
X153136Y200660D01*
X153136Y213001D01*
X154809Y213001D01*
X154809Y200660D01*
G37*
G36*
X138798Y197095D02*
X128349Y197095D01*
X128349Y198234D01*
X138798Y198234D01*
X138798Y197095D01*
G37*
G36*
X92014Y200660D02*
X90306Y200660D01*
X90306Y202473D01*
X92014Y202473D01*
X92014Y200660D01*
G37*
G36*
X92014Y208324D02*
X90306Y208324D01*
X90306Y210137D01*
X92014Y210137D01*
X92014Y208324D01*
G37*
G36*
X155232Y212502D02*
X142891Y212502D01*
X142891Y217118D01*
X142903Y217558D01*
X142939Y217985D01*
X142999Y218399D01*
X143082Y218799D01*
X143189Y219187D01*
X143320Y219561D01*
X143475Y219923D01*
X143653Y220271D01*
X143854Y220603D01*
X144076Y220915D01*
X144319Y221208D01*
X144583Y221482D01*
X144868Y221736D01*
X145173Y221971D01*
X145500Y222186D01*
X145847Y222382D01*
X146213Y222556D01*
X146593Y222707D01*
X146989Y222835D01*
X147399Y222940D01*
X147824Y223021D01*
X148264Y223080D01*
X148719Y223115D01*
X149189Y223126D01*
X149546Y223120D01*
X149893Y223100D01*
X150229Y223066D01*
X150555Y223020D01*
X150871Y222960D01*
X151176Y222887D01*
X151471Y222800D01*
X151756Y222700D01*
X152030Y222587D01*
X152294Y222461D01*
X152548Y222321D01*
X152791Y222168D01*
X153024Y222002D01*
X153246Y221822D01*
X153458Y221629D01*
X153660Y221423D01*
X153850Y221204D01*
X154028Y220974D01*
X154194Y220733D01*
X154348Y220481D01*
X154489Y220218D01*
X154618Y219944D01*
X154735Y219658D01*
X154839Y219361D01*
X154931Y219053D01*
X155011Y218734D01*
X155079Y218403D01*
X155134Y218062D01*
X155177Y217709D01*
X155208Y217345D01*
X155226Y216970D01*
X155232Y216584D01*
X155232Y212502D01*
G37*
%LPC*%
G36*
X153892Y214175D02*
X153892Y216549D01*
X153873Y217127D01*
X153817Y217669D01*
X153723Y218177D01*
X153591Y218649D01*
X153422Y219087D01*
X153215Y219489D01*
X152970Y219856D01*
X152688Y220188D01*
X152370Y220482D01*
X152018Y220738D01*
X151631Y220954D01*
X151211Y221130D01*
X150756Y221268D01*
X150268Y221366D01*
X149745Y221425D01*
X149189Y221445D01*
X148814Y221436D01*
X148452Y221410D01*
X148102Y221367D01*
X147766Y221307D01*
X147441Y221229D01*
X147129Y221134D01*
X146830Y221022D01*
X146544Y220893D01*
X146272Y220747D01*
X146016Y220587D01*
X145777Y220412D01*
X145554Y220222D01*
X145348Y220017D01*
X145158Y219797D01*
X144984Y219562D01*
X144827Y219312D01*
X144687Y219049D01*
X144566Y218777D01*
X144464Y218494D01*
X144380Y218201D01*
X144315Y217897D01*
X144269Y217583D01*
X144241Y217259D01*
X144231Y216925D01*
X144231Y214175D01*
X153892Y214175D01*
G37*
%LPD*%
G36*
X155232Y177596D02*
X142891Y177596D01*
X142891Y179269D01*
X148015Y179269D01*
X148015Y183114D01*
X142891Y186319D01*
X142891Y188246D01*
X145945Y186234D01*
X148208Y184743D01*
X148280Y185086D01*
X148374Y185410D01*
X148489Y185715D01*
X148626Y186001D01*
X148719Y186157D01*
X148785Y186268D01*
X148965Y186516D01*
X149167Y186744D01*
X149390Y186954D01*
X149631Y187142D01*
X149886Y187305D01*
X150155Y187443D01*
X150437Y187555D01*
X150733Y187643D01*
X151042Y187706D01*
X151366Y187743D01*
X151702Y187756D01*
X152107Y187738D01*
X152489Y187685D01*
X152848Y187596D01*
X153184Y187472D01*
X153497Y187313D01*
X153787Y187118D01*
X154055Y186887D01*
X154299Y186621D01*
X154518Y186323D01*
X154707Y185995D01*
X154868Y185637D01*
X154999Y185250D01*
X155101Y184832D01*
X155174Y184386D01*
X155218Y183909D01*
X155232Y183403D01*
X155232Y177596D01*
G37*
%LPC*%
G36*
X153892Y179269D02*
X153892Y183236D01*
X153883Y183570D01*
X153857Y183884D01*
X153813Y184177D01*
X153751Y184450D01*
X153671Y184704D01*
X153574Y184937D01*
X153460Y185150D01*
X153327Y185343D01*
X153178Y185514D01*
X153013Y185663D01*
X152831Y185788D01*
X152634Y185891D01*
X152421Y185971D01*
X152192Y186028D01*
X151946Y186063D01*
X151685Y186074D01*
X151415Y186063D01*
X151160Y186029D01*
X150920Y185972D01*
X150696Y185893D01*
X150488Y185792D01*
X150295Y185668D01*
X150117Y185521D01*
X149955Y185352D01*
X149810Y185161D01*
X149685Y184953D01*
X149579Y184725D01*
X149492Y184479D01*
X149424Y184214D01*
X149376Y183930D01*
X149347Y183628D01*
X149338Y183306D01*
X149338Y179269D01*
X153892Y179269D01*
G37*
%LPD*%
G36*
X155232Y200533D02*
X142891Y200533D01*
X142891Y202206D01*
X147700Y202206D01*
X147700Y205832D01*
X147716Y206310D01*
X147764Y206762D01*
X147845Y207189D01*
X147958Y207589D01*
X148104Y207965D01*
X148281Y208314D01*
X148491Y208639D01*
X148733Y208937D01*
X149003Y209205D01*
X149295Y209437D01*
X149609Y209634D01*
X149946Y209794D01*
X150306Y209919D01*
X150688Y210009D01*
X151092Y210062D01*
X151519Y210080D01*
X151948Y210062D01*
X152353Y210009D01*
X152733Y209920D01*
X153089Y209795D01*
X153419Y209635D01*
X153724Y209440D01*
X154004Y209208D01*
X154260Y208942D01*
X154488Y208642D01*
X154685Y208314D01*
X154852Y207956D01*
X154989Y207569D01*
X155095Y207152D01*
X155171Y206706D01*
X155217Y206231D01*
X155232Y205727D01*
X155232Y200533D01*
G37*
%LPC*%
G36*
X153892Y202206D02*
X153892Y205526D01*
X153883Y205874D01*
X153855Y206199D01*
X153808Y206502D01*
X153743Y206783D01*
X153659Y207041D01*
X153556Y207276D01*
X153434Y207490D01*
X153294Y207680D01*
X153136Y207849D01*
X152958Y207994D01*
X152762Y208118D01*
X152547Y208219D01*
X152314Y208297D01*
X152061Y208354D01*
X151791Y208387D01*
X151501Y208398D01*
X151201Y208388D01*
X150920Y208355D01*
X150659Y208300D01*
X150417Y208223D01*
X150194Y208125D01*
X149991Y208004D01*
X149807Y207862D01*
X149642Y207698D01*
X149497Y207512D01*
X149371Y207304D01*
X149264Y207074D01*
X149177Y206822D01*
X149109Y206548D01*
X149061Y206253D01*
X149032Y205935D01*
X149022Y205596D01*
X149022Y202206D01*
X153892Y202206D01*
G37*
%LPD*%
G36*
X149119Y239848D02*
X148634Y239859D01*
X148166Y239892D01*
X147715Y239948D01*
X147281Y240026D01*
X146862Y240127D01*
X146461Y240249D01*
X146076Y240394D01*
X145707Y240562D01*
X145357Y240750D01*
X145028Y240959D01*
X144720Y241188D01*
X144433Y241437D01*
X144166Y241707D01*
X143921Y241997D01*
X143696Y242307D01*
X143491Y242637D01*
X143310Y242986D01*
X143152Y243350D01*
X143019Y243730D01*
X142910Y244125D01*
X142825Y244537D01*
X142765Y244964D01*
X142728Y245406D01*
X142716Y245865D01*
X142729Y246313D01*
X142768Y246748D01*
X142833Y247169D01*
X142924Y247576D01*
X143041Y247969D01*
X143184Y248349D01*
X143353Y248714D01*
X143548Y249066D01*
X143768Y249401D01*
X144012Y249717D01*
X144279Y250014D01*
X144571Y250291D01*
X144886Y250549D01*
X145225Y250788D01*
X145588Y251007D01*
X145974Y251208D01*
X146658Y249841D01*
X146347Y249673D01*
X146056Y249495D01*
X145785Y249307D01*
X145535Y249108D01*
X145304Y248900D01*
X145094Y248681D01*
X144903Y248453D01*
X144733Y248214D01*
X144582Y247966D01*
X144452Y247707D01*
X144342Y247438D01*
X144252Y247160D01*
X144182Y246871D01*
X144131Y246572D01*
X144101Y246263D01*
X144091Y245944D01*
X144113Y245451D01*
X144178Y244984D01*
X144285Y244544D01*
X144436Y244130D01*
X144630Y243741D01*
X144867Y243379D01*
X145147Y243043D01*
X145471Y242734D01*
X145830Y242456D01*
X146216Y242214D01*
X146630Y242011D01*
X147072Y241844D01*
X147542Y241714D01*
X148040Y241621D01*
X148565Y241565D01*
X149119Y241547D01*
X149677Y241565D01*
X150205Y241618D01*
X150702Y241707D01*
X151169Y241832D01*
X151606Y241992D01*
X152011Y242187D01*
X152387Y242419D01*
X152732Y242686D01*
X153041Y242984D01*
X153308Y243312D01*
X153535Y243668D01*
X153720Y244052D01*
X153864Y244465D01*
X153967Y244906D01*
X154029Y245376D01*
X154050Y245874D01*
X154041Y246194D01*
X154014Y246504D01*
X153970Y246803D01*
X153907Y247090D01*
X153827Y247366D01*
X153730Y247632D01*
X153614Y247886D01*
X153480Y248129D01*
X153330Y248358D01*
X153164Y248572D01*
X152982Y248768D01*
X152784Y248949D01*
X152570Y249113D01*
X152341Y249261D01*
X152095Y249393D01*
X151834Y249508D01*
X152359Y251094D01*
X152727Y250927D01*
X153070Y250739D01*
X153391Y250529D01*
X153688Y250297D01*
X153963Y250043D01*
X154213Y249767D01*
X154441Y249469D01*
X154645Y249149D01*
X154826Y248809D01*
X154983Y248448D01*
X155115Y248066D01*
X155223Y247665D01*
X155308Y247243D01*
X155368Y246801D01*
X155404Y246339D01*
X155416Y245856D01*
X155410Y245508D01*
X155390Y245170D01*
X155357Y244842D01*
X155312Y244523D01*
X155253Y244213D01*
X155181Y243913D01*
X155096Y243623D01*
X154998Y243342D01*
X154887Y243071D01*
X154763Y242810D01*
X154625Y242558D01*
X154475Y242315D01*
X154135Y241859D01*
X153743Y241442D01*
X153305Y241068D01*
X152827Y240744D01*
X152309Y240470D01*
X152035Y240352D01*
X151751Y240246D01*
X151457Y240153D01*
X151153Y240072D01*
X150839Y240003D01*
X150515Y239947D01*
X150181Y239904D01*
X149837Y239873D01*
X149483Y239854D01*
X149119Y239848D01*
G37*
G36*
X144004Y252808D02*
X142891Y252808D01*
X142891Y260979D01*
X144231Y260979D01*
X144231Y254542D01*
X144541Y254694D01*
X144857Y254888D01*
X145178Y255123D01*
X145506Y255400D01*
X145847Y255724D01*
X146208Y256099D01*
X146589Y256525D01*
X146990Y257003D01*
X147686Y257844D01*
X148284Y258538D01*
X148785Y259084D01*
X149189Y259482D01*
X149543Y259786D01*
X149898Y260050D01*
X150253Y260274D01*
X150608Y260458D01*
X150963Y260602D01*
X151319Y260705D01*
X151677Y260766D01*
X152035Y260787D01*
X152429Y260771D01*
X152799Y260724D01*
X153146Y260646D01*
X153471Y260536D01*
X153772Y260395D01*
X154049Y260223D01*
X154304Y260019D01*
X154536Y259784D01*
X154742Y259520D01*
X154921Y259229D01*
X155072Y258910D01*
X155196Y258565D01*
X155292Y258193D01*
X155361Y257794D01*
X155402Y257368D01*
X155416Y256916D01*
X155402Y256500D01*
X155361Y256105D01*
X155293Y255728D01*
X155197Y255371D01*
X155074Y255033D01*
X154923Y254714D01*
X154746Y254415D01*
X154540Y254135D01*
X154312Y253878D01*
X154065Y253650D01*
X153798Y253451D01*
X153513Y253280D01*
X153209Y253137D01*
X152887Y253022D01*
X152545Y252936D01*
X152184Y252878D01*
X152035Y254489D01*
X152276Y254526D01*
X152503Y254580D01*
X152715Y254651D01*
X152914Y254738D01*
X153100Y254842D01*
X153271Y254963D01*
X153429Y255101D01*
X153572Y255256D01*
X153701Y255424D01*
X153812Y255604D01*
X153906Y255795D01*
X153983Y255997D01*
X154043Y256210D01*
X154086Y256434D01*
X154111Y256669D01*
X154120Y256916D01*
X154111Y257173D01*
X154085Y257416D01*
X154041Y257645D01*
X153980Y257859D01*
X153901Y258059D01*
X153805Y258244D01*
X153691Y258415D01*
X153559Y258571D01*
X153412Y258710D01*
X153251Y258831D01*
X153075Y258934D01*
X152885Y259018D01*
X152681Y259083D01*
X152462Y259129D01*
X152230Y259157D01*
X151983Y259166D01*
X151616Y259145D01*
X151269Y259080D01*
X150942Y258972D01*
X150634Y258820D01*
X150339Y258634D01*
X150051Y258421D01*
X149770Y258181D01*
X149495Y257914D01*
X148952Y257320D01*
X148409Y256657D01*
X147843Y255958D01*
X147231Y255251D01*
X146904Y254901D01*
X146559Y254558D01*
X146195Y254224D01*
X145812Y253898D01*
X145405Y253589D01*
X144968Y253304D01*
X144501Y253043D01*
X144004Y252808D01*
G37*
G36*
X144231Y225366D02*
X142891Y225366D01*
X142891Y233100D01*
X144231Y233100D01*
X144231Y230095D01*
X155232Y230095D01*
X155232Y228641D01*
X153226Y225725D01*
X151738Y225725D01*
X153726Y228510D01*
X144231Y228510D01*
X144231Y225366D01*
G37*
G36*
X155232Y172811D02*
X142891Y172811D01*
X142891Y174484D01*
X155232Y174484D01*
X155232Y172811D01*
G37*
G36*
X140465Y188822D02*
X139327Y188822D01*
X139327Y199271D01*
X140465Y199271D01*
X140465Y188822D01*
G37*
G36*
X144704Y235606D02*
X142891Y235606D01*
X142891Y237314D01*
X144704Y237314D01*
X144704Y235606D01*
G37*
G36*
X152368Y235606D02*
X150555Y235606D01*
X150555Y237314D01*
X152368Y237314D01*
X152368Y235606D01*
G37*
G36*
X59278Y114580D02*
X54662Y114580D01*
X54222Y114592D01*
X53795Y114628D01*
X53381Y114687D01*
X52981Y114770D01*
X52593Y114878D01*
X52219Y115009D01*
X51857Y115163D01*
X51509Y115342D01*
X51177Y115543D01*
X50865Y115765D01*
X50572Y116008D01*
X50298Y116271D01*
X50044Y116556D01*
X49809Y116862D01*
X49594Y117188D01*
X49398Y117536D01*
X49224Y117901D01*
X49073Y118282D01*
X48945Y118677D01*
X48840Y119087D01*
X48759Y119512D01*
X48700Y119952D01*
X48665Y120407D01*
X48654Y120877D01*
X48661Y121235D01*
X48680Y121581D01*
X48714Y121918D01*
X48760Y122244D01*
X48820Y122560D01*
X48893Y122865D01*
X48980Y123160D01*
X49080Y123445D01*
X49193Y123719D01*
X49319Y123983D01*
X49459Y124236D01*
X49612Y124480D01*
X49778Y124712D01*
X49958Y124935D01*
X50151Y125147D01*
X50357Y125349D01*
X50576Y125539D01*
X50806Y125717D01*
X51047Y125883D01*
X51299Y126036D01*
X51562Y126178D01*
X51836Y126307D01*
X52122Y126423D01*
X52419Y126528D01*
X52727Y126620D01*
X53046Y126700D01*
X53377Y126767D01*
X53718Y126822D01*
X54071Y126865D01*
X54435Y126896D01*
X54810Y126915D01*
X55196Y126921D01*
X59278Y126921D01*
X59278Y114580D01*
G37*
%LPC*%
G36*
X57605Y115920D02*
X57605Y125581D01*
X55232Y125581D01*
X54654Y125562D01*
X54111Y125505D01*
X53603Y125411D01*
X53131Y125280D01*
X52693Y125110D01*
X52291Y124903D01*
X51924Y124659D01*
X51592Y124376D01*
X51298Y124058D01*
X51042Y123706D01*
X50826Y123320D01*
X50650Y122899D01*
X50512Y122445D01*
X50414Y121957D01*
X50355Y121434D01*
X50335Y120877D01*
X50344Y120503D01*
X50370Y120141D01*
X50413Y119791D01*
X50473Y119454D01*
X50551Y119130D01*
X50646Y118818D01*
X50758Y118519D01*
X50887Y118232D01*
X51033Y117960D01*
X51193Y117705D01*
X51368Y117465D01*
X51558Y117243D01*
X51763Y117036D01*
X51983Y116846D01*
X52218Y116673D01*
X52468Y116516D01*
X52731Y116376D01*
X53003Y116255D01*
X53286Y116153D01*
X53579Y116069D01*
X53883Y116004D01*
X54197Y115957D01*
X54521Y115929D01*
X54855Y115920D01*
X57605Y115920D01*
G37*
%LPD*%
G36*
X85461Y114580D02*
X83534Y114580D01*
X85546Y117633D01*
X87037Y119896D01*
X86694Y119968D01*
X86370Y120062D01*
X86065Y120178D01*
X85779Y120315D01*
X85623Y120407D01*
X85512Y120473D01*
X85264Y120653D01*
X85036Y120855D01*
X84826Y121079D01*
X84638Y121320D01*
X84475Y121575D01*
X84337Y121843D01*
X84225Y122125D01*
X84137Y122421D01*
X84074Y122731D01*
X84037Y123054D01*
X84024Y123391D01*
X84042Y123796D01*
X84095Y124177D01*
X84184Y124536D01*
X84308Y124872D01*
X84467Y125186D01*
X84662Y125476D01*
X84893Y125743D01*
X85159Y125988D01*
X85457Y126207D01*
X85785Y126396D01*
X86143Y126556D01*
X86530Y126688D01*
X86948Y126790D01*
X87394Y126862D01*
X87871Y126906D01*
X88377Y126921D01*
X94184Y126921D01*
X94184Y114580D01*
X92511Y114580D01*
X92511Y119704D01*
X88666Y119704D01*
X85461Y114580D01*
G37*
%LPC*%
G36*
X92511Y121026D02*
X92511Y125581D01*
X88544Y125581D01*
X88210Y125572D01*
X87896Y125545D01*
X87603Y125501D01*
X87330Y125439D01*
X87076Y125360D01*
X86843Y125263D01*
X86630Y125148D01*
X86437Y125016D01*
X86266Y124867D01*
X86117Y124701D01*
X85992Y124520D01*
X85889Y124323D01*
X85809Y124109D01*
X85752Y123880D01*
X85717Y123635D01*
X85706Y123374D01*
X85717Y123103D01*
X85751Y122848D01*
X85808Y122609D01*
X85887Y122385D01*
X85988Y122176D01*
X86112Y121983D01*
X86259Y121806D01*
X86429Y121644D01*
X86619Y121499D01*
X86827Y121374D01*
X87055Y121267D01*
X87301Y121181D01*
X87566Y121113D01*
X87850Y121065D01*
X88152Y121036D01*
X88474Y121026D01*
X92511Y121026D01*
G37*
%LPD*%
G36*
X71247Y114580D02*
X69574Y114580D01*
X69574Y119388D01*
X65948Y119388D01*
X65470Y119405D01*
X65018Y119453D01*
X64592Y119534D01*
X64191Y119647D01*
X63815Y119792D01*
X63466Y119970D01*
X63141Y120180D01*
X62843Y120422D01*
X62575Y120691D01*
X62343Y120984D01*
X62146Y121298D01*
X61986Y121635D01*
X61861Y121994D01*
X61771Y122376D01*
X61718Y122780D01*
X61700Y123207D01*
X61718Y123637D01*
X61771Y124042D01*
X61860Y124422D01*
X61985Y124777D01*
X62145Y125107D01*
X62340Y125413D01*
X62572Y125693D01*
X62839Y125949D01*
X63138Y126176D01*
X63466Y126374D01*
X63824Y126541D01*
X64211Y126678D01*
X64628Y126784D01*
X65074Y126860D01*
X65549Y126906D01*
X66053Y126921D01*
X71247Y126921D01*
X71247Y114580D01*
G37*
%LPC*%
G36*
X69574Y120711D02*
X69574Y125581D01*
X66254Y125581D01*
X65906Y125571D01*
X65581Y125543D01*
X65278Y125497D01*
X64997Y125431D01*
X64739Y125347D01*
X64504Y125244D01*
X64291Y125123D01*
X64100Y124983D01*
X63931Y124824D01*
X63786Y124647D01*
X63662Y124451D01*
X63561Y124236D01*
X63483Y124002D01*
X63426Y123750D01*
X63393Y123479D01*
X63382Y123190D01*
X63392Y122889D01*
X63425Y122609D01*
X63480Y122347D01*
X63557Y122105D01*
X63655Y121882D01*
X63776Y121679D01*
X63918Y121495D01*
X64082Y121331D01*
X64268Y121185D01*
X64476Y121059D01*
X64706Y120953D01*
X64958Y120866D01*
X65232Y120798D01*
X65527Y120750D01*
X65845Y120721D01*
X66184Y120711D01*
X69574Y120711D01*
G37*
%LPD*%
G36*
X25915Y114405D02*
X25467Y114418D01*
X25032Y114457D01*
X24611Y114522D01*
X24204Y114613D01*
X23811Y114730D01*
X23431Y114873D01*
X23066Y115042D01*
X22714Y115237D01*
X22379Y115457D01*
X22063Y115700D01*
X21766Y115968D01*
X21489Y116259D01*
X21231Y116575D01*
X20992Y116914D01*
X20773Y117276D01*
X20572Y117663D01*
X21939Y118346D01*
X22107Y118035D01*
X22285Y117745D01*
X22473Y117474D01*
X22672Y117223D01*
X22880Y116993D01*
X23099Y116782D01*
X23327Y116592D01*
X23566Y116421D01*
X23814Y116271D01*
X24073Y116141D01*
X24342Y116030D01*
X24621Y115940D01*
X24909Y115870D01*
X25208Y115820D01*
X25517Y115790D01*
X25836Y115780D01*
X26329Y115801D01*
X26796Y115866D01*
X27236Y115974D01*
X27650Y116125D01*
X28039Y116319D01*
X28401Y116556D01*
X28737Y116836D01*
X29046Y117159D01*
X29324Y117518D01*
X29566Y117905D01*
X29770Y118319D01*
X29936Y118761D01*
X30066Y119231D01*
X30159Y119729D01*
X30215Y120254D01*
X30233Y120807D01*
X30215Y121366D01*
X30162Y121894D01*
X30073Y122391D01*
X29948Y122858D01*
X29788Y123294D01*
X29593Y123700D01*
X29361Y124075D01*
X29094Y124420D01*
X28796Y124729D01*
X28468Y124997D01*
X28112Y125223D01*
X27728Y125409D01*
X27315Y125553D01*
X26874Y125656D01*
X26405Y125718D01*
X25906Y125738D01*
X25586Y125729D01*
X25276Y125703D01*
X24978Y125658D01*
X24690Y125596D01*
X24414Y125516D01*
X24148Y125418D01*
X23894Y125302D01*
X23651Y125169D01*
X23422Y125019D01*
X23208Y124853D01*
X23012Y124671D01*
X22831Y124473D01*
X22667Y124259D01*
X22519Y124029D01*
X22387Y123784D01*
X22272Y123522D01*
X20686Y124048D01*
X20853Y124415D01*
X21041Y124759D01*
X21251Y125080D01*
X21483Y125377D01*
X21737Y125651D01*
X22013Y125902D01*
X22311Y126130D01*
X22631Y126334D01*
X22971Y126515D01*
X23332Y126671D01*
X23714Y126804D01*
X24115Y126912D01*
X24537Y126996D01*
X24979Y127056D01*
X25441Y127093D01*
X25924Y127105D01*
X26272Y127098D01*
X26610Y127079D01*
X26938Y127046D01*
X27257Y127000D01*
X27567Y126941D01*
X27867Y126869D01*
X28157Y126784D01*
X28438Y126686D01*
X28709Y126575D01*
X28970Y126451D01*
X29222Y126314D01*
X29465Y126164D01*
X29921Y125824D01*
X30338Y125432D01*
X30712Y124994D01*
X31036Y124515D01*
X31310Y123997D01*
X31428Y123723D01*
X31534Y123439D01*
X31627Y123145D01*
X31708Y122841D01*
X31777Y122527D01*
X31833Y122203D01*
X31876Y121869D01*
X31907Y121525D01*
X31926Y121171D01*
X31932Y120807D01*
X31921Y120323D01*
X31888Y119855D01*
X31832Y119404D01*
X31754Y118969D01*
X31653Y118551D01*
X31531Y118149D01*
X31386Y117764D01*
X31218Y117396D01*
X31030Y117046D01*
X30821Y116717D01*
X30592Y116409D01*
X30343Y116121D01*
X30073Y115855D01*
X29783Y115609D01*
X29473Y115384D01*
X29143Y115180D01*
X28794Y114998D01*
X28430Y114841D01*
X28050Y114708D01*
X27655Y114599D01*
X27244Y114514D01*
X26816Y114453D01*
X26374Y114417D01*
X25915Y114405D01*
G37*
G36*
X14873Y114405D02*
X14384Y114419D01*
X13924Y114463D01*
X13493Y114537D01*
X13091Y114639D01*
X12718Y114771D01*
X12374Y114932D01*
X12059Y115122D01*
X11773Y115342D01*
X11518Y115588D01*
X11298Y115859D01*
X11111Y116153D01*
X10958Y116472D01*
X10839Y116814D01*
X10755Y117181D01*
X10704Y117572D01*
X10687Y117987D01*
X10699Y118276D01*
X10735Y118553D01*
X10795Y118817D01*
X10879Y119069D01*
X10988Y119308D01*
X11120Y119534D01*
X11277Y119748D01*
X11457Y119949D01*
X11660Y120134D01*
X11881Y120299D01*
X12122Y120445D01*
X12381Y120571D01*
X12660Y120677D01*
X12958Y120763D01*
X13276Y120830D01*
X13612Y120877D01*
X13612Y120912D01*
X13306Y120986D01*
X13019Y121074D01*
X12750Y121177D01*
X12501Y121294D01*
X12270Y121427D01*
X12058Y121575D01*
X11864Y121738D01*
X11690Y121915D01*
X11535Y122107D01*
X11400Y122313D01*
X11287Y122532D01*
X11194Y122766D01*
X11121Y123013D01*
X11070Y123274D01*
X11039Y123549D01*
X11028Y123838D01*
X11044Y124212D01*
X11093Y124566D01*
X11173Y124898D01*
X11286Y125210D01*
X11430Y125499D01*
X11607Y125768D01*
X11816Y126016D01*
X12057Y126242D01*
X12328Y126444D01*
X12624Y126619D01*
X12946Y126768D01*
X13293Y126889D01*
X13667Y126983D01*
X14067Y127051D01*
X14492Y127091D01*
X14943Y127105D01*
X15358Y127091D01*
X15754Y127052D01*
X16131Y126985D01*
X16488Y126892D01*
X16826Y126773D01*
X17145Y126627D01*
X17444Y126454D01*
X17724Y126255D01*
X17980Y126032D01*
X18208Y125789D01*
X18408Y125524D01*
X18579Y125239D01*
X18722Y124933D01*
X18837Y124606D01*
X18923Y124259D01*
X18981Y123890D01*
X17396Y123768D01*
X17361Y124004D01*
X17310Y124226D01*
X17241Y124435D01*
X17156Y124630D01*
X17054Y124812D01*
X16935Y124980D01*
X16799Y125134D01*
X16647Y125274D01*
X16480Y125399D01*
X16300Y125508D01*
X16108Y125600D01*
X15904Y125675D01*
X15687Y125733D01*
X15457Y125775D01*
X15215Y125800D01*
X14961Y125808D01*
X14683Y125799D01*
X14422Y125773D01*
X14180Y125728D01*
X13955Y125665D01*
X13747Y125584D01*
X13558Y125486D01*
X13385Y125369D01*
X13231Y125235D01*
X13095Y125085D01*
X12976Y124922D01*
X12876Y124746D01*
X12794Y124557D01*
X12731Y124355D01*
X12685Y124140D01*
X12658Y123912D01*
X12649Y123671D01*
X12660Y123428D01*
X12693Y123199D01*
X12749Y122983D01*
X12827Y122781D01*
X12927Y122593D01*
X13050Y122417D01*
X13195Y122256D01*
X13362Y122108D01*
X13550Y121976D01*
X13756Y121861D01*
X13980Y121764D01*
X14222Y121684D01*
X14482Y121622D01*
X14761Y121578D01*
X15058Y121552D01*
X15373Y121543D01*
X16231Y121543D01*
X16231Y120177D01*
X15337Y120177D01*
X14983Y120168D01*
X14649Y120141D01*
X14337Y120097D01*
X14047Y120035D01*
X13778Y119956D01*
X13530Y119859D01*
X13304Y119744D01*
X13100Y119612D01*
X12918Y119464D01*
X12761Y119302D01*
X12627Y119126D01*
X12518Y118936D01*
X12434Y118733D01*
X12373Y118516D01*
X12337Y118284D01*
X12325Y118040D01*
X12335Y117759D01*
X12367Y117497D01*
X12420Y117253D01*
X12494Y117026D01*
X12590Y116817D01*
X12706Y116626D01*
X12844Y116452D01*
X13003Y116297D01*
X13181Y116159D01*
X13375Y116040D01*
X13584Y115939D01*
X13810Y115856D01*
X14052Y115792D01*
X14310Y115746D01*
X14583Y115719D01*
X14873Y115710D01*
X15162Y115718D01*
X15435Y115744D01*
X15691Y115787D01*
X15931Y115847D01*
X16156Y115924D01*
X16364Y116018D01*
X16556Y116129D01*
X16732Y116257D01*
X16892Y116403D01*
X17036Y116565D01*
X17164Y116745D01*
X17276Y116941D01*
X17372Y117155D01*
X17451Y117386D01*
X17515Y117634D01*
X17562Y117899D01*
X19191Y117751D01*
X19125Y117349D01*
X19029Y116973D01*
X18906Y116623D01*
X18754Y116298D01*
X18574Y115998D01*
X18366Y115723D01*
X18129Y115474D01*
X17864Y115250D01*
X17573Y115052D01*
X17259Y114880D01*
X16920Y114735D01*
X16558Y114616D01*
X16172Y114524D01*
X15763Y114458D01*
X15330Y114418D01*
X14873Y114405D01*
G37*
G36*
X46414Y114580D02*
X38681Y114580D01*
X38681Y115920D01*
X41685Y115920D01*
X41685Y126921D01*
X43139Y126921D01*
X46055Y124915D01*
X46055Y123426D01*
X43270Y125414D01*
X43270Y115920D01*
X46414Y115920D01*
X46414Y114580D01*
G37*
G36*
X98969Y114580D02*
X97296Y114580D01*
X97296Y126921D01*
X98969Y126921D01*
X98969Y114580D01*
G37*
G36*
X82958Y111015D02*
X72509Y111015D01*
X72509Y112154D01*
X82958Y112154D01*
X82958Y111015D01*
G37*
G36*
X36174Y114580D02*
X34466Y114580D01*
X34466Y116393D01*
X36174Y116393D01*
X36174Y114580D01*
G37*
G36*
X36174Y122244D02*
X34466Y122244D01*
X34466Y124057D01*
X36174Y124057D01*
X36174Y122244D01*
G37*
G36*
X27828Y253182D02*
X15487Y253182D01*
X15487Y257798D01*
X15499Y258238D01*
X15535Y258665D01*
X15594Y259079D01*
X15678Y259479D01*
X15785Y259867D01*
X15916Y260241D01*
X16071Y260603D01*
X16249Y260951D01*
X16450Y261283D01*
X16672Y261595D01*
X16915Y261888D01*
X17179Y262162D01*
X17463Y262416D01*
X17769Y262651D01*
X18096Y262866D01*
X18443Y263062D01*
X18809Y263236D01*
X19189Y263387D01*
X19584Y263515D01*
X19995Y263620D01*
X20420Y263701D01*
X20860Y263760D01*
X21315Y263795D01*
X21785Y263806D01*
X22142Y263800D01*
X22489Y263780D01*
X22825Y263746D01*
X23151Y263700D01*
X23467Y263640D01*
X23772Y263567D01*
X24067Y263480D01*
X24352Y263380D01*
X24626Y263267D01*
X24890Y263141D01*
X25144Y263001D01*
X25387Y262848D01*
X25620Y262682D01*
X25842Y262502D01*
X26054Y262309D01*
X26256Y262103D01*
X26446Y261884D01*
X26624Y261654D01*
X26790Y261413D01*
X26944Y261161D01*
X27085Y260898D01*
X27214Y260624D01*
X27331Y260338D01*
X27435Y260041D01*
X27527Y259733D01*
X27607Y259414D01*
X27674Y259083D01*
X27730Y258742D01*
X27773Y258389D01*
X27803Y258025D01*
X27822Y257650D01*
X27828Y257264D01*
X27828Y253182D01*
G37*
%LPC*%
G36*
X26488Y254855D02*
X26488Y257229D01*
X26469Y257807D01*
X26413Y258349D01*
X26319Y258857D01*
X26187Y259329D01*
X26017Y259767D01*
X25811Y260169D01*
X25566Y260536D01*
X25284Y260868D01*
X24966Y261162D01*
X24613Y261418D01*
X24227Y261634D01*
X23807Y261810D01*
X23352Y261948D01*
X22864Y262046D01*
X22341Y262105D01*
X21785Y262125D01*
X21410Y262116D01*
X21048Y262090D01*
X20698Y262047D01*
X20361Y261987D01*
X20037Y261909D01*
X19725Y261814D01*
X19426Y261702D01*
X19140Y261573D01*
X18867Y261427D01*
X18612Y261267D01*
X18373Y261092D01*
X18150Y260902D01*
X17943Y260697D01*
X17753Y260477D01*
X17580Y260242D01*
X17423Y259992D01*
X17283Y259729D01*
X17162Y259457D01*
X17060Y259174D01*
X16976Y258881D01*
X16911Y258577D01*
X16864Y258263D01*
X16837Y257939D01*
X16827Y257605D01*
X16827Y254855D01*
X26488Y254855D01*
G37*
%LPD*%
G36*
X27828Y218276D02*
X15487Y218276D01*
X15487Y219949D01*
X20611Y219949D01*
X20611Y223794D01*
X15487Y226999D01*
X15487Y228926D01*
X18540Y226914D01*
X20804Y225423D01*
X20876Y225766D01*
X20969Y226090D01*
X21085Y226395D01*
X21222Y226681D01*
X21315Y226837D01*
X21380Y226948D01*
X21561Y227196D01*
X21763Y227424D01*
X21986Y227634D01*
X22227Y227822D01*
X22482Y227985D01*
X22750Y228123D01*
X23033Y228235D01*
X23329Y228323D01*
X23638Y228386D01*
X23961Y228423D01*
X24298Y228436D01*
X24703Y228418D01*
X25085Y228365D01*
X25444Y228276D01*
X25780Y228152D01*
X26093Y227993D01*
X26383Y227798D01*
X26651Y227567D01*
X26895Y227301D01*
X27114Y227003D01*
X27303Y226675D01*
X27464Y226317D01*
X27595Y225930D01*
X27697Y225512D01*
X27770Y225066D01*
X27813Y224589D01*
X27828Y224083D01*
X27828Y218276D01*
G37*
%LPC*%
G36*
X26488Y219949D02*
X26488Y223916D01*
X26479Y224250D01*
X26453Y224564D01*
X26408Y224857D01*
X26347Y225130D01*
X26267Y225384D01*
X26170Y225617D01*
X26055Y225830D01*
X25923Y226023D01*
X25774Y226194D01*
X25609Y226343D01*
X25427Y226468D01*
X25230Y226571D01*
X25017Y226651D01*
X24787Y226708D01*
X24542Y226743D01*
X24281Y226754D01*
X24010Y226743D01*
X23756Y226709D01*
X23516Y226652D01*
X23292Y226573D01*
X23084Y226472D01*
X22891Y226348D01*
X22713Y226201D01*
X22551Y226032D01*
X22406Y225841D01*
X22281Y225633D01*
X22175Y225405D01*
X22088Y225159D01*
X22020Y224894D01*
X21972Y224610D01*
X21943Y224308D01*
X21933Y223986D01*
X21933Y219949D01*
X26488Y219949D01*
G37*
%LPD*%
G36*
X27828Y241213D02*
X15487Y241213D01*
X15487Y242886D01*
X20296Y242886D01*
X20296Y246512D01*
X20312Y246990D01*
X20360Y247442D01*
X20441Y247869D01*
X20554Y248269D01*
X20699Y248645D01*
X20877Y248994D01*
X21087Y249319D01*
X21329Y249617D01*
X21599Y249885D01*
X21891Y250117D01*
X22205Y250314D01*
X22542Y250474D01*
X22902Y250599D01*
X23283Y250689D01*
X23688Y250742D01*
X24114Y250760D01*
X24544Y250742D01*
X24949Y250689D01*
X25329Y250600D01*
X25684Y250475D01*
X26015Y250315D01*
X26320Y250120D01*
X26600Y249888D01*
X26856Y249622D01*
X27084Y249322D01*
X27281Y248994D01*
X27448Y248636D01*
X27585Y248249D01*
X27691Y247832D01*
X27767Y247386D01*
X27813Y246911D01*
X27828Y246407D01*
X27828Y241213D01*
G37*
%LPC*%
G36*
X26488Y242886D02*
X26488Y246206D01*
X26479Y246554D01*
X26451Y246879D01*
X26404Y247182D01*
X26338Y247463D01*
X26254Y247721D01*
X26152Y247956D01*
X26030Y248170D01*
X25890Y248360D01*
X25731Y248529D01*
X25554Y248674D01*
X25358Y248798D01*
X25143Y248899D01*
X24909Y248977D01*
X24657Y249034D01*
X24386Y249067D01*
X24097Y249078D01*
X23797Y249068D01*
X23516Y249035D01*
X23254Y248980D01*
X23012Y248903D01*
X22790Y248805D01*
X22586Y248684D01*
X22402Y248542D01*
X22238Y248378D01*
X22093Y248192D01*
X21967Y247984D01*
X21860Y247754D01*
X21773Y247502D01*
X21705Y247228D01*
X21657Y246933D01*
X21628Y246615D01*
X21618Y246276D01*
X21618Y242886D01*
X26488Y242886D01*
G37*
%LPD*%
G36*
X21715Y280528D02*
X21230Y280539D01*
X20762Y280572D01*
X20311Y280628D01*
X19876Y280706D01*
X19458Y280807D01*
X19057Y280929D01*
X18672Y281074D01*
X18303Y281242D01*
X17953Y281430D01*
X17624Y281639D01*
X17316Y281868D01*
X17029Y282117D01*
X16762Y282387D01*
X16516Y282677D01*
X16291Y282987D01*
X16087Y283317D01*
X15905Y283666D01*
X15748Y284030D01*
X15615Y284410D01*
X15506Y284805D01*
X15421Y285217D01*
X15360Y285644D01*
X15324Y286086D01*
X15312Y286545D01*
X15325Y286993D01*
X15364Y287428D01*
X15429Y287849D01*
X15520Y288256D01*
X15637Y288649D01*
X15780Y289029D01*
X15949Y289394D01*
X16144Y289746D01*
X16364Y290081D01*
X16608Y290397D01*
X16875Y290694D01*
X17167Y290971D01*
X17482Y291229D01*
X17821Y291468D01*
X18184Y291687D01*
X18570Y291888D01*
X19253Y290521D01*
X18943Y290353D01*
X18652Y290175D01*
X18381Y289987D01*
X18131Y289788D01*
X17900Y289580D01*
X17690Y289361D01*
X17499Y289133D01*
X17329Y288894D01*
X17178Y288646D01*
X17048Y288387D01*
X16938Y288118D01*
X16847Y287840D01*
X16777Y287551D01*
X16727Y287252D01*
X16697Y286943D01*
X16687Y286624D01*
X16709Y286131D01*
X16773Y285664D01*
X16881Y285224D01*
X17032Y284810D01*
X17226Y284421D01*
X17463Y284059D01*
X17743Y283723D01*
X18067Y283414D01*
X18425Y283136D01*
X18812Y282894D01*
X19226Y282691D01*
X19668Y282524D01*
X20138Y282394D01*
X20636Y282301D01*
X21161Y282245D01*
X21715Y282227D01*
X22273Y282245D01*
X22801Y282298D01*
X23298Y282387D01*
X23765Y282512D01*
X24201Y282672D01*
X24607Y282867D01*
X24983Y283099D01*
X25327Y283366D01*
X25636Y283664D01*
X25904Y283992D01*
X26131Y284348D01*
X26316Y284732D01*
X26460Y285145D01*
X26563Y285586D01*
X26625Y286056D01*
X26646Y286554D01*
X26637Y286874D01*
X26610Y287184D01*
X26566Y287483D01*
X26503Y287770D01*
X26423Y288046D01*
X26325Y288312D01*
X26210Y288566D01*
X26076Y288809D01*
X25926Y289038D01*
X25760Y289252D01*
X25578Y289448D01*
X25380Y289629D01*
X25166Y289793D01*
X24937Y289941D01*
X24691Y290073D01*
X24430Y290188D01*
X24955Y291774D01*
X25322Y291607D01*
X25666Y291419D01*
X25987Y291209D01*
X26284Y290977D01*
X26558Y290723D01*
X26809Y290447D01*
X27037Y290149D01*
X27241Y289829D01*
X27422Y289489D01*
X27578Y289128D01*
X27711Y288746D01*
X27819Y288345D01*
X27904Y287923D01*
X27964Y287481D01*
X28000Y287019D01*
X28012Y286536D01*
X28005Y286188D01*
X27986Y285850D01*
X27953Y285522D01*
X27907Y285203D01*
X27849Y284893D01*
X27777Y284593D01*
X27692Y284303D01*
X27594Y284022D01*
X27483Y283751D01*
X27358Y283490D01*
X27221Y283238D01*
X27071Y282995D01*
X26731Y282539D01*
X26339Y282122D01*
X25901Y281748D01*
X25423Y281424D01*
X24905Y281150D01*
X24630Y281032D01*
X24346Y280926D01*
X24052Y280833D01*
X23748Y280752D01*
X23434Y280683D01*
X23110Y280627D01*
X22776Y280584D01*
X22432Y280553D01*
X22078Y280534D01*
X21715Y280528D01*
G37*
G36*
X18246Y293304D02*
X17900Y293386D01*
X17574Y293493D01*
X17270Y293624D01*
X16987Y293779D01*
X16725Y293959D01*
X16484Y294163D01*
X16264Y294391D01*
X16065Y294644D01*
X15889Y294919D01*
X15736Y295215D01*
X15606Y295532D01*
X15500Y295870D01*
X15418Y296229D01*
X15359Y296608D01*
X15324Y297008D01*
X15312Y297429D01*
X15330Y297930D01*
X15382Y298402D01*
X15470Y298847D01*
X15592Y299263D01*
X15750Y299651D01*
X15943Y300012D01*
X16170Y300344D01*
X16433Y300648D01*
X16726Y300920D01*
X17046Y301156D01*
X17391Y301355D01*
X17762Y301518D01*
X18160Y301645D01*
X18583Y301736D01*
X19032Y301790D01*
X19507Y301808D01*
X19926Y301791D01*
X20325Y301741D01*
X20704Y301656D01*
X21062Y301538D01*
X21400Y301386D01*
X21718Y301200D01*
X22015Y300980D01*
X22293Y300727D01*
X22543Y300445D01*
X22760Y300140D01*
X22944Y299811D01*
X23094Y299460D01*
X23211Y299085D01*
X23294Y298688D01*
X23344Y298267D01*
X23361Y297823D01*
X23349Y297450D01*
X23312Y297092D01*
X23250Y296750D01*
X23164Y296424D01*
X23053Y296113D01*
X22918Y295818D01*
X22758Y295538D01*
X22573Y295274D01*
X26488Y295511D01*
X26488Y301090D01*
X27828Y301090D01*
X27828Y294075D01*
X21189Y293663D01*
X21189Y295204D01*
X21412Y295480D01*
X21601Y295756D01*
X21754Y296032D01*
X21872Y296308D01*
X21960Y296589D01*
X22023Y296882D01*
X22061Y297185D01*
X22074Y297499D01*
X22062Y297798D01*
X22029Y298081D01*
X21973Y298348D01*
X21894Y298599D01*
X21793Y298835D01*
X21670Y299055D01*
X21524Y299259D01*
X21355Y299448D01*
X21169Y299617D01*
X20968Y299764D01*
X20754Y299888D01*
X20526Y299990D01*
X20283Y300069D01*
X20027Y300125D01*
X19757Y300159D01*
X19472Y300171D01*
X19146Y300159D01*
X18838Y300126D01*
X18548Y300070D01*
X18276Y299991D01*
X18021Y299890D01*
X17785Y299767D01*
X17566Y299621D01*
X17366Y299452D01*
X17186Y299264D01*
X17031Y299059D01*
X16899Y298836D01*
X16791Y298596D01*
X16707Y298339D01*
X16647Y298065D01*
X16611Y297773D01*
X16600Y297464D01*
X16607Y297212D01*
X16628Y296972D01*
X16664Y296744D01*
X16714Y296529D01*
X16778Y296325D01*
X16857Y296134D01*
X16950Y295956D01*
X17057Y295789D01*
X17179Y295635D01*
X17315Y295493D01*
X17465Y295363D01*
X17629Y295245D01*
X17808Y295140D01*
X18001Y295047D01*
X18208Y294966D01*
X18430Y294898D01*
X18246Y293304D01*
G37*
G36*
X16827Y266046D02*
X15487Y266046D01*
X15487Y273780D01*
X16827Y273780D01*
X16827Y270775D01*
X27828Y270775D01*
X27828Y269321D01*
X25822Y266405D01*
X24333Y266405D01*
X26322Y269190D01*
X16827Y269190D01*
X16827Y266046D01*
G37*
G36*
X27828Y213491D02*
X15487Y213491D01*
X15487Y215164D01*
X27828Y215164D01*
X27828Y213491D01*
G37*
G36*
X13061Y229502D02*
X11922Y229502D01*
X11922Y239951D01*
X13061Y239951D01*
X13061Y229502D01*
G37*
G36*
X17300Y276286D02*
X15487Y276286D01*
X15487Y277994D01*
X17300Y277994D01*
X17300Y276286D01*
G37*
G36*
X24964Y276286D02*
X23151Y276286D01*
X23151Y277994D01*
X24964Y277994D01*
X24964Y276286D01*
G37*
G36*
X158318Y89293D02*
X150428Y89293D01*
X150428Y92244D01*
X150435Y92526D01*
X150458Y92799D01*
X150496Y93063D01*
X150549Y93320D01*
X150618Y93567D01*
X150702Y93807D01*
X150801Y94038D01*
X150915Y94260D01*
X151043Y94473D01*
X151185Y94672D01*
X151340Y94860D01*
X151509Y95035D01*
X151691Y95197D01*
X151886Y95347D01*
X152095Y95485D01*
X152317Y95610D01*
X152551Y95722D01*
X152794Y95818D01*
X153047Y95900D01*
X153309Y95967D01*
X153581Y96019D01*
X153863Y96056D01*
X154153Y96079D01*
X154454Y96086D01*
X154904Y96069D01*
X155328Y96018D01*
X155725Y95933D01*
X156095Y95814D01*
X156439Y95661D01*
X156757Y95473D01*
X157048Y95252D01*
X157313Y94997D01*
X157548Y94710D01*
X157752Y94395D01*
X157925Y94051D01*
X158067Y93679D01*
X158177Y93278D01*
X158255Y92848D01*
X158302Y92390D01*
X158318Y91903D01*
X158318Y89293D01*
G37*
%LPC*%
G36*
X157461Y90363D02*
X157461Y91880D01*
X157449Y92250D01*
X157413Y92597D01*
X157353Y92922D01*
X157269Y93224D01*
X157160Y93503D01*
X157028Y93761D01*
X156872Y93995D01*
X156691Y94207D01*
X156488Y94396D01*
X156262Y94559D01*
X156016Y94697D01*
X155747Y94810D01*
X155456Y94898D01*
X155144Y94961D01*
X154810Y94998D01*
X154454Y95011D01*
X153983Y94989D01*
X153544Y94923D01*
X153137Y94812D01*
X152763Y94658D01*
X152425Y94463D01*
X152130Y94229D01*
X151876Y93957D01*
X151665Y93647D01*
X151498Y93305D01*
X151379Y92937D01*
X151308Y92542D01*
X151284Y92121D01*
X151284Y90363D01*
X157461Y90363D01*
G37*
%LPD*%
G36*
X158318Y70168D02*
X150428Y70168D01*
X150428Y71238D01*
X153703Y71238D01*
X153703Y73696D01*
X150428Y75746D01*
X150428Y76978D01*
X152380Y75691D01*
X153827Y74738D01*
X153873Y74957D01*
X153933Y75164D01*
X154006Y75359D01*
X154094Y75542D01*
X154153Y75642D01*
X154195Y75713D01*
X154311Y75871D01*
X154440Y76018D01*
X154583Y76152D01*
X154737Y76272D01*
X154900Y76376D01*
X155071Y76464D01*
X155252Y76536D01*
X155441Y76592D01*
X155639Y76632D01*
X155846Y76656D01*
X156061Y76664D01*
X156320Y76653D01*
X156564Y76619D01*
X156793Y76562D01*
X157008Y76483D01*
X157208Y76381D01*
X157394Y76256D01*
X157565Y76109D01*
X157721Y75939D01*
X157861Y75748D01*
X157982Y75538D01*
X158085Y75310D01*
X158169Y75062D01*
X158234Y74795D01*
X158281Y74510D01*
X158309Y74205D01*
X158318Y73881D01*
X158318Y70168D01*
G37*
%LPC*%
G36*
X157461Y71238D02*
X157461Y73775D01*
X157438Y74189D01*
X157371Y74551D01*
X157258Y74862D01*
X157185Y74998D01*
X157100Y75121D01*
X157004Y75231D01*
X156899Y75326D01*
X156783Y75406D01*
X156657Y75472D01*
X156520Y75523D01*
X156374Y75560D01*
X156217Y75582D01*
X156050Y75589D01*
X155877Y75582D01*
X155714Y75560D01*
X155561Y75524D01*
X155418Y75474D01*
X155284Y75409D01*
X155161Y75329D01*
X155048Y75235D01*
X154944Y75127D01*
X154851Y75006D01*
X154771Y74872D01*
X154703Y74727D01*
X154648Y74569D01*
X154605Y74400D01*
X154574Y74218D01*
X154555Y74025D01*
X154549Y73819D01*
X154549Y71238D01*
X157461Y71238D01*
G37*
%LPD*%
G36*
X158318Y81637D02*
X150428Y81637D01*
X150428Y82707D01*
X153502Y82707D01*
X153502Y85025D01*
X153512Y85330D01*
X153543Y85620D01*
X153595Y85892D01*
X153667Y86149D01*
X153760Y86388D01*
X153874Y86612D01*
X154008Y86819D01*
X154163Y87010D01*
X154335Y87182D01*
X154522Y87330D01*
X154723Y87456D01*
X154938Y87558D01*
X155168Y87638D01*
X155412Y87695D01*
X155671Y87730D01*
X155943Y87741D01*
X156218Y87730D01*
X156477Y87696D01*
X156720Y87639D01*
X156947Y87559D01*
X157158Y87457D01*
X157354Y87332D01*
X157533Y87184D01*
X157696Y87013D01*
X157842Y86822D01*
X157968Y86612D01*
X158075Y86383D01*
X158162Y86135D01*
X158230Y85869D01*
X158279Y85584D01*
X158308Y85280D01*
X158318Y84958D01*
X158318Y81637D01*
G37*
%LPC*%
G36*
X157461Y82707D02*
X157461Y84829D01*
X157455Y85051D01*
X157437Y85260D01*
X157407Y85453D01*
X157366Y85633D01*
X157312Y85798D01*
X157246Y85948D01*
X157168Y86085D01*
X157079Y86207D01*
X156977Y86314D01*
X156864Y86408D01*
X156738Y86486D01*
X156601Y86551D01*
X156452Y86601D01*
X156291Y86637D01*
X156117Y86659D01*
X155932Y86666D01*
X155740Y86659D01*
X155561Y86638D01*
X155394Y86603D01*
X155239Y86554D01*
X155097Y86491D01*
X154967Y86414D01*
X154849Y86323D01*
X154744Y86218D01*
X154651Y86099D01*
X154570Y85966D01*
X154502Y85819D01*
X154447Y85658D01*
X154403Y85483D01*
X154372Y85294D01*
X154354Y85091D01*
X154347Y84874D01*
X154347Y82707D01*
X157461Y82707D01*
G37*
%LPD*%
G36*
X158318Y67098D02*
X150428Y67098D01*
X150428Y68168D01*
X158318Y68168D01*
X158318Y67098D01*
G37*
G36*
X106195Y188970D02*
X103244Y188970D01*
X102963Y188978D01*
X102690Y189000D01*
X102425Y189039D01*
X102169Y189092D01*
X101921Y189160D01*
X101682Y189244D01*
X101451Y189343D01*
X101228Y189457D01*
X101016Y189586D01*
X100816Y189728D01*
X100629Y189883D01*
X100454Y190051D01*
X100292Y190234D01*
X100142Y190429D01*
X100004Y190638D01*
X99879Y190860D01*
X99767Y191094D01*
X99670Y191337D01*
X99589Y191590D01*
X99522Y191852D01*
X99470Y192124D01*
X99432Y192405D01*
X99410Y192696D01*
X99403Y192996D01*
X99420Y193447D01*
X99471Y193870D01*
X99556Y194267D01*
X99675Y194638D01*
X99828Y194982D01*
X100015Y195300D01*
X100237Y195591D01*
X100492Y195855D01*
X100779Y196091D01*
X101094Y196295D01*
X101438Y196468D01*
X101810Y196609D01*
X102211Y196719D01*
X102641Y196798D01*
X103099Y196845D01*
X103586Y196860D01*
X106195Y196860D01*
X106195Y188970D01*
G37*
%LPC*%
G36*
X105126Y189827D02*
X105126Y196004D01*
X103608Y196004D01*
X103239Y195992D01*
X102892Y195955D01*
X102567Y195895D01*
X102265Y195811D01*
X101985Y195703D01*
X101728Y195570D01*
X101494Y195414D01*
X101282Y195234D01*
X101093Y195030D01*
X100930Y194805D01*
X100792Y194558D01*
X100679Y194289D01*
X100591Y193999D01*
X100528Y193686D01*
X100490Y193352D01*
X100478Y192996D01*
X100500Y192525D01*
X100566Y192086D01*
X100676Y191680D01*
X100831Y191305D01*
X101026Y190968D01*
X101260Y190672D01*
X101532Y190419D01*
X101842Y190208D01*
X102184Y190041D01*
X102552Y189922D01*
X102947Y189851D01*
X103367Y189827D01*
X105126Y189827D01*
G37*
%LPD*%
G36*
X113852Y188970D02*
X112782Y188970D01*
X112782Y192044D01*
X110464Y192044D01*
X110158Y192055D01*
X109869Y192086D01*
X109597Y192137D01*
X109340Y192210D01*
X109100Y192303D01*
X108877Y192416D01*
X108669Y192550D01*
X108479Y192705D01*
X108307Y192878D01*
X108159Y193064D01*
X108033Y193265D01*
X107930Y193481D01*
X107851Y193711D01*
X107793Y193955D01*
X107759Y194213D01*
X107748Y194486D01*
X107759Y194761D01*
X107793Y195020D01*
X107850Y195263D01*
X107930Y195490D01*
X108032Y195701D01*
X108157Y195896D01*
X108305Y196075D01*
X108476Y196239D01*
X108667Y196384D01*
X108877Y196511D01*
X109106Y196618D01*
X109354Y196705D01*
X109620Y196773D01*
X109905Y196822D01*
X110209Y196851D01*
X110531Y196860D01*
X113852Y196860D01*
X113852Y188970D01*
G37*
%LPC*%
G36*
X112782Y192890D02*
X112782Y196004D01*
X110660Y196004D01*
X110437Y195998D01*
X110229Y195980D01*
X110036Y195950D01*
X109856Y195908D01*
X109691Y195854D01*
X109540Y195789D01*
X109404Y195711D01*
X109282Y195621D01*
X109175Y195520D01*
X109081Y195406D01*
X109002Y195281D01*
X108938Y195144D01*
X108888Y194994D01*
X108852Y194833D01*
X108830Y194660D01*
X108823Y194475D01*
X108830Y194283D01*
X108851Y194103D01*
X108886Y193936D01*
X108935Y193781D01*
X108998Y193639D01*
X109075Y193509D01*
X109166Y193391D01*
X109271Y193286D01*
X109390Y193193D01*
X109523Y193113D01*
X109670Y193045D01*
X109831Y192989D01*
X110006Y192946D01*
X110195Y192915D01*
X110398Y192896D01*
X110615Y192890D01*
X112782Y192890D01*
G37*
%LPD*%
G36*
X129824Y188858D02*
X129337Y188881D01*
X128882Y188950D01*
X128462Y189064D01*
X128074Y189225D01*
X127724Y189429D01*
X127416Y189673D01*
X127150Y189959D01*
X126926Y190286D01*
X126748Y190650D01*
X126621Y191046D01*
X126577Y191257D01*
X126545Y191476D01*
X126526Y191703D01*
X126520Y191938D01*
X126520Y196860D01*
X127584Y196860D01*
X127584Y192000D01*
X127593Y191729D01*
X127621Y191476D01*
X127667Y191239D01*
X127732Y191019D01*
X127815Y190815D01*
X127916Y190629D01*
X128036Y190459D01*
X128175Y190306D01*
X128330Y190170D01*
X128500Y190052D01*
X128684Y189952D01*
X128884Y189871D01*
X129098Y189808D01*
X129327Y189762D01*
X129571Y189735D01*
X129830Y189726D01*
X130081Y189735D01*
X130317Y189761D01*
X130538Y189805D01*
X130744Y189866D01*
X130934Y189945D01*
X131109Y190041D01*
X131270Y190155D01*
X131414Y190286D01*
X131543Y190434D01*
X131654Y190599D01*
X131749Y190779D01*
X131826Y190976D01*
X131886Y191189D01*
X131929Y191419D01*
X131955Y191665D01*
X131963Y191927D01*
X131963Y196860D01*
X133033Y196860D01*
X133033Y191837D01*
X133027Y191609D01*
X133008Y191388D01*
X132977Y191176D01*
X132933Y190972D01*
X132809Y190588D01*
X132635Y190236D01*
X132416Y189920D01*
X132156Y189643D01*
X131856Y189407D01*
X131515Y189211D01*
X131139Y189056D01*
X130731Y188946D01*
X130293Y188880D01*
X129824Y188858D01*
G37*
G36*
X122366Y188970D02*
X121257Y188970D01*
X118037Y196860D01*
X119163Y196860D01*
X121335Y191305D01*
X121806Y189911D01*
X122276Y191305D01*
X124460Y196860D01*
X125586Y196860D01*
X122366Y188970D01*
G37*
D10*
X81730Y76440D02*
X81730Y115440D01*
X106230Y115440D01*
X106230Y76440D01*
D11*
X182048Y102580D02*
X182050Y102616D01*
X182056Y102651D01*
X182065Y102686D01*
X182079Y102719D01*
X182096Y102751D01*
X182116Y102781D01*
X182139Y102808D01*
X182165Y102833D01*
X182194Y102855D01*
X182224Y102873D01*
X182257Y102888D01*
X182291Y102900D01*
X182326Y102908D01*
X182362Y102912D01*
X182398Y102912D01*
X182434Y102908D01*
X182469Y102900D01*
X182503Y102888D01*
X182536Y102873D01*
X182566Y102855D01*
X182595Y102833D01*
X182621Y102808D01*
X182644Y102781D01*
X182664Y102751D01*
X182681Y102719D01*
X182695Y102686D01*
X182704Y102651D01*
X182710Y102616D01*
X182712Y102580D01*
X182710Y102544D01*
X182704Y102509D01*
X182695Y102474D01*
X182681Y102441D01*
X182664Y102409D01*
X182644Y102379D01*
X182621Y102352D01*
X182595Y102327D01*
X182566Y102305D01*
X182536Y102287D01*
X182503Y102272D01*
X182469Y102260D01*
X182434Y102252D01*
X182398Y102248D01*
X182362Y102248D01*
X182326Y102252D01*
X182291Y102260D01*
X182257Y102272D01*
X182224Y102287D01*
X182194Y102305D01*
X182165Y102327D01*
X182139Y102352D01*
X182116Y102379D01*
X182096Y102409D01*
X182079Y102441D01*
X182065Y102474D01*
X182056Y102509D01*
X182050Y102544D01*
X182048Y102580D01*
D10*
X49990Y83820D02*
X43990Y83820D01*
D11*
X20758Y34000D02*
X20760Y34036D01*
X20766Y34071D01*
X20775Y34106D01*
X20789Y34139D01*
X20806Y34171D01*
X20826Y34201D01*
X20849Y34228D01*
X20875Y34253D01*
X20904Y34275D01*
X20934Y34293D01*
X20967Y34308D01*
X21001Y34320D01*
X21036Y34328D01*
X21072Y34332D01*
X21108Y34332D01*
X21144Y34328D01*
X21179Y34320D01*
X21213Y34308D01*
X21246Y34293D01*
X21276Y34275D01*
X21305Y34253D01*
X21331Y34228D01*
X21354Y34201D01*
X21374Y34171D01*
X21391Y34139D01*
X21405Y34106D01*
X21414Y34071D01*
X21420Y34036D01*
X21422Y34000D01*
X21420Y33964D01*
X21414Y33929D01*
X21405Y33894D01*
X21391Y33861D01*
X21374Y33829D01*
X21354Y33799D01*
X21331Y33772D01*
X21305Y33747D01*
X21276Y33725D01*
X21246Y33707D01*
X21213Y33692D01*
X21179Y33680D01*
X21144Y33672D01*
X21108Y33668D01*
X21072Y33668D01*
X21036Y33672D01*
X21001Y33680D01*
X20967Y33692D01*
X20934Y33707D01*
X20904Y33725D01*
X20875Y33747D01*
X20849Y33772D01*
X20826Y33799D01*
X20806Y33829D01*
X20789Y33861D01*
X20775Y33894D01*
X20766Y33929D01*
X20760Y33964D01*
X20758Y34000D01*
D10*
X43990Y35560D02*
X49990Y35560D01*
D12*
X83980Y54450D02*
X83980Y4450D01*
X103980Y4450D01*
X103980Y54450D01*
X83980Y54450D01*
D10*
X123918Y35210D02*
X123918Y23210D01*
X143918Y23210D02*
X143918Y35210D01*
D13*
X133918Y50210D02*
X133962Y50212D01*
X134005Y50218D01*
X134047Y50227D01*
X134089Y50240D01*
X134129Y50257D01*
X134168Y50277D01*
X134205Y50300D01*
X134239Y50327D01*
X134272Y50356D01*
X134301Y50389D01*
X134328Y50423D01*
X134351Y50460D01*
X134371Y50499D01*
X134388Y50539D01*
X134401Y50581D01*
X134410Y50623D01*
X134416Y50666D01*
X134418Y50710D01*
X134416Y50754D01*
X134410Y50797D01*
X134401Y50839D01*
X134388Y50881D01*
X134371Y50921D01*
X134351Y50960D01*
X134328Y50997D01*
X134301Y51031D01*
X134272Y51064D01*
X134239Y51093D01*
X134205Y51120D01*
X134168Y51143D01*
X134129Y51163D01*
X134089Y51180D01*
X134047Y51193D01*
X134005Y51202D01*
X133962Y51208D01*
X133918Y51210D01*
X133874Y51208D01*
X133831Y51202D01*
X133789Y51193D01*
X133747Y51180D01*
X133707Y51163D01*
X133668Y51143D01*
X133631Y51120D01*
X133597Y51093D01*
X133564Y51064D01*
X133535Y51031D01*
X133508Y50997D01*
X133485Y50960D01*
X133465Y50921D01*
X133448Y50881D01*
X133435Y50839D01*
X133426Y50797D01*
X133420Y50754D01*
X133418Y50710D01*
X133420Y50666D01*
X133426Y50623D01*
X133435Y50581D01*
X133448Y50539D01*
X133465Y50499D01*
X133485Y50460D01*
X133508Y50423D01*
X133535Y50389D01*
X133564Y50356D01*
X133597Y50327D01*
X133631Y50300D01*
X133668Y50277D01*
X133707Y50257D01*
X133747Y50240D01*
X133789Y50227D01*
X133831Y50218D01*
X133874Y50212D01*
X133918Y50210D01*
D14*
X175132Y12705D02*
X175134Y12675D01*
X175139Y12645D01*
X175148Y12616D01*
X175161Y12589D01*
X175176Y12563D01*
X175195Y12539D01*
X175216Y12518D01*
X175240Y12499D01*
X175266Y12484D01*
X175293Y12471D01*
X175322Y12462D01*
X175352Y12457D01*
X175382Y12455D01*
X175412Y12457D01*
X175442Y12462D01*
X175471Y12471D01*
X175498Y12484D01*
X175524Y12499D01*
X175548Y12518D01*
X175569Y12539D01*
X175588Y12563D01*
X175603Y12589D01*
X175616Y12616D01*
X175625Y12645D01*
X175630Y12675D01*
X175632Y12705D01*
X175630Y12735D01*
X175625Y12765D01*
X175616Y12794D01*
X175603Y12821D01*
X175588Y12847D01*
X175569Y12871D01*
X175548Y12892D01*
X175524Y12911D01*
X175498Y12926D01*
X175471Y12939D01*
X175442Y12948D01*
X175412Y12953D01*
X175382Y12955D01*
X175352Y12953D01*
X175322Y12948D01*
X175293Y12939D01*
X175266Y12926D01*
X175240Y12911D01*
X175216Y12892D01*
X175195Y12871D01*
X175176Y12847D01*
X175161Y12821D01*
X175148Y12794D01*
X175139Y12765D01*
X175134Y12735D01*
X175132Y12705D01*
D11*
X20758Y161635D02*
X20760Y161671D01*
X20766Y161706D01*
X20775Y161741D01*
X20789Y161774D01*
X20806Y161806D01*
X20826Y161836D01*
X20849Y161863D01*
X20875Y161888D01*
X20904Y161910D01*
X20934Y161928D01*
X20967Y161943D01*
X21001Y161955D01*
X21036Y161963D01*
X21072Y161967D01*
X21108Y161967D01*
X21144Y161963D01*
X21179Y161955D01*
X21213Y161943D01*
X21246Y161928D01*
X21276Y161910D01*
X21305Y161888D01*
X21331Y161863D01*
X21354Y161836D01*
X21374Y161806D01*
X21391Y161774D01*
X21405Y161741D01*
X21414Y161706D01*
X21420Y161671D01*
X21422Y161635D01*
X21420Y161599D01*
X21414Y161564D01*
X21405Y161529D01*
X21391Y161496D01*
X21374Y161464D01*
X21354Y161434D01*
X21331Y161407D01*
X21305Y161382D01*
X21276Y161360D01*
X21246Y161342D01*
X21213Y161327D01*
X21179Y161315D01*
X21144Y161307D01*
X21108Y161303D01*
X21072Y161303D01*
X21036Y161307D01*
X21001Y161315D01*
X20967Y161327D01*
X20934Y161342D01*
X20904Y161360D01*
X20875Y161382D01*
X20849Y161407D01*
X20826Y161434D01*
X20806Y161464D01*
X20789Y161496D01*
X20775Y161529D01*
X20766Y161564D01*
X20760Y161599D01*
X20758Y161635D01*
D10*
X43990Y154940D02*
X49990Y154940D01*
D12*
X103980Y139388D02*
X103980Y172388D01*
X103980Y139388D02*
X83980Y139388D01*
X83980Y172388D01*
X103980Y172388D01*
D10*
X148741Y206515D02*
X148743Y206559D01*
X148749Y206603D01*
X148759Y206646D01*
X148772Y206688D01*
X148789Y206729D01*
X148810Y206768D01*
X148834Y206805D01*
X148861Y206840D01*
X148891Y206872D01*
X148924Y206902D01*
X148960Y206928D01*
X148997Y206952D01*
X149037Y206971D01*
X149078Y206988D01*
X149121Y207000D01*
X149164Y207009D01*
X149208Y207014D01*
X149252Y207015D01*
X149296Y207012D01*
X149340Y207005D01*
X149383Y206994D01*
X149425Y206980D01*
X149465Y206962D01*
X149504Y206940D01*
X149540Y206916D01*
X149574Y206888D01*
X149606Y206857D01*
X149635Y206823D01*
X149661Y206787D01*
X149683Y206749D01*
X149702Y206709D01*
X149717Y206667D01*
X149729Y206625D01*
X149737Y206581D01*
X149741Y206537D01*
X149741Y206493D01*
X149737Y206449D01*
X149729Y206405D01*
X149717Y206363D01*
X149702Y206321D01*
X149683Y206281D01*
X149661Y206243D01*
X149635Y206207D01*
X149606Y206173D01*
X149574Y206142D01*
X149540Y206114D01*
X149504Y206090D01*
X149465Y206068D01*
X149425Y206050D01*
X149383Y206036D01*
X149340Y206025D01*
X149296Y206018D01*
X149252Y206015D01*
X149208Y206016D01*
X149164Y206021D01*
X149121Y206030D01*
X149078Y206042D01*
X149037Y206059D01*
X148997Y206078D01*
X148960Y206102D01*
X148924Y206128D01*
X148891Y206158D01*
X148861Y206190D01*
X148834Y206225D01*
X148810Y206262D01*
X148789Y206301D01*
X148772Y206342D01*
X148759Y206384D01*
X148749Y206427D01*
X148743Y206471D01*
X148741Y206515D01*
X64765Y120930D02*
X64767Y120974D01*
X64773Y121018D01*
X64783Y121061D01*
X64796Y121103D01*
X64813Y121144D01*
X64834Y121183D01*
X64858Y121220D01*
X64885Y121255D01*
X64915Y121287D01*
X64948Y121317D01*
X64984Y121343D01*
X65021Y121367D01*
X65061Y121386D01*
X65102Y121403D01*
X65145Y121415D01*
X65188Y121424D01*
X65232Y121429D01*
X65276Y121430D01*
X65320Y121427D01*
X65364Y121420D01*
X65407Y121409D01*
X65449Y121395D01*
X65489Y121377D01*
X65528Y121355D01*
X65564Y121331D01*
X65598Y121303D01*
X65630Y121272D01*
X65659Y121238D01*
X65685Y121202D01*
X65707Y121164D01*
X65726Y121124D01*
X65741Y121082D01*
X65753Y121040D01*
X65761Y120996D01*
X65765Y120952D01*
X65765Y120908D01*
X65761Y120864D01*
X65753Y120820D01*
X65741Y120778D01*
X65726Y120736D01*
X65707Y120696D01*
X65685Y120658D01*
X65659Y120622D01*
X65630Y120588D01*
X65598Y120557D01*
X65564Y120529D01*
X65528Y120505D01*
X65489Y120483D01*
X65449Y120465D01*
X65407Y120451D01*
X65364Y120440D01*
X65320Y120433D01*
X65276Y120430D01*
X65232Y120431D01*
X65188Y120436D01*
X65145Y120445D01*
X65102Y120457D01*
X65061Y120474D01*
X65021Y120493D01*
X64984Y120517D01*
X64948Y120543D01*
X64915Y120573D01*
X64885Y120605D01*
X64858Y120640D01*
X64834Y120677D01*
X64813Y120716D01*
X64796Y120757D01*
X64783Y120799D01*
X64773Y120842D01*
X64767Y120886D01*
X64765Y120930D01*
X21337Y267195D02*
X21339Y267239D01*
X21345Y267283D01*
X21355Y267326D01*
X21368Y267368D01*
X21385Y267409D01*
X21406Y267448D01*
X21430Y267485D01*
X21457Y267520D01*
X21487Y267552D01*
X21520Y267582D01*
X21556Y267608D01*
X21593Y267632D01*
X21633Y267651D01*
X21674Y267668D01*
X21717Y267680D01*
X21760Y267689D01*
X21804Y267694D01*
X21848Y267695D01*
X21892Y267692D01*
X21936Y267685D01*
X21979Y267674D01*
X22021Y267660D01*
X22061Y267642D01*
X22100Y267620D01*
X22136Y267596D01*
X22170Y267568D01*
X22202Y267537D01*
X22231Y267503D01*
X22257Y267467D01*
X22279Y267429D01*
X22298Y267389D01*
X22313Y267347D01*
X22325Y267305D01*
X22333Y267261D01*
X22337Y267217D01*
X22337Y267173D01*
X22333Y267129D01*
X22325Y267085D01*
X22313Y267043D01*
X22298Y267001D01*
X22279Y266961D01*
X22257Y266923D01*
X22231Y266887D01*
X22202Y266853D01*
X22170Y266822D01*
X22136Y266794D01*
X22100Y266770D01*
X22061Y266748D01*
X22021Y266730D01*
X21979Y266716D01*
X21936Y266705D01*
X21892Y266698D01*
X21848Y266695D01*
X21804Y266696D01*
X21760Y266701D01*
X21717Y266710D01*
X21674Y266722D01*
X21633Y266739D01*
X21593Y266758D01*
X21556Y266782D01*
X21520Y266808D01*
X21487Y266838D01*
X21457Y266870D01*
X21430Y266905D01*
X21406Y266942D01*
X21385Y266981D01*
X21368Y267022D01*
X21355Y267064D01*
X21345Y267107D01*
X21339Y267151D01*
X21337Y267195D01*
D12*
X140868Y82480D02*
X145418Y82480D01*
D10*
X132918Y63730D02*
X132920Y63793D01*
X132926Y63855D01*
X132936Y63917D01*
X132949Y63979D01*
X132967Y64039D01*
X132988Y64098D01*
X133013Y64156D01*
X133042Y64212D01*
X133074Y64266D01*
X133109Y64318D01*
X133147Y64367D01*
X133189Y64415D01*
X133233Y64459D01*
X133281Y64501D01*
X133330Y64539D01*
X133382Y64574D01*
X133436Y64606D01*
X133492Y64635D01*
X133550Y64660D01*
X133609Y64681D01*
X133669Y64699D01*
X133731Y64712D01*
X133793Y64722D01*
X133855Y64728D01*
X133918Y64730D01*
X133981Y64728D01*
X134043Y64722D01*
X134105Y64712D01*
X134167Y64699D01*
X134227Y64681D01*
X134286Y64660D01*
X134344Y64635D01*
X134400Y64606D01*
X134454Y64574D01*
X134506Y64539D01*
X134555Y64501D01*
X134603Y64459D01*
X134647Y64415D01*
X134689Y64367D01*
X134727Y64318D01*
X134762Y64266D01*
X134794Y64212D01*
X134823Y64156D01*
X134848Y64098D01*
X134869Y64039D01*
X134887Y63979D01*
X134900Y63917D01*
X134910Y63855D01*
X134916Y63793D01*
X134918Y63730D01*
X134916Y63667D01*
X134910Y63605D01*
X134900Y63543D01*
X134887Y63481D01*
X134869Y63421D01*
X134848Y63362D01*
X134823Y63304D01*
X134794Y63248D01*
X134762Y63194D01*
X134727Y63142D01*
X134689Y63093D01*
X134647Y63045D01*
X134603Y63001D01*
X134555Y62959D01*
X134506Y62921D01*
X134454Y62886D01*
X134400Y62854D01*
X134344Y62825D01*
X134286Y62800D01*
X134227Y62779D01*
X134167Y62761D01*
X134105Y62748D01*
X134043Y62738D01*
X133981Y62732D01*
X133918Y62730D01*
X133855Y62732D01*
X133793Y62738D01*
X133731Y62748D01*
X133669Y62761D01*
X133609Y62779D01*
X133550Y62800D01*
X133492Y62825D01*
X133436Y62854D01*
X133382Y62886D01*
X133330Y62921D01*
X133281Y62959D01*
X133233Y63001D01*
X133189Y63045D01*
X133147Y63093D01*
X133109Y63142D01*
X133074Y63194D01*
X133042Y63248D01*
X133013Y63304D01*
X132988Y63362D01*
X132967Y63421D01*
X132949Y63481D01*
X132936Y63543D01*
X132926Y63605D01*
X132920Y63667D01*
X132918Y63730D01*
D12*
X145418Y82480D02*
X145418Y105480D01*
X140868Y105480D01*
X126968Y105480D02*
X122418Y105480D01*
X122418Y82480D01*
X126968Y82480D01*
X153918Y128970D02*
X153918Y178970D01*
X113918Y178970D01*
X113918Y128970D01*
X153918Y128970D01*
M02*
