G04 EAGLE Gerber RS-274X export*
G75*
%MOMM*%
%FSLAX34Y34*%
%LPD*%
%INSoldermask Top*%
%IPPOS*%
%AMOC8*
5,1,8,0,0,1.08239X$1,22.5*%
G01*
G04 Define Apertures*
%ADD10R,0.823200X0.853200*%
%ADD11R,0.823200X0.823200*%
%ADD12C,0.509200*%
%ADD13R,0.678200X0.703200*%
%ADD14R,0.703200X0.678200*%
%ADD15R,0.853200X0.823200*%
%ADD16R,2.203200X2.203200*%
%ADD17C,0.959600*%
D10*
X52070Y252755D03*
X52070Y261555D03*
D11*
X190425Y328700D03*
X199425Y328700D03*
X158008Y365835D03*
X158008Y356835D03*
D10*
X50734Y322605D03*
X50734Y331405D03*
D11*
X190425Y156225D03*
X199425Y156225D03*
D12*
X104220Y335200D03*
X109220Y335200D03*
X114220Y335200D03*
X104220Y330200D03*
X114220Y330200D03*
X104220Y325200D03*
X109220Y325200D03*
X114220Y325200D03*
D13*
X154013Y181893D03*
X164263Y181893D03*
X114643Y365207D03*
X124893Y365207D03*
D14*
X155790Y299145D03*
X155790Y288905D03*
X158568Y337478D03*
X158568Y327228D03*
X16476Y321885D03*
X16476Y332125D03*
D10*
X72785Y252755D03*
X72785Y261555D03*
D13*
X107023Y294830D03*
X117273Y294830D03*
D14*
X20379Y56455D03*
X20379Y66695D03*
X60653Y299378D03*
X60653Y289128D03*
X151066Y251803D03*
X151066Y262053D03*
D12*
X109300Y259000D03*
X114300Y259000D03*
X119300Y259000D03*
X109300Y254000D03*
X119300Y254000D03*
X109300Y249000D03*
X114300Y249000D03*
X119300Y249000D03*
D13*
X90745Y131584D03*
X100985Y131584D03*
X108293Y182417D03*
X118543Y182417D03*
X43755Y16479D03*
X53995Y16479D03*
X16853Y37266D03*
X27103Y37266D03*
D15*
X26645Y102933D03*
X17845Y102933D03*
D14*
X64864Y208855D03*
X64864Y219095D03*
D13*
X15583Y133259D03*
X25833Y133259D03*
D12*
X88980Y67230D03*
X93980Y67230D03*
X98980Y67230D03*
X88980Y62230D03*
X98980Y62230D03*
X88980Y57230D03*
X93980Y57230D03*
X98980Y57230D03*
D10*
X121920Y60420D03*
X121920Y69220D03*
D14*
X146720Y59700D03*
X146720Y69940D03*
D13*
X171683Y82330D03*
X181933Y82330D03*
D11*
X177410Y46350D03*
X177410Y55350D03*
X137800Y29870D03*
X128800Y29870D03*
D13*
X97780Y17220D03*
X87540Y17220D03*
X97558Y31750D03*
X87308Y31750D03*
D10*
X58570Y57880D03*
X58570Y66680D03*
D14*
X41500Y57160D03*
X41500Y67400D03*
D13*
X98828Y93150D03*
X88578Y93150D03*
D11*
X177970Y117480D03*
X177970Y108480D03*
D16*
X196160Y368399D03*
X20160Y368399D03*
X196160Y183799D03*
X196160Y287299D03*
X196160Y233599D03*
X20160Y233599D03*
X20160Y287299D03*
X20160Y183799D03*
D17*
X67056Y356108D03*
X172748Y288036D03*
X140208Y284988D03*
X133123Y333728D03*
X168078Y227330D03*
X139954Y349250D03*
X142240Y324612D03*
X117348Y278892D03*
X128778Y231140D03*
X110490Y55118D03*
X22860Y83820D03*
X67310Y140462D03*
X68580Y79248D03*
X134112Y52832D03*
X62230Y245110D03*
X133858Y302768D03*
X134112Y272796D03*
X150876Y274320D03*
X60960Y274066D03*
X152400Y154686D03*
X114300Y88392D03*
X22860Y74676D03*
X39624Y227076D03*
X169164Y262128D03*
X80264Y381109D03*
X164333Y239009D03*
X71120Y55118D03*
X86868Y324612D03*
X72390Y320294D03*
X85344Y219456D03*
X79248Y79248D03*
X168909Y145597D03*
X35024Y45720D03*
X108204Y195072D03*
X83820Y244376D03*
X50292Y182880D03*
X50292Y204216D03*
X103632Y120142D03*
X132842Y250444D03*
X75494Y173946D03*
X117348Y160020D03*
X18260Y48774D03*
X160528Y32766D03*
X159258Y63754D03*
X155448Y111252D03*
X176784Y169164D03*
X166116Y156972D03*
X92964Y201168D03*
X69855Y185470D03*
X33528Y112776D03*
X49784Y104902D03*
X179832Y181356D03*
X180242Y206784D03*
X33528Y198120D03*
X87630Y176276D03*
X165058Y205740D03*
X57912Y232156D03*
X65532Y158496D03*
X24384Y167640D03*
X39116Y292862D03*
M02*
