G04 EAGLE Gerber RS-274X export*
G75*
%MOMM*%
%FSLAX34Y34*%
%LPD*%
%INSolderpaste Bottom*%
%IPPOS*%
%AMOC8*
5,1,8,0,0,1.08239X$1,22.5*%
G01*
G04 Define Apertures*
%ADD10R,0.620000X0.650000*%
%ADD11R,1.750000X1.100000*%
%ADD12R,0.400000X0.250000*%
%ADD13R,0.400000X0.700000*%
%ADD14R,0.950000X0.900000*%
%ADD15R,1.500000X1.400000*%
%ADD16R,1.900000X0.500000*%
%ADD17R,0.500000X0.475000*%
%ADD18R,0.800000X0.800000*%
%ADD19R,0.650000X0.620000*%
%ADD20R,0.620000X0.620000*%
%ADD21R,0.750000X1.350000*%
%ADD22R,2.300000X1.230000*%
D10*
X196652Y254025D03*
X196652Y262825D03*
D11*
X93980Y106440D03*
X93980Y76440D03*
D12*
X181720Y97500D03*
X181720Y93000D03*
D13*
X174720Y95250D03*
D14*
X46990Y75820D03*
X46990Y91820D03*
D12*
X20430Y28920D03*
X20430Y24420D03*
D13*
X13430Y26670D03*
D14*
X46990Y27560D03*
X46990Y43560D03*
D15*
X93980Y44450D03*
X93980Y16450D03*
D10*
X193717Y16535D03*
X193717Y25335D03*
D16*
X133918Y41710D03*
X133918Y16710D03*
D17*
X175382Y17085D03*
X175382Y27325D03*
D12*
X20430Y156555D03*
X20430Y152055D03*
D13*
X13430Y154305D03*
D14*
X46990Y146940D03*
X46990Y162940D03*
D18*
X93980Y149388D03*
X93980Y164388D03*
D19*
X106705Y207010D03*
X115505Y207010D03*
D20*
X149241Y212015D03*
X149241Y221015D03*
X59765Y120930D03*
X50765Y120930D03*
X21837Y261695D03*
X21837Y252695D03*
D21*
X133918Y74980D03*
X133918Y112980D03*
D22*
X133918Y138970D03*
X133918Y168970D03*
M02*
