G04 EAGLE Gerber RS-274X export*
G75*
%MOMM*%
%FSLAX34Y34*%
%LPD*%
%INTop Copper*%
%IPPOS*%
%AMOC8*
5,1,8,0,0,1.08239X$1,22.5*%
G01*
G04 Define Apertures*
%ADD10R,0.620000X0.650000*%
%ADD11R,0.620000X0.620000*%
%ADD12R,0.650000X0.620000*%
%ADD13R,2.000000X2.000000*%
%ADD14C,0.306000*%
%ADD15R,0.475000X0.500000*%
%ADD16R,0.500000X0.475000*%
%ADD17C,0.203200*%
%ADD18C,0.152400*%
D10*
X207010Y128950D03*
X207010Y137750D03*
D11*
X151784Y-46280D03*
X160784Y-46280D03*
D10*
X123190Y-12020D03*
X123190Y-3220D03*
X107950Y-12020D03*
X107950Y-3220D03*
D12*
X70440Y17780D03*
X61640Y17780D03*
D11*
X61540Y57150D03*
X70540Y57150D03*
D12*
X107360Y132080D03*
X116160Y132080D03*
D11*
X150440Y38100D03*
X159440Y38100D03*
D13*
X276860Y69850D03*
X274320Y102870D03*
X59690Y110490D03*
D14*
X168990Y130730D03*
X173990Y130730D03*
X178990Y130730D03*
X168990Y125730D03*
X178990Y125730D03*
X168990Y120730D03*
X173990Y120730D03*
X178990Y120730D03*
D15*
X188005Y90170D03*
X177755Y90170D03*
X106640Y109220D03*
X116880Y109220D03*
X119425Y41910D03*
X109175Y41910D03*
D16*
X140970Y109175D03*
X140970Y119425D03*
D15*
X156255Y63500D03*
X146005Y63500D03*
D16*
X240030Y157440D03*
X240030Y167680D03*
X355600Y104100D03*
X355600Y114340D03*
X354330Y80055D03*
X354330Y69805D03*
D15*
X110450Y-48260D03*
X120690Y-48260D03*
X72430Y-60960D03*
X62190Y-60960D03*
X121960Y17780D03*
X111720Y17780D03*
X140930Y86360D03*
X151170Y86360D03*
X115615Y68540D03*
X105365Y68540D03*
D13*
X173990Y163830D03*
X269240Y137160D03*
D17*
X173736Y135636D02*
X173736Y163068D01*
X173736Y135636D02*
X173736Y131064D01*
X173990Y130730D01*
X173736Y163068D02*
X173990Y163830D01*
X156464Y135636D02*
X140970Y120142D01*
X140970Y119425D01*
X156464Y135636D02*
X173736Y135636D01*
X178308Y167640D02*
X239268Y167640D01*
X178308Y167640D02*
X175260Y164592D01*
X239268Y167640D02*
X240030Y167680D01*
X175260Y164592D02*
X173990Y163830D01*
X173736Y120396D02*
X173736Y94488D01*
X176784Y91440D01*
X173736Y120396D02*
X173990Y120730D01*
X176784Y91440D02*
X177755Y90170D01*
X156972Y70104D02*
X156972Y64008D01*
X156972Y70104D02*
X176784Y89916D01*
X156972Y64008D02*
X156255Y63500D01*
X176784Y89916D02*
X177755Y90170D01*
X161544Y4318D02*
X161544Y-45720D01*
X161544Y4318D02*
X172974Y15748D01*
X172974Y46482D01*
X156972Y62484D01*
X161544Y-45720D02*
X160784Y-46280D01*
X156972Y62484D02*
X156255Y63500D01*
X198120Y70104D02*
X275844Y70104D01*
X198120Y70104D02*
X178308Y89916D01*
X275844Y70104D02*
X276860Y69850D01*
X178308Y89916D02*
X177755Y90170D01*
X159440Y38100D02*
X159440Y24820D01*
X149860Y15240D01*
X144780Y15240D01*
X144780Y20320D01*
X151130Y20320D01*
X151130Y19050D01*
X151130Y17780D01*
X146050Y17780D01*
X146050Y19050D01*
X151130Y19050D01*
X149860Y17780D01*
X149860Y16510D01*
X146050Y16510D01*
X179832Y126492D02*
X204216Y126492D01*
X205740Y128016D01*
X179832Y126492D02*
X178990Y125730D01*
X205740Y128016D02*
X207010Y128950D01*
X274320Y103632D02*
X355092Y103632D01*
X355600Y104100D01*
X249936Y128016D02*
X207264Y128016D01*
X249936Y128016D02*
X274320Y103632D01*
X207264Y128016D02*
X207010Y128950D01*
X274320Y103632D02*
X274320Y102870D01*
X149352Y38100D02*
X137160Y50292D01*
X109728Y42672D02*
X109175Y41910D01*
X149352Y38100D02*
X150440Y38100D01*
X59690Y110744D02*
X95758Y146812D01*
X59690Y110744D02*
X59690Y110490D01*
X95758Y146812D02*
X117348Y146812D01*
X127508Y136652D01*
X127508Y108712D01*
X125425Y50292D02*
X137160Y50292D01*
X125425Y50292D02*
X124917Y50800D01*
X114351Y50800D01*
D18*
X145845Y82294D02*
X145845Y90375D01*
X127508Y108712D01*
D17*
X137160Y73609D02*
X137160Y50292D01*
D18*
X137160Y73609D02*
X145845Y82294D01*
D17*
X114351Y50800D02*
X109728Y46177D01*
X109728Y42672D01*
X179832Y99060D02*
X179832Y120396D01*
X179832Y99060D02*
X187452Y91440D01*
X179832Y120396D02*
X178990Y120730D01*
X187452Y91440D02*
X188005Y90170D01*
X240792Y156972D02*
X321564Y156972D01*
X280416Y89916D02*
X188976Y89916D01*
X240030Y157440D02*
X240792Y156972D01*
X188976Y89916D02*
X188005Y90170D01*
X321564Y156972D02*
X364744Y113792D01*
X364744Y82002D01*
D18*
X357882Y75140D01*
X295192Y75140D01*
D17*
X280416Y89916D01*
X141732Y109728D02*
X140970Y109175D01*
X121920Y16764D02*
X121920Y-3048D01*
X121920Y16764D02*
X121960Y17780D01*
X121920Y-3048D02*
X123190Y-3220D01*
X146304Y64008D02*
X146304Y77724D01*
X150876Y82296D01*
X150876Y85344D01*
X146304Y64008D02*
X146005Y63500D01*
X150876Y85344D02*
X151170Y86360D01*
X121920Y-4572D02*
X120396Y-4572D01*
X117348Y-7620D01*
X117348Y-16764D01*
X118872Y-18288D01*
X128016Y-18288D01*
X166116Y19812D01*
X166116Y42672D01*
X146304Y62484D01*
X123190Y-3220D02*
X121920Y-4572D01*
X146304Y62484D02*
X146005Y63500D01*
X141732Y102870D02*
X141732Y108204D01*
X141732Y102870D02*
X150876Y93726D01*
X150876Y86868D01*
X141732Y108204D02*
X140970Y109175D01*
X150876Y86868D02*
X151170Y86360D01*
X168656Y120396D02*
X168990Y120730D01*
X168656Y120396D02*
X155905Y120396D01*
X145237Y109728D01*
X141732Y109728D01*
X355092Y94488D02*
X355092Y80772D01*
X355092Y94488D02*
X361188Y100584D01*
X361188Y109728D01*
X356616Y114300D01*
X355092Y80772D02*
X354330Y80055D01*
X355600Y114340D02*
X356616Y114300D01*
X198120Y131064D02*
X179832Y131064D01*
X198120Y131064D02*
X205740Y138684D01*
X179832Y131064D02*
X178990Y130730D01*
X205740Y138684D02*
X207010Y137750D01*
X207264Y137160D02*
X269240Y137160D01*
X207264Y137160D02*
X207010Y137750D01*
X291084Y115824D02*
X355092Y115824D01*
X291084Y115824D02*
X269748Y137160D01*
X355092Y115824D02*
X355600Y114340D01*
X269748Y137160D02*
X269240Y137160D01*
X167640Y131064D02*
X161544Y131064D01*
D18*
X144780Y114300D01*
X137160Y114300D01*
X131826Y119634D01*
D17*
X131826Y149606D01*
X125222Y156210D01*
X67564Y156210D01*
X43434Y132080D01*
X43434Y86360D01*
X54864Y74930D01*
X54864Y87376D02*
X71374Y87376D01*
X87884Y103886D01*
X87884Y130556D01*
X98552Y141224D01*
X108712Y141224D01*
X117348Y132588D01*
X167640Y131064D02*
X168990Y130730D01*
X117348Y132588D02*
X116160Y132080D01*
X117348Y131064D02*
X117348Y109728D01*
X116880Y109220D01*
X117348Y131064D02*
X116160Y132080D01*
X54864Y87376D02*
X54864Y74930D01*
X54864Y48260D01*
X118872Y41148D02*
X119425Y41910D01*
X71922Y31202D02*
X54864Y48260D01*
X71922Y31202D02*
X112431Y31202D01*
X118872Y37643D01*
X118872Y41148D01*
X109728Y-13716D02*
X109728Y-35814D01*
X109728Y-47244D01*
X109728Y-13716D02*
X108204Y-12192D01*
X109728Y-47244D02*
X110450Y-48260D01*
X108204Y-12192D02*
X107950Y-12020D01*
X307848Y66040D02*
X351988Y66040D01*
X354330Y69805D01*
X151784Y-46280D02*
X150876Y-47244D01*
X140970Y-35814D02*
X109728Y-35814D01*
X140970Y-35814D02*
X150876Y-45720D01*
X151784Y-46280D01*
X150876Y-47244D02*
X155552Y-51920D01*
X189888Y-51920D01*
X307848Y66040D01*
X117602Y-60960D02*
X83820Y-60960D01*
X72430Y-60960D01*
X117602Y-60960D02*
X120396Y-58166D01*
X120396Y-48768D01*
X120690Y-48260D01*
X123444Y-10668D02*
X126492Y-10668D01*
X129540Y-7620D01*
X129540Y19812D01*
X123444Y-10668D02*
X123190Y-12020D01*
X83820Y-1653D02*
X83820Y-60960D01*
X83820Y-1653D02*
X108293Y22820D01*
X126532Y22820D01*
X129540Y19812D01*
X111252Y16764D02*
X111252Y0D01*
X108204Y-3048D01*
X111252Y16764D02*
X111720Y17780D01*
X108204Y-3048D02*
X107950Y-3220D01*
X70104Y15240D02*
X70104Y16764D01*
X34036Y132334D02*
X78486Y176784D01*
X319024Y176784D01*
X373634Y122174D01*
X373634Y56642D01*
X253238Y-63754D01*
X106680Y-53340D02*
X95758Y-42418D01*
X95758Y-13970D01*
X106680Y-3048D01*
X70104Y16764D02*
X70440Y17780D01*
X106680Y-3048D02*
X107950Y-3220D01*
X34036Y35442D02*
X34036Y132334D01*
X144651Y-63754D02*
X253238Y-63754D01*
X115775Y-51402D02*
X115775Y-44708D01*
X115775Y-51402D02*
X113837Y-53340D01*
X106680Y-53340D01*
X57338Y12140D02*
X34036Y35442D01*
X124117Y-43220D02*
X144651Y-63754D01*
X124117Y-43220D02*
X117263Y-43220D01*
X115775Y-44708D01*
X67004Y12140D02*
X70104Y15240D01*
X67004Y12140D02*
X57338Y12140D01*
X62190Y-60960D02*
X62484Y-60960D01*
X61640Y17780D02*
X60960Y18288D01*
X62484Y54864D02*
X62484Y56388D01*
X62484Y54864D02*
X80772Y36576D01*
X112776Y36576D01*
X114300Y38100D01*
X114300Y45720D01*
X115824Y47244D01*
X123444Y47244D01*
X124968Y45720D01*
X62484Y56388D02*
X61540Y57150D01*
X75953Y22860D02*
X76200Y22860D01*
X103304Y22860D01*
X106820Y26376D01*
X76200Y22860D02*
X76200Y21962D01*
X76230Y21932D01*
X76230Y13628D01*
X106820Y26376D02*
X112634Y26376D01*
X124968Y38710D01*
X124968Y45720D01*
X66092Y23420D02*
X60960Y18288D01*
X66092Y23420D02*
X75393Y23420D01*
X75953Y22860D01*
X62484Y-118D02*
X62484Y-60960D01*
X62484Y-118D02*
X76230Y13628D01*
X115824Y68580D02*
X123444Y68580D01*
X140208Y85344D01*
X115824Y68580D02*
X115615Y68540D01*
X140208Y85344D02*
X140930Y86360D01*
X105156Y57912D02*
X71628Y57912D01*
X105156Y57912D02*
X114300Y67056D01*
X71628Y57912D02*
X70540Y57150D01*
X114300Y67056D02*
X115615Y68540D01*
X105156Y68580D02*
X105156Y108204D01*
X105156Y68580D02*
X105365Y68540D01*
X105156Y108204D02*
X106640Y109220D01*
X106680Y109728D02*
X106680Y131064D01*
X107360Y132080D01*
X106680Y109728D02*
X106640Y109220D01*
M02*
