G04 EAGLE Gerber RS-274X export*
G75*
%MOMM*%
%FSLAX34Y34*%
%LPD*%
%INSilkscreen Top*%
%IPPOS*%
%AMOC8*
5,1,8,0,0,1.08239X$1,22.5*%
G01*
G04 Define Apertures*
%ADD10C,0.200000*%
%ADD11C,0.050000*%
G36*
X207133Y122792D02*
X206769Y122798D01*
X206415Y122817D01*
X206071Y122848D01*
X205737Y122892D01*
X205413Y122948D01*
X205099Y123016D01*
X204795Y123097D01*
X204501Y123191D01*
X204217Y123297D01*
X203943Y123415D01*
X203425Y123689D01*
X202946Y124013D01*
X202508Y124386D01*
X202116Y124804D01*
X201776Y125260D01*
X201626Y125502D01*
X201489Y125754D01*
X201365Y126016D01*
X201254Y126287D01*
X201156Y126567D01*
X201071Y126858D01*
X200999Y127158D01*
X200940Y127467D01*
X200894Y127786D01*
X200861Y128115D01*
X200842Y128453D01*
X200835Y128801D01*
X200847Y129283D01*
X200883Y129745D01*
X200944Y130187D01*
X201028Y130609D01*
X201136Y131011D01*
X201269Y131392D01*
X201425Y131753D01*
X201606Y132094D01*
X201810Y132413D01*
X202038Y132711D01*
X202289Y132987D01*
X202563Y133241D01*
X202860Y133473D01*
X203181Y133683D01*
X203525Y133872D01*
X203892Y134038D01*
X204418Y132453D01*
X204156Y132337D01*
X203911Y132206D01*
X203681Y132058D01*
X203467Y131893D01*
X203269Y131713D01*
X203087Y131516D01*
X202921Y131303D01*
X202771Y131073D01*
X202638Y130830D01*
X202522Y130576D01*
X202424Y130311D01*
X202344Y130034D01*
X202282Y129747D01*
X202237Y129448D01*
X202211Y129139D01*
X202202Y128818D01*
X202222Y128320D01*
X202284Y127850D01*
X202387Y127409D01*
X202531Y126996D01*
X202717Y126612D01*
X202943Y126256D01*
X203211Y125929D01*
X203520Y125630D01*
X203865Y125363D01*
X204240Y125132D01*
X204646Y124936D01*
X205082Y124776D01*
X205549Y124651D01*
X206046Y124562D01*
X206574Y124509D01*
X207133Y124491D01*
X207686Y124510D01*
X208211Y124565D01*
X208709Y124658D01*
X209179Y124788D01*
X209621Y124955D01*
X210035Y125159D01*
X210422Y125400D01*
X210781Y125678D01*
X211104Y125988D01*
X211384Y126324D01*
X211621Y126686D01*
X211815Y127074D01*
X211966Y127488D01*
X212074Y127929D01*
X212139Y128395D01*
X212160Y128888D01*
X212150Y129207D01*
X212120Y129516D01*
X212070Y129815D01*
X212000Y130104D01*
X211909Y130383D01*
X211799Y130651D01*
X211669Y130910D01*
X211519Y131159D01*
X211348Y131397D01*
X211158Y131626D01*
X210947Y131844D01*
X210717Y132053D01*
X210466Y132251D01*
X210195Y132439D01*
X209905Y132617D01*
X209594Y132786D01*
X210277Y134152D01*
X210664Y133952D01*
X211026Y133732D01*
X211365Y133494D01*
X211681Y133236D01*
X211972Y132958D01*
X212239Y132662D01*
X212483Y132346D01*
X212703Y132011D01*
X212898Y131659D01*
X213067Y131293D01*
X213210Y130914D01*
X213327Y130520D01*
X213418Y130113D01*
X213483Y129693D01*
X213522Y129258D01*
X213535Y128809D01*
X213523Y128351D01*
X213487Y127908D01*
X213426Y127481D01*
X213341Y127070D01*
X213232Y126674D01*
X213099Y126294D01*
X212942Y125930D01*
X212760Y125582D01*
X212556Y125251D01*
X212331Y124941D01*
X212085Y124651D01*
X211819Y124382D01*
X211531Y124132D01*
X211223Y123903D01*
X210894Y123695D01*
X210544Y123506D01*
X210176Y123339D01*
X209791Y123194D01*
X209389Y123071D01*
X208971Y122971D01*
X208536Y122893D01*
X208085Y122837D01*
X207617Y122803D01*
X207133Y122792D01*
G37*
G36*
X213360Y136216D02*
X212020Y136216D01*
X212020Y139361D01*
X202526Y139361D01*
X204514Y136575D01*
X203025Y136575D01*
X201019Y139492D01*
X201019Y140946D01*
X212020Y140946D01*
X212020Y143950D01*
X213360Y143950D01*
X213360Y136216D01*
G37*
G36*
X151743Y-52805D02*
X151285Y-52793D01*
X150842Y-52757D01*
X150415Y-52696D01*
X150004Y-52611D01*
X149608Y-52502D01*
X149228Y-52369D01*
X148864Y-52212D01*
X148516Y-52030D01*
X148185Y-51826D01*
X147875Y-51601D01*
X147585Y-51355D01*
X147316Y-51089D01*
X147066Y-50801D01*
X146837Y-50493D01*
X146629Y-50164D01*
X146440Y-49814D01*
X146273Y-49446D01*
X146128Y-49061D01*
X146005Y-48659D01*
X145905Y-48241D01*
X145827Y-47806D01*
X145771Y-47355D01*
X145737Y-46887D01*
X145726Y-46403D01*
X145732Y-46039D01*
X145751Y-45685D01*
X145782Y-45341D01*
X145826Y-45007D01*
X145882Y-44683D01*
X145950Y-44369D01*
X146031Y-44065D01*
X146125Y-43771D01*
X146231Y-43487D01*
X146349Y-43213D01*
X146623Y-42695D01*
X146947Y-42216D01*
X147320Y-41778D01*
X147738Y-41386D01*
X148194Y-41046D01*
X148436Y-40896D01*
X148688Y-40759D01*
X148950Y-40635D01*
X149221Y-40524D01*
X149501Y-40426D01*
X149792Y-40341D01*
X150092Y-40269D01*
X150401Y-40210D01*
X150720Y-40164D01*
X151049Y-40131D01*
X151387Y-40112D01*
X151735Y-40105D01*
X152217Y-40117D01*
X152679Y-40153D01*
X153121Y-40214D01*
X153543Y-40298D01*
X153945Y-40406D01*
X154326Y-40539D01*
X154687Y-40695D01*
X155028Y-40876D01*
X155347Y-41080D01*
X155645Y-41308D01*
X155921Y-41559D01*
X156175Y-41833D01*
X156407Y-42130D01*
X156617Y-42451D01*
X156806Y-42795D01*
X156972Y-43162D01*
X155387Y-43688D01*
X155271Y-43426D01*
X155140Y-43181D01*
X154992Y-42951D01*
X154827Y-42737D01*
X154647Y-42539D01*
X154450Y-42357D01*
X154237Y-42191D01*
X154007Y-42041D01*
X153764Y-41908D01*
X153510Y-41792D01*
X153245Y-41694D01*
X152968Y-41614D01*
X152681Y-41552D01*
X152382Y-41507D01*
X152073Y-41481D01*
X151752Y-41472D01*
X151254Y-41492D01*
X150784Y-41554D01*
X150343Y-41657D01*
X149930Y-41801D01*
X149546Y-41987D01*
X149190Y-42213D01*
X148863Y-42481D01*
X148564Y-42790D01*
X148297Y-43135D01*
X148066Y-43510D01*
X147870Y-43916D01*
X147710Y-44352D01*
X147585Y-44819D01*
X147496Y-45316D01*
X147443Y-45844D01*
X147425Y-46403D01*
X147444Y-46956D01*
X147499Y-47481D01*
X147592Y-47979D01*
X147722Y-48449D01*
X147889Y-48891D01*
X148093Y-49305D01*
X148334Y-49692D01*
X148612Y-50051D01*
X148922Y-50374D01*
X149258Y-50654D01*
X149620Y-50891D01*
X150008Y-51085D01*
X150422Y-51236D01*
X150863Y-51344D01*
X151329Y-51409D01*
X151822Y-51430D01*
X152141Y-51420D01*
X152450Y-51390D01*
X152749Y-51340D01*
X153038Y-51270D01*
X153317Y-51179D01*
X153585Y-51069D01*
X153844Y-50939D01*
X154093Y-50789D01*
X154331Y-50618D01*
X154560Y-50428D01*
X154778Y-50217D01*
X154987Y-49987D01*
X155185Y-49736D01*
X155373Y-49465D01*
X155551Y-49175D01*
X155720Y-48864D01*
X157086Y-49547D01*
X156886Y-49934D01*
X156666Y-50296D01*
X156428Y-50635D01*
X156170Y-50951D01*
X155892Y-51242D01*
X155596Y-51509D01*
X155280Y-51753D01*
X154945Y-51973D01*
X154593Y-52168D01*
X154227Y-52337D01*
X153848Y-52480D01*
X153454Y-52597D01*
X153047Y-52688D01*
X152627Y-52753D01*
X152192Y-52792D01*
X151743Y-52805D01*
G37*
G36*
X166858Y-52630D02*
X158686Y-52630D01*
X158686Y-51518D01*
X158922Y-51020D01*
X159182Y-50553D01*
X159467Y-50116D01*
X159777Y-49709D01*
X160103Y-49326D01*
X160437Y-48962D01*
X160779Y-48617D01*
X161130Y-48290D01*
X161836Y-47678D01*
X162536Y-47112D01*
X163198Y-46569D01*
X163792Y-46026D01*
X164059Y-45751D01*
X164299Y-45470D01*
X164512Y-45182D01*
X164699Y-44887D01*
X164850Y-44580D01*
X164958Y-44252D01*
X165023Y-43905D01*
X165045Y-43539D01*
X165036Y-43292D01*
X165008Y-43059D01*
X164961Y-42841D01*
X164896Y-42637D01*
X164812Y-42447D01*
X164710Y-42271D01*
X164589Y-42109D01*
X164449Y-41962D01*
X164293Y-41831D01*
X164122Y-41717D01*
X163937Y-41621D01*
X163738Y-41542D01*
X163523Y-41480D01*
X163295Y-41437D01*
X163052Y-41410D01*
X162794Y-41402D01*
X162548Y-41410D01*
X162312Y-41436D01*
X162088Y-41479D01*
X161875Y-41538D01*
X161673Y-41615D01*
X161483Y-41709D01*
X161303Y-41821D01*
X161134Y-41949D01*
X160979Y-42093D01*
X160842Y-42250D01*
X160721Y-42422D01*
X160616Y-42607D01*
X160529Y-42806D01*
X160458Y-43019D01*
X160405Y-43246D01*
X160368Y-43486D01*
X158756Y-43337D01*
X158814Y-42977D01*
X158900Y-42635D01*
X159015Y-42312D01*
X159158Y-42008D01*
X159329Y-41723D01*
X159529Y-41457D01*
X159757Y-41210D01*
X160013Y-40981D01*
X160293Y-40776D01*
X160592Y-40598D01*
X160911Y-40447D01*
X161249Y-40324D01*
X161606Y-40228D01*
X161983Y-40160D01*
X162379Y-40119D01*
X162794Y-40105D01*
X163247Y-40119D01*
X163673Y-40160D01*
X164072Y-40229D01*
X164444Y-40325D01*
X164789Y-40449D01*
X165107Y-40600D01*
X165398Y-40779D01*
X165662Y-40986D01*
X165897Y-41217D01*
X166101Y-41472D01*
X166273Y-41750D01*
X166414Y-42051D01*
X166524Y-42375D01*
X166602Y-42722D01*
X166649Y-43093D01*
X166665Y-43486D01*
X166645Y-43845D01*
X166583Y-44202D01*
X166480Y-44558D01*
X166337Y-44914D01*
X166153Y-45268D01*
X165928Y-45623D01*
X165664Y-45978D01*
X165360Y-46333D01*
X164962Y-46736D01*
X164416Y-47237D01*
X163723Y-47835D01*
X162881Y-48531D01*
X162404Y-48933D01*
X161977Y-49314D01*
X161602Y-49675D01*
X161279Y-50016D01*
X161002Y-50343D01*
X160766Y-50665D01*
X160573Y-50980D01*
X160420Y-51290D01*
X166858Y-51290D01*
X166858Y-52630D01*
G37*
G36*
X123313Y-18178D02*
X122949Y-18172D01*
X122595Y-18153D01*
X122251Y-18122D01*
X121917Y-18078D01*
X121593Y-18022D01*
X121279Y-17954D01*
X120975Y-17873D01*
X120681Y-17779D01*
X120397Y-17674D01*
X120123Y-17555D01*
X119605Y-17281D01*
X119126Y-16957D01*
X118688Y-16584D01*
X118296Y-16166D01*
X117956Y-15710D01*
X117806Y-15468D01*
X117669Y-15216D01*
X117545Y-14954D01*
X117434Y-14683D01*
X117336Y-14403D01*
X117251Y-14112D01*
X117179Y-13812D01*
X117120Y-13503D01*
X117074Y-13184D01*
X117041Y-12855D01*
X117022Y-12517D01*
X117015Y-12170D01*
X117027Y-11687D01*
X117063Y-11225D01*
X117124Y-10783D01*
X117208Y-10361D01*
X117316Y-9959D01*
X117449Y-9578D01*
X117605Y-9217D01*
X117786Y-8876D01*
X117990Y-8557D01*
X118218Y-8259D01*
X118469Y-7983D01*
X118743Y-7729D01*
X119040Y-7497D01*
X119361Y-7287D01*
X119705Y-7098D01*
X120072Y-6932D01*
X120598Y-8517D01*
X120336Y-8633D01*
X120091Y-8764D01*
X119861Y-8912D01*
X119647Y-9077D01*
X119449Y-9257D01*
X119267Y-9454D01*
X119101Y-9667D01*
X118951Y-9897D01*
X118818Y-10140D01*
X118702Y-10394D01*
X118604Y-10659D01*
X118524Y-10936D01*
X118462Y-11223D01*
X118417Y-11522D01*
X118391Y-11831D01*
X118382Y-12152D01*
X118402Y-12650D01*
X118464Y-13120D01*
X118567Y-13561D01*
X118711Y-13974D01*
X118897Y-14358D01*
X119123Y-14714D01*
X119391Y-15041D01*
X119700Y-15340D01*
X120045Y-15607D01*
X120420Y-15838D01*
X120826Y-16034D01*
X121262Y-16194D01*
X121729Y-16319D01*
X122226Y-16408D01*
X122754Y-16461D01*
X123313Y-16479D01*
X123866Y-16460D01*
X124391Y-16405D01*
X124889Y-16312D01*
X125359Y-16182D01*
X125801Y-16015D01*
X126215Y-15811D01*
X126602Y-15570D01*
X126961Y-15292D01*
X127284Y-14982D01*
X127564Y-14646D01*
X127801Y-14284D01*
X127995Y-13896D01*
X128146Y-13482D01*
X128254Y-13041D01*
X128319Y-12575D01*
X128340Y-12082D01*
X128330Y-11763D01*
X128300Y-11454D01*
X128250Y-11155D01*
X128180Y-10866D01*
X128089Y-10587D01*
X127979Y-10319D01*
X127849Y-10060D01*
X127699Y-9811D01*
X127528Y-9573D01*
X127338Y-9344D01*
X127127Y-9126D01*
X126897Y-8917D01*
X126646Y-8719D01*
X126375Y-8531D01*
X126085Y-8353D01*
X125774Y-8184D01*
X126457Y-6818D01*
X126844Y-7018D01*
X127206Y-7238D01*
X127545Y-7476D01*
X127861Y-7734D01*
X128152Y-8012D01*
X128419Y-8308D01*
X128663Y-8624D01*
X128883Y-8960D01*
X129078Y-9311D01*
X129247Y-9677D01*
X129390Y-10056D01*
X129507Y-10450D01*
X129598Y-10857D01*
X129663Y-11278D01*
X129702Y-11712D01*
X129715Y-12161D01*
X129703Y-12619D01*
X129667Y-13062D01*
X129606Y-13489D01*
X129521Y-13900D01*
X129412Y-14296D01*
X129279Y-14676D01*
X129122Y-15040D01*
X128940Y-15388D01*
X128736Y-15719D01*
X128511Y-16029D01*
X128265Y-16319D01*
X127999Y-16588D01*
X127711Y-16838D01*
X127403Y-17067D01*
X127074Y-17275D01*
X126724Y-17464D01*
X126356Y-17631D01*
X125971Y-17776D01*
X125569Y-17899D01*
X125151Y-17999D01*
X124716Y-18078D01*
X124265Y-18133D01*
X123797Y-18167D01*
X123313Y-18178D01*
G37*
G36*
X126369Y-5437D02*
X126221Y-3808D01*
X126486Y-3760D01*
X126734Y-3697D01*
X126965Y-3617D01*
X127179Y-3521D01*
X127375Y-3410D01*
X127555Y-3282D01*
X127717Y-3138D01*
X127863Y-2978D01*
X127991Y-2802D01*
X128102Y-2610D01*
X128196Y-2401D01*
X128273Y-2177D01*
X128333Y-1937D01*
X128376Y-1680D01*
X128402Y-1408D01*
X128410Y-1119D01*
X128401Y-829D01*
X128374Y-555D01*
X128328Y-298D01*
X128263Y-56D01*
X128181Y170D01*
X128080Y380D01*
X127961Y573D01*
X127823Y751D01*
X127668Y910D01*
X127494Y1048D01*
X127303Y1165D01*
X127094Y1260D01*
X126867Y1334D01*
X126623Y1387D01*
X126361Y1419D01*
X126080Y1430D01*
X125836Y1418D01*
X125604Y1381D01*
X125387Y1321D01*
X125184Y1236D01*
X124994Y1127D01*
X124818Y994D01*
X124656Y836D01*
X124508Y655D01*
X124376Y450D01*
X124261Y224D01*
X124164Y-23D01*
X124085Y-292D01*
X124023Y-583D01*
X123979Y-895D01*
X123952Y-1228D01*
X123943Y-1583D01*
X123943Y-2476D01*
X122577Y-2476D01*
X122577Y-1618D01*
X122568Y-1303D01*
X122542Y-1006D01*
X122498Y-728D01*
X122436Y-467D01*
X122356Y-225D01*
X122259Y-1D01*
X122144Y204D01*
X122012Y392D01*
X121864Y559D01*
X121703Y704D01*
X121527Y827D01*
X121339Y927D01*
X121137Y1005D01*
X120921Y1061D01*
X120692Y1095D01*
X120449Y1106D01*
X120208Y1097D01*
X119980Y1069D01*
X119765Y1024D01*
X119563Y960D01*
X119374Y878D01*
X119198Y778D01*
X119035Y660D01*
X118885Y523D01*
X118751Y369D01*
X118634Y197D01*
X118536Y7D01*
X118455Y-200D01*
X118392Y-425D01*
X118347Y-668D01*
X118321Y-928D01*
X118312Y-1206D01*
X118320Y-1461D01*
X118345Y-1703D01*
X118387Y-1932D01*
X118445Y-2149D01*
X118520Y-2354D01*
X118612Y-2546D01*
X118721Y-2725D01*
X118846Y-2893D01*
X118986Y-3045D01*
X119140Y-3181D01*
X119308Y-3300D01*
X119490Y-3402D01*
X119685Y-3487D01*
X119894Y-3555D01*
X120116Y-3607D01*
X120352Y-3641D01*
X120230Y-5227D01*
X119861Y-5169D01*
X119514Y-5082D01*
X119187Y-4968D01*
X118881Y-4825D01*
X118596Y-4654D01*
X118331Y-4454D01*
X118088Y-4226D01*
X117865Y-3970D01*
X117666Y-3690D01*
X117493Y-3390D01*
X117347Y-3072D01*
X117228Y-2734D01*
X117135Y-2377D01*
X117068Y-2000D01*
X117029Y-1604D01*
X117015Y-1189D01*
X117029Y-738D01*
X117069Y-312D01*
X117137Y87D01*
X117231Y461D01*
X117352Y809D01*
X117501Y1131D01*
X117676Y1427D01*
X117878Y1697D01*
X118104Y1938D01*
X118352Y2147D01*
X118621Y2324D01*
X118910Y2469D01*
X119222Y2581D01*
X119554Y2662D01*
X119907Y2710D01*
X120282Y2726D01*
X120571Y2716D01*
X120846Y2685D01*
X121107Y2633D01*
X121354Y2561D01*
X121587Y2468D01*
X121807Y2354D01*
X122013Y2220D01*
X122205Y2065D01*
X122382Y1890D01*
X122545Y1697D01*
X122693Y1485D01*
X122826Y1254D01*
X122943Y1004D01*
X123046Y735D01*
X123134Y448D01*
X123208Y142D01*
X123243Y142D01*
X123290Y479D01*
X123356Y796D01*
X123443Y1094D01*
X123549Y1373D01*
X123675Y1633D01*
X123821Y1873D01*
X123986Y2095D01*
X124171Y2297D01*
X124372Y2478D01*
X124586Y2634D01*
X124812Y2767D01*
X125051Y2875D01*
X125303Y2959D01*
X125567Y3020D01*
X125844Y3056D01*
X126133Y3068D01*
X126548Y3051D01*
X126939Y3000D01*
X127306Y2915D01*
X127648Y2796D01*
X127967Y2643D01*
X128261Y2457D01*
X128532Y2236D01*
X128778Y1982D01*
X128998Y1696D01*
X129188Y1381D01*
X129349Y1037D01*
X129481Y663D01*
X129583Y261D01*
X129657Y-170D01*
X129701Y-630D01*
X129715Y-1119D01*
X129702Y-1576D01*
X129662Y-2009D01*
X129596Y-2418D01*
X129504Y-2804D01*
X129385Y-3166D01*
X129240Y-3504D01*
X129068Y-3819D01*
X128870Y-4110D01*
X128646Y-4375D01*
X128397Y-4612D01*
X128122Y-4820D01*
X127822Y-5000D01*
X127497Y-5152D01*
X127146Y-5275D01*
X126771Y-5370D01*
X126369Y-5437D01*
G37*
G36*
X111506Y-5708D02*
X110280Y-5708D01*
X101959Y-59D01*
X101959Y1596D01*
X110262Y1596D01*
X110262Y3330D01*
X111506Y3330D01*
X111506Y1596D01*
X114300Y1596D01*
X114300Y107D01*
X111506Y107D01*
X111506Y-5708D01*
G37*
%LPC*%
G36*
X110262Y-4254D02*
X110262Y107D01*
X103737Y107D01*
X104201Y-138D01*
X104779Y-480D01*
X109439Y-3641D01*
X110087Y-4114D01*
X110262Y-4254D01*
G37*
%LPD*%
G36*
X108073Y-18178D02*
X107709Y-18172D01*
X107355Y-18153D01*
X107011Y-18122D01*
X106677Y-18078D01*
X106353Y-18022D01*
X106039Y-17954D01*
X105735Y-17873D01*
X105441Y-17779D01*
X105157Y-17674D01*
X104883Y-17555D01*
X104365Y-17281D01*
X103886Y-16957D01*
X103448Y-16584D01*
X103056Y-16166D01*
X102716Y-15710D01*
X102566Y-15468D01*
X102429Y-15216D01*
X102305Y-14954D01*
X102194Y-14683D01*
X102096Y-14403D01*
X102011Y-14112D01*
X101939Y-13812D01*
X101880Y-13503D01*
X101834Y-13184D01*
X101801Y-12855D01*
X101782Y-12517D01*
X101775Y-12170D01*
X101787Y-11687D01*
X101823Y-11225D01*
X101884Y-10783D01*
X101968Y-10361D01*
X102076Y-9959D01*
X102209Y-9578D01*
X102365Y-9217D01*
X102546Y-8876D01*
X102750Y-8557D01*
X102978Y-8259D01*
X103229Y-7983D01*
X103503Y-7729D01*
X103800Y-7497D01*
X104121Y-7287D01*
X104465Y-7098D01*
X104832Y-6932D01*
X105358Y-8517D01*
X105096Y-8633D01*
X104851Y-8764D01*
X104621Y-8912D01*
X104407Y-9077D01*
X104209Y-9257D01*
X104027Y-9454D01*
X103861Y-9667D01*
X103711Y-9897D01*
X103578Y-10140D01*
X103462Y-10394D01*
X103364Y-10659D01*
X103284Y-10936D01*
X103222Y-11223D01*
X103177Y-11522D01*
X103151Y-11831D01*
X103142Y-12152D01*
X103162Y-12650D01*
X103224Y-13120D01*
X103327Y-13561D01*
X103471Y-13974D01*
X103657Y-14358D01*
X103883Y-14714D01*
X104151Y-15041D01*
X104460Y-15340D01*
X104805Y-15607D01*
X105180Y-15838D01*
X105586Y-16034D01*
X106022Y-16194D01*
X106489Y-16319D01*
X106986Y-16408D01*
X107514Y-16461D01*
X108073Y-16479D01*
X108626Y-16460D01*
X109151Y-16405D01*
X109649Y-16312D01*
X110119Y-16182D01*
X110561Y-16015D01*
X110975Y-15811D01*
X111362Y-15570D01*
X111721Y-15292D01*
X112044Y-14982D01*
X112324Y-14646D01*
X112561Y-14284D01*
X112755Y-13896D01*
X112906Y-13482D01*
X113014Y-13041D01*
X113079Y-12575D01*
X113100Y-12082D01*
X113090Y-11763D01*
X113060Y-11454D01*
X113010Y-11155D01*
X112940Y-10866D01*
X112849Y-10587D01*
X112739Y-10319D01*
X112609Y-10060D01*
X112459Y-9811D01*
X112288Y-9573D01*
X112098Y-9344D01*
X111887Y-9126D01*
X111657Y-8917D01*
X111406Y-8719D01*
X111135Y-8531D01*
X110845Y-8353D01*
X110534Y-8184D01*
X111217Y-6818D01*
X111604Y-7018D01*
X111966Y-7238D01*
X112305Y-7476D01*
X112621Y-7734D01*
X112912Y-8012D01*
X113179Y-8308D01*
X113423Y-8624D01*
X113643Y-8960D01*
X113838Y-9311D01*
X114007Y-9677D01*
X114150Y-10056D01*
X114267Y-10450D01*
X114358Y-10857D01*
X114423Y-11278D01*
X114462Y-11712D01*
X114475Y-12161D01*
X114463Y-12619D01*
X114427Y-13062D01*
X114366Y-13489D01*
X114281Y-13900D01*
X114172Y-14296D01*
X114039Y-14676D01*
X113882Y-15040D01*
X113700Y-15388D01*
X113496Y-15719D01*
X113271Y-16029D01*
X113025Y-16319D01*
X112759Y-16588D01*
X112471Y-16838D01*
X112163Y-17067D01*
X111834Y-17275D01*
X111484Y-17464D01*
X111116Y-17631D01*
X110731Y-17776D01*
X110329Y-17899D01*
X109911Y-17999D01*
X109476Y-18078D01*
X109025Y-18133D01*
X108557Y-18167D01*
X108073Y-18178D01*
G37*
G36*
X61499Y11255D02*
X61041Y11267D01*
X60598Y11303D01*
X60171Y11364D01*
X59760Y11449D01*
X59364Y11558D01*
X58984Y11691D01*
X58620Y11848D01*
X58272Y12030D01*
X57941Y12234D01*
X57631Y12459D01*
X57341Y12705D01*
X57072Y12972D01*
X56822Y13259D01*
X56593Y13567D01*
X56385Y13896D01*
X56196Y14246D01*
X56029Y14614D01*
X55884Y14999D01*
X55761Y15401D01*
X55661Y15819D01*
X55583Y16254D01*
X55527Y16705D01*
X55493Y17173D01*
X55482Y17657D01*
X55488Y18021D01*
X55507Y18375D01*
X55538Y18719D01*
X55582Y19053D01*
X55638Y19377D01*
X55706Y19691D01*
X55787Y19995D01*
X55881Y20289D01*
X55987Y20573D01*
X56105Y20847D01*
X56379Y21365D01*
X56703Y21844D01*
X57076Y22282D01*
X57494Y22674D01*
X57950Y23014D01*
X58192Y23164D01*
X58444Y23301D01*
X58706Y23425D01*
X58977Y23536D01*
X59257Y23635D01*
X59548Y23719D01*
X59848Y23791D01*
X60157Y23850D01*
X60476Y23896D01*
X60805Y23929D01*
X61143Y23948D01*
X61491Y23955D01*
X61973Y23943D01*
X62435Y23907D01*
X62877Y23846D01*
X63299Y23762D01*
X63701Y23654D01*
X64082Y23521D01*
X64443Y23365D01*
X64784Y23184D01*
X65103Y22980D01*
X65401Y22752D01*
X65677Y22501D01*
X65931Y22227D01*
X66163Y21930D01*
X66373Y21609D01*
X66562Y21265D01*
X66728Y20898D01*
X65143Y20372D01*
X65027Y20634D01*
X64896Y20879D01*
X64748Y21109D01*
X64583Y21323D01*
X64403Y21521D01*
X64206Y21703D01*
X63993Y21869D01*
X63763Y22019D01*
X63520Y22153D01*
X63266Y22268D01*
X63001Y22366D01*
X62724Y22446D01*
X62437Y22508D01*
X62138Y22553D01*
X61829Y22579D01*
X61508Y22588D01*
X61010Y22568D01*
X60540Y22506D01*
X60099Y22403D01*
X59686Y22259D01*
X59302Y22073D01*
X58946Y21847D01*
X58619Y21579D01*
X58320Y21270D01*
X58053Y20925D01*
X57822Y20550D01*
X57626Y20144D01*
X57466Y19708D01*
X57341Y19241D01*
X57252Y18744D01*
X57199Y18216D01*
X57181Y17657D01*
X57200Y17104D01*
X57255Y16579D01*
X57348Y16081D01*
X57478Y15611D01*
X57645Y15169D01*
X57849Y14755D01*
X58090Y14368D01*
X58368Y14009D01*
X58678Y13686D01*
X59014Y13406D01*
X59376Y13169D01*
X59764Y12975D01*
X60178Y12824D01*
X60619Y12716D01*
X61085Y12651D01*
X61578Y12630D01*
X61897Y12640D01*
X62206Y12670D01*
X62505Y12720D01*
X62794Y12790D01*
X63073Y12881D01*
X63341Y12991D01*
X63600Y13121D01*
X63849Y13271D01*
X64087Y13442D01*
X64316Y13632D01*
X64534Y13843D01*
X64743Y14073D01*
X64941Y14324D01*
X65129Y14595D01*
X65307Y14885D01*
X65476Y15196D01*
X66842Y14513D01*
X66642Y14126D01*
X66422Y13764D01*
X66184Y13425D01*
X65926Y13109D01*
X65648Y12818D01*
X65352Y12551D01*
X65036Y12307D01*
X64701Y12087D01*
X64349Y11892D01*
X63983Y11723D01*
X63604Y11580D01*
X63210Y11463D01*
X62803Y11372D01*
X62383Y11307D01*
X61948Y11268D01*
X61499Y11255D01*
G37*
G36*
X72383Y11255D02*
X71963Y11267D01*
X71562Y11302D01*
X71183Y11361D01*
X70824Y11443D01*
X70487Y11549D01*
X70170Y11679D01*
X69874Y11832D01*
X69598Y12008D01*
X69345Y12207D01*
X69117Y12427D01*
X68913Y12668D01*
X68733Y12930D01*
X68578Y13213D01*
X68447Y13517D01*
X68340Y13843D01*
X68258Y14189D01*
X69852Y14373D01*
X69921Y14151D01*
X70002Y13944D01*
X70095Y13751D01*
X70200Y13572D01*
X70317Y13408D01*
X70447Y13257D01*
X70589Y13122D01*
X70743Y13000D01*
X70910Y12893D01*
X71089Y12800D01*
X71280Y12721D01*
X71483Y12657D01*
X71698Y12607D01*
X71926Y12571D01*
X72166Y12549D01*
X72419Y12542D01*
X72727Y12554D01*
X73019Y12590D01*
X73293Y12650D01*
X73551Y12734D01*
X73790Y12842D01*
X74013Y12973D01*
X74219Y13129D01*
X74407Y13309D01*
X74575Y13509D01*
X74721Y13728D01*
X74844Y13964D01*
X74945Y14219D01*
X75024Y14491D01*
X75080Y14781D01*
X75114Y15089D01*
X75125Y15415D01*
X75114Y15699D01*
X75080Y15970D01*
X75023Y16226D01*
X74944Y16468D01*
X74843Y16697D01*
X74718Y16911D01*
X74572Y17112D01*
X74402Y17298D01*
X74214Y17467D01*
X74010Y17612D01*
X73790Y17736D01*
X73554Y17837D01*
X73302Y17915D01*
X73035Y17972D01*
X72752Y18005D01*
X72454Y18016D01*
X72139Y18004D01*
X71836Y17966D01*
X71544Y17903D01*
X71262Y17815D01*
X70986Y17697D01*
X70711Y17543D01*
X70435Y17355D01*
X70159Y17132D01*
X68617Y17132D01*
X69029Y23771D01*
X76045Y23771D01*
X76045Y22431D01*
X70465Y22431D01*
X70229Y18516D01*
X70493Y18700D01*
X70772Y18861D01*
X71068Y18996D01*
X71378Y19107D01*
X71705Y19193D01*
X72047Y19255D01*
X72404Y19292D01*
X72778Y19304D01*
X73221Y19287D01*
X73642Y19237D01*
X74040Y19154D01*
X74414Y19037D01*
X74766Y18887D01*
X75094Y18703D01*
X75399Y18486D01*
X75681Y18235D01*
X75935Y17958D01*
X76154Y17661D01*
X76340Y17343D01*
X76492Y17005D01*
X76611Y16647D01*
X76695Y16268D01*
X76746Y15869D01*
X76763Y15450D01*
X76745Y14975D01*
X76690Y14526D01*
X76600Y14102D01*
X76473Y13705D01*
X76309Y13334D01*
X76110Y12988D01*
X75874Y12669D01*
X75602Y12376D01*
X75298Y12113D01*
X74966Y11885D01*
X74606Y11693D01*
X74217Y11535D01*
X73801Y11413D01*
X73356Y11325D01*
X72884Y11272D01*
X72383Y11255D01*
G37*
G36*
X72743Y50625D02*
X72486Y50631D01*
X72237Y50649D01*
X71762Y50722D01*
X71317Y50843D01*
X70903Y51012D01*
X70520Y51230D01*
X70168Y51497D01*
X69846Y51812D01*
X69554Y52175D01*
X69296Y52585D01*
X69072Y53038D01*
X68882Y53536D01*
X68727Y54078D01*
X68606Y54664D01*
X68520Y55294D01*
X68468Y55968D01*
X68451Y56686D01*
X68469Y57464D01*
X68523Y58195D01*
X68612Y58881D01*
X68738Y59519D01*
X68899Y60111D01*
X69096Y60657D01*
X69329Y61156D01*
X69598Y61608D01*
X69900Y62010D01*
X70233Y62359D01*
X70596Y62654D01*
X70989Y62896D01*
X71412Y63083D01*
X71635Y63157D01*
X71866Y63217D01*
X72105Y63264D01*
X72350Y63298D01*
X72604Y63318D01*
X72865Y63325D01*
X73206Y63315D01*
X73531Y63285D01*
X73840Y63236D01*
X74133Y63168D01*
X74410Y63079D01*
X74670Y62971D01*
X74914Y62844D01*
X75142Y62696D01*
X75354Y62529D01*
X75550Y62343D01*
X75730Y62137D01*
X75893Y61911D01*
X76041Y61665D01*
X76172Y61400D01*
X76287Y61115D01*
X76386Y60811D01*
X74880Y60540D01*
X74746Y60893D01*
X74579Y61199D01*
X74376Y61458D01*
X74140Y61669D01*
X73868Y61834D01*
X73563Y61952D01*
X73222Y62022D01*
X72848Y62046D01*
X72520Y62026D01*
X72211Y61967D01*
X71922Y61869D01*
X71651Y61732D01*
X71399Y61555D01*
X71167Y61339D01*
X70953Y61084D01*
X70759Y60789D01*
X70585Y60457D01*
X70435Y60090D01*
X70308Y59688D01*
X70204Y59251D01*
X70123Y58778D01*
X70065Y58271D01*
X70030Y57728D01*
X70019Y57150D01*
X70255Y57525D01*
X70535Y57852D01*
X70859Y58131D01*
X71227Y58363D01*
X71631Y58545D01*
X72064Y58675D01*
X72291Y58721D01*
X72525Y58753D01*
X72766Y58773D01*
X73014Y58779D01*
X73430Y58762D01*
X73824Y58712D01*
X74196Y58629D01*
X74546Y58512D01*
X74874Y58362D01*
X75179Y58178D01*
X75463Y57961D01*
X75725Y57710D01*
X75960Y57432D01*
X76164Y57130D01*
X76336Y56806D01*
X76477Y56458D01*
X76587Y56087D01*
X76665Y55694D01*
X76712Y55277D01*
X76728Y54838D01*
X76711Y54362D01*
X76661Y53913D01*
X76579Y53489D01*
X76463Y53090D01*
X76314Y52718D01*
X76132Y52371D01*
X75916Y52050D01*
X75668Y51755D01*
X75390Y51490D01*
X75088Y51260D01*
X74760Y51066D01*
X74407Y50907D01*
X74028Y50784D01*
X73625Y50695D01*
X73196Y50643D01*
X72743Y50625D01*
G37*
%LPC*%
G36*
X72690Y51895D02*
X72967Y51907D01*
X73229Y51943D01*
X73475Y52003D01*
X73706Y52086D01*
X73922Y52194D01*
X74122Y52326D01*
X74307Y52482D01*
X74477Y52661D01*
X74629Y52862D01*
X74760Y53080D01*
X74872Y53317D01*
X74963Y53571D01*
X75034Y53843D01*
X75084Y54133D01*
X75115Y54442D01*
X75125Y54768D01*
X75115Y55093D01*
X75084Y55399D01*
X75033Y55686D01*
X74961Y55954D01*
X74868Y56203D01*
X74755Y56433D01*
X74622Y56643D01*
X74468Y56835D01*
X74296Y57005D01*
X74107Y57153D01*
X73903Y57278D01*
X73682Y57380D01*
X73445Y57459D01*
X73192Y57516D01*
X72923Y57550D01*
X72637Y57562D01*
X72368Y57552D01*
X72112Y57521D01*
X71870Y57471D01*
X71640Y57401D01*
X71424Y57310D01*
X71221Y57199D01*
X71031Y57069D01*
X70855Y56918D01*
X70696Y56749D01*
X70558Y56566D01*
X70441Y56367D01*
X70346Y56153D01*
X70272Y55923D01*
X70219Y55679D01*
X70187Y55419D01*
X70176Y55144D01*
X70187Y54795D01*
X70220Y54463D01*
X70275Y54146D01*
X70353Y53846D01*
X70452Y53562D01*
X70573Y53293D01*
X70716Y53042D01*
X70881Y52806D01*
X71064Y52592D01*
X71259Y52407D01*
X71466Y52251D01*
X71686Y52123D01*
X71918Y52023D01*
X72163Y51952D01*
X72420Y51909D01*
X72690Y51895D01*
G37*
%LPD*%
G36*
X61499Y50625D02*
X61041Y50637D01*
X60598Y50673D01*
X60171Y50734D01*
X59760Y50819D01*
X59364Y50928D01*
X58984Y51061D01*
X58620Y51218D01*
X58272Y51400D01*
X57941Y51604D01*
X57631Y51829D01*
X57341Y52075D01*
X57072Y52342D01*
X56822Y52629D01*
X56593Y52937D01*
X56385Y53266D01*
X56196Y53616D01*
X56029Y53984D01*
X55884Y54369D01*
X55761Y54771D01*
X55661Y55189D01*
X55583Y55624D01*
X55527Y56075D01*
X55493Y56543D01*
X55482Y57027D01*
X55488Y57391D01*
X55507Y57745D01*
X55538Y58089D01*
X55582Y58423D01*
X55638Y58747D01*
X55706Y59061D01*
X55787Y59365D01*
X55881Y59659D01*
X55987Y59943D01*
X56105Y60217D01*
X56379Y60735D01*
X56703Y61214D01*
X57076Y61652D01*
X57494Y62044D01*
X57950Y62384D01*
X58192Y62534D01*
X58444Y62671D01*
X58706Y62795D01*
X58977Y62906D01*
X59257Y63005D01*
X59548Y63089D01*
X59848Y63161D01*
X60157Y63220D01*
X60476Y63266D01*
X60805Y63299D01*
X61143Y63318D01*
X61491Y63325D01*
X61973Y63313D01*
X62435Y63277D01*
X62877Y63216D01*
X63299Y63132D01*
X63701Y63024D01*
X64082Y62891D01*
X64443Y62735D01*
X64784Y62554D01*
X65103Y62350D01*
X65401Y62122D01*
X65677Y61871D01*
X65931Y61597D01*
X66163Y61300D01*
X66373Y60979D01*
X66562Y60635D01*
X66728Y60268D01*
X65143Y59742D01*
X65027Y60004D01*
X64896Y60249D01*
X64748Y60479D01*
X64583Y60693D01*
X64403Y60891D01*
X64206Y61073D01*
X63993Y61239D01*
X63763Y61389D01*
X63520Y61523D01*
X63266Y61638D01*
X63001Y61736D01*
X62724Y61816D01*
X62437Y61878D01*
X62138Y61923D01*
X61829Y61949D01*
X61508Y61958D01*
X61010Y61938D01*
X60540Y61876D01*
X60099Y61773D01*
X59686Y61629D01*
X59302Y61443D01*
X58946Y61217D01*
X58619Y60949D01*
X58320Y60640D01*
X58053Y60295D01*
X57822Y59920D01*
X57626Y59514D01*
X57466Y59078D01*
X57341Y58611D01*
X57252Y58114D01*
X57199Y57586D01*
X57181Y57027D01*
X57200Y56474D01*
X57255Y55949D01*
X57348Y55451D01*
X57478Y54981D01*
X57645Y54539D01*
X57849Y54125D01*
X58090Y53738D01*
X58368Y53379D01*
X58678Y53056D01*
X59014Y52776D01*
X59376Y52539D01*
X59764Y52345D01*
X60178Y52194D01*
X60619Y52086D01*
X61085Y52021D01*
X61578Y52000D01*
X61897Y52010D01*
X62206Y52040D01*
X62505Y52090D01*
X62794Y52160D01*
X63073Y52251D01*
X63341Y52361D01*
X63600Y52491D01*
X63849Y52641D01*
X64087Y52812D01*
X64316Y53002D01*
X64534Y53213D01*
X64743Y53443D01*
X64941Y53694D01*
X65129Y53965D01*
X65307Y54255D01*
X65476Y54566D01*
X66842Y53883D01*
X66642Y53496D01*
X66422Y53134D01*
X66184Y52795D01*
X65926Y52479D01*
X65648Y52188D01*
X65352Y51921D01*
X65036Y51677D01*
X64701Y51457D01*
X64349Y51262D01*
X63983Y51093D01*
X63604Y50950D01*
X63210Y50833D01*
X62803Y50742D01*
X62383Y50677D01*
X61948Y50638D01*
X61499Y50625D01*
G37*
G36*
X107219Y125555D02*
X106761Y125567D01*
X106318Y125603D01*
X105891Y125664D01*
X105480Y125749D01*
X105084Y125858D01*
X104704Y125991D01*
X104340Y126148D01*
X103992Y126330D01*
X103661Y126534D01*
X103351Y126759D01*
X103061Y127005D01*
X102792Y127272D01*
X102542Y127559D01*
X102313Y127867D01*
X102105Y128196D01*
X101916Y128546D01*
X101749Y128914D01*
X101604Y129299D01*
X101481Y129701D01*
X101381Y130119D01*
X101303Y130554D01*
X101247Y131005D01*
X101213Y131473D01*
X101202Y131957D01*
X101208Y132321D01*
X101227Y132675D01*
X101258Y133019D01*
X101302Y133353D01*
X101358Y133677D01*
X101426Y133991D01*
X101507Y134295D01*
X101601Y134589D01*
X101707Y134873D01*
X101825Y135147D01*
X102099Y135665D01*
X102423Y136144D01*
X102796Y136582D01*
X103214Y136974D01*
X103670Y137314D01*
X103912Y137464D01*
X104164Y137601D01*
X104426Y137725D01*
X104697Y137836D01*
X104977Y137935D01*
X105268Y138019D01*
X105568Y138091D01*
X105877Y138150D01*
X106196Y138196D01*
X106525Y138229D01*
X106863Y138248D01*
X107211Y138255D01*
X107693Y138243D01*
X108155Y138207D01*
X108597Y138146D01*
X109019Y138062D01*
X109421Y137954D01*
X109802Y137821D01*
X110163Y137665D01*
X110504Y137484D01*
X110823Y137280D01*
X111121Y137052D01*
X111397Y136801D01*
X111651Y136527D01*
X111883Y136230D01*
X112093Y135909D01*
X112282Y135565D01*
X112448Y135198D01*
X110863Y134672D01*
X110747Y134934D01*
X110616Y135179D01*
X110468Y135409D01*
X110303Y135623D01*
X110123Y135821D01*
X109926Y136003D01*
X109713Y136169D01*
X109483Y136319D01*
X109240Y136453D01*
X108986Y136568D01*
X108721Y136666D01*
X108444Y136746D01*
X108157Y136808D01*
X107858Y136853D01*
X107549Y136879D01*
X107228Y136888D01*
X106730Y136868D01*
X106260Y136806D01*
X105819Y136703D01*
X105406Y136559D01*
X105022Y136373D01*
X104666Y136147D01*
X104339Y135879D01*
X104040Y135570D01*
X103773Y135225D01*
X103542Y134850D01*
X103346Y134444D01*
X103186Y134008D01*
X103061Y133541D01*
X102972Y133044D01*
X102919Y132516D01*
X102901Y131957D01*
X102920Y131404D01*
X102975Y130879D01*
X103068Y130381D01*
X103198Y129911D01*
X103365Y129469D01*
X103569Y129055D01*
X103810Y128668D01*
X104088Y128309D01*
X104398Y127986D01*
X104734Y127706D01*
X105096Y127469D01*
X105484Y127275D01*
X105898Y127124D01*
X106339Y127016D01*
X106805Y126951D01*
X107298Y126930D01*
X107617Y126940D01*
X107926Y126970D01*
X108225Y127020D01*
X108514Y127090D01*
X108793Y127181D01*
X109061Y127291D01*
X109320Y127421D01*
X109569Y127571D01*
X109807Y127742D01*
X110036Y127932D01*
X110254Y128143D01*
X110463Y128373D01*
X110661Y128624D01*
X110849Y128895D01*
X111027Y129185D01*
X111196Y129496D01*
X112562Y128813D01*
X112362Y128426D01*
X112142Y128064D01*
X111904Y127725D01*
X111646Y127409D01*
X111368Y127118D01*
X111072Y126851D01*
X110756Y126607D01*
X110421Y126387D01*
X110069Y126192D01*
X109703Y126023D01*
X109324Y125880D01*
X108930Y125763D01*
X108523Y125672D01*
X108103Y125607D01*
X107668Y125568D01*
X107219Y125555D01*
G37*
G36*
X118103Y125730D02*
X116457Y125730D01*
X116473Y126325D01*
X116520Y126928D01*
X116598Y127539D01*
X116708Y128157D01*
X116849Y128784D01*
X117021Y129418D01*
X117225Y130060D01*
X117460Y130709D01*
X117731Y131375D01*
X118045Y132066D01*
X118401Y132782D01*
X118799Y133522D01*
X119238Y134287D01*
X119720Y135077D01*
X120244Y135891D01*
X120810Y136731D01*
X114180Y136731D01*
X114180Y138071D01*
X122334Y138071D01*
X122334Y136792D01*
X121457Y135425D01*
X120720Y134215D01*
X120122Y133161D01*
X119662Y132264D01*
X119297Y131448D01*
X118980Y130637D01*
X118712Y129832D01*
X118493Y129032D01*
X118323Y128228D01*
X118201Y127409D01*
X118128Y126577D01*
X118110Y126155D01*
X118103Y125730D01*
G37*
G36*
X161432Y31575D02*
X160951Y31590D01*
X160497Y31633D01*
X160069Y31707D01*
X159669Y31809D01*
X159295Y31941D01*
X158949Y32102D01*
X158629Y32292D01*
X158336Y32512D01*
X158074Y32759D01*
X157848Y33030D01*
X157656Y33326D01*
X157499Y33646D01*
X157377Y33991D01*
X157289Y34361D01*
X157237Y34756D01*
X157220Y35175D01*
X157230Y35471D01*
X157263Y35755D01*
X157317Y36027D01*
X157392Y36287D01*
X157490Y36535D01*
X157609Y36771D01*
X157749Y36995D01*
X157911Y37207D01*
X158090Y37402D01*
X158281Y37578D01*
X158485Y37733D01*
X158700Y37868D01*
X158927Y37983D01*
X159166Y38077D01*
X159417Y38151D01*
X159681Y38205D01*
X159681Y38240D01*
X159435Y38308D01*
X159204Y38393D01*
X158985Y38495D01*
X158780Y38615D01*
X158588Y38751D01*
X158409Y38905D01*
X158243Y39076D01*
X158091Y39265D01*
X157954Y39466D01*
X157836Y39676D01*
X157736Y39894D01*
X157654Y40121D01*
X157590Y40356D01*
X157545Y40600D01*
X157518Y40852D01*
X157509Y41113D01*
X157525Y41457D01*
X157575Y41785D01*
X157657Y42095D01*
X157772Y42389D01*
X157921Y42667D01*
X158102Y42928D01*
X158317Y43172D01*
X158564Y43399D01*
X158839Y43604D01*
X159137Y43782D01*
X159457Y43933D01*
X159800Y44056D01*
X160165Y44152D01*
X160554Y44220D01*
X160964Y44261D01*
X161397Y44275D01*
X161841Y44261D01*
X162260Y44221D01*
X162656Y44154D01*
X163028Y44060D01*
X163375Y43939D01*
X163699Y43792D01*
X163999Y43618D01*
X164275Y43416D01*
X164522Y43192D01*
X164736Y42949D01*
X164918Y42688D01*
X165066Y42407D01*
X165182Y42107D01*
X165264Y41789D01*
X165313Y41452D01*
X165330Y41095D01*
X165321Y40835D01*
X165293Y40582D01*
X165247Y40339D01*
X165183Y40103D01*
X165101Y39877D01*
X165000Y39658D01*
X164881Y39449D01*
X164743Y39247D01*
X164590Y39059D01*
X164423Y38890D01*
X164405Y38875D01*
X164243Y38739D01*
X164049Y38606D01*
X163842Y38491D01*
X163621Y38395D01*
X163388Y38317D01*
X163140Y38258D01*
X163140Y38223D01*
X163428Y38165D01*
X163699Y38088D01*
X163953Y37991D01*
X164191Y37876D01*
X164413Y37741D01*
X164618Y37586D01*
X164807Y37413D01*
X164946Y37257D01*
X164980Y37220D01*
X165134Y37011D01*
X165267Y36789D01*
X165380Y36555D01*
X165472Y36308D01*
X165544Y36048D01*
X165595Y35775D01*
X165626Y35490D01*
X165636Y35192D01*
X165620Y34777D01*
X165569Y34385D01*
X165484Y34017D01*
X165365Y33673D01*
X165212Y33351D01*
X165026Y33054D01*
X164805Y32780D01*
X164550Y32530D01*
X164264Y32306D01*
X163948Y32112D01*
X163603Y31948D01*
X163228Y31813D01*
X162823Y31709D01*
X162389Y31635D01*
X161926Y31590D01*
X161432Y31575D01*
G37*
%LPC*%
G36*
X161450Y32757D02*
X161762Y32767D01*
X162053Y32796D01*
X162323Y32844D01*
X162573Y32912D01*
X162803Y32998D01*
X163012Y33105D01*
X163200Y33230D01*
X163368Y33375D01*
X163516Y33541D01*
X163644Y33729D01*
X163752Y33941D01*
X163841Y34175D01*
X163910Y34432D01*
X163959Y34712D01*
X163989Y35015D01*
X163999Y35341D01*
X163988Y35619D01*
X163956Y35879D01*
X163903Y36122D01*
X163828Y36347D01*
X163732Y36555D01*
X163614Y36744D01*
X163476Y36916D01*
X163315Y37071D01*
X163136Y37207D01*
X162939Y37326D01*
X162725Y37426D01*
X162494Y37508D01*
X162246Y37571D01*
X161980Y37617D01*
X161697Y37644D01*
X161397Y37653D01*
X161106Y37643D01*
X160830Y37614D01*
X160571Y37565D01*
X160329Y37497D01*
X160103Y37409D01*
X159893Y37301D01*
X159700Y37174D01*
X159523Y37027D01*
X159365Y36863D01*
X159228Y36685D01*
X159112Y36491D01*
X159017Y36284D01*
X158943Y36061D01*
X158891Y35824D01*
X158859Y35572D01*
X158849Y35306D01*
X158859Y34997D01*
X158889Y34709D01*
X158940Y34440D01*
X159011Y34191D01*
X159103Y33962D01*
X159214Y33753D01*
X159347Y33564D01*
X159499Y33394D01*
X159672Y33245D01*
X159865Y33116D01*
X160078Y33006D01*
X160312Y32917D01*
X160566Y32847D01*
X160840Y32797D01*
X161135Y32767D01*
X161450Y32757D01*
G37*
G36*
X161415Y38836D02*
X161685Y38844D01*
X161938Y38868D01*
X162175Y38908D01*
X162395Y38964D01*
X162598Y39036D01*
X162785Y39124D01*
X162956Y39228D01*
X163110Y39348D01*
X163246Y39486D01*
X163364Y39644D01*
X163465Y39822D01*
X163546Y40019D01*
X163610Y40237D01*
X163656Y40474D01*
X163683Y40731D01*
X163692Y41008D01*
X163683Y41261D01*
X163656Y41498D01*
X163611Y41719D01*
X163549Y41924D01*
X163468Y42112D01*
X163369Y42283D01*
X163253Y42439D01*
X163118Y42578D01*
X162966Y42700D01*
X162796Y42807D01*
X162607Y42897D01*
X162401Y42970D01*
X162177Y43027D01*
X161935Y43068D01*
X161675Y43093D01*
X161397Y43101D01*
X161128Y43093D01*
X160874Y43068D01*
X160638Y43027D01*
X160417Y42970D01*
X160214Y42896D01*
X160027Y42805D01*
X159856Y42699D01*
X159703Y42576D01*
X159566Y42436D01*
X159448Y42281D01*
X159348Y42109D01*
X159266Y41921D01*
X159202Y41717D01*
X159157Y41497D01*
X159129Y41260D01*
X159120Y41008D01*
X159129Y40751D01*
X159158Y40509D01*
X159204Y40284D01*
X159270Y40074D01*
X159354Y39880D01*
X159458Y39701D01*
X159579Y39539D01*
X159720Y39392D01*
X159878Y39261D01*
X160051Y39149D01*
X160240Y39053D01*
X160444Y38975D01*
X160663Y38914D01*
X160898Y38870D01*
X161149Y38844D01*
X161415Y38836D01*
G37*
%LPD*%
G36*
X150399Y31575D02*
X149941Y31587D01*
X149498Y31623D01*
X149071Y31684D01*
X148660Y31769D01*
X148264Y31878D01*
X147884Y32011D01*
X147520Y32168D01*
X147172Y32350D01*
X146841Y32554D01*
X146531Y32779D01*
X146241Y33025D01*
X145972Y33292D01*
X145722Y33579D01*
X145493Y33887D01*
X145285Y34216D01*
X145096Y34566D01*
X144929Y34934D01*
X144784Y35319D01*
X144661Y35721D01*
X144561Y36139D01*
X144483Y36574D01*
X144427Y37025D01*
X144393Y37493D01*
X144382Y37977D01*
X144388Y38341D01*
X144407Y38695D01*
X144438Y39039D01*
X144482Y39373D01*
X144538Y39697D01*
X144606Y40011D01*
X144687Y40315D01*
X144781Y40609D01*
X144887Y40893D01*
X145005Y41167D01*
X145279Y41685D01*
X145603Y42164D01*
X145976Y42602D01*
X146394Y42994D01*
X146850Y43334D01*
X147092Y43484D01*
X147344Y43621D01*
X147606Y43745D01*
X147877Y43856D01*
X148157Y43955D01*
X148448Y44039D01*
X148748Y44111D01*
X149057Y44170D01*
X149376Y44216D01*
X149705Y44249D01*
X150043Y44268D01*
X150391Y44275D01*
X150873Y44263D01*
X151335Y44227D01*
X151777Y44166D01*
X152199Y44082D01*
X152601Y43974D01*
X152982Y43841D01*
X153343Y43685D01*
X153684Y43504D01*
X154003Y43300D01*
X154301Y43072D01*
X154577Y42821D01*
X154831Y42547D01*
X155063Y42250D01*
X155273Y41929D01*
X155462Y41585D01*
X155628Y41218D01*
X154043Y40692D01*
X153927Y40954D01*
X153796Y41199D01*
X153648Y41429D01*
X153483Y41643D01*
X153303Y41841D01*
X153106Y42023D01*
X152893Y42189D01*
X152663Y42339D01*
X152420Y42473D01*
X152166Y42588D01*
X151901Y42686D01*
X151624Y42766D01*
X151337Y42828D01*
X151038Y42873D01*
X150729Y42899D01*
X150408Y42908D01*
X149910Y42888D01*
X149440Y42826D01*
X148999Y42723D01*
X148586Y42579D01*
X148202Y42393D01*
X147846Y42167D01*
X147519Y41899D01*
X147220Y41590D01*
X146953Y41245D01*
X146722Y40870D01*
X146526Y40464D01*
X146366Y40028D01*
X146241Y39561D01*
X146152Y39064D01*
X146099Y38536D01*
X146081Y37977D01*
X146100Y37424D01*
X146155Y36899D01*
X146248Y36401D01*
X146378Y35931D01*
X146545Y35489D01*
X146749Y35075D01*
X146990Y34688D01*
X147268Y34329D01*
X147578Y34006D01*
X147914Y33726D01*
X148276Y33489D01*
X148664Y33295D01*
X149078Y33144D01*
X149519Y33036D01*
X149985Y32971D01*
X150478Y32950D01*
X150797Y32960D01*
X151106Y32990D01*
X151405Y33040D01*
X151694Y33110D01*
X151973Y33201D01*
X152241Y33311D01*
X152500Y33441D01*
X152749Y33591D01*
X152987Y33762D01*
X153216Y33952D01*
X153434Y34163D01*
X153643Y34393D01*
X153841Y34644D01*
X154029Y34915D01*
X154207Y35205D01*
X154376Y35516D01*
X155742Y34833D01*
X155542Y34446D01*
X155322Y34084D01*
X155084Y33745D01*
X154826Y33429D01*
X154548Y33138D01*
X154252Y32871D01*
X153936Y32627D01*
X153601Y32407D01*
X153249Y32212D01*
X152883Y32043D01*
X152504Y31900D01*
X152110Y31783D01*
X151703Y31692D01*
X151283Y31627D01*
X150848Y31588D01*
X150399Y31575D01*
G37*
G36*
X297956Y79336D02*
X292044Y79336D01*
X292044Y81292D01*
X292055Y81656D01*
X292091Y82000D01*
X292150Y82322D01*
X292232Y82622D01*
X292338Y82901D01*
X292467Y83159D01*
X292620Y83395D01*
X292797Y83610D01*
X292995Y83801D01*
X293213Y83967D01*
X293451Y84107D01*
X293709Y84222D01*
X293987Y84311D01*
X294284Y84375D01*
X294602Y84413D01*
X294939Y84426D01*
X295382Y84404D01*
X295797Y84337D01*
X296182Y84226D01*
X296540Y84069D01*
X296863Y83873D01*
X297146Y83638D01*
X297388Y83367D01*
X297591Y83058D01*
X297751Y82718D01*
X297865Y82353D01*
X297933Y81963D01*
X297956Y81548D01*
X297956Y79336D01*
G37*
%LPC*%
G36*
X297314Y80138D02*
X297314Y81455D01*
X297296Y81771D01*
X297243Y82066D01*
X297154Y82342D01*
X297029Y82599D01*
X296870Y82831D01*
X296680Y83035D01*
X296459Y83210D01*
X296206Y83356D01*
X295926Y83472D01*
X295621Y83554D01*
X295292Y83604D01*
X294939Y83620D01*
X294672Y83611D01*
X294422Y83583D01*
X294188Y83536D01*
X293970Y83470D01*
X293769Y83385D01*
X293584Y83282D01*
X293415Y83159D01*
X293263Y83018D01*
X293127Y82859D01*
X293010Y82684D01*
X292911Y82491D01*
X292830Y82281D01*
X292767Y82055D01*
X292722Y81812D01*
X292695Y81552D01*
X292686Y81275D01*
X292686Y80138D01*
X297314Y80138D01*
G37*
%LPD*%
G36*
X297956Y73117D02*
X292044Y73117D01*
X292044Y74049D01*
X297113Y77246D01*
X296403Y77209D01*
X295921Y77196D01*
X292044Y77196D01*
X292044Y77918D01*
X297956Y77918D01*
X297956Y76953D01*
X292921Y73789D01*
X293328Y73810D01*
X294028Y73831D01*
X297956Y73831D01*
X297956Y73117D01*
G37*
G36*
X294973Y66157D02*
X294623Y66169D01*
X294294Y66205D01*
X293985Y66266D01*
X293696Y66350D01*
X293428Y66459D01*
X293179Y66592D01*
X292952Y66748D01*
X292744Y66929D01*
X292559Y67132D01*
X292399Y67354D01*
X292264Y67596D01*
X292153Y67858D01*
X292066Y68139D01*
X292005Y68439D01*
X291968Y68759D01*
X291956Y69099D01*
X291976Y69567D01*
X292038Y69988D01*
X292142Y70364D01*
X292287Y70693D01*
X292478Y70982D01*
X292718Y71236D01*
X293008Y71454D01*
X293349Y71637D01*
X293575Y70874D01*
X293341Y70736D01*
X293140Y70574D01*
X292973Y70389D01*
X292841Y70179D01*
X292740Y69944D01*
X292668Y69683D01*
X292625Y69394D01*
X292610Y69078D01*
X292620Y68829D01*
X292649Y68596D01*
X292697Y68378D01*
X292765Y68175D01*
X292852Y67986D01*
X292958Y67813D01*
X293084Y67655D01*
X293229Y67513D01*
X293392Y67386D01*
X293570Y67276D01*
X293764Y67183D01*
X293974Y67107D01*
X294200Y67047D01*
X294442Y67005D01*
X294699Y66980D01*
X294973Y66971D01*
X295245Y66980D01*
X295503Y67007D01*
X295746Y67052D01*
X295975Y67115D01*
X296189Y67196D01*
X296388Y67295D01*
X296572Y67411D01*
X296741Y67546D01*
X296893Y67697D01*
X297025Y67861D01*
X297136Y68039D01*
X297227Y68231D01*
X297298Y68437D01*
X297349Y68656D01*
X297379Y68889D01*
X297390Y69136D01*
X297379Y69421D01*
X297345Y69696D01*
X297290Y69961D01*
X297213Y70217D01*
X297117Y70456D01*
X297006Y70671D01*
X296878Y70862D01*
X296735Y71029D01*
X295669Y71029D01*
X295669Y69262D01*
X294998Y69262D01*
X294998Y71767D01*
X297037Y71767D01*
X297263Y71519D01*
X297461Y71245D01*
X297633Y70943D01*
X297778Y70616D01*
X297892Y70267D01*
X297974Y69905D01*
X298024Y69528D01*
X298040Y69136D01*
X298017Y68689D01*
X297948Y68273D01*
X297832Y67889D01*
X297671Y67538D01*
X297466Y67222D01*
X297220Y66946D01*
X296934Y66709D01*
X296607Y66512D01*
X296244Y66357D01*
X295851Y66246D01*
X295427Y66179D01*
X294973Y66157D01*
G37*
G36*
X295416Y107575D02*
X289504Y107575D01*
X289504Y109530D01*
X289515Y109895D01*
X289551Y110239D01*
X289610Y110561D01*
X289692Y110861D01*
X289798Y111140D01*
X289927Y111398D01*
X290080Y111634D01*
X290257Y111849D01*
X290455Y112040D01*
X290673Y112206D01*
X290911Y112346D01*
X291169Y112461D01*
X291447Y112550D01*
X291744Y112614D01*
X292062Y112652D01*
X292399Y112665D01*
X292842Y112643D01*
X293257Y112576D01*
X293642Y112464D01*
X294000Y112308D01*
X294323Y112111D01*
X294606Y111877D01*
X294848Y111606D01*
X295051Y111297D01*
X295211Y110957D01*
X295325Y110592D01*
X295393Y110202D01*
X295416Y109786D01*
X295416Y107575D01*
G37*
%LPC*%
G36*
X294774Y108376D02*
X294774Y109694D01*
X294756Y110009D01*
X294703Y110305D01*
X294614Y110581D01*
X294489Y110837D01*
X294330Y111070D01*
X294140Y111273D01*
X293919Y111448D01*
X293666Y111595D01*
X293386Y111711D01*
X293081Y111793D01*
X292752Y111843D01*
X292399Y111859D01*
X292132Y111850D01*
X291882Y111822D01*
X291648Y111775D01*
X291430Y111709D01*
X291229Y111624D01*
X291044Y111521D01*
X290875Y111398D01*
X290723Y111257D01*
X290587Y111098D01*
X290470Y110922D01*
X290371Y110730D01*
X290290Y110520D01*
X290227Y110294D01*
X290182Y110051D01*
X290155Y109790D01*
X290146Y109514D01*
X290146Y108376D01*
X294774Y108376D01*
G37*
%LPD*%
G36*
X295416Y101356D02*
X289504Y101356D01*
X289504Y102288D01*
X294573Y105485D01*
X293863Y105447D01*
X293381Y105435D01*
X289504Y105435D01*
X289504Y106157D01*
X295416Y106157D01*
X295416Y105192D01*
X290381Y102028D01*
X290788Y102049D01*
X291488Y102070D01*
X295416Y102070D01*
X295416Y101356D01*
G37*
G36*
X292433Y94396D02*
X292083Y94408D01*
X291754Y94444D01*
X291445Y94505D01*
X291156Y94589D01*
X290888Y94698D01*
X290639Y94830D01*
X290412Y94987D01*
X290204Y95168D01*
X290019Y95371D01*
X289859Y95593D01*
X289724Y95835D01*
X289613Y96096D01*
X289526Y96377D01*
X289465Y96678D01*
X289428Y96998D01*
X289416Y97337D01*
X289436Y97805D01*
X289498Y98227D01*
X289602Y98603D01*
X289747Y98932D01*
X289938Y99221D01*
X290178Y99474D01*
X290468Y99693D01*
X290809Y99876D01*
X291035Y99112D01*
X290801Y98975D01*
X290600Y98813D01*
X290433Y98627D01*
X290301Y98418D01*
X290200Y98183D01*
X290128Y97921D01*
X290085Y97632D01*
X290070Y97316D01*
X290080Y97068D01*
X290109Y96835D01*
X290157Y96616D01*
X290225Y96413D01*
X290312Y96225D01*
X290418Y96052D01*
X290544Y95894D01*
X290689Y95751D01*
X290852Y95624D01*
X291030Y95514D01*
X291224Y95421D01*
X291434Y95345D01*
X291660Y95286D01*
X291902Y95244D01*
X292159Y95218D01*
X292433Y95210D01*
X292705Y95219D01*
X292963Y95246D01*
X293206Y95291D01*
X293435Y95354D01*
X293649Y95435D01*
X293848Y95533D01*
X294032Y95650D01*
X294201Y95785D01*
X294353Y95935D01*
X294485Y96100D01*
X294596Y96278D01*
X294687Y96470D01*
X294758Y96676D01*
X294809Y96895D01*
X294839Y97128D01*
X294850Y97375D01*
X294839Y97660D01*
X294805Y97935D01*
X294750Y98200D01*
X294673Y98456D01*
X294577Y98695D01*
X294466Y98909D01*
X294338Y99101D01*
X294195Y99268D01*
X293129Y99268D01*
X293129Y97501D01*
X292458Y97501D01*
X292458Y100006D01*
X294497Y100006D01*
X294723Y99758D01*
X294921Y99483D01*
X295093Y99182D01*
X295238Y98854D01*
X295352Y98506D01*
X295434Y98144D01*
X295484Y97767D01*
X295500Y97375D01*
X295477Y96928D01*
X295408Y96512D01*
X295292Y96128D01*
X295131Y95776D01*
X294926Y95461D01*
X294680Y95184D01*
X294394Y94948D01*
X294067Y94751D01*
X293704Y94595D01*
X293311Y94485D01*
X292887Y94418D01*
X292433Y94396D01*
G37*
G36*
X295416Y113743D02*
X294774Y113743D01*
X294774Y115250D01*
X290225Y115250D01*
X291178Y113915D01*
X290465Y113915D01*
X289504Y115313D01*
X289504Y116009D01*
X294774Y116009D01*
X294774Y117449D01*
X295416Y117449D01*
X295416Y113743D01*
G37*
G36*
X80786Y115195D02*
X74874Y115195D01*
X74874Y117150D01*
X74885Y117515D01*
X74921Y117859D01*
X74980Y118181D01*
X75062Y118481D01*
X75168Y118760D01*
X75297Y119018D01*
X75450Y119254D01*
X75627Y119469D01*
X75825Y119660D01*
X76043Y119826D01*
X76281Y119966D01*
X76539Y120081D01*
X76817Y120170D01*
X77114Y120234D01*
X77432Y120272D01*
X77769Y120285D01*
X78212Y120263D01*
X78627Y120196D01*
X79012Y120084D01*
X79370Y119928D01*
X79693Y119731D01*
X79976Y119497D01*
X80218Y119226D01*
X80421Y118917D01*
X80581Y118577D01*
X80695Y118212D01*
X80763Y117822D01*
X80786Y117406D01*
X80786Y115195D01*
G37*
%LPC*%
G36*
X80144Y115996D02*
X80144Y117314D01*
X80126Y117629D01*
X80073Y117925D01*
X79984Y118201D01*
X79859Y118457D01*
X79700Y118690D01*
X79510Y118893D01*
X79289Y119068D01*
X79036Y119215D01*
X78756Y119331D01*
X78451Y119413D01*
X78122Y119463D01*
X77769Y119479D01*
X77502Y119470D01*
X77252Y119442D01*
X77018Y119395D01*
X76800Y119329D01*
X76599Y119244D01*
X76414Y119141D01*
X76245Y119018D01*
X76093Y118877D01*
X75957Y118718D01*
X75840Y118542D01*
X75741Y118350D01*
X75660Y118140D01*
X75597Y117914D01*
X75552Y117671D01*
X75525Y117410D01*
X75516Y117134D01*
X75516Y115996D01*
X80144Y115996D01*
G37*
%LPD*%
G36*
X80786Y108976D02*
X74874Y108976D01*
X74874Y109908D01*
X79943Y113105D01*
X79233Y113067D01*
X78751Y113055D01*
X74874Y113055D01*
X74874Y113777D01*
X80786Y113777D01*
X80786Y112812D01*
X75751Y109648D01*
X76158Y109669D01*
X76858Y109690D01*
X80786Y109690D01*
X80786Y108976D01*
G37*
G36*
X77803Y102016D02*
X77453Y102028D01*
X77124Y102064D01*
X76815Y102125D01*
X76526Y102209D01*
X76258Y102318D01*
X76009Y102450D01*
X75782Y102607D01*
X75574Y102788D01*
X75389Y102991D01*
X75229Y103213D01*
X75094Y103455D01*
X74983Y103716D01*
X74896Y103997D01*
X74835Y104298D01*
X74798Y104618D01*
X74786Y104957D01*
X74806Y105425D01*
X74868Y105847D01*
X74972Y106223D01*
X75117Y106552D01*
X75308Y106841D01*
X75548Y107094D01*
X75838Y107313D01*
X76179Y107496D01*
X76405Y106732D01*
X76171Y106595D01*
X75970Y106433D01*
X75803Y106247D01*
X75671Y106038D01*
X75570Y105803D01*
X75498Y105541D01*
X75455Y105252D01*
X75440Y104936D01*
X75450Y104688D01*
X75479Y104455D01*
X75527Y104236D01*
X75595Y104033D01*
X75682Y103845D01*
X75788Y103672D01*
X75914Y103514D01*
X76059Y103371D01*
X76222Y103244D01*
X76400Y103134D01*
X76594Y103041D01*
X76804Y102965D01*
X77030Y102906D01*
X77272Y102864D01*
X77529Y102838D01*
X77803Y102830D01*
X78075Y102839D01*
X78333Y102866D01*
X78576Y102911D01*
X78805Y102974D01*
X79019Y103055D01*
X79218Y103153D01*
X79402Y103270D01*
X79571Y103405D01*
X79723Y103555D01*
X79855Y103720D01*
X79966Y103898D01*
X80057Y104090D01*
X80128Y104296D01*
X80179Y104515D01*
X80209Y104748D01*
X80220Y104995D01*
X80209Y105280D01*
X80175Y105555D01*
X80120Y105820D01*
X80043Y106076D01*
X79947Y106315D01*
X79836Y106529D01*
X79708Y106721D01*
X79565Y106888D01*
X78499Y106888D01*
X78499Y105121D01*
X77828Y105121D01*
X77828Y107626D01*
X79867Y107626D01*
X80093Y107378D01*
X80291Y107103D01*
X80463Y106802D01*
X80608Y106474D01*
X80722Y106126D01*
X80804Y105764D01*
X80854Y105387D01*
X80870Y104995D01*
X80847Y104548D01*
X80778Y104132D01*
X80662Y103748D01*
X80501Y103396D01*
X80296Y103081D01*
X80050Y102804D01*
X79764Y102568D01*
X79437Y102371D01*
X79074Y102215D01*
X78681Y102105D01*
X78257Y102038D01*
X77803Y102016D01*
G37*
G36*
X80786Y121141D02*
X80253Y121141D01*
X80015Y121254D01*
X79791Y121379D01*
X79582Y121515D01*
X79387Y121663D01*
X79029Y121980D01*
X78707Y122312D01*
X78142Y122985D01*
X77882Y123303D01*
X77622Y123587D01*
X77356Y123830D01*
X77077Y124022D01*
X76929Y124094D01*
X76772Y124146D01*
X76606Y124177D01*
X76430Y124187D01*
X76201Y124170D01*
X75998Y124116D01*
X75823Y124027D01*
X75675Y123902D01*
X75558Y123745D01*
X75474Y123561D01*
X75423Y123349D01*
X75407Y123109D01*
X75423Y122878D01*
X75472Y122669D01*
X75554Y122481D01*
X75669Y122314D01*
X75813Y122174D01*
X75984Y122066D01*
X76181Y121990D01*
X76405Y121947D01*
X76334Y121175D01*
X76161Y121202D01*
X75997Y121244D01*
X75843Y121299D01*
X75697Y121367D01*
X75561Y121449D01*
X75433Y121545D01*
X75205Y121777D01*
X75022Y122054D01*
X74949Y122207D01*
X74890Y122369D01*
X74845Y122540D01*
X74812Y122720D01*
X74792Y122910D01*
X74786Y123109D01*
X74792Y123326D01*
X74812Y123530D01*
X74845Y123721D01*
X74891Y123899D01*
X74950Y124065D01*
X75023Y124217D01*
X75108Y124357D01*
X75207Y124483D01*
X75318Y124596D01*
X75440Y124693D01*
X75573Y124776D01*
X75718Y124844D01*
X75873Y124896D01*
X76039Y124934D01*
X76217Y124956D01*
X76405Y124964D01*
X76577Y124954D01*
X76748Y124924D01*
X76919Y124875D01*
X77089Y124806D01*
X77259Y124718D01*
X77429Y124611D01*
X77769Y124338D01*
X78202Y123886D01*
X78822Y123151D01*
X79197Y122718D01*
X79533Y122383D01*
X79845Y122138D01*
X79996Y122045D01*
X80144Y121972D01*
X80144Y125056D01*
X80786Y125056D01*
X80786Y121141D01*
G37*
G36*
X174556Y83820D02*
X172883Y83820D01*
X172883Y96161D01*
X178690Y96161D01*
X179196Y96146D01*
X179672Y96102D01*
X180119Y96030D01*
X180537Y95928D01*
X180924Y95796D01*
X181282Y95636D01*
X181610Y95447D01*
X181908Y95228D01*
X182174Y94983D01*
X182405Y94716D01*
X182600Y94426D01*
X182759Y94112D01*
X182883Y93776D01*
X182972Y93417D01*
X183025Y93036D01*
X183043Y92631D01*
X183030Y92294D01*
X182993Y91971D01*
X182930Y91661D01*
X182842Y91365D01*
X182730Y91083D01*
X182592Y90815D01*
X182429Y90560D01*
X182241Y90319D01*
X182031Y90095D01*
X181802Y89894D01*
X181555Y89713D01*
X181444Y89647D01*
X181288Y89555D01*
X181002Y89418D01*
X180697Y89302D01*
X180373Y89209D01*
X180030Y89136D01*
X181521Y86873D01*
X183533Y83820D01*
X181606Y83820D01*
X178401Y88944D01*
X174556Y88944D01*
X174556Y83820D01*
G37*
%LPC*%
G36*
X178593Y90266D02*
X178915Y90276D01*
X179217Y90305D01*
X179501Y90353D01*
X179766Y90421D01*
X180012Y90507D01*
X180240Y90614D01*
X180448Y90739D01*
X180638Y90884D01*
X180808Y91046D01*
X180955Y91223D01*
X181079Y91416D01*
X181180Y91625D01*
X181259Y91849D01*
X181316Y92088D01*
X181350Y92343D01*
X181361Y92614D01*
X181350Y92875D01*
X181315Y93120D01*
X181258Y93350D01*
X181178Y93563D01*
X181075Y93760D01*
X180950Y93941D01*
X180801Y94107D01*
X180630Y94256D01*
X180437Y94388D01*
X180224Y94503D01*
X179991Y94600D01*
X179737Y94680D01*
X179464Y94741D01*
X179170Y94785D01*
X178857Y94812D01*
X178523Y94821D01*
X174556Y94821D01*
X174556Y90266D01*
X178593Y90266D01*
G37*
%LPD*%
G36*
X193480Y83820D02*
X185746Y83820D01*
X185746Y85160D01*
X188891Y85160D01*
X188891Y94654D01*
X186105Y92666D01*
X186105Y94155D01*
X189022Y96161D01*
X190476Y96161D01*
X190476Y85160D01*
X193480Y85160D01*
X193480Y83820D01*
G37*
G36*
X123210Y102695D02*
X122949Y102701D01*
X122695Y102720D01*
X122450Y102752D01*
X122213Y102796D01*
X121763Y102923D01*
X121347Y103100D01*
X120964Y103328D01*
X120614Y103606D01*
X120297Y103935D01*
X120014Y104315D01*
X119763Y104744D01*
X119546Y105218D01*
X119362Y105740D01*
X119212Y106308D01*
X119095Y106922D01*
X119012Y107583D01*
X118962Y108291D01*
X118945Y109045D01*
X118961Y109815D01*
X119010Y110535D01*
X119091Y111205D01*
X119205Y111826D01*
X119350Y112396D01*
X119529Y112917D01*
X119740Y113388D01*
X119983Y113809D01*
X120261Y114181D01*
X120577Y114503D01*
X120931Y114775D01*
X121322Y114998D01*
X121751Y115172D01*
X121979Y115240D01*
X122217Y115296D01*
X122465Y115339D01*
X122721Y115370D01*
X122987Y115389D01*
X123263Y115395D01*
X123531Y115388D01*
X123790Y115370D01*
X124041Y115338D01*
X124282Y115295D01*
X124514Y115238D01*
X124738Y115169D01*
X125158Y114994D01*
X125543Y114769D01*
X125891Y114493D01*
X126204Y114168D01*
X126482Y113792D01*
X126725Y113367D01*
X126936Y112894D01*
X127114Y112373D01*
X127260Y111804D01*
X127374Y111186D01*
X127455Y110521D01*
X127503Y109807D01*
X127520Y109045D01*
X127503Y108295D01*
X127452Y107590D01*
X127366Y106932D01*
X127247Y106319D01*
X127094Y105751D01*
X126906Y105230D01*
X126685Y104754D01*
X126429Y104324D01*
X126140Y103942D01*
X125819Y103611D01*
X125465Y103331D01*
X125079Y103102D01*
X124661Y102924D01*
X124210Y102797D01*
X123972Y102752D01*
X123726Y102720D01*
X123472Y102701D01*
X123210Y102695D01*
G37*
%LPC*%
G36*
X123228Y103982D02*
X123565Y104002D01*
X123878Y104060D01*
X124168Y104157D01*
X124434Y104293D01*
X124678Y104468D01*
X124898Y104682D01*
X125095Y104935D01*
X125269Y105226D01*
X125421Y105558D01*
X125552Y105931D01*
X125664Y106346D01*
X125755Y106803D01*
X125826Y107301D01*
X125876Y107840D01*
X125907Y108422D01*
X125917Y109045D01*
X125907Y109690D01*
X125878Y110288D01*
X125830Y110841D01*
X125762Y111348D01*
X125676Y111809D01*
X125570Y112224D01*
X125444Y112593D01*
X125299Y112916D01*
X125132Y113197D01*
X124941Y113441D01*
X124724Y113647D01*
X124482Y113816D01*
X124214Y113947D01*
X123922Y114041D01*
X123605Y114097D01*
X123263Y114116D01*
X122912Y114097D01*
X122587Y114042D01*
X122288Y113950D01*
X122014Y113820D01*
X121766Y113654D01*
X121543Y113451D01*
X121346Y113211D01*
X121174Y112934D01*
X121025Y112614D01*
X120896Y112247D01*
X120787Y111832D01*
X120698Y111370D01*
X120628Y110860D01*
X120579Y110303D01*
X120549Y109698D01*
X120539Y109045D01*
X120549Y108410D01*
X120579Y107819D01*
X120630Y107272D01*
X120700Y106770D01*
X120791Y106311D01*
X120901Y105897D01*
X121032Y105526D01*
X121183Y105200D01*
X121356Y104914D01*
X121552Y104667D01*
X121772Y104458D01*
X122016Y104287D01*
X122284Y104154D01*
X122575Y104058D01*
X122889Y104001D01*
X123228Y103982D01*
G37*
%LPD*%
G36*
X98451Y102870D02*
X96778Y102870D01*
X96778Y115211D01*
X102585Y115211D01*
X103092Y115196D01*
X103568Y115152D01*
X104015Y115080D01*
X104432Y114978D01*
X104820Y114846D01*
X105177Y114686D01*
X105506Y114497D01*
X105804Y114278D01*
X106070Y114033D01*
X106300Y113766D01*
X106495Y113476D01*
X106655Y113162D01*
X106779Y112826D01*
X106867Y112467D01*
X106921Y112086D01*
X106938Y111681D01*
X106926Y111344D01*
X106888Y111021D01*
X106826Y110711D01*
X106738Y110415D01*
X106625Y110133D01*
X106487Y109865D01*
X106325Y109610D01*
X106137Y109369D01*
X105927Y109145D01*
X105698Y108944D01*
X105450Y108763D01*
X105339Y108697D01*
X105183Y108605D01*
X104897Y108468D01*
X104592Y108352D01*
X104268Y108259D01*
X103925Y108186D01*
X105417Y105923D01*
X107429Y102870D01*
X105502Y102870D01*
X102296Y107994D01*
X98451Y107994D01*
X98451Y102870D01*
G37*
%LPC*%
G36*
X102489Y109316D02*
X102810Y109326D01*
X103113Y109355D01*
X103396Y109403D01*
X103661Y109471D01*
X103908Y109557D01*
X104135Y109664D01*
X104344Y109789D01*
X104534Y109934D01*
X104703Y110096D01*
X104850Y110273D01*
X104974Y110466D01*
X105076Y110675D01*
X105155Y110899D01*
X105211Y111138D01*
X105245Y111393D01*
X105257Y111664D01*
X105245Y111925D01*
X105211Y112170D01*
X105154Y112400D01*
X105074Y112613D01*
X104971Y112810D01*
X104845Y112991D01*
X104697Y113157D01*
X104525Y113306D01*
X104332Y113438D01*
X104119Y113553D01*
X103886Y113650D01*
X103633Y113730D01*
X103360Y113791D01*
X103066Y113835D01*
X102753Y113862D01*
X102419Y113871D01*
X98451Y113871D01*
X98451Y109316D01*
X102489Y109316D01*
G37*
%LPD*%
G36*
X117376Y102870D02*
X109642Y102870D01*
X109642Y104210D01*
X112786Y104210D01*
X112786Y113704D01*
X110001Y111716D01*
X110001Y113205D01*
X112918Y115211D01*
X114372Y115211D01*
X114372Y104210D01*
X117376Y104210D01*
X117376Y102870D01*
G37*
G36*
X101663Y35560D02*
X99990Y35560D01*
X99990Y47901D01*
X105797Y47901D01*
X106303Y47886D01*
X106780Y47842D01*
X107227Y47770D01*
X107644Y47668D01*
X108032Y47536D01*
X108389Y47376D01*
X108717Y47187D01*
X109016Y46968D01*
X109282Y46723D01*
X109512Y46456D01*
X109707Y46166D01*
X109867Y45852D01*
X109991Y45516D01*
X110079Y45157D01*
X110132Y44776D01*
X110150Y44371D01*
X110138Y44034D01*
X110100Y43711D01*
X110037Y43401D01*
X109950Y43105D01*
X109837Y42823D01*
X109699Y42555D01*
X109537Y42300D01*
X109349Y42059D01*
X109139Y41835D01*
X108910Y41634D01*
X108662Y41453D01*
X108551Y41387D01*
X108395Y41295D01*
X108109Y41158D01*
X107804Y41042D01*
X107480Y40949D01*
X107137Y40876D01*
X108629Y38613D01*
X110641Y35560D01*
X108714Y35560D01*
X105508Y40684D01*
X101663Y40684D01*
X101663Y35560D01*
G37*
%LPC*%
G36*
X105701Y42006D02*
X106022Y42016D01*
X106325Y42045D01*
X106608Y42093D01*
X106873Y42161D01*
X107120Y42247D01*
X107347Y42354D01*
X107556Y42479D01*
X107746Y42624D01*
X107915Y42786D01*
X108062Y42963D01*
X108186Y43156D01*
X108288Y43365D01*
X108367Y43589D01*
X108423Y43828D01*
X108457Y44083D01*
X108468Y44354D01*
X108457Y44615D01*
X108423Y44860D01*
X108366Y45090D01*
X108286Y45303D01*
X108183Y45500D01*
X108057Y45681D01*
X107909Y45847D01*
X107737Y45996D01*
X107544Y46128D01*
X107331Y46243D01*
X107098Y46340D01*
X106845Y46420D01*
X106571Y46481D01*
X106278Y46525D01*
X105964Y46552D01*
X105631Y46561D01*
X101663Y46561D01*
X101663Y42006D01*
X105701Y42006D01*
G37*
%LPD*%
G36*
X120588Y35560D02*
X112854Y35560D01*
X112854Y36900D01*
X115998Y36900D01*
X115998Y46394D01*
X113213Y44406D01*
X113213Y45895D01*
X116130Y47901D01*
X117583Y47901D01*
X117583Y36900D01*
X120588Y36900D01*
X120588Y35560D01*
G37*
G36*
X129213Y35560D02*
X121479Y35560D01*
X121479Y36900D01*
X124623Y36900D01*
X124623Y46394D01*
X121838Y44406D01*
X121838Y45895D01*
X124755Y47901D01*
X126208Y47901D01*
X126208Y36900D01*
X129213Y36900D01*
X129213Y35560D01*
G37*
G36*
X147320Y99318D02*
X134979Y99318D01*
X134979Y105125D01*
X134994Y105632D01*
X135038Y106108D01*
X135110Y106555D01*
X135212Y106972D01*
X135344Y107360D01*
X135504Y107717D01*
X135693Y108046D01*
X135912Y108344D01*
X136157Y108610D01*
X136424Y108840D01*
X136714Y109035D01*
X137028Y109195D01*
X137364Y109319D01*
X137723Y109407D01*
X138104Y109461D01*
X138509Y109478D01*
X138846Y109466D01*
X139169Y109428D01*
X139479Y109366D01*
X139775Y109278D01*
X140057Y109165D01*
X140325Y109027D01*
X140580Y108865D01*
X140821Y108677D01*
X141045Y108467D01*
X141247Y108238D01*
X141427Y107990D01*
X141493Y107879D01*
X141585Y107723D01*
X141722Y107437D01*
X141838Y107132D01*
X141931Y106808D01*
X142004Y106465D01*
X144267Y107957D01*
X147320Y109969D01*
X147320Y108042D01*
X142196Y104836D01*
X142196Y100991D01*
X147320Y100991D01*
X147320Y99318D01*
G37*
%LPC*%
G36*
X140874Y100991D02*
X140874Y105029D01*
X140864Y105350D01*
X140835Y105653D01*
X140787Y105936D01*
X140719Y106201D01*
X140633Y106448D01*
X140526Y106675D01*
X140401Y106884D01*
X140256Y107074D01*
X140094Y107243D01*
X139917Y107390D01*
X139724Y107514D01*
X139515Y107616D01*
X139291Y107695D01*
X139052Y107751D01*
X138797Y107785D01*
X138526Y107797D01*
X138265Y107785D01*
X138020Y107751D01*
X137791Y107694D01*
X137577Y107614D01*
X137380Y107511D01*
X137199Y107385D01*
X137033Y107237D01*
X136884Y107065D01*
X136752Y106872D01*
X136637Y106659D01*
X136540Y106426D01*
X136461Y106173D01*
X136399Y105900D01*
X136355Y105606D01*
X136328Y105293D01*
X136319Y104959D01*
X136319Y100991D01*
X140874Y100991D01*
G37*
%LPD*%
G36*
X147320Y121687D02*
X146208Y121687D01*
X145710Y121922D01*
X145243Y122182D01*
X144806Y122467D01*
X144399Y122777D01*
X144016Y123103D01*
X143652Y123437D01*
X143307Y123780D01*
X142980Y124130D01*
X142368Y124836D01*
X141802Y125536D01*
X141259Y126198D01*
X140716Y126793D01*
X140441Y127060D01*
X140160Y127300D01*
X139872Y127513D01*
X139577Y127699D01*
X139270Y127851D01*
X138942Y127959D01*
X138595Y128024D01*
X138229Y128045D01*
X137982Y128036D01*
X137749Y128008D01*
X137531Y127961D01*
X137327Y127896D01*
X137137Y127813D01*
X136961Y127710D01*
X136799Y127589D01*
X136652Y127450D01*
X136521Y127293D01*
X136407Y127123D01*
X136311Y126938D01*
X136232Y126738D01*
X136170Y126524D01*
X136127Y126295D01*
X136100Y126052D01*
X136092Y125794D01*
X136100Y125548D01*
X136126Y125313D01*
X136169Y125089D01*
X136228Y124876D01*
X136305Y124674D01*
X136399Y124483D01*
X136511Y124303D01*
X136639Y124135D01*
X136783Y123980D01*
X136940Y123842D01*
X137112Y123721D01*
X137297Y123617D01*
X137496Y123529D01*
X137709Y123459D01*
X137936Y123405D01*
X138176Y123368D01*
X138027Y121757D01*
X137667Y121815D01*
X137325Y121901D01*
X137002Y122015D01*
X136698Y122158D01*
X136413Y122330D01*
X136147Y122529D01*
X135900Y122757D01*
X135671Y123013D01*
X135466Y123293D01*
X135288Y123593D01*
X135137Y123912D01*
X135014Y124249D01*
X134918Y124607D01*
X134850Y124983D01*
X134809Y125379D01*
X134795Y125794D01*
X134809Y126247D01*
X134850Y126673D01*
X134919Y127072D01*
X135015Y127444D01*
X135139Y127789D01*
X135290Y128107D01*
X135469Y128398D01*
X135676Y128663D01*
X135907Y128898D01*
X136162Y129101D01*
X136440Y129274D01*
X136741Y129415D01*
X137065Y129525D01*
X137412Y129603D01*
X137783Y129650D01*
X138176Y129666D01*
X138535Y129645D01*
X138892Y129583D01*
X139248Y129481D01*
X139604Y129337D01*
X139958Y129153D01*
X140313Y128929D01*
X140668Y128665D01*
X141023Y128361D01*
X141426Y127963D01*
X141927Y127417D01*
X142525Y126723D01*
X143221Y125882D01*
X143623Y125404D01*
X144004Y124978D01*
X144365Y124603D01*
X144706Y124279D01*
X145033Y124002D01*
X145355Y123767D01*
X145670Y123573D01*
X145980Y123421D01*
X145980Y129858D01*
X147320Y129858D01*
X147320Y121687D01*
G37*
G36*
X147320Y112182D02*
X145980Y112182D01*
X145980Y115326D01*
X136486Y115326D01*
X138474Y112541D01*
X136985Y112541D01*
X134979Y115458D01*
X134979Y116912D01*
X145980Y116912D01*
X145980Y119916D01*
X147320Y119916D01*
X147320Y112182D01*
G37*
G36*
X137821Y57150D02*
X136148Y57150D01*
X136148Y69491D01*
X141955Y69491D01*
X142462Y69476D01*
X142938Y69432D01*
X143385Y69360D01*
X143802Y69258D01*
X144190Y69126D01*
X144547Y68966D01*
X144876Y68777D01*
X145174Y68558D01*
X145440Y68313D01*
X145670Y68046D01*
X145865Y67756D01*
X146025Y67442D01*
X146149Y67106D01*
X146237Y66747D01*
X146291Y66366D01*
X146308Y65961D01*
X146296Y65624D01*
X146258Y65301D01*
X146196Y64991D01*
X146108Y64695D01*
X145995Y64413D01*
X145857Y64145D01*
X145695Y63890D01*
X145507Y63649D01*
X145297Y63425D01*
X145068Y63224D01*
X144820Y63043D01*
X144709Y62977D01*
X144553Y62885D01*
X144267Y62748D01*
X143962Y62632D01*
X143638Y62539D01*
X143295Y62466D01*
X144787Y60203D01*
X146799Y57150D01*
X144872Y57150D01*
X141666Y62274D01*
X137821Y62274D01*
X137821Y57150D01*
G37*
%LPC*%
G36*
X141859Y63596D02*
X142180Y63606D01*
X142483Y63635D01*
X142766Y63683D01*
X143031Y63751D01*
X143278Y63837D01*
X143505Y63944D01*
X143714Y64069D01*
X143904Y64214D01*
X144073Y64376D01*
X144220Y64553D01*
X144344Y64746D01*
X144446Y64955D01*
X144525Y65179D01*
X144581Y65418D01*
X144615Y65673D01*
X144627Y65944D01*
X144615Y66205D01*
X144581Y66450D01*
X144524Y66680D01*
X144444Y66893D01*
X144341Y67090D01*
X144215Y67271D01*
X144067Y67437D01*
X143895Y67586D01*
X143702Y67718D01*
X143489Y67833D01*
X143256Y67930D01*
X143003Y68010D01*
X142730Y68071D01*
X142436Y68115D01*
X142123Y68142D01*
X141789Y68151D01*
X137821Y68151D01*
X137821Y63596D01*
X141859Y63596D01*
G37*
%LPD*%
G36*
X162616Y56975D02*
X162159Y56988D01*
X161726Y57028D01*
X161316Y57094D01*
X160931Y57186D01*
X160569Y57305D01*
X160230Y57450D01*
X159915Y57622D01*
X159624Y57820D01*
X159359Y58044D01*
X159123Y58293D01*
X158914Y58568D01*
X158734Y58868D01*
X158583Y59193D01*
X158459Y59544D01*
X158364Y59919D01*
X158298Y60321D01*
X159927Y60469D01*
X159974Y60204D01*
X160038Y59956D01*
X160117Y59725D01*
X160213Y59512D01*
X160325Y59315D01*
X160453Y59135D01*
X160596Y58973D01*
X160757Y58827D01*
X160933Y58699D01*
X161125Y58588D01*
X161333Y58494D01*
X161557Y58417D01*
X161798Y58357D01*
X162054Y58314D01*
X162327Y58288D01*
X162616Y58280D01*
X162905Y58289D01*
X163179Y58317D01*
X163437Y58362D01*
X163679Y58427D01*
X163904Y58509D01*
X164114Y58610D01*
X164308Y58729D01*
X164485Y58867D01*
X164645Y59022D01*
X164782Y59196D01*
X164899Y59387D01*
X164995Y59596D01*
X165069Y59823D01*
X165122Y60067D01*
X165154Y60329D01*
X165164Y60610D01*
X165152Y60855D01*
X165116Y61086D01*
X165055Y61303D01*
X164970Y61506D01*
X164861Y61696D01*
X164728Y61872D01*
X164571Y62034D01*
X164389Y62182D01*
X164185Y62314D01*
X163959Y62429D01*
X163711Y62526D01*
X163442Y62605D01*
X163152Y62667D01*
X162840Y62711D01*
X162506Y62738D01*
X162151Y62747D01*
X161258Y62747D01*
X161258Y64113D01*
X162116Y64113D01*
X162431Y64122D01*
X162728Y64148D01*
X163007Y64192D01*
X163267Y64254D01*
X163509Y64334D01*
X163733Y64431D01*
X163939Y64546D01*
X164126Y64678D01*
X164294Y64826D01*
X164439Y64988D01*
X164561Y65163D01*
X164662Y65351D01*
X164740Y65553D01*
X164796Y65769D01*
X164829Y65999D01*
X164840Y66241D01*
X164831Y66482D01*
X164804Y66710D01*
X164758Y66925D01*
X164695Y67127D01*
X164613Y67316D01*
X164513Y67492D01*
X164394Y67655D01*
X164258Y67805D01*
X164103Y67939D01*
X163931Y68056D01*
X163741Y68154D01*
X163534Y68235D01*
X163309Y68298D01*
X163066Y68343D01*
X162806Y68369D01*
X162528Y68378D01*
X162274Y68370D01*
X162032Y68345D01*
X161802Y68303D01*
X161585Y68245D01*
X161381Y68170D01*
X161189Y68078D01*
X161009Y67969D01*
X160842Y67844D01*
X160689Y67704D01*
X160554Y67550D01*
X160435Y67382D01*
X160333Y67200D01*
X160248Y67005D01*
X160179Y66796D01*
X160128Y66574D01*
X160093Y66338D01*
X158508Y66460D01*
X158566Y66829D01*
X158652Y67176D01*
X158767Y67503D01*
X158910Y67809D01*
X159081Y68094D01*
X159280Y68359D01*
X159508Y68602D01*
X159765Y68825D01*
X160045Y69024D01*
X160344Y69197D01*
X160663Y69343D01*
X161001Y69462D01*
X161358Y69555D01*
X161734Y69622D01*
X162130Y69661D01*
X162545Y69675D01*
X162997Y69661D01*
X163422Y69621D01*
X163822Y69553D01*
X164195Y69459D01*
X164543Y69338D01*
X164865Y69189D01*
X165161Y69014D01*
X165431Y68812D01*
X165673Y68586D01*
X165882Y68338D01*
X166059Y68070D01*
X166203Y67780D01*
X166316Y67468D01*
X166396Y67136D01*
X166444Y66783D01*
X166461Y66408D01*
X166450Y66119D01*
X166419Y65844D01*
X166368Y65583D01*
X166295Y65336D01*
X166202Y65103D01*
X166089Y64883D01*
X165954Y64677D01*
X165799Y64485D01*
X165625Y64308D01*
X165431Y64145D01*
X165219Y63997D01*
X164988Y63865D01*
X164738Y63747D01*
X164470Y63644D01*
X164183Y63556D01*
X163877Y63482D01*
X163877Y63447D01*
X164213Y63400D01*
X164530Y63334D01*
X164828Y63247D01*
X165107Y63141D01*
X165367Y63015D01*
X165608Y62869D01*
X165829Y62704D01*
X166031Y62519D01*
X166212Y62318D01*
X166369Y62104D01*
X166501Y61878D01*
X166609Y61639D01*
X166694Y61387D01*
X166754Y61123D01*
X166790Y60846D01*
X166802Y60557D01*
X166785Y60142D01*
X166734Y59751D01*
X166649Y59385D01*
X166531Y59042D01*
X166378Y58723D01*
X166191Y58429D01*
X165971Y58158D01*
X165716Y57912D01*
X165430Y57692D01*
X165115Y57502D01*
X164771Y57341D01*
X164398Y57209D01*
X163996Y57107D01*
X163565Y57033D01*
X163105Y56990D01*
X162616Y56975D01*
G37*
G36*
X156746Y57150D02*
X149012Y57150D01*
X149012Y58490D01*
X152156Y58490D01*
X152156Y67984D01*
X149371Y65996D01*
X149371Y67485D01*
X152288Y69491D01*
X153742Y69491D01*
X153742Y58490D01*
X156746Y58490D01*
X156746Y57150D01*
G37*
G36*
X246380Y152563D02*
X234039Y152563D01*
X234039Y158370D01*
X234054Y158876D01*
X234098Y159352D01*
X234170Y159799D01*
X234272Y160217D01*
X234404Y160604D01*
X234564Y160962D01*
X234753Y161290D01*
X234972Y161588D01*
X235217Y161854D01*
X235484Y162085D01*
X235774Y162280D01*
X236088Y162439D01*
X236424Y162563D01*
X236783Y162652D01*
X237164Y162705D01*
X237569Y162723D01*
X237906Y162710D01*
X238229Y162673D01*
X238539Y162610D01*
X238835Y162522D01*
X239117Y162410D01*
X239385Y162272D01*
X239640Y162109D01*
X239881Y161921D01*
X240105Y161711D01*
X240307Y161482D01*
X240487Y161235D01*
X240553Y161124D01*
X240645Y160968D01*
X240782Y160682D01*
X240898Y160377D01*
X240991Y160053D01*
X241064Y159710D01*
X243327Y161201D01*
X246380Y163213D01*
X246380Y161286D01*
X241256Y158081D01*
X241256Y154236D01*
X246380Y154236D01*
X246380Y152563D01*
G37*
%LPC*%
G36*
X239934Y154236D02*
X239934Y158273D01*
X239924Y158595D01*
X239895Y158897D01*
X239847Y159181D01*
X239779Y159446D01*
X239693Y159692D01*
X239586Y159920D01*
X239461Y160128D01*
X239316Y160318D01*
X239154Y160488D01*
X238977Y160635D01*
X238784Y160759D01*
X238575Y160860D01*
X238351Y160939D01*
X238112Y160996D01*
X237857Y161030D01*
X237586Y161041D01*
X237325Y161030D01*
X237080Y160995D01*
X236851Y160938D01*
X236637Y160858D01*
X236440Y160755D01*
X236259Y160630D01*
X236093Y160481D01*
X235944Y160310D01*
X235812Y160117D01*
X235697Y159904D01*
X235600Y159671D01*
X235521Y159417D01*
X235459Y159144D01*
X235415Y158850D01*
X235388Y158537D01*
X235379Y158203D01*
X235379Y154236D01*
X239934Y154236D01*
G37*
%LPD*%
G36*
X246380Y164962D02*
X245268Y164962D01*
X244770Y165198D01*
X244303Y165458D01*
X243866Y165743D01*
X243459Y166053D01*
X243076Y166379D01*
X242712Y166713D01*
X242367Y167055D01*
X242040Y167406D01*
X241428Y168112D01*
X240862Y168812D01*
X240319Y169474D01*
X239776Y170068D01*
X239501Y170335D01*
X239220Y170575D01*
X238932Y170788D01*
X238637Y170975D01*
X238330Y171126D01*
X238002Y171234D01*
X237655Y171299D01*
X237289Y171321D01*
X237042Y171312D01*
X236809Y171284D01*
X236591Y171237D01*
X236387Y171172D01*
X236197Y171088D01*
X236021Y170986D01*
X235859Y170865D01*
X235712Y170725D01*
X235581Y170569D01*
X235467Y170398D01*
X235371Y170213D01*
X235292Y170014D01*
X235230Y169799D01*
X235187Y169571D01*
X235160Y169328D01*
X235152Y169070D01*
X235160Y168824D01*
X235186Y168588D01*
X235229Y168364D01*
X235288Y168151D01*
X235365Y167949D01*
X235459Y167759D01*
X235571Y167579D01*
X235699Y167410D01*
X235843Y167255D01*
X236000Y167118D01*
X236172Y166997D01*
X236357Y166892D01*
X236556Y166805D01*
X236769Y166734D01*
X236996Y166681D01*
X237236Y166644D01*
X237087Y165032D01*
X236727Y165090D01*
X236385Y165176D01*
X236062Y165291D01*
X235758Y165434D01*
X235473Y165605D01*
X235207Y165805D01*
X234960Y166033D01*
X234731Y166289D01*
X234526Y166569D01*
X234348Y166868D01*
X234197Y167187D01*
X234074Y167525D01*
X233978Y167882D01*
X233910Y168259D01*
X233869Y168655D01*
X233855Y169070D01*
X233869Y169523D01*
X233910Y169949D01*
X233979Y170348D01*
X234075Y170720D01*
X234199Y171065D01*
X234350Y171383D01*
X234529Y171674D01*
X234736Y171938D01*
X234967Y172173D01*
X235222Y172377D01*
X235500Y172549D01*
X235801Y172690D01*
X236125Y172800D01*
X236472Y172878D01*
X236843Y172925D01*
X237236Y172941D01*
X237595Y172921D01*
X237952Y172859D01*
X238308Y172756D01*
X238664Y172613D01*
X239018Y172429D01*
X239373Y172204D01*
X239728Y171940D01*
X240083Y171636D01*
X240486Y171238D01*
X240987Y170692D01*
X241585Y169999D01*
X242281Y169157D01*
X242683Y168680D01*
X243064Y168253D01*
X243425Y167878D01*
X243766Y167555D01*
X244093Y167278D01*
X244415Y167042D01*
X244730Y166849D01*
X245040Y166696D01*
X245040Y173134D01*
X246380Y173134D01*
X246380Y164962D01*
G37*
G36*
X361950Y99223D02*
X349609Y99223D01*
X349609Y105030D01*
X349624Y105536D01*
X349668Y106012D01*
X349740Y106459D01*
X349842Y106877D01*
X349974Y107264D01*
X350134Y107622D01*
X350323Y107950D01*
X350542Y108248D01*
X350787Y108514D01*
X351054Y108745D01*
X351344Y108940D01*
X351658Y109099D01*
X351994Y109223D01*
X352353Y109312D01*
X352734Y109365D01*
X353139Y109383D01*
X353476Y109370D01*
X353799Y109333D01*
X354109Y109270D01*
X354405Y109182D01*
X354687Y109070D01*
X354955Y108932D01*
X355210Y108769D01*
X355451Y108581D01*
X355675Y108371D01*
X355877Y108142D01*
X356057Y107895D01*
X356123Y107784D01*
X356215Y107628D01*
X356352Y107342D01*
X356468Y107037D01*
X356561Y106713D01*
X356634Y106370D01*
X358897Y107861D01*
X361950Y109873D01*
X361950Y107946D01*
X356826Y104741D01*
X356826Y100896D01*
X361950Y100896D01*
X361950Y99223D01*
G37*
%LPC*%
G36*
X355504Y100896D02*
X355504Y104933D01*
X355494Y105255D01*
X355465Y105557D01*
X355417Y105841D01*
X355349Y106106D01*
X355263Y106352D01*
X355156Y106580D01*
X355031Y106788D01*
X354886Y106978D01*
X354724Y107148D01*
X354547Y107295D01*
X354354Y107419D01*
X354145Y107520D01*
X353921Y107599D01*
X353682Y107656D01*
X353427Y107690D01*
X353156Y107701D01*
X352895Y107690D01*
X352650Y107655D01*
X352421Y107598D01*
X352207Y107518D01*
X352010Y107415D01*
X351829Y107290D01*
X351663Y107141D01*
X351514Y106970D01*
X351382Y106777D01*
X351267Y106564D01*
X351170Y106331D01*
X351091Y106077D01*
X351029Y105804D01*
X350985Y105510D01*
X350958Y105197D01*
X350949Y104863D01*
X350949Y100896D01*
X355504Y100896D01*
G37*
%LPD*%
G36*
X358779Y111403D02*
X358631Y113032D01*
X358896Y113080D01*
X359144Y113143D01*
X359375Y113223D01*
X359589Y113319D01*
X359785Y113430D01*
X359965Y113558D01*
X360127Y113702D01*
X360273Y113862D01*
X360401Y114038D01*
X360512Y114230D01*
X360606Y114439D01*
X360683Y114663D01*
X360743Y114903D01*
X360786Y115160D01*
X360812Y115432D01*
X360820Y115721D01*
X360811Y116011D01*
X360784Y116285D01*
X360738Y116542D01*
X360673Y116784D01*
X360591Y117010D01*
X360490Y117220D01*
X360371Y117413D01*
X360233Y117591D01*
X360078Y117750D01*
X359904Y117888D01*
X359713Y118005D01*
X359504Y118100D01*
X359277Y118174D01*
X359033Y118227D01*
X358771Y118259D01*
X358490Y118270D01*
X358246Y118258D01*
X358014Y118221D01*
X357797Y118161D01*
X357594Y118076D01*
X357404Y117967D01*
X357228Y117834D01*
X357066Y117676D01*
X356918Y117495D01*
X356786Y117290D01*
X356671Y117064D01*
X356574Y116817D01*
X356495Y116548D01*
X356433Y116257D01*
X356389Y115945D01*
X356362Y115612D01*
X356353Y115257D01*
X356353Y114364D01*
X354987Y114364D01*
X354987Y115222D01*
X354978Y115537D01*
X354952Y115834D01*
X354908Y116112D01*
X354846Y116373D01*
X354766Y116615D01*
X354669Y116839D01*
X354554Y117044D01*
X354422Y117232D01*
X354274Y117399D01*
X354113Y117544D01*
X353937Y117667D01*
X353749Y117767D01*
X353547Y117845D01*
X353331Y117901D01*
X353102Y117935D01*
X352859Y117946D01*
X352618Y117937D01*
X352390Y117909D01*
X352175Y117864D01*
X351973Y117800D01*
X351784Y117718D01*
X351608Y117618D01*
X351445Y117500D01*
X351295Y117363D01*
X351161Y117209D01*
X351044Y117037D01*
X350946Y116847D01*
X350865Y116640D01*
X350802Y116415D01*
X350757Y116172D01*
X350731Y115912D01*
X350722Y115634D01*
X350730Y115379D01*
X350755Y115137D01*
X350797Y114908D01*
X350855Y114691D01*
X350930Y114486D01*
X351022Y114294D01*
X351131Y114115D01*
X351256Y113948D01*
X351396Y113795D01*
X351550Y113659D01*
X351718Y113540D01*
X351900Y113438D01*
X352095Y113353D01*
X352304Y113285D01*
X352526Y113233D01*
X352762Y113199D01*
X352640Y111613D01*
X352271Y111671D01*
X351924Y111758D01*
X351597Y111872D01*
X351291Y112015D01*
X351006Y112186D01*
X350741Y112386D01*
X350498Y112614D01*
X350275Y112870D01*
X350076Y113150D01*
X349903Y113450D01*
X349757Y113768D01*
X349638Y114106D01*
X349545Y114464D01*
X349478Y114840D01*
X349439Y115236D01*
X349425Y115651D01*
X349439Y116102D01*
X349479Y116528D01*
X349547Y116927D01*
X349641Y117301D01*
X349762Y117649D01*
X349911Y117971D01*
X350086Y118267D01*
X350288Y118537D01*
X350514Y118778D01*
X350762Y118987D01*
X351031Y119164D01*
X351320Y119309D01*
X351632Y119421D01*
X351964Y119502D01*
X352317Y119550D01*
X352692Y119566D01*
X352981Y119556D01*
X353256Y119525D01*
X353517Y119473D01*
X353764Y119401D01*
X353997Y119308D01*
X354217Y119194D01*
X354423Y119060D01*
X354615Y118905D01*
X354792Y118730D01*
X354955Y118537D01*
X355103Y118325D01*
X355236Y118094D01*
X355353Y117844D01*
X355456Y117575D01*
X355544Y117288D01*
X355618Y116982D01*
X355653Y116982D01*
X355700Y117319D01*
X355766Y117636D01*
X355853Y117934D01*
X355959Y118213D01*
X356085Y118473D01*
X356231Y118713D01*
X356396Y118935D01*
X356581Y119137D01*
X356782Y119318D01*
X356996Y119474D01*
X357222Y119607D01*
X357461Y119715D01*
X357713Y119799D01*
X357977Y119860D01*
X358254Y119896D01*
X358543Y119908D01*
X358958Y119891D01*
X359349Y119840D01*
X359716Y119755D01*
X360058Y119636D01*
X360377Y119483D01*
X360671Y119297D01*
X360942Y119076D01*
X361188Y118822D01*
X361408Y118536D01*
X361598Y118221D01*
X361759Y117877D01*
X361891Y117503D01*
X361993Y117101D01*
X362067Y116670D01*
X362111Y116210D01*
X362125Y115721D01*
X362112Y115264D01*
X362072Y114831D01*
X362006Y114422D01*
X361914Y114036D01*
X361795Y113674D01*
X361650Y113336D01*
X361478Y113021D01*
X361280Y112730D01*
X361056Y112465D01*
X360807Y112228D01*
X360532Y112020D01*
X360232Y111840D01*
X359907Y111688D01*
X359556Y111565D01*
X359181Y111470D01*
X358779Y111403D01*
G37*
G36*
X360680Y64933D02*
X348339Y64933D01*
X348339Y70740D01*
X348354Y71246D01*
X348398Y71722D01*
X348470Y72169D01*
X348572Y72587D01*
X348704Y72974D01*
X348864Y73332D01*
X349053Y73660D01*
X349272Y73958D01*
X349517Y74224D01*
X349784Y74455D01*
X350074Y74650D01*
X350388Y74809D01*
X350724Y74933D01*
X351083Y75022D01*
X351464Y75075D01*
X351869Y75093D01*
X352206Y75080D01*
X352529Y75043D01*
X352839Y74980D01*
X353135Y74892D01*
X353417Y74780D01*
X353685Y74642D01*
X353940Y74479D01*
X354181Y74291D01*
X354405Y74081D01*
X354607Y73852D01*
X354787Y73605D01*
X354853Y73494D01*
X354945Y73338D01*
X355082Y73052D01*
X355198Y72747D01*
X355291Y72423D01*
X355364Y72080D01*
X357627Y73571D01*
X360680Y75583D01*
X360680Y73656D01*
X355556Y70451D01*
X355556Y66606D01*
X360680Y66606D01*
X360680Y64933D01*
G37*
%LPC*%
G36*
X354234Y66606D02*
X354234Y70643D01*
X354224Y70965D01*
X354195Y71267D01*
X354147Y71551D01*
X354079Y71816D01*
X353993Y72062D01*
X353886Y72290D01*
X353761Y72498D01*
X353616Y72688D01*
X353454Y72858D01*
X353277Y73005D01*
X353084Y73129D01*
X352875Y73230D01*
X352651Y73309D01*
X352412Y73366D01*
X352157Y73400D01*
X351886Y73411D01*
X351625Y73400D01*
X351380Y73365D01*
X351151Y73308D01*
X350937Y73228D01*
X350740Y73125D01*
X350559Y73000D01*
X350393Y72851D01*
X350244Y72680D01*
X350112Y72487D01*
X349997Y72274D01*
X349900Y72041D01*
X349821Y71787D01*
X349759Y71514D01*
X349715Y71220D01*
X349688Y70907D01*
X349679Y70573D01*
X349679Y66606D01*
X354234Y66606D01*
G37*
%LPD*%
G36*
X357886Y76842D02*
X356660Y76842D01*
X348339Y82491D01*
X348339Y84146D01*
X356642Y84146D01*
X356642Y85880D01*
X357886Y85880D01*
X357886Y84146D01*
X360680Y84146D01*
X360680Y82657D01*
X357886Y82657D01*
X357886Y76842D01*
G37*
%LPC*%
G36*
X356642Y78296D02*
X356642Y82657D01*
X350117Y82657D01*
X350581Y82412D01*
X351159Y82071D01*
X355819Y78909D01*
X356467Y78436D01*
X356642Y78296D01*
G37*
%LPD*%
G36*
X107246Y-54610D02*
X105573Y-54610D01*
X105573Y-42269D01*
X111380Y-42269D01*
X111886Y-42284D01*
X112362Y-42328D01*
X112809Y-42400D01*
X113227Y-42502D01*
X113614Y-42634D01*
X113972Y-42794D01*
X114300Y-42983D01*
X114598Y-43202D01*
X114864Y-43447D01*
X115095Y-43714D01*
X115290Y-44004D01*
X115449Y-44318D01*
X115573Y-44654D01*
X115662Y-45013D01*
X115715Y-45394D01*
X115733Y-45799D01*
X115720Y-46136D01*
X115683Y-46459D01*
X115620Y-46769D01*
X115532Y-47065D01*
X115420Y-47347D01*
X115282Y-47615D01*
X115119Y-47870D01*
X114931Y-48111D01*
X114721Y-48335D01*
X114492Y-48537D01*
X114245Y-48717D01*
X114134Y-48783D01*
X113978Y-48875D01*
X113692Y-49012D01*
X113387Y-49128D01*
X113063Y-49221D01*
X112720Y-49294D01*
X114211Y-51557D01*
X116223Y-54610D01*
X114296Y-54610D01*
X111091Y-49486D01*
X107246Y-49486D01*
X107246Y-54610D01*
G37*
%LPC*%
G36*
X111283Y-48164D02*
X111605Y-48154D01*
X111907Y-48125D01*
X112191Y-48077D01*
X112456Y-48009D01*
X112702Y-47923D01*
X112930Y-47816D01*
X113138Y-47691D01*
X113328Y-47546D01*
X113498Y-47384D01*
X113645Y-47207D01*
X113769Y-47014D01*
X113870Y-46805D01*
X113949Y-46581D01*
X114006Y-46342D01*
X114040Y-46087D01*
X114051Y-45816D01*
X114040Y-45555D01*
X114005Y-45310D01*
X113948Y-45081D01*
X113868Y-44867D01*
X113765Y-44670D01*
X113640Y-44489D01*
X113491Y-44323D01*
X113320Y-44174D01*
X113127Y-44042D01*
X112914Y-43927D01*
X112681Y-43830D01*
X112427Y-43751D01*
X112154Y-43689D01*
X111860Y-43645D01*
X111547Y-43618D01*
X111213Y-43609D01*
X107246Y-43609D01*
X107246Y-48164D01*
X111283Y-48164D01*
G37*
%LPD*%
G36*
X121913Y-54785D02*
X121493Y-54773D01*
X121092Y-54738D01*
X120713Y-54679D01*
X120354Y-54597D01*
X120017Y-54491D01*
X119700Y-54362D01*
X119404Y-54209D01*
X119128Y-54032D01*
X118875Y-53833D01*
X118647Y-53613D01*
X118443Y-53372D01*
X118263Y-53110D01*
X118108Y-52827D01*
X117977Y-52523D01*
X117870Y-52197D01*
X117788Y-51851D01*
X119382Y-51667D01*
X119451Y-51889D01*
X119532Y-52096D01*
X119625Y-52289D01*
X119730Y-52468D01*
X119847Y-52632D01*
X119977Y-52783D01*
X120119Y-52919D01*
X120273Y-53040D01*
X120440Y-53147D01*
X120619Y-53240D01*
X120810Y-53319D01*
X121013Y-53383D01*
X121228Y-53433D01*
X121456Y-53469D01*
X121696Y-53491D01*
X121949Y-53498D01*
X122257Y-53486D01*
X122549Y-53450D01*
X122823Y-53390D01*
X123081Y-53306D01*
X123320Y-53198D01*
X123543Y-53067D01*
X123749Y-52911D01*
X123937Y-52731D01*
X124105Y-52531D01*
X124251Y-52312D01*
X124374Y-52076D01*
X124475Y-51822D01*
X124554Y-51549D01*
X124610Y-51259D01*
X124644Y-50951D01*
X124655Y-50625D01*
X124644Y-50341D01*
X124610Y-50070D01*
X124553Y-49814D01*
X124474Y-49572D01*
X124373Y-49343D01*
X124248Y-49129D01*
X124102Y-48928D01*
X123932Y-48742D01*
X123744Y-48573D01*
X123540Y-48428D01*
X123320Y-48304D01*
X123084Y-48203D01*
X122832Y-48125D01*
X122565Y-48068D01*
X122282Y-48035D01*
X121984Y-48024D01*
X121669Y-48036D01*
X121366Y-48074D01*
X121074Y-48137D01*
X120792Y-48225D01*
X120516Y-48343D01*
X120241Y-48497D01*
X119965Y-48685D01*
X119689Y-48908D01*
X118147Y-48908D01*
X118559Y-42269D01*
X125575Y-42269D01*
X125575Y-43609D01*
X119995Y-43609D01*
X119759Y-47524D01*
X120023Y-47340D01*
X120302Y-47180D01*
X120598Y-47044D01*
X120908Y-46933D01*
X121235Y-46847D01*
X121577Y-46785D01*
X121934Y-46748D01*
X122308Y-46736D01*
X122751Y-46753D01*
X123172Y-46803D01*
X123570Y-46886D01*
X123944Y-47003D01*
X124296Y-47153D01*
X124624Y-47337D01*
X124929Y-47554D01*
X125211Y-47805D01*
X125465Y-48082D01*
X125684Y-48379D01*
X125870Y-48697D01*
X126022Y-49035D01*
X126141Y-49393D01*
X126225Y-49772D01*
X126276Y-50171D01*
X126293Y-50590D01*
X126275Y-51065D01*
X126220Y-51514D01*
X126130Y-51938D01*
X126003Y-52335D01*
X125839Y-52706D01*
X125640Y-53052D01*
X125404Y-53371D01*
X125132Y-53664D01*
X124828Y-53927D01*
X124496Y-54155D01*
X124136Y-54347D01*
X123747Y-54505D01*
X123331Y-54628D01*
X122886Y-54715D01*
X122414Y-54768D01*
X121913Y-54785D01*
G37*
G36*
X58986Y-67310D02*
X57313Y-67310D01*
X57313Y-54969D01*
X63120Y-54969D01*
X63626Y-54984D01*
X64102Y-55028D01*
X64549Y-55100D01*
X64967Y-55202D01*
X65354Y-55334D01*
X65712Y-55494D01*
X66040Y-55683D01*
X66338Y-55902D01*
X66604Y-56147D01*
X66835Y-56414D01*
X67030Y-56704D01*
X67189Y-57018D01*
X67313Y-57354D01*
X67402Y-57713D01*
X67455Y-58094D01*
X67473Y-58499D01*
X67460Y-58836D01*
X67423Y-59159D01*
X67360Y-59469D01*
X67272Y-59765D01*
X67160Y-60047D01*
X67022Y-60315D01*
X66859Y-60570D01*
X66671Y-60811D01*
X66461Y-61035D01*
X66232Y-61237D01*
X65985Y-61417D01*
X65874Y-61483D01*
X65718Y-61575D01*
X65432Y-61712D01*
X65127Y-61828D01*
X64803Y-61921D01*
X64460Y-61994D01*
X65951Y-64257D01*
X67963Y-67310D01*
X66036Y-67310D01*
X62831Y-62186D01*
X58986Y-62186D01*
X58986Y-67310D01*
G37*
%LPC*%
G36*
X63023Y-60864D02*
X63345Y-60854D01*
X63647Y-60825D01*
X63931Y-60777D01*
X64196Y-60709D01*
X64442Y-60623D01*
X64670Y-60516D01*
X64878Y-60391D01*
X65068Y-60246D01*
X65238Y-60084D01*
X65385Y-59907D01*
X65509Y-59714D01*
X65610Y-59505D01*
X65689Y-59281D01*
X65746Y-59042D01*
X65780Y-58787D01*
X65791Y-58516D01*
X65780Y-58255D01*
X65745Y-58010D01*
X65688Y-57781D01*
X65608Y-57567D01*
X65505Y-57370D01*
X65380Y-57189D01*
X65231Y-57023D01*
X65060Y-56874D01*
X64867Y-56742D01*
X64654Y-56627D01*
X64421Y-56530D01*
X64167Y-56451D01*
X63894Y-56389D01*
X63600Y-56345D01*
X63287Y-56318D01*
X62953Y-56309D01*
X58986Y-56309D01*
X58986Y-60864D01*
X63023Y-60864D01*
G37*
%LPD*%
G36*
X74013Y-67485D02*
X73756Y-67479D01*
X73507Y-67461D01*
X73032Y-67388D01*
X72587Y-67267D01*
X72173Y-67098D01*
X71790Y-66880D01*
X71438Y-66613D01*
X71116Y-66298D01*
X70824Y-65935D01*
X70566Y-65525D01*
X70342Y-65072D01*
X70152Y-64574D01*
X69997Y-64032D01*
X69876Y-63446D01*
X69790Y-62816D01*
X69738Y-62142D01*
X69721Y-61424D01*
X69739Y-60646D01*
X69793Y-59915D01*
X69882Y-59229D01*
X70008Y-58591D01*
X70169Y-57999D01*
X70366Y-57453D01*
X70599Y-56954D01*
X70868Y-56502D01*
X71170Y-56100D01*
X71503Y-55751D01*
X71866Y-55456D01*
X72259Y-55214D01*
X72682Y-55027D01*
X72905Y-54953D01*
X73136Y-54893D01*
X73375Y-54846D01*
X73620Y-54812D01*
X73874Y-54792D01*
X74135Y-54785D01*
X74476Y-54795D01*
X74801Y-54825D01*
X75110Y-54874D01*
X75403Y-54942D01*
X75680Y-55031D01*
X75940Y-55139D01*
X76184Y-55266D01*
X76412Y-55414D01*
X76624Y-55581D01*
X76820Y-55767D01*
X77000Y-55973D01*
X77163Y-56199D01*
X77311Y-56445D01*
X77442Y-56710D01*
X77557Y-56995D01*
X77656Y-57299D01*
X76150Y-57571D01*
X76016Y-57217D01*
X75849Y-56911D01*
X75646Y-56653D01*
X75410Y-56441D01*
X75138Y-56276D01*
X74833Y-56158D01*
X74492Y-56088D01*
X74118Y-56064D01*
X73790Y-56084D01*
X73481Y-56143D01*
X73192Y-56241D01*
X72921Y-56378D01*
X72669Y-56555D01*
X72437Y-56771D01*
X72223Y-57026D01*
X72029Y-57321D01*
X71855Y-57653D01*
X71705Y-58020D01*
X71578Y-58422D01*
X71474Y-58859D01*
X71393Y-59332D01*
X71335Y-59839D01*
X71300Y-60382D01*
X71289Y-60960D01*
X71525Y-60585D01*
X71805Y-60258D01*
X72129Y-59979D01*
X72497Y-59747D01*
X72901Y-59565D01*
X73334Y-59435D01*
X73561Y-59390D01*
X73795Y-59357D01*
X74036Y-59337D01*
X74284Y-59331D01*
X74700Y-59348D01*
X75094Y-59398D01*
X75466Y-59481D01*
X75816Y-59598D01*
X76144Y-59748D01*
X76449Y-59932D01*
X76733Y-60149D01*
X76995Y-60400D01*
X77230Y-60678D01*
X77434Y-60980D01*
X77606Y-61304D01*
X77747Y-61652D01*
X77857Y-62023D01*
X77935Y-62416D01*
X77982Y-62833D01*
X77998Y-63272D01*
X77981Y-63748D01*
X77931Y-64197D01*
X77849Y-64621D01*
X77733Y-65020D01*
X77584Y-65392D01*
X77402Y-65739D01*
X77186Y-66060D01*
X76938Y-66355D01*
X76660Y-66620D01*
X76358Y-66850D01*
X76030Y-67044D01*
X75677Y-67203D01*
X75298Y-67326D01*
X74895Y-67415D01*
X74466Y-67468D01*
X74013Y-67485D01*
G37*
%LPC*%
G36*
X73960Y-66215D02*
X74237Y-66203D01*
X74499Y-66167D01*
X74745Y-66107D01*
X74976Y-66024D01*
X75192Y-65916D01*
X75392Y-65784D01*
X75577Y-65628D01*
X75747Y-65449D01*
X75899Y-65248D01*
X76030Y-65030D01*
X76142Y-64793D01*
X76233Y-64539D01*
X76304Y-64267D01*
X76354Y-63977D01*
X76385Y-63668D01*
X76395Y-63342D01*
X76385Y-63017D01*
X76354Y-62711D01*
X76303Y-62424D01*
X76231Y-62156D01*
X76138Y-61907D01*
X76025Y-61677D01*
X75892Y-61467D01*
X75738Y-61275D01*
X75566Y-61105D01*
X75377Y-60957D01*
X75173Y-60832D01*
X74952Y-60730D01*
X74715Y-60651D01*
X74462Y-60594D01*
X74193Y-60560D01*
X73907Y-60548D01*
X73638Y-60558D01*
X73382Y-60589D01*
X73140Y-60639D01*
X72910Y-60709D01*
X72694Y-60800D01*
X72491Y-60911D01*
X72301Y-61041D01*
X72125Y-61192D01*
X71966Y-61361D01*
X71828Y-61544D01*
X71711Y-61743D01*
X71616Y-61957D01*
X71542Y-62187D01*
X71489Y-62431D01*
X71457Y-62691D01*
X71446Y-62966D01*
X71457Y-63315D01*
X71490Y-63647D01*
X71545Y-63964D01*
X71623Y-64264D01*
X71722Y-64548D01*
X71843Y-64817D01*
X71986Y-65069D01*
X72151Y-65304D01*
X72334Y-65518D01*
X72529Y-65703D01*
X72736Y-65859D01*
X72956Y-65987D01*
X73188Y-66087D01*
X73433Y-66158D01*
X73690Y-66201D01*
X73960Y-66215D01*
G37*
%LPD*%
G36*
X108516Y11430D02*
X106843Y11430D01*
X106843Y23771D01*
X112650Y23771D01*
X113156Y23756D01*
X113632Y23712D01*
X114079Y23640D01*
X114497Y23538D01*
X114884Y23406D01*
X115242Y23246D01*
X115570Y23057D01*
X115868Y22838D01*
X116134Y22593D01*
X116365Y22326D01*
X116560Y22036D01*
X116719Y21722D01*
X116843Y21386D01*
X116932Y21027D01*
X116985Y20646D01*
X117003Y20241D01*
X116990Y19904D01*
X116953Y19581D01*
X116890Y19271D01*
X116802Y18975D01*
X116690Y18693D01*
X116552Y18425D01*
X116389Y18170D01*
X116201Y17929D01*
X115991Y17705D01*
X115762Y17504D01*
X115515Y17323D01*
X115404Y17257D01*
X115248Y17165D01*
X114962Y17028D01*
X114657Y16912D01*
X114333Y16819D01*
X113990Y16746D01*
X115481Y14483D01*
X117493Y11430D01*
X115566Y11430D01*
X112361Y16554D01*
X108516Y16554D01*
X108516Y11430D01*
G37*
%LPC*%
G36*
X112553Y17876D02*
X112875Y17886D01*
X113177Y17915D01*
X113461Y17963D01*
X113726Y18031D01*
X113972Y18117D01*
X114200Y18224D01*
X114408Y18349D01*
X114598Y18494D01*
X114768Y18656D01*
X114915Y18833D01*
X115039Y19026D01*
X115140Y19235D01*
X115219Y19459D01*
X115276Y19698D01*
X115310Y19953D01*
X115321Y20224D01*
X115310Y20485D01*
X115275Y20730D01*
X115218Y20960D01*
X115138Y21173D01*
X115035Y21370D01*
X114910Y21551D01*
X114761Y21717D01*
X114590Y21866D01*
X114397Y21998D01*
X114184Y22113D01*
X113951Y22210D01*
X113697Y22290D01*
X113424Y22351D01*
X113130Y22395D01*
X112817Y22422D01*
X112483Y22431D01*
X108516Y22431D01*
X108516Y17876D01*
X112553Y17876D01*
G37*
%LPD*%
G36*
X123183Y11430D02*
X121537Y11430D01*
X121553Y12025D01*
X121600Y12628D01*
X121678Y13239D01*
X121788Y13857D01*
X121929Y14484D01*
X122101Y15118D01*
X122305Y15760D01*
X122540Y16409D01*
X122811Y17075D01*
X123125Y17766D01*
X123481Y18482D01*
X123879Y19222D01*
X124318Y19987D01*
X124800Y20777D01*
X125324Y21591D01*
X125890Y22431D01*
X119260Y22431D01*
X119260Y23771D01*
X127414Y23771D01*
X127414Y22492D01*
X126537Y21125D01*
X125800Y19915D01*
X125202Y18861D01*
X124742Y17964D01*
X124377Y17148D01*
X124060Y16337D01*
X123792Y15532D01*
X123573Y14732D01*
X123403Y13928D01*
X123281Y13109D01*
X123208Y12277D01*
X123190Y11855D01*
X123183Y11430D01*
G37*
G36*
X152542Y79835D02*
X152061Y79850D01*
X151607Y79893D01*
X151179Y79967D01*
X150779Y80069D01*
X150405Y80201D01*
X150059Y80362D01*
X149739Y80552D01*
X149446Y80772D01*
X149184Y81019D01*
X148958Y81290D01*
X148766Y81586D01*
X148609Y81906D01*
X148487Y82251D01*
X148399Y82621D01*
X148347Y83016D01*
X148330Y83435D01*
X148340Y83731D01*
X148373Y84015D01*
X148427Y84287D01*
X148502Y84547D01*
X148600Y84795D01*
X148719Y85031D01*
X148859Y85255D01*
X149021Y85467D01*
X149200Y85662D01*
X149391Y85838D01*
X149595Y85993D01*
X149810Y86128D01*
X150037Y86243D01*
X150276Y86337D01*
X150527Y86411D01*
X150791Y86465D01*
X150791Y86500D01*
X150545Y86568D01*
X150314Y86653D01*
X150095Y86755D01*
X149890Y86875D01*
X149698Y87011D01*
X149519Y87165D01*
X149353Y87336D01*
X149201Y87525D01*
X149064Y87726D01*
X148946Y87936D01*
X148846Y88154D01*
X148764Y88381D01*
X148700Y88616D01*
X148655Y88860D01*
X148628Y89112D01*
X148619Y89373D01*
X148635Y89717D01*
X148685Y90045D01*
X148767Y90355D01*
X148882Y90649D01*
X149031Y90927D01*
X149212Y91188D01*
X149427Y91432D01*
X149674Y91659D01*
X149949Y91864D01*
X150247Y92042D01*
X150567Y92193D01*
X150910Y92316D01*
X151275Y92412D01*
X151664Y92480D01*
X152074Y92521D01*
X152507Y92535D01*
X152951Y92521D01*
X153370Y92481D01*
X153766Y92414D01*
X154138Y92320D01*
X154485Y92199D01*
X154809Y92052D01*
X155109Y91878D01*
X155385Y91676D01*
X155632Y91452D01*
X155846Y91209D01*
X156028Y90948D01*
X156176Y90667D01*
X156292Y90367D01*
X156374Y90049D01*
X156423Y89712D01*
X156440Y89355D01*
X156431Y89095D01*
X156403Y88842D01*
X156357Y88599D01*
X156293Y88363D01*
X156211Y88137D01*
X156110Y87918D01*
X155991Y87709D01*
X155853Y87507D01*
X155700Y87319D01*
X155533Y87150D01*
X155515Y87135D01*
X155353Y86999D01*
X155159Y86866D01*
X154952Y86751D01*
X154731Y86655D01*
X154498Y86577D01*
X154250Y86518D01*
X154250Y86483D01*
X154538Y86425D01*
X154809Y86348D01*
X155063Y86251D01*
X155301Y86136D01*
X155523Y86001D01*
X155728Y85846D01*
X155917Y85673D01*
X156056Y85517D01*
X156090Y85480D01*
X156244Y85271D01*
X156377Y85049D01*
X156490Y84815D01*
X156582Y84568D01*
X156654Y84308D01*
X156705Y84035D01*
X156736Y83750D01*
X156746Y83452D01*
X156730Y83037D01*
X156679Y82645D01*
X156594Y82277D01*
X156475Y81933D01*
X156322Y81611D01*
X156136Y81314D01*
X155915Y81040D01*
X155660Y80790D01*
X155374Y80566D01*
X155058Y80372D01*
X154713Y80208D01*
X154338Y80073D01*
X153933Y79969D01*
X153499Y79895D01*
X153036Y79850D01*
X152542Y79835D01*
G37*
%LPC*%
G36*
X152560Y81017D02*
X152872Y81027D01*
X153163Y81056D01*
X153433Y81104D01*
X153683Y81172D01*
X153913Y81258D01*
X154122Y81365D01*
X154310Y81490D01*
X154478Y81635D01*
X154626Y81801D01*
X154754Y81989D01*
X154862Y82201D01*
X154951Y82435D01*
X155020Y82692D01*
X155069Y82972D01*
X155099Y83275D01*
X155109Y83601D01*
X155098Y83879D01*
X155066Y84139D01*
X155013Y84382D01*
X154938Y84607D01*
X154842Y84815D01*
X154724Y85004D01*
X154586Y85176D01*
X154425Y85331D01*
X154246Y85467D01*
X154049Y85586D01*
X153835Y85686D01*
X153604Y85768D01*
X153356Y85831D01*
X153090Y85877D01*
X152807Y85904D01*
X152507Y85913D01*
X152216Y85903D01*
X151940Y85874D01*
X151681Y85825D01*
X151439Y85757D01*
X151213Y85669D01*
X151003Y85561D01*
X150810Y85434D01*
X150633Y85287D01*
X150475Y85123D01*
X150338Y84945D01*
X150222Y84751D01*
X150127Y84544D01*
X150053Y84321D01*
X150001Y84084D01*
X149969Y83832D01*
X149959Y83566D01*
X149969Y83257D01*
X149999Y82969D01*
X150050Y82700D01*
X150121Y82451D01*
X150213Y82222D01*
X150324Y82013D01*
X150457Y81824D01*
X150609Y81654D01*
X150782Y81505D01*
X150975Y81376D01*
X151188Y81266D01*
X151422Y81177D01*
X151676Y81107D01*
X151950Y81057D01*
X152245Y81027D01*
X152560Y81017D01*
G37*
G36*
X152525Y87096D02*
X152795Y87104D01*
X153048Y87128D01*
X153285Y87168D01*
X153505Y87224D01*
X153708Y87296D01*
X153895Y87384D01*
X154066Y87488D01*
X154220Y87608D01*
X154356Y87746D01*
X154474Y87904D01*
X154575Y88082D01*
X154656Y88279D01*
X154720Y88497D01*
X154766Y88734D01*
X154793Y88991D01*
X154802Y89268D01*
X154793Y89521D01*
X154766Y89758D01*
X154721Y89979D01*
X154659Y90184D01*
X154578Y90372D01*
X154479Y90543D01*
X154363Y90699D01*
X154228Y90838D01*
X154076Y90960D01*
X153906Y91067D01*
X153717Y91157D01*
X153511Y91230D01*
X153287Y91287D01*
X153045Y91328D01*
X152785Y91353D01*
X152507Y91361D01*
X152238Y91353D01*
X151984Y91328D01*
X151748Y91287D01*
X151527Y91230D01*
X151324Y91156D01*
X151137Y91065D01*
X150966Y90959D01*
X150813Y90836D01*
X150676Y90696D01*
X150558Y90541D01*
X150458Y90369D01*
X150376Y90181D01*
X150312Y89977D01*
X150267Y89757D01*
X150239Y89520D01*
X150230Y89268D01*
X150239Y89011D01*
X150268Y88769D01*
X150314Y88544D01*
X150380Y88334D01*
X150464Y88140D01*
X150568Y87961D01*
X150689Y87799D01*
X150830Y87652D01*
X150988Y87521D01*
X151161Y87409D01*
X151350Y87313D01*
X151554Y87235D01*
X151773Y87174D01*
X152008Y87130D01*
X152259Y87104D01*
X152525Y87096D01*
G37*
%LPD*%
G36*
X137726Y80010D02*
X136053Y80010D01*
X136053Y92351D01*
X141860Y92351D01*
X142366Y92336D01*
X142842Y92292D01*
X143289Y92220D01*
X143707Y92118D01*
X144094Y91986D01*
X144452Y91826D01*
X144780Y91637D01*
X145078Y91418D01*
X145344Y91173D01*
X145575Y90906D01*
X145770Y90616D01*
X145929Y90302D01*
X146053Y89966D01*
X146142Y89607D01*
X146195Y89226D01*
X146213Y88821D01*
X146200Y88484D01*
X146163Y88161D01*
X146100Y87851D01*
X146012Y87555D01*
X145900Y87273D01*
X145762Y87005D01*
X145599Y86750D01*
X145411Y86509D01*
X145201Y86285D01*
X144972Y86084D01*
X144725Y85903D01*
X144614Y85837D01*
X144458Y85745D01*
X144172Y85608D01*
X143867Y85492D01*
X143543Y85399D01*
X143200Y85326D01*
X144691Y83063D01*
X146703Y80010D01*
X144776Y80010D01*
X141571Y85134D01*
X137726Y85134D01*
X137726Y80010D01*
G37*
%LPC*%
G36*
X141763Y86456D02*
X142085Y86466D01*
X142387Y86495D01*
X142671Y86543D01*
X142936Y86611D01*
X143182Y86697D01*
X143410Y86804D01*
X143618Y86929D01*
X143808Y87074D01*
X143978Y87236D01*
X144125Y87413D01*
X144249Y87606D01*
X144350Y87815D01*
X144429Y88039D01*
X144486Y88278D01*
X144520Y88533D01*
X144531Y88804D01*
X144520Y89065D01*
X144485Y89310D01*
X144428Y89540D01*
X144348Y89753D01*
X144245Y89950D01*
X144120Y90131D01*
X143971Y90297D01*
X143800Y90446D01*
X143607Y90578D01*
X143394Y90693D01*
X143161Y90790D01*
X142907Y90870D01*
X142634Y90931D01*
X142340Y90975D01*
X142027Y91002D01*
X141693Y91011D01*
X137726Y91011D01*
X137726Y86456D01*
X141763Y86456D01*
G37*
%LPD*%
G36*
X102166Y62190D02*
X100493Y62190D01*
X100493Y74531D01*
X106300Y74531D01*
X106806Y74516D01*
X107282Y74472D01*
X107729Y74400D01*
X108147Y74298D01*
X108534Y74166D01*
X108892Y74006D01*
X109220Y73817D01*
X109518Y73598D01*
X109784Y73353D01*
X110015Y73086D01*
X110210Y72796D01*
X110369Y72482D01*
X110493Y72146D01*
X110582Y71787D01*
X110635Y71406D01*
X110653Y71001D01*
X110640Y70664D01*
X110603Y70341D01*
X110540Y70031D01*
X110452Y69735D01*
X110340Y69453D01*
X110202Y69185D01*
X110039Y68930D01*
X109851Y68689D01*
X109641Y68465D01*
X109412Y68264D01*
X109165Y68083D01*
X109054Y68017D01*
X108898Y67925D01*
X108612Y67788D01*
X108307Y67672D01*
X107983Y67579D01*
X107640Y67506D01*
X109131Y65243D01*
X111143Y62190D01*
X109216Y62190D01*
X106011Y67314D01*
X102166Y67314D01*
X102166Y62190D01*
G37*
%LPC*%
G36*
X106203Y68636D02*
X106525Y68646D01*
X106827Y68675D01*
X107111Y68723D01*
X107376Y68791D01*
X107622Y68877D01*
X107850Y68984D01*
X108058Y69109D01*
X108248Y69254D01*
X108418Y69416D01*
X108565Y69593D01*
X108689Y69786D01*
X108790Y69995D01*
X108869Y70219D01*
X108926Y70458D01*
X108960Y70713D01*
X108971Y70984D01*
X108960Y71245D01*
X108925Y71490D01*
X108868Y71720D01*
X108788Y71933D01*
X108685Y72130D01*
X108560Y72311D01*
X108411Y72477D01*
X108240Y72626D01*
X108047Y72758D01*
X107834Y72873D01*
X107601Y72970D01*
X107347Y73050D01*
X107074Y73111D01*
X106780Y73155D01*
X106467Y73182D01*
X106133Y73191D01*
X102166Y73191D01*
X102166Y68636D01*
X106203Y68636D01*
G37*
%LPD*%
G36*
X116650Y62015D02*
X116297Y62024D01*
X115963Y62053D01*
X115646Y62100D01*
X115348Y62167D01*
X115067Y62253D01*
X114805Y62357D01*
X114560Y62481D01*
X114333Y62624D01*
X114123Y62787D01*
X113928Y62975D01*
X113749Y63185D01*
X113585Y63419D01*
X113437Y63677D01*
X113304Y63958D01*
X113187Y64262D01*
X113085Y64590D01*
X114591Y64826D01*
X114727Y64465D01*
X114899Y64152D01*
X115106Y63887D01*
X115349Y63670D01*
X115627Y63502D01*
X115941Y63381D01*
X116291Y63309D01*
X116479Y63291D01*
X116676Y63285D01*
X117006Y63305D01*
X117316Y63364D01*
X117608Y63462D01*
X117880Y63600D01*
X118133Y63777D01*
X118367Y63994D01*
X118582Y64250D01*
X118778Y64546D01*
X118953Y64878D01*
X119106Y65244D01*
X119236Y65643D01*
X119345Y66077D01*
X119431Y66543D01*
X119496Y67044D01*
X119538Y67578D01*
X119557Y68146D01*
X119462Y67954D01*
X119351Y67771D01*
X119224Y67598D01*
X119082Y67435D01*
X118924Y67282D01*
X118751Y67138D01*
X118562Y67004D01*
X118357Y66880D01*
X118142Y66768D01*
X117922Y66671D01*
X117697Y66589D01*
X117466Y66522D01*
X117230Y66470D01*
X116989Y66433D01*
X116743Y66410D01*
X116492Y66403D01*
X116086Y66421D01*
X115701Y66474D01*
X115337Y66563D01*
X114994Y66688D01*
X114672Y66848D01*
X114370Y67043D01*
X114089Y67275D01*
X113829Y67541D01*
X113595Y67838D01*
X113392Y68157D01*
X113221Y68500D01*
X113080Y68866D01*
X112971Y69256D01*
X112893Y69668D01*
X112846Y70104D01*
X112831Y70563D01*
X112848Y71034D01*
X112899Y71479D01*
X112984Y71899D01*
X113102Y72292D01*
X113255Y72659D01*
X113442Y73001D01*
X113662Y73317D01*
X113917Y73607D01*
X114202Y73866D01*
X114513Y74091D01*
X114851Y74282D01*
X115215Y74438D01*
X115606Y74559D01*
X116024Y74645D01*
X116468Y74697D01*
X116939Y74715D01*
X117192Y74709D01*
X117438Y74691D01*
X117905Y74619D01*
X118342Y74500D01*
X118747Y74334D01*
X119121Y74119D01*
X119464Y73857D01*
X119776Y73548D01*
X120057Y73191D01*
X120305Y72786D01*
X120520Y72333D01*
X120702Y71832D01*
X120851Y71284D01*
X120967Y70687D01*
X121050Y70043D01*
X121100Y69350D01*
X121116Y68610D01*
X121098Y67838D01*
X121044Y67112D01*
X120953Y66432D01*
X120826Y65799D01*
X120663Y65211D01*
X120464Y64669D01*
X120228Y64173D01*
X119956Y63723D01*
X119650Y63322D01*
X119314Y62976D01*
X118947Y62682D01*
X118549Y62442D01*
X118120Y62255D01*
X117894Y62182D01*
X117661Y62122D01*
X117420Y62075D01*
X117171Y62042D01*
X116914Y62022D01*
X116650Y62015D01*
G37*
%LPC*%
G36*
X116869Y67647D02*
X117204Y67666D01*
X117528Y67724D01*
X117839Y67821D01*
X118138Y67958D01*
X118416Y68129D01*
X118663Y68333D01*
X118878Y68569D01*
X119063Y68838D01*
X119210Y69132D01*
X119315Y69446D01*
X119379Y69780D01*
X119400Y70134D01*
X119389Y70497D01*
X119357Y70842D01*
X119304Y71169D01*
X119229Y71477D01*
X119133Y71768D01*
X119015Y72040D01*
X118877Y72294D01*
X118717Y72529D01*
X118539Y72742D01*
X118346Y72926D01*
X118139Y73082D01*
X117917Y73209D01*
X117681Y73308D01*
X117431Y73379D01*
X117166Y73422D01*
X116886Y73436D01*
X116609Y73424D01*
X116347Y73388D01*
X116100Y73327D01*
X115868Y73242D01*
X115651Y73133D01*
X115449Y73000D01*
X115262Y72843D01*
X115091Y72661D01*
X114937Y72459D01*
X114803Y72239D01*
X114690Y72003D01*
X114598Y71749D01*
X114526Y71478D01*
X114475Y71190D01*
X114444Y70885D01*
X114434Y70563D01*
X114444Y70235D01*
X114475Y69924D01*
X114526Y69631D01*
X114598Y69356D01*
X114690Y69098D01*
X114803Y68858D01*
X114937Y68635D01*
X115091Y68430D01*
X115262Y68247D01*
X115448Y68088D01*
X115648Y67953D01*
X115863Y67843D01*
X116093Y67757D01*
X116337Y67696D01*
X116595Y67659D01*
X116869Y67647D01*
G37*
%LPD*%
G36*
X195086Y167097D02*
X189174Y167097D01*
X189174Y169053D01*
X189185Y169418D01*
X189221Y169761D01*
X189280Y170083D01*
X189362Y170384D01*
X189468Y170663D01*
X189597Y170920D01*
X189750Y171156D01*
X189927Y171371D01*
X190125Y171563D01*
X190343Y171728D01*
X190581Y171869D01*
X190839Y171983D01*
X191117Y172073D01*
X191414Y172136D01*
X191732Y172175D01*
X192069Y172187D01*
X192512Y172165D01*
X192927Y172098D01*
X193312Y171987D01*
X193670Y171831D01*
X193993Y171634D01*
X194276Y171400D01*
X194518Y171128D01*
X194721Y170819D01*
X194881Y170480D01*
X194995Y170115D01*
X195063Y169724D01*
X195086Y169309D01*
X195086Y167097D01*
G37*
%LPC*%
G36*
X194444Y167899D02*
X194444Y169217D01*
X194426Y169532D01*
X194373Y169828D01*
X194284Y170104D01*
X194159Y170360D01*
X194000Y170592D01*
X193810Y170796D01*
X193589Y170971D01*
X193336Y171117D01*
X193056Y171233D01*
X192751Y171316D01*
X192422Y171365D01*
X192069Y171382D01*
X191802Y171372D01*
X191552Y171344D01*
X191318Y171297D01*
X191100Y171231D01*
X190899Y171147D01*
X190714Y171043D01*
X190545Y170921D01*
X190393Y170780D01*
X190257Y170621D01*
X190140Y170445D01*
X190041Y170252D01*
X189960Y170043D01*
X189897Y169816D01*
X189852Y169573D01*
X189825Y169313D01*
X189816Y169036D01*
X189816Y167899D01*
X194444Y167899D01*
G37*
%LPD*%
G36*
X195086Y173316D02*
X189174Y173316D01*
X189174Y175272D01*
X189185Y175636D01*
X189221Y175980D01*
X189280Y176302D01*
X189362Y176602D01*
X189468Y176881D01*
X189597Y177139D01*
X189750Y177375D01*
X189927Y177590D01*
X190125Y177781D01*
X190343Y177947D01*
X190581Y178087D01*
X190839Y178202D01*
X191117Y178291D01*
X191414Y178355D01*
X191732Y178393D01*
X192069Y178406D01*
X192512Y178384D01*
X192927Y178317D01*
X193312Y178206D01*
X193670Y178049D01*
X193993Y177853D01*
X194276Y177618D01*
X194518Y177347D01*
X194721Y177038D01*
X194881Y176698D01*
X194995Y176333D01*
X195063Y175943D01*
X195086Y175528D01*
X195086Y173316D01*
G37*
%LPC*%
G36*
X194444Y174118D02*
X194444Y175435D01*
X194426Y175751D01*
X194373Y176046D01*
X194284Y176322D01*
X194159Y176579D01*
X194000Y176811D01*
X193810Y177015D01*
X193589Y177190D01*
X193336Y177336D01*
X193056Y177452D01*
X192751Y177534D01*
X192422Y177584D01*
X192069Y177600D01*
X191802Y177591D01*
X191552Y177563D01*
X191318Y177516D01*
X191100Y177450D01*
X190899Y177365D01*
X190714Y177262D01*
X190545Y177139D01*
X190393Y176998D01*
X190257Y176839D01*
X190140Y176664D01*
X190041Y176471D01*
X189960Y176261D01*
X189897Y176035D01*
X189852Y175792D01*
X189825Y175532D01*
X189816Y175255D01*
X189816Y174118D01*
X194444Y174118D01*
G37*
%LPD*%
G36*
X189174Y160712D02*
X189174Y161555D01*
X193336Y163191D01*
X194381Y163544D01*
X193336Y163896D01*
X189174Y165525D01*
X189174Y166368D01*
X195086Y163955D01*
X195086Y163124D01*
X189174Y160712D01*
G37*
G36*
X270063Y152160D02*
X267851Y152160D01*
X267851Y158072D01*
X269807Y158072D01*
X270171Y158061D01*
X270515Y158025D01*
X270837Y157966D01*
X271137Y157884D01*
X271416Y157778D01*
X271674Y157649D01*
X271910Y157496D01*
X272125Y157319D01*
X272316Y157121D01*
X272482Y156903D01*
X272622Y156665D01*
X272737Y156407D01*
X272826Y156129D01*
X272890Y155832D01*
X272928Y155514D01*
X272941Y155177D01*
X272919Y154734D01*
X272852Y154319D01*
X272741Y153934D01*
X272584Y153576D01*
X272388Y153253D01*
X272153Y152970D01*
X271882Y152728D01*
X271573Y152525D01*
X271233Y152365D01*
X270868Y152251D01*
X270478Y152183D01*
X270063Y152160D01*
G37*
%LPC*%
G36*
X269970Y152802D02*
X270286Y152820D01*
X270581Y152873D01*
X270857Y152963D01*
X271114Y153087D01*
X271346Y153246D01*
X271550Y153436D01*
X271725Y153657D01*
X271871Y153910D01*
X271987Y154190D01*
X272069Y154495D01*
X272119Y154824D01*
X272135Y155177D01*
X272126Y155444D01*
X272098Y155694D01*
X272051Y155928D01*
X271985Y156146D01*
X271900Y156347D01*
X271797Y156532D01*
X271674Y156701D01*
X271533Y156853D01*
X271374Y156989D01*
X271199Y157106D01*
X271006Y157205D01*
X270796Y157286D01*
X270570Y157349D01*
X270327Y157394D01*
X270067Y157421D01*
X269790Y157430D01*
X268653Y157430D01*
X268653Y152802D01*
X269970Y152802D01*
G37*
%LPD*%
G36*
X262346Y152160D02*
X261632Y152160D01*
X261632Y158072D01*
X262564Y158072D01*
X265761Y153003D01*
X265724Y153713D01*
X265711Y154195D01*
X265711Y158072D01*
X266433Y158072D01*
X266433Y152160D01*
X265468Y152160D01*
X262304Y157195D01*
X262325Y156788D01*
X262346Y156088D01*
X262346Y152160D01*
G37*
G36*
X257651Y152076D02*
X257204Y152099D01*
X256788Y152168D01*
X256404Y152284D01*
X256053Y152445D01*
X255737Y152650D01*
X255461Y152896D01*
X255224Y153182D01*
X255027Y153509D01*
X254872Y153872D01*
X254761Y154265D01*
X254694Y154689D01*
X254672Y155143D01*
X254684Y155493D01*
X254720Y155822D01*
X254781Y156131D01*
X254865Y156420D01*
X254974Y156689D01*
X255107Y156937D01*
X255263Y157164D01*
X255444Y157372D01*
X255647Y157557D01*
X255869Y157717D01*
X256111Y157852D01*
X256373Y157963D01*
X256654Y158050D01*
X256954Y158111D01*
X257274Y158148D01*
X257614Y158161D01*
X258082Y158140D01*
X258503Y158078D01*
X258879Y157974D01*
X259208Y157829D01*
X259497Y157638D01*
X259751Y157398D01*
X259969Y157108D01*
X260152Y156767D01*
X259389Y156541D01*
X259251Y156776D01*
X259089Y156976D01*
X258904Y157143D01*
X258694Y157275D01*
X258459Y157376D01*
X258198Y157448D01*
X257909Y157491D01*
X257593Y157506D01*
X257344Y157496D01*
X257111Y157467D01*
X256893Y157419D01*
X256690Y157351D01*
X256501Y157264D01*
X256328Y157158D01*
X256170Y157032D01*
X256028Y156887D01*
X255901Y156724D01*
X255791Y156546D01*
X255698Y156352D01*
X255622Y156142D01*
X255562Y155916D01*
X255520Y155674D01*
X255495Y155417D01*
X255486Y155143D01*
X255495Y154871D01*
X255522Y154613D01*
X255567Y154370D01*
X255630Y154141D01*
X255711Y153927D01*
X255810Y153728D01*
X255926Y153544D01*
X256061Y153375D01*
X256212Y153223D01*
X256376Y153091D01*
X256554Y152980D01*
X256746Y152889D01*
X256952Y152818D01*
X257171Y152767D01*
X257404Y152737D01*
X257651Y152726D01*
X257936Y152737D01*
X258211Y152771D01*
X258476Y152826D01*
X258732Y152903D01*
X258971Y152999D01*
X259186Y153110D01*
X259377Y153238D01*
X259544Y153381D01*
X259544Y154447D01*
X257777Y154447D01*
X257777Y155118D01*
X260282Y155118D01*
X260282Y153079D01*
X260034Y152853D01*
X259760Y152655D01*
X259458Y152483D01*
X259131Y152338D01*
X258782Y152224D01*
X258420Y152142D01*
X258043Y152092D01*
X257651Y152076D01*
G37*
G36*
X275761Y152076D02*
X275542Y152082D01*
X275335Y152101D01*
X275139Y152133D01*
X274954Y152177D01*
X274780Y152234D01*
X274618Y152304D01*
X274467Y152386D01*
X274328Y152481D01*
X274201Y152588D01*
X274088Y152708D01*
X273988Y152839D01*
X273902Y152983D01*
X273829Y153139D01*
X273770Y153307D01*
X273724Y153487D01*
X273692Y153679D01*
X274473Y153750D01*
X274526Y153504D01*
X274610Y153291D01*
X274725Y153111D01*
X274870Y152964D01*
X275047Y152849D01*
X275254Y152767D01*
X275492Y152718D01*
X275761Y152701D01*
X276031Y152719D01*
X276270Y152772D01*
X276479Y152859D01*
X276657Y152982D01*
X276799Y153140D01*
X276901Y153332D01*
X276962Y153558D01*
X276982Y153817D01*
X276959Y154046D01*
X276889Y154247D01*
X276773Y154422D01*
X276611Y154571D01*
X276404Y154689D01*
X276157Y154774D01*
X275868Y154824D01*
X275539Y154841D01*
X275111Y154841D01*
X275111Y155496D01*
X275522Y155496D01*
X275815Y155513D01*
X276073Y155564D01*
X276296Y155648D01*
X276485Y155767D01*
X276634Y155915D01*
X276741Y156089D01*
X276805Y156289D01*
X276827Y156516D01*
X276809Y156740D01*
X276757Y156940D01*
X276670Y157115D01*
X276548Y157265D01*
X276391Y157385D01*
X276201Y157471D01*
X275977Y157522D01*
X275719Y157539D01*
X275481Y157523D01*
X275267Y157475D01*
X275077Y157396D01*
X274911Y157284D01*
X274773Y157142D01*
X274667Y156975D01*
X274594Y156782D01*
X274553Y156562D01*
X273793Y156621D01*
X273821Y156797D01*
X273862Y156964D01*
X273917Y157120D01*
X273986Y157267D01*
X274068Y157403D01*
X274163Y157530D01*
X274272Y157647D01*
X274395Y157753D01*
X274673Y157932D01*
X274825Y158002D01*
X274987Y158059D01*
X275159Y158103D01*
X275339Y158135D01*
X275529Y158154D01*
X275727Y158161D01*
X275944Y158154D01*
X276147Y158135D01*
X276339Y158102D01*
X276518Y158057D01*
X276685Y157999D01*
X276839Y157928D01*
X276981Y157844D01*
X277110Y157747D01*
X277226Y157639D01*
X277326Y157520D01*
X277411Y157391D01*
X277480Y157253D01*
X277534Y157104D01*
X277572Y156944D01*
X277595Y156775D01*
X277603Y156595D01*
X277583Y156325D01*
X277524Y156082D01*
X277425Y155865D01*
X277286Y155674D01*
X277110Y155511D01*
X276898Y155377D01*
X276649Y155271D01*
X276365Y155194D01*
X276365Y155177D01*
X276678Y155122D01*
X276955Y155030D01*
X277195Y154900D01*
X277398Y154732D01*
X277559Y154533D01*
X277674Y154311D01*
X277744Y154063D01*
X277767Y153792D01*
X277759Y153594D01*
X277734Y153406D01*
X277694Y153231D01*
X277637Y153066D01*
X277564Y152914D01*
X277474Y152773D01*
X277368Y152643D01*
X277246Y152525D01*
X277109Y152420D01*
X276958Y152329D01*
X276794Y152251D01*
X276615Y152188D01*
X276422Y152139D01*
X276216Y152104D01*
X275995Y152083D01*
X275761Y152076D01*
G37*
D10*
X145784Y-46280D02*
X145786Y-46236D01*
X145792Y-46192D01*
X145802Y-46149D01*
X145815Y-46107D01*
X145832Y-46066D01*
X145853Y-46027D01*
X145877Y-45990D01*
X145904Y-45955D01*
X145934Y-45923D01*
X145967Y-45893D01*
X146003Y-45867D01*
X146040Y-45843D01*
X146080Y-45824D01*
X146121Y-45807D01*
X146164Y-45795D01*
X146207Y-45786D01*
X146251Y-45781D01*
X146295Y-45780D01*
X146339Y-45783D01*
X146383Y-45790D01*
X146426Y-45801D01*
X146468Y-45815D01*
X146508Y-45833D01*
X146547Y-45855D01*
X146583Y-45879D01*
X146617Y-45907D01*
X146649Y-45938D01*
X146678Y-45972D01*
X146704Y-46008D01*
X146726Y-46046D01*
X146745Y-46086D01*
X146760Y-46128D01*
X146772Y-46170D01*
X146780Y-46214D01*
X146784Y-46258D01*
X146784Y-46302D01*
X146780Y-46346D01*
X146772Y-46390D01*
X146760Y-46432D01*
X146745Y-46474D01*
X146726Y-46514D01*
X146704Y-46552D01*
X146678Y-46588D01*
X146649Y-46622D01*
X146617Y-46653D01*
X146583Y-46681D01*
X146547Y-46705D01*
X146508Y-46727D01*
X146468Y-46745D01*
X146426Y-46759D01*
X146383Y-46770D01*
X146339Y-46777D01*
X146295Y-46780D01*
X146251Y-46779D01*
X146207Y-46774D01*
X146164Y-46765D01*
X146121Y-46753D01*
X146080Y-46736D01*
X146040Y-46717D01*
X146003Y-46693D01*
X145967Y-46667D01*
X145934Y-46637D01*
X145904Y-46605D01*
X145877Y-46570D01*
X145853Y-46533D01*
X145832Y-46494D01*
X145815Y-46453D01*
X145802Y-46411D01*
X145792Y-46368D01*
X145786Y-46324D01*
X145784Y-46280D01*
X55540Y57150D02*
X55542Y57194D01*
X55548Y57238D01*
X55558Y57281D01*
X55571Y57323D01*
X55588Y57364D01*
X55609Y57403D01*
X55633Y57440D01*
X55660Y57475D01*
X55690Y57507D01*
X55723Y57537D01*
X55759Y57563D01*
X55796Y57587D01*
X55836Y57606D01*
X55877Y57623D01*
X55920Y57635D01*
X55963Y57644D01*
X56007Y57649D01*
X56051Y57650D01*
X56095Y57647D01*
X56139Y57640D01*
X56182Y57629D01*
X56224Y57615D01*
X56264Y57597D01*
X56303Y57575D01*
X56339Y57551D01*
X56373Y57523D01*
X56405Y57492D01*
X56434Y57458D01*
X56460Y57422D01*
X56482Y57384D01*
X56501Y57344D01*
X56516Y57302D01*
X56528Y57260D01*
X56536Y57216D01*
X56540Y57172D01*
X56540Y57128D01*
X56536Y57084D01*
X56528Y57040D01*
X56516Y56998D01*
X56501Y56956D01*
X56482Y56916D01*
X56460Y56878D01*
X56434Y56842D01*
X56405Y56808D01*
X56373Y56777D01*
X56339Y56749D01*
X56303Y56725D01*
X56264Y56703D01*
X56224Y56685D01*
X56182Y56671D01*
X56139Y56660D01*
X56095Y56653D01*
X56051Y56650D01*
X56007Y56651D01*
X55963Y56656D01*
X55920Y56665D01*
X55877Y56677D01*
X55836Y56694D01*
X55796Y56713D01*
X55759Y56737D01*
X55723Y56763D01*
X55690Y56793D01*
X55660Y56825D01*
X55633Y56860D01*
X55609Y56897D01*
X55588Y56936D01*
X55571Y56977D01*
X55558Y57019D01*
X55548Y57062D01*
X55542Y57106D01*
X55540Y57150D01*
X144440Y38100D02*
X144442Y38144D01*
X144448Y38188D01*
X144458Y38231D01*
X144471Y38273D01*
X144488Y38314D01*
X144509Y38353D01*
X144533Y38390D01*
X144560Y38425D01*
X144590Y38457D01*
X144623Y38487D01*
X144659Y38513D01*
X144696Y38537D01*
X144736Y38556D01*
X144777Y38573D01*
X144820Y38585D01*
X144863Y38594D01*
X144907Y38599D01*
X144951Y38600D01*
X144995Y38597D01*
X145039Y38590D01*
X145082Y38579D01*
X145124Y38565D01*
X145164Y38547D01*
X145203Y38525D01*
X145239Y38501D01*
X145273Y38473D01*
X145305Y38442D01*
X145334Y38408D01*
X145360Y38372D01*
X145382Y38334D01*
X145401Y38294D01*
X145416Y38252D01*
X145428Y38210D01*
X145436Y38166D01*
X145440Y38122D01*
X145440Y38078D01*
X145436Y38034D01*
X145428Y37990D01*
X145416Y37948D01*
X145401Y37906D01*
X145382Y37866D01*
X145360Y37828D01*
X145334Y37792D01*
X145305Y37758D01*
X145273Y37727D01*
X145239Y37699D01*
X145203Y37675D01*
X145164Y37653D01*
X145124Y37635D01*
X145082Y37621D01*
X145039Y37610D01*
X144995Y37603D01*
X144951Y37600D01*
X144907Y37601D01*
X144863Y37606D01*
X144820Y37615D01*
X144777Y37627D01*
X144736Y37644D01*
X144696Y37663D01*
X144659Y37687D01*
X144623Y37713D01*
X144590Y37743D01*
X144560Y37775D01*
X144533Y37810D01*
X144509Y37847D01*
X144488Y37886D01*
X144471Y37927D01*
X144458Y37969D01*
X144448Y38012D01*
X144442Y38056D01*
X144440Y38100D01*
X168990Y135760D02*
X184020Y135760D01*
X184020Y115700D01*
X163960Y115700D01*
X163960Y130730D01*
X168990Y135760D01*
X162960Y135760D02*
X162962Y135823D01*
X162968Y135885D01*
X162978Y135947D01*
X162991Y136009D01*
X163009Y136069D01*
X163030Y136128D01*
X163055Y136186D01*
X163084Y136242D01*
X163116Y136296D01*
X163151Y136348D01*
X163189Y136397D01*
X163231Y136445D01*
X163275Y136489D01*
X163323Y136531D01*
X163372Y136569D01*
X163424Y136604D01*
X163478Y136636D01*
X163534Y136665D01*
X163592Y136690D01*
X163651Y136711D01*
X163711Y136729D01*
X163773Y136742D01*
X163835Y136752D01*
X163897Y136758D01*
X163960Y136760D01*
X164023Y136758D01*
X164085Y136752D01*
X164147Y136742D01*
X164209Y136729D01*
X164269Y136711D01*
X164328Y136690D01*
X164386Y136665D01*
X164442Y136636D01*
X164496Y136604D01*
X164548Y136569D01*
X164597Y136531D01*
X164645Y136489D01*
X164689Y136445D01*
X164731Y136397D01*
X164769Y136348D01*
X164804Y136296D01*
X164836Y136242D01*
X164865Y136186D01*
X164890Y136128D01*
X164911Y136069D01*
X164929Y136009D01*
X164942Y135947D01*
X164952Y135885D01*
X164958Y135823D01*
X164960Y135760D01*
X164958Y135697D01*
X164952Y135635D01*
X164942Y135573D01*
X164929Y135511D01*
X164911Y135451D01*
X164890Y135392D01*
X164865Y135334D01*
X164836Y135278D01*
X164804Y135224D01*
X164769Y135172D01*
X164731Y135123D01*
X164689Y135075D01*
X164645Y135031D01*
X164597Y134989D01*
X164548Y134951D01*
X164496Y134916D01*
X164442Y134884D01*
X164386Y134855D01*
X164328Y134830D01*
X164269Y134809D01*
X164209Y134791D01*
X164147Y134778D01*
X164085Y134768D01*
X164023Y134762D01*
X163960Y134760D01*
X163897Y134762D01*
X163835Y134768D01*
X163773Y134778D01*
X163711Y134791D01*
X163651Y134809D01*
X163592Y134830D01*
X163534Y134855D01*
X163478Y134884D01*
X163424Y134916D01*
X163372Y134951D01*
X163323Y134989D01*
X163275Y135031D01*
X163231Y135075D01*
X163189Y135123D01*
X163151Y135172D01*
X163116Y135224D01*
X163084Y135278D01*
X163055Y135334D01*
X163030Y135392D01*
X163009Y135451D01*
X162991Y135511D01*
X162978Y135573D01*
X162968Y135635D01*
X162962Y135697D01*
X162960Y135760D01*
X193505Y90170D02*
X193507Y90214D01*
X193513Y90258D01*
X193523Y90301D01*
X193536Y90343D01*
X193553Y90384D01*
X193574Y90423D01*
X193598Y90460D01*
X193625Y90495D01*
X193655Y90527D01*
X193688Y90557D01*
X193724Y90583D01*
X193761Y90607D01*
X193801Y90626D01*
X193842Y90643D01*
X193885Y90655D01*
X193928Y90664D01*
X193972Y90669D01*
X194016Y90670D01*
X194060Y90667D01*
X194104Y90660D01*
X194147Y90649D01*
X194189Y90635D01*
X194229Y90617D01*
X194268Y90595D01*
X194304Y90571D01*
X194338Y90543D01*
X194370Y90512D01*
X194399Y90478D01*
X194425Y90442D01*
X194447Y90404D01*
X194466Y90364D01*
X194481Y90322D01*
X194493Y90280D01*
X194501Y90236D01*
X194505Y90192D01*
X194505Y90148D01*
X194501Y90104D01*
X194493Y90060D01*
X194481Y90018D01*
X194466Y89976D01*
X194447Y89936D01*
X194425Y89898D01*
X194399Y89862D01*
X194370Y89828D01*
X194338Y89797D01*
X194304Y89769D01*
X194268Y89745D01*
X194229Y89723D01*
X194189Y89705D01*
X194147Y89691D01*
X194104Y89680D01*
X194060Y89673D01*
X194016Y89670D01*
X193972Y89671D01*
X193928Y89676D01*
X193885Y89685D01*
X193842Y89697D01*
X193801Y89714D01*
X193761Y89733D01*
X193724Y89757D01*
X193688Y89783D01*
X193655Y89813D01*
X193625Y89845D01*
X193598Y89880D01*
X193574Y89917D01*
X193553Y89956D01*
X193536Y89997D01*
X193523Y90039D01*
X193513Y90082D01*
X193507Y90126D01*
X193505Y90170D01*
D11*
X102260Y108970D02*
X102230Y108972D01*
X102200Y108977D01*
X102171Y108986D01*
X102144Y108999D01*
X102118Y109014D01*
X102094Y109033D01*
X102073Y109054D01*
X102054Y109078D01*
X102039Y109104D01*
X102026Y109131D01*
X102017Y109160D01*
X102012Y109190D01*
X102010Y109220D01*
X102012Y109250D01*
X102017Y109280D01*
X102026Y109309D01*
X102039Y109336D01*
X102054Y109362D01*
X102073Y109386D01*
X102094Y109407D01*
X102118Y109426D01*
X102144Y109441D01*
X102171Y109454D01*
X102200Y109463D01*
X102230Y109468D01*
X102260Y109470D01*
X102290Y109468D01*
X102320Y109463D01*
X102349Y109454D01*
X102376Y109441D01*
X102402Y109426D01*
X102426Y109407D01*
X102447Y109386D01*
X102466Y109362D01*
X102481Y109336D01*
X102494Y109309D01*
X102503Y109280D01*
X102508Y109250D01*
X102510Y109220D01*
X102508Y109190D01*
X102503Y109160D01*
X102494Y109131D01*
X102481Y109104D01*
X102466Y109078D01*
X102447Y109054D01*
X102426Y109033D01*
X102402Y109014D01*
X102376Y108999D01*
X102349Y108986D01*
X102320Y108977D01*
X102290Y108972D01*
X102260Y108970D01*
D10*
X124925Y41910D02*
X124927Y41954D01*
X124933Y41998D01*
X124943Y42041D01*
X124956Y42083D01*
X124973Y42124D01*
X124994Y42163D01*
X125018Y42200D01*
X125045Y42235D01*
X125075Y42267D01*
X125108Y42297D01*
X125144Y42323D01*
X125181Y42347D01*
X125221Y42366D01*
X125262Y42383D01*
X125305Y42395D01*
X125348Y42404D01*
X125392Y42409D01*
X125436Y42410D01*
X125480Y42407D01*
X125524Y42400D01*
X125567Y42389D01*
X125609Y42375D01*
X125649Y42357D01*
X125688Y42335D01*
X125724Y42311D01*
X125758Y42283D01*
X125790Y42252D01*
X125819Y42218D01*
X125845Y42182D01*
X125867Y42144D01*
X125886Y42104D01*
X125901Y42062D01*
X125913Y42020D01*
X125921Y41976D01*
X125925Y41932D01*
X125925Y41888D01*
X125921Y41844D01*
X125913Y41800D01*
X125901Y41758D01*
X125886Y41716D01*
X125867Y41676D01*
X125845Y41638D01*
X125819Y41602D01*
X125790Y41568D01*
X125758Y41537D01*
X125724Y41509D01*
X125688Y41485D01*
X125649Y41463D01*
X125609Y41445D01*
X125567Y41431D01*
X125524Y41420D01*
X125480Y41413D01*
X125436Y41410D01*
X125392Y41411D01*
X125348Y41416D01*
X125305Y41425D01*
X125262Y41437D01*
X125221Y41454D01*
X125181Y41473D01*
X125144Y41497D01*
X125108Y41523D01*
X125075Y41553D01*
X125045Y41585D01*
X125018Y41620D01*
X124994Y41657D01*
X124973Y41696D01*
X124956Y41737D01*
X124943Y41779D01*
X124933Y41822D01*
X124927Y41866D01*
X124925Y41910D01*
X140470Y103175D02*
X140472Y103219D01*
X140478Y103263D01*
X140488Y103306D01*
X140501Y103348D01*
X140518Y103389D01*
X140539Y103428D01*
X140563Y103465D01*
X140590Y103500D01*
X140620Y103532D01*
X140653Y103562D01*
X140689Y103588D01*
X140726Y103612D01*
X140766Y103631D01*
X140807Y103648D01*
X140850Y103660D01*
X140893Y103669D01*
X140937Y103674D01*
X140981Y103675D01*
X141025Y103672D01*
X141069Y103665D01*
X141112Y103654D01*
X141154Y103640D01*
X141194Y103622D01*
X141233Y103600D01*
X141269Y103576D01*
X141303Y103548D01*
X141335Y103517D01*
X141364Y103483D01*
X141390Y103447D01*
X141412Y103409D01*
X141431Y103369D01*
X141446Y103327D01*
X141458Y103285D01*
X141466Y103241D01*
X141470Y103197D01*
X141470Y103153D01*
X141466Y103109D01*
X141458Y103065D01*
X141446Y103023D01*
X141431Y102981D01*
X141412Y102941D01*
X141390Y102903D01*
X141364Y102867D01*
X141335Y102833D01*
X141303Y102802D01*
X141269Y102774D01*
X141233Y102750D01*
X141194Y102728D01*
X141154Y102710D01*
X141112Y102696D01*
X141069Y102685D01*
X141025Y102678D01*
X140981Y102675D01*
X140937Y102676D01*
X140893Y102681D01*
X140850Y102690D01*
X140807Y102702D01*
X140766Y102719D01*
X140726Y102738D01*
X140689Y102762D01*
X140653Y102788D01*
X140620Y102818D01*
X140590Y102850D01*
X140563Y102885D01*
X140539Y102922D01*
X140518Y102961D01*
X140501Y103002D01*
X140488Y103044D01*
X140478Y103087D01*
X140472Y103131D01*
X140470Y103175D01*
X161755Y63500D02*
X161757Y63544D01*
X161763Y63588D01*
X161773Y63631D01*
X161786Y63673D01*
X161803Y63714D01*
X161824Y63753D01*
X161848Y63790D01*
X161875Y63825D01*
X161905Y63857D01*
X161938Y63887D01*
X161974Y63913D01*
X162011Y63937D01*
X162051Y63956D01*
X162092Y63973D01*
X162135Y63985D01*
X162178Y63994D01*
X162222Y63999D01*
X162266Y64000D01*
X162310Y63997D01*
X162354Y63990D01*
X162397Y63979D01*
X162439Y63965D01*
X162479Y63947D01*
X162518Y63925D01*
X162554Y63901D01*
X162588Y63873D01*
X162620Y63842D01*
X162649Y63808D01*
X162675Y63772D01*
X162697Y63734D01*
X162716Y63694D01*
X162731Y63652D01*
X162743Y63610D01*
X162751Y63566D01*
X162755Y63522D01*
X162755Y63478D01*
X162751Y63434D01*
X162743Y63390D01*
X162731Y63348D01*
X162716Y63306D01*
X162697Y63266D01*
X162675Y63228D01*
X162649Y63192D01*
X162620Y63158D01*
X162588Y63127D01*
X162554Y63099D01*
X162518Y63075D01*
X162479Y63053D01*
X162439Y63035D01*
X162397Y63021D01*
X162354Y63010D01*
X162310Y63003D01*
X162266Y63000D01*
X162222Y63001D01*
X162178Y63006D01*
X162135Y63015D01*
X162092Y63027D01*
X162051Y63044D01*
X162011Y63063D01*
X161974Y63087D01*
X161938Y63113D01*
X161905Y63143D01*
X161875Y63175D01*
X161848Y63210D01*
X161824Y63247D01*
X161803Y63286D01*
X161786Y63327D01*
X161773Y63369D01*
X161763Y63412D01*
X161757Y63456D01*
X161755Y63500D01*
D11*
X239780Y153060D02*
X239782Y153030D01*
X239787Y153000D01*
X239796Y152971D01*
X239809Y152944D01*
X239824Y152918D01*
X239843Y152894D01*
X239864Y152873D01*
X239888Y152854D01*
X239914Y152839D01*
X239941Y152826D01*
X239970Y152817D01*
X240000Y152812D01*
X240030Y152810D01*
X240060Y152812D01*
X240090Y152817D01*
X240119Y152826D01*
X240146Y152839D01*
X240172Y152854D01*
X240196Y152873D01*
X240217Y152894D01*
X240236Y152918D01*
X240251Y152944D01*
X240264Y152971D01*
X240273Y153000D01*
X240278Y153030D01*
X240280Y153060D01*
X240278Y153090D01*
X240273Y153120D01*
X240264Y153149D01*
X240251Y153176D01*
X240236Y153202D01*
X240217Y153226D01*
X240196Y153247D01*
X240172Y153266D01*
X240146Y153281D01*
X240119Y153294D01*
X240090Y153303D01*
X240060Y153308D01*
X240030Y153310D01*
X240000Y153308D01*
X239970Y153303D01*
X239941Y153294D01*
X239914Y153281D01*
X239888Y153266D01*
X239864Y153247D01*
X239843Y153226D01*
X239824Y153202D01*
X239809Y153176D01*
X239796Y153149D01*
X239787Y153120D01*
X239782Y153090D01*
X239780Y153060D01*
X355350Y99720D02*
X355352Y99690D01*
X355357Y99660D01*
X355366Y99631D01*
X355379Y99604D01*
X355394Y99578D01*
X355413Y99554D01*
X355434Y99533D01*
X355458Y99514D01*
X355484Y99499D01*
X355511Y99486D01*
X355540Y99477D01*
X355570Y99472D01*
X355600Y99470D01*
X355630Y99472D01*
X355660Y99477D01*
X355689Y99486D01*
X355716Y99499D01*
X355742Y99514D01*
X355766Y99533D01*
X355787Y99554D01*
X355806Y99578D01*
X355821Y99604D01*
X355834Y99631D01*
X355843Y99660D01*
X355848Y99690D01*
X355850Y99720D01*
X355848Y99750D01*
X355843Y99780D01*
X355834Y99809D01*
X355821Y99836D01*
X355806Y99862D01*
X355787Y99886D01*
X355766Y99907D01*
X355742Y99926D01*
X355716Y99941D01*
X355689Y99954D01*
X355660Y99963D01*
X355630Y99968D01*
X355600Y99970D01*
X355570Y99968D01*
X355540Y99963D01*
X355511Y99954D01*
X355484Y99941D01*
X355458Y99926D01*
X355434Y99907D01*
X355413Y99886D01*
X355394Y99862D01*
X355379Y99836D01*
X355366Y99809D01*
X355357Y99780D01*
X355352Y99750D01*
X355350Y99720D01*
D10*
X353830Y86055D02*
X353832Y86099D01*
X353838Y86143D01*
X353848Y86186D01*
X353861Y86228D01*
X353878Y86269D01*
X353899Y86308D01*
X353923Y86345D01*
X353950Y86380D01*
X353980Y86412D01*
X354013Y86442D01*
X354049Y86468D01*
X354086Y86492D01*
X354126Y86511D01*
X354167Y86528D01*
X354210Y86540D01*
X354253Y86549D01*
X354297Y86554D01*
X354341Y86555D01*
X354385Y86552D01*
X354429Y86545D01*
X354472Y86534D01*
X354514Y86520D01*
X354554Y86502D01*
X354593Y86480D01*
X354629Y86456D01*
X354663Y86428D01*
X354695Y86397D01*
X354724Y86363D01*
X354750Y86327D01*
X354772Y86289D01*
X354791Y86249D01*
X354806Y86207D01*
X354818Y86165D01*
X354826Y86121D01*
X354830Y86077D01*
X354830Y86033D01*
X354826Y85989D01*
X354818Y85945D01*
X354806Y85903D01*
X354791Y85861D01*
X354772Y85821D01*
X354750Y85783D01*
X354724Y85747D01*
X354695Y85713D01*
X354663Y85682D01*
X354629Y85654D01*
X354593Y85630D01*
X354554Y85608D01*
X354514Y85590D01*
X354472Y85576D01*
X354429Y85565D01*
X354385Y85558D01*
X354341Y85555D01*
X354297Y85556D01*
X354253Y85561D01*
X354210Y85570D01*
X354167Y85582D01*
X354126Y85599D01*
X354086Y85618D01*
X354049Y85642D01*
X354013Y85668D01*
X353980Y85698D01*
X353950Y85730D01*
X353923Y85765D01*
X353899Y85802D01*
X353878Y85841D01*
X353861Y85882D01*
X353848Y85924D01*
X353838Y85967D01*
X353832Y86011D01*
X353830Y86055D01*
D11*
X106070Y-48010D02*
X106040Y-48012D01*
X106010Y-48017D01*
X105981Y-48026D01*
X105954Y-48039D01*
X105928Y-48054D01*
X105904Y-48073D01*
X105883Y-48094D01*
X105864Y-48118D01*
X105849Y-48144D01*
X105836Y-48171D01*
X105827Y-48200D01*
X105822Y-48230D01*
X105820Y-48260D01*
X105822Y-48290D01*
X105827Y-48320D01*
X105836Y-48349D01*
X105849Y-48376D01*
X105864Y-48402D01*
X105883Y-48426D01*
X105904Y-48447D01*
X105928Y-48466D01*
X105954Y-48481D01*
X105981Y-48494D01*
X106010Y-48503D01*
X106040Y-48508D01*
X106070Y-48510D01*
X106100Y-48508D01*
X106130Y-48503D01*
X106159Y-48494D01*
X106186Y-48481D01*
X106212Y-48466D01*
X106236Y-48447D01*
X106257Y-48426D01*
X106276Y-48402D01*
X106291Y-48376D01*
X106304Y-48349D01*
X106313Y-48320D01*
X106318Y-48290D01*
X106320Y-48260D01*
X106318Y-48230D01*
X106313Y-48200D01*
X106304Y-48171D01*
X106291Y-48144D01*
X106276Y-48118D01*
X106257Y-48094D01*
X106236Y-48073D01*
X106212Y-48054D01*
X106186Y-48039D01*
X106159Y-48026D01*
X106130Y-48017D01*
X106100Y-48012D01*
X106070Y-48010D01*
X76810Y-60710D02*
X76840Y-60712D01*
X76870Y-60717D01*
X76899Y-60726D01*
X76926Y-60739D01*
X76952Y-60754D01*
X76976Y-60773D01*
X76997Y-60794D01*
X77016Y-60818D01*
X77031Y-60844D01*
X77044Y-60871D01*
X77053Y-60900D01*
X77058Y-60930D01*
X77060Y-60960D01*
X77058Y-60990D01*
X77053Y-61020D01*
X77044Y-61049D01*
X77031Y-61076D01*
X77016Y-61102D01*
X76997Y-61126D01*
X76976Y-61147D01*
X76952Y-61166D01*
X76926Y-61181D01*
X76899Y-61194D01*
X76870Y-61203D01*
X76840Y-61208D01*
X76810Y-61210D01*
X76780Y-61208D01*
X76750Y-61203D01*
X76721Y-61194D01*
X76694Y-61181D01*
X76668Y-61166D01*
X76644Y-61147D01*
X76623Y-61126D01*
X76604Y-61102D01*
X76589Y-61076D01*
X76576Y-61049D01*
X76567Y-61020D01*
X76562Y-60990D01*
X76560Y-60960D01*
X76562Y-60930D01*
X76567Y-60900D01*
X76576Y-60871D01*
X76589Y-60844D01*
X76604Y-60818D01*
X76623Y-60794D01*
X76644Y-60773D01*
X76668Y-60754D01*
X76694Y-60739D01*
X76721Y-60726D01*
X76750Y-60717D01*
X76780Y-60712D01*
X76810Y-60710D01*
X126340Y17530D02*
X126370Y17532D01*
X126400Y17537D01*
X126429Y17546D01*
X126456Y17559D01*
X126482Y17574D01*
X126506Y17593D01*
X126527Y17614D01*
X126546Y17638D01*
X126561Y17664D01*
X126574Y17691D01*
X126583Y17720D01*
X126588Y17750D01*
X126590Y17780D01*
X126588Y17810D01*
X126583Y17840D01*
X126574Y17869D01*
X126561Y17896D01*
X126546Y17922D01*
X126527Y17946D01*
X126506Y17967D01*
X126482Y17986D01*
X126456Y18001D01*
X126429Y18014D01*
X126400Y18023D01*
X126370Y18028D01*
X126340Y18030D01*
X126310Y18028D01*
X126280Y18023D01*
X126251Y18014D01*
X126224Y18001D01*
X126198Y17986D01*
X126174Y17967D01*
X126153Y17946D01*
X126134Y17922D01*
X126119Y17896D01*
X126106Y17869D01*
X126097Y17840D01*
X126092Y17810D01*
X126090Y17780D01*
X126092Y17750D01*
X126097Y17720D01*
X126106Y17691D01*
X126119Y17664D01*
X126134Y17638D01*
X126153Y17614D01*
X126174Y17593D01*
X126198Y17574D01*
X126224Y17559D01*
X126251Y17546D01*
X126280Y17537D01*
X126310Y17532D01*
X126340Y17530D01*
X136550Y86110D02*
X136520Y86112D01*
X136490Y86117D01*
X136461Y86126D01*
X136434Y86139D01*
X136408Y86154D01*
X136384Y86173D01*
X136363Y86194D01*
X136344Y86218D01*
X136329Y86244D01*
X136316Y86271D01*
X136307Y86300D01*
X136302Y86330D01*
X136300Y86360D01*
X136302Y86390D01*
X136307Y86420D01*
X136316Y86449D01*
X136329Y86476D01*
X136344Y86502D01*
X136363Y86526D01*
X136384Y86547D01*
X136408Y86566D01*
X136434Y86581D01*
X136461Y86594D01*
X136490Y86603D01*
X136520Y86608D01*
X136550Y86610D01*
X136580Y86608D01*
X136610Y86603D01*
X136639Y86594D01*
X136666Y86581D01*
X136692Y86566D01*
X136716Y86547D01*
X136737Y86526D01*
X136756Y86502D01*
X136771Y86476D01*
X136784Y86449D01*
X136793Y86420D01*
X136798Y86390D01*
X136800Y86360D01*
X136798Y86330D01*
X136793Y86300D01*
X136784Y86271D01*
X136771Y86244D01*
X136756Y86218D01*
X136737Y86194D01*
X136716Y86173D01*
X136692Y86154D01*
X136666Y86139D01*
X136639Y86126D01*
X136610Y86117D01*
X136580Y86112D01*
X136550Y86110D01*
D10*
X121115Y68540D02*
X121117Y68584D01*
X121123Y68628D01*
X121133Y68671D01*
X121146Y68713D01*
X121163Y68754D01*
X121184Y68793D01*
X121208Y68830D01*
X121235Y68865D01*
X121265Y68897D01*
X121298Y68927D01*
X121334Y68953D01*
X121371Y68977D01*
X121411Y68996D01*
X121452Y69013D01*
X121495Y69025D01*
X121538Y69034D01*
X121582Y69039D01*
X121626Y69040D01*
X121670Y69037D01*
X121714Y69030D01*
X121757Y69019D01*
X121799Y69005D01*
X121839Y68987D01*
X121878Y68965D01*
X121914Y68941D01*
X121948Y68913D01*
X121980Y68882D01*
X122009Y68848D01*
X122035Y68812D01*
X122057Y68774D01*
X122076Y68734D01*
X122091Y68692D01*
X122103Y68650D01*
X122111Y68606D01*
X122115Y68562D01*
X122115Y68518D01*
X122111Y68474D01*
X122103Y68430D01*
X122091Y68388D01*
X122076Y68346D01*
X122057Y68306D01*
X122035Y68268D01*
X122009Y68232D01*
X121980Y68198D01*
X121948Y68167D01*
X121914Y68139D01*
X121878Y68115D01*
X121839Y68093D01*
X121799Y68075D01*
X121757Y68061D01*
X121714Y68050D01*
X121670Y68043D01*
X121626Y68040D01*
X121582Y68041D01*
X121538Y68046D01*
X121495Y68055D01*
X121452Y68067D01*
X121411Y68084D01*
X121371Y68103D01*
X121334Y68127D01*
X121298Y68153D01*
X121265Y68183D01*
X121235Y68215D01*
X121208Y68250D01*
X121184Y68287D01*
X121163Y68326D01*
X121146Y68367D01*
X121133Y68409D01*
X121123Y68452D01*
X121117Y68496D01*
X121115Y68540D01*
M02*
