G04 EAGLE Gerber RS-274X export*
G75*
%MOMM*%
%FSLAX34Y34*%
%LPD*%
%INSilkscreen Top*%
%IPPOS*%
%AMOC8*
5,1,8,0,0,1.08239X$1,22.5*%
G01*
G04 Define Apertures*
%ADD10C,0.200000*%
%ADD11C,0.050000*%
G36*
X269363Y77072D02*
X268999Y77078D01*
X268645Y77097D01*
X268301Y77128D01*
X267967Y77172D01*
X267643Y77228D01*
X267329Y77296D01*
X267025Y77377D01*
X266731Y77471D01*
X266447Y77577D01*
X266173Y77695D01*
X265655Y77969D01*
X265176Y78293D01*
X264738Y78666D01*
X264346Y79084D01*
X264006Y79540D01*
X263856Y79782D01*
X263719Y80034D01*
X263595Y80296D01*
X263484Y80567D01*
X263386Y80847D01*
X263301Y81138D01*
X263229Y81438D01*
X263170Y81747D01*
X263124Y82066D01*
X263091Y82395D01*
X263072Y82733D01*
X263065Y83081D01*
X263077Y83563D01*
X263113Y84025D01*
X263174Y84467D01*
X263258Y84889D01*
X263366Y85291D01*
X263499Y85672D01*
X263655Y86033D01*
X263836Y86374D01*
X264040Y86693D01*
X264268Y86991D01*
X264519Y87267D01*
X264793Y87521D01*
X265090Y87753D01*
X265411Y87963D01*
X265755Y88152D01*
X266122Y88318D01*
X266648Y86733D01*
X266386Y86617D01*
X266141Y86486D01*
X265911Y86338D01*
X265697Y86173D01*
X265499Y85993D01*
X265317Y85796D01*
X265151Y85583D01*
X265001Y85353D01*
X264868Y85110D01*
X264752Y84856D01*
X264654Y84591D01*
X264574Y84314D01*
X264512Y84027D01*
X264467Y83728D01*
X264441Y83419D01*
X264432Y83098D01*
X264452Y82600D01*
X264514Y82130D01*
X264617Y81689D01*
X264761Y81276D01*
X264947Y80892D01*
X265173Y80536D01*
X265441Y80209D01*
X265750Y79910D01*
X266095Y79643D01*
X266470Y79412D01*
X266876Y79216D01*
X267312Y79056D01*
X267779Y78931D01*
X268276Y78842D01*
X268804Y78789D01*
X269363Y78771D01*
X269916Y78790D01*
X270441Y78845D01*
X270939Y78938D01*
X271409Y79068D01*
X271851Y79235D01*
X272265Y79439D01*
X272652Y79680D01*
X273011Y79958D01*
X273334Y80268D01*
X273614Y80604D01*
X273851Y80966D01*
X274045Y81354D01*
X274196Y81768D01*
X274304Y82209D01*
X274369Y82675D01*
X274390Y83168D01*
X274380Y83487D01*
X274350Y83796D01*
X274300Y84095D01*
X274230Y84384D01*
X274139Y84663D01*
X274029Y84931D01*
X273899Y85190D01*
X273749Y85439D01*
X273578Y85677D01*
X273388Y85906D01*
X273177Y86124D01*
X272947Y86333D01*
X272696Y86531D01*
X272425Y86719D01*
X272135Y86897D01*
X271824Y87066D01*
X272507Y88432D01*
X272894Y88232D01*
X273256Y88012D01*
X273595Y87774D01*
X273911Y87516D01*
X274202Y87238D01*
X274469Y86942D01*
X274713Y86626D01*
X274933Y86291D01*
X275128Y85939D01*
X275297Y85573D01*
X275440Y85194D01*
X275557Y84800D01*
X275648Y84393D01*
X275713Y83973D01*
X275752Y83538D01*
X275765Y83089D01*
X275753Y82631D01*
X275717Y82188D01*
X275656Y81761D01*
X275571Y81350D01*
X275462Y80954D01*
X275329Y80574D01*
X275172Y80210D01*
X274990Y79862D01*
X274786Y79531D01*
X274561Y79221D01*
X274315Y78931D01*
X274049Y78662D01*
X273761Y78412D01*
X273453Y78183D01*
X273124Y77975D01*
X272774Y77786D01*
X272406Y77619D01*
X272021Y77474D01*
X271619Y77351D01*
X271201Y77251D01*
X270766Y77173D01*
X270315Y77117D01*
X269847Y77083D01*
X269363Y77072D01*
G37*
G36*
X275590Y90496D02*
X274250Y90496D01*
X274250Y93641D01*
X264756Y93641D01*
X266744Y90855D01*
X265255Y90855D01*
X263249Y93772D01*
X263249Y95226D01*
X274250Y95226D01*
X274250Y98230D01*
X275590Y98230D01*
X275590Y90496D01*
G37*
G36*
X90853Y73336D02*
X90489Y73342D01*
X90135Y73361D01*
X89791Y73392D01*
X89457Y73436D01*
X89133Y73492D01*
X88819Y73560D01*
X88515Y73641D01*
X88221Y73735D01*
X87937Y73841D01*
X87663Y73959D01*
X87145Y74233D01*
X86666Y74557D01*
X86228Y74930D01*
X85836Y75348D01*
X85496Y75804D01*
X85346Y76046D01*
X85209Y76298D01*
X85085Y76560D01*
X84974Y76831D01*
X84876Y77111D01*
X84791Y77402D01*
X84719Y77702D01*
X84660Y78011D01*
X84614Y78330D01*
X84581Y78659D01*
X84562Y78997D01*
X84555Y79345D01*
X84567Y79827D01*
X84603Y80289D01*
X84664Y80731D01*
X84748Y81153D01*
X84856Y81555D01*
X84989Y81936D01*
X85145Y82297D01*
X85326Y82638D01*
X85530Y82957D01*
X85758Y83255D01*
X86009Y83531D01*
X86283Y83785D01*
X86580Y84017D01*
X86901Y84227D01*
X87245Y84416D01*
X87612Y84582D01*
X88138Y82997D01*
X87876Y82881D01*
X87631Y82750D01*
X87401Y82602D01*
X87187Y82437D01*
X86989Y82257D01*
X86807Y82060D01*
X86641Y81847D01*
X86491Y81617D01*
X86358Y81374D01*
X86242Y81120D01*
X86144Y80855D01*
X86064Y80578D01*
X86002Y80291D01*
X85957Y79992D01*
X85931Y79683D01*
X85922Y79362D01*
X85942Y78864D01*
X86004Y78394D01*
X86107Y77953D01*
X86251Y77540D01*
X86437Y77156D01*
X86663Y76800D01*
X86931Y76473D01*
X87240Y76174D01*
X87585Y75907D01*
X87960Y75676D01*
X88366Y75480D01*
X88802Y75320D01*
X89269Y75195D01*
X89766Y75106D01*
X90294Y75053D01*
X90853Y75035D01*
X91406Y75054D01*
X91931Y75109D01*
X92429Y75202D01*
X92899Y75332D01*
X93341Y75499D01*
X93755Y75703D01*
X94142Y75944D01*
X94501Y76222D01*
X94824Y76532D01*
X95104Y76868D01*
X95341Y77230D01*
X95535Y77618D01*
X95686Y78032D01*
X95794Y78473D01*
X95859Y78939D01*
X95880Y79432D01*
X95870Y79751D01*
X95840Y80060D01*
X95790Y80359D01*
X95720Y80648D01*
X95629Y80927D01*
X95519Y81195D01*
X95389Y81454D01*
X95239Y81703D01*
X95068Y81941D01*
X94878Y82170D01*
X94667Y82388D01*
X94437Y82597D01*
X94186Y82795D01*
X93915Y82983D01*
X93625Y83161D01*
X93314Y83330D01*
X93997Y84696D01*
X94384Y84496D01*
X94746Y84276D01*
X95085Y84038D01*
X95401Y83780D01*
X95692Y83502D01*
X95959Y83206D01*
X96203Y82890D01*
X96423Y82555D01*
X96618Y82203D01*
X96787Y81837D01*
X96930Y81458D01*
X97047Y81064D01*
X97138Y80657D01*
X97203Y80237D01*
X97242Y79802D01*
X97255Y79353D01*
X97243Y78895D01*
X97207Y78452D01*
X97146Y78025D01*
X97061Y77614D01*
X96952Y77218D01*
X96819Y76838D01*
X96662Y76474D01*
X96480Y76126D01*
X96276Y75795D01*
X96051Y75485D01*
X95805Y75195D01*
X95539Y74926D01*
X95251Y74676D01*
X94943Y74447D01*
X94614Y74239D01*
X94264Y74050D01*
X93896Y73883D01*
X93511Y73738D01*
X93109Y73615D01*
X92691Y73515D01*
X92256Y73437D01*
X91805Y73381D01*
X91337Y73347D01*
X90853Y73336D01*
G37*
G36*
X97080Y86296D02*
X95968Y86296D01*
X95470Y86532D01*
X95003Y86792D01*
X94566Y87077D01*
X94159Y87387D01*
X93776Y87713D01*
X93412Y88047D01*
X93067Y88389D01*
X92740Y88740D01*
X92128Y89446D01*
X91562Y90146D01*
X91019Y90808D01*
X90476Y91402D01*
X90201Y91669D01*
X89920Y91909D01*
X89632Y92122D01*
X89337Y92309D01*
X89030Y92460D01*
X88702Y92568D01*
X88355Y92633D01*
X87989Y92655D01*
X87742Y92646D01*
X87509Y92618D01*
X87291Y92571D01*
X87087Y92506D01*
X86897Y92422D01*
X86721Y92320D01*
X86559Y92199D01*
X86412Y92059D01*
X86281Y91903D01*
X86167Y91732D01*
X86071Y91547D01*
X85992Y91348D01*
X85930Y91133D01*
X85887Y90905D01*
X85860Y90662D01*
X85852Y90404D01*
X85860Y90158D01*
X85886Y89922D01*
X85929Y89698D01*
X85988Y89485D01*
X86065Y89283D01*
X86159Y89093D01*
X86271Y88913D01*
X86399Y88744D01*
X86543Y88589D01*
X86700Y88452D01*
X86872Y88331D01*
X87057Y88226D01*
X87256Y88139D01*
X87469Y88068D01*
X87696Y88015D01*
X87936Y87978D01*
X87787Y86366D01*
X87427Y86424D01*
X87085Y86510D01*
X86762Y86625D01*
X86458Y86768D01*
X86173Y86939D01*
X85907Y87139D01*
X85660Y87367D01*
X85431Y87623D01*
X85226Y87903D01*
X85048Y88202D01*
X84897Y88521D01*
X84774Y88859D01*
X84678Y89216D01*
X84610Y89593D01*
X84569Y89989D01*
X84555Y90404D01*
X84569Y90857D01*
X84610Y91283D01*
X84679Y91682D01*
X84775Y92054D01*
X84899Y92399D01*
X85050Y92717D01*
X85229Y93008D01*
X85436Y93272D01*
X85667Y93507D01*
X85922Y93711D01*
X86200Y93883D01*
X86501Y94024D01*
X86825Y94134D01*
X87172Y94212D01*
X87543Y94259D01*
X87936Y94275D01*
X88295Y94255D01*
X88652Y94193D01*
X89008Y94090D01*
X89364Y93947D01*
X89718Y93763D01*
X90073Y93538D01*
X90428Y93274D01*
X90783Y92970D01*
X91186Y92572D01*
X91687Y92026D01*
X92285Y91333D01*
X92981Y90491D01*
X93383Y90014D01*
X93764Y89587D01*
X94125Y89212D01*
X94466Y88889D01*
X94793Y88612D01*
X95115Y88376D01*
X95430Y88183D01*
X95740Y88030D01*
X95740Y94468D01*
X97080Y94468D01*
X97080Y86296D01*
G37*
G36*
X98143Y-14145D02*
X97886Y-14139D01*
X97637Y-14121D01*
X97162Y-14048D01*
X96717Y-13927D01*
X96303Y-13758D01*
X95920Y-13540D01*
X95568Y-13273D01*
X95246Y-12958D01*
X94954Y-12595D01*
X94696Y-12185D01*
X94472Y-11732D01*
X94282Y-11234D01*
X94127Y-10692D01*
X94006Y-10106D01*
X93920Y-9476D01*
X93868Y-8802D01*
X93851Y-8084D01*
X93869Y-7306D01*
X93923Y-6575D01*
X94012Y-5889D01*
X94138Y-5251D01*
X94299Y-4659D01*
X94496Y-4113D01*
X94729Y-3614D01*
X94998Y-3162D01*
X95300Y-2760D01*
X95633Y-2411D01*
X95996Y-2116D01*
X96389Y-1874D01*
X96812Y-1687D01*
X97035Y-1613D01*
X97266Y-1553D01*
X97505Y-1506D01*
X97750Y-1472D01*
X98004Y-1452D01*
X98265Y-1445D01*
X98606Y-1455D01*
X98931Y-1485D01*
X99240Y-1534D01*
X99533Y-1602D01*
X99810Y-1691D01*
X100070Y-1799D01*
X100314Y-1926D01*
X100542Y-2074D01*
X100754Y-2241D01*
X100950Y-2427D01*
X101130Y-2633D01*
X101293Y-2859D01*
X101441Y-3105D01*
X101572Y-3370D01*
X101687Y-3655D01*
X101786Y-3959D01*
X100280Y-4231D01*
X100146Y-3877D01*
X99979Y-3571D01*
X99776Y-3313D01*
X99540Y-3101D01*
X99268Y-2936D01*
X98963Y-2818D01*
X98622Y-2748D01*
X98248Y-2724D01*
X97920Y-2744D01*
X97611Y-2803D01*
X97322Y-2901D01*
X97051Y-3038D01*
X96799Y-3215D01*
X96567Y-3431D01*
X96353Y-3686D01*
X96159Y-3981D01*
X95985Y-4313D01*
X95835Y-4680D01*
X95708Y-5082D01*
X95604Y-5519D01*
X95523Y-5992D01*
X95465Y-6499D01*
X95430Y-7042D01*
X95419Y-7620D01*
X95655Y-7245D01*
X95935Y-6918D01*
X96259Y-6639D01*
X96627Y-6407D01*
X97031Y-6225D01*
X97464Y-6095D01*
X97691Y-6050D01*
X97925Y-6017D01*
X98166Y-5997D01*
X98414Y-5991D01*
X98830Y-6008D01*
X99224Y-6058D01*
X99596Y-6141D01*
X99946Y-6258D01*
X100274Y-6408D01*
X100579Y-6592D01*
X100863Y-6809D01*
X101125Y-7060D01*
X101360Y-7338D01*
X101564Y-7640D01*
X101736Y-7964D01*
X101877Y-8312D01*
X101987Y-8683D01*
X102065Y-9076D01*
X102112Y-9493D01*
X102128Y-9932D01*
X102111Y-10408D01*
X102061Y-10857D01*
X101979Y-11281D01*
X101863Y-11680D01*
X101714Y-12052D01*
X101532Y-12399D01*
X101316Y-12720D01*
X101068Y-13015D01*
X100790Y-13280D01*
X100488Y-13510D01*
X100160Y-13704D01*
X99807Y-13863D01*
X99428Y-13986D01*
X99025Y-14075D01*
X98596Y-14128D01*
X98143Y-14145D01*
G37*
%LPC*%
G36*
X98090Y-12875D02*
X98367Y-12863D01*
X98629Y-12827D01*
X98875Y-12767D01*
X99106Y-12684D01*
X99322Y-12576D01*
X99522Y-12444D01*
X99707Y-12288D01*
X99877Y-12109D01*
X100029Y-11908D01*
X100160Y-11690D01*
X100272Y-11453D01*
X100363Y-11199D01*
X100434Y-10927D01*
X100484Y-10637D01*
X100515Y-10328D01*
X100525Y-10002D01*
X100515Y-9677D01*
X100484Y-9371D01*
X100433Y-9084D01*
X100361Y-8816D01*
X100268Y-8567D01*
X100155Y-8337D01*
X100022Y-8127D01*
X99868Y-7935D01*
X99696Y-7765D01*
X99507Y-7617D01*
X99303Y-7492D01*
X99082Y-7390D01*
X98845Y-7311D01*
X98592Y-7254D01*
X98323Y-7220D01*
X98037Y-7208D01*
X97768Y-7218D01*
X97512Y-7249D01*
X97270Y-7299D01*
X97040Y-7369D01*
X96824Y-7460D01*
X96621Y-7571D01*
X96431Y-7701D01*
X96255Y-7852D01*
X96096Y-8021D01*
X95958Y-8204D01*
X95841Y-8403D01*
X95746Y-8617D01*
X95672Y-8847D01*
X95619Y-9091D01*
X95587Y-9351D01*
X95576Y-9626D01*
X95587Y-9975D01*
X95620Y-10307D01*
X95675Y-10624D01*
X95753Y-10924D01*
X95852Y-11208D01*
X95973Y-11477D01*
X96116Y-11729D01*
X96281Y-11964D01*
X96464Y-12178D01*
X96659Y-12363D01*
X96866Y-12519D01*
X97086Y-12647D01*
X97318Y-12747D01*
X97563Y-12818D01*
X97820Y-12861D01*
X98090Y-12875D01*
G37*
%LPD*%
G36*
X86899Y-14145D02*
X86441Y-14133D01*
X85998Y-14097D01*
X85571Y-14036D01*
X85160Y-13951D01*
X84764Y-13842D01*
X84384Y-13709D01*
X84020Y-13552D01*
X83672Y-13370D01*
X83341Y-13166D01*
X83031Y-12941D01*
X82741Y-12695D01*
X82472Y-12429D01*
X82222Y-12141D01*
X81993Y-11833D01*
X81785Y-11504D01*
X81596Y-11154D01*
X81429Y-10786D01*
X81284Y-10401D01*
X81161Y-9999D01*
X81061Y-9581D01*
X80983Y-9146D01*
X80927Y-8695D01*
X80893Y-8227D01*
X80882Y-7743D01*
X80888Y-7379D01*
X80907Y-7025D01*
X80938Y-6681D01*
X80982Y-6347D01*
X81038Y-6023D01*
X81106Y-5709D01*
X81187Y-5405D01*
X81281Y-5111D01*
X81387Y-4827D01*
X81505Y-4553D01*
X81779Y-4035D01*
X82103Y-3556D01*
X82476Y-3118D01*
X82894Y-2726D01*
X83350Y-2386D01*
X83592Y-2236D01*
X83844Y-2099D01*
X84106Y-1975D01*
X84377Y-1864D01*
X84657Y-1766D01*
X84948Y-1681D01*
X85248Y-1609D01*
X85557Y-1550D01*
X85876Y-1504D01*
X86205Y-1471D01*
X86543Y-1452D01*
X86891Y-1445D01*
X87373Y-1457D01*
X87835Y-1493D01*
X88277Y-1554D01*
X88699Y-1638D01*
X89101Y-1746D01*
X89482Y-1879D01*
X89843Y-2035D01*
X90184Y-2216D01*
X90503Y-2420D01*
X90801Y-2648D01*
X91077Y-2899D01*
X91331Y-3173D01*
X91563Y-3470D01*
X91773Y-3791D01*
X91962Y-4135D01*
X92128Y-4502D01*
X90543Y-5028D01*
X90427Y-4766D01*
X90296Y-4521D01*
X90148Y-4291D01*
X89983Y-4077D01*
X89803Y-3879D01*
X89606Y-3697D01*
X89393Y-3531D01*
X89163Y-3381D01*
X88920Y-3248D01*
X88666Y-3132D01*
X88401Y-3034D01*
X88124Y-2954D01*
X87837Y-2892D01*
X87538Y-2847D01*
X87229Y-2821D01*
X86908Y-2812D01*
X86410Y-2832D01*
X85940Y-2894D01*
X85499Y-2997D01*
X85086Y-3141D01*
X84702Y-3327D01*
X84346Y-3553D01*
X84019Y-3821D01*
X83720Y-4130D01*
X83453Y-4475D01*
X83222Y-4850D01*
X83026Y-5256D01*
X82866Y-5692D01*
X82741Y-6159D01*
X82652Y-6656D01*
X82599Y-7184D01*
X82581Y-7743D01*
X82600Y-8296D01*
X82655Y-8821D01*
X82748Y-9319D01*
X82878Y-9789D01*
X83045Y-10231D01*
X83249Y-10645D01*
X83490Y-11032D01*
X83768Y-11391D01*
X84078Y-11714D01*
X84414Y-11994D01*
X84776Y-12231D01*
X85164Y-12425D01*
X85578Y-12576D01*
X86019Y-12684D01*
X86485Y-12749D01*
X86978Y-12770D01*
X87297Y-12760D01*
X87606Y-12730D01*
X87905Y-12680D01*
X88194Y-12610D01*
X88473Y-12519D01*
X88741Y-12409D01*
X89000Y-12279D01*
X89249Y-12129D01*
X89487Y-11958D01*
X89716Y-11768D01*
X89934Y-11557D01*
X90143Y-11327D01*
X90341Y-11076D01*
X90529Y-10805D01*
X90707Y-10515D01*
X90876Y-10204D01*
X92242Y-10887D01*
X92042Y-11274D01*
X91822Y-11636D01*
X91584Y-11975D01*
X91326Y-12291D01*
X91048Y-12582D01*
X90752Y-12849D01*
X90436Y-13093D01*
X90101Y-13313D01*
X89749Y-13508D01*
X89383Y-13677D01*
X89004Y-13820D01*
X88610Y-13937D01*
X88203Y-14028D01*
X87783Y-14093D01*
X87348Y-14132D01*
X86899Y-14145D01*
G37*
G36*
X86899Y-42085D02*
X86441Y-42073D01*
X85998Y-42037D01*
X85571Y-41976D01*
X85160Y-41891D01*
X84764Y-41782D01*
X84384Y-41649D01*
X84020Y-41492D01*
X83672Y-41310D01*
X83341Y-41106D01*
X83031Y-40881D01*
X82741Y-40635D01*
X82472Y-40369D01*
X82222Y-40081D01*
X81993Y-39773D01*
X81785Y-39444D01*
X81596Y-39094D01*
X81429Y-38726D01*
X81284Y-38341D01*
X81161Y-37939D01*
X81061Y-37521D01*
X80983Y-37086D01*
X80927Y-36635D01*
X80893Y-36167D01*
X80882Y-35683D01*
X80888Y-35319D01*
X80907Y-34965D01*
X80938Y-34621D01*
X80982Y-34287D01*
X81038Y-33963D01*
X81106Y-33649D01*
X81187Y-33345D01*
X81281Y-33051D01*
X81387Y-32767D01*
X81505Y-32493D01*
X81779Y-31975D01*
X82103Y-31496D01*
X82476Y-31058D01*
X82894Y-30666D01*
X83350Y-30326D01*
X83592Y-30176D01*
X83844Y-30039D01*
X84106Y-29915D01*
X84377Y-29804D01*
X84657Y-29706D01*
X84948Y-29621D01*
X85248Y-29549D01*
X85557Y-29490D01*
X85876Y-29444D01*
X86205Y-29411D01*
X86543Y-29392D01*
X86891Y-29385D01*
X87373Y-29397D01*
X87835Y-29433D01*
X88277Y-29494D01*
X88699Y-29578D01*
X89101Y-29686D01*
X89482Y-29819D01*
X89843Y-29975D01*
X90184Y-30156D01*
X90503Y-30360D01*
X90801Y-30588D01*
X91077Y-30839D01*
X91331Y-31113D01*
X91563Y-31410D01*
X91773Y-31731D01*
X91962Y-32075D01*
X92128Y-32442D01*
X90543Y-32968D01*
X90427Y-32706D01*
X90296Y-32461D01*
X90148Y-32231D01*
X89983Y-32017D01*
X89803Y-31819D01*
X89606Y-31637D01*
X89393Y-31471D01*
X89163Y-31321D01*
X88920Y-31188D01*
X88666Y-31072D01*
X88401Y-30974D01*
X88124Y-30894D01*
X87837Y-30832D01*
X87538Y-30787D01*
X87229Y-30761D01*
X86908Y-30752D01*
X86410Y-30772D01*
X85940Y-30834D01*
X85499Y-30937D01*
X85086Y-31081D01*
X84702Y-31267D01*
X84346Y-31493D01*
X84019Y-31761D01*
X83720Y-32070D01*
X83453Y-32415D01*
X83222Y-32790D01*
X83026Y-33196D01*
X82866Y-33632D01*
X82741Y-34099D01*
X82652Y-34596D01*
X82599Y-35124D01*
X82581Y-35683D01*
X82600Y-36236D01*
X82655Y-36761D01*
X82748Y-37259D01*
X82878Y-37729D01*
X83045Y-38171D01*
X83249Y-38585D01*
X83490Y-38972D01*
X83768Y-39331D01*
X84078Y-39654D01*
X84414Y-39934D01*
X84776Y-40171D01*
X85164Y-40365D01*
X85578Y-40516D01*
X86019Y-40624D01*
X86485Y-40689D01*
X86978Y-40710D01*
X87297Y-40700D01*
X87606Y-40670D01*
X87905Y-40620D01*
X88194Y-40550D01*
X88473Y-40459D01*
X88741Y-40349D01*
X89000Y-40219D01*
X89249Y-40069D01*
X89487Y-39898D01*
X89716Y-39708D01*
X89934Y-39497D01*
X90143Y-39267D01*
X90341Y-39016D01*
X90529Y-38745D01*
X90707Y-38455D01*
X90876Y-38144D01*
X92242Y-38827D01*
X92042Y-39214D01*
X91822Y-39576D01*
X91584Y-39915D01*
X91326Y-40231D01*
X91048Y-40522D01*
X90752Y-40789D01*
X90436Y-41033D01*
X90101Y-41253D01*
X89749Y-41448D01*
X89383Y-41617D01*
X89004Y-41760D01*
X88610Y-41877D01*
X88203Y-41968D01*
X87783Y-42033D01*
X87348Y-42072D01*
X86899Y-42085D01*
G37*
G36*
X97783Y-41910D02*
X96137Y-41910D01*
X96153Y-41315D01*
X96200Y-40712D01*
X96278Y-40101D01*
X96388Y-39483D01*
X96529Y-38857D01*
X96701Y-38222D01*
X96905Y-37581D01*
X97140Y-36931D01*
X97411Y-36265D01*
X97725Y-35574D01*
X98081Y-34859D01*
X98479Y-34118D01*
X98918Y-33353D01*
X99400Y-32563D01*
X99924Y-31749D01*
X100490Y-30909D01*
X93860Y-30909D01*
X93860Y-29569D01*
X102014Y-29569D01*
X102014Y-30848D01*
X101137Y-32215D01*
X100400Y-33425D01*
X99802Y-34479D01*
X99342Y-35376D01*
X98977Y-36192D01*
X98660Y-37003D01*
X98392Y-37808D01*
X98173Y-38608D01*
X98003Y-39412D01*
X97881Y-40231D01*
X97808Y-41063D01*
X97790Y-41485D01*
X97783Y-41910D01*
G37*
G36*
X291215Y-52331D02*
X290919Y-52320D01*
X290635Y-52287D01*
X290363Y-52233D01*
X290103Y-52158D01*
X289855Y-52060D01*
X289619Y-51941D01*
X289395Y-51801D01*
X289183Y-51639D01*
X288988Y-51460D01*
X288812Y-51269D01*
X288657Y-51065D01*
X288522Y-50850D01*
X288408Y-50623D01*
X288313Y-50384D01*
X288239Y-50133D01*
X288185Y-49869D01*
X288150Y-49869D01*
X288082Y-50115D01*
X287997Y-50346D01*
X287895Y-50565D01*
X287776Y-50770D01*
X287639Y-50962D01*
X287485Y-51141D01*
X287314Y-51307D01*
X287125Y-51459D01*
X286924Y-51596D01*
X286714Y-51714D01*
X286496Y-51814D01*
X286269Y-51896D01*
X286034Y-51960D01*
X285790Y-52005D01*
X285538Y-52032D01*
X285277Y-52041D01*
X284933Y-52025D01*
X284605Y-51976D01*
X284295Y-51893D01*
X284001Y-51778D01*
X283723Y-51629D01*
X283462Y-51448D01*
X283218Y-51233D01*
X282991Y-50986D01*
X282786Y-50711D01*
X282608Y-50413D01*
X282457Y-50093D01*
X282334Y-49750D01*
X282238Y-49385D01*
X282170Y-48997D01*
X282129Y-48586D01*
X282115Y-48153D01*
X282129Y-47709D01*
X282169Y-47290D01*
X282236Y-46894D01*
X282330Y-46523D01*
X282451Y-46175D01*
X282598Y-45851D01*
X282772Y-45551D01*
X282974Y-45276D01*
X283198Y-45028D01*
X283441Y-44814D01*
X283702Y-44632D01*
X283983Y-44484D01*
X284283Y-44369D01*
X284601Y-44286D01*
X284938Y-44237D01*
X285295Y-44220D01*
X285555Y-44229D01*
X285808Y-44257D01*
X286051Y-44303D01*
X286287Y-44367D01*
X286513Y-44449D01*
X286732Y-44550D01*
X286941Y-44669D01*
X287143Y-44807D01*
X287331Y-44960D01*
X287500Y-45127D01*
X287515Y-45145D01*
X287651Y-45307D01*
X287784Y-45501D01*
X287899Y-45708D01*
X287995Y-45929D01*
X288073Y-46162D01*
X288132Y-46410D01*
X288167Y-46410D01*
X288225Y-46122D01*
X288302Y-45851D01*
X288399Y-45597D01*
X288515Y-45359D01*
X288650Y-45137D01*
X288804Y-44932D01*
X288977Y-44743D01*
X289133Y-44604D01*
X289170Y-44570D01*
X289379Y-44416D01*
X289601Y-44283D01*
X289835Y-44170D01*
X290082Y-44078D01*
X290342Y-44006D01*
X290615Y-43955D01*
X290900Y-43924D01*
X291198Y-43914D01*
X291613Y-43931D01*
X292005Y-43981D01*
X292373Y-44066D01*
X292718Y-44185D01*
X293039Y-44338D01*
X293336Y-44524D01*
X293610Y-44745D01*
X293861Y-45000D01*
X294084Y-45286D01*
X294278Y-45602D01*
X294442Y-45947D01*
X294577Y-46322D01*
X294681Y-46727D01*
X294756Y-47161D01*
X294800Y-47624D01*
X294815Y-48118D01*
X294801Y-48599D01*
X294757Y-49053D01*
X294683Y-49481D01*
X294581Y-49881D01*
X294449Y-50255D01*
X294288Y-50602D01*
X294098Y-50921D01*
X293878Y-51214D01*
X293631Y-51476D01*
X293360Y-51702D01*
X293064Y-51894D01*
X292744Y-52051D01*
X292399Y-52173D01*
X292029Y-52261D01*
X291634Y-52313D01*
X291215Y-52331D01*
G37*
%LPC*%
G36*
X291084Y-50701D02*
X291393Y-50691D01*
X291681Y-50661D01*
X291950Y-50610D01*
X292199Y-50539D01*
X292428Y-50447D01*
X292637Y-50336D01*
X292826Y-50204D01*
X292996Y-50051D01*
X293145Y-49878D01*
X293274Y-49685D01*
X293384Y-49472D01*
X293474Y-49238D01*
X293543Y-48984D01*
X293593Y-48710D01*
X293623Y-48415D01*
X293633Y-48100D01*
X293623Y-47789D01*
X293594Y-47497D01*
X293546Y-47227D01*
X293478Y-46977D01*
X293392Y-46747D01*
X293285Y-46538D01*
X293160Y-46350D01*
X293015Y-46182D01*
X292850Y-46034D01*
X292661Y-45906D01*
X292449Y-45798D01*
X292215Y-45709D01*
X291958Y-45640D01*
X291678Y-45591D01*
X291375Y-45561D01*
X291049Y-45551D01*
X290771Y-45562D01*
X290511Y-45594D01*
X290268Y-45647D01*
X290043Y-45722D01*
X289835Y-45818D01*
X289646Y-45936D01*
X289474Y-46074D01*
X289319Y-46235D01*
X289183Y-46414D01*
X289064Y-46611D01*
X288964Y-46825D01*
X288882Y-47056D01*
X288819Y-47304D01*
X288773Y-47570D01*
X288746Y-47853D01*
X288737Y-48153D01*
X288747Y-48444D01*
X288776Y-48720D01*
X288825Y-48979D01*
X288893Y-49221D01*
X288981Y-49447D01*
X289089Y-49657D01*
X289216Y-49850D01*
X289363Y-50027D01*
X289527Y-50185D01*
X289705Y-50322D01*
X289899Y-50438D01*
X290106Y-50533D01*
X290329Y-50607D01*
X290566Y-50659D01*
X290818Y-50691D01*
X291084Y-50701D01*
G37*
G36*
X285382Y-50430D02*
X285639Y-50421D01*
X285881Y-50392D01*
X286106Y-50346D01*
X286316Y-50280D01*
X286510Y-50196D01*
X286689Y-50092D01*
X286851Y-49971D01*
X286998Y-49830D01*
X287129Y-49672D01*
X287242Y-49499D01*
X287337Y-49310D01*
X287415Y-49106D01*
X287476Y-48887D01*
X287520Y-48652D01*
X287546Y-48401D01*
X287554Y-48135D01*
X287546Y-47865D01*
X287522Y-47612D01*
X287482Y-47375D01*
X287426Y-47155D01*
X287354Y-46952D01*
X287266Y-46765D01*
X287162Y-46594D01*
X287042Y-46440D01*
X286904Y-46304D01*
X286746Y-46186D01*
X286568Y-46085D01*
X286371Y-46004D01*
X286153Y-45940D01*
X285916Y-45894D01*
X285659Y-45867D01*
X285382Y-45858D01*
X285129Y-45867D01*
X284892Y-45894D01*
X284671Y-45939D01*
X284466Y-46001D01*
X284278Y-46082D01*
X284107Y-46181D01*
X283951Y-46297D01*
X283812Y-46432D01*
X283690Y-46584D01*
X283583Y-46754D01*
X283493Y-46943D01*
X283420Y-47149D01*
X283363Y-47373D01*
X283322Y-47615D01*
X283297Y-47875D01*
X283289Y-48153D01*
X283297Y-48422D01*
X283322Y-48676D01*
X283363Y-48912D01*
X283420Y-49133D01*
X283494Y-49336D01*
X283585Y-49523D01*
X283691Y-49694D01*
X283814Y-49847D01*
X283954Y-49984D01*
X284110Y-50102D01*
X284281Y-50202D01*
X284469Y-50284D01*
X284673Y-50348D01*
X284893Y-50394D01*
X285130Y-50421D01*
X285382Y-50430D01*
G37*
%LPD*%
G36*
X288413Y-65168D02*
X288049Y-65162D01*
X287695Y-65143D01*
X287351Y-65112D01*
X287017Y-65068D01*
X286693Y-65012D01*
X286379Y-64944D01*
X286075Y-64863D01*
X285781Y-64769D01*
X285497Y-64664D01*
X285223Y-64545D01*
X284705Y-64271D01*
X284226Y-63947D01*
X283788Y-63574D01*
X283396Y-63156D01*
X283056Y-62700D01*
X282906Y-62458D01*
X282769Y-62206D01*
X282645Y-61944D01*
X282534Y-61673D01*
X282436Y-61393D01*
X282351Y-61102D01*
X282279Y-60802D01*
X282220Y-60493D01*
X282174Y-60174D01*
X282141Y-59845D01*
X282122Y-59507D01*
X282115Y-59160D01*
X282127Y-58677D01*
X282163Y-58215D01*
X282224Y-57773D01*
X282308Y-57351D01*
X282416Y-56949D01*
X282549Y-56568D01*
X282705Y-56207D01*
X282886Y-55866D01*
X283090Y-55547D01*
X283318Y-55249D01*
X283569Y-54973D01*
X283843Y-54719D01*
X284140Y-54487D01*
X284461Y-54277D01*
X284805Y-54088D01*
X285172Y-53922D01*
X285698Y-55507D01*
X285436Y-55623D01*
X285191Y-55754D01*
X284961Y-55902D01*
X284747Y-56067D01*
X284549Y-56247D01*
X284367Y-56444D01*
X284201Y-56657D01*
X284051Y-56887D01*
X283918Y-57130D01*
X283802Y-57384D01*
X283704Y-57649D01*
X283624Y-57926D01*
X283562Y-58213D01*
X283517Y-58512D01*
X283491Y-58821D01*
X283482Y-59142D01*
X283502Y-59640D01*
X283564Y-60110D01*
X283667Y-60551D01*
X283811Y-60964D01*
X283997Y-61348D01*
X284223Y-61704D01*
X284491Y-62031D01*
X284800Y-62330D01*
X285145Y-62597D01*
X285520Y-62828D01*
X285926Y-63024D01*
X286362Y-63184D01*
X286829Y-63309D01*
X287326Y-63398D01*
X287854Y-63451D01*
X288413Y-63469D01*
X288966Y-63450D01*
X289491Y-63395D01*
X289989Y-63302D01*
X290459Y-63172D01*
X290901Y-63005D01*
X291315Y-62801D01*
X291702Y-62560D01*
X292061Y-62282D01*
X292384Y-61972D01*
X292664Y-61636D01*
X292901Y-61274D01*
X293095Y-60886D01*
X293246Y-60472D01*
X293354Y-60031D01*
X293419Y-59565D01*
X293440Y-59072D01*
X293430Y-58753D01*
X293400Y-58444D01*
X293350Y-58145D01*
X293280Y-57856D01*
X293189Y-57577D01*
X293079Y-57309D01*
X292949Y-57050D01*
X292799Y-56801D01*
X292628Y-56563D01*
X292438Y-56334D01*
X292227Y-56116D01*
X291997Y-55907D01*
X291746Y-55709D01*
X291475Y-55521D01*
X291185Y-55343D01*
X290874Y-55174D01*
X291557Y-53808D01*
X291944Y-54008D01*
X292306Y-54228D01*
X292645Y-54466D01*
X292961Y-54724D01*
X293252Y-55002D01*
X293519Y-55298D01*
X293763Y-55614D01*
X293983Y-55950D01*
X294178Y-56301D01*
X294347Y-56667D01*
X294490Y-57046D01*
X294607Y-57440D01*
X294698Y-57847D01*
X294763Y-58268D01*
X294802Y-58702D01*
X294815Y-59151D01*
X294803Y-59609D01*
X294767Y-60052D01*
X294706Y-60479D01*
X294621Y-60890D01*
X294512Y-61286D01*
X294379Y-61666D01*
X294222Y-62030D01*
X294040Y-62378D01*
X293836Y-62709D01*
X293611Y-63019D01*
X293365Y-63309D01*
X293099Y-63578D01*
X292811Y-63828D01*
X292503Y-64057D01*
X292174Y-64265D01*
X291824Y-64454D01*
X291456Y-64621D01*
X291071Y-64766D01*
X290669Y-64889D01*
X290251Y-64989D01*
X289816Y-65068D01*
X289365Y-65123D01*
X288897Y-65157D01*
X288413Y-65168D01*
G37*
G36*
X129046Y148809D02*
X123134Y148809D01*
X123134Y150764D01*
X123145Y151129D01*
X123181Y151472D01*
X123240Y151794D01*
X123322Y152095D01*
X123428Y152374D01*
X123557Y152632D01*
X123710Y152868D01*
X123887Y153083D01*
X124085Y153274D01*
X124303Y153440D01*
X124541Y153580D01*
X124799Y153695D01*
X125077Y153784D01*
X125374Y153848D01*
X125692Y153886D01*
X126029Y153899D01*
X126472Y153876D01*
X126887Y153809D01*
X127272Y153698D01*
X127630Y153542D01*
X127953Y153345D01*
X128236Y153111D01*
X128478Y152839D01*
X128681Y152531D01*
X128841Y152191D01*
X128955Y151826D01*
X129023Y151436D01*
X129046Y151020D01*
X129046Y148809D01*
G37*
%LPC*%
G36*
X128404Y149610D02*
X128404Y150928D01*
X128386Y151243D01*
X128333Y151539D01*
X128244Y151815D01*
X128119Y152071D01*
X127960Y152303D01*
X127770Y152507D01*
X127549Y152682D01*
X127296Y152829D01*
X127016Y152944D01*
X126711Y153027D01*
X126382Y153076D01*
X126029Y153093D01*
X125762Y153084D01*
X125512Y153055D01*
X125278Y153008D01*
X125060Y152942D01*
X124859Y152858D01*
X124674Y152754D01*
X124505Y152632D01*
X124353Y152491D01*
X124217Y152332D01*
X124100Y152156D01*
X124001Y151963D01*
X123920Y151754D01*
X123857Y151528D01*
X123812Y151284D01*
X123785Y151024D01*
X123776Y150747D01*
X123776Y149610D01*
X128404Y149610D01*
G37*
%LPD*%
G36*
X129046Y142590D02*
X123134Y142590D01*
X123134Y143522D01*
X128203Y146719D01*
X127493Y146681D01*
X127011Y146669D01*
X123134Y146669D01*
X123134Y147390D01*
X129046Y147390D01*
X129046Y146425D01*
X124011Y143261D01*
X124418Y143282D01*
X125118Y143303D01*
X129046Y143303D01*
X129046Y142590D01*
G37*
G36*
X126063Y135630D02*
X125713Y135642D01*
X125384Y135678D01*
X125075Y135738D01*
X124786Y135823D01*
X124518Y135931D01*
X124269Y136064D01*
X124042Y136221D01*
X123834Y136402D01*
X123649Y136605D01*
X123489Y136827D01*
X123354Y137069D01*
X123243Y137330D01*
X123156Y137611D01*
X123095Y137912D01*
X123058Y138232D01*
X123046Y138571D01*
X123066Y139039D01*
X123128Y139461D01*
X123232Y139836D01*
X123377Y140166D01*
X123568Y140455D01*
X123808Y140708D01*
X124098Y140927D01*
X124439Y141110D01*
X124665Y140346D01*
X124431Y140208D01*
X124230Y140047D01*
X124063Y139861D01*
X123931Y139652D01*
X123830Y139417D01*
X123758Y139155D01*
X123715Y138866D01*
X123700Y138550D01*
X123710Y138302D01*
X123739Y138068D01*
X123787Y137850D01*
X123855Y137647D01*
X123942Y137459D01*
X124048Y137286D01*
X124174Y137128D01*
X124319Y136985D01*
X124482Y136858D01*
X124660Y136748D01*
X124854Y136655D01*
X125064Y136579D01*
X125290Y136520D01*
X125532Y136478D01*
X125789Y136452D01*
X126063Y136444D01*
X126335Y136453D01*
X126593Y136480D01*
X126836Y136525D01*
X127065Y136587D01*
X127279Y136668D01*
X127478Y136767D01*
X127662Y136884D01*
X127831Y137019D01*
X127983Y137169D01*
X128115Y137334D01*
X128226Y137512D01*
X128317Y137704D01*
X128388Y137909D01*
X128439Y138129D01*
X128469Y138362D01*
X128480Y138609D01*
X128469Y138894D01*
X128435Y139169D01*
X128380Y139434D01*
X128303Y139689D01*
X128207Y139928D01*
X128096Y140143D01*
X127968Y140334D01*
X127825Y140501D01*
X126759Y140501D01*
X126759Y138735D01*
X126088Y138735D01*
X126088Y141240D01*
X128127Y141240D01*
X128353Y140992D01*
X128551Y140717D01*
X128723Y140416D01*
X128868Y140088D01*
X128982Y139740D01*
X129064Y139377D01*
X129114Y139000D01*
X129130Y138609D01*
X129107Y138161D01*
X129038Y137746D01*
X128922Y137362D01*
X128761Y137010D01*
X128556Y136694D01*
X128310Y136418D01*
X128024Y136181D01*
X127697Y135984D01*
X127334Y135829D01*
X126941Y135718D01*
X126517Y135652D01*
X126063Y135630D01*
G37*
G36*
X329753Y154323D02*
X327541Y154323D01*
X327541Y160235D01*
X329497Y160235D01*
X329861Y160223D01*
X330205Y160188D01*
X330527Y160129D01*
X330827Y160047D01*
X331106Y159941D01*
X331364Y159811D01*
X331600Y159658D01*
X331815Y159482D01*
X332006Y159283D01*
X332172Y159065D01*
X332312Y158827D01*
X332427Y158570D01*
X332516Y158292D01*
X332580Y157994D01*
X332618Y157677D01*
X332631Y157340D01*
X332609Y156896D01*
X332542Y156482D01*
X332431Y156096D01*
X332274Y155739D01*
X332078Y155416D01*
X331843Y155133D01*
X331572Y154890D01*
X331263Y154688D01*
X330923Y154528D01*
X330558Y154414D01*
X330168Y154345D01*
X329753Y154323D01*
G37*
%LPC*%
G36*
X329660Y154965D02*
X329976Y154982D01*
X330271Y155036D01*
X330547Y155125D01*
X330804Y155250D01*
X331036Y155408D01*
X331240Y155598D01*
X331415Y155819D01*
X331561Y156072D01*
X331677Y156353D01*
X331759Y156658D01*
X331809Y156987D01*
X331825Y157340D01*
X331816Y157606D01*
X331788Y157857D01*
X331741Y158091D01*
X331675Y158308D01*
X331590Y158510D01*
X331487Y158695D01*
X331364Y158864D01*
X331223Y159016D01*
X331064Y159151D01*
X330889Y159268D01*
X330696Y159368D01*
X330486Y159449D01*
X330260Y159512D01*
X330017Y159557D01*
X329757Y159584D01*
X329480Y159593D01*
X328343Y159593D01*
X328343Y154965D01*
X329660Y154965D01*
G37*
%LPD*%
G36*
X322036Y154323D02*
X321322Y154323D01*
X321322Y160235D01*
X322254Y160235D01*
X325451Y155166D01*
X325414Y155875D01*
X325401Y156358D01*
X325401Y160235D01*
X326123Y160235D01*
X326123Y154323D01*
X325158Y154323D01*
X321994Y159358D01*
X322015Y158951D01*
X322036Y158250D01*
X322036Y154323D01*
G37*
G36*
X317341Y154239D02*
X316894Y154262D01*
X316478Y154331D01*
X316094Y154446D01*
X315743Y154608D01*
X315427Y154813D01*
X315151Y155058D01*
X314914Y155345D01*
X314717Y155672D01*
X314562Y156034D01*
X314451Y156427D01*
X314384Y156851D01*
X314362Y157306D01*
X314374Y157656D01*
X314410Y157985D01*
X314471Y158294D01*
X314555Y158583D01*
X314664Y158851D01*
X314797Y159099D01*
X314953Y159327D01*
X315134Y159534D01*
X315337Y159719D01*
X315559Y159879D01*
X315801Y160015D01*
X316063Y160126D01*
X316344Y160212D01*
X316644Y160274D01*
X316964Y160311D01*
X317304Y160323D01*
X317772Y160302D01*
X318193Y160240D01*
X318569Y160137D01*
X318898Y159992D01*
X319187Y159801D01*
X319441Y159560D01*
X319659Y159270D01*
X319842Y158930D01*
X319079Y158703D01*
X318941Y158938D01*
X318779Y159139D01*
X318594Y159305D01*
X318384Y159438D01*
X318149Y159539D01*
X317888Y159611D01*
X317599Y159654D01*
X317283Y159668D01*
X317034Y159659D01*
X316801Y159630D01*
X316583Y159581D01*
X316380Y159514D01*
X316191Y159427D01*
X316018Y159320D01*
X315860Y159195D01*
X315718Y159049D01*
X315591Y158887D01*
X315481Y158708D01*
X315388Y158514D01*
X315312Y158304D01*
X315252Y158078D01*
X315210Y157837D01*
X315185Y157579D01*
X315176Y157306D01*
X315185Y157033D01*
X315212Y156775D01*
X315257Y156532D01*
X315320Y156304D01*
X315401Y156090D01*
X315500Y155891D01*
X315616Y155707D01*
X315751Y155537D01*
X315902Y155385D01*
X316066Y155254D01*
X316244Y155142D01*
X316436Y155051D01*
X316642Y154980D01*
X316861Y154930D01*
X317094Y154899D01*
X317341Y154889D01*
X317626Y154900D01*
X317901Y154933D01*
X318166Y154988D01*
X318422Y155065D01*
X318661Y155161D01*
X318876Y155273D01*
X319067Y155400D01*
X319234Y155544D01*
X319234Y156609D01*
X317467Y156609D01*
X317467Y157281D01*
X319972Y157281D01*
X319972Y155241D01*
X319724Y155016D01*
X319450Y154817D01*
X319148Y154645D01*
X318821Y154501D01*
X318472Y154386D01*
X318110Y154304D01*
X317733Y154255D01*
X317341Y154239D01*
G37*
G36*
X337415Y154323D02*
X333710Y154323D01*
X333710Y154965D01*
X335216Y154965D01*
X335216Y159513D01*
X333882Y158561D01*
X333882Y159274D01*
X335279Y160235D01*
X335976Y160235D01*
X335976Y154965D01*
X337415Y154965D01*
X337415Y154323D01*
G37*
G36*
X33683Y-91840D02*
X31471Y-91840D01*
X31471Y-85928D01*
X33427Y-85928D01*
X33791Y-85939D01*
X34135Y-85975D01*
X34457Y-86034D01*
X34757Y-86116D01*
X35036Y-86222D01*
X35294Y-86351D01*
X35530Y-86504D01*
X35745Y-86681D01*
X35936Y-86879D01*
X36102Y-87097D01*
X36242Y-87335D01*
X36357Y-87593D01*
X36446Y-87871D01*
X36510Y-88168D01*
X36548Y-88486D01*
X36561Y-88823D01*
X36539Y-89266D01*
X36472Y-89681D01*
X36361Y-90066D01*
X36204Y-90424D01*
X36008Y-90747D01*
X35773Y-91030D01*
X35502Y-91272D01*
X35193Y-91475D01*
X34853Y-91635D01*
X34488Y-91749D01*
X34098Y-91817D01*
X33683Y-91840D01*
G37*
%LPC*%
G36*
X33590Y-91198D02*
X33906Y-91180D01*
X34201Y-91127D01*
X34477Y-91038D01*
X34734Y-90913D01*
X34966Y-90754D01*
X35170Y-90564D01*
X35345Y-90343D01*
X35491Y-90090D01*
X35607Y-89810D01*
X35689Y-89505D01*
X35739Y-89176D01*
X35755Y-88823D01*
X35746Y-88556D01*
X35718Y-88306D01*
X35671Y-88072D01*
X35605Y-87854D01*
X35520Y-87653D01*
X35417Y-87468D01*
X35294Y-87299D01*
X35153Y-87147D01*
X34994Y-87011D01*
X34819Y-86894D01*
X34626Y-86795D01*
X34416Y-86714D01*
X34190Y-86651D01*
X33947Y-86606D01*
X33687Y-86579D01*
X33410Y-86570D01*
X32273Y-86570D01*
X32273Y-91198D01*
X33590Y-91198D01*
G37*
%LPD*%
G36*
X25966Y-91840D02*
X25252Y-91840D01*
X25252Y-85928D01*
X26184Y-85928D01*
X29381Y-90997D01*
X29344Y-90287D01*
X29331Y-89805D01*
X29331Y-85928D01*
X30053Y-85928D01*
X30053Y-91840D01*
X29088Y-91840D01*
X25924Y-86805D01*
X25945Y-87212D01*
X25966Y-87912D01*
X25966Y-91840D01*
G37*
G36*
X21271Y-91924D02*
X20824Y-91901D01*
X20408Y-91832D01*
X20024Y-91716D01*
X19673Y-91555D01*
X19357Y-91350D01*
X19081Y-91104D01*
X18844Y-90818D01*
X18647Y-90491D01*
X18492Y-90128D01*
X18381Y-89735D01*
X18314Y-89311D01*
X18292Y-88857D01*
X18304Y-88507D01*
X18340Y-88178D01*
X18401Y-87869D01*
X18485Y-87580D01*
X18594Y-87312D01*
X18727Y-87063D01*
X18883Y-86836D01*
X19064Y-86628D01*
X19267Y-86443D01*
X19489Y-86283D01*
X19731Y-86148D01*
X19993Y-86037D01*
X20274Y-85950D01*
X20574Y-85889D01*
X20894Y-85852D01*
X21234Y-85840D01*
X21702Y-85860D01*
X22123Y-85922D01*
X22499Y-86026D01*
X22828Y-86171D01*
X23117Y-86362D01*
X23371Y-86602D01*
X23589Y-86892D01*
X23772Y-87233D01*
X23009Y-87459D01*
X22871Y-87225D01*
X22709Y-87024D01*
X22524Y-86857D01*
X22314Y-86725D01*
X22079Y-86624D01*
X21818Y-86552D01*
X21529Y-86509D01*
X21213Y-86494D01*
X20964Y-86504D01*
X20731Y-86533D01*
X20513Y-86581D01*
X20310Y-86649D01*
X20121Y-86736D01*
X19948Y-86842D01*
X19790Y-86968D01*
X19648Y-87113D01*
X19521Y-87276D01*
X19411Y-87454D01*
X19318Y-87648D01*
X19242Y-87858D01*
X19182Y-88084D01*
X19140Y-88326D01*
X19115Y-88583D01*
X19106Y-88857D01*
X19115Y-89129D01*
X19142Y-89387D01*
X19187Y-89630D01*
X19250Y-89859D01*
X19331Y-90073D01*
X19430Y-90272D01*
X19546Y-90456D01*
X19681Y-90625D01*
X19832Y-90777D01*
X19996Y-90909D01*
X20174Y-91020D01*
X20366Y-91111D01*
X20572Y-91182D01*
X20791Y-91233D01*
X21024Y-91263D01*
X21271Y-91274D01*
X21556Y-91263D01*
X21831Y-91229D01*
X22096Y-91174D01*
X22352Y-91097D01*
X22591Y-91001D01*
X22806Y-90890D01*
X22997Y-90762D01*
X23164Y-90619D01*
X23164Y-89553D01*
X21397Y-89553D01*
X21397Y-88882D01*
X23902Y-88882D01*
X23902Y-90921D01*
X23654Y-91147D01*
X23380Y-91345D01*
X23078Y-91517D01*
X22751Y-91662D01*
X22402Y-91776D01*
X22040Y-91858D01*
X21663Y-91908D01*
X21271Y-91924D01*
G37*
G36*
X41332Y-91840D02*
X37417Y-91840D01*
X37417Y-91307D01*
X37530Y-91069D01*
X37655Y-90845D01*
X37791Y-90636D01*
X37940Y-90441D01*
X38256Y-90083D01*
X38588Y-89761D01*
X39261Y-89196D01*
X39579Y-88936D01*
X39864Y-88676D01*
X40106Y-88410D01*
X40298Y-88131D01*
X40370Y-87983D01*
X40422Y-87826D01*
X40453Y-87660D01*
X40464Y-87484D01*
X40446Y-87255D01*
X40392Y-87052D01*
X40303Y-86877D01*
X40178Y-86729D01*
X40022Y-86612D01*
X39837Y-86528D01*
X39625Y-86477D01*
X39385Y-86461D01*
X39155Y-86477D01*
X38945Y-86526D01*
X38757Y-86608D01*
X38590Y-86723D01*
X38450Y-86867D01*
X38342Y-87038D01*
X38266Y-87235D01*
X38223Y-87459D01*
X37451Y-87388D01*
X37479Y-87215D01*
X37520Y-87051D01*
X37575Y-86897D01*
X37643Y-86751D01*
X37725Y-86615D01*
X37821Y-86487D01*
X38053Y-86259D01*
X38331Y-86076D01*
X38483Y-86003D01*
X38645Y-85944D01*
X38816Y-85899D01*
X38997Y-85866D01*
X39186Y-85846D01*
X39385Y-85840D01*
X39602Y-85846D01*
X39806Y-85866D01*
X39997Y-85899D01*
X40176Y-85945D01*
X40341Y-86004D01*
X40493Y-86077D01*
X40633Y-86162D01*
X40759Y-86261D01*
X40872Y-86372D01*
X40970Y-86494D01*
X41052Y-86627D01*
X41120Y-86772D01*
X41172Y-86927D01*
X41210Y-87093D01*
X41232Y-87271D01*
X41240Y-87459D01*
X41230Y-87631D01*
X41201Y-87802D01*
X41151Y-87973D01*
X41083Y-88143D01*
X40994Y-88313D01*
X40887Y-88483D01*
X40615Y-88823D01*
X40163Y-89256D01*
X39427Y-89876D01*
X38994Y-90251D01*
X38659Y-90587D01*
X38414Y-90899D01*
X38321Y-91050D01*
X38248Y-91198D01*
X41332Y-91198D01*
X41332Y-91840D01*
G37*
G36*
X236786Y12700D02*
X235113Y12700D01*
X235113Y25041D01*
X240920Y25041D01*
X241426Y25026D01*
X241902Y24982D01*
X242349Y24910D01*
X242767Y24808D01*
X243154Y24676D01*
X243512Y24516D01*
X243840Y24327D01*
X244138Y24108D01*
X244404Y23863D01*
X244635Y23596D01*
X244830Y23306D01*
X244989Y22992D01*
X245113Y22656D01*
X245202Y22297D01*
X245255Y21916D01*
X245273Y21511D01*
X245260Y21174D01*
X245223Y20851D01*
X245160Y20541D01*
X245072Y20245D01*
X244960Y19963D01*
X244822Y19695D01*
X244659Y19440D01*
X244471Y19199D01*
X244261Y18975D01*
X244032Y18774D01*
X243785Y18593D01*
X243674Y18527D01*
X243518Y18435D01*
X243232Y18298D01*
X242927Y18182D01*
X242603Y18089D01*
X242260Y18016D01*
X243751Y15753D01*
X245763Y12700D01*
X243836Y12700D01*
X240631Y17824D01*
X236786Y17824D01*
X236786Y12700D01*
G37*
%LPC*%
G36*
X240823Y19146D02*
X241145Y19156D01*
X241447Y19185D01*
X241731Y19233D01*
X241996Y19301D01*
X242242Y19387D01*
X242470Y19494D01*
X242678Y19619D01*
X242868Y19764D01*
X243038Y19926D01*
X243185Y20103D01*
X243309Y20296D01*
X243410Y20505D01*
X243489Y20729D01*
X243546Y20968D01*
X243580Y21223D01*
X243591Y21494D01*
X243580Y21755D01*
X243545Y22000D01*
X243488Y22230D01*
X243408Y22443D01*
X243305Y22640D01*
X243180Y22821D01*
X243031Y22987D01*
X242860Y23136D01*
X242667Y23268D01*
X242454Y23383D01*
X242221Y23480D01*
X241967Y23560D01*
X241694Y23621D01*
X241400Y23665D01*
X241087Y23692D01*
X240753Y23701D01*
X236786Y23701D01*
X236786Y19146D01*
X240823Y19146D01*
G37*
%LPD*%
G36*
X255710Y12700D02*
X247976Y12700D01*
X247976Y14040D01*
X251121Y14040D01*
X251121Y23534D01*
X248335Y21546D01*
X248335Y23035D01*
X251252Y25041D01*
X252706Y25041D01*
X252706Y14040D01*
X255710Y14040D01*
X255710Y12700D01*
G37*
G36*
X104160Y-64945D02*
X103899Y-64939D01*
X103645Y-64920D01*
X103400Y-64888D01*
X103163Y-64844D01*
X102713Y-64717D01*
X102297Y-64540D01*
X101914Y-64312D01*
X101564Y-64034D01*
X101247Y-63705D01*
X100964Y-63325D01*
X100713Y-62897D01*
X100496Y-62422D01*
X100312Y-61900D01*
X100162Y-61332D01*
X100045Y-60718D01*
X99962Y-60057D01*
X99912Y-59349D01*
X99895Y-58595D01*
X99911Y-57825D01*
X99960Y-57105D01*
X100041Y-56435D01*
X100155Y-55814D01*
X100300Y-55244D01*
X100479Y-54723D01*
X100690Y-54252D01*
X100933Y-53831D01*
X101211Y-53459D01*
X101527Y-53137D01*
X101881Y-52865D01*
X102272Y-52642D01*
X102701Y-52468D01*
X102929Y-52400D01*
X103167Y-52344D01*
X103415Y-52301D01*
X103671Y-52270D01*
X103937Y-52252D01*
X104213Y-52245D01*
X104481Y-52252D01*
X104740Y-52270D01*
X104991Y-52302D01*
X105232Y-52345D01*
X105464Y-52402D01*
X105688Y-52471D01*
X106108Y-52646D01*
X106493Y-52871D01*
X106841Y-53147D01*
X107154Y-53472D01*
X107432Y-53848D01*
X107675Y-54273D01*
X107886Y-54746D01*
X108064Y-55267D01*
X108210Y-55836D01*
X108324Y-56454D01*
X108405Y-57119D01*
X108453Y-57833D01*
X108470Y-58595D01*
X108453Y-59345D01*
X108402Y-60050D01*
X108316Y-60708D01*
X108197Y-61321D01*
X108044Y-61889D01*
X107856Y-62410D01*
X107635Y-62886D01*
X107379Y-63316D01*
X107090Y-63698D01*
X106769Y-64029D01*
X106415Y-64309D01*
X106029Y-64538D01*
X105611Y-64716D01*
X105160Y-64843D01*
X104922Y-64888D01*
X104676Y-64920D01*
X104422Y-64939D01*
X104160Y-64945D01*
G37*
%LPC*%
G36*
X104178Y-63658D02*
X104515Y-63638D01*
X104828Y-63580D01*
X105118Y-63483D01*
X105384Y-63347D01*
X105628Y-63172D01*
X105848Y-62958D01*
X106045Y-62705D01*
X106219Y-62414D01*
X106371Y-62082D01*
X106502Y-61709D01*
X106614Y-61294D01*
X106705Y-60837D01*
X106776Y-60339D01*
X106826Y-59800D01*
X106857Y-59218D01*
X106867Y-58595D01*
X106857Y-57950D01*
X106828Y-57352D01*
X106780Y-56799D01*
X106712Y-56292D01*
X106626Y-55831D01*
X106520Y-55416D01*
X106394Y-55047D01*
X106249Y-54724D01*
X106082Y-54443D01*
X105891Y-54199D01*
X105674Y-53993D01*
X105432Y-53824D01*
X105164Y-53693D01*
X104872Y-53599D01*
X104555Y-53543D01*
X104213Y-53524D01*
X103862Y-53543D01*
X103537Y-53598D01*
X103238Y-53690D01*
X102964Y-53820D01*
X102716Y-53986D01*
X102493Y-54189D01*
X102296Y-54429D01*
X102124Y-54706D01*
X101975Y-55026D01*
X101846Y-55393D01*
X101737Y-55808D01*
X101648Y-56270D01*
X101578Y-56780D01*
X101529Y-57337D01*
X101499Y-57942D01*
X101489Y-58595D01*
X101499Y-59230D01*
X101529Y-59821D01*
X101580Y-60368D01*
X101650Y-60870D01*
X101741Y-61329D01*
X101851Y-61743D01*
X101982Y-62114D01*
X102133Y-62440D01*
X102306Y-62726D01*
X102502Y-62973D01*
X102722Y-63182D01*
X102966Y-63353D01*
X103234Y-63486D01*
X103525Y-63582D01*
X103839Y-63639D01*
X104178Y-63658D01*
G37*
%LPD*%
G36*
X79401Y-64770D02*
X77728Y-64770D01*
X77728Y-52429D01*
X83535Y-52429D01*
X84042Y-52444D01*
X84518Y-52488D01*
X84965Y-52560D01*
X85382Y-52662D01*
X85770Y-52794D01*
X86127Y-52954D01*
X86456Y-53143D01*
X86754Y-53362D01*
X87020Y-53607D01*
X87250Y-53874D01*
X87445Y-54164D01*
X87605Y-54478D01*
X87729Y-54814D01*
X87817Y-55173D01*
X87871Y-55554D01*
X87888Y-55959D01*
X87876Y-56296D01*
X87838Y-56619D01*
X87776Y-56929D01*
X87688Y-57225D01*
X87575Y-57507D01*
X87437Y-57775D01*
X87275Y-58030D01*
X87087Y-58271D01*
X86877Y-58495D01*
X86648Y-58697D01*
X86400Y-58877D01*
X86289Y-58943D01*
X86133Y-59035D01*
X85847Y-59172D01*
X85542Y-59288D01*
X85218Y-59381D01*
X84875Y-59454D01*
X86367Y-61717D01*
X88379Y-64770D01*
X86452Y-64770D01*
X83246Y-59646D01*
X79401Y-59646D01*
X79401Y-64770D01*
G37*
%LPC*%
G36*
X83439Y-58324D02*
X83760Y-58314D01*
X84063Y-58285D01*
X84346Y-58237D01*
X84611Y-58169D01*
X84858Y-58083D01*
X85085Y-57976D01*
X85294Y-57851D01*
X85484Y-57706D01*
X85653Y-57544D01*
X85800Y-57367D01*
X85924Y-57174D01*
X86026Y-56965D01*
X86105Y-56741D01*
X86161Y-56502D01*
X86195Y-56247D01*
X86207Y-55976D01*
X86195Y-55715D01*
X86161Y-55470D01*
X86104Y-55241D01*
X86024Y-55027D01*
X85921Y-54830D01*
X85795Y-54649D01*
X85647Y-54483D01*
X85475Y-54334D01*
X85282Y-54202D01*
X85069Y-54087D01*
X84836Y-53990D01*
X84583Y-53911D01*
X84310Y-53849D01*
X84016Y-53805D01*
X83703Y-53778D01*
X83369Y-53769D01*
X79401Y-53769D01*
X79401Y-58324D01*
X83439Y-58324D01*
G37*
%LPD*%
G36*
X98326Y-64770D02*
X90592Y-64770D01*
X90592Y-63430D01*
X93736Y-63430D01*
X93736Y-53936D01*
X90951Y-55924D01*
X90951Y-54435D01*
X93868Y-52429D01*
X95322Y-52429D01*
X95322Y-63430D01*
X98326Y-63430D01*
X98326Y-64770D01*
G37*
G36*
X246380Y-115910D02*
X234039Y-115910D01*
X234039Y-110103D01*
X234054Y-109597D01*
X234098Y-109120D01*
X234170Y-108673D01*
X234272Y-108256D01*
X234404Y-107868D01*
X234564Y-107511D01*
X234753Y-107183D01*
X234972Y-106884D01*
X235217Y-106618D01*
X235484Y-106388D01*
X235774Y-106193D01*
X236088Y-106033D01*
X236424Y-105909D01*
X236783Y-105821D01*
X237164Y-105768D01*
X237569Y-105750D01*
X237906Y-105762D01*
X238229Y-105800D01*
X238539Y-105863D01*
X238835Y-105950D01*
X239117Y-106063D01*
X239385Y-106201D01*
X239640Y-106364D01*
X239881Y-106551D01*
X240105Y-106761D01*
X240307Y-106990D01*
X240487Y-107238D01*
X240553Y-107349D01*
X240645Y-107505D01*
X240782Y-107791D01*
X240898Y-108096D01*
X240991Y-108420D01*
X241064Y-108763D01*
X243327Y-107271D01*
X246380Y-105259D01*
X246380Y-107186D01*
X241256Y-110392D01*
X241256Y-114237D01*
X246380Y-114237D01*
X246380Y-115910D01*
G37*
%LPC*%
G36*
X239934Y-114237D02*
X239934Y-110199D01*
X239924Y-109878D01*
X239895Y-109576D01*
X239847Y-109292D01*
X239779Y-109027D01*
X239693Y-108780D01*
X239586Y-108553D01*
X239461Y-108344D01*
X239316Y-108154D01*
X239154Y-107985D01*
X238977Y-107838D01*
X238784Y-107714D01*
X238575Y-107612D01*
X238351Y-107533D01*
X238112Y-107477D01*
X237857Y-107443D01*
X237586Y-107432D01*
X237325Y-107443D01*
X237080Y-107477D01*
X236851Y-107534D01*
X236637Y-107614D01*
X236440Y-107717D01*
X236259Y-107843D01*
X236093Y-107992D01*
X235944Y-108163D01*
X235812Y-108356D01*
X235697Y-108569D01*
X235600Y-108802D01*
X235521Y-109055D01*
X235459Y-109329D01*
X235415Y-109622D01*
X235388Y-109936D01*
X235379Y-110269D01*
X235379Y-114237D01*
X239934Y-114237D01*
G37*
%LPD*%
G36*
X246380Y-103046D02*
X245040Y-103046D01*
X245040Y-99902D01*
X235546Y-99902D01*
X237534Y-102687D01*
X236045Y-102687D01*
X234039Y-99771D01*
X234039Y-98317D01*
X245040Y-98317D01*
X245040Y-95312D01*
X246380Y-95312D01*
X246380Y-103046D01*
G37*
G36*
X246380Y-94421D02*
X245040Y-94421D01*
X245040Y-91277D01*
X235546Y-91277D01*
X237534Y-94062D01*
X236045Y-94062D01*
X234039Y-91146D01*
X234039Y-89692D01*
X245040Y-89692D01*
X245040Y-86687D01*
X246380Y-86687D01*
X246380Y-94421D01*
G37*
G36*
X189891Y-19050D02*
X188218Y-19050D01*
X188218Y-6709D01*
X194025Y-6709D01*
X194532Y-6724D01*
X195008Y-6768D01*
X195455Y-6840D01*
X195872Y-6942D01*
X196260Y-7074D01*
X196617Y-7234D01*
X196946Y-7423D01*
X197244Y-7642D01*
X197510Y-7887D01*
X197740Y-8154D01*
X197935Y-8444D01*
X198095Y-8758D01*
X198219Y-9094D01*
X198307Y-9453D01*
X198361Y-9834D01*
X198378Y-10239D01*
X198366Y-10576D01*
X198328Y-10899D01*
X198266Y-11209D01*
X198178Y-11505D01*
X198065Y-11787D01*
X197927Y-12055D01*
X197765Y-12310D01*
X197577Y-12551D01*
X197367Y-12775D01*
X197138Y-12977D01*
X196890Y-13157D01*
X196779Y-13223D01*
X196623Y-13315D01*
X196337Y-13452D01*
X196032Y-13568D01*
X195708Y-13661D01*
X195365Y-13734D01*
X196857Y-15997D01*
X198869Y-19050D01*
X196942Y-19050D01*
X193736Y-13926D01*
X189891Y-13926D01*
X189891Y-19050D01*
G37*
%LPC*%
G36*
X193929Y-12604D02*
X194250Y-12594D01*
X194553Y-12565D01*
X194836Y-12517D01*
X195101Y-12449D01*
X195348Y-12363D01*
X195575Y-12256D01*
X195784Y-12131D01*
X195974Y-11986D01*
X196143Y-11824D01*
X196290Y-11647D01*
X196414Y-11454D01*
X196516Y-11245D01*
X196595Y-11021D01*
X196651Y-10782D01*
X196685Y-10527D01*
X196697Y-10256D01*
X196685Y-9995D01*
X196651Y-9750D01*
X196594Y-9521D01*
X196514Y-9307D01*
X196411Y-9110D01*
X196285Y-8929D01*
X196137Y-8763D01*
X195965Y-8614D01*
X195772Y-8482D01*
X195559Y-8367D01*
X195326Y-8270D01*
X195073Y-8191D01*
X194800Y-8129D01*
X194506Y-8085D01*
X194193Y-8058D01*
X193859Y-8049D01*
X189891Y-8049D01*
X189891Y-12604D01*
X193929Y-12604D01*
G37*
%LPD*%
G36*
X218758Y-19050D02*
X210587Y-19050D01*
X210587Y-17938D01*
X210822Y-17440D01*
X211082Y-16973D01*
X211367Y-16536D01*
X211677Y-16129D01*
X212003Y-15746D01*
X212337Y-15382D01*
X212680Y-15037D01*
X213030Y-14710D01*
X213736Y-14098D01*
X214436Y-13532D01*
X215098Y-12989D01*
X215693Y-12446D01*
X215960Y-12171D01*
X216200Y-11890D01*
X216413Y-11602D01*
X216599Y-11307D01*
X216751Y-11000D01*
X216859Y-10672D01*
X216924Y-10325D01*
X216945Y-9959D01*
X216936Y-9712D01*
X216908Y-9479D01*
X216861Y-9261D01*
X216796Y-9057D01*
X216713Y-8867D01*
X216610Y-8691D01*
X216489Y-8529D01*
X216350Y-8382D01*
X216193Y-8251D01*
X216023Y-8137D01*
X215838Y-8041D01*
X215638Y-7962D01*
X215424Y-7900D01*
X215195Y-7857D01*
X214952Y-7830D01*
X214694Y-7822D01*
X214448Y-7830D01*
X214213Y-7856D01*
X213989Y-7899D01*
X213776Y-7958D01*
X213574Y-8035D01*
X213383Y-8129D01*
X213203Y-8241D01*
X213035Y-8369D01*
X212880Y-8513D01*
X212742Y-8670D01*
X212621Y-8842D01*
X212517Y-9027D01*
X212429Y-9226D01*
X212359Y-9439D01*
X212305Y-9666D01*
X212268Y-9906D01*
X210657Y-9757D01*
X210715Y-9397D01*
X210801Y-9055D01*
X210915Y-8732D01*
X211058Y-8428D01*
X211230Y-8143D01*
X211429Y-7877D01*
X211657Y-7630D01*
X211913Y-7401D01*
X212193Y-7196D01*
X212493Y-7018D01*
X212812Y-6867D01*
X213149Y-6744D01*
X213507Y-6648D01*
X213883Y-6580D01*
X214279Y-6539D01*
X214694Y-6525D01*
X215147Y-6539D01*
X215573Y-6580D01*
X215972Y-6649D01*
X216344Y-6745D01*
X216689Y-6869D01*
X217007Y-7020D01*
X217298Y-7199D01*
X217563Y-7406D01*
X217798Y-7637D01*
X218001Y-7892D01*
X218174Y-8170D01*
X218315Y-8471D01*
X218425Y-8795D01*
X218503Y-9142D01*
X218550Y-9513D01*
X218566Y-9906D01*
X218545Y-10265D01*
X218483Y-10622D01*
X218381Y-10978D01*
X218237Y-11334D01*
X218053Y-11688D01*
X217829Y-12043D01*
X217565Y-12398D01*
X217261Y-12753D01*
X216863Y-13156D01*
X216317Y-13657D01*
X215623Y-14255D01*
X214782Y-14951D01*
X214304Y-15353D01*
X213878Y-15734D01*
X213503Y-16095D01*
X213179Y-16436D01*
X212902Y-16763D01*
X212667Y-17085D01*
X212473Y-17400D01*
X212321Y-17710D01*
X218758Y-17710D01*
X218758Y-19050D01*
G37*
G36*
X208816Y-19050D02*
X201082Y-19050D01*
X201082Y-17710D01*
X204226Y-17710D01*
X204226Y-8216D01*
X201441Y-10204D01*
X201441Y-8715D01*
X204358Y-6709D01*
X205812Y-6709D01*
X205812Y-17710D01*
X208816Y-17710D01*
X208816Y-19050D01*
G37*
G36*
X246380Y-70862D02*
X234039Y-70862D01*
X234039Y-65055D01*
X234054Y-64549D01*
X234098Y-64072D01*
X234170Y-63625D01*
X234272Y-63208D01*
X234404Y-62820D01*
X234564Y-62463D01*
X234753Y-62134D01*
X234972Y-61836D01*
X235217Y-61570D01*
X235484Y-61340D01*
X235774Y-61145D01*
X236088Y-60985D01*
X236424Y-60861D01*
X236783Y-60773D01*
X237164Y-60720D01*
X237569Y-60702D01*
X237906Y-60714D01*
X238229Y-60752D01*
X238539Y-60815D01*
X238835Y-60902D01*
X239117Y-61015D01*
X239385Y-61153D01*
X239640Y-61315D01*
X239881Y-61503D01*
X240105Y-61713D01*
X240307Y-61942D01*
X240487Y-62190D01*
X240553Y-62301D01*
X240645Y-62457D01*
X240782Y-62743D01*
X240898Y-63048D01*
X240991Y-63372D01*
X241064Y-63715D01*
X243327Y-62223D01*
X246380Y-60211D01*
X246380Y-62138D01*
X241256Y-65344D01*
X241256Y-69189D01*
X246380Y-69189D01*
X246380Y-70862D01*
G37*
%LPC*%
G36*
X239934Y-69189D02*
X239934Y-65151D01*
X239924Y-64830D01*
X239895Y-64527D01*
X239847Y-64244D01*
X239779Y-63979D01*
X239693Y-63732D01*
X239586Y-63505D01*
X239461Y-63296D01*
X239316Y-63106D01*
X239154Y-62937D01*
X238977Y-62790D01*
X238784Y-62666D01*
X238575Y-62564D01*
X238351Y-62485D01*
X238112Y-62429D01*
X237857Y-62395D01*
X237586Y-62383D01*
X237325Y-62395D01*
X237080Y-62429D01*
X236851Y-62486D01*
X236637Y-62566D01*
X236440Y-62669D01*
X236259Y-62795D01*
X236093Y-62943D01*
X235944Y-63115D01*
X235812Y-63308D01*
X235697Y-63521D01*
X235600Y-63754D01*
X235521Y-64007D01*
X235459Y-64280D01*
X235415Y-64574D01*
X235388Y-64888D01*
X235379Y-65221D01*
X235379Y-69189D01*
X239934Y-69189D01*
G37*
%LPD*%
G36*
X243209Y-48712D02*
X243061Y-47083D01*
X243326Y-47036D01*
X243574Y-46972D01*
X243805Y-46893D01*
X244019Y-46797D01*
X244215Y-46685D01*
X244395Y-46557D01*
X244557Y-46414D01*
X244703Y-46254D01*
X244831Y-46077D01*
X244942Y-45885D01*
X245036Y-45677D01*
X245113Y-45453D01*
X245173Y-45212D01*
X245216Y-44956D01*
X245242Y-44683D01*
X245250Y-44395D01*
X245241Y-44105D01*
X245214Y-43831D01*
X245168Y-43573D01*
X245103Y-43331D01*
X245021Y-43106D01*
X244920Y-42896D01*
X244801Y-42702D01*
X244663Y-42525D01*
X244508Y-42365D01*
X244334Y-42228D01*
X244143Y-42111D01*
X243934Y-42015D01*
X243707Y-41941D01*
X243463Y-41888D01*
X243201Y-41856D01*
X242920Y-41846D01*
X242676Y-41858D01*
X242444Y-41894D01*
X242227Y-41955D01*
X242024Y-42040D01*
X241834Y-42149D01*
X241658Y-42282D01*
X241496Y-42439D01*
X241348Y-42621D01*
X241216Y-42825D01*
X241101Y-43051D01*
X241004Y-43299D01*
X240925Y-43568D01*
X240863Y-43858D01*
X240819Y-44170D01*
X240792Y-44504D01*
X240783Y-44859D01*
X240783Y-45752D01*
X239417Y-45752D01*
X239417Y-44894D01*
X239408Y-44579D01*
X239382Y-44282D01*
X239338Y-44003D01*
X239276Y-43743D01*
X239196Y-43501D01*
X239099Y-43277D01*
X238984Y-43071D01*
X238852Y-42884D01*
X238704Y-42716D01*
X238543Y-42571D01*
X238367Y-42449D01*
X238179Y-42348D01*
X237977Y-42270D01*
X237761Y-42214D01*
X237532Y-42181D01*
X237289Y-42170D01*
X237048Y-42179D01*
X236820Y-42206D01*
X236605Y-42252D01*
X236403Y-42315D01*
X236214Y-42397D01*
X236038Y-42497D01*
X235875Y-42616D01*
X235725Y-42752D01*
X235591Y-42907D01*
X235474Y-43079D01*
X235376Y-43269D01*
X235295Y-43476D01*
X235232Y-43701D01*
X235187Y-43944D01*
X235161Y-44204D01*
X235152Y-44482D01*
X235160Y-44736D01*
X235185Y-44978D01*
X235227Y-45208D01*
X235285Y-45425D01*
X235360Y-45629D01*
X235452Y-45821D01*
X235561Y-46001D01*
X235686Y-46168D01*
X235826Y-46321D01*
X235980Y-46456D01*
X236148Y-46575D01*
X236330Y-46677D01*
X236525Y-46762D01*
X236734Y-46831D01*
X236956Y-46882D01*
X237192Y-46917D01*
X237070Y-48502D01*
X236701Y-48444D01*
X236354Y-48358D01*
X236027Y-48243D01*
X235721Y-48100D01*
X235436Y-47929D01*
X235171Y-47730D01*
X234928Y-47502D01*
X234705Y-47245D01*
X234506Y-46965D01*
X234333Y-46666D01*
X234187Y-46347D01*
X234068Y-46009D01*
X233975Y-45652D01*
X233908Y-45276D01*
X233869Y-44880D01*
X233855Y-44465D01*
X233869Y-44013D01*
X233909Y-43588D01*
X233977Y-43188D01*
X234071Y-42815D01*
X234192Y-42467D01*
X234341Y-42145D01*
X234516Y-41849D01*
X234718Y-41579D01*
X234944Y-41337D01*
X235192Y-41128D01*
X235461Y-40952D01*
X235750Y-40807D01*
X236062Y-40694D01*
X236394Y-40614D01*
X236747Y-40566D01*
X237122Y-40550D01*
X237411Y-40560D01*
X237686Y-40591D01*
X237947Y-40643D01*
X238194Y-40715D01*
X238427Y-40808D01*
X238647Y-40921D01*
X238853Y-41056D01*
X239045Y-41211D01*
X239222Y-41385D01*
X239385Y-41579D01*
X239533Y-41791D01*
X239666Y-42022D01*
X239783Y-42272D01*
X239886Y-42540D01*
X239974Y-42827D01*
X240048Y-43133D01*
X240083Y-43133D01*
X240130Y-42797D01*
X240196Y-42480D01*
X240283Y-42182D01*
X240389Y-41903D01*
X240515Y-41643D01*
X240661Y-41402D01*
X240826Y-41181D01*
X241011Y-40979D01*
X241212Y-40798D01*
X241426Y-40641D01*
X241652Y-40509D01*
X241891Y-40401D01*
X242143Y-40316D01*
X242407Y-40256D01*
X242684Y-40220D01*
X242973Y-40208D01*
X243388Y-40225D01*
X243779Y-40276D01*
X244146Y-40361D01*
X244488Y-40479D01*
X244807Y-40632D01*
X245101Y-40819D01*
X245372Y-41039D01*
X245618Y-41294D01*
X245838Y-41580D01*
X246028Y-41895D01*
X246189Y-42239D01*
X246321Y-42612D01*
X246423Y-43014D01*
X246497Y-43445D01*
X246541Y-43905D01*
X246555Y-44395D01*
X246542Y-44851D01*
X246502Y-45284D01*
X246436Y-45694D01*
X246344Y-46079D01*
X246225Y-46441D01*
X246080Y-46780D01*
X245908Y-47095D01*
X245710Y-47386D01*
X245486Y-47651D01*
X245237Y-47887D01*
X244962Y-48096D01*
X244662Y-48276D01*
X244337Y-48427D01*
X243986Y-48551D01*
X243611Y-48646D01*
X243209Y-48712D01*
G37*
G36*
X246380Y-57998D02*
X245040Y-57998D01*
X245040Y-54854D01*
X235546Y-54854D01*
X237534Y-57639D01*
X236045Y-57639D01*
X234039Y-54722D01*
X234039Y-53268D01*
X245040Y-53268D01*
X245040Y-50264D01*
X246380Y-50264D01*
X246380Y-57998D01*
G37*
G36*
X296476Y12700D02*
X294803Y12700D01*
X294803Y25041D01*
X300610Y25041D01*
X301116Y25026D01*
X301592Y24982D01*
X302039Y24910D01*
X302457Y24808D01*
X302844Y24676D01*
X303202Y24516D01*
X303530Y24327D01*
X303828Y24108D01*
X304094Y23863D01*
X304325Y23596D01*
X304520Y23306D01*
X304679Y22992D01*
X304803Y22656D01*
X304892Y22297D01*
X304945Y21916D01*
X304963Y21511D01*
X304950Y21174D01*
X304913Y20851D01*
X304850Y20541D01*
X304762Y20245D01*
X304650Y19963D01*
X304512Y19695D01*
X304349Y19440D01*
X304161Y19199D01*
X303951Y18975D01*
X303722Y18774D01*
X303475Y18593D01*
X303364Y18527D01*
X303208Y18435D01*
X302922Y18298D01*
X302617Y18182D01*
X302293Y18089D01*
X301950Y18016D01*
X303441Y15753D01*
X305453Y12700D01*
X303526Y12700D01*
X300321Y17824D01*
X296476Y17824D01*
X296476Y12700D01*
G37*
%LPC*%
G36*
X300513Y19146D02*
X300835Y19156D01*
X301137Y19185D01*
X301421Y19233D01*
X301686Y19301D01*
X301932Y19387D01*
X302160Y19494D01*
X302368Y19619D01*
X302558Y19764D01*
X302728Y19926D01*
X302875Y20103D01*
X302999Y20296D01*
X303100Y20505D01*
X303179Y20729D01*
X303236Y20968D01*
X303270Y21223D01*
X303281Y21494D01*
X303270Y21755D01*
X303235Y22000D01*
X303178Y22230D01*
X303098Y22443D01*
X302995Y22640D01*
X302870Y22821D01*
X302721Y22987D01*
X302550Y23136D01*
X302357Y23268D01*
X302144Y23383D01*
X301911Y23480D01*
X301657Y23560D01*
X301384Y23621D01*
X301090Y23665D01*
X300777Y23692D01*
X300443Y23701D01*
X296476Y23701D01*
X296476Y19146D01*
X300513Y19146D01*
G37*
%LPD*%
G36*
X315374Y12700D02*
X307202Y12700D01*
X307202Y13812D01*
X307438Y14310D01*
X307698Y14777D01*
X307983Y15214D01*
X308293Y15621D01*
X308619Y16004D01*
X308953Y16368D01*
X309295Y16713D01*
X309646Y17040D01*
X310352Y17652D01*
X311052Y18218D01*
X311714Y18761D01*
X312308Y19304D01*
X312575Y19579D01*
X312815Y19860D01*
X313028Y20148D01*
X313215Y20443D01*
X313366Y20750D01*
X313474Y21078D01*
X313539Y21425D01*
X313561Y21791D01*
X313552Y22038D01*
X313524Y22271D01*
X313477Y22489D01*
X313412Y22693D01*
X313328Y22883D01*
X313226Y23059D01*
X313105Y23221D01*
X312965Y23368D01*
X312809Y23499D01*
X312638Y23613D01*
X312453Y23709D01*
X312254Y23788D01*
X312039Y23850D01*
X311811Y23893D01*
X311568Y23920D01*
X311310Y23928D01*
X311064Y23920D01*
X310828Y23894D01*
X310604Y23851D01*
X310391Y23792D01*
X310189Y23715D01*
X309999Y23621D01*
X309819Y23509D01*
X309650Y23381D01*
X309495Y23237D01*
X309358Y23080D01*
X309237Y22908D01*
X309132Y22723D01*
X309045Y22524D01*
X308974Y22311D01*
X308921Y22084D01*
X308884Y21844D01*
X307272Y21993D01*
X307330Y22353D01*
X307416Y22695D01*
X307531Y23018D01*
X307674Y23322D01*
X307845Y23607D01*
X308045Y23873D01*
X308273Y24120D01*
X308529Y24349D01*
X308809Y24554D01*
X309108Y24732D01*
X309427Y24883D01*
X309765Y25006D01*
X310122Y25102D01*
X310499Y25170D01*
X310895Y25211D01*
X311310Y25225D01*
X311763Y25211D01*
X312189Y25170D01*
X312588Y25101D01*
X312960Y25005D01*
X313305Y24881D01*
X313623Y24730D01*
X313914Y24551D01*
X314178Y24344D01*
X314413Y24113D01*
X314617Y23858D01*
X314789Y23580D01*
X314930Y23279D01*
X315040Y22955D01*
X315118Y22608D01*
X315165Y22237D01*
X315181Y21844D01*
X315161Y21485D01*
X315099Y21128D01*
X314996Y20772D01*
X314853Y20416D01*
X314669Y20062D01*
X314444Y19707D01*
X314180Y19352D01*
X313876Y18997D01*
X313478Y18594D01*
X312932Y18093D01*
X312239Y17495D01*
X311397Y16799D01*
X310920Y16397D01*
X310493Y16016D01*
X310118Y15655D01*
X309795Y15314D01*
X309518Y14987D01*
X309282Y14665D01*
X309089Y14350D01*
X308936Y14040D01*
X315374Y14040D01*
X315374Y12700D01*
G37*
G36*
X306070Y77633D02*
X293729Y77633D01*
X293729Y83440D01*
X293744Y83946D01*
X293788Y84422D01*
X293860Y84869D01*
X293962Y85287D01*
X294094Y85674D01*
X294254Y86032D01*
X294443Y86360D01*
X294662Y86658D01*
X294907Y86924D01*
X295174Y87155D01*
X295464Y87350D01*
X295778Y87509D01*
X296114Y87633D01*
X296473Y87722D01*
X296854Y87775D01*
X297259Y87793D01*
X297596Y87780D01*
X297919Y87743D01*
X298229Y87680D01*
X298525Y87592D01*
X298807Y87480D01*
X299075Y87342D01*
X299330Y87179D01*
X299571Y86991D01*
X299795Y86781D01*
X299997Y86552D01*
X300177Y86305D01*
X300243Y86194D01*
X300335Y86038D01*
X300472Y85752D01*
X300588Y85447D01*
X300681Y85123D01*
X300754Y84780D01*
X303017Y86271D01*
X306070Y88283D01*
X306070Y86356D01*
X300946Y83151D01*
X300946Y79306D01*
X306070Y79306D01*
X306070Y77633D01*
G37*
%LPC*%
G36*
X299624Y79306D02*
X299624Y83343D01*
X299614Y83665D01*
X299585Y83967D01*
X299537Y84251D01*
X299469Y84516D01*
X299383Y84762D01*
X299276Y84990D01*
X299151Y85198D01*
X299006Y85388D01*
X298844Y85558D01*
X298667Y85705D01*
X298474Y85829D01*
X298265Y85930D01*
X298041Y86009D01*
X297802Y86066D01*
X297547Y86100D01*
X297276Y86111D01*
X297015Y86100D01*
X296770Y86065D01*
X296541Y86008D01*
X296327Y85928D01*
X296130Y85825D01*
X295949Y85700D01*
X295783Y85551D01*
X295634Y85380D01*
X295502Y85187D01*
X295387Y84974D01*
X295290Y84741D01*
X295211Y84487D01*
X295149Y84214D01*
X295105Y83920D01*
X295078Y83607D01*
X295069Y83273D01*
X295069Y79306D01*
X299624Y79306D01*
G37*
%LPD*%
G36*
X302899Y89813D02*
X302751Y91442D01*
X303016Y91490D01*
X303264Y91553D01*
X303495Y91633D01*
X303709Y91729D01*
X303905Y91840D01*
X304085Y91968D01*
X304247Y92112D01*
X304393Y92272D01*
X304521Y92448D01*
X304632Y92640D01*
X304726Y92849D01*
X304803Y93073D01*
X304863Y93313D01*
X304906Y93570D01*
X304932Y93842D01*
X304940Y94131D01*
X304931Y94421D01*
X304904Y94695D01*
X304858Y94952D01*
X304793Y95194D01*
X304711Y95420D01*
X304610Y95630D01*
X304491Y95823D01*
X304353Y96001D01*
X304198Y96160D01*
X304024Y96298D01*
X303833Y96415D01*
X303624Y96510D01*
X303397Y96584D01*
X303153Y96637D01*
X302891Y96669D01*
X302610Y96680D01*
X302366Y96668D01*
X302134Y96631D01*
X301917Y96571D01*
X301714Y96486D01*
X301524Y96377D01*
X301348Y96244D01*
X301186Y96086D01*
X301038Y95905D01*
X300906Y95700D01*
X300791Y95474D01*
X300694Y95227D01*
X300615Y94958D01*
X300553Y94667D01*
X300509Y94355D01*
X300482Y94022D01*
X300473Y93667D01*
X300473Y92774D01*
X299107Y92774D01*
X299107Y93632D01*
X299098Y93947D01*
X299072Y94244D01*
X299028Y94522D01*
X298966Y94783D01*
X298886Y95025D01*
X298789Y95249D01*
X298674Y95454D01*
X298542Y95642D01*
X298394Y95809D01*
X298233Y95954D01*
X298057Y96077D01*
X297869Y96177D01*
X297667Y96255D01*
X297451Y96311D01*
X297222Y96345D01*
X296979Y96356D01*
X296738Y96347D01*
X296510Y96319D01*
X296295Y96274D01*
X296093Y96210D01*
X295904Y96128D01*
X295728Y96028D01*
X295565Y95910D01*
X295415Y95773D01*
X295281Y95619D01*
X295164Y95447D01*
X295066Y95257D01*
X294985Y95050D01*
X294922Y94825D01*
X294877Y94582D01*
X294851Y94322D01*
X294842Y94044D01*
X294850Y93789D01*
X294875Y93547D01*
X294917Y93318D01*
X294975Y93101D01*
X295050Y92896D01*
X295142Y92704D01*
X295251Y92525D01*
X295376Y92358D01*
X295516Y92205D01*
X295670Y92069D01*
X295838Y91950D01*
X296020Y91848D01*
X296215Y91763D01*
X296424Y91695D01*
X296646Y91643D01*
X296882Y91609D01*
X296760Y90023D01*
X296391Y90081D01*
X296044Y90168D01*
X295717Y90282D01*
X295411Y90425D01*
X295126Y90596D01*
X294861Y90796D01*
X294618Y91024D01*
X294395Y91280D01*
X294196Y91560D01*
X294023Y91860D01*
X293877Y92178D01*
X293758Y92516D01*
X293665Y92874D01*
X293598Y93250D01*
X293559Y93646D01*
X293545Y94061D01*
X293559Y94512D01*
X293599Y94938D01*
X293667Y95337D01*
X293761Y95711D01*
X293882Y96059D01*
X294031Y96381D01*
X294206Y96677D01*
X294408Y96947D01*
X294634Y97188D01*
X294882Y97397D01*
X295151Y97574D01*
X295440Y97719D01*
X295752Y97831D01*
X296084Y97912D01*
X296437Y97960D01*
X296812Y97976D01*
X297101Y97966D01*
X297376Y97935D01*
X297637Y97883D01*
X297884Y97811D01*
X298117Y97718D01*
X298337Y97604D01*
X298543Y97470D01*
X298735Y97315D01*
X298912Y97140D01*
X299075Y96947D01*
X299223Y96735D01*
X299356Y96504D01*
X299473Y96254D01*
X299576Y95985D01*
X299664Y95698D01*
X299738Y95392D01*
X299773Y95392D01*
X299820Y95729D01*
X299886Y96046D01*
X299973Y96344D01*
X300079Y96623D01*
X300205Y96883D01*
X300351Y97123D01*
X300516Y97345D01*
X300701Y97547D01*
X300902Y97728D01*
X301116Y97884D01*
X301342Y98017D01*
X301581Y98125D01*
X301833Y98209D01*
X302097Y98270D01*
X302374Y98306D01*
X302663Y98318D01*
X303078Y98301D01*
X303469Y98250D01*
X303836Y98165D01*
X304178Y98046D01*
X304497Y97893D01*
X304791Y97707D01*
X305062Y97486D01*
X305308Y97232D01*
X305528Y96946D01*
X305718Y96631D01*
X305879Y96287D01*
X306011Y95913D01*
X306113Y95511D01*
X306187Y95080D01*
X306231Y94620D01*
X306245Y94131D01*
X306232Y93674D01*
X306192Y93241D01*
X306126Y92832D01*
X306034Y92446D01*
X305915Y92084D01*
X305770Y91746D01*
X305598Y91431D01*
X305400Y91140D01*
X305176Y90875D01*
X304927Y90638D01*
X304652Y90430D01*
X304352Y90250D01*
X304027Y90098D01*
X303676Y89975D01*
X303301Y89880D01*
X302899Y89813D01*
G37*
G36*
X97790Y28103D02*
X85449Y28103D01*
X85449Y33910D01*
X85464Y34416D01*
X85508Y34892D01*
X85580Y35339D01*
X85682Y35757D01*
X85814Y36144D01*
X85974Y36502D01*
X86163Y36830D01*
X86382Y37128D01*
X86627Y37394D01*
X86894Y37625D01*
X87184Y37820D01*
X87498Y37979D01*
X87834Y38103D01*
X88193Y38192D01*
X88574Y38245D01*
X88979Y38263D01*
X89316Y38250D01*
X89639Y38213D01*
X89949Y38150D01*
X90245Y38062D01*
X90527Y37950D01*
X90795Y37812D01*
X91050Y37649D01*
X91291Y37461D01*
X91515Y37251D01*
X91717Y37022D01*
X91897Y36775D01*
X91963Y36664D01*
X92055Y36508D01*
X92192Y36222D01*
X92308Y35917D01*
X92401Y35593D01*
X92474Y35250D01*
X94737Y36741D01*
X97790Y38753D01*
X97790Y36826D01*
X92666Y33621D01*
X92666Y29776D01*
X97790Y29776D01*
X97790Y28103D01*
G37*
%LPC*%
G36*
X91344Y29776D02*
X91344Y33813D01*
X91334Y34135D01*
X91305Y34437D01*
X91257Y34721D01*
X91189Y34986D01*
X91103Y35232D01*
X90996Y35460D01*
X90871Y35668D01*
X90726Y35858D01*
X90564Y36028D01*
X90387Y36175D01*
X90194Y36299D01*
X89985Y36400D01*
X89761Y36479D01*
X89522Y36536D01*
X89267Y36570D01*
X88996Y36581D01*
X88735Y36570D01*
X88490Y36535D01*
X88261Y36478D01*
X88047Y36398D01*
X87850Y36295D01*
X87669Y36170D01*
X87503Y36021D01*
X87354Y35850D01*
X87222Y35657D01*
X87107Y35444D01*
X87010Y35211D01*
X86931Y34957D01*
X86869Y34684D01*
X86825Y34390D01*
X86798Y34077D01*
X86789Y33743D01*
X86789Y29776D01*
X91344Y29776D01*
G37*
%LPD*%
G36*
X94996Y40012D02*
X93770Y40012D01*
X85449Y45661D01*
X85449Y47316D01*
X93752Y47316D01*
X93752Y49050D01*
X94996Y49050D01*
X94996Y47316D01*
X97790Y47316D01*
X97790Y45827D01*
X94996Y45827D01*
X94996Y40012D01*
G37*
%LPC*%
G36*
X93752Y41466D02*
X93752Y45827D01*
X87227Y45827D01*
X87691Y45582D01*
X88269Y45241D01*
X92929Y42079D01*
X93577Y41606D01*
X93752Y41466D01*
G37*
%LPD*%
G36*
X190642Y-67485D02*
X190161Y-67471D01*
X189707Y-67427D01*
X189279Y-67353D01*
X188879Y-67251D01*
X188505Y-67119D01*
X188159Y-66958D01*
X187839Y-66768D01*
X187546Y-66548D01*
X187284Y-66301D01*
X187058Y-66030D01*
X186866Y-65734D01*
X186709Y-65414D01*
X186587Y-65069D01*
X186499Y-64699D01*
X186447Y-64304D01*
X186430Y-63885D01*
X186440Y-63589D01*
X186473Y-63305D01*
X186527Y-63033D01*
X186602Y-62773D01*
X186700Y-62525D01*
X186819Y-62289D01*
X186959Y-62065D01*
X187121Y-61853D01*
X187300Y-61658D01*
X187491Y-61482D01*
X187695Y-61327D01*
X187910Y-61192D01*
X188137Y-61078D01*
X188376Y-60983D01*
X188627Y-60909D01*
X188891Y-60855D01*
X188891Y-60820D01*
X188645Y-60752D01*
X188414Y-60667D01*
X188195Y-60565D01*
X187990Y-60446D01*
X187798Y-60309D01*
X187619Y-60155D01*
X187453Y-59984D01*
X187301Y-59795D01*
X187164Y-59594D01*
X187046Y-59384D01*
X186946Y-59166D01*
X186864Y-58939D01*
X186800Y-58704D01*
X186755Y-58460D01*
X186728Y-58208D01*
X186719Y-57947D01*
X186735Y-57603D01*
X186785Y-57275D01*
X186867Y-56965D01*
X186982Y-56671D01*
X187131Y-56393D01*
X187312Y-56132D01*
X187527Y-55888D01*
X187774Y-55661D01*
X188049Y-55456D01*
X188347Y-55278D01*
X188667Y-55127D01*
X189010Y-55004D01*
X189375Y-54908D01*
X189764Y-54840D01*
X190174Y-54799D01*
X190607Y-54785D01*
X191051Y-54799D01*
X191470Y-54839D01*
X191866Y-54906D01*
X192238Y-55000D01*
X192585Y-55121D01*
X192909Y-55268D01*
X193209Y-55442D01*
X193485Y-55644D01*
X193732Y-55868D01*
X193946Y-56111D01*
X194128Y-56372D01*
X194276Y-56653D01*
X194392Y-56953D01*
X194474Y-57271D01*
X194523Y-57608D01*
X194540Y-57965D01*
X194531Y-58225D01*
X194503Y-58478D01*
X194457Y-58721D01*
X194393Y-58957D01*
X194311Y-59183D01*
X194210Y-59402D01*
X194091Y-59611D01*
X193953Y-59813D01*
X193800Y-60001D01*
X193633Y-60170D01*
X193615Y-60185D01*
X193453Y-60321D01*
X193259Y-60454D01*
X193052Y-60569D01*
X192831Y-60665D01*
X192598Y-60743D01*
X192350Y-60802D01*
X192350Y-60837D01*
X192638Y-60895D01*
X192909Y-60972D01*
X193163Y-61069D01*
X193401Y-61185D01*
X193623Y-61320D01*
X193828Y-61474D01*
X194017Y-61647D01*
X194156Y-61803D01*
X194190Y-61840D01*
X194344Y-62049D01*
X194477Y-62271D01*
X194590Y-62505D01*
X194682Y-62752D01*
X194754Y-63012D01*
X194805Y-63285D01*
X194836Y-63570D01*
X194846Y-63868D01*
X194830Y-64283D01*
X194779Y-64675D01*
X194694Y-65043D01*
X194575Y-65388D01*
X194422Y-65709D01*
X194236Y-66006D01*
X194015Y-66280D01*
X193760Y-66531D01*
X193474Y-66754D01*
X193158Y-66948D01*
X192813Y-67112D01*
X192438Y-67247D01*
X192033Y-67351D01*
X191599Y-67426D01*
X191136Y-67470D01*
X190642Y-67485D01*
G37*
%LPC*%
G36*
X190660Y-66303D02*
X190972Y-66293D01*
X191263Y-66264D01*
X191533Y-66216D01*
X191783Y-66148D01*
X192013Y-66062D01*
X192222Y-65955D01*
X192410Y-65830D01*
X192578Y-65685D01*
X192726Y-65520D01*
X192854Y-65331D01*
X192962Y-65119D01*
X193051Y-64885D01*
X193120Y-64628D01*
X193169Y-64348D01*
X193199Y-64045D01*
X193209Y-63719D01*
X193198Y-63441D01*
X193166Y-63181D01*
X193113Y-62938D01*
X193038Y-62713D01*
X192942Y-62505D01*
X192824Y-62316D01*
X192686Y-62144D01*
X192525Y-61989D01*
X192346Y-61853D01*
X192149Y-61734D01*
X191935Y-61634D01*
X191704Y-61552D01*
X191456Y-61489D01*
X191190Y-61443D01*
X190907Y-61416D01*
X190607Y-61407D01*
X190316Y-61417D01*
X190040Y-61446D01*
X189781Y-61495D01*
X189539Y-61563D01*
X189313Y-61651D01*
X189103Y-61759D01*
X188910Y-61886D01*
X188733Y-62033D01*
X188575Y-62197D01*
X188438Y-62375D01*
X188322Y-62569D01*
X188227Y-62776D01*
X188153Y-62999D01*
X188101Y-63236D01*
X188069Y-63488D01*
X188059Y-63754D01*
X188069Y-64063D01*
X188099Y-64351D01*
X188150Y-64620D01*
X188221Y-64869D01*
X188313Y-65098D01*
X188424Y-65307D01*
X188557Y-65496D01*
X188709Y-65666D01*
X188882Y-65815D01*
X189075Y-65944D01*
X189288Y-66054D01*
X189522Y-66144D01*
X189776Y-66213D01*
X190050Y-66263D01*
X190345Y-66293D01*
X190660Y-66303D01*
G37*
G36*
X190625Y-60224D02*
X190895Y-60216D01*
X191148Y-60192D01*
X191385Y-60152D01*
X191605Y-60096D01*
X191808Y-60024D01*
X191995Y-59936D01*
X192166Y-59832D01*
X192320Y-59712D01*
X192456Y-59574D01*
X192574Y-59416D01*
X192675Y-59238D01*
X192756Y-59041D01*
X192820Y-58823D01*
X192866Y-58586D01*
X192893Y-58329D01*
X192902Y-58052D01*
X192893Y-57799D01*
X192866Y-57562D01*
X192821Y-57341D01*
X192759Y-57136D01*
X192678Y-56948D01*
X192579Y-56777D01*
X192463Y-56621D01*
X192328Y-56482D01*
X192176Y-56360D01*
X192006Y-56253D01*
X191817Y-56163D01*
X191611Y-56090D01*
X191387Y-56033D01*
X191145Y-55992D01*
X190885Y-55967D01*
X190607Y-55959D01*
X190338Y-55967D01*
X190084Y-55992D01*
X189848Y-56033D01*
X189627Y-56090D01*
X189424Y-56164D01*
X189237Y-56255D01*
X189066Y-56361D01*
X188913Y-56484D01*
X188776Y-56624D01*
X188658Y-56780D01*
X188558Y-56951D01*
X188476Y-57139D01*
X188412Y-57343D01*
X188367Y-57563D01*
X188339Y-57800D01*
X188330Y-58052D01*
X188339Y-58309D01*
X188368Y-58551D01*
X188414Y-58776D01*
X188480Y-58986D01*
X188564Y-59180D01*
X188668Y-59359D01*
X188789Y-59521D01*
X188930Y-59668D01*
X189088Y-59799D01*
X189261Y-59912D01*
X189450Y-60007D01*
X189654Y-60085D01*
X189873Y-60146D01*
X190108Y-60190D01*
X190359Y-60216D01*
X190625Y-60224D01*
G37*
%LPD*%
G36*
X175826Y-67310D02*
X174153Y-67310D01*
X174153Y-54969D01*
X179960Y-54969D01*
X180466Y-54984D01*
X180942Y-55028D01*
X181389Y-55100D01*
X181807Y-55202D01*
X182194Y-55334D01*
X182552Y-55494D01*
X182880Y-55683D01*
X183178Y-55902D01*
X183444Y-56147D01*
X183675Y-56414D01*
X183870Y-56704D01*
X184029Y-57018D01*
X184153Y-57354D01*
X184242Y-57713D01*
X184295Y-58094D01*
X184313Y-58499D01*
X184300Y-58836D01*
X184263Y-59159D01*
X184200Y-59469D01*
X184112Y-59765D01*
X184000Y-60047D01*
X183862Y-60315D01*
X183699Y-60570D01*
X183511Y-60811D01*
X183301Y-61035D01*
X183072Y-61237D01*
X182825Y-61417D01*
X182714Y-61483D01*
X182558Y-61575D01*
X182272Y-61712D01*
X181967Y-61828D01*
X181643Y-61921D01*
X181300Y-61994D01*
X182791Y-64257D01*
X184803Y-67310D01*
X182876Y-67310D01*
X179671Y-62186D01*
X175826Y-62186D01*
X175826Y-67310D01*
G37*
%LPC*%
G36*
X179863Y-60864D02*
X180185Y-60854D01*
X180487Y-60825D01*
X180771Y-60777D01*
X181036Y-60709D01*
X181282Y-60623D01*
X181510Y-60516D01*
X181718Y-60391D01*
X181908Y-60246D01*
X182078Y-60084D01*
X182225Y-59907D01*
X182349Y-59714D01*
X182450Y-59505D01*
X182529Y-59281D01*
X182586Y-59042D01*
X182620Y-58787D01*
X182631Y-58516D01*
X182620Y-58255D01*
X182585Y-58010D01*
X182528Y-57781D01*
X182448Y-57567D01*
X182345Y-57370D01*
X182220Y-57189D01*
X182071Y-57023D01*
X181900Y-56874D01*
X181707Y-56742D01*
X181494Y-56627D01*
X181261Y-56530D01*
X181007Y-56451D01*
X180734Y-56389D01*
X180440Y-56345D01*
X180127Y-56318D01*
X179793Y-56309D01*
X175826Y-56309D01*
X175826Y-60864D01*
X179863Y-60864D01*
G37*
%LPD*%
G36*
X132646Y-13930D02*
X130973Y-13930D01*
X130973Y-1589D01*
X136780Y-1589D01*
X137286Y-1604D01*
X137762Y-1648D01*
X138209Y-1720D01*
X138627Y-1822D01*
X139014Y-1954D01*
X139372Y-2114D01*
X139700Y-2303D01*
X139998Y-2522D01*
X140264Y-2767D01*
X140495Y-3034D01*
X140690Y-3324D01*
X140849Y-3638D01*
X140973Y-3974D01*
X141062Y-4333D01*
X141115Y-4714D01*
X141133Y-5119D01*
X141120Y-5456D01*
X141083Y-5779D01*
X141020Y-6089D01*
X140932Y-6385D01*
X140820Y-6667D01*
X140682Y-6935D01*
X140519Y-7190D01*
X140331Y-7431D01*
X140121Y-7655D01*
X139892Y-7857D01*
X139645Y-8037D01*
X139534Y-8103D01*
X139378Y-8195D01*
X139092Y-8332D01*
X138787Y-8448D01*
X138463Y-8541D01*
X138120Y-8614D01*
X139611Y-10877D01*
X141623Y-13930D01*
X139696Y-13930D01*
X136491Y-8806D01*
X132646Y-8806D01*
X132646Y-13930D01*
G37*
%LPC*%
G36*
X136683Y-7484D02*
X137005Y-7474D01*
X137307Y-7445D01*
X137591Y-7397D01*
X137856Y-7329D01*
X138102Y-7243D01*
X138330Y-7136D01*
X138538Y-7011D01*
X138728Y-6866D01*
X138898Y-6704D01*
X139045Y-6527D01*
X139169Y-6334D01*
X139270Y-6125D01*
X139349Y-5901D01*
X139406Y-5662D01*
X139440Y-5407D01*
X139451Y-5136D01*
X139440Y-4875D01*
X139405Y-4630D01*
X139348Y-4401D01*
X139268Y-4187D01*
X139165Y-3990D01*
X139040Y-3809D01*
X138891Y-3643D01*
X138720Y-3494D01*
X138527Y-3362D01*
X138314Y-3247D01*
X138081Y-3150D01*
X137827Y-3071D01*
X137554Y-3009D01*
X137260Y-2965D01*
X136947Y-2938D01*
X136613Y-2929D01*
X132646Y-2929D01*
X132646Y-7484D01*
X136683Y-7484D01*
G37*
%LPD*%
G36*
X147130Y-14105D02*
X146777Y-14096D01*
X146443Y-14067D01*
X146126Y-14020D01*
X145828Y-13953D01*
X145547Y-13867D01*
X145285Y-13763D01*
X145040Y-13639D01*
X144813Y-13496D01*
X144603Y-13333D01*
X144408Y-13145D01*
X144229Y-12935D01*
X144065Y-12701D01*
X143917Y-12443D01*
X143784Y-12162D01*
X143667Y-11858D01*
X143565Y-11530D01*
X145071Y-11294D01*
X145207Y-11655D01*
X145379Y-11968D01*
X145586Y-12233D01*
X145829Y-12450D01*
X146107Y-12618D01*
X146421Y-12739D01*
X146771Y-12811D01*
X146959Y-12829D01*
X147156Y-12835D01*
X147486Y-12816D01*
X147796Y-12756D01*
X148088Y-12658D01*
X148360Y-12520D01*
X148613Y-12343D01*
X148847Y-12126D01*
X149062Y-11870D01*
X149258Y-11574D01*
X149433Y-11242D01*
X149586Y-10876D01*
X149716Y-10477D01*
X149825Y-10043D01*
X149911Y-9577D01*
X149976Y-9076D01*
X150018Y-8542D01*
X150037Y-7974D01*
X149942Y-8166D01*
X149831Y-8349D01*
X149704Y-8522D01*
X149562Y-8685D01*
X149404Y-8838D01*
X149231Y-8982D01*
X149042Y-9116D01*
X148837Y-9240D01*
X148622Y-9352D01*
X148402Y-9449D01*
X148177Y-9531D01*
X147946Y-9598D01*
X147710Y-9650D01*
X147469Y-9687D01*
X147223Y-9710D01*
X146972Y-9717D01*
X146566Y-9699D01*
X146181Y-9646D01*
X145817Y-9557D01*
X145474Y-9433D01*
X145152Y-9272D01*
X144850Y-9077D01*
X144569Y-8845D01*
X144309Y-8579D01*
X144075Y-8282D01*
X143872Y-7963D01*
X143701Y-7620D01*
X143560Y-7254D01*
X143451Y-6864D01*
X143373Y-6452D01*
X143326Y-6016D01*
X143311Y-5557D01*
X143328Y-5086D01*
X143379Y-4641D01*
X143464Y-4222D01*
X143582Y-3828D01*
X143735Y-3461D01*
X143922Y-3119D01*
X144142Y-2803D01*
X144397Y-2513D01*
X144682Y-2254D01*
X144993Y-2029D01*
X145331Y-1838D01*
X145695Y-1682D01*
X146086Y-1561D01*
X146504Y-1475D01*
X146948Y-1423D01*
X147419Y-1405D01*
X147672Y-1411D01*
X147918Y-1429D01*
X148385Y-1501D01*
X148822Y-1620D01*
X149227Y-1786D01*
X149601Y-2001D01*
X149944Y-2263D01*
X150256Y-2572D01*
X150537Y-2929D01*
X150785Y-3334D01*
X151000Y-3787D01*
X151182Y-4288D01*
X151331Y-4836D01*
X151447Y-5433D01*
X151530Y-6077D01*
X151580Y-6770D01*
X151596Y-7510D01*
X151578Y-8282D01*
X151524Y-9008D01*
X151433Y-9688D01*
X151306Y-10322D01*
X151143Y-10909D01*
X150944Y-11451D01*
X150708Y-11947D01*
X150436Y-12397D01*
X150130Y-12798D01*
X149794Y-13144D01*
X149427Y-13438D01*
X149029Y-13678D01*
X148600Y-13865D01*
X148374Y-13938D01*
X148141Y-13998D01*
X147900Y-14045D01*
X147651Y-14078D01*
X147394Y-14098D01*
X147130Y-14105D01*
G37*
%LPC*%
G36*
X147349Y-8473D02*
X147684Y-8454D01*
X148008Y-8396D01*
X148319Y-8299D01*
X148618Y-8163D01*
X148896Y-7991D01*
X149143Y-7787D01*
X149358Y-7551D01*
X149543Y-7282D01*
X149690Y-6988D01*
X149795Y-6674D01*
X149859Y-6340D01*
X149880Y-5986D01*
X149869Y-5623D01*
X149837Y-5278D01*
X149784Y-4951D01*
X149709Y-4643D01*
X149613Y-4352D01*
X149495Y-4080D01*
X149357Y-3826D01*
X149197Y-3591D01*
X149019Y-3378D01*
X148826Y-3194D01*
X148619Y-3038D01*
X148397Y-2911D01*
X148161Y-2812D01*
X147911Y-2741D01*
X147646Y-2698D01*
X147366Y-2684D01*
X147089Y-2696D01*
X146827Y-2733D01*
X146580Y-2793D01*
X146348Y-2878D01*
X146131Y-2987D01*
X145929Y-3120D01*
X145742Y-3278D01*
X145571Y-3459D01*
X145417Y-3662D01*
X145283Y-3881D01*
X145170Y-4118D01*
X145078Y-4371D01*
X145006Y-4642D01*
X144955Y-4930D01*
X144924Y-5235D01*
X144914Y-5557D01*
X144924Y-5885D01*
X144955Y-6196D01*
X145006Y-6489D01*
X145078Y-6764D01*
X145170Y-7022D01*
X145283Y-7262D01*
X145417Y-7485D01*
X145571Y-7690D01*
X145742Y-7873D01*
X145928Y-8033D01*
X146128Y-8167D01*
X146343Y-8277D01*
X146573Y-8363D01*
X146817Y-8424D01*
X147075Y-8461D01*
X147349Y-8473D01*
G37*
%LPD*%
G36*
X202706Y142590D02*
X196794Y142590D01*
X196794Y144545D01*
X196805Y144910D01*
X196841Y145254D01*
X196900Y145576D01*
X196982Y145876D01*
X197088Y146155D01*
X197217Y146413D01*
X197370Y146649D01*
X197547Y146864D01*
X197745Y147055D01*
X197963Y147221D01*
X198201Y147361D01*
X198459Y147476D01*
X198737Y147565D01*
X199034Y147629D01*
X199352Y147667D01*
X199689Y147680D01*
X200132Y147658D01*
X200547Y147591D01*
X200932Y147479D01*
X201290Y147323D01*
X201613Y147126D01*
X201896Y146892D01*
X202138Y146621D01*
X202341Y146312D01*
X202501Y145972D01*
X202615Y145607D01*
X202683Y145217D01*
X202706Y144801D01*
X202706Y142590D01*
G37*
%LPC*%
G36*
X202064Y143391D02*
X202064Y144709D01*
X202046Y145024D01*
X201993Y145320D01*
X201904Y145596D01*
X201779Y145852D01*
X201620Y146085D01*
X201430Y146288D01*
X201209Y146463D01*
X200956Y146610D01*
X200676Y146726D01*
X200371Y146808D01*
X200042Y146858D01*
X199689Y146874D01*
X199422Y146865D01*
X199172Y146837D01*
X198938Y146790D01*
X198720Y146724D01*
X198519Y146639D01*
X198334Y146536D01*
X198165Y146413D01*
X198013Y146272D01*
X197877Y146113D01*
X197760Y145937D01*
X197661Y145745D01*
X197580Y145535D01*
X197517Y145309D01*
X197472Y145066D01*
X197445Y144805D01*
X197436Y144529D01*
X197436Y143391D01*
X202064Y143391D01*
G37*
%LPD*%
G36*
X202706Y148809D02*
X196794Y148809D01*
X196794Y150764D01*
X196805Y151129D01*
X196841Y151472D01*
X196900Y151794D01*
X196982Y152095D01*
X197088Y152374D01*
X197217Y152632D01*
X197370Y152868D01*
X197547Y153083D01*
X197745Y153274D01*
X197963Y153440D01*
X198201Y153580D01*
X198459Y153695D01*
X198737Y153784D01*
X199034Y153848D01*
X199352Y153886D01*
X199689Y153899D01*
X200132Y153876D01*
X200547Y153809D01*
X200932Y153698D01*
X201290Y153542D01*
X201613Y153345D01*
X201896Y153111D01*
X202138Y152839D01*
X202341Y152531D01*
X202501Y152191D01*
X202615Y151826D01*
X202683Y151436D01*
X202706Y151020D01*
X202706Y148809D01*
G37*
%LPC*%
G36*
X202064Y149610D02*
X202064Y150928D01*
X202046Y151243D01*
X201993Y151539D01*
X201904Y151815D01*
X201779Y152071D01*
X201620Y152303D01*
X201430Y152507D01*
X201209Y152682D01*
X200956Y152829D01*
X200676Y152944D01*
X200371Y153027D01*
X200042Y153076D01*
X199689Y153093D01*
X199422Y153084D01*
X199172Y153055D01*
X198938Y153008D01*
X198720Y152942D01*
X198519Y152858D01*
X198334Y152754D01*
X198165Y152632D01*
X198013Y152491D01*
X197877Y152332D01*
X197760Y152156D01*
X197661Y151963D01*
X197580Y151754D01*
X197517Y151528D01*
X197472Y151284D01*
X197445Y151024D01*
X197436Y150747D01*
X197436Y149610D01*
X202064Y149610D01*
G37*
%LPD*%
G36*
X196794Y136204D02*
X196794Y137047D01*
X200956Y138684D01*
X202001Y139036D01*
X200956Y139389D01*
X196794Y141017D01*
X196794Y141860D01*
X202706Y139448D01*
X202706Y138617D01*
X196794Y136204D01*
G37*
G36*
X256093Y154323D02*
X253881Y154323D01*
X253881Y160235D01*
X255837Y160235D01*
X256201Y160223D01*
X256545Y160188D01*
X256867Y160129D01*
X257167Y160047D01*
X257446Y159941D01*
X257704Y159811D01*
X257940Y159658D01*
X258155Y159482D01*
X258346Y159283D01*
X258512Y159065D01*
X258652Y158827D01*
X258767Y158570D01*
X258856Y158292D01*
X258920Y157994D01*
X258958Y157677D01*
X258971Y157340D01*
X258949Y156896D01*
X258882Y156482D01*
X258771Y156096D01*
X258614Y155739D01*
X258418Y155416D01*
X258183Y155133D01*
X257912Y154890D01*
X257603Y154688D01*
X257263Y154528D01*
X256898Y154414D01*
X256508Y154345D01*
X256093Y154323D01*
G37*
%LPC*%
G36*
X256000Y154965D02*
X256316Y154982D01*
X256611Y155036D01*
X256887Y155125D01*
X257144Y155250D01*
X257376Y155408D01*
X257580Y155598D01*
X257755Y155819D01*
X257901Y156072D01*
X258017Y156353D01*
X258099Y156658D01*
X258149Y156987D01*
X258165Y157340D01*
X258156Y157606D01*
X258128Y157857D01*
X258081Y158091D01*
X258015Y158308D01*
X257930Y158510D01*
X257827Y158695D01*
X257704Y158864D01*
X257563Y159016D01*
X257404Y159151D01*
X257229Y159268D01*
X257036Y159368D01*
X256826Y159449D01*
X256600Y159512D01*
X256357Y159557D01*
X256097Y159584D01*
X255820Y159593D01*
X254683Y159593D01*
X254683Y154965D01*
X256000Y154965D01*
G37*
%LPD*%
G36*
X248376Y154323D02*
X247662Y154323D01*
X247662Y160235D01*
X248594Y160235D01*
X251791Y155166D01*
X251754Y155875D01*
X251741Y156358D01*
X251741Y160235D01*
X252463Y160235D01*
X252463Y154323D01*
X251498Y154323D01*
X248334Y159358D01*
X248355Y158951D01*
X248376Y158250D01*
X248376Y154323D01*
G37*
G36*
X243681Y154239D02*
X243234Y154262D01*
X242818Y154331D01*
X242434Y154446D01*
X242083Y154608D01*
X241767Y154813D01*
X241491Y155058D01*
X241254Y155345D01*
X241057Y155672D01*
X240902Y156034D01*
X240791Y156427D01*
X240724Y156851D01*
X240702Y157306D01*
X240714Y157656D01*
X240750Y157985D01*
X240811Y158294D01*
X240895Y158583D01*
X241004Y158851D01*
X241137Y159099D01*
X241293Y159327D01*
X241474Y159534D01*
X241677Y159719D01*
X241899Y159879D01*
X242141Y160015D01*
X242403Y160126D01*
X242684Y160212D01*
X242984Y160274D01*
X243304Y160311D01*
X243644Y160323D01*
X244112Y160302D01*
X244533Y160240D01*
X244909Y160137D01*
X245238Y159992D01*
X245527Y159801D01*
X245781Y159560D01*
X245999Y159270D01*
X246182Y158930D01*
X245419Y158703D01*
X245281Y158938D01*
X245119Y159139D01*
X244934Y159305D01*
X244724Y159438D01*
X244489Y159539D01*
X244228Y159611D01*
X243939Y159654D01*
X243623Y159668D01*
X243374Y159659D01*
X243141Y159630D01*
X242923Y159581D01*
X242720Y159514D01*
X242531Y159427D01*
X242358Y159320D01*
X242200Y159195D01*
X242058Y159049D01*
X241931Y158887D01*
X241821Y158708D01*
X241728Y158514D01*
X241652Y158304D01*
X241592Y158078D01*
X241550Y157837D01*
X241525Y157579D01*
X241516Y157306D01*
X241525Y157033D01*
X241552Y156775D01*
X241597Y156532D01*
X241660Y156304D01*
X241741Y156090D01*
X241840Y155891D01*
X241956Y155707D01*
X242091Y155537D01*
X242242Y155385D01*
X242406Y155254D01*
X242584Y155142D01*
X242776Y155051D01*
X242982Y154980D01*
X243201Y154930D01*
X243434Y154899D01*
X243681Y154889D01*
X243966Y154900D01*
X244241Y154933D01*
X244506Y154988D01*
X244762Y155065D01*
X245001Y155161D01*
X245216Y155273D01*
X245407Y155400D01*
X245574Y155544D01*
X245574Y156609D01*
X243807Y156609D01*
X243807Y157281D01*
X246312Y157281D01*
X246312Y155241D01*
X246064Y155016D01*
X245790Y154817D01*
X245488Y154645D01*
X245161Y154501D01*
X244812Y154386D01*
X244450Y154304D01*
X244073Y154255D01*
X243681Y154239D01*
G37*
G36*
X261791Y154239D02*
X261572Y154245D01*
X261365Y154264D01*
X261169Y154296D01*
X260984Y154340D01*
X260810Y154397D01*
X260648Y154466D01*
X260497Y154549D01*
X260358Y154644D01*
X260231Y154751D01*
X260118Y154870D01*
X260018Y155002D01*
X259932Y155145D01*
X259859Y155301D01*
X259800Y155469D01*
X259754Y155649D01*
X259722Y155842D01*
X260503Y155913D01*
X260556Y155667D01*
X260640Y155454D01*
X260755Y155274D01*
X260900Y155126D01*
X261077Y155011D01*
X261284Y154929D01*
X261522Y154880D01*
X261791Y154864D01*
X262061Y154881D01*
X262300Y154934D01*
X262509Y155022D01*
X262687Y155145D01*
X262829Y155303D01*
X262931Y155494D01*
X262992Y155720D01*
X263012Y155980D01*
X262989Y156208D01*
X262919Y156410D01*
X262803Y156585D01*
X262641Y156733D01*
X262434Y156852D01*
X262187Y156936D01*
X261898Y156987D01*
X261569Y157004D01*
X261141Y157004D01*
X261141Y157658D01*
X261552Y157658D01*
X261845Y157675D01*
X262103Y157726D01*
X262326Y157811D01*
X262515Y157929D01*
X262664Y158077D01*
X262771Y158252D01*
X262835Y158452D01*
X262857Y158678D01*
X262839Y158903D01*
X262787Y159102D01*
X262700Y159277D01*
X262578Y159427D01*
X262421Y159547D01*
X262231Y159633D01*
X262007Y159685D01*
X261749Y159702D01*
X261511Y159686D01*
X261297Y159638D01*
X261107Y159558D01*
X260941Y159446D01*
X260803Y159305D01*
X260697Y159138D01*
X260624Y158944D01*
X260583Y158724D01*
X259823Y158783D01*
X259851Y158960D01*
X259892Y159126D01*
X259947Y159283D01*
X260016Y159429D01*
X260098Y159566D01*
X260193Y159693D01*
X260302Y159809D01*
X260425Y159916D01*
X260703Y160094D01*
X260855Y160164D01*
X261017Y160221D01*
X261189Y160266D01*
X261369Y160298D01*
X261559Y160317D01*
X261757Y160323D01*
X261974Y160317D01*
X262177Y160297D01*
X262369Y160265D01*
X262548Y160220D01*
X262715Y160162D01*
X262869Y160091D01*
X263011Y160007D01*
X263140Y159910D01*
X263256Y159801D01*
X263356Y159683D01*
X263441Y159554D01*
X263510Y159415D01*
X263564Y159266D01*
X263602Y159107D01*
X263625Y158937D01*
X263633Y158758D01*
X263613Y158488D01*
X263554Y158244D01*
X263455Y158027D01*
X263316Y157837D01*
X263140Y157674D01*
X262928Y157539D01*
X262679Y157434D01*
X262395Y157356D01*
X262395Y157340D01*
X262708Y157285D01*
X262985Y157193D01*
X263225Y157063D01*
X263428Y156895D01*
X263589Y156696D01*
X263704Y156473D01*
X263774Y156226D01*
X263797Y155955D01*
X263789Y155756D01*
X263764Y155569D01*
X263724Y155393D01*
X263667Y155229D01*
X263594Y155076D01*
X263504Y154935D01*
X263398Y154806D01*
X263276Y154688D01*
X263139Y154582D01*
X262988Y154491D01*
X262824Y154414D01*
X262645Y154351D01*
X262452Y154302D01*
X262246Y154267D01*
X262025Y154246D01*
X261791Y154239D01*
G37*
G36*
X26495Y105090D02*
X24284Y105090D01*
X24284Y111002D01*
X26239Y111002D01*
X26604Y110991D01*
X26947Y110955D01*
X27269Y110896D01*
X27570Y110814D01*
X27849Y110708D01*
X28107Y110579D01*
X28343Y110426D01*
X28558Y110249D01*
X28749Y110051D01*
X28915Y109833D01*
X29055Y109595D01*
X29170Y109337D01*
X29259Y109059D01*
X29323Y108762D01*
X29361Y108444D01*
X29374Y108107D01*
X29351Y107664D01*
X29284Y107249D01*
X29173Y106864D01*
X29017Y106506D01*
X28820Y106183D01*
X28586Y105900D01*
X28314Y105658D01*
X28006Y105455D01*
X27666Y105295D01*
X27301Y105181D01*
X26911Y105113D01*
X26495Y105090D01*
G37*
%LPC*%
G36*
X26403Y105732D02*
X26718Y105750D01*
X27014Y105803D01*
X27290Y105893D01*
X27546Y106017D01*
X27778Y106176D01*
X27982Y106366D01*
X28157Y106587D01*
X28304Y106840D01*
X28419Y107120D01*
X28502Y107425D01*
X28551Y107754D01*
X28568Y108107D01*
X28559Y108374D01*
X28530Y108624D01*
X28483Y108858D01*
X28417Y109076D01*
X28333Y109277D01*
X28229Y109462D01*
X28107Y109631D01*
X27966Y109783D01*
X27807Y109919D01*
X27631Y110036D01*
X27438Y110135D01*
X27229Y110216D01*
X27003Y110279D01*
X26759Y110324D01*
X26499Y110351D01*
X26222Y110360D01*
X25085Y110360D01*
X25085Y105732D01*
X26403Y105732D01*
G37*
%LPD*%
G36*
X32714Y105090D02*
X30502Y105090D01*
X30502Y111002D01*
X32458Y111002D01*
X32823Y110991D01*
X33166Y110955D01*
X33488Y110896D01*
X33789Y110814D01*
X34068Y110708D01*
X34325Y110579D01*
X34561Y110426D01*
X34776Y110249D01*
X34968Y110051D01*
X35133Y109833D01*
X35274Y109595D01*
X35388Y109337D01*
X35478Y109059D01*
X35541Y108762D01*
X35580Y108444D01*
X35592Y108107D01*
X35570Y107664D01*
X35503Y107249D01*
X35392Y106864D01*
X35236Y106506D01*
X35039Y106183D01*
X34805Y105900D01*
X34533Y105658D01*
X34224Y105455D01*
X33885Y105295D01*
X33520Y105181D01*
X33129Y105113D01*
X32714Y105090D01*
G37*
%LPC*%
G36*
X32622Y105732D02*
X32937Y105750D01*
X33233Y105803D01*
X33509Y105893D01*
X33765Y106017D01*
X33997Y106176D01*
X34201Y106366D01*
X34376Y106587D01*
X34522Y106840D01*
X34638Y107120D01*
X34721Y107425D01*
X34770Y107754D01*
X34787Y108107D01*
X34777Y108374D01*
X34749Y108624D01*
X34702Y108858D01*
X34636Y109076D01*
X34552Y109277D01*
X34448Y109462D01*
X34326Y109631D01*
X34185Y109783D01*
X34026Y109919D01*
X33850Y110036D01*
X33657Y110135D01*
X33448Y110216D01*
X33221Y110279D01*
X32978Y110324D01*
X32718Y110351D01*
X32441Y110360D01*
X31304Y110360D01*
X31304Y105732D01*
X32622Y105732D01*
G37*
%LPD*%
G36*
X21141Y105090D02*
X20311Y105090D01*
X17898Y111002D01*
X18741Y111002D01*
X20378Y106840D01*
X20730Y105795D01*
X21083Y106840D01*
X22711Y111002D01*
X23554Y111002D01*
X21141Y105090D01*
G37*
G36*
X40376Y105090D02*
X36671Y105090D01*
X36671Y105732D01*
X38177Y105732D01*
X38177Y110281D01*
X36843Y109328D01*
X36843Y110041D01*
X38240Y111002D01*
X38937Y111002D01*
X38937Y105732D01*
X40376Y105732D01*
X40376Y105090D01*
G37*
G36*
X26495Y154323D02*
X24284Y154323D01*
X24284Y160235D01*
X26239Y160235D01*
X26604Y160223D01*
X26947Y160188D01*
X27269Y160129D01*
X27570Y160047D01*
X27849Y159941D01*
X28107Y159811D01*
X28343Y159658D01*
X28558Y159482D01*
X28749Y159283D01*
X28915Y159065D01*
X29055Y158827D01*
X29170Y158570D01*
X29259Y158292D01*
X29323Y157994D01*
X29361Y157677D01*
X29374Y157340D01*
X29351Y156896D01*
X29284Y156482D01*
X29173Y156096D01*
X29017Y155739D01*
X28820Y155416D01*
X28586Y155133D01*
X28314Y154890D01*
X28006Y154688D01*
X27666Y154528D01*
X27301Y154414D01*
X26911Y154345D01*
X26495Y154323D01*
G37*
%LPC*%
G36*
X26403Y154965D02*
X26718Y154982D01*
X27014Y155036D01*
X27290Y155125D01*
X27546Y155250D01*
X27778Y155408D01*
X27982Y155598D01*
X28157Y155819D01*
X28304Y156072D01*
X28419Y156353D01*
X28502Y156658D01*
X28551Y156987D01*
X28568Y157340D01*
X28559Y157606D01*
X28530Y157857D01*
X28483Y158091D01*
X28417Y158308D01*
X28333Y158510D01*
X28229Y158695D01*
X28107Y158864D01*
X27966Y159016D01*
X27807Y159151D01*
X27631Y159268D01*
X27438Y159368D01*
X27229Y159449D01*
X27003Y159512D01*
X26759Y159557D01*
X26499Y159584D01*
X26222Y159593D01*
X25085Y159593D01*
X25085Y154965D01*
X26403Y154965D01*
G37*
%LPD*%
G36*
X32714Y154323D02*
X30502Y154323D01*
X30502Y160235D01*
X32458Y160235D01*
X32823Y160223D01*
X33166Y160188D01*
X33488Y160129D01*
X33789Y160047D01*
X34068Y159941D01*
X34325Y159811D01*
X34561Y159658D01*
X34776Y159482D01*
X34968Y159283D01*
X35133Y159065D01*
X35274Y158827D01*
X35388Y158570D01*
X35478Y158292D01*
X35541Y157994D01*
X35580Y157677D01*
X35592Y157340D01*
X35570Y156896D01*
X35503Y156482D01*
X35392Y156096D01*
X35236Y155739D01*
X35039Y155416D01*
X34805Y155133D01*
X34533Y154890D01*
X34224Y154688D01*
X33885Y154528D01*
X33520Y154414D01*
X33129Y154345D01*
X32714Y154323D01*
G37*
%LPC*%
G36*
X32622Y154965D02*
X32937Y154982D01*
X33233Y155036D01*
X33509Y155125D01*
X33765Y155250D01*
X33997Y155408D01*
X34201Y155598D01*
X34376Y155819D01*
X34522Y156072D01*
X34638Y156353D01*
X34721Y156658D01*
X34770Y156987D01*
X34787Y157340D01*
X34777Y157606D01*
X34749Y157857D01*
X34702Y158091D01*
X34636Y158308D01*
X34552Y158510D01*
X34448Y158695D01*
X34326Y158864D01*
X34185Y159016D01*
X34026Y159151D01*
X33850Y159268D01*
X33657Y159368D01*
X33448Y159449D01*
X33221Y159512D01*
X32978Y159557D01*
X32718Y159584D01*
X32441Y159593D01*
X31304Y159593D01*
X31304Y154965D01*
X32622Y154965D01*
G37*
%LPD*%
G36*
X21141Y154323D02*
X20311Y154323D01*
X17898Y160235D01*
X18741Y160235D01*
X20378Y156072D01*
X20730Y155027D01*
X21083Y156072D01*
X22711Y160235D01*
X23554Y160235D01*
X21141Y154323D01*
G37*
G36*
X40363Y154323D02*
X36448Y154323D01*
X36448Y154855D01*
X36561Y155094D01*
X36686Y155318D01*
X36823Y155527D01*
X36971Y155722D01*
X37287Y156080D01*
X37619Y156402D01*
X38293Y156966D01*
X38610Y157226D01*
X38895Y157486D01*
X39138Y157753D01*
X39329Y158032D01*
X39402Y158179D01*
X39453Y158336D01*
X39485Y158502D01*
X39495Y158678D01*
X39477Y158908D01*
X39424Y159110D01*
X39334Y159286D01*
X39210Y159433D01*
X39053Y159551D01*
X38869Y159635D01*
X38656Y159685D01*
X38416Y159702D01*
X38186Y159686D01*
X37976Y159636D01*
X37788Y159554D01*
X37621Y159440D01*
X37481Y159295D01*
X37373Y159124D01*
X37298Y158927D01*
X37254Y158703D01*
X36482Y158775D01*
X36510Y158947D01*
X36551Y159111D01*
X36606Y159266D01*
X36675Y159411D01*
X36757Y159548D01*
X36852Y159675D01*
X37084Y159903D01*
X37362Y160087D01*
X37514Y160159D01*
X37676Y160218D01*
X37848Y160264D01*
X38028Y160297D01*
X38218Y160316D01*
X38416Y160323D01*
X38633Y160316D01*
X38838Y160297D01*
X39029Y160264D01*
X39207Y160218D01*
X39372Y160158D01*
X39525Y160086D01*
X39664Y160000D01*
X39791Y159901D01*
X39903Y159790D01*
X40001Y159668D01*
X40083Y159535D01*
X40151Y159391D01*
X40204Y159236D01*
X40241Y159069D01*
X40264Y158892D01*
X40271Y158703D01*
X40261Y158532D01*
X40232Y158360D01*
X40183Y158190D01*
X40114Y158019D01*
X40026Y157849D01*
X39918Y157679D01*
X39646Y157340D01*
X39194Y156906D01*
X38458Y156286D01*
X38025Y155911D01*
X37691Y155575D01*
X37445Y155264D01*
X37352Y155113D01*
X37279Y154965D01*
X40363Y154965D01*
X40363Y154323D01*
G37*
G36*
X26495Y55858D02*
X24284Y55858D01*
X24284Y61770D01*
X26239Y61770D01*
X26604Y61758D01*
X26947Y61723D01*
X27269Y61664D01*
X27570Y61582D01*
X27849Y61476D01*
X28107Y61346D01*
X28343Y61193D01*
X28558Y61017D01*
X28749Y60818D01*
X28915Y60600D01*
X29055Y60362D01*
X29170Y60105D01*
X29259Y59827D01*
X29323Y59529D01*
X29361Y59212D01*
X29374Y58875D01*
X29351Y58431D01*
X29284Y58017D01*
X29173Y57631D01*
X29017Y57274D01*
X28820Y56951D01*
X28586Y56668D01*
X28314Y56425D01*
X28006Y56223D01*
X27666Y56063D01*
X27301Y55949D01*
X26911Y55880D01*
X26495Y55858D01*
G37*
%LPC*%
G36*
X26403Y56500D02*
X26718Y56517D01*
X27014Y56571D01*
X27290Y56660D01*
X27546Y56785D01*
X27778Y56943D01*
X27982Y57133D01*
X28157Y57354D01*
X28304Y57607D01*
X28419Y57888D01*
X28502Y58193D01*
X28551Y58522D01*
X28568Y58875D01*
X28559Y59141D01*
X28530Y59392D01*
X28483Y59626D01*
X28417Y59843D01*
X28333Y60045D01*
X28229Y60230D01*
X28107Y60399D01*
X27966Y60551D01*
X27807Y60686D01*
X27631Y60803D01*
X27438Y60903D01*
X27229Y60984D01*
X27003Y61047D01*
X26759Y61092D01*
X26499Y61119D01*
X26222Y61128D01*
X25085Y61128D01*
X25085Y56500D01*
X26403Y56500D01*
G37*
%LPD*%
G36*
X32714Y55858D02*
X30502Y55858D01*
X30502Y61770D01*
X32458Y61770D01*
X32823Y61758D01*
X33166Y61723D01*
X33488Y61664D01*
X33789Y61582D01*
X34068Y61476D01*
X34325Y61346D01*
X34561Y61193D01*
X34776Y61017D01*
X34968Y60818D01*
X35133Y60600D01*
X35274Y60362D01*
X35388Y60105D01*
X35478Y59827D01*
X35541Y59529D01*
X35580Y59212D01*
X35592Y58875D01*
X35570Y58431D01*
X35503Y58017D01*
X35392Y57631D01*
X35236Y57274D01*
X35039Y56951D01*
X34805Y56668D01*
X34533Y56425D01*
X34224Y56223D01*
X33885Y56063D01*
X33520Y55949D01*
X33129Y55880D01*
X32714Y55858D01*
G37*
%LPC*%
G36*
X32622Y56500D02*
X32937Y56517D01*
X33233Y56571D01*
X33509Y56660D01*
X33765Y56785D01*
X33997Y56943D01*
X34201Y57133D01*
X34376Y57354D01*
X34522Y57607D01*
X34638Y57888D01*
X34721Y58193D01*
X34770Y58522D01*
X34787Y58875D01*
X34777Y59141D01*
X34749Y59392D01*
X34702Y59626D01*
X34636Y59843D01*
X34552Y60045D01*
X34448Y60230D01*
X34326Y60399D01*
X34185Y60551D01*
X34026Y60686D01*
X33850Y60803D01*
X33657Y60903D01*
X33448Y60984D01*
X33221Y61047D01*
X32978Y61092D01*
X32718Y61119D01*
X32441Y61128D01*
X31304Y61128D01*
X31304Y56500D01*
X32622Y56500D01*
G37*
%LPD*%
G36*
X38412Y55774D02*
X38193Y55780D01*
X37986Y55799D01*
X37790Y55831D01*
X37605Y55875D01*
X37432Y55932D01*
X37269Y56001D01*
X37119Y56084D01*
X36979Y56179D01*
X36852Y56286D01*
X36739Y56405D01*
X36639Y56537D01*
X36553Y56680D01*
X36480Y56836D01*
X36421Y57004D01*
X36376Y57184D01*
X36344Y57377D01*
X37124Y57448D01*
X37177Y57202D01*
X37261Y56989D01*
X37376Y56809D01*
X37522Y56661D01*
X37698Y56546D01*
X37905Y56464D01*
X38143Y56415D01*
X38412Y56399D01*
X38682Y56416D01*
X38922Y56469D01*
X39130Y56557D01*
X39308Y56680D01*
X39450Y56838D01*
X39552Y57029D01*
X39613Y57255D01*
X39633Y57515D01*
X39610Y57743D01*
X39541Y57945D01*
X39424Y58120D01*
X39262Y58268D01*
X39056Y58387D01*
X38808Y58471D01*
X38520Y58522D01*
X38190Y58539D01*
X37762Y58539D01*
X37762Y59193D01*
X38173Y59193D01*
X38466Y59210D01*
X38724Y59261D01*
X38948Y59346D01*
X39136Y59464D01*
X39286Y59612D01*
X39393Y59787D01*
X39457Y59987D01*
X39478Y60213D01*
X39461Y60438D01*
X39408Y60637D01*
X39321Y60812D01*
X39199Y60962D01*
X39043Y61082D01*
X38852Y61168D01*
X38628Y61220D01*
X38370Y61237D01*
X38133Y61221D01*
X37919Y61173D01*
X37729Y61093D01*
X37563Y60981D01*
X37424Y60840D01*
X37319Y60673D01*
X37245Y60479D01*
X37204Y60259D01*
X36444Y60318D01*
X36472Y60495D01*
X36513Y60661D01*
X36568Y60818D01*
X36637Y60964D01*
X36719Y61101D01*
X36814Y61228D01*
X36924Y61344D01*
X37046Y61451D01*
X37324Y61629D01*
X37477Y61699D01*
X37639Y61756D01*
X37810Y61801D01*
X37990Y61833D01*
X38180Y61852D01*
X38379Y61858D01*
X38595Y61852D01*
X38799Y61832D01*
X38990Y61800D01*
X39169Y61755D01*
X39336Y61697D01*
X39490Y61626D01*
X39632Y61542D01*
X39761Y61445D01*
X39877Y61336D01*
X39977Y61218D01*
X40062Y61089D01*
X40131Y60950D01*
X40185Y60801D01*
X40224Y60642D01*
X40247Y60472D01*
X40254Y60293D01*
X40235Y60023D01*
X40175Y59779D01*
X40076Y59562D01*
X39938Y59372D01*
X39761Y59209D01*
X39549Y59074D01*
X39301Y58969D01*
X39017Y58891D01*
X39017Y58875D01*
X39330Y58820D01*
X39606Y58728D01*
X39846Y58598D01*
X40049Y58430D01*
X40210Y58231D01*
X40326Y58008D01*
X40395Y57761D01*
X40418Y57490D01*
X40410Y57291D01*
X40386Y57104D01*
X40345Y56928D01*
X40288Y56764D01*
X40215Y56611D01*
X40125Y56470D01*
X40020Y56341D01*
X39898Y56223D01*
X39761Y56117D01*
X39610Y56026D01*
X39445Y55949D01*
X39266Y55886D01*
X39074Y55837D01*
X38867Y55802D01*
X38647Y55781D01*
X38412Y55774D01*
G37*
G36*
X21141Y55858D02*
X20311Y55858D01*
X17898Y61770D01*
X18741Y61770D01*
X20378Y57607D01*
X20730Y56562D01*
X21083Y57607D01*
X22711Y61770D01*
X23554Y61770D01*
X21141Y55858D01*
G37*
G36*
X26495Y6625D02*
X24284Y6625D01*
X24284Y12537D01*
X26239Y12537D01*
X26604Y12526D01*
X26947Y12490D01*
X27269Y12431D01*
X27570Y12349D01*
X27849Y12243D01*
X28107Y12114D01*
X28343Y11961D01*
X28558Y11784D01*
X28749Y11586D01*
X28915Y11368D01*
X29055Y11130D01*
X29170Y10872D01*
X29259Y10594D01*
X29323Y10297D01*
X29361Y9979D01*
X29374Y9642D01*
X29351Y9199D01*
X29284Y8784D01*
X29173Y8399D01*
X29017Y8041D01*
X28820Y7718D01*
X28586Y7435D01*
X28314Y7193D01*
X28006Y6990D01*
X27666Y6830D01*
X27301Y6716D01*
X26911Y6648D01*
X26495Y6625D01*
G37*
%LPC*%
G36*
X26403Y7267D02*
X26718Y7285D01*
X27014Y7338D01*
X27290Y7428D01*
X27546Y7552D01*
X27778Y7711D01*
X27982Y7901D01*
X28157Y8122D01*
X28304Y8375D01*
X28419Y8655D01*
X28502Y8960D01*
X28551Y9289D01*
X28568Y9642D01*
X28559Y9909D01*
X28530Y10159D01*
X28483Y10393D01*
X28417Y10611D01*
X28333Y10812D01*
X28229Y10997D01*
X28107Y11166D01*
X27966Y11318D01*
X27807Y11454D01*
X27631Y11571D01*
X27438Y11670D01*
X27229Y11751D01*
X27003Y11814D01*
X26759Y11859D01*
X26499Y11886D01*
X26222Y11895D01*
X25085Y11895D01*
X25085Y7267D01*
X26403Y7267D01*
G37*
%LPD*%
G36*
X32714Y6625D02*
X30502Y6625D01*
X30502Y12537D01*
X32458Y12537D01*
X32823Y12526D01*
X33166Y12490D01*
X33488Y12431D01*
X33789Y12349D01*
X34068Y12243D01*
X34325Y12114D01*
X34561Y11961D01*
X34776Y11784D01*
X34968Y11586D01*
X35133Y11368D01*
X35274Y11130D01*
X35388Y10872D01*
X35478Y10594D01*
X35541Y10297D01*
X35580Y9979D01*
X35592Y9642D01*
X35570Y9199D01*
X35503Y8784D01*
X35392Y8399D01*
X35236Y8041D01*
X35039Y7718D01*
X34805Y7435D01*
X34533Y7193D01*
X34224Y6990D01*
X33885Y6830D01*
X33520Y6716D01*
X33129Y6648D01*
X32714Y6625D01*
G37*
%LPC*%
G36*
X32622Y7267D02*
X32937Y7285D01*
X33233Y7338D01*
X33509Y7428D01*
X33765Y7552D01*
X33997Y7711D01*
X34201Y7901D01*
X34376Y8122D01*
X34522Y8375D01*
X34638Y8655D01*
X34721Y8960D01*
X34770Y9289D01*
X34787Y9642D01*
X34777Y9909D01*
X34749Y10159D01*
X34702Y10393D01*
X34636Y10611D01*
X34552Y10812D01*
X34448Y10997D01*
X34326Y11166D01*
X34185Y11318D01*
X34026Y11454D01*
X33850Y11571D01*
X33657Y11670D01*
X33448Y11751D01*
X33221Y11814D01*
X32978Y11859D01*
X32718Y11886D01*
X32441Y11895D01*
X31304Y11895D01*
X31304Y7267D01*
X32622Y7267D01*
G37*
%LPD*%
G36*
X39713Y6625D02*
X39000Y6625D01*
X39000Y7964D01*
X36213Y7964D01*
X36213Y8551D01*
X38920Y12537D01*
X39713Y12537D01*
X39713Y8559D01*
X40544Y8559D01*
X40544Y7964D01*
X39713Y7964D01*
X39713Y6625D01*
G37*
%LPC*%
G36*
X39000Y8559D02*
X39000Y11686D01*
X38882Y11463D01*
X38719Y11186D01*
X37204Y8954D01*
X36977Y8643D01*
X36910Y8559D01*
X39000Y8559D01*
G37*
%LPD*%
G36*
X21141Y6625D02*
X20311Y6625D01*
X17898Y12537D01*
X18741Y12537D01*
X20378Y8375D01*
X20730Y7330D01*
X21083Y8375D01*
X22711Y12537D01*
X23554Y12537D01*
X21141Y6625D01*
G37*
G36*
X26495Y-42608D02*
X24284Y-42608D01*
X24284Y-36695D01*
X26239Y-36695D01*
X26604Y-36707D01*
X26947Y-36742D01*
X27269Y-36801D01*
X27570Y-36883D01*
X27849Y-36989D01*
X28107Y-37119D01*
X28343Y-37272D01*
X28558Y-37448D01*
X28749Y-37647D01*
X28915Y-37865D01*
X29055Y-38103D01*
X29170Y-38360D01*
X29259Y-38638D01*
X29323Y-38936D01*
X29361Y-39253D01*
X29374Y-39590D01*
X29351Y-40034D01*
X29284Y-40448D01*
X29173Y-40834D01*
X29017Y-41191D01*
X28820Y-41514D01*
X28586Y-41797D01*
X28314Y-42040D01*
X28006Y-42242D01*
X27666Y-42402D01*
X27301Y-42516D01*
X26911Y-42585D01*
X26495Y-42608D01*
G37*
%LPC*%
G36*
X26403Y-41966D02*
X26718Y-41948D01*
X27014Y-41894D01*
X27290Y-41805D01*
X27546Y-41680D01*
X27778Y-41522D01*
X27982Y-41332D01*
X28157Y-41111D01*
X28304Y-40858D01*
X28419Y-40577D01*
X28502Y-40272D01*
X28551Y-39943D01*
X28568Y-39590D01*
X28559Y-39324D01*
X28530Y-39073D01*
X28483Y-38839D01*
X28417Y-38622D01*
X28333Y-38420D01*
X28229Y-38235D01*
X28107Y-38067D01*
X27966Y-37914D01*
X27807Y-37779D01*
X27631Y-37662D01*
X27438Y-37563D01*
X27229Y-37481D01*
X27003Y-37418D01*
X26759Y-37373D01*
X26499Y-37346D01*
X26222Y-37337D01*
X25085Y-37337D01*
X25085Y-41966D01*
X26403Y-41966D01*
G37*
%LPD*%
G36*
X32714Y-42608D02*
X30502Y-42608D01*
X30502Y-36695D01*
X32458Y-36695D01*
X32823Y-36707D01*
X33166Y-36742D01*
X33488Y-36801D01*
X33789Y-36883D01*
X34068Y-36989D01*
X34325Y-37119D01*
X34561Y-37272D01*
X34776Y-37448D01*
X34968Y-37647D01*
X35133Y-37865D01*
X35274Y-38103D01*
X35388Y-38360D01*
X35478Y-38638D01*
X35541Y-38936D01*
X35580Y-39253D01*
X35592Y-39590D01*
X35570Y-40034D01*
X35503Y-40448D01*
X35392Y-40834D01*
X35236Y-41191D01*
X35039Y-41514D01*
X34805Y-41797D01*
X34533Y-42040D01*
X34224Y-42242D01*
X33885Y-42402D01*
X33520Y-42516D01*
X33129Y-42585D01*
X32714Y-42608D01*
G37*
%LPC*%
G36*
X32622Y-41966D02*
X32937Y-41948D01*
X33233Y-41894D01*
X33509Y-41805D01*
X33765Y-41680D01*
X33997Y-41522D01*
X34201Y-41332D01*
X34376Y-41111D01*
X34522Y-40858D01*
X34638Y-40577D01*
X34721Y-40272D01*
X34770Y-39943D01*
X34787Y-39590D01*
X34777Y-39324D01*
X34749Y-39073D01*
X34702Y-38839D01*
X34636Y-38622D01*
X34552Y-38420D01*
X34448Y-38235D01*
X34326Y-38067D01*
X34185Y-37914D01*
X34026Y-37779D01*
X33850Y-37662D01*
X33657Y-37563D01*
X33448Y-37481D01*
X33221Y-37418D01*
X32978Y-37373D01*
X32718Y-37346D01*
X32441Y-37337D01*
X31304Y-37337D01*
X31304Y-41966D01*
X32622Y-41966D01*
G37*
%LPD*%
G36*
X38337Y-42691D02*
X37943Y-42669D01*
X37590Y-42601D01*
X37276Y-42488D01*
X37002Y-42331D01*
X36772Y-42130D01*
X36588Y-41889D01*
X36451Y-41608D01*
X36360Y-41286D01*
X37124Y-41198D01*
X37196Y-41403D01*
X37291Y-41581D01*
X37409Y-41732D01*
X37551Y-41855D01*
X37716Y-41951D01*
X37905Y-42020D01*
X38118Y-42061D01*
X38354Y-42075D01*
X38641Y-42052D01*
X38896Y-41983D01*
X39117Y-41868D01*
X39306Y-41707D01*
X39457Y-41507D01*
X39564Y-41272D01*
X39629Y-41002D01*
X39650Y-40698D01*
X39628Y-40433D01*
X39564Y-40194D01*
X39455Y-39982D01*
X39304Y-39796D01*
X39116Y-39646D01*
X38897Y-39538D01*
X38649Y-39474D01*
X38370Y-39452D01*
X38074Y-39476D01*
X37800Y-39549D01*
X37535Y-39679D01*
X37271Y-39876D01*
X36532Y-39876D01*
X36730Y-36695D01*
X40091Y-36695D01*
X40091Y-37337D01*
X37418Y-37337D01*
X37304Y-39213D01*
X37565Y-39048D01*
X37855Y-38930D01*
X38175Y-38859D01*
X38526Y-38835D01*
X38738Y-38843D01*
X38940Y-38867D01*
X39130Y-38907D01*
X39310Y-38963D01*
X39478Y-39035D01*
X39635Y-39123D01*
X39781Y-39227D01*
X39917Y-39347D01*
X40038Y-39480D01*
X40143Y-39622D01*
X40232Y-39775D01*
X40305Y-39937D01*
X40362Y-40108D01*
X40402Y-40290D01*
X40427Y-40481D01*
X40435Y-40681D01*
X40426Y-40909D01*
X40400Y-41124D01*
X40357Y-41327D01*
X40296Y-41518D01*
X40218Y-41695D01*
X40122Y-41861D01*
X40009Y-42014D01*
X39879Y-42154D01*
X39733Y-42280D01*
X39574Y-42389D01*
X39401Y-42482D01*
X39215Y-42557D01*
X39016Y-42616D01*
X38803Y-42658D01*
X38577Y-42683D01*
X38337Y-42691D01*
G37*
G36*
X21141Y-42608D02*
X20311Y-42608D01*
X17898Y-36695D01*
X18741Y-36695D01*
X20378Y-40858D01*
X20730Y-41903D01*
X21083Y-40858D01*
X22711Y-36695D01*
X23554Y-36695D01*
X21141Y-42608D01*
G37*
D10*
X90230Y73894D02*
X90232Y73938D01*
X90238Y73982D01*
X90248Y74025D01*
X90261Y74067D01*
X90278Y74108D01*
X90299Y74147D01*
X90323Y74184D01*
X90350Y74219D01*
X90380Y74251D01*
X90413Y74281D01*
X90449Y74307D01*
X90486Y74331D01*
X90526Y74350D01*
X90567Y74367D01*
X90610Y74379D01*
X90653Y74388D01*
X90697Y74393D01*
X90741Y74394D01*
X90785Y74391D01*
X90829Y74384D01*
X90872Y74373D01*
X90914Y74359D01*
X90954Y74341D01*
X90993Y74319D01*
X91029Y74295D01*
X91063Y74267D01*
X91095Y74236D01*
X91124Y74202D01*
X91150Y74166D01*
X91172Y74128D01*
X91191Y74088D01*
X91206Y74046D01*
X91218Y74004D01*
X91226Y73960D01*
X91230Y73916D01*
X91230Y73872D01*
X91226Y73828D01*
X91218Y73784D01*
X91206Y73742D01*
X91191Y73700D01*
X91172Y73660D01*
X91150Y73622D01*
X91124Y73586D01*
X91095Y73552D01*
X91063Y73521D01*
X91029Y73493D01*
X90993Y73469D01*
X90954Y73447D01*
X90914Y73429D01*
X90872Y73415D01*
X90829Y73404D01*
X90785Y73397D01*
X90741Y73394D01*
X90697Y73395D01*
X90653Y73400D01*
X90610Y73409D01*
X90567Y73421D01*
X90526Y73438D01*
X90486Y73457D01*
X90449Y73481D01*
X90413Y73507D01*
X90380Y73537D01*
X90350Y73569D01*
X90323Y73604D01*
X90299Y73641D01*
X90278Y73680D01*
X90261Y73721D01*
X90248Y73763D01*
X90238Y73806D01*
X90232Y73850D01*
X90230Y73894D01*
X80940Y-7620D02*
X80942Y-7576D01*
X80948Y-7532D01*
X80958Y-7489D01*
X80971Y-7447D01*
X80988Y-7406D01*
X81009Y-7367D01*
X81033Y-7330D01*
X81060Y-7295D01*
X81090Y-7263D01*
X81123Y-7233D01*
X81159Y-7207D01*
X81196Y-7183D01*
X81236Y-7164D01*
X81277Y-7147D01*
X81320Y-7135D01*
X81363Y-7126D01*
X81407Y-7121D01*
X81451Y-7120D01*
X81495Y-7123D01*
X81539Y-7130D01*
X81582Y-7141D01*
X81624Y-7155D01*
X81664Y-7173D01*
X81703Y-7195D01*
X81739Y-7219D01*
X81773Y-7247D01*
X81805Y-7278D01*
X81834Y-7312D01*
X81860Y-7348D01*
X81882Y-7386D01*
X81901Y-7426D01*
X81916Y-7468D01*
X81928Y-7510D01*
X81936Y-7554D01*
X81940Y-7598D01*
X81940Y-7642D01*
X81936Y-7686D01*
X81928Y-7730D01*
X81916Y-7772D01*
X81901Y-7814D01*
X81882Y-7854D01*
X81860Y-7892D01*
X81834Y-7928D01*
X81805Y-7962D01*
X81773Y-7993D01*
X81739Y-8021D01*
X81703Y-8045D01*
X81664Y-8067D01*
X81624Y-8085D01*
X81582Y-8099D01*
X81539Y-8110D01*
X81495Y-8117D01*
X81451Y-8120D01*
X81407Y-8119D01*
X81363Y-8114D01*
X81320Y-8105D01*
X81277Y-8093D01*
X81236Y-8076D01*
X81196Y-8057D01*
X81159Y-8033D01*
X81123Y-8007D01*
X81090Y-7977D01*
X81060Y-7945D01*
X81033Y-7910D01*
X81009Y-7873D01*
X80988Y-7834D01*
X80971Y-7793D01*
X80958Y-7751D01*
X80948Y-7708D01*
X80942Y-7664D01*
X80940Y-7620D01*
X287790Y-64610D02*
X287792Y-64566D01*
X287798Y-64522D01*
X287808Y-64479D01*
X287821Y-64437D01*
X287838Y-64396D01*
X287859Y-64357D01*
X287883Y-64320D01*
X287910Y-64285D01*
X287940Y-64253D01*
X287973Y-64223D01*
X288009Y-64197D01*
X288046Y-64173D01*
X288086Y-64154D01*
X288127Y-64137D01*
X288170Y-64125D01*
X288213Y-64116D01*
X288257Y-64111D01*
X288301Y-64110D01*
X288345Y-64113D01*
X288389Y-64120D01*
X288432Y-64131D01*
X288474Y-64145D01*
X288514Y-64163D01*
X288553Y-64185D01*
X288589Y-64209D01*
X288623Y-64237D01*
X288655Y-64268D01*
X288684Y-64302D01*
X288710Y-64338D01*
X288732Y-64376D01*
X288751Y-64416D01*
X288766Y-64458D01*
X288778Y-64500D01*
X288786Y-64544D01*
X288790Y-64588D01*
X288790Y-64632D01*
X288786Y-64676D01*
X288778Y-64720D01*
X288766Y-64762D01*
X288751Y-64804D01*
X288732Y-64844D01*
X288710Y-64882D01*
X288684Y-64918D01*
X288655Y-64952D01*
X288623Y-64983D01*
X288589Y-65011D01*
X288553Y-65035D01*
X288514Y-65057D01*
X288474Y-65075D01*
X288432Y-65089D01*
X288389Y-65100D01*
X288345Y-65107D01*
X288301Y-65110D01*
X288257Y-65109D01*
X288213Y-65104D01*
X288170Y-65095D01*
X288127Y-65083D01*
X288086Y-65066D01*
X288046Y-65047D01*
X288009Y-65023D01*
X287973Y-64997D01*
X287940Y-64967D01*
X287910Y-64935D01*
X287883Y-64900D01*
X287859Y-64863D01*
X287838Y-64824D01*
X287821Y-64783D01*
X287808Y-64741D01*
X287798Y-64698D01*
X287792Y-64654D01*
X287790Y-64610D01*
X214500Y92580D02*
X199470Y92580D01*
X214500Y92580D02*
X214500Y72520D01*
X194440Y72520D01*
X194440Y87550D01*
X199470Y92580D01*
X193440Y92580D02*
X193442Y92643D01*
X193448Y92705D01*
X193458Y92767D01*
X193471Y92829D01*
X193489Y92889D01*
X193510Y92948D01*
X193535Y93006D01*
X193564Y93062D01*
X193596Y93116D01*
X193631Y93168D01*
X193669Y93217D01*
X193711Y93265D01*
X193755Y93309D01*
X193803Y93351D01*
X193852Y93389D01*
X193904Y93424D01*
X193958Y93456D01*
X194014Y93485D01*
X194072Y93510D01*
X194131Y93531D01*
X194191Y93549D01*
X194253Y93562D01*
X194315Y93572D01*
X194377Y93578D01*
X194440Y93580D01*
X194503Y93578D01*
X194565Y93572D01*
X194627Y93562D01*
X194689Y93549D01*
X194749Y93531D01*
X194808Y93510D01*
X194866Y93485D01*
X194922Y93456D01*
X194976Y93424D01*
X195028Y93389D01*
X195077Y93351D01*
X195125Y93309D01*
X195169Y93265D01*
X195211Y93217D01*
X195249Y93168D01*
X195284Y93116D01*
X195316Y93062D01*
X195345Y93006D01*
X195370Y92948D01*
X195391Y92889D01*
X195409Y92829D01*
X195422Y92767D01*
X195432Y92705D01*
X195438Y92643D01*
X195440Y92580D01*
X195438Y92517D01*
X195432Y92455D01*
X195422Y92393D01*
X195409Y92331D01*
X195391Y92271D01*
X195370Y92212D01*
X195345Y92154D01*
X195316Y92098D01*
X195284Y92044D01*
X195249Y91992D01*
X195211Y91943D01*
X195169Y91895D01*
X195125Y91851D01*
X195077Y91809D01*
X195028Y91771D01*
X194976Y91736D01*
X194922Y91704D01*
X194866Y91675D01*
X194808Y91650D01*
X194749Y91629D01*
X194689Y91611D01*
X194627Y91598D01*
X194565Y91588D01*
X194503Y91582D01*
X194440Y91580D01*
X194377Y91582D01*
X194315Y91588D01*
X194253Y91598D01*
X194191Y91611D01*
X194131Y91629D01*
X194072Y91650D01*
X194014Y91675D01*
X193958Y91704D01*
X193904Y91736D01*
X193852Y91771D01*
X193803Y91809D01*
X193755Y91851D01*
X193711Y91895D01*
X193669Y91943D01*
X193631Y91992D01*
X193596Y92044D01*
X193564Y92098D01*
X193535Y92154D01*
X193510Y92212D01*
X193489Y92271D01*
X193471Y92331D01*
X193458Y92393D01*
X193448Y92455D01*
X193442Y92517D01*
X193440Y92580D01*
X255735Y19050D02*
X255737Y19094D01*
X255743Y19138D01*
X255753Y19181D01*
X255766Y19223D01*
X255783Y19264D01*
X255804Y19303D01*
X255828Y19340D01*
X255855Y19375D01*
X255885Y19407D01*
X255918Y19437D01*
X255954Y19463D01*
X255991Y19487D01*
X256031Y19506D01*
X256072Y19523D01*
X256115Y19535D01*
X256158Y19544D01*
X256202Y19549D01*
X256246Y19550D01*
X256290Y19547D01*
X256334Y19540D01*
X256377Y19529D01*
X256419Y19515D01*
X256459Y19497D01*
X256498Y19475D01*
X256534Y19451D01*
X256568Y19423D01*
X256600Y19392D01*
X256629Y19358D01*
X256655Y19322D01*
X256677Y19284D01*
X256696Y19244D01*
X256711Y19202D01*
X256723Y19160D01*
X256731Y19116D01*
X256735Y19072D01*
X256735Y19028D01*
X256731Y18984D01*
X256723Y18940D01*
X256711Y18898D01*
X256696Y18856D01*
X256677Y18816D01*
X256655Y18778D01*
X256629Y18742D01*
X256600Y18708D01*
X256568Y18677D01*
X256534Y18649D01*
X256498Y18625D01*
X256459Y18603D01*
X256419Y18585D01*
X256377Y18571D01*
X256334Y18560D01*
X256290Y18553D01*
X256246Y18550D01*
X256202Y18551D01*
X256158Y18556D01*
X256115Y18565D01*
X256072Y18577D01*
X256031Y18594D01*
X255991Y18613D01*
X255954Y18637D01*
X255918Y18663D01*
X255885Y18693D01*
X255855Y18725D01*
X255828Y18760D01*
X255804Y18797D01*
X255783Y18836D01*
X255766Y18877D01*
X255753Y18919D01*
X255743Y18962D01*
X255737Y19006D01*
X255735Y19050D01*
D11*
X102210Y-58170D02*
X102240Y-58172D01*
X102270Y-58177D01*
X102299Y-58186D01*
X102326Y-58199D01*
X102352Y-58214D01*
X102376Y-58233D01*
X102397Y-58254D01*
X102416Y-58278D01*
X102431Y-58304D01*
X102444Y-58331D01*
X102453Y-58360D01*
X102458Y-58390D01*
X102460Y-58420D01*
X102458Y-58450D01*
X102453Y-58480D01*
X102444Y-58509D01*
X102431Y-58536D01*
X102416Y-58562D01*
X102397Y-58586D01*
X102376Y-58607D01*
X102352Y-58626D01*
X102326Y-58641D01*
X102299Y-58654D01*
X102270Y-58663D01*
X102240Y-58668D01*
X102210Y-58670D01*
X102180Y-58668D01*
X102150Y-58663D01*
X102121Y-58654D01*
X102094Y-58641D01*
X102068Y-58626D01*
X102044Y-58607D01*
X102023Y-58586D01*
X102004Y-58562D01*
X101989Y-58536D01*
X101976Y-58509D01*
X101967Y-58480D01*
X101962Y-58450D01*
X101960Y-58420D01*
X101962Y-58390D01*
X101967Y-58360D01*
X101976Y-58331D01*
X101989Y-58304D01*
X102004Y-58278D01*
X102023Y-58254D01*
X102044Y-58233D01*
X102068Y-58214D01*
X102094Y-58199D01*
X102121Y-58186D01*
X102150Y-58177D01*
X102180Y-58172D01*
X102210Y-58170D01*
D10*
X239530Y-90475D02*
X239532Y-90431D01*
X239538Y-90387D01*
X239548Y-90344D01*
X239561Y-90302D01*
X239578Y-90261D01*
X239599Y-90222D01*
X239623Y-90185D01*
X239650Y-90150D01*
X239680Y-90118D01*
X239713Y-90088D01*
X239749Y-90062D01*
X239786Y-90038D01*
X239826Y-90019D01*
X239867Y-90002D01*
X239910Y-89990D01*
X239953Y-89981D01*
X239997Y-89976D01*
X240041Y-89975D01*
X240085Y-89978D01*
X240129Y-89985D01*
X240172Y-89996D01*
X240214Y-90010D01*
X240254Y-90028D01*
X240293Y-90050D01*
X240329Y-90074D01*
X240363Y-90102D01*
X240395Y-90133D01*
X240424Y-90167D01*
X240450Y-90203D01*
X240472Y-90241D01*
X240491Y-90281D01*
X240506Y-90323D01*
X240518Y-90365D01*
X240526Y-90409D01*
X240530Y-90453D01*
X240530Y-90497D01*
X240526Y-90541D01*
X240518Y-90585D01*
X240506Y-90627D01*
X240491Y-90669D01*
X240472Y-90709D01*
X240450Y-90747D01*
X240424Y-90783D01*
X240395Y-90817D01*
X240363Y-90848D01*
X240329Y-90876D01*
X240293Y-90900D01*
X240254Y-90922D01*
X240214Y-90940D01*
X240172Y-90954D01*
X240129Y-90965D01*
X240085Y-90972D01*
X240041Y-90975D01*
X239997Y-90974D01*
X239953Y-90969D01*
X239910Y-90960D01*
X239867Y-90948D01*
X239826Y-90931D01*
X239786Y-90912D01*
X239749Y-90888D01*
X239713Y-90862D01*
X239680Y-90832D01*
X239650Y-90800D01*
X239623Y-90765D01*
X239599Y-90728D01*
X239578Y-90689D01*
X239561Y-90648D01*
X239548Y-90606D01*
X239538Y-90563D01*
X239532Y-90519D01*
X239530Y-90475D01*
X191575Y-12700D02*
X191577Y-12656D01*
X191583Y-12612D01*
X191593Y-12569D01*
X191606Y-12527D01*
X191623Y-12486D01*
X191644Y-12447D01*
X191668Y-12410D01*
X191695Y-12375D01*
X191725Y-12343D01*
X191758Y-12313D01*
X191794Y-12287D01*
X191831Y-12263D01*
X191871Y-12244D01*
X191912Y-12227D01*
X191955Y-12215D01*
X191998Y-12206D01*
X192042Y-12201D01*
X192086Y-12200D01*
X192130Y-12203D01*
X192174Y-12210D01*
X192217Y-12221D01*
X192259Y-12235D01*
X192299Y-12253D01*
X192338Y-12275D01*
X192374Y-12299D01*
X192408Y-12327D01*
X192440Y-12358D01*
X192469Y-12392D01*
X192495Y-12428D01*
X192517Y-12466D01*
X192536Y-12506D01*
X192551Y-12548D01*
X192563Y-12590D01*
X192571Y-12634D01*
X192575Y-12678D01*
X192575Y-12722D01*
X192571Y-12766D01*
X192563Y-12810D01*
X192551Y-12852D01*
X192536Y-12894D01*
X192517Y-12934D01*
X192495Y-12972D01*
X192469Y-13008D01*
X192440Y-13042D01*
X192408Y-13073D01*
X192374Y-13101D01*
X192338Y-13125D01*
X192299Y-13147D01*
X192259Y-13165D01*
X192217Y-13179D01*
X192174Y-13190D01*
X192130Y-13197D01*
X192086Y-13200D01*
X192042Y-13199D01*
X191998Y-13194D01*
X191955Y-13185D01*
X191912Y-13173D01*
X191871Y-13156D01*
X191831Y-13137D01*
X191794Y-13113D01*
X191758Y-13087D01*
X191725Y-13057D01*
X191695Y-13025D01*
X191668Y-12990D01*
X191644Y-12953D01*
X191623Y-12914D01*
X191606Y-12873D01*
X191593Y-12831D01*
X191583Y-12788D01*
X191577Y-12744D01*
X191575Y-12700D01*
X239530Y-44755D02*
X239532Y-44711D01*
X239538Y-44667D01*
X239548Y-44624D01*
X239561Y-44582D01*
X239578Y-44541D01*
X239599Y-44502D01*
X239623Y-44465D01*
X239650Y-44430D01*
X239680Y-44398D01*
X239713Y-44368D01*
X239749Y-44342D01*
X239786Y-44318D01*
X239826Y-44299D01*
X239867Y-44282D01*
X239910Y-44270D01*
X239953Y-44261D01*
X239997Y-44256D01*
X240041Y-44255D01*
X240085Y-44258D01*
X240129Y-44265D01*
X240172Y-44276D01*
X240214Y-44290D01*
X240254Y-44308D01*
X240293Y-44330D01*
X240329Y-44354D01*
X240363Y-44382D01*
X240395Y-44413D01*
X240424Y-44447D01*
X240450Y-44483D01*
X240472Y-44521D01*
X240491Y-44561D01*
X240506Y-44603D01*
X240518Y-44645D01*
X240526Y-44689D01*
X240530Y-44733D01*
X240530Y-44777D01*
X240526Y-44821D01*
X240518Y-44865D01*
X240506Y-44907D01*
X240491Y-44949D01*
X240472Y-44989D01*
X240450Y-45027D01*
X240424Y-45063D01*
X240395Y-45097D01*
X240363Y-45128D01*
X240329Y-45156D01*
X240293Y-45180D01*
X240254Y-45202D01*
X240214Y-45220D01*
X240172Y-45234D01*
X240129Y-45245D01*
X240085Y-45252D01*
X240041Y-45255D01*
X239997Y-45254D01*
X239953Y-45249D01*
X239910Y-45240D01*
X239867Y-45228D01*
X239826Y-45211D01*
X239786Y-45192D01*
X239749Y-45168D01*
X239713Y-45142D01*
X239680Y-45112D01*
X239650Y-45080D01*
X239623Y-45045D01*
X239599Y-45008D01*
X239578Y-44969D01*
X239561Y-44928D01*
X239548Y-44886D01*
X239538Y-44843D01*
X239532Y-44799D01*
X239530Y-44755D01*
D11*
X314300Y18800D02*
X314330Y18802D01*
X314360Y18807D01*
X314389Y18816D01*
X314416Y18829D01*
X314442Y18844D01*
X314466Y18863D01*
X314487Y18884D01*
X314506Y18908D01*
X314521Y18934D01*
X314534Y18961D01*
X314543Y18990D01*
X314548Y19020D01*
X314550Y19050D01*
X314548Y19080D01*
X314543Y19110D01*
X314534Y19139D01*
X314521Y19166D01*
X314506Y19192D01*
X314487Y19216D01*
X314466Y19237D01*
X314442Y19256D01*
X314416Y19271D01*
X314389Y19284D01*
X314360Y19293D01*
X314330Y19298D01*
X314300Y19300D01*
X314270Y19298D01*
X314240Y19293D01*
X314211Y19284D01*
X314184Y19271D01*
X314158Y19256D01*
X314134Y19237D01*
X314113Y19216D01*
X314094Y19192D01*
X314079Y19166D01*
X314066Y19139D01*
X314057Y19110D01*
X314052Y19080D01*
X314050Y19050D01*
X314052Y19020D01*
X314057Y18990D01*
X314066Y18961D01*
X314079Y18934D01*
X314094Y18908D01*
X314113Y18884D01*
X314134Y18863D01*
X314158Y18844D01*
X314184Y18829D01*
X314211Y18816D01*
X314240Y18807D01*
X314270Y18802D01*
X314300Y18800D01*
X299970Y78130D02*
X299968Y78100D01*
X299963Y78070D01*
X299954Y78041D01*
X299941Y78014D01*
X299926Y77988D01*
X299907Y77964D01*
X299886Y77943D01*
X299862Y77924D01*
X299836Y77909D01*
X299809Y77896D01*
X299780Y77887D01*
X299750Y77882D01*
X299720Y77880D01*
X299690Y77882D01*
X299660Y77887D01*
X299631Y77896D01*
X299604Y77909D01*
X299578Y77924D01*
X299554Y77943D01*
X299533Y77964D01*
X299514Y77988D01*
X299499Y78014D01*
X299486Y78041D01*
X299477Y78070D01*
X299472Y78100D01*
X299470Y78130D01*
X299472Y78160D01*
X299477Y78190D01*
X299486Y78219D01*
X299499Y78246D01*
X299514Y78272D01*
X299533Y78296D01*
X299554Y78317D01*
X299578Y78336D01*
X299604Y78351D01*
X299631Y78364D01*
X299660Y78373D01*
X299690Y78378D01*
X299720Y78380D01*
X299750Y78378D01*
X299780Y78373D01*
X299809Y78364D01*
X299836Y78351D01*
X299862Y78336D01*
X299886Y78317D01*
X299907Y78296D01*
X299926Y78272D01*
X299941Y78246D01*
X299954Y78219D01*
X299963Y78190D01*
X299968Y78160D01*
X299970Y78130D01*
D10*
X90940Y49225D02*
X90942Y49269D01*
X90948Y49313D01*
X90958Y49356D01*
X90971Y49398D01*
X90988Y49439D01*
X91009Y49478D01*
X91033Y49515D01*
X91060Y49550D01*
X91090Y49582D01*
X91123Y49612D01*
X91159Y49638D01*
X91196Y49662D01*
X91236Y49681D01*
X91277Y49698D01*
X91320Y49710D01*
X91363Y49719D01*
X91407Y49724D01*
X91451Y49725D01*
X91495Y49722D01*
X91539Y49715D01*
X91582Y49704D01*
X91624Y49690D01*
X91664Y49672D01*
X91703Y49650D01*
X91739Y49626D01*
X91773Y49598D01*
X91805Y49567D01*
X91834Y49533D01*
X91860Y49497D01*
X91882Y49459D01*
X91901Y49419D01*
X91916Y49377D01*
X91928Y49335D01*
X91936Y49291D01*
X91940Y49247D01*
X91940Y49203D01*
X91936Y49159D01*
X91928Y49115D01*
X91916Y49073D01*
X91901Y49031D01*
X91882Y48991D01*
X91860Y48953D01*
X91834Y48917D01*
X91805Y48883D01*
X91773Y48852D01*
X91739Y48824D01*
X91703Y48800D01*
X91664Y48778D01*
X91624Y48760D01*
X91582Y48746D01*
X91539Y48735D01*
X91495Y48728D01*
X91451Y48725D01*
X91407Y48726D01*
X91363Y48731D01*
X91320Y48740D01*
X91277Y48752D01*
X91236Y48769D01*
X91196Y48788D01*
X91159Y48812D01*
X91123Y48838D01*
X91090Y48868D01*
X91060Y48900D01*
X91033Y48935D01*
X91009Y48972D01*
X90988Y49011D01*
X90971Y49052D01*
X90958Y49094D01*
X90948Y49137D01*
X90942Y49181D01*
X90940Y49225D01*
D11*
X174650Y-60710D02*
X174620Y-60712D01*
X174590Y-60717D01*
X174561Y-60726D01*
X174534Y-60739D01*
X174508Y-60754D01*
X174484Y-60773D01*
X174463Y-60794D01*
X174444Y-60818D01*
X174429Y-60844D01*
X174416Y-60871D01*
X174407Y-60900D01*
X174402Y-60930D01*
X174400Y-60960D01*
X174402Y-60990D01*
X174407Y-61020D01*
X174416Y-61049D01*
X174429Y-61076D01*
X174444Y-61102D01*
X174463Y-61126D01*
X174484Y-61147D01*
X174508Y-61166D01*
X174534Y-61181D01*
X174561Y-61194D01*
X174590Y-61203D01*
X174620Y-61208D01*
X174650Y-61210D01*
X174680Y-61208D01*
X174710Y-61203D01*
X174739Y-61194D01*
X174766Y-61181D01*
X174792Y-61166D01*
X174816Y-61147D01*
X174837Y-61126D01*
X174856Y-61102D01*
X174871Y-61076D01*
X174884Y-61049D01*
X174893Y-61020D01*
X174898Y-60990D01*
X174900Y-60960D01*
X174898Y-60930D01*
X174893Y-60900D01*
X174884Y-60871D01*
X174871Y-60844D01*
X174856Y-60818D01*
X174837Y-60794D01*
X174816Y-60773D01*
X174792Y-60754D01*
X174766Y-60739D01*
X174739Y-60726D01*
X174710Y-60717D01*
X174680Y-60712D01*
X174650Y-60710D01*
D10*
X129345Y-7580D02*
X129347Y-7536D01*
X129353Y-7492D01*
X129363Y-7449D01*
X129376Y-7407D01*
X129393Y-7366D01*
X129414Y-7327D01*
X129438Y-7290D01*
X129465Y-7255D01*
X129495Y-7223D01*
X129528Y-7193D01*
X129564Y-7167D01*
X129601Y-7143D01*
X129641Y-7124D01*
X129682Y-7107D01*
X129725Y-7095D01*
X129768Y-7086D01*
X129812Y-7081D01*
X129856Y-7080D01*
X129900Y-7083D01*
X129944Y-7090D01*
X129987Y-7101D01*
X130029Y-7115D01*
X130069Y-7133D01*
X130108Y-7155D01*
X130144Y-7179D01*
X130178Y-7207D01*
X130210Y-7238D01*
X130239Y-7272D01*
X130265Y-7308D01*
X130287Y-7346D01*
X130306Y-7386D01*
X130321Y-7428D01*
X130333Y-7470D01*
X130341Y-7514D01*
X130345Y-7558D01*
X130345Y-7602D01*
X130341Y-7646D01*
X130333Y-7690D01*
X130321Y-7732D01*
X130306Y-7774D01*
X130287Y-7814D01*
X130265Y-7852D01*
X130239Y-7888D01*
X130210Y-7922D01*
X130178Y-7953D01*
X130144Y-7981D01*
X130108Y-8005D01*
X130069Y-8027D01*
X130029Y-8045D01*
X129987Y-8059D01*
X129944Y-8070D01*
X129900Y-8077D01*
X129856Y-8080D01*
X129812Y-8079D01*
X129768Y-8074D01*
X129725Y-8065D01*
X129682Y-8053D01*
X129641Y-8036D01*
X129601Y-8017D01*
X129564Y-7993D01*
X129528Y-7967D01*
X129495Y-7937D01*
X129465Y-7905D01*
X129438Y-7870D01*
X129414Y-7833D01*
X129393Y-7794D01*
X129376Y-7753D01*
X129363Y-7711D01*
X129353Y-7668D01*
X129347Y-7624D01*
X129345Y-7580D01*
M02*
