G04 EAGLE Gerber RS-274X export*
G75*
%MOMM*%
%FSLAX34Y34*%
%LPD*%
%INSoldermask Top*%
%IPPOS*%
%AMOC8*
5,1,8,0,0,1.08239X$1,22.5*%
G01*
G04 Define Apertures*
%ADD10R,0.823200X0.853200*%
%ADD11R,0.823200X0.823200*%
%ADD12R,0.853200X0.823200*%
%ADD13R,2.203200X2.203200*%
%ADD14C,0.509200*%
%ADD15R,0.678200X0.703200*%
%ADD16R,0.703200X0.678200*%
D10*
X269240Y83230D03*
X269240Y92030D03*
D11*
X90730Y79394D03*
X90730Y88394D03*
X86940Y-7620D03*
X95940Y-7620D03*
D12*
X95840Y-35560D03*
X87040Y-35560D03*
D11*
X288290Y-59110D03*
X288290Y-50110D03*
D13*
X107950Y139323D03*
X328930Y139323D03*
X32860Y-106840D03*
D14*
X199470Y87550D03*
X204470Y87550D03*
X209470Y87550D03*
X199470Y82550D03*
X209470Y82550D03*
X199470Y77550D03*
X204470Y77550D03*
X209470Y77550D03*
D15*
X250235Y19050D03*
X239985Y19050D03*
X97830Y-58420D03*
X87590Y-58420D03*
D16*
X240030Y-96475D03*
X240030Y-106725D03*
D15*
X198075Y-12700D03*
X208325Y-12700D03*
D16*
X240030Y-50755D03*
X240030Y-61005D03*
D15*
X309920Y19050D03*
X299680Y19050D03*
D16*
X299720Y82510D03*
X299720Y92750D03*
X91440Y43225D03*
X91440Y32975D03*
D15*
X179030Y-60960D03*
X189270Y-60960D03*
X135845Y-7580D03*
X146095Y-7580D03*
D13*
X181610Y139323D03*
X255270Y139323D03*
X32860Y90090D03*
X32860Y139323D03*
X32860Y40858D03*
X32860Y-8375D03*
X32860Y-57608D03*
M02*
